%TF.GenerationSoftware,KiCad,Pcbnew,9.0.8+dfsg-1*%
%TF.CreationDate,2026-09-01T13:42:38+00:00*%
%TF.ProjectId,panasonic-p11-revH,70616e61-736f-46e6-9963-2d7031312d72,rev?*%
%TF.SameCoordinates,Original*%
%TF.FileFunction,Copper,L2,Bot*%
%TF.FilePolarity,Positive*%
%FSLAX46Y46*%
G04 Gerber Fmt 4.6, Leading zero omitted, Abs format (unit mm)*
G04 Created by KiCad (PCBNEW 9.0.8+dfsg-1) date 2026-09-01 13:42:38*
%MOMM*%
%LPD*%
G01*
G04 APERTURE LIST*
%TA.AperFunction,ComponentPad*%
%ADD10R,1.700000X1.700000*%
%TD*%
%TA.AperFunction,ComponentPad*%
%ADD11C,1.700000*%
%TD*%
%TA.AperFunction,ComponentPad*%
%ADD12R,1.200000X1.000000*%
%TD*%
%TA.AperFunction,ComponentPad*%
%ADD13O,1.200000X1.000000*%
%TD*%
%TA.AperFunction,ComponentPad*%
%ADD14R,1.600000X1.600000*%
%TD*%
%TA.AperFunction,ComponentPad*%
%ADD15C,1.600000*%
%TD*%
%TA.AperFunction,ViaPad*%
%ADD16C,0.600000*%
%TD*%
%TA.AperFunction,Conductor*%
%ADD17C,0.200000*%
%TD*%
G04 APERTURE END LIST*
D10*
%TO.P,ESP32-C3,1*%
%TO.N,+5V*%
X22360000Y-24380000D03*
D11*
%TO.P,ESP32-C3,2*%
%TO.N,GND*%
X24900000Y-24380000D03*
%TO.P,ESP32-C3,3*%
%TO.N,+3V3*%
X27440000Y-24380000D03*
%TO.P,ESP32-C3,4*%
%TO.N,ESP_RX*%
X29980000Y-24380000D03*
%TO.P,ESP32-C3,5*%
%TO.N,ESP_TX*%
X32520000Y-24380000D03*
%TO.P,ESP32-C3,6*%
%TO.N,N/C*%
X35060000Y-24380000D03*
%TO.P,ESP32-C3,7*%
%TO.N,IO1*%
X37600000Y-24380000D03*
%TO.P,ESP32-C3,8*%
%TO.N,IO0*%
X40140000Y-24380000D03*
%TO.P,ESP32-C3,9*%
%TO.N,N/C*%
X22360000Y-39620000D03*
%TO.P,ESP32-C3,10*%
X24900000Y-39620000D03*
%TO.P,ESP32-C3,11*%
%TO.N,IO7*%
X27440000Y-39620000D03*
%TO.P,ESP32-C3,12*%
%TO.N,N/C*%
X29980000Y-39620000D03*
%TO.P,ESP32-C3,13*%
X32520000Y-39620000D03*
%TO.P,ESP32-C3,14*%
%TO.N,IO10*%
X35060000Y-39620000D03*
%TO.P,ESP32-C3,15*%
%TO.N,N/C*%
X37600000Y-39620000D03*
%TO.P,ESP32-C3,16*%
X40140000Y-39620000D03*
%TD*%
%TO.P,BSS138,H1*%
%TO.N,AC_RX_5V*%
X56080000Y-24380000D03*
%TO.P,BSS138,H2*%
%TO.N,IO10_5V*%
X56080000Y-26920000D03*
%TO.P,BSS138,H3*%
%TO.N,+5V*%
X56080000Y-29460000D03*
%TO.P,BSS138,H4*%
%TO.N,GND*%
X56080000Y-32000000D03*
%TO.P,BSS138,H5*%
%TO.N,IO7_5V*%
X56080000Y-34540000D03*
%TO.P,BSS138,H6*%
%TO.N,AC_TX_5V*%
X56080000Y-37080000D03*
D10*
%TO.P,BSS138,L1*%
%TO.N,ESP_TX*%
X45920000Y-24380000D03*
D11*
%TO.P,BSS138,L2*%
%TO.N,IO10*%
X45920000Y-26920000D03*
%TO.P,BSS138,L3*%
%TO.N,+3V3*%
X45920000Y-29460000D03*
%TO.P,BSS138,L4*%
%TO.N,GND*%
X45920000Y-32000000D03*
%TO.P,BSS138,L5*%
%TO.N,IO7*%
X45920000Y-34540000D03*
%TO.P,BSS138,L6*%
%TO.N,ESP_RX*%
X45920000Y-37080000D03*
%TD*%
D12*
%TO.P,J11,1*%
%TO.N,AC_5V*%
X66500000Y-36445000D03*
D13*
%TO.P,J11,2*%
%TO.N,AC_TX_5V*%
X66500000Y-35175000D03*
%TO.P,J11,3*%
%TO.N,AC_RX_5V*%
X66500000Y-33905000D03*
%TO.P,J11,4*%
%TO.N,N/C*%
X66500000Y-32635000D03*
%TO.P,J11,5*%
X66500000Y-31365000D03*
%TO.P,J11,6*%
X66500000Y-30095000D03*
%TO.P,J11,7*%
X66500000Y-28825000D03*
%TO.P,J11,8*%
%TO.N,GND*%
X66500000Y-27555000D03*
%TD*%
D14*
%TO.P,D1,1*%
%TO.N,+5V*%
X47255000Y-39600000D03*
D15*
%TO.P,D1,2*%
%TO.N,AC_5V*%
X56145000Y-39600000D03*
%TD*%
D14*
%TO.P,C1,1*%
%TO.N,+5V*%
X58100000Y-27600000D03*
D15*
%TO.P,C1,2*%
%TO.N,GND*%
X60100000Y-27600000D03*
%TD*%
D10*
%TO.P,J1,1*%
%TO.N,IO1*%
X58190000Y-24300000D03*
D11*
%TO.P,J1,2*%
%TO.N,IO0*%
X60730000Y-24300000D03*
%TO.P,J1,3*%
%TO.N,GND*%
X63270000Y-24300000D03*
%TO.P,J1,4*%
%TO.N,+3V3*%
X65810000Y-24300000D03*
%TD*%
D10*
%TO.P,J2,1*%
%TO.N,IO10_5V*%
X58190000Y-39700000D03*
D11*
%TO.P,J2,2*%
%TO.N,IO7_5V*%
X60730000Y-39700000D03*
%TO.P,J2,3*%
%TO.N,GND*%
X63270000Y-39700000D03*
%TO.P,J2,4*%
%TO.N,+5V*%
X65810000Y-39700000D03*
%TD*%
D10*
%TO.P,CNT,1*%
%TO.N,AC_5V*%
X63200000Y-26920000D03*
D11*
%TO.P,CNT,2*%
%TO.N,AC_TX_5V*%
X63200000Y-29460000D03*
%TO.P,CNT,3*%
%TO.N,AC_RX_5V*%
X63200000Y-32000000D03*
%TO.P,CNT,4*%
%TO.N,N/C*%
X63200000Y-34540000D03*
%TO.P,CNT,5*%
%TO.N,GND*%
X63200000Y-37080000D03*
%TD*%
D16*
%TO.N,+5V*%
X53747200Y-31300000D03*
X39172000Y-35345200D03*
%TO.N,+3V3*%
X64928600Y-31942500D03*
X44866300Y-33151700D03*
%TO.N,IO0*%
X61101100Y-26366100D03*
X44390400Y-25066700D03*
X49544900Y-28294400D03*
X59058300Y-28966200D03*
%TD*%
D17*
%TO.N,GND*%
X63270000Y-39700000D02*
X63200000Y-39630000D01*
X61160000Y-37080000D02*
X56080000Y-32000000D01*
X63200000Y-37080000D02*
X61160000Y-37080000D01*
X63200000Y-39630000D02*
X63200000Y-37080000D01*
%TO.N,+5V*%
X57822300Y-30792200D02*
X62840100Y-35810000D01*
X35826900Y-32000000D02*
X30843800Y-32000000D01*
X22360000Y-24380000D02*
X23511700Y-24380000D01*
X53747200Y-32006100D02*
X47255000Y-38498300D01*
X23511700Y-24667900D02*
X23511700Y-24380000D01*
X57822300Y-29460000D02*
X56080000Y-29460000D01*
X35826900Y-32000100D02*
X35826900Y-32000000D01*
X57822300Y-29460000D02*
X57822300Y-30792200D01*
X58100000Y-27600000D02*
X58100000Y-28701700D01*
X39172000Y-35345200D02*
X35826900Y-32000100D01*
X47255000Y-39600000D02*
X47255000Y-38498300D01*
X53747200Y-31300000D02*
X53747200Y-32006100D01*
X63626200Y-35810000D02*
X65810000Y-37993800D01*
X57822300Y-28979400D02*
X57822300Y-29460000D01*
X65810000Y-37993800D02*
X65810000Y-39700000D01*
X30843800Y-32000000D02*
X23511700Y-24667900D01*
X62840100Y-35810000D02*
X63626200Y-35810000D01*
X58100000Y-28701700D02*
X57822300Y-28979400D01*
%TO.N,AC_5V*%
X62017600Y-32471300D02*
X62816300Y-33270000D01*
X63610100Y-33270000D02*
X65012800Y-34672700D01*
X65012800Y-34957800D02*
X66500000Y-36445000D01*
X62816300Y-33270000D02*
X63610100Y-33270000D01*
X63200000Y-28071700D02*
X62912100Y-28071700D01*
X62017600Y-28966200D02*
X62017600Y-32471300D01*
X62912100Y-28071700D02*
X62017600Y-28966200D01*
X65012800Y-34672700D02*
X65012800Y-34957800D01*
X63200000Y-26920000D02*
X63200000Y-28071700D01*
%TO.N,+3V3*%
X65810000Y-24300000D02*
X64928600Y-25181400D01*
X44753400Y-33038800D02*
X44866300Y-33151700D01*
X45920000Y-29460000D02*
X44753400Y-30626600D01*
X44753400Y-30626600D02*
X44753400Y-33038800D01*
X64928600Y-25181400D02*
X64928600Y-31942500D01*
%TO.N,ESP_TX*%
X45920000Y-24380000D02*
X44768300Y-24380000D01*
X44768300Y-24380000D02*
X44226300Y-24380000D01*
X43061500Y-25544800D02*
X33684800Y-25544800D01*
X33684800Y-25544800D02*
X32520000Y-24380000D01*
X44226300Y-24380000D02*
X43061500Y-25544800D01*
%TO.N,ESP_RX*%
X42680000Y-37080000D02*
X29980000Y-24380000D01*
X45920000Y-37080000D02*
X42680000Y-37080000D01*
%TO.N,AC_RX_5V*%
X65598300Y-33905000D02*
X64323200Y-32629900D01*
X64373600Y-25939900D02*
X64178300Y-25744600D01*
X63200000Y-32000000D02*
X64323200Y-32000000D01*
X64323200Y-32000000D02*
X64323200Y-31490000D01*
X64323200Y-31490000D02*
X64373600Y-31439600D01*
X64178300Y-25744600D02*
X57444600Y-25744600D01*
X57444600Y-25744600D02*
X56080000Y-24380000D01*
X64323200Y-32629900D02*
X64323200Y-32000000D01*
X66500000Y-33905000D02*
X65598300Y-33905000D01*
X64373600Y-31439600D02*
X64373600Y-25939900D01*
%TO.N,IO0*%
X60307400Y-28966200D02*
X61201700Y-28071900D01*
X44390400Y-25066700D02*
X44868300Y-25544600D01*
X59058300Y-28966200D02*
X60307400Y-28966200D01*
X44868300Y-25544600D02*
X46795100Y-25544600D01*
X46795100Y-25544600D02*
X49544900Y-28294400D01*
X61201700Y-28071900D02*
X61201700Y-26466700D01*
X61201700Y-26466700D02*
X61101100Y-26366100D01*
%TO.N,IO10*%
X47079500Y-28079500D02*
X47079500Y-37619700D01*
X46455200Y-38244000D02*
X36436000Y-38244000D01*
X45920000Y-26920000D02*
X47079500Y-28079500D01*
X36436000Y-38244000D02*
X35060000Y-39620000D01*
X47079500Y-37619700D02*
X46455200Y-38244000D01*
%TO.N,IO10_5V*%
X54887900Y-37551000D02*
X54887900Y-28112100D01*
X55744700Y-38407800D02*
X54887900Y-37551000D01*
X56897800Y-38407800D02*
X55744700Y-38407800D01*
X54887900Y-28112100D02*
X56080000Y-26920000D01*
X58190000Y-39700000D02*
X56897800Y-38407800D01*
%TO.N,IO7_5V*%
X60730000Y-39190000D02*
X56080000Y-34540000D01*
X60730000Y-39700000D02*
X60730000Y-39190000D01*
%TD*%
%TA.AperFunction,Conductor*%
%TO.N,GND*%
G36*
X57364839Y-29880185D02*
G01*
X57410594Y-29932989D01*
X57421800Y-29984500D01*
X57421800Y-30739473D01*
X57421800Y-30844927D01*
X57424422Y-30854711D01*
X57449093Y-30946789D01*
X57460974Y-30967366D01*
X57501820Y-31038113D01*
X62594187Y-36130480D01*
X62685512Y-36183207D01*
X62787373Y-36210500D01*
X63408945Y-36210500D01*
X63475984Y-36230185D01*
X63496626Y-36246819D01*
X65373181Y-38123373D01*
X65406666Y-38184696D01*
X65409500Y-38211054D01*
X65409500Y-38536840D01*
X65389815Y-38603879D01*
X65341795Y-38647325D01*
X65207002Y-38716006D01*
X65060505Y-38822441D01*
X65060500Y-38822445D01*
X64932445Y-38950500D01*
X64932441Y-38950505D01*
X64826006Y-39097002D01*
X64743788Y-39258360D01*
X64743787Y-39258363D01*
X64687829Y-39430589D01*
X64659500Y-39609448D01*
X64659500Y-39790551D01*
X64687829Y-39969410D01*
X64743787Y-40141636D01*
X64743788Y-40141639D01*
X64826003Y-40302993D01*
X64934709Y-40452615D01*
X64958188Y-40518422D01*
X64942362Y-40586475D01*
X64892256Y-40635170D01*
X64834390Y-40649500D01*
X61705610Y-40649500D01*
X61638571Y-40629815D01*
X61592816Y-40577011D01*
X61582872Y-40507853D01*
X61605291Y-40452615D01*
X61665676Y-40369501D01*
X61713996Y-40302994D01*
X61796211Y-40141639D01*
X61852171Y-39969409D01*
X61869864Y-39857701D01*
X61880500Y-39790551D01*
X61880500Y-39609448D01*
X61864019Y-39505397D01*
X61852171Y-39430591D01*
X61796211Y-39258361D01*
X61796211Y-39258360D01*
X61767740Y-39202484D01*
X61713996Y-39097006D01*
X61655870Y-39017002D01*
X61607558Y-38950505D01*
X61607554Y-38950500D01*
X61479499Y-38822445D01*
X61479494Y-38822441D01*
X61332997Y-38716006D01*
X61332996Y-38716005D01*
X61332994Y-38716004D01*
X61256906Y-38677235D01*
X61171639Y-38633788D01*
X61171636Y-38633787D01*
X60999410Y-38577829D01*
X60820551Y-38549500D01*
X60820546Y-38549500D01*
X60707255Y-38549500D01*
X60640216Y-38529815D01*
X60619574Y-38513181D01*
X57185674Y-35079281D01*
X57152189Y-35017958D01*
X57155423Y-34953284D01*
X57202171Y-34809409D01*
X57210703Y-34755540D01*
X57230500Y-34630551D01*
X57230500Y-34449448D01*
X57210326Y-34322081D01*
X57202171Y-34270591D01*
X57146211Y-34098361D01*
X57146211Y-34098360D01*
X57117740Y-34042484D01*
X57063996Y-33937006D01*
X57032639Y-33893847D01*
X56957558Y-33790505D01*
X56957554Y-33790500D01*
X56829499Y-33662445D01*
X56829494Y-33662441D01*
X56682997Y-33556006D01*
X56682996Y-33556005D01*
X56682994Y-33556004D01*
X56613149Y-33520416D01*
X56521639Y-33473788D01*
X56521636Y-33473787D01*
X56349410Y-33417829D01*
X56170551Y-33389500D01*
X56170546Y-33389500D01*
X55989454Y-33389500D01*
X55989449Y-33389500D01*
X55810589Y-33417829D01*
X55638363Y-33473787D01*
X55638360Y-33473788D01*
X55501295Y-33543628D01*
X55477248Y-33555881D01*
X55472665Y-33558216D01*
X55472173Y-33557251D01*
X55409726Y-33574134D01*
X55343126Y-33553008D01*
X55298521Y-33499230D01*
X55288400Y-33450163D01*
X55288400Y-30549836D01*
X55308085Y-30482797D01*
X55360889Y-30437042D01*
X55430047Y-30427098D01*
X55472366Y-30442369D01*
X55472665Y-30441784D01*
X55638360Y-30526211D01*
X55638363Y-30526212D01*
X55711072Y-30549836D01*
X55810591Y-30582171D01*
X55893429Y-30595291D01*
X55989449Y-30610500D01*
X55989454Y-30610500D01*
X56170551Y-30610500D01*
X56257259Y-30596765D01*
X56349409Y-30582171D01*
X56521639Y-30526211D01*
X56682994Y-30443996D01*
X56829501Y-30337553D01*
X56957553Y-30209501D01*
X57063996Y-30062994D01*
X57132675Y-29928205D01*
X57143124Y-29917140D01*
X57149447Y-29903297D01*
X57166627Y-29892255D01*
X57180650Y-29877409D01*
X57196329Y-29873167D01*
X57208225Y-29865523D01*
X57243160Y-29860500D01*
X57297800Y-29860500D01*
X57364839Y-29880185D01*
G37*
%TD.AperFunction*%
%TA.AperFunction,Conductor*%
G36*
X26610123Y-23370185D02*
G01*
X26655878Y-23422989D01*
X26665822Y-23492147D01*
X26636797Y-23555703D01*
X26630765Y-23562181D01*
X26562445Y-23630500D01*
X26562441Y-23630505D01*
X26456006Y-23777002D01*
X26373788Y-23938360D01*
X26373787Y-23938363D01*
X26317829Y-24110589D01*
X26289500Y-24289448D01*
X26289500Y-24470551D01*
X26317829Y-24649410D01*
X26373787Y-24821636D01*
X26373788Y-24821639D01*
X26415243Y-24902997D01*
X26447706Y-24966709D01*
X26456006Y-24982997D01*
X26562441Y-25129494D01*
X26562445Y-25129499D01*
X26690500Y-25257554D01*
X26690505Y-25257558D01*
X26798972Y-25336363D01*
X26837006Y-25363996D01*
X26929906Y-25411331D01*
X26998360Y-25446211D01*
X26998363Y-25446212D01*
X27031831Y-25457086D01*
X27170591Y-25502171D01*
X27253429Y-25515291D01*
X27349449Y-25530500D01*
X27349454Y-25530500D01*
X27530551Y-25530500D01*
X27617259Y-25516765D01*
X27709409Y-25502171D01*
X27881639Y-25446211D01*
X28042994Y-25363996D01*
X28189501Y-25257553D01*
X28317553Y-25129501D01*
X28423996Y-24982994D01*
X28506211Y-24821639D01*
X28562171Y-24649409D01*
X28579765Y-24538326D01*
X28587527Y-24489321D01*
X28617456Y-24426186D01*
X28676768Y-24389255D01*
X28746630Y-24390253D01*
X28804863Y-24428863D01*
X28832473Y-24489321D01*
X28857829Y-24649410D01*
X28913787Y-24821636D01*
X28913788Y-24821639D01*
X28955243Y-24902997D01*
X28987706Y-24966709D01*
X28996006Y-24982997D01*
X29102441Y-25129494D01*
X29102445Y-25129499D01*
X29230500Y-25257554D01*
X29230505Y-25257558D01*
X29338972Y-25336363D01*
X29377006Y-25363996D01*
X29469906Y-25411331D01*
X29538360Y-25446211D01*
X29538363Y-25446212D01*
X29571831Y-25457086D01*
X29710591Y-25502171D01*
X29793429Y-25515291D01*
X29889449Y-25530500D01*
X29889454Y-25530500D01*
X30070551Y-25530500D01*
X30249409Y-25502171D01*
X30300182Y-25485674D01*
X30393284Y-25455423D01*
X30463123Y-25453429D01*
X30519281Y-25485674D01*
X40663681Y-35630074D01*
X40697166Y-35691397D01*
X40700000Y-35717755D01*
X40700000Y-37719500D01*
X40680315Y-37786539D01*
X40627511Y-37832294D01*
X40576000Y-37843500D01*
X36383273Y-37843500D01*
X36281410Y-37870793D01*
X36190087Y-37923520D01*
X36190084Y-37923522D01*
X35599281Y-38514325D01*
X35537958Y-38547810D01*
X35473283Y-38544575D01*
X35329411Y-38497829D01*
X35329412Y-38497829D01*
X35150551Y-38469500D01*
X35150546Y-38469500D01*
X34969454Y-38469500D01*
X34969449Y-38469500D01*
X34790589Y-38497829D01*
X34618363Y-38553787D01*
X34618360Y-38553788D01*
X34457002Y-38636006D01*
X34310505Y-38742441D01*
X34310500Y-38742445D01*
X34182445Y-38870500D01*
X34182441Y-38870505D01*
X34076006Y-39017002D01*
X33993788Y-39178360D01*
X33993787Y-39178363D01*
X33937829Y-39350589D01*
X33912473Y-39510678D01*
X33882544Y-39573813D01*
X33823232Y-39610744D01*
X33753369Y-39609746D01*
X33695137Y-39571136D01*
X33667527Y-39510678D01*
X33648593Y-39391137D01*
X33642171Y-39350591D01*
X33586211Y-39178361D01*
X33586211Y-39178360D01*
X33544756Y-39097002D01*
X33503996Y-39017006D01*
X33490396Y-38998287D01*
X33397558Y-38870505D01*
X33397554Y-38870500D01*
X33269499Y-38742445D01*
X33269494Y-38742441D01*
X33122997Y-38636006D01*
X33122996Y-38636005D01*
X33122994Y-38636004D01*
X33051057Y-38599350D01*
X32961639Y-38553788D01*
X32961636Y-38553787D01*
X32789410Y-38497829D01*
X32610551Y-38469500D01*
X32610546Y-38469500D01*
X32429454Y-38469500D01*
X32429449Y-38469500D01*
X32250589Y-38497829D01*
X32078363Y-38553787D01*
X32078360Y-38553788D01*
X31917002Y-38636006D01*
X31770505Y-38742441D01*
X31770500Y-38742445D01*
X31642445Y-38870500D01*
X31642441Y-38870505D01*
X31536006Y-39017002D01*
X31453788Y-39178360D01*
X31453787Y-39178363D01*
X31397829Y-39350589D01*
X31372473Y-39510678D01*
X31342544Y-39573813D01*
X31283232Y-39610744D01*
X31213369Y-39609746D01*
X31155137Y-39571136D01*
X31127527Y-39510678D01*
X31108593Y-39391137D01*
X31102171Y-39350591D01*
X31046211Y-39178361D01*
X31046211Y-39178360D01*
X31004756Y-39097002D01*
X30963996Y-39017006D01*
X30950396Y-38998287D01*
X30857558Y-38870505D01*
X30857554Y-38870500D01*
X30729499Y-38742445D01*
X30729494Y-38742441D01*
X30582997Y-38636006D01*
X30582996Y-38636005D01*
X30582994Y-38636004D01*
X30511057Y-38599350D01*
X30421639Y-38553788D01*
X30421636Y-38553787D01*
X30249410Y-38497829D01*
X30070551Y-38469500D01*
X30070546Y-38469500D01*
X29889454Y-38469500D01*
X29889449Y-38469500D01*
X29710589Y-38497829D01*
X29538363Y-38553787D01*
X29538360Y-38553788D01*
X29377002Y-38636006D01*
X29230505Y-38742441D01*
X29230500Y-38742445D01*
X29102445Y-38870500D01*
X29102441Y-38870505D01*
X28996006Y-39017002D01*
X28913788Y-39178360D01*
X28913787Y-39178363D01*
X28857829Y-39350589D01*
X28832473Y-39510678D01*
X28802544Y-39573813D01*
X28743232Y-39610744D01*
X28673369Y-39609746D01*
X28615137Y-39571136D01*
X28587527Y-39510678D01*
X28568593Y-39391137D01*
X28562171Y-39350591D01*
X28506211Y-39178361D01*
X28506211Y-39178360D01*
X28464756Y-39097002D01*
X28423996Y-39017006D01*
X28410396Y-38998287D01*
X28317558Y-38870505D01*
X28317554Y-38870500D01*
X28189499Y-38742445D01*
X28189494Y-38742441D01*
X28042997Y-38636006D01*
X28042996Y-38636005D01*
X28042994Y-38636004D01*
X27971057Y-38599350D01*
X27881639Y-38553788D01*
X27881636Y-38553787D01*
X27709410Y-38497829D01*
X27530551Y-38469500D01*
X27530546Y-38469500D01*
X27349454Y-38469500D01*
X27349449Y-38469500D01*
X27170589Y-38497829D01*
X26998363Y-38553787D01*
X26998360Y-38553788D01*
X26837002Y-38636006D01*
X26690505Y-38742441D01*
X26690500Y-38742445D01*
X26562445Y-38870500D01*
X26562441Y-38870505D01*
X26456006Y-39017002D01*
X26373788Y-39178360D01*
X26373787Y-39178363D01*
X26317829Y-39350589D01*
X26292473Y-39510678D01*
X26262544Y-39573813D01*
X26203232Y-39610744D01*
X26133369Y-39609746D01*
X26075137Y-39571136D01*
X26047527Y-39510678D01*
X26028593Y-39391137D01*
X26022171Y-39350591D01*
X25966211Y-39178361D01*
X25966211Y-39178360D01*
X25924756Y-39097002D01*
X25883996Y-39017006D01*
X25870396Y-38998287D01*
X25777558Y-38870505D01*
X25777554Y-38870500D01*
X25649499Y-38742445D01*
X25649494Y-38742441D01*
X25502997Y-38636006D01*
X25502996Y-38636005D01*
X25502994Y-38636004D01*
X25431057Y-38599350D01*
X25341639Y-38553788D01*
X25341636Y-38553787D01*
X25169410Y-38497829D01*
X24990551Y-38469500D01*
X24990546Y-38469500D01*
X24809454Y-38469500D01*
X24809449Y-38469500D01*
X24630589Y-38497829D01*
X24458363Y-38553787D01*
X24458360Y-38553788D01*
X24297002Y-38636006D01*
X24150505Y-38742441D01*
X24150500Y-38742445D01*
X24022445Y-38870500D01*
X24022441Y-38870505D01*
X23916006Y-39017002D01*
X23833788Y-39178360D01*
X23833787Y-39178363D01*
X23777829Y-39350589D01*
X23752473Y-39510678D01*
X23722544Y-39573813D01*
X23663232Y-39610744D01*
X23593369Y-39609746D01*
X23535137Y-39571136D01*
X23507527Y-39510678D01*
X23488593Y-39391137D01*
X23482171Y-39350591D01*
X23426211Y-39178361D01*
X23426211Y-39178360D01*
X23384756Y-39097002D01*
X23343996Y-39017006D01*
X23330396Y-38998287D01*
X23237558Y-38870505D01*
X23237554Y-38870500D01*
X23109499Y-38742445D01*
X23109494Y-38742441D01*
X22962997Y-38636006D01*
X22962996Y-38636005D01*
X22962994Y-38636004D01*
X22891057Y-38599350D01*
X22801639Y-38553788D01*
X22801636Y-38553787D01*
X22629410Y-38497829D01*
X22450551Y-38469500D01*
X22450546Y-38469500D01*
X22269454Y-38469500D01*
X22269449Y-38469500D01*
X22090589Y-38497829D01*
X21918363Y-38553787D01*
X21918360Y-38553788D01*
X21757002Y-38636006D01*
X21610505Y-38742441D01*
X21610500Y-38742445D01*
X21482445Y-38870500D01*
X21482441Y-38870505D01*
X21376006Y-39017002D01*
X21293788Y-39178360D01*
X21293787Y-39178363D01*
X21237829Y-39350589D01*
X21209500Y-39529448D01*
X21209500Y-39710551D01*
X21237828Y-39889409D01*
X21247997Y-39920704D01*
X21249992Y-39990545D01*
X21213912Y-40050378D01*
X21151211Y-40081206D01*
X21081796Y-40073241D01*
X21042385Y-40046703D01*
X20386819Y-39391137D01*
X20353334Y-39329814D01*
X20350500Y-39303456D01*
X20350500Y-24696543D01*
X20370185Y-24629504D01*
X20386819Y-24608862D01*
X20679024Y-24316657D01*
X20997821Y-23997859D01*
X21059142Y-23964376D01*
X21128833Y-23969360D01*
X21184767Y-24011231D01*
X21209184Y-24076696D01*
X21209500Y-24085542D01*
X21209500Y-25274856D01*
X21209502Y-25274882D01*
X21212413Y-25299987D01*
X21212415Y-25299991D01*
X21257793Y-25402764D01*
X21257794Y-25402765D01*
X21337235Y-25482206D01*
X21440009Y-25527585D01*
X21465135Y-25530500D01*
X23254864Y-25530499D01*
X23254879Y-25530497D01*
X23254882Y-25530497D01*
X23279987Y-25527586D01*
X23279988Y-25527585D01*
X23279991Y-25527585D01*
X23382765Y-25482206D01*
X23462206Y-25402765D01*
X23462210Y-25402755D01*
X23466421Y-25396609D01*
X23520545Y-25352423D01*
X23589965Y-25344513D01*
X23652642Y-25375390D01*
X23656406Y-25378999D01*
X30597887Y-32320480D01*
X30689212Y-32373207D01*
X30791073Y-32400500D01*
X30896527Y-32400500D01*
X35609545Y-32400500D01*
X35676584Y-32420185D01*
X35697226Y-32436819D01*
X38535181Y-35274773D01*
X38568666Y-35336096D01*
X38571500Y-35362454D01*
X38571500Y-35424257D01*
X38606313Y-35554179D01*
X38612423Y-35576983D01*
X38612426Y-35576990D01*
X38691475Y-35713909D01*
X38691479Y-35713914D01*
X38691480Y-35713916D01*
X38803284Y-35825720D01*
X38803286Y-35825721D01*
X38803290Y-35825724D01*
X38936348Y-35902544D01*
X38940216Y-35904777D01*
X39092943Y-35945700D01*
X39092945Y-35945700D01*
X39251055Y-35945700D01*
X39251057Y-35945700D01*
X39403784Y-35904777D01*
X39540716Y-35825720D01*
X39652520Y-35713916D01*
X39731577Y-35576984D01*
X39772500Y-35424257D01*
X39772500Y-35266143D01*
X39731577Y-35113416D01*
X39730984Y-35112389D01*
X39652524Y-34976490D01*
X39652518Y-34976482D01*
X39540717Y-34864681D01*
X39540709Y-34864675D01*
X39403790Y-34785626D01*
X39403786Y-34785624D01*
X39403784Y-34785623D01*
X39251057Y-34744700D01*
X39251056Y-34744700D01*
X39189254Y-34744700D01*
X39122215Y-34725015D01*
X39101573Y-34708381D01*
X37636834Y-33243642D01*
X36153473Y-31760280D01*
X36152763Y-31759470D01*
X36072814Y-31679521D01*
X36072813Y-31679520D01*
X35981487Y-31626793D01*
X35879627Y-31599500D01*
X35879626Y-31599500D01*
X31061055Y-31599500D01*
X30994016Y-31579815D01*
X30973374Y-31563181D01*
X23948519Y-24538326D01*
X23915034Y-24477003D01*
X23912200Y-24450645D01*
X23912200Y-24327275D01*
X23912200Y-24327273D01*
X23884907Y-24225413D01*
X23832180Y-24134087D01*
X23757613Y-24059520D01*
X23666289Y-24006794D01*
X23666288Y-24006793D01*
X23602405Y-23989676D01*
X23542745Y-23953310D01*
X23512216Y-23890463D01*
X23510499Y-23869901D01*
X23510499Y-23485134D01*
X23510298Y-23481658D01*
X23526080Y-23413594D01*
X23576154Y-23364867D01*
X23634091Y-23350500D01*
X26543084Y-23350500D01*
X26610123Y-23370185D01*
G37*
%TD.AperFunction*%
%TA.AperFunction,Conductor*%
G36*
X46632114Y-30469751D02*
G01*
X46672371Y-30526857D01*
X46679000Y-30566856D01*
X46679000Y-33433143D01*
X46659315Y-33500182D01*
X46606511Y-33545937D01*
X46537353Y-33555881D01*
X46498705Y-33543628D01*
X46361639Y-33473788D01*
X46361636Y-33473787D01*
X46189410Y-33417829D01*
X46010551Y-33389500D01*
X46010546Y-33389500D01*
X45829454Y-33389500D01*
X45829449Y-33389500D01*
X45650591Y-33417828D01*
X45611566Y-33430508D01*
X45541724Y-33432502D01*
X45481892Y-33396420D01*
X45451066Y-33333718D01*
X45453474Y-33280487D01*
X45466800Y-33230757D01*
X45466800Y-33072643D01*
X45425877Y-32919916D01*
X45401419Y-32877553D01*
X45346824Y-32782990D01*
X45346818Y-32782982D01*
X45235017Y-32671181D01*
X45235012Y-32671177D01*
X45215900Y-32660143D01*
X45167684Y-32609576D01*
X45153900Y-32552756D01*
X45153900Y-30843854D01*
X45173585Y-30776815D01*
X45190219Y-30756173D01*
X45283766Y-30662626D01*
X45380719Y-30565672D01*
X45442040Y-30532189D01*
X45506716Y-30535424D01*
X45650591Y-30582171D01*
X45733429Y-30595291D01*
X45829449Y-30610500D01*
X45829454Y-30610500D01*
X46010551Y-30610500D01*
X46097259Y-30596765D01*
X46189409Y-30582171D01*
X46361639Y-30526211D01*
X46498705Y-30456371D01*
X46567373Y-30443475D01*
X46632114Y-30469751D01*
G37*
%TD.AperFunction*%
%TA.AperFunction,Conductor*%
G36*
X68870495Y-23370185D02*
G01*
X68891137Y-23386819D01*
X70113181Y-24608862D01*
X70146666Y-24670185D01*
X70149500Y-24696543D01*
X70149500Y-28525500D01*
X70129815Y-28592539D01*
X70077011Y-28638294D01*
X70025500Y-28649500D01*
X67476614Y-28649500D01*
X67409575Y-28629815D01*
X67363820Y-28577011D01*
X67362053Y-28572952D01*
X67309397Y-28445827D01*
X67309390Y-28445814D01*
X67221789Y-28314711D01*
X67221786Y-28314707D01*
X67110292Y-28203213D01*
X67110288Y-28203210D01*
X66979185Y-28115609D01*
X66979172Y-28115602D01*
X66833501Y-28055264D01*
X66833489Y-28055261D01*
X66678845Y-28024500D01*
X66678842Y-28024500D01*
X66321158Y-28024500D01*
X66321155Y-28024500D01*
X66166510Y-28055261D01*
X66166498Y-28055264D01*
X66020827Y-28115602D01*
X66020814Y-28115609D01*
X65889711Y-28203210D01*
X65889707Y-28203213D01*
X65778213Y-28314707D01*
X65778210Y-28314711D01*
X65690609Y-28445814D01*
X65690602Y-28445827D01*
X65630264Y-28591498D01*
X65630261Y-28591510D01*
X65599500Y-28746153D01*
X65599500Y-28903846D01*
X65630261Y-29058489D01*
X65630264Y-29058501D01*
X65690602Y-29204172D01*
X65690609Y-29204185D01*
X65778210Y-29335288D01*
X65778213Y-29335292D01*
X65815240Y-29372319D01*
X65848725Y-29433642D01*
X65843741Y-29503334D01*
X65815240Y-29547681D01*
X65778213Y-29584707D01*
X65778210Y-29584711D01*
X65690609Y-29715814D01*
X65690602Y-29715827D01*
X65630264Y-29861498D01*
X65630261Y-29861510D01*
X65599500Y-30016153D01*
X65599500Y-30173846D01*
X65630261Y-30328489D01*
X65630264Y-30328501D01*
X65690602Y-30474172D01*
X65690609Y-30474185D01*
X65778210Y-30605288D01*
X65778213Y-30605292D01*
X65815240Y-30642319D01*
X65848725Y-30703642D01*
X65843741Y-30773334D01*
X65815240Y-30817681D01*
X65778213Y-30854707D01*
X65778210Y-30854711D01*
X65690609Y-30985814D01*
X65690602Y-30985827D01*
X65630264Y-31131498D01*
X65630261Y-31131510D01*
X65599500Y-31286153D01*
X65599500Y-31443844D01*
X65600097Y-31449907D01*
X65598640Y-31450050D01*
X65593057Y-31512384D01*
X65550189Y-31567557D01*
X65484297Y-31590796D01*
X65416301Y-31574722D01*
X65389990Y-31554654D01*
X65365419Y-31530083D01*
X65331934Y-31468760D01*
X65329100Y-31442402D01*
X65329100Y-25524125D01*
X65348785Y-25457086D01*
X65401589Y-25411331D01*
X65470747Y-25401387D01*
X65491418Y-25406194D01*
X65540590Y-25422171D01*
X65719449Y-25450500D01*
X65719454Y-25450500D01*
X65900551Y-25450500D01*
X65995783Y-25435416D01*
X66079409Y-25422171D01*
X66251639Y-25366211D01*
X66412994Y-25283996D01*
X66559501Y-25177553D01*
X66638737Y-25098316D01*
X66700056Y-25064834D01*
X66769748Y-25069818D01*
X66825682Y-25111689D01*
X66850099Y-25177153D01*
X66844347Y-25224316D01*
X66836447Y-25248630D01*
X66799500Y-25481902D01*
X66799500Y-25718097D01*
X66836446Y-25951368D01*
X66909433Y-26175996D01*
X66981280Y-26317002D01*
X67016657Y-26386433D01*
X67155483Y-26577510D01*
X67322490Y-26744517D01*
X67513567Y-26883343D01*
X67612991Y-26934002D01*
X67724003Y-26990566D01*
X67724005Y-26990566D01*
X67724008Y-26990568D01*
X67844412Y-27029689D01*
X67948631Y-27063553D01*
X68181903Y-27100500D01*
X68181908Y-27100500D01*
X68418097Y-27100500D01*
X68651368Y-27063553D01*
X68875992Y-26990568D01*
X69086433Y-26883343D01*
X69277510Y-26744517D01*
X69444517Y-26577510D01*
X69583343Y-26386433D01*
X69690568Y-26175992D01*
X69763553Y-25951368D01*
X69768837Y-25918006D01*
X69800500Y-25718097D01*
X69800500Y-25481902D01*
X69763553Y-25248631D01*
X69721437Y-25119012D01*
X69690568Y-25024008D01*
X69690566Y-25024005D01*
X69690566Y-25024003D01*
X69587461Y-24821649D01*
X69583343Y-24813567D01*
X69444517Y-24622490D01*
X69277510Y-24455483D01*
X69086433Y-24316657D01*
X68875996Y-24209433D01*
X68651368Y-24136446D01*
X68418097Y-24099500D01*
X68418092Y-24099500D01*
X68181908Y-24099500D01*
X68181903Y-24099500D01*
X67948631Y-24136446D01*
X67724003Y-24209433D01*
X67513566Y-24316657D01*
X67471225Y-24347420D01*
X67322490Y-24455483D01*
X67322488Y-24455485D01*
X67322487Y-24455485D01*
X67152038Y-24625935D01*
X67150986Y-24624883D01*
X67097999Y-24659444D01*
X67028131Y-24659915D01*
X66969099Y-24622539D01*
X66939646Y-24559180D01*
X66939788Y-24521310D01*
X66955488Y-24422193D01*
X66960500Y-24390550D01*
X66960500Y-24209448D01*
X66936753Y-24059521D01*
X66932171Y-24030591D01*
X66897063Y-23922539D01*
X66876212Y-23858363D01*
X66876211Y-23858360D01*
X66793996Y-23697006D01*
X66685291Y-23547385D01*
X66661812Y-23481578D01*
X66677638Y-23413525D01*
X66727744Y-23364830D01*
X66785610Y-23350500D01*
X68803456Y-23350500D01*
X68870495Y-23370185D01*
G37*
%TD.AperFunction*%
%TA.AperFunction,Conductor*%
G36*
X56619281Y-25485674D02*
G01*
X56982705Y-25849098D01*
X57016190Y-25910421D01*
X57011206Y-25980113D01*
X56993259Y-26004085D01*
X56998224Y-26002233D01*
X57005354Y-25995305D01*
X57030415Y-25990226D01*
X57054374Y-25981291D01*
X57064088Y-25983404D01*
X57073832Y-25981430D01*
X57097662Y-25990707D01*
X57122647Y-25996143D01*
X57134594Y-26005086D01*
X57138941Y-26006779D01*
X57150901Y-26017294D01*
X57198687Y-26065080D01*
X57290012Y-26117807D01*
X57391873Y-26145100D01*
X57497327Y-26145100D01*
X60377892Y-26145100D01*
X60444931Y-26164785D01*
X60490686Y-26217589D01*
X60499878Y-26278916D01*
X60500600Y-26278916D01*
X60500600Y-26283734D01*
X60500832Y-26285282D01*
X60500600Y-26287042D01*
X60500600Y-26287043D01*
X60500600Y-26445157D01*
X60536065Y-26577512D01*
X60541523Y-26597883D01*
X60541526Y-26597890D01*
X60620575Y-26734809D01*
X60620579Y-26734814D01*
X60620580Y-26734816D01*
X60732384Y-26846620D01*
X60732385Y-26846621D01*
X60732387Y-26846622D01*
X60739196Y-26850553D01*
X60787414Y-26901118D01*
X60801200Y-26957942D01*
X60801200Y-27854645D01*
X60781515Y-27921684D01*
X60764881Y-27942326D01*
X60177826Y-28529381D01*
X60116503Y-28562866D01*
X60090145Y-28565700D01*
X59558398Y-28565700D01*
X59491359Y-28546015D01*
X59470717Y-28529381D01*
X59427017Y-28485681D01*
X59427009Y-28485675D01*
X59290090Y-28406626D01*
X59290087Y-28406624D01*
X59290084Y-28406623D01*
X59290080Y-28406622D01*
X59282577Y-28403514D01*
X59283323Y-28401711D01*
X59232738Y-28370872D01*
X59202214Y-28308022D01*
X59200499Y-28287470D01*
X59200499Y-26755143D01*
X59200499Y-26755136D01*
X59199268Y-26744517D01*
X59197586Y-26730012D01*
X59197585Y-26730010D01*
X59197585Y-26730009D01*
X59152206Y-26627235D01*
X59072765Y-26547794D01*
X59036440Y-26531755D01*
X58969992Y-26502415D01*
X58944865Y-26499500D01*
X57255143Y-26499500D01*
X57255122Y-26499502D01*
X57248085Y-26500318D01*
X57179224Y-26488484D01*
X57127693Y-26441300D01*
X57123321Y-26433438D01*
X57063996Y-26317006D01*
X57054894Y-26304479D01*
X56962902Y-26177860D01*
X56954308Y-26153775D01*
X56942054Y-26131333D01*
X56942763Y-26121417D01*
X56939422Y-26112054D01*
X56945213Y-26087148D01*
X56947038Y-26061641D01*
X56952996Y-26053681D01*
X56955248Y-26044000D01*
X56959756Y-26039618D01*
X56903870Y-26060463D01*
X56835597Y-26045611D01*
X56822139Y-26037097D01*
X56682997Y-25936006D01*
X56682996Y-25936005D01*
X56682994Y-25936004D01*
X56610737Y-25899187D01*
X56521639Y-25853788D01*
X56521636Y-25853787D01*
X56349410Y-25797829D01*
X56189321Y-25772473D01*
X56126186Y-25742544D01*
X56089255Y-25683232D01*
X56090253Y-25613370D01*
X56128863Y-25555137D01*
X56189321Y-25527527D01*
X56349409Y-25502171D01*
X56400182Y-25485674D01*
X56493284Y-25455423D01*
X56563123Y-25453429D01*
X56619281Y-25485674D01*
G37*
%TD.AperFunction*%
%TA.AperFunction,Conductor*%
G36*
X64846470Y-23354047D02*
G01*
X64859015Y-23352970D01*
X64879360Y-23363704D01*
X64901429Y-23370185D01*
X64909672Y-23379698D01*
X64920810Y-23385575D01*
X64932122Y-23405607D01*
X64947184Y-23422989D01*
X64948975Y-23435450D01*
X64955167Y-23446414D01*
X64953854Y-23469377D01*
X64957128Y-23492147D01*
X64951802Y-23505269D01*
X64951179Y-23516169D01*
X64934709Y-23547385D01*
X64826003Y-23697006D01*
X64743788Y-23858360D01*
X64743787Y-23858363D01*
X64687829Y-24030589D01*
X64659500Y-24209448D01*
X64659500Y-24390551D01*
X64687829Y-24569412D01*
X64734574Y-24713282D01*
X64736569Y-24783123D01*
X64704326Y-24839279D01*
X64608120Y-24935487D01*
X64608118Y-24935490D01*
X64555392Y-25026812D01*
X64555393Y-25026813D01*
X64528100Y-25128673D01*
X64528100Y-25269324D01*
X64508415Y-25336363D01*
X64455611Y-25382118D01*
X64386453Y-25392062D01*
X64342100Y-25376711D01*
X64332891Y-25371394D01*
X64332888Y-25371393D01*
X64231027Y-25344100D01*
X64231026Y-25344100D01*
X61612316Y-25344100D01*
X61545277Y-25324415D01*
X61499522Y-25271611D01*
X61489578Y-25202453D01*
X61518603Y-25138897D01*
X61524635Y-25132419D01*
X61559640Y-25097414D01*
X61607553Y-25049501D01*
X61713996Y-24902994D01*
X61796211Y-24741639D01*
X61852171Y-24569409D01*
X61867829Y-24470546D01*
X61880500Y-24390551D01*
X61880500Y-24209448D01*
X61856753Y-24059521D01*
X61852171Y-24030591D01*
X61817063Y-23922539D01*
X61796212Y-23858363D01*
X61796211Y-23858360D01*
X61713996Y-23697006D01*
X61605291Y-23547385D01*
X61581812Y-23481578D01*
X61597638Y-23413525D01*
X61647744Y-23364830D01*
X61705610Y-23350500D01*
X64834390Y-23350500D01*
X64846470Y-23354047D01*
G37*
%TD.AperFunction*%
%TD*%
%TA.AperFunction,NonConductor*%
G36*
X59766470Y-23354047D02*
G01*
X59779015Y-23352970D01*
X59799360Y-23363704D01*
X59821429Y-23370185D01*
X59829672Y-23379698D01*
X59840810Y-23385575D01*
X59852122Y-23405607D01*
X59867184Y-23422989D01*
X59868975Y-23435450D01*
X59875167Y-23446414D01*
X59873854Y-23469377D01*
X59877128Y-23492147D01*
X59871802Y-23505269D01*
X59871179Y-23516169D01*
X59854709Y-23547385D01*
X59746003Y-23697006D01*
X59663788Y-23858360D01*
X59663787Y-23858363D01*
X59607829Y-24030589D01*
X59586972Y-24162271D01*
X59557042Y-24225405D01*
X59497731Y-24262336D01*
X59427868Y-24261338D01*
X59369636Y-24222728D01*
X59341522Y-24158764D01*
X59340499Y-24142872D01*
X59340499Y-23474500D01*
X59360184Y-23407461D01*
X59412988Y-23361706D01*
X59464499Y-23350500D01*
X59754390Y-23350500D01*
X59766470Y-23354047D01*
G37*
%TD.AperFunction*%
%TA.AperFunction,NonConductor*%
G36*
X39310123Y-23370185D02*
G01*
X39355878Y-23422989D01*
X39365822Y-23492147D01*
X39336797Y-23555703D01*
X39330765Y-23562181D01*
X39262445Y-23630500D01*
X39262441Y-23630505D01*
X39156006Y-23777002D01*
X39073788Y-23938360D01*
X39073787Y-23938363D01*
X39017829Y-24110589D01*
X38992473Y-24270678D01*
X38962544Y-24333813D01*
X38903232Y-24370744D01*
X38833369Y-24369746D01*
X38775137Y-24331136D01*
X38747527Y-24270678D01*
X38729801Y-24158764D01*
X38722171Y-24110591D01*
X38688446Y-24006793D01*
X38666212Y-23938363D01*
X38666211Y-23938360D01*
X38625450Y-23858363D01*
X38583996Y-23777006D01*
X38525873Y-23697006D01*
X38477558Y-23630505D01*
X38477554Y-23630500D01*
X38409235Y-23562181D01*
X38375750Y-23500858D01*
X38380734Y-23431166D01*
X38422606Y-23375233D01*
X38488070Y-23350816D01*
X38496916Y-23350500D01*
X39243084Y-23350500D01*
X39310123Y-23370185D01*
G37*
%TD.AperFunction*%
%TA.AperFunction,NonConductor*%
G36*
X36724329Y-23356738D02*
G01*
X36746418Y-23358318D01*
X36757201Y-23366390D01*
X36770123Y-23370185D01*
X36784622Y-23386918D01*
X36802351Y-23400190D01*
X36807058Y-23412810D01*
X36815878Y-23422989D01*
X36819029Y-23444906D01*
X36826768Y-23465654D01*
X36823905Y-23478814D01*
X36825822Y-23492147D01*
X36816622Y-23512290D01*
X36811916Y-23533927D01*
X36798647Y-23551652D01*
X36796797Y-23555703D01*
X36790765Y-23562181D01*
X36722445Y-23630500D01*
X36722441Y-23630505D01*
X36616006Y-23777002D01*
X36533788Y-23938360D01*
X36533787Y-23938363D01*
X36477829Y-24110589D01*
X36452473Y-24270678D01*
X36422544Y-24333813D01*
X36363232Y-24370744D01*
X36293369Y-24369746D01*
X36235137Y-24331136D01*
X36207527Y-24270678D01*
X36189801Y-24158764D01*
X36182171Y-24110591D01*
X36148446Y-24006793D01*
X36126212Y-23938363D01*
X36126211Y-23938360D01*
X36085450Y-23858363D01*
X36043996Y-23777006D01*
X35985873Y-23697006D01*
X35937558Y-23630505D01*
X35937554Y-23630500D01*
X35869235Y-23562181D01*
X35835750Y-23500858D01*
X35840734Y-23431166D01*
X35882606Y-23375233D01*
X35948070Y-23350816D01*
X35956916Y-23350500D01*
X36703084Y-23350500D01*
X36724329Y-23356738D01*
G37*
%TD.AperFunction*%
%TA.AperFunction,NonConductor*%
G36*
X34230123Y-23370185D02*
G01*
X34275878Y-23422989D01*
X34285822Y-23492147D01*
X34256797Y-23555703D01*
X34250765Y-23562181D01*
X34182445Y-23630500D01*
X34182441Y-23630505D01*
X34076006Y-23777002D01*
X33993788Y-23938360D01*
X33993787Y-23938363D01*
X33937829Y-24110589D01*
X33912473Y-24270678D01*
X33882544Y-24333813D01*
X33823232Y-24370744D01*
X33753369Y-24369746D01*
X33695137Y-24331136D01*
X33667527Y-24270678D01*
X33649801Y-24158764D01*
X33642171Y-24110591D01*
X33608446Y-24006793D01*
X33586212Y-23938363D01*
X33586211Y-23938360D01*
X33545450Y-23858363D01*
X33503996Y-23777006D01*
X33445873Y-23697006D01*
X33397558Y-23630505D01*
X33397554Y-23630500D01*
X33329235Y-23562181D01*
X33295750Y-23500858D01*
X33300734Y-23431166D01*
X33342606Y-23375233D01*
X33408070Y-23350816D01*
X33416916Y-23350500D01*
X34163084Y-23350500D01*
X34230123Y-23370185D01*
G37*
%TD.AperFunction*%
%TA.AperFunction,NonConductor*%
G36*
X31644329Y-23356738D02*
G01*
X31666418Y-23358318D01*
X31677201Y-23366390D01*
X31690123Y-23370185D01*
X31704622Y-23386918D01*
X31722351Y-23400190D01*
X31727058Y-23412810D01*
X31735878Y-23422989D01*
X31739029Y-23444906D01*
X31746768Y-23465654D01*
X31743905Y-23478814D01*
X31745822Y-23492147D01*
X31736622Y-23512290D01*
X31731916Y-23533927D01*
X31718647Y-23551652D01*
X31716797Y-23555703D01*
X31710765Y-23562181D01*
X31642445Y-23630500D01*
X31642441Y-23630505D01*
X31536006Y-23777002D01*
X31453788Y-23938360D01*
X31453787Y-23938363D01*
X31397829Y-24110589D01*
X31372473Y-24270678D01*
X31342544Y-24333813D01*
X31283232Y-24370744D01*
X31213369Y-24369746D01*
X31155137Y-24331136D01*
X31127527Y-24270678D01*
X31109801Y-24158764D01*
X31102171Y-24110591D01*
X31068446Y-24006793D01*
X31046212Y-23938363D01*
X31046211Y-23938360D01*
X31005450Y-23858363D01*
X30963996Y-23777006D01*
X30905873Y-23697006D01*
X30857558Y-23630505D01*
X30857554Y-23630500D01*
X30789235Y-23562181D01*
X30755750Y-23500858D01*
X30760734Y-23431166D01*
X30802606Y-23375233D01*
X30868070Y-23350816D01*
X30876916Y-23350500D01*
X31623084Y-23350500D01*
X31644329Y-23356738D01*
G37*
%TD.AperFunction*%
%TA.AperFunction,NonConductor*%
G36*
X29150123Y-23370185D02*
G01*
X29195878Y-23422989D01*
X29205822Y-23492147D01*
X29176797Y-23555703D01*
X29170765Y-23562181D01*
X29102445Y-23630500D01*
X29102441Y-23630505D01*
X28996006Y-23777002D01*
X28913788Y-23938360D01*
X28913787Y-23938363D01*
X28857829Y-24110589D01*
X28832473Y-24270678D01*
X28802544Y-24333813D01*
X28743232Y-24370744D01*
X28673369Y-24369746D01*
X28615137Y-24331136D01*
X28587527Y-24270678D01*
X28569801Y-24158764D01*
X28562171Y-24110591D01*
X28528446Y-24006793D01*
X28506212Y-23938363D01*
X28506211Y-23938360D01*
X28465450Y-23858363D01*
X28423996Y-23777006D01*
X28365873Y-23697006D01*
X28317558Y-23630505D01*
X28317554Y-23630500D01*
X28249235Y-23562181D01*
X28215750Y-23500858D01*
X28220734Y-23431166D01*
X28262606Y-23375233D01*
X28328070Y-23350816D01*
X28336916Y-23350500D01*
X29083084Y-23350500D01*
X29150123Y-23370185D01*
G37*
%TD.AperFunction*%
%TA.AperFunction,NonConductor*%
G36*
X44712946Y-23370185D02*
G01*
X44758701Y-23422989D01*
X44769701Y-23481643D01*
X44769500Y-23485126D01*
X44769500Y-23855500D01*
X44749815Y-23922539D01*
X44697011Y-23968294D01*
X44645500Y-23979500D01*
X44173573Y-23979500D01*
X44071710Y-24006793D01*
X43980387Y-24059520D01*
X43980384Y-24059522D01*
X42931926Y-25107981D01*
X42870603Y-25141466D01*
X42844245Y-25144300D01*
X42024000Y-25144300D01*
X41956961Y-25124615D01*
X41911206Y-25071811D01*
X41900000Y-25020300D01*
X41900000Y-23474500D01*
X41919685Y-23407461D01*
X41972489Y-23361706D01*
X42024000Y-23350500D01*
X44645907Y-23350500D01*
X44712946Y-23370185D01*
G37*
%TD.AperFunction*%
%TA.AperFunction,NonConductor*%
G36*
X38906630Y-24390253D02*
G01*
X38964863Y-24428863D01*
X38992473Y-24489321D01*
X39017829Y-24649410D01*
X39073787Y-24821636D01*
X39073793Y-24821649D01*
X39146328Y-24964005D01*
X39159225Y-25032674D01*
X39132949Y-25097414D01*
X39075843Y-25137672D01*
X39035844Y-25144300D01*
X38704156Y-25144300D01*
X38637117Y-25124615D01*
X38591362Y-25071811D01*
X38581418Y-25002653D01*
X38593672Y-24964005D01*
X38666206Y-24821649D01*
X38666212Y-24821636D01*
X38678725Y-24783123D01*
X38722171Y-24649409D01*
X38739765Y-24538326D01*
X38747527Y-24489321D01*
X38777456Y-24426186D01*
X38836768Y-24389255D01*
X38906630Y-24390253D01*
G37*
%TD.AperFunction*%
%TA.AperFunction,NonConductor*%
G36*
X36366630Y-24390253D02*
G01*
X36424863Y-24428863D01*
X36452473Y-24489321D01*
X36477829Y-24649410D01*
X36533787Y-24821636D01*
X36533793Y-24821649D01*
X36606328Y-24964005D01*
X36619225Y-25032674D01*
X36592949Y-25097414D01*
X36535843Y-25137672D01*
X36495844Y-25144300D01*
X36164156Y-25144300D01*
X36097117Y-25124615D01*
X36051362Y-25071811D01*
X36041418Y-25002653D01*
X36053672Y-24964005D01*
X36126206Y-24821649D01*
X36126212Y-24821636D01*
X36138725Y-24783123D01*
X36182171Y-24649409D01*
X36199765Y-24538326D01*
X36207527Y-24489321D01*
X36237456Y-24426186D01*
X36296768Y-24389255D01*
X36366630Y-24390253D01*
G37*
%TD.AperFunction*%
%TA.AperFunction,NonConductor*%
G36*
X33826630Y-24390253D02*
G01*
X33884863Y-24428863D01*
X33912473Y-24489321D01*
X33937829Y-24649410D01*
X33993787Y-24821636D01*
X33993793Y-24821649D01*
X34066328Y-24964005D01*
X34066835Y-24966709D01*
X34068638Y-24968789D01*
X34073247Y-25000848D01*
X34079225Y-25032674D01*
X34078190Y-25035223D01*
X34078582Y-25037947D01*
X34065126Y-25067410D01*
X34052949Y-25097414D01*
X34050700Y-25098999D01*
X34049557Y-25101503D01*
X34022312Y-25119012D01*
X33995843Y-25137672D01*
X33992384Y-25138245D01*
X33990779Y-25139277D01*
X33955844Y-25144300D01*
X33902055Y-25144300D01*
X33835016Y-25124615D01*
X33814374Y-25107981D01*
X33625674Y-24919281D01*
X33592189Y-24857958D01*
X33595423Y-24793284D01*
X33642171Y-24649409D01*
X33648593Y-24608862D01*
X33667527Y-24489321D01*
X33697456Y-24426186D01*
X33756768Y-24389255D01*
X33826630Y-24390253D01*
G37*
%TD.AperFunction*%
%TA.AperFunction,NonConductor*%
G36*
X59545702Y-24363415D02*
G01*
X59583476Y-24422193D01*
X59586972Y-24437729D01*
X59607829Y-24569410D01*
X59663787Y-24741636D01*
X59663788Y-24741639D01*
X59746006Y-24902997D01*
X59852441Y-25049494D01*
X59852445Y-25049499D01*
X59935365Y-25132419D01*
X59968850Y-25193742D01*
X59963866Y-25263434D01*
X59921994Y-25319367D01*
X59856530Y-25343784D01*
X59847684Y-25344100D01*
X59462404Y-25344100D01*
X59395365Y-25324415D01*
X59349610Y-25271611D01*
X59339231Y-25205806D01*
X59340499Y-25194878D01*
X59340499Y-25194873D01*
X59340500Y-25194865D01*
X59340499Y-24457125D01*
X59360183Y-24390089D01*
X59412987Y-24344334D01*
X59482146Y-24334390D01*
X59545702Y-24363415D01*
G37*
%TD.AperFunction*%
%TA.AperFunction,NonConductor*%
G36*
X46459282Y-28025674D02*
G01*
X46642681Y-28209073D01*
X46676166Y-28270396D01*
X46679000Y-28296754D01*
X46679000Y-28353143D01*
X46659315Y-28420182D01*
X46606511Y-28465937D01*
X46537353Y-28475881D01*
X46498705Y-28463628D01*
X46361639Y-28393788D01*
X46361636Y-28393787D01*
X46189410Y-28337829D01*
X46029321Y-28312473D01*
X45966186Y-28282544D01*
X45929255Y-28223232D01*
X45930253Y-28153370D01*
X45968863Y-28095137D01*
X46029321Y-28067527D01*
X46099425Y-28056422D01*
X46189409Y-28042171D01*
X46333283Y-27995423D01*
X46403124Y-27993429D01*
X46459282Y-28025674D01*
G37*
%TD.AperFunction*%
%TA.AperFunction,NonConductor*%
G36*
X55666716Y-27995424D02*
G01*
X55810591Y-28042171D01*
X55883639Y-28053740D01*
X55970678Y-28067527D01*
X56033813Y-28097456D01*
X56070744Y-28156768D01*
X56069746Y-28226631D01*
X56031136Y-28284863D01*
X55970678Y-28312473D01*
X55810589Y-28337829D01*
X55638363Y-28393787D01*
X55638360Y-28393788D01*
X55501295Y-28463628D01*
X55477248Y-28475881D01*
X55472665Y-28478216D01*
X55472173Y-28477251D01*
X55469733Y-28477911D01*
X55463911Y-28482957D01*
X55436480Y-28486901D01*
X55409726Y-28494134D01*
X55402381Y-28491804D01*
X55394753Y-28492901D01*
X55369540Y-28481386D01*
X55343126Y-28473008D01*
X55338206Y-28467077D01*
X55331197Y-28463876D01*
X55316213Y-28440560D01*
X55298521Y-28419230D01*
X55296637Y-28410100D01*
X55293423Y-28405098D01*
X55288400Y-28370163D01*
X55288400Y-28329354D01*
X55308085Y-28262315D01*
X55324715Y-28241677D01*
X55540719Y-28025672D01*
X55602040Y-27992189D01*
X55666716Y-27995424D01*
G37*
%TD.AperFunction*%
%TA.AperFunction,NonConductor*%
G36*
X56936475Y-27809433D02*
G01*
X56985170Y-27859538D01*
X56999500Y-27917405D01*
X56999500Y-28444856D01*
X56999502Y-28444880D01*
X57000014Y-28449296D01*
X56988176Y-28518155D01*
X56940989Y-28569683D01*
X56873434Y-28587520D01*
X56806960Y-28566003D01*
X56803953Y-28563885D01*
X56682997Y-28476006D01*
X56682996Y-28476005D01*
X56682994Y-28476004D01*
X56613432Y-28440560D01*
X56521639Y-28393788D01*
X56521636Y-28393787D01*
X56349410Y-28337829D01*
X56189321Y-28312473D01*
X56126186Y-28282544D01*
X56089255Y-28223232D01*
X56090253Y-28153370D01*
X56128863Y-28095137D01*
X56189321Y-28067527D01*
X56259425Y-28056422D01*
X56349409Y-28042171D01*
X56521639Y-27986211D01*
X56682994Y-27903996D01*
X56802615Y-27817087D01*
X56868421Y-27793607D01*
X56936475Y-27809433D01*
G37*
%TD.AperFunction*%
%TA.AperFunction,NonConductor*%
G36*
X63926214Y-30462567D02*
G01*
X63966472Y-30519673D01*
X63973100Y-30559672D01*
X63973100Y-30900327D01*
X63953415Y-30967366D01*
X63900611Y-31013121D01*
X63831453Y-31023065D01*
X63792805Y-31010812D01*
X63641639Y-30933788D01*
X63641636Y-30933787D01*
X63469410Y-30877829D01*
X63309321Y-30852473D01*
X63246186Y-30822544D01*
X63209255Y-30763232D01*
X63210253Y-30693370D01*
X63248863Y-30635137D01*
X63309321Y-30607527D01*
X63379425Y-30596422D01*
X63469409Y-30582171D01*
X63641639Y-30526211D01*
X63641639Y-30526210D01*
X63641644Y-30526209D01*
X63792804Y-30449188D01*
X63861474Y-30436291D01*
X63926214Y-30462567D01*
G37*
%TD.AperFunction*%
%TA.AperFunction,NonConductor*%
G36*
X62598396Y-30444704D02*
G01*
X62758355Y-30526209D01*
X62758363Y-30526212D01*
X62831072Y-30549836D01*
X62930591Y-30582171D01*
X63003639Y-30593740D01*
X63090678Y-30607527D01*
X63153813Y-30637456D01*
X63190744Y-30696768D01*
X63189746Y-30766631D01*
X63151136Y-30824863D01*
X63090678Y-30852473D01*
X62930589Y-30877829D01*
X62758363Y-30933787D01*
X62758360Y-30933788D01*
X62598395Y-31015296D01*
X62529726Y-31028192D01*
X62464985Y-31001916D01*
X62424728Y-30944809D01*
X62418100Y-30904811D01*
X62418100Y-30555188D01*
X62437785Y-30488149D01*
X62490589Y-30442394D01*
X62559747Y-30432450D01*
X62598396Y-30444704D01*
G37*
%TD.AperFunction*%
%TA.AperFunction,NonConductor*%
G36*
X65540590Y-32270642D02*
G01*
X65547779Y-32271028D01*
X65570652Y-32287522D01*
X65595238Y-32301327D01*
X65598612Y-32307684D01*
X65604451Y-32311895D01*
X65614775Y-32338135D01*
X65627995Y-32363042D01*
X65628021Y-32371802D01*
X65630032Y-32376913D01*
X65628143Y-32412156D01*
X65599500Y-32556153D01*
X65599500Y-32713846D01*
X65630261Y-32868489D01*
X65630264Y-32868501D01*
X65690602Y-33014172D01*
X65690609Y-33014185D01*
X65778210Y-33145288D01*
X65778213Y-33145292D01*
X65815240Y-33182319D01*
X65819579Y-33190266D01*
X65826829Y-33195694D01*
X65836061Y-33220450D01*
X65848725Y-33243642D01*
X65848079Y-33252674D01*
X65851243Y-33261159D01*
X65845625Y-33286976D01*
X65843741Y-33313334D01*
X65837921Y-33322388D01*
X65836389Y-33329432D01*
X65815236Y-33357685D01*
X65803983Y-33368937D01*
X65742659Y-33402419D01*
X65672967Y-33397432D01*
X65628625Y-33368933D01*
X65273864Y-33014172D01*
X64997873Y-32738180D01*
X64964389Y-32676859D01*
X64969373Y-32607167D01*
X65011245Y-32551234D01*
X65053459Y-32530727D01*
X65160384Y-32502077D01*
X65297316Y-32423020D01*
X65409120Y-32311216D01*
X65409120Y-32311215D01*
X65414867Y-32305469D01*
X65415222Y-32305824D01*
X65417294Y-32301863D01*
X65441798Y-32287909D01*
X65464570Y-32271279D01*
X65471754Y-32270850D01*
X65478009Y-32267289D01*
X65506166Y-32268797D01*
X65534315Y-32267119D01*
X65540590Y-32270642D01*
G37*
%TD.AperFunction*%
%TA.AperFunction,NonConductor*%
G36*
X61992539Y-26164785D02*
G01*
X62038294Y-26217589D01*
X62049500Y-26269100D01*
X62049500Y-27814856D01*
X62049502Y-27814882D01*
X62052413Y-27839987D01*
X62052415Y-27839991D01*
X62097793Y-27942764D01*
X62097794Y-27942765D01*
X62177235Y-28022206D01*
X62177238Y-28022207D01*
X62183395Y-28026425D01*
X62227578Y-28080552D01*
X62235484Y-28149973D01*
X62204603Y-28212648D01*
X62200999Y-28216406D01*
X61697122Y-28720284D01*
X61697120Y-28720287D01*
X61644393Y-28811612D01*
X61632230Y-28857006D01*
X61632230Y-28857007D01*
X61632229Y-28857006D01*
X61617100Y-28913471D01*
X61617100Y-32524026D01*
X61644393Y-32625889D01*
X61664170Y-32660143D01*
X61697120Y-32717213D01*
X61697122Y-32717215D01*
X62459123Y-33479216D01*
X62492608Y-33540539D01*
X62487624Y-33610231D01*
X62453685Y-33658743D01*
X62453944Y-33659002D01*
X62452483Y-33660462D01*
X62451981Y-33661181D01*
X62450499Y-33662446D01*
X62322445Y-33790500D01*
X62322441Y-33790505D01*
X62216006Y-33937002D01*
X62133788Y-34098360D01*
X62133787Y-34098363D01*
X62088675Y-34237207D01*
X62049238Y-34294882D01*
X61984879Y-34322081D01*
X61916033Y-34310166D01*
X61883063Y-34286570D01*
X58259119Y-30662626D01*
X58225634Y-30601303D01*
X58222800Y-30574945D01*
X58222800Y-29196655D01*
X58231443Y-29167220D01*
X58237966Y-29137231D01*
X58241722Y-29132212D01*
X58242485Y-29129616D01*
X58259111Y-29108981D01*
X58277411Y-29090681D01*
X58338730Y-29057198D01*
X58408421Y-29062180D01*
X58464356Y-29104050D01*
X58484865Y-29146268D01*
X58498721Y-29197979D01*
X58498726Y-29197990D01*
X58577775Y-29334909D01*
X58577779Y-29334914D01*
X58577780Y-29334916D01*
X58689584Y-29446720D01*
X58689586Y-29446721D01*
X58689590Y-29446724D01*
X58735468Y-29473211D01*
X58826516Y-29525777D01*
X58979243Y-29566700D01*
X58979245Y-29566700D01*
X59137355Y-29566700D01*
X59137357Y-29566700D01*
X59290084Y-29525777D01*
X59427016Y-29446720D01*
X59470717Y-29403019D01*
X59532040Y-29369534D01*
X59558398Y-29366700D01*
X60360125Y-29366700D01*
X60360127Y-29366700D01*
X60461988Y-29339407D01*
X60553313Y-29286680D01*
X61522180Y-28317813D01*
X61574907Y-28226488D01*
X61602200Y-28124627D01*
X61602200Y-28019173D01*
X61602200Y-26732395D01*
X61618813Y-26670395D01*
X61643731Y-26627235D01*
X61660677Y-26597884D01*
X61701600Y-26445157D01*
X61701600Y-26287043D01*
X61701599Y-26287042D01*
X61701368Y-26285282D01*
X61701600Y-26283794D01*
X61701600Y-26278916D01*
X61702361Y-26278916D01*
X61712136Y-26216247D01*
X61758518Y-26163992D01*
X61824308Y-26145100D01*
X61925500Y-26145100D01*
X61992539Y-26164785D01*
G37*
%TD.AperFunction*%
%TA.AperFunction,NonConductor*%
G36*
X31286630Y-24390253D02*
G01*
X31344863Y-24428863D01*
X31372473Y-24489321D01*
X31397829Y-24649410D01*
X31453787Y-24821636D01*
X31453788Y-24821639D01*
X31495243Y-24902997D01*
X31527706Y-24966709D01*
X31536006Y-24982997D01*
X31631361Y-25114244D01*
X31631365Y-25114248D01*
X31642447Y-25129501D01*
X31770499Y-25257553D01*
X31785751Y-25268634D01*
X31785755Y-25268638D01*
X31878972Y-25336363D01*
X31917006Y-25363996D01*
X32009906Y-25411331D01*
X32078360Y-25446211D01*
X32078363Y-25446212D01*
X32111831Y-25457086D01*
X32250591Y-25502171D01*
X32333429Y-25515291D01*
X32429449Y-25530500D01*
X32429454Y-25530500D01*
X32610551Y-25530500D01*
X32789409Y-25502171D01*
X32840182Y-25485674D01*
X32933284Y-25455423D01*
X33003123Y-25453429D01*
X33059281Y-25485674D01*
X33438887Y-25865280D01*
X33497617Y-25899188D01*
X33529865Y-25917807D01*
X33530212Y-25918007D01*
X33632073Y-25945300D01*
X33737527Y-25945300D01*
X40576000Y-25945300D01*
X40643039Y-25964985D01*
X40688794Y-26017789D01*
X40700000Y-26069300D01*
X40700000Y-34234245D01*
X40680315Y-34301284D01*
X40627511Y-34347039D01*
X40558353Y-34356983D01*
X40494797Y-34327958D01*
X40488319Y-34321926D01*
X31085674Y-24919281D01*
X31052189Y-24857958D01*
X31055423Y-24793284D01*
X31102171Y-24649409D01*
X31108593Y-24608862D01*
X31127527Y-24489321D01*
X31157456Y-24426186D01*
X31216768Y-24389255D01*
X31286630Y-24390253D01*
G37*
%TD.AperFunction*%
%TA.AperFunction,NonConductor*%
G36*
X65487690Y-34291928D02*
G01*
X65492122Y-34291505D01*
X65500733Y-34293485D01*
X65545573Y-34305501D01*
X65545574Y-34305501D01*
X65638573Y-34305501D01*
X65705612Y-34325186D01*
X65741675Y-34360610D01*
X65778210Y-34415288D01*
X65778213Y-34415292D01*
X65815240Y-34452319D01*
X65848725Y-34513642D01*
X65843741Y-34583334D01*
X65815240Y-34627681D01*
X65778213Y-34664707D01*
X65778210Y-34664711D01*
X65690609Y-34795814D01*
X65690604Y-34795824D01*
X65681549Y-34817686D01*
X65660961Y-34843233D01*
X65641298Y-34869500D01*
X65639148Y-34870301D01*
X65637708Y-34872089D01*
X65606573Y-34882451D01*
X65575834Y-34893917D01*
X65573591Y-34893429D01*
X65571414Y-34894154D01*
X65539615Y-34886037D01*
X65507561Y-34879065D01*
X65505112Y-34877231D01*
X65503714Y-34876875D01*
X65479307Y-34857914D01*
X65449619Y-34828226D01*
X65416134Y-34766903D01*
X65413300Y-34740545D01*
X65413300Y-34619975D01*
X65413300Y-34619973D01*
X65386007Y-34518113D01*
X65361267Y-34475263D01*
X65356047Y-34453745D01*
X65346371Y-34433825D01*
X65347970Y-34420452D01*
X65344795Y-34407364D01*
X65352038Y-34386434D01*
X65354668Y-34364449D01*
X65363241Y-34354065D01*
X65367647Y-34341337D01*
X65385055Y-34327647D01*
X65399154Y-34310572D01*
X65411982Y-34306471D01*
X65422569Y-34298146D01*
X65444613Y-34296041D01*
X65465706Y-34289299D01*
X65487690Y-34291928D01*
G37*
%TD.AperFunction*%
%TA.AperFunction,NonConductor*%
G36*
X46632114Y-35549751D02*
G01*
X46672371Y-35606857D01*
X46679000Y-35646856D01*
X46679000Y-35973143D01*
X46659315Y-36040182D01*
X46606511Y-36085937D01*
X46537353Y-36095881D01*
X46498705Y-36083628D01*
X46361639Y-36013788D01*
X46361636Y-36013787D01*
X46189410Y-35957829D01*
X46029321Y-35932473D01*
X45966186Y-35902544D01*
X45929255Y-35843232D01*
X45930253Y-35773370D01*
X45968863Y-35715137D01*
X46029321Y-35687527D01*
X46099425Y-35676422D01*
X46189409Y-35662171D01*
X46361639Y-35606211D01*
X46498705Y-35536371D01*
X46567373Y-35523475D01*
X46632114Y-35549751D01*
G37*
%TD.AperFunction*%
%TA.AperFunction,NonConductor*%
G36*
X55472366Y-35522369D02*
G01*
X55472665Y-35521784D01*
X55638360Y-35606211D01*
X55638363Y-35606212D01*
X55711072Y-35629836D01*
X55810591Y-35662171D01*
X55883401Y-35673703D01*
X55970678Y-35687527D01*
X56033813Y-35717456D01*
X56070744Y-35776768D01*
X56069746Y-35846631D01*
X56031136Y-35904863D01*
X55970678Y-35932473D01*
X55810589Y-35957829D01*
X55638363Y-36013787D01*
X55638360Y-36013788D01*
X55519064Y-36074574D01*
X55477248Y-36095881D01*
X55472665Y-36098216D01*
X55472173Y-36097251D01*
X55409726Y-36114134D01*
X55343126Y-36093008D01*
X55298521Y-36039230D01*
X55288400Y-35990163D01*
X55288400Y-35629836D01*
X55308085Y-35562797D01*
X55360889Y-35517042D01*
X55430047Y-35507098D01*
X55472366Y-35522369D01*
G37*
%TD.AperFunction*%
%TA.AperFunction,NonConductor*%
G36*
X43866911Y-25408294D02*
G01*
X43911259Y-25436795D01*
X44021684Y-25547220D01*
X44021686Y-25547221D01*
X44021690Y-25547224D01*
X44039413Y-25557456D01*
X44158616Y-25626277D01*
X44311343Y-25667200D01*
X44373146Y-25667200D01*
X44402586Y-25675844D01*
X44432573Y-25682368D01*
X44437588Y-25686122D01*
X44440185Y-25686885D01*
X44460827Y-25703519D01*
X44543479Y-25786171D01*
X44543489Y-25786182D01*
X44547819Y-25790512D01*
X44547820Y-25790513D01*
X44622387Y-25865080D01*
X44681464Y-25899188D01*
X44681465Y-25899189D01*
X44713707Y-25917804D01*
X44713710Y-25917806D01*
X44713712Y-25917806D01*
X44713713Y-25917807D01*
X44815573Y-25945101D01*
X44815575Y-25945101D01*
X44928623Y-25945101D01*
X44928639Y-25945100D01*
X44968484Y-25945100D01*
X45035523Y-25964785D01*
X45081278Y-26017589D01*
X45091222Y-26086747D01*
X45062197Y-26150303D01*
X45056165Y-26156781D01*
X45042445Y-26170500D01*
X45042441Y-26170505D01*
X44936006Y-26317002D01*
X44853788Y-26478360D01*
X44853787Y-26478363D01*
X44797829Y-26650589D01*
X44769500Y-26829448D01*
X44769500Y-27010551D01*
X44797829Y-27189410D01*
X44853787Y-27361636D01*
X44853788Y-27361639D01*
X44936006Y-27522997D01*
X45042441Y-27669494D01*
X45042445Y-27669499D01*
X45170500Y-27797554D01*
X45170505Y-27797558D01*
X45255814Y-27859538D01*
X45317006Y-27903996D01*
X45393094Y-27942765D01*
X45478360Y-27986211D01*
X45478363Y-27986212D01*
X45564476Y-28014191D01*
X45650591Y-28042171D01*
X45723639Y-28053740D01*
X45810678Y-28067527D01*
X45873813Y-28097456D01*
X45910744Y-28156768D01*
X45909746Y-28226631D01*
X45871136Y-28284863D01*
X45810678Y-28312473D01*
X45650589Y-28337829D01*
X45478363Y-28393787D01*
X45478360Y-28393788D01*
X45317002Y-28476006D01*
X45170505Y-28582441D01*
X45170500Y-28582445D01*
X45042445Y-28710500D01*
X45042441Y-28710505D01*
X44936006Y-28857002D01*
X44853788Y-29018360D01*
X44853787Y-29018363D01*
X44797829Y-29190589D01*
X44769500Y-29369448D01*
X44769500Y-29550551D01*
X44797829Y-29729412D01*
X44844575Y-29873283D01*
X44846570Y-29943124D01*
X44814325Y-29999281D01*
X44432922Y-30380684D01*
X44432920Y-30380687D01*
X44380193Y-30472010D01*
X44355410Y-30564503D01*
X44355409Y-30564502D01*
X44352900Y-30573870D01*
X44352900Y-32806708D01*
X44336288Y-32868707D01*
X44306723Y-32919915D01*
X44306723Y-32919916D01*
X44265800Y-33072643D01*
X44265800Y-33230757D01*
X44293389Y-33333718D01*
X44306723Y-33383483D01*
X44306726Y-33383490D01*
X44385775Y-33520409D01*
X44385779Y-33520414D01*
X44385780Y-33520416D01*
X44497584Y-33632220D01*
X44497586Y-33632221D01*
X44497590Y-33632224D01*
X44549937Y-33662446D01*
X44634516Y-33711277D01*
X44787243Y-33752200D01*
X44787245Y-33752200D01*
X44827835Y-33752200D01*
X44894874Y-33771885D01*
X44940629Y-33824689D01*
X44950573Y-33893847D01*
X44936836Y-33931961D01*
X44938216Y-33932665D01*
X44853788Y-34098360D01*
X44853787Y-34098363D01*
X44797829Y-34270589D01*
X44769500Y-34449448D01*
X44769500Y-34630551D01*
X44797829Y-34809410D01*
X44853787Y-34981636D01*
X44853788Y-34981639D01*
X44903540Y-35079281D01*
X44920409Y-35112388D01*
X44936006Y-35142997D01*
X45042441Y-35289494D01*
X45042445Y-35289499D01*
X45170500Y-35417554D01*
X45170505Y-35417558D01*
X45293748Y-35507098D01*
X45317006Y-35523996D01*
X45393157Y-35562797D01*
X45478360Y-35606211D01*
X45478363Y-35606212D01*
X45551072Y-35629836D01*
X45650591Y-35662171D01*
X45723401Y-35673703D01*
X45810678Y-35687527D01*
X45873813Y-35717456D01*
X45910744Y-35776768D01*
X45909746Y-35846631D01*
X45871136Y-35904863D01*
X45810678Y-35932473D01*
X45650589Y-35957829D01*
X45478363Y-36013787D01*
X45478360Y-36013788D01*
X45317002Y-36096006D01*
X45170505Y-36202441D01*
X45170500Y-36202445D01*
X45042445Y-36330500D01*
X45042441Y-36330505D01*
X44936006Y-36477002D01*
X44867325Y-36611795D01*
X44819350Y-36662591D01*
X44756840Y-36679500D01*
X42897255Y-36679500D01*
X42830216Y-36659815D01*
X42809574Y-36643181D01*
X41936319Y-35769926D01*
X41902834Y-35708603D01*
X41900000Y-35682245D01*
X41900000Y-26069300D01*
X41919685Y-26002261D01*
X41972489Y-25956506D01*
X42024000Y-25945300D01*
X43114225Y-25945300D01*
X43114227Y-25945300D01*
X43216088Y-25918007D01*
X43307413Y-25865280D01*
X43735897Y-25436794D01*
X43797220Y-25403310D01*
X43866911Y-25408294D01*
G37*
%TD.AperFunction*%
%TA.AperFunction,NonConductor*%
G36*
X64496277Y-34731943D02*
G01*
X64529247Y-34755540D01*
X64575981Y-34802274D01*
X64609466Y-34863597D01*
X64612300Y-34889955D01*
X64612300Y-34905073D01*
X64612300Y-35010527D01*
X64625946Y-35061457D01*
X64639593Y-35112389D01*
X64657265Y-35142997D01*
X64692320Y-35203713D01*
X64692322Y-35203715D01*
X65563181Y-36074574D01*
X65596666Y-36135897D01*
X65599500Y-36162255D01*
X65599500Y-36917546D01*
X65579815Y-36984585D01*
X65527011Y-37030340D01*
X65457853Y-37040284D01*
X65394297Y-37011259D01*
X65387819Y-37005227D01*
X64859598Y-36477006D01*
X63962504Y-35579911D01*
X63929019Y-35518588D01*
X63934003Y-35448896D01*
X63962500Y-35404553D01*
X64077553Y-35289501D01*
X64088254Y-35274773D01*
X64097375Y-35262217D01*
X64183996Y-35142994D01*
X64266211Y-34981639D01*
X64279252Y-34941503D01*
X64323635Y-34804904D01*
X64363072Y-34747228D01*
X64427430Y-34720029D01*
X64496277Y-34731943D01*
G37*
%TD.AperFunction*%
%TA.AperFunction,NonConductor*%
G36*
X55204329Y-23356738D02*
G01*
X55226418Y-23358318D01*
X55237201Y-23366390D01*
X55250123Y-23370185D01*
X55264622Y-23386918D01*
X55282351Y-23400190D01*
X55287058Y-23412810D01*
X55295878Y-23422989D01*
X55299029Y-23444906D01*
X55306768Y-23465654D01*
X55303905Y-23478814D01*
X55305822Y-23492147D01*
X55296622Y-23512290D01*
X55291916Y-23533927D01*
X55278647Y-23551652D01*
X55276797Y-23555703D01*
X55270765Y-23562181D01*
X55202445Y-23630500D01*
X55202441Y-23630505D01*
X55096006Y-23777002D01*
X55013788Y-23938360D01*
X55013787Y-23938363D01*
X54957829Y-24110589D01*
X54929500Y-24289448D01*
X54929500Y-24470551D01*
X54957829Y-24649410D01*
X55013787Y-24821636D01*
X55013788Y-24821639D01*
X55055243Y-24902997D01*
X55087706Y-24966709D01*
X55096006Y-24982997D01*
X55202441Y-25129494D01*
X55202445Y-25129499D01*
X55330500Y-25257554D01*
X55330505Y-25257558D01*
X55438972Y-25336363D01*
X55477006Y-25363996D01*
X55569906Y-25411331D01*
X55638360Y-25446211D01*
X55638363Y-25446212D01*
X55671831Y-25457086D01*
X55810591Y-25502171D01*
X55883639Y-25513740D01*
X55970678Y-25527527D01*
X56033813Y-25557456D01*
X56070744Y-25616768D01*
X56069746Y-25686631D01*
X56031136Y-25744863D01*
X55970678Y-25772473D01*
X55810589Y-25797829D01*
X55638363Y-25853787D01*
X55638360Y-25853788D01*
X55477002Y-25936006D01*
X55330505Y-26042441D01*
X55330500Y-26042445D01*
X55202445Y-26170500D01*
X55202441Y-26170505D01*
X55096006Y-26317002D01*
X55013788Y-26478360D01*
X55013787Y-26478363D01*
X54957829Y-26650589D01*
X54929500Y-26829448D01*
X54929500Y-27010551D01*
X54957829Y-27189412D01*
X55004575Y-27333283D01*
X55006570Y-27403124D01*
X54974325Y-27459281D01*
X54567422Y-27866184D01*
X54567418Y-27866190D01*
X54514693Y-27957511D01*
X54512798Y-27964582D01*
X54492009Y-28042171D01*
X54487400Y-28059373D01*
X54487400Y-30918288D01*
X54467715Y-30985327D01*
X54414911Y-31031082D01*
X54345753Y-31041026D01*
X54282197Y-31012001D01*
X54256013Y-30980288D01*
X54227722Y-30931287D01*
X54227718Y-30931282D01*
X54115917Y-30819481D01*
X54115909Y-30819475D01*
X53978990Y-30740426D01*
X53978986Y-30740424D01*
X53978984Y-30740423D01*
X53826257Y-30699500D01*
X53668143Y-30699500D01*
X53515416Y-30740423D01*
X53515409Y-30740426D01*
X53378490Y-30819475D01*
X53378482Y-30819481D01*
X53266681Y-30931282D01*
X53266675Y-30931290D01*
X53187626Y-31068209D01*
X53187623Y-31068216D01*
X53146700Y-31220943D01*
X53146700Y-31379057D01*
X53165723Y-31450050D01*
X53187623Y-31531783D01*
X53187626Y-31531790D01*
X53266675Y-31668709D01*
X53266681Y-31668717D01*
X53304754Y-31706790D01*
X53338239Y-31768113D01*
X53333255Y-31837805D01*
X53304754Y-31882152D01*
X47691681Y-37495225D01*
X47630358Y-37528710D01*
X47560666Y-37523726D01*
X47504733Y-37481854D01*
X47480316Y-37416390D01*
X47480000Y-37407544D01*
X47480000Y-28142229D01*
X47480001Y-28142216D01*
X47480001Y-28026774D01*
X47480001Y-28026773D01*
X47452707Y-27924913D01*
X47448203Y-27917112D01*
X47399980Y-27833587D01*
X47325413Y-27759020D01*
X47325410Y-27759018D01*
X47025673Y-27459281D01*
X46992189Y-27397959D01*
X46995424Y-27333283D01*
X47042171Y-27189409D01*
X47070500Y-27010551D01*
X47070500Y-26829449D01*
X47054750Y-26730012D01*
X47046820Y-26679945D01*
X47055774Y-26610653D01*
X47100770Y-26557201D01*
X47167521Y-26536561D01*
X47234835Y-26555285D01*
X47256974Y-26572867D01*
X48908081Y-28223974D01*
X48941566Y-28285297D01*
X48944400Y-28311655D01*
X48944400Y-28373457D01*
X48976736Y-28494134D01*
X48985323Y-28526183D01*
X48985326Y-28526190D01*
X49064375Y-28663109D01*
X49064379Y-28663114D01*
X49064380Y-28663116D01*
X49176184Y-28774920D01*
X49176186Y-28774921D01*
X49176190Y-28774924D01*
X49262600Y-28824812D01*
X49313116Y-28853977D01*
X49465843Y-28894900D01*
X49465845Y-28894900D01*
X49623955Y-28894900D01*
X49623957Y-28894900D01*
X49776684Y-28853977D01*
X49913616Y-28774920D01*
X50025420Y-28663116D01*
X50104477Y-28526184D01*
X50145400Y-28373457D01*
X50145400Y-28215343D01*
X50104477Y-28062616D01*
X50082471Y-28024500D01*
X50025424Y-27925690D01*
X50025418Y-27925682D01*
X49913617Y-27813881D01*
X49913609Y-27813875D01*
X49776690Y-27734826D01*
X49776686Y-27734824D01*
X49776684Y-27734823D01*
X49623957Y-27693900D01*
X49623956Y-27693900D01*
X49562155Y-27693900D01*
X49495116Y-27674215D01*
X49474474Y-27657581D01*
X47106818Y-25289925D01*
X47073333Y-25228602D01*
X47070499Y-25202244D01*
X47070499Y-23485134D01*
X47070298Y-23481658D01*
X47086080Y-23413594D01*
X47136154Y-23364867D01*
X47194091Y-23350500D01*
X55183084Y-23350500D01*
X55204329Y-23356738D01*
G37*
%TD.AperFunction*%
%TA.AperFunction,NonConductor*%
G36*
X42105203Y-37072042D02*
G01*
X42111681Y-37078074D01*
X42434087Y-37400480D01*
X42525412Y-37453207D01*
X42627273Y-37480500D01*
X44756840Y-37480500D01*
X44771442Y-37484787D01*
X44786647Y-37484136D01*
X44804285Y-37494431D01*
X44823879Y-37500185D01*
X44834775Y-37512229D01*
X44846989Y-37519358D01*
X44867325Y-37548205D01*
X44925921Y-37663205D01*
X44938817Y-37731874D01*
X44912541Y-37796614D01*
X44855435Y-37836872D01*
X44815436Y-37843500D01*
X42024000Y-37843500D01*
X41956961Y-37823815D01*
X41911206Y-37771011D01*
X41900000Y-37719500D01*
X41900000Y-37165755D01*
X41919685Y-37098716D01*
X41972489Y-37052961D01*
X42041647Y-37043017D01*
X42105203Y-37072042D01*
G37*
%TD.AperFunction*%
%TA.AperFunction,NonConductor*%
G36*
X67107749Y-37265184D02*
G01*
X67153504Y-37317988D01*
X67163448Y-37387146D01*
X67141028Y-37442384D01*
X67016659Y-37613563D01*
X66909433Y-37824003D01*
X66836446Y-38048631D01*
X66799500Y-38281902D01*
X66799500Y-38518097D01*
X66836447Y-38751369D01*
X66836447Y-38751372D01*
X66844346Y-38775681D01*
X66846341Y-38845523D01*
X66810260Y-38905355D01*
X66747559Y-38936183D01*
X66678145Y-38928218D01*
X66638734Y-38901680D01*
X66559499Y-38822445D01*
X66559494Y-38822441D01*
X66412997Y-38716006D01*
X66412996Y-38716005D01*
X66412994Y-38716004D01*
X66278205Y-38647325D01*
X66227409Y-38599350D01*
X66210500Y-38536840D01*
X66210500Y-38056529D01*
X66210501Y-38056516D01*
X66210501Y-37941074D01*
X66210501Y-37941073D01*
X66183207Y-37839213D01*
X66145722Y-37774287D01*
X66130480Y-37747887D01*
X66055913Y-37673320D01*
X66055910Y-37673318D01*
X65949561Y-37566969D01*
X65839773Y-37457180D01*
X65806288Y-37395857D01*
X65811272Y-37326165D01*
X65853144Y-37270232D01*
X65918608Y-37245815D01*
X65927427Y-37245499D01*
X67040710Y-37245499D01*
X67107749Y-37265184D01*
G37*
%TD.AperFunction*%
%TA.AperFunction,NonConductor*%
G36*
X39256123Y-38664185D02*
G01*
X39301878Y-38716989D01*
X39311822Y-38786147D01*
X39282797Y-38849703D01*
X39276765Y-38856181D01*
X39262445Y-38870500D01*
X39262441Y-38870505D01*
X39156006Y-39017002D01*
X39073788Y-39178360D01*
X39073787Y-39178363D01*
X39017829Y-39350589D01*
X38992473Y-39510678D01*
X38962544Y-39573813D01*
X38903232Y-39610744D01*
X38833369Y-39609746D01*
X38775137Y-39571136D01*
X38747527Y-39510678D01*
X38728593Y-39391137D01*
X38722171Y-39350591D01*
X38666211Y-39178361D01*
X38666211Y-39178360D01*
X38624756Y-39097002D01*
X38583996Y-39017006D01*
X38570396Y-38998287D01*
X38477558Y-38870505D01*
X38477554Y-38870500D01*
X38463235Y-38856181D01*
X38429750Y-38794858D01*
X38434734Y-38725166D01*
X38476606Y-38669233D01*
X38542070Y-38644816D01*
X38550916Y-38644500D01*
X39189084Y-38644500D01*
X39256123Y-38664185D01*
G37*
%TD.AperFunction*%
%TA.AperFunction,NonConductor*%
G36*
X36660114Y-38688792D02*
G01*
X36716047Y-38730664D01*
X36740464Y-38796128D01*
X36725612Y-38864401D01*
X36717099Y-38877859D01*
X36616003Y-39017006D01*
X36533788Y-39178360D01*
X36533787Y-39178363D01*
X36477829Y-39350589D01*
X36452473Y-39510678D01*
X36422544Y-39573813D01*
X36363232Y-39610744D01*
X36293369Y-39609746D01*
X36235137Y-39571136D01*
X36207527Y-39510678D01*
X36188593Y-39391137D01*
X36182171Y-39350591D01*
X36135424Y-39206716D01*
X36133429Y-39136875D01*
X36165672Y-39080719D01*
X36529100Y-38717291D01*
X36590422Y-38683808D01*
X36660114Y-38688792D01*
G37*
%TD.AperFunction*%
%TA.AperFunction,NonConductor*%
G36*
X56619281Y-35645674D02*
G01*
X59807714Y-38834107D01*
X59841199Y-38895430D01*
X59836215Y-38965122D01*
X59820352Y-38994672D01*
X59746005Y-39097003D01*
X59663788Y-39258360D01*
X59663787Y-39258363D01*
X59607829Y-39430589D01*
X59586972Y-39562271D01*
X59557042Y-39625405D01*
X59497731Y-39662336D01*
X59427868Y-39661338D01*
X59369636Y-39622728D01*
X59341522Y-39558764D01*
X59340499Y-39542872D01*
X59340499Y-38805143D01*
X59340499Y-38805136D01*
X59340497Y-38805117D01*
X59337586Y-38780012D01*
X59337585Y-38780010D01*
X59337585Y-38780009D01*
X59292206Y-38677235D01*
X59212765Y-38597794D01*
X59109992Y-38552415D01*
X59084868Y-38549500D01*
X59084865Y-38549500D01*
X57657255Y-38549500D01*
X57590216Y-38529815D01*
X57569574Y-38513181D01*
X57143715Y-38087322D01*
X57143713Y-38087320D01*
X57076704Y-38048632D01*
X57052387Y-38034592D01*
X57022500Y-38026584D01*
X56962840Y-37990219D01*
X56932312Y-37927372D01*
X56940607Y-37857996D01*
X56955511Y-37834039D01*
X56954690Y-37833443D01*
X57037473Y-37719500D01*
X57063996Y-37682994D01*
X57146211Y-37521639D01*
X57202171Y-37349409D01*
X57219090Y-37242585D01*
X57230500Y-37170551D01*
X57230500Y-36989448D01*
X57211009Y-36866393D01*
X57202171Y-36810591D01*
X57146211Y-36638361D01*
X57146211Y-36638360D01*
X57117740Y-36582484D01*
X57063996Y-36477006D01*
X57055219Y-36464926D01*
X56968638Y-36345755D01*
X56968634Y-36345751D01*
X56957553Y-36330499D01*
X56829501Y-36202447D01*
X56814248Y-36191365D01*
X56814244Y-36191361D01*
X56682997Y-36096006D01*
X56682996Y-36096005D01*
X56682994Y-36096004D01*
X56631300Y-36069664D01*
X56521639Y-36013788D01*
X56521636Y-36013787D01*
X56349410Y-35957829D01*
X56189321Y-35932473D01*
X56126186Y-35902544D01*
X56089255Y-35843232D01*
X56090253Y-35773370D01*
X56128863Y-35715137D01*
X56189321Y-35687527D01*
X56349409Y-35662171D01*
X56400182Y-35645674D01*
X56493284Y-35615423D01*
X56563123Y-35613429D01*
X56619281Y-35645674D01*
G37*
%TD.AperFunction*%
%TA.AperFunction,NonConductor*%
G36*
X70092539Y-35370185D02*
G01*
X70138294Y-35422989D01*
X70149500Y-35474500D01*
X70149500Y-39303456D01*
X70129815Y-39370495D01*
X70113181Y-39391137D01*
X68891137Y-40613181D01*
X68829814Y-40646666D01*
X68803456Y-40649500D01*
X66785610Y-40649500D01*
X66718571Y-40629815D01*
X66672816Y-40577011D01*
X66662872Y-40507853D01*
X66685291Y-40452615D01*
X66745676Y-40369501D01*
X66793996Y-40302994D01*
X66876211Y-40141639D01*
X66932171Y-39969409D01*
X66949864Y-39857701D01*
X66960500Y-39790551D01*
X66960500Y-39609449D01*
X66944855Y-39510678D01*
X66939789Y-39478690D01*
X66948743Y-39409399D01*
X66993739Y-39355947D01*
X67060490Y-39335307D01*
X67127804Y-39354031D01*
X67151602Y-39374500D01*
X67152038Y-39374065D01*
X67155483Y-39377510D01*
X67322490Y-39544517D01*
X67513567Y-39683343D01*
X67603804Y-39729321D01*
X67724003Y-39790566D01*
X67724005Y-39790566D01*
X67724008Y-39790568D01*
X67844412Y-39829689D01*
X67948631Y-39863553D01*
X68181903Y-39900500D01*
X68181908Y-39900500D01*
X68418097Y-39900500D01*
X68651368Y-39863553D01*
X68875992Y-39790568D01*
X69086433Y-39683343D01*
X69277510Y-39544517D01*
X69444517Y-39377510D01*
X69583343Y-39186433D01*
X69690568Y-38975992D01*
X69763553Y-38751368D01*
X69766832Y-38730664D01*
X69800500Y-38518097D01*
X69800500Y-38281902D01*
X69763553Y-38048631D01*
X69722902Y-37923522D01*
X69690568Y-37824008D01*
X69690566Y-37824005D01*
X69690566Y-37824003D01*
X69634002Y-37712991D01*
X69583343Y-37613567D01*
X69444517Y-37422490D01*
X69277510Y-37255483D01*
X69086433Y-37116657D01*
X69010710Y-37078074D01*
X68875996Y-37009433D01*
X68651368Y-36936446D01*
X68418097Y-36899500D01*
X68418092Y-36899500D01*
X68181908Y-36899500D01*
X68181903Y-36899500D01*
X67948631Y-36936446D01*
X67724000Y-37009434D01*
X67580793Y-37082402D01*
X67512124Y-37095298D01*
X67447384Y-37069021D01*
X67407127Y-37011915D01*
X67400499Y-36971922D01*
X67400499Y-35900136D01*
X67400497Y-35900117D01*
X67397586Y-35875012D01*
X67397585Y-35875010D01*
X67397585Y-35875009D01*
X67352206Y-35772235D01*
X67352205Y-35772233D01*
X67311158Y-35731186D01*
X67277674Y-35669863D01*
X67282659Y-35600171D01*
X67286195Y-35591669D01*
X67290291Y-35582767D01*
X67309394Y-35554179D01*
X67362970Y-35424831D01*
X67363969Y-35422663D01*
X67385407Y-35398065D01*
X67405893Y-35372644D01*
X67408247Y-35371860D01*
X67409877Y-35369991D01*
X67441206Y-35360890D01*
X67472187Y-35350579D01*
X67476614Y-35350500D01*
X70025500Y-35350500D01*
X70092539Y-35370185D01*
G37*
%TD.AperFunction*%
%TA.AperFunction,NonConductor*%
G36*
X59545702Y-39763415D02*
G01*
X59583476Y-39822193D01*
X59586972Y-39837729D01*
X59607829Y-39969410D01*
X59663787Y-40141636D01*
X59663788Y-40141639D01*
X59746003Y-40302993D01*
X59854709Y-40452615D01*
X59878188Y-40518422D01*
X59862362Y-40586475D01*
X59812256Y-40635170D01*
X59754390Y-40649500D01*
X59464500Y-40649500D01*
X59397461Y-40629815D01*
X59351706Y-40577011D01*
X59340500Y-40525500D01*
X59340500Y-40222994D01*
X59340499Y-39857125D01*
X59360183Y-39790089D01*
X59412987Y-39744334D01*
X59482146Y-39734390D01*
X59545702Y-39763415D01*
G37*
%TD.AperFunction*%
%TA.AperFunction,NonConductor*%
G36*
X54383166Y-31561466D02*
G01*
X54391747Y-31560995D01*
X54415108Y-31574254D01*
X54440051Y-31584240D01*
X54445036Y-31591241D01*
X54452512Y-31595484D01*
X54464997Y-31619271D01*
X54480580Y-31641154D01*
X54482511Y-31652640D01*
X54484983Y-31657349D01*
X54484405Y-31663904D01*
X54487400Y-31681711D01*
X54487400Y-37498273D01*
X54487400Y-37603727D01*
X54490037Y-37613567D01*
X54514693Y-37705589D01*
X54529869Y-37731874D01*
X54567420Y-37796913D01*
X54567422Y-37796915D01*
X55391901Y-38621394D01*
X55425386Y-38682717D01*
X55420402Y-38752409D01*
X55391902Y-38796756D01*
X55305585Y-38883073D01*
X55203768Y-39023211D01*
X55125128Y-39177552D01*
X55071597Y-39342302D01*
X55044500Y-39513389D01*
X55044500Y-39686610D01*
X55068434Y-39837729D01*
X55071598Y-39857701D01*
X55125127Y-40022445D01*
X55203768Y-40176788D01*
X55305586Y-40316928D01*
X55305588Y-40316930D01*
X55426477Y-40437819D01*
X55459962Y-40499142D01*
X55454978Y-40568834D01*
X55413106Y-40624767D01*
X55347642Y-40649184D01*
X55338796Y-40649500D01*
X48463625Y-40649500D01*
X48396586Y-40629815D01*
X48350831Y-40577011D01*
X48340887Y-40507853D01*
X48350191Y-40475412D01*
X48352585Y-40469991D01*
X48355500Y-40444865D01*
X48355499Y-38755136D01*
X48355183Y-38752409D01*
X48352586Y-38730012D01*
X48352585Y-38730010D01*
X48352585Y-38730009D01*
X48307206Y-38627235D01*
X48227765Y-38547794D01*
X48220475Y-38544575D01*
X48124992Y-38502415D01*
X48103960Y-38499975D01*
X48039636Y-38472695D01*
X48000272Y-38414969D01*
X47998366Y-38345125D01*
X48030569Y-38289122D01*
X54067680Y-32252013D01*
X54120407Y-32160688D01*
X54147700Y-32058827D01*
X54147700Y-31953373D01*
X54147700Y-31800098D01*
X54154217Y-31777901D01*
X54156247Y-31754859D01*
X54164839Y-31741727D01*
X54167385Y-31733059D01*
X54173669Y-31724165D01*
X54178472Y-31717963D01*
X54227720Y-31668716D01*
X54260216Y-31612430D01*
X54265369Y-31605778D01*
X54287135Y-31590035D01*
X54306579Y-31571496D01*
X54315018Y-31569869D01*
X54321983Y-31564832D01*
X54348806Y-31563356D01*
X54375186Y-31558272D01*
X54383166Y-31561466D01*
G37*
%TD.AperFunction*%
%TA.AperFunction,NonConductor*%
G36*
X46097539Y-38664185D02*
G01*
X46143294Y-38716989D01*
X46154500Y-38768500D01*
X46154500Y-40435803D01*
X46154500Y-40435807D01*
X46154501Y-40444864D01*
X46157415Y-40469991D01*
X46165154Y-40487519D01*
X46167825Y-40500481D01*
X46165993Y-40522642D01*
X46168881Y-40544693D01*
X46163172Y-40556787D01*
X46162071Y-40570113D01*
X46148550Y-40587764D01*
X46139057Y-40607878D01*
X46127715Y-40614966D01*
X46119585Y-40625581D01*
X46098665Y-40633121D01*
X46079807Y-40644908D01*
X46057448Y-40647979D01*
X46053856Y-40649274D01*
X46051668Y-40648772D01*
X46046375Y-40649500D01*
X42024000Y-40649500D01*
X41956961Y-40629815D01*
X41911206Y-40577011D01*
X41900000Y-40525500D01*
X41900000Y-38768500D01*
X41919685Y-38701461D01*
X41972489Y-38655706D01*
X42024000Y-38644500D01*
X46030500Y-38644500D01*
X46097539Y-38664185D01*
G37*
%TD.AperFunction*%
%TA.AperFunction,NonConductor*%
G36*
X38906630Y-39630253D02*
G01*
X38964863Y-39668863D01*
X38992473Y-39729321D01*
X39017829Y-39889410D01*
X39073787Y-40061636D01*
X39073788Y-40061639D01*
X39156006Y-40222997D01*
X39262441Y-40369494D01*
X39262445Y-40369499D01*
X39330765Y-40437819D01*
X39364250Y-40499142D01*
X39359266Y-40568834D01*
X39317394Y-40624767D01*
X39251930Y-40649184D01*
X39243084Y-40649500D01*
X38496916Y-40649500D01*
X38429877Y-40629815D01*
X38384122Y-40577011D01*
X38374178Y-40507853D01*
X38403203Y-40444297D01*
X38409235Y-40437819D01*
X38411251Y-40435803D01*
X38477553Y-40369501D01*
X38583996Y-40222994D01*
X38666211Y-40061639D01*
X38722171Y-39889409D01*
X38737902Y-39790089D01*
X38747527Y-39729321D01*
X38777456Y-39666186D01*
X38836768Y-39629255D01*
X38906630Y-39630253D01*
G37*
%TD.AperFunction*%
%TA.AperFunction,NonConductor*%
G36*
X36366630Y-39630253D02*
G01*
X36424863Y-39668863D01*
X36452473Y-39729321D01*
X36477829Y-39889410D01*
X36533787Y-40061636D01*
X36533788Y-40061639D01*
X36616006Y-40222997D01*
X36722441Y-40369494D01*
X36722445Y-40369499D01*
X36790765Y-40437819D01*
X36824250Y-40499142D01*
X36819266Y-40568834D01*
X36777394Y-40624767D01*
X36711930Y-40649184D01*
X36703084Y-40649500D01*
X35956916Y-40649500D01*
X35889877Y-40629815D01*
X35844122Y-40577011D01*
X35834178Y-40507853D01*
X35863203Y-40444297D01*
X35869235Y-40437819D01*
X35871251Y-40435803D01*
X35937553Y-40369501D01*
X36043996Y-40222994D01*
X36126211Y-40061639D01*
X36182171Y-39889409D01*
X36197902Y-39790089D01*
X36207527Y-39729321D01*
X36237456Y-39666186D01*
X36296768Y-39629255D01*
X36366630Y-39630253D01*
G37*
%TD.AperFunction*%
%TA.AperFunction,NonConductor*%
G36*
X33826630Y-39630253D02*
G01*
X33884863Y-39668863D01*
X33912473Y-39729321D01*
X33937829Y-39889410D01*
X33993787Y-40061636D01*
X33993788Y-40061639D01*
X34076006Y-40222997D01*
X34182441Y-40369494D01*
X34182445Y-40369499D01*
X34250765Y-40437819D01*
X34284250Y-40499142D01*
X34279266Y-40568834D01*
X34237394Y-40624767D01*
X34171930Y-40649184D01*
X34163084Y-40649500D01*
X33416916Y-40649500D01*
X33349877Y-40629815D01*
X33304122Y-40577011D01*
X33294178Y-40507853D01*
X33323203Y-40444297D01*
X33329235Y-40437819D01*
X33331251Y-40435803D01*
X33397553Y-40369501D01*
X33503996Y-40222994D01*
X33586211Y-40061639D01*
X33642171Y-39889409D01*
X33657902Y-39790089D01*
X33667527Y-39729321D01*
X33697456Y-39666186D01*
X33756768Y-39629255D01*
X33826630Y-39630253D01*
G37*
%TD.AperFunction*%
%TA.AperFunction,NonConductor*%
G36*
X31286630Y-39630253D02*
G01*
X31344863Y-39668863D01*
X31372473Y-39729321D01*
X31397829Y-39889410D01*
X31453787Y-40061636D01*
X31453788Y-40061639D01*
X31536006Y-40222997D01*
X31642441Y-40369494D01*
X31642445Y-40369499D01*
X31710765Y-40437819D01*
X31744250Y-40499142D01*
X31739266Y-40568834D01*
X31697394Y-40624767D01*
X31631930Y-40649184D01*
X31623084Y-40649500D01*
X30876916Y-40649500D01*
X30809877Y-40629815D01*
X30764122Y-40577011D01*
X30754178Y-40507853D01*
X30783203Y-40444297D01*
X30789235Y-40437819D01*
X30791251Y-40435803D01*
X30857553Y-40369501D01*
X30963996Y-40222994D01*
X31046211Y-40061639D01*
X31102171Y-39889409D01*
X31117902Y-39790089D01*
X31127527Y-39729321D01*
X31157456Y-39666186D01*
X31216768Y-39629255D01*
X31286630Y-39630253D01*
G37*
%TD.AperFunction*%
%TA.AperFunction,NonConductor*%
G36*
X28746630Y-39630253D02*
G01*
X28804863Y-39668863D01*
X28832473Y-39729321D01*
X28857829Y-39889410D01*
X28913787Y-40061636D01*
X28913788Y-40061639D01*
X28996006Y-40222997D01*
X29102441Y-40369494D01*
X29102445Y-40369499D01*
X29170765Y-40437819D01*
X29204250Y-40499142D01*
X29199266Y-40568834D01*
X29157394Y-40624767D01*
X29091930Y-40649184D01*
X29083084Y-40649500D01*
X28336916Y-40649500D01*
X28269877Y-40629815D01*
X28224122Y-40577011D01*
X28214178Y-40507853D01*
X28243203Y-40444297D01*
X28249235Y-40437819D01*
X28251251Y-40435803D01*
X28317553Y-40369501D01*
X28423996Y-40222994D01*
X28506211Y-40061639D01*
X28562171Y-39889409D01*
X28577902Y-39790089D01*
X28587527Y-39729321D01*
X28617456Y-39666186D01*
X28676768Y-39629255D01*
X28746630Y-39630253D01*
G37*
%TD.AperFunction*%
%TA.AperFunction,NonConductor*%
G36*
X26206630Y-39630253D02*
G01*
X26264863Y-39668863D01*
X26292473Y-39729321D01*
X26317829Y-39889410D01*
X26373787Y-40061636D01*
X26373788Y-40061639D01*
X26456006Y-40222997D01*
X26562441Y-40369494D01*
X26562445Y-40369499D01*
X26630765Y-40437819D01*
X26664250Y-40499142D01*
X26659266Y-40568834D01*
X26617394Y-40624767D01*
X26551930Y-40649184D01*
X26543084Y-40649500D01*
X25796916Y-40649500D01*
X25729877Y-40629815D01*
X25684122Y-40577011D01*
X25674178Y-40507853D01*
X25703203Y-40444297D01*
X25709235Y-40437819D01*
X25711251Y-40435803D01*
X25777553Y-40369501D01*
X25883996Y-40222994D01*
X25966211Y-40061639D01*
X26022171Y-39889409D01*
X26037902Y-39790089D01*
X26047527Y-39729321D01*
X26077456Y-39666186D01*
X26136768Y-39629255D01*
X26206630Y-39630253D01*
G37*
%TD.AperFunction*%
%TA.AperFunction,NonConductor*%
G36*
X23666630Y-39630253D02*
G01*
X23724863Y-39668863D01*
X23752473Y-39729321D01*
X23777829Y-39889410D01*
X23833787Y-40061636D01*
X23833788Y-40061639D01*
X23916006Y-40222997D01*
X24022441Y-40369494D01*
X24022445Y-40369499D01*
X24090765Y-40437819D01*
X24124250Y-40499142D01*
X24119266Y-40568834D01*
X24077394Y-40624767D01*
X24011930Y-40649184D01*
X24003084Y-40649500D01*
X23256916Y-40649500D01*
X23189877Y-40629815D01*
X23144122Y-40577011D01*
X23134178Y-40507853D01*
X23163203Y-40444297D01*
X23169235Y-40437819D01*
X23171251Y-40435803D01*
X23237553Y-40369501D01*
X23343996Y-40222994D01*
X23426211Y-40061639D01*
X23482171Y-39889409D01*
X23497902Y-39790089D01*
X23507527Y-39729321D01*
X23537456Y-39666186D01*
X23596768Y-39629255D01*
X23666630Y-39630253D01*
G37*
%TD.AperFunction*%
M02*
