%TF.GenerationSoftware,KiCad,Pcbnew,9.0.8+dfsg-1*%
%TF.CreationDate,2026-08-26T14:21:10+00:00*%
%TF.ProjectId,panasonic-p11-revG,70616e61-736f-46e6-9963-2d7031312d72,rev?*%
%TF.SameCoordinates,Original*%
%TF.FileFunction,Legend,Bot*%
%TF.FilePolarity,Positive*%
%FSLAX46Y46*%
G04 Gerber Fmt 4.6, Leading zero omitted, Abs format (unit mm)*
G04 Created by KiCad (PCBNEW 9.0.8+dfsg-1) date 2026-08-26 14:21:10*
%MOMM*%
%LPD*%
G01*
G04 APERTURE LIST*
%ADD10C,0.130000*%
G04 APERTURE END LIST*
D10*
X43785712Y-39970811D02*
X43785712Y-40456525D01*
X43785712Y-40456525D02*
X43814283Y-40513668D01*
X43814283Y-40513668D02*
X43842854Y-40542240D01*
X43842854Y-40542240D02*
X43899997Y-40570811D01*
X43899997Y-40570811D02*
X43985712Y-40570811D01*
X43985712Y-40570811D02*
X44042854Y-40542240D01*
X43785712Y-40342240D02*
X43842854Y-40370811D01*
X43842854Y-40370811D02*
X43957140Y-40370811D01*
X43957140Y-40370811D02*
X44014283Y-40342240D01*
X44014283Y-40342240D02*
X44042854Y-40313668D01*
X44042854Y-40313668D02*
X44071426Y-40256525D01*
X44071426Y-40256525D02*
X44071426Y-40085097D01*
X44071426Y-40085097D02*
X44042854Y-40027954D01*
X44042854Y-40027954D02*
X44014283Y-39999382D01*
X44014283Y-39999382D02*
X43957140Y-39970811D01*
X43957140Y-39970811D02*
X43842854Y-39970811D01*
X43842854Y-39970811D02*
X43785712Y-39999382D01*
X43499997Y-40370811D02*
X43499997Y-39970811D01*
X43499997Y-39770811D02*
X43528569Y-39799382D01*
X43528569Y-39799382D02*
X43499997Y-39827954D01*
X43499997Y-39827954D02*
X43471426Y-39799382D01*
X43471426Y-39799382D02*
X43499997Y-39770811D01*
X43499997Y-39770811D02*
X43499997Y-39827954D01*
X43299998Y-39970811D02*
X43071426Y-39970811D01*
X43214283Y-39770811D02*
X43214283Y-40285097D01*
X43214283Y-40285097D02*
X43185712Y-40342240D01*
X43185712Y-40342240D02*
X43128569Y-40370811D01*
X43128569Y-40370811D02*
X43071426Y-40370811D01*
X42871426Y-40370811D02*
X42871426Y-39770811D01*
X42614284Y-40370811D02*
X42614284Y-40056525D01*
X42614284Y-40056525D02*
X42642855Y-39999382D01*
X42642855Y-39999382D02*
X42699998Y-39970811D01*
X42699998Y-39970811D02*
X42785712Y-39970811D01*
X42785712Y-39970811D02*
X42842855Y-39999382D01*
X42842855Y-39999382D02*
X42871426Y-40027954D01*
X42071427Y-39970811D02*
X42071427Y-40370811D01*
X42328569Y-39970811D02*
X42328569Y-40285097D01*
X42328569Y-40285097D02*
X42299998Y-40342240D01*
X42299998Y-40342240D02*
X42242855Y-40370811D01*
X42242855Y-40370811D02*
X42157141Y-40370811D01*
X42157141Y-40370811D02*
X42099998Y-40342240D01*
X42099998Y-40342240D02*
X42071427Y-40313668D01*
X41785712Y-40370811D02*
X41785712Y-39770811D01*
X41785712Y-39999382D02*
X41728570Y-39970811D01*
X41728570Y-39970811D02*
X41614284Y-39970811D01*
X41614284Y-39970811D02*
X41557141Y-39999382D01*
X41557141Y-39999382D02*
X41528570Y-40027954D01*
X41528570Y-40027954D02*
X41499998Y-40085097D01*
X41499998Y-40085097D02*
X41499998Y-40256525D01*
X41499998Y-40256525D02*
X41528570Y-40313668D01*
X41528570Y-40313668D02*
X41557141Y-40342240D01*
X41557141Y-40342240D02*
X41614284Y-40370811D01*
X41614284Y-40370811D02*
X41728570Y-40370811D01*
X41728570Y-40370811D02*
X41785712Y-40342240D01*
X41242855Y-40313668D02*
X41214284Y-40342240D01*
X41214284Y-40342240D02*
X41242855Y-40370811D01*
X41242855Y-40370811D02*
X41271427Y-40342240D01*
X41271427Y-40342240D02*
X41242855Y-40313668D01*
X41242855Y-40313668D02*
X41242855Y-40370811D01*
X40699999Y-40342240D02*
X40757141Y-40370811D01*
X40757141Y-40370811D02*
X40871427Y-40370811D01*
X40871427Y-40370811D02*
X40928570Y-40342240D01*
X40928570Y-40342240D02*
X40957141Y-40313668D01*
X40957141Y-40313668D02*
X40985713Y-40256525D01*
X40985713Y-40256525D02*
X40985713Y-40085097D01*
X40985713Y-40085097D02*
X40957141Y-40027954D01*
X40957141Y-40027954D02*
X40928570Y-39999382D01*
X40928570Y-39999382D02*
X40871427Y-39970811D01*
X40871427Y-39970811D02*
X40757141Y-39970811D01*
X40757141Y-39970811D02*
X40699999Y-39999382D01*
X40357141Y-40370811D02*
X40414284Y-40342240D01*
X40414284Y-40342240D02*
X40442855Y-40313668D01*
X40442855Y-40313668D02*
X40471427Y-40256525D01*
X40471427Y-40256525D02*
X40471427Y-40085097D01*
X40471427Y-40085097D02*
X40442855Y-40027954D01*
X40442855Y-40027954D02*
X40414284Y-39999382D01*
X40414284Y-39999382D02*
X40357141Y-39970811D01*
X40357141Y-39970811D02*
X40271427Y-39970811D01*
X40271427Y-39970811D02*
X40214284Y-39999382D01*
X40214284Y-39999382D02*
X40185713Y-40027954D01*
X40185713Y-40027954D02*
X40157141Y-40085097D01*
X40157141Y-40085097D02*
X40157141Y-40256525D01*
X40157141Y-40256525D02*
X40185713Y-40313668D01*
X40185713Y-40313668D02*
X40214284Y-40342240D01*
X40214284Y-40342240D02*
X40271427Y-40370811D01*
X40271427Y-40370811D02*
X40357141Y-40370811D01*
X39899998Y-40370811D02*
X39899998Y-39970811D01*
X39899998Y-40027954D02*
X39871427Y-39999382D01*
X39871427Y-39999382D02*
X39814284Y-39970811D01*
X39814284Y-39970811D02*
X39728570Y-39970811D01*
X39728570Y-39970811D02*
X39671427Y-39999382D01*
X39671427Y-39999382D02*
X39642856Y-40056525D01*
X39642856Y-40056525D02*
X39642856Y-40370811D01*
X39642856Y-40056525D02*
X39614284Y-39999382D01*
X39614284Y-39999382D02*
X39557141Y-39970811D01*
X39557141Y-39970811D02*
X39471427Y-39970811D01*
X39471427Y-39970811D02*
X39414284Y-39999382D01*
X39414284Y-39999382D02*
X39385713Y-40056525D01*
X39385713Y-40056525D02*
X39385713Y-40370811D01*
X38671427Y-39742240D02*
X39185713Y-40513668D01*
X38471427Y-40370811D02*
X38471427Y-39770811D01*
X38471427Y-39999382D02*
X38414285Y-39970811D01*
X38414285Y-39970811D02*
X38299999Y-39970811D01*
X38299999Y-39970811D02*
X38242856Y-39999382D01*
X38242856Y-39999382D02*
X38214285Y-40027954D01*
X38214285Y-40027954D02*
X38185713Y-40085097D01*
X38185713Y-40085097D02*
X38185713Y-40256525D01*
X38185713Y-40256525D02*
X38214285Y-40313668D01*
X38214285Y-40313668D02*
X38242856Y-40342240D01*
X38242856Y-40342240D02*
X38299999Y-40370811D01*
X38299999Y-40370811D02*
X38414285Y-40370811D01*
X38414285Y-40370811D02*
X38471427Y-40342240D01*
X37842856Y-40370811D02*
X37899999Y-40342240D01*
X37899999Y-40342240D02*
X37928570Y-40285097D01*
X37928570Y-40285097D02*
X37928570Y-39770811D01*
X37499999Y-39770811D02*
X37442856Y-39770811D01*
X37442856Y-39770811D02*
X37385713Y-39799382D01*
X37385713Y-39799382D02*
X37357142Y-39827954D01*
X37357142Y-39827954D02*
X37328570Y-39885097D01*
X37328570Y-39885097D02*
X37299999Y-39999382D01*
X37299999Y-39999382D02*
X37299999Y-40142240D01*
X37299999Y-40142240D02*
X37328570Y-40256525D01*
X37328570Y-40256525D02*
X37357142Y-40313668D01*
X37357142Y-40313668D02*
X37385713Y-40342240D01*
X37385713Y-40342240D02*
X37442856Y-40370811D01*
X37442856Y-40370811D02*
X37499999Y-40370811D01*
X37499999Y-40370811D02*
X37557142Y-40342240D01*
X37557142Y-40342240D02*
X37585713Y-40313668D01*
X37585713Y-40313668D02*
X37614284Y-40256525D01*
X37614284Y-40256525D02*
X37642856Y-40142240D01*
X37642856Y-40142240D02*
X37642856Y-39999382D01*
X37642856Y-39999382D02*
X37614284Y-39885097D01*
X37614284Y-39885097D02*
X37585713Y-39827954D01*
X37585713Y-39827954D02*
X37557142Y-39799382D01*
X37557142Y-39799382D02*
X37499999Y-39770811D01*
X36785713Y-40342240D02*
X36842855Y-40370811D01*
X36842855Y-40370811D02*
X36957141Y-40370811D01*
X36957141Y-40370811D02*
X37014284Y-40342240D01*
X37014284Y-40342240D02*
X37042855Y-40313668D01*
X37042855Y-40313668D02*
X37071427Y-40256525D01*
X37071427Y-40256525D02*
X37071427Y-40085097D01*
X37071427Y-40085097D02*
X37042855Y-40027954D01*
X37042855Y-40027954D02*
X37014284Y-39999382D01*
X37014284Y-39999382D02*
X36957141Y-39970811D01*
X36957141Y-39970811D02*
X36842855Y-39970811D01*
X36842855Y-39970811D02*
X36785713Y-39999382D01*
X36528569Y-40370811D02*
X36528569Y-39770811D01*
X36471427Y-40142240D02*
X36299998Y-40370811D01*
X36299998Y-39970811D02*
X36528569Y-40199382D01*
X36071427Y-40342240D02*
X36014284Y-40370811D01*
X36014284Y-40370811D02*
X35899998Y-40370811D01*
X35899998Y-40370811D02*
X35842855Y-40342240D01*
X35842855Y-40342240D02*
X35814284Y-40285097D01*
X35814284Y-40285097D02*
X35814284Y-40256525D01*
X35814284Y-40256525D02*
X35842855Y-40199382D01*
X35842855Y-40199382D02*
X35899998Y-40170811D01*
X35899998Y-40170811D02*
X35985713Y-40170811D01*
X35985713Y-40170811D02*
X36042855Y-40142240D01*
X36042855Y-40142240D02*
X36071427Y-40085097D01*
X36071427Y-40085097D02*
X36071427Y-40056525D01*
X36071427Y-40056525D02*
X36042855Y-39999382D01*
X36042855Y-39999382D02*
X35985713Y-39970811D01*
X35985713Y-39970811D02*
X35899998Y-39970811D01*
X35899998Y-39970811D02*
X35842855Y-39999382D01*
X35642856Y-39970811D02*
X35414284Y-39970811D01*
X35557141Y-39770811D02*
X35557141Y-40285097D01*
X35557141Y-40285097D02*
X35528570Y-40342240D01*
X35528570Y-40342240D02*
X35471427Y-40370811D01*
X35471427Y-40370811D02*
X35414284Y-40370811D01*
X34957142Y-40370811D02*
X34957142Y-40056525D01*
X34957142Y-40056525D02*
X34985713Y-39999382D01*
X34985713Y-39999382D02*
X35042856Y-39970811D01*
X35042856Y-39970811D02*
X35157142Y-39970811D01*
X35157142Y-39970811D02*
X35214284Y-39999382D01*
X34957142Y-40342240D02*
X35014284Y-40370811D01*
X35014284Y-40370811D02*
X35157142Y-40370811D01*
X35157142Y-40370811D02*
X35214284Y-40342240D01*
X35214284Y-40342240D02*
X35242856Y-40285097D01*
X35242856Y-40285097D02*
X35242856Y-40227954D01*
X35242856Y-40227954D02*
X35214284Y-40170811D01*
X35214284Y-40170811D02*
X35157142Y-40142240D01*
X35157142Y-40142240D02*
X35014284Y-40142240D01*
X35014284Y-40142240D02*
X34957142Y-40113668D01*
X34757142Y-39970811D02*
X34528570Y-39970811D01*
X34671427Y-39770811D02*
X34671427Y-40285097D01*
X34671427Y-40285097D02*
X34642856Y-40342240D01*
X34642856Y-40342240D02*
X34585713Y-40370811D01*
X34585713Y-40370811D02*
X34528570Y-40370811D01*
X33899999Y-39742240D02*
X34414285Y-40513668D01*
X33471428Y-40342240D02*
X33528571Y-40370811D01*
X33528571Y-40370811D02*
X33642857Y-40370811D01*
X33642857Y-40370811D02*
X33699999Y-40342240D01*
X33699999Y-40342240D02*
X33728571Y-40285097D01*
X33728571Y-40285097D02*
X33728571Y-40056525D01*
X33728571Y-40056525D02*
X33699999Y-39999382D01*
X33699999Y-39999382D02*
X33642857Y-39970811D01*
X33642857Y-39970811D02*
X33528571Y-39970811D01*
X33528571Y-39970811D02*
X33471428Y-39999382D01*
X33471428Y-39999382D02*
X33442857Y-40056525D01*
X33442857Y-40056525D02*
X33442857Y-40113668D01*
X33442857Y-40113668D02*
X33728571Y-40170811D01*
X33214285Y-40342240D02*
X33157142Y-40370811D01*
X33157142Y-40370811D02*
X33042856Y-40370811D01*
X33042856Y-40370811D02*
X32985713Y-40342240D01*
X32985713Y-40342240D02*
X32957142Y-40285097D01*
X32957142Y-40285097D02*
X32957142Y-40256525D01*
X32957142Y-40256525D02*
X32985713Y-40199382D01*
X32985713Y-40199382D02*
X33042856Y-40170811D01*
X33042856Y-40170811D02*
X33128571Y-40170811D01*
X33128571Y-40170811D02*
X33185713Y-40142240D01*
X33185713Y-40142240D02*
X33214285Y-40085097D01*
X33214285Y-40085097D02*
X33214285Y-40056525D01*
X33214285Y-40056525D02*
X33185713Y-39999382D01*
X33185713Y-39999382D02*
X33128571Y-39970811D01*
X33128571Y-39970811D02*
X33042856Y-39970811D01*
X33042856Y-39970811D02*
X32985713Y-39999382D01*
X32699999Y-39970811D02*
X32699999Y-40570811D01*
X32699999Y-39999382D02*
X32642857Y-39970811D01*
X32642857Y-39970811D02*
X32528571Y-39970811D01*
X32528571Y-39970811D02*
X32471428Y-39999382D01*
X32471428Y-39999382D02*
X32442857Y-40027954D01*
X32442857Y-40027954D02*
X32414285Y-40085097D01*
X32414285Y-40085097D02*
X32414285Y-40256525D01*
X32414285Y-40256525D02*
X32442857Y-40313668D01*
X32442857Y-40313668D02*
X32471428Y-40342240D01*
X32471428Y-40342240D02*
X32528571Y-40370811D01*
X32528571Y-40370811D02*
X32642857Y-40370811D01*
X32642857Y-40370811D02*
X32699999Y-40342240D01*
X32157142Y-40370811D02*
X32157142Y-39770811D01*
X31900000Y-40370811D02*
X31900000Y-40056525D01*
X31900000Y-40056525D02*
X31928571Y-39999382D01*
X31928571Y-39999382D02*
X31985714Y-39970811D01*
X31985714Y-39970811D02*
X32071428Y-39970811D01*
X32071428Y-39970811D02*
X32128571Y-39999382D01*
X32128571Y-39999382D02*
X32157142Y-40027954D01*
X31528571Y-40370811D02*
X31585714Y-40342240D01*
X31585714Y-40342240D02*
X31614285Y-40313668D01*
X31614285Y-40313668D02*
X31642857Y-40256525D01*
X31642857Y-40256525D02*
X31642857Y-40085097D01*
X31642857Y-40085097D02*
X31614285Y-40027954D01*
X31614285Y-40027954D02*
X31585714Y-39999382D01*
X31585714Y-39999382D02*
X31528571Y-39970811D01*
X31528571Y-39970811D02*
X31442857Y-39970811D01*
X31442857Y-39970811D02*
X31385714Y-39999382D01*
X31385714Y-39999382D02*
X31357143Y-40027954D01*
X31357143Y-40027954D02*
X31328571Y-40085097D01*
X31328571Y-40085097D02*
X31328571Y-40256525D01*
X31328571Y-40256525D02*
X31357143Y-40313668D01*
X31357143Y-40313668D02*
X31385714Y-40342240D01*
X31385714Y-40342240D02*
X31442857Y-40370811D01*
X31442857Y-40370811D02*
X31528571Y-40370811D01*
X31071428Y-40370811D02*
X31071428Y-39970811D01*
X31071428Y-40027954D02*
X31042857Y-39999382D01*
X31042857Y-39999382D02*
X30985714Y-39970811D01*
X30985714Y-39970811D02*
X30900000Y-39970811D01*
X30900000Y-39970811D02*
X30842857Y-39999382D01*
X30842857Y-39999382D02*
X30814286Y-40056525D01*
X30814286Y-40056525D02*
X30814286Y-40370811D01*
X30814286Y-40056525D02*
X30785714Y-39999382D01*
X30785714Y-39999382D02*
X30728571Y-39970811D01*
X30728571Y-39970811D02*
X30642857Y-39970811D01*
X30642857Y-39970811D02*
X30585714Y-39999382D01*
X30585714Y-39999382D02*
X30557143Y-40056525D01*
X30557143Y-40056525D02*
X30557143Y-40370811D01*
X30042857Y-40342240D02*
X30100000Y-40370811D01*
X30100000Y-40370811D02*
X30214286Y-40370811D01*
X30214286Y-40370811D02*
X30271428Y-40342240D01*
X30271428Y-40342240D02*
X30300000Y-40285097D01*
X30300000Y-40285097D02*
X30300000Y-40056525D01*
X30300000Y-40056525D02*
X30271428Y-39999382D01*
X30271428Y-39999382D02*
X30214286Y-39970811D01*
X30214286Y-39970811D02*
X30100000Y-39970811D01*
X30100000Y-39970811D02*
X30042857Y-39999382D01*
X30042857Y-39999382D02*
X30014286Y-40056525D01*
X30014286Y-40056525D02*
X30014286Y-40113668D01*
X30014286Y-40113668D02*
X30300000Y-40170811D01*
X29757142Y-40142240D02*
X29300000Y-40142240D01*
X29014285Y-39970811D02*
X29014285Y-40570811D01*
X29014285Y-39999382D02*
X28957143Y-39970811D01*
X28957143Y-39970811D02*
X28842857Y-39970811D01*
X28842857Y-39970811D02*
X28785714Y-39999382D01*
X28785714Y-39999382D02*
X28757143Y-40027954D01*
X28757143Y-40027954D02*
X28728571Y-40085097D01*
X28728571Y-40085097D02*
X28728571Y-40256525D01*
X28728571Y-40256525D02*
X28757143Y-40313668D01*
X28757143Y-40313668D02*
X28785714Y-40342240D01*
X28785714Y-40342240D02*
X28842857Y-40370811D01*
X28842857Y-40370811D02*
X28957143Y-40370811D01*
X28957143Y-40370811D02*
X29014285Y-40342240D01*
X28214286Y-40370811D02*
X28214286Y-40056525D01*
X28214286Y-40056525D02*
X28242857Y-39999382D01*
X28242857Y-39999382D02*
X28300000Y-39970811D01*
X28300000Y-39970811D02*
X28414286Y-39970811D01*
X28414286Y-39970811D02*
X28471428Y-39999382D01*
X28214286Y-40342240D02*
X28271428Y-40370811D01*
X28271428Y-40370811D02*
X28414286Y-40370811D01*
X28414286Y-40370811D02*
X28471428Y-40342240D01*
X28471428Y-40342240D02*
X28500000Y-40285097D01*
X28500000Y-40285097D02*
X28500000Y-40227954D01*
X28500000Y-40227954D02*
X28471428Y-40170811D01*
X28471428Y-40170811D02*
X28414286Y-40142240D01*
X28414286Y-40142240D02*
X28271428Y-40142240D01*
X28271428Y-40142240D02*
X28214286Y-40113668D01*
X27928571Y-39970811D02*
X27928571Y-40370811D01*
X27928571Y-40027954D02*
X27900000Y-39999382D01*
X27900000Y-39999382D02*
X27842857Y-39970811D01*
X27842857Y-39970811D02*
X27757143Y-39970811D01*
X27757143Y-39970811D02*
X27700000Y-39999382D01*
X27700000Y-39999382D02*
X27671429Y-40056525D01*
X27671429Y-40056525D02*
X27671429Y-40370811D01*
X27128572Y-40370811D02*
X27128572Y-40056525D01*
X27128572Y-40056525D02*
X27157143Y-39999382D01*
X27157143Y-39999382D02*
X27214286Y-39970811D01*
X27214286Y-39970811D02*
X27328572Y-39970811D01*
X27328572Y-39970811D02*
X27385714Y-39999382D01*
X27128572Y-40342240D02*
X27185714Y-40370811D01*
X27185714Y-40370811D02*
X27328572Y-40370811D01*
X27328572Y-40370811D02*
X27385714Y-40342240D01*
X27385714Y-40342240D02*
X27414286Y-40285097D01*
X27414286Y-40285097D02*
X27414286Y-40227954D01*
X27414286Y-40227954D02*
X27385714Y-40170811D01*
X27385714Y-40170811D02*
X27328572Y-40142240D01*
X27328572Y-40142240D02*
X27185714Y-40142240D01*
X27185714Y-40142240D02*
X27128572Y-40113668D01*
X26871429Y-40342240D02*
X26814286Y-40370811D01*
X26814286Y-40370811D02*
X26700000Y-40370811D01*
X26700000Y-40370811D02*
X26642857Y-40342240D01*
X26642857Y-40342240D02*
X26614286Y-40285097D01*
X26614286Y-40285097D02*
X26614286Y-40256525D01*
X26614286Y-40256525D02*
X26642857Y-40199382D01*
X26642857Y-40199382D02*
X26700000Y-40170811D01*
X26700000Y-40170811D02*
X26785715Y-40170811D01*
X26785715Y-40170811D02*
X26842857Y-40142240D01*
X26842857Y-40142240D02*
X26871429Y-40085097D01*
X26871429Y-40085097D02*
X26871429Y-40056525D01*
X26871429Y-40056525D02*
X26842857Y-39999382D01*
X26842857Y-39999382D02*
X26785715Y-39970811D01*
X26785715Y-39970811D02*
X26700000Y-39970811D01*
X26700000Y-39970811D02*
X26642857Y-39999382D01*
X26271429Y-40370811D02*
X26328572Y-40342240D01*
X26328572Y-40342240D02*
X26357143Y-40313668D01*
X26357143Y-40313668D02*
X26385715Y-40256525D01*
X26385715Y-40256525D02*
X26385715Y-40085097D01*
X26385715Y-40085097D02*
X26357143Y-40027954D01*
X26357143Y-40027954D02*
X26328572Y-39999382D01*
X26328572Y-39999382D02*
X26271429Y-39970811D01*
X26271429Y-39970811D02*
X26185715Y-39970811D01*
X26185715Y-39970811D02*
X26128572Y-39999382D01*
X26128572Y-39999382D02*
X26100001Y-40027954D01*
X26100001Y-40027954D02*
X26071429Y-40085097D01*
X26071429Y-40085097D02*
X26071429Y-40256525D01*
X26071429Y-40256525D02*
X26100001Y-40313668D01*
X26100001Y-40313668D02*
X26128572Y-40342240D01*
X26128572Y-40342240D02*
X26185715Y-40370811D01*
X26185715Y-40370811D02*
X26271429Y-40370811D01*
X25814286Y-39970811D02*
X25814286Y-40370811D01*
X25814286Y-40027954D02*
X25785715Y-39999382D01*
X25785715Y-39999382D02*
X25728572Y-39970811D01*
X25728572Y-39970811D02*
X25642858Y-39970811D01*
X25642858Y-39970811D02*
X25585715Y-39999382D01*
X25585715Y-39999382D02*
X25557144Y-40056525D01*
X25557144Y-40056525D02*
X25557144Y-40370811D01*
X25271429Y-40370811D02*
X25271429Y-39970811D01*
X25271429Y-39770811D02*
X25300001Y-39799382D01*
X25300001Y-39799382D02*
X25271429Y-39827954D01*
X25271429Y-39827954D02*
X25242858Y-39799382D01*
X25242858Y-39799382D02*
X25271429Y-39770811D01*
X25271429Y-39770811D02*
X25271429Y-39827954D01*
X24728573Y-40342240D02*
X24785715Y-40370811D01*
X24785715Y-40370811D02*
X24900001Y-40370811D01*
X24900001Y-40370811D02*
X24957144Y-40342240D01*
X24957144Y-40342240D02*
X24985715Y-40313668D01*
X24985715Y-40313668D02*
X25014287Y-40256525D01*
X25014287Y-40256525D02*
X25014287Y-40085097D01*
X25014287Y-40085097D02*
X24985715Y-40027954D01*
X24985715Y-40027954D02*
X24957144Y-39999382D01*
X24957144Y-39999382D02*
X24900001Y-39970811D01*
X24900001Y-39970811D02*
X24785715Y-39970811D01*
X24785715Y-39970811D02*
X24728573Y-39999382D01*
X24471429Y-40142240D02*
X24014287Y-40142240D01*
X23471430Y-40370811D02*
X23471430Y-40056525D01*
X23471430Y-40056525D02*
X23500001Y-39999382D01*
X23500001Y-39999382D02*
X23557144Y-39970811D01*
X23557144Y-39970811D02*
X23671430Y-39970811D01*
X23671430Y-39970811D02*
X23728572Y-39999382D01*
X23471430Y-40342240D02*
X23528572Y-40370811D01*
X23528572Y-40370811D02*
X23671430Y-40370811D01*
X23671430Y-40370811D02*
X23728572Y-40342240D01*
X23728572Y-40342240D02*
X23757144Y-40285097D01*
X23757144Y-40285097D02*
X23757144Y-40227954D01*
X23757144Y-40227954D02*
X23728572Y-40170811D01*
X23728572Y-40170811D02*
X23671430Y-40142240D01*
X23671430Y-40142240D02*
X23528572Y-40142240D01*
X23528572Y-40142240D02*
X23471430Y-40113668D01*
X22928573Y-40342240D02*
X22985715Y-40370811D01*
X22985715Y-40370811D02*
X23100001Y-40370811D01*
X23100001Y-40370811D02*
X23157144Y-40342240D01*
X23157144Y-40342240D02*
X23185715Y-40313668D01*
X23185715Y-40313668D02*
X23214287Y-40256525D01*
X23214287Y-40256525D02*
X23214287Y-40085097D01*
X23214287Y-40085097D02*
X23185715Y-40027954D01*
X23185715Y-40027954D02*
X23157144Y-39999382D01*
X23157144Y-39999382D02*
X23100001Y-39970811D01*
X23100001Y-39970811D02*
X22985715Y-39970811D01*
X22985715Y-39970811D02*
X22928573Y-39999382D01*
X37969048Y-27593942D02*
X37969048Y-26943942D01*
X37969048Y-26943942D02*
X37752381Y-27408228D01*
X37752381Y-27408228D02*
X37535714Y-26943942D01*
X37535714Y-26943942D02*
X37535714Y-27593942D01*
X36854762Y-27532037D02*
X36885714Y-27562990D01*
X36885714Y-27562990D02*
X36978572Y-27593942D01*
X36978572Y-27593942D02*
X37040476Y-27593942D01*
X37040476Y-27593942D02*
X37133333Y-27562990D01*
X37133333Y-27562990D02*
X37195238Y-27501085D01*
X37195238Y-27501085D02*
X37226191Y-27439180D01*
X37226191Y-27439180D02*
X37257143Y-27315370D01*
X37257143Y-27315370D02*
X37257143Y-27222513D01*
X37257143Y-27222513D02*
X37226191Y-27098704D01*
X37226191Y-27098704D02*
X37195238Y-27036799D01*
X37195238Y-27036799D02*
X37133333Y-26974894D01*
X37133333Y-26974894D02*
X37040476Y-26943942D01*
X37040476Y-26943942D02*
X36978572Y-26943942D01*
X36978572Y-26943942D02*
X36885714Y-26974894D01*
X36885714Y-26974894D02*
X36854762Y-27005847D01*
X36576191Y-26943942D02*
X36576191Y-27470132D01*
X36576191Y-27470132D02*
X36545238Y-27532037D01*
X36545238Y-27532037D02*
X36514286Y-27562990D01*
X36514286Y-27562990D02*
X36452381Y-27593942D01*
X36452381Y-27593942D02*
X36328572Y-27593942D01*
X36328572Y-27593942D02*
X36266667Y-27562990D01*
X36266667Y-27562990D02*
X36235714Y-27532037D01*
X36235714Y-27532037D02*
X36204762Y-27470132D01*
X36204762Y-27470132D02*
X36204762Y-26943942D01*
X35895239Y-27532037D02*
X35864286Y-27562990D01*
X35864286Y-27562990D02*
X35895239Y-27593942D01*
X35895239Y-27593942D02*
X35926191Y-27562990D01*
X35926191Y-27562990D02*
X35895239Y-27532037D01*
X35895239Y-27532037D02*
X35895239Y-27593942D01*
X35895239Y-27191561D02*
X35864286Y-27222513D01*
X35864286Y-27222513D02*
X35895239Y-27253466D01*
X35895239Y-27253466D02*
X35926191Y-27222513D01*
X35926191Y-27222513D02*
X35895239Y-27191561D01*
X35895239Y-27191561D02*
X35895239Y-27253466D01*
X35090477Y-27253466D02*
X34873810Y-27253466D01*
X34780953Y-27593942D02*
X35090477Y-27593942D01*
X35090477Y-27593942D02*
X35090477Y-26943942D01*
X35090477Y-26943942D02*
X34780953Y-26943942D01*
X34533334Y-27562990D02*
X34440477Y-27593942D01*
X34440477Y-27593942D02*
X34285715Y-27593942D01*
X34285715Y-27593942D02*
X34223810Y-27562990D01*
X34223810Y-27562990D02*
X34192858Y-27532037D01*
X34192858Y-27532037D02*
X34161905Y-27470132D01*
X34161905Y-27470132D02*
X34161905Y-27408228D01*
X34161905Y-27408228D02*
X34192858Y-27346323D01*
X34192858Y-27346323D02*
X34223810Y-27315370D01*
X34223810Y-27315370D02*
X34285715Y-27284418D01*
X34285715Y-27284418D02*
X34409524Y-27253466D01*
X34409524Y-27253466D02*
X34471429Y-27222513D01*
X34471429Y-27222513D02*
X34502382Y-27191561D01*
X34502382Y-27191561D02*
X34533334Y-27129656D01*
X34533334Y-27129656D02*
X34533334Y-27067751D01*
X34533334Y-27067751D02*
X34502382Y-27005847D01*
X34502382Y-27005847D02*
X34471429Y-26974894D01*
X34471429Y-26974894D02*
X34409524Y-26943942D01*
X34409524Y-26943942D02*
X34254763Y-26943942D01*
X34254763Y-26943942D02*
X34161905Y-26974894D01*
X33883334Y-27593942D02*
X33883334Y-26943942D01*
X33883334Y-26943942D02*
X33635715Y-26943942D01*
X33635715Y-26943942D02*
X33573810Y-26974894D01*
X33573810Y-26974894D02*
X33542857Y-27005847D01*
X33542857Y-27005847D02*
X33511905Y-27067751D01*
X33511905Y-27067751D02*
X33511905Y-27160609D01*
X33511905Y-27160609D02*
X33542857Y-27222513D01*
X33542857Y-27222513D02*
X33573810Y-27253466D01*
X33573810Y-27253466D02*
X33635715Y-27284418D01*
X33635715Y-27284418D02*
X33883334Y-27284418D01*
X33295238Y-26943942D02*
X32892857Y-26943942D01*
X32892857Y-26943942D02*
X33109524Y-27191561D01*
X33109524Y-27191561D02*
X33016667Y-27191561D01*
X33016667Y-27191561D02*
X32954762Y-27222513D01*
X32954762Y-27222513D02*
X32923810Y-27253466D01*
X32923810Y-27253466D02*
X32892857Y-27315370D01*
X32892857Y-27315370D02*
X32892857Y-27470132D01*
X32892857Y-27470132D02*
X32923810Y-27532037D01*
X32923810Y-27532037D02*
X32954762Y-27562990D01*
X32954762Y-27562990D02*
X33016667Y-27593942D01*
X33016667Y-27593942D02*
X33202381Y-27593942D01*
X33202381Y-27593942D02*
X33264286Y-27562990D01*
X33264286Y-27562990D02*
X33295238Y-27532037D01*
X32645238Y-27005847D02*
X32614286Y-26974894D01*
X32614286Y-26974894D02*
X32552381Y-26943942D01*
X32552381Y-26943942D02*
X32397619Y-26943942D01*
X32397619Y-26943942D02*
X32335714Y-26974894D01*
X32335714Y-26974894D02*
X32304762Y-27005847D01*
X32304762Y-27005847D02*
X32273809Y-27067751D01*
X32273809Y-27067751D02*
X32273809Y-27129656D01*
X32273809Y-27129656D02*
X32304762Y-27222513D01*
X32304762Y-27222513D02*
X32676190Y-27593942D01*
X32676190Y-27593942D02*
X32273809Y-27593942D01*
X31995238Y-27346323D02*
X31500000Y-27346323D01*
X30819047Y-27532037D02*
X30849999Y-27562990D01*
X30849999Y-27562990D02*
X30942857Y-27593942D01*
X30942857Y-27593942D02*
X31004761Y-27593942D01*
X31004761Y-27593942D02*
X31097618Y-27562990D01*
X31097618Y-27562990D02*
X31159523Y-27501085D01*
X31159523Y-27501085D02*
X31190476Y-27439180D01*
X31190476Y-27439180D02*
X31221428Y-27315370D01*
X31221428Y-27315370D02*
X31221428Y-27222513D01*
X31221428Y-27222513D02*
X31190476Y-27098704D01*
X31190476Y-27098704D02*
X31159523Y-27036799D01*
X31159523Y-27036799D02*
X31097618Y-26974894D01*
X31097618Y-26974894D02*
X31004761Y-26943942D01*
X31004761Y-26943942D02*
X30942857Y-26943942D01*
X30942857Y-26943942D02*
X30849999Y-26974894D01*
X30849999Y-26974894D02*
X30819047Y-27005847D01*
X30602380Y-26943942D02*
X30199999Y-26943942D01*
X30199999Y-26943942D02*
X30416666Y-27191561D01*
X30416666Y-27191561D02*
X30323809Y-27191561D01*
X30323809Y-27191561D02*
X30261904Y-27222513D01*
X30261904Y-27222513D02*
X30230952Y-27253466D01*
X30230952Y-27253466D02*
X30199999Y-27315370D01*
X30199999Y-27315370D02*
X30199999Y-27470132D01*
X30199999Y-27470132D02*
X30230952Y-27532037D01*
X30230952Y-27532037D02*
X30261904Y-27562990D01*
X30261904Y-27562990D02*
X30323809Y-27593942D01*
X30323809Y-27593942D02*
X30509523Y-27593942D01*
X30509523Y-27593942D02*
X30571428Y-27562990D01*
X30571428Y-27562990D02*
X30602380Y-27532037D01*
X29457142Y-27562990D02*
X29364285Y-27593942D01*
X29364285Y-27593942D02*
X29209523Y-27593942D01*
X29209523Y-27593942D02*
X29147618Y-27562990D01*
X29147618Y-27562990D02*
X29116666Y-27532037D01*
X29116666Y-27532037D02*
X29085713Y-27470132D01*
X29085713Y-27470132D02*
X29085713Y-27408228D01*
X29085713Y-27408228D02*
X29116666Y-27346323D01*
X29116666Y-27346323D02*
X29147618Y-27315370D01*
X29147618Y-27315370D02*
X29209523Y-27284418D01*
X29209523Y-27284418D02*
X29333332Y-27253466D01*
X29333332Y-27253466D02*
X29395237Y-27222513D01*
X29395237Y-27222513D02*
X29426190Y-27191561D01*
X29426190Y-27191561D02*
X29457142Y-27129656D01*
X29457142Y-27129656D02*
X29457142Y-27067751D01*
X29457142Y-27067751D02*
X29426190Y-27005847D01*
X29426190Y-27005847D02*
X29395237Y-26974894D01*
X29395237Y-26974894D02*
X29333332Y-26943942D01*
X29333332Y-26943942D02*
X29178571Y-26943942D01*
X29178571Y-26943942D02*
X29085713Y-26974894D01*
X28528570Y-27160609D02*
X28528570Y-27593942D01*
X28807142Y-27160609D02*
X28807142Y-27501085D01*
X28807142Y-27501085D02*
X28776189Y-27562990D01*
X28776189Y-27562990D02*
X28714284Y-27593942D01*
X28714284Y-27593942D02*
X28621427Y-27593942D01*
X28621427Y-27593942D02*
X28559523Y-27562990D01*
X28559523Y-27562990D02*
X28528570Y-27532037D01*
X28219047Y-27160609D02*
X28219047Y-27810609D01*
X28219047Y-27191561D02*
X28157142Y-27160609D01*
X28157142Y-27160609D02*
X28033332Y-27160609D01*
X28033332Y-27160609D02*
X27971428Y-27191561D01*
X27971428Y-27191561D02*
X27940475Y-27222513D01*
X27940475Y-27222513D02*
X27909523Y-27284418D01*
X27909523Y-27284418D02*
X27909523Y-27470132D01*
X27909523Y-27470132D02*
X27940475Y-27532037D01*
X27940475Y-27532037D02*
X27971428Y-27562990D01*
X27971428Y-27562990D02*
X28033332Y-27593942D01*
X28033332Y-27593942D02*
X28157142Y-27593942D01*
X28157142Y-27593942D02*
X28219047Y-27562990D01*
X27383333Y-27562990D02*
X27445237Y-27593942D01*
X27445237Y-27593942D02*
X27569047Y-27593942D01*
X27569047Y-27593942D02*
X27630952Y-27562990D01*
X27630952Y-27562990D02*
X27661904Y-27501085D01*
X27661904Y-27501085D02*
X27661904Y-27253466D01*
X27661904Y-27253466D02*
X27630952Y-27191561D01*
X27630952Y-27191561D02*
X27569047Y-27160609D01*
X27569047Y-27160609D02*
X27445237Y-27160609D01*
X27445237Y-27160609D02*
X27383333Y-27191561D01*
X27383333Y-27191561D02*
X27352380Y-27253466D01*
X27352380Y-27253466D02*
X27352380Y-27315370D01*
X27352380Y-27315370D02*
X27661904Y-27377275D01*
X27073809Y-27593942D02*
X27073809Y-27160609D01*
X27073809Y-27284418D02*
X27042856Y-27222513D01*
X27042856Y-27222513D02*
X27011904Y-27191561D01*
X27011904Y-27191561D02*
X26949999Y-27160609D01*
X26949999Y-27160609D02*
X26888094Y-27160609D01*
X26671428Y-27593942D02*
X26671428Y-26943942D01*
X26671428Y-26943942D02*
X26454761Y-27408228D01*
X26454761Y-27408228D02*
X26238094Y-26943942D01*
X26238094Y-26943942D02*
X26238094Y-27593942D01*
X25928571Y-27593942D02*
X25928571Y-27160609D01*
X25928571Y-26943942D02*
X25959523Y-26974894D01*
X25959523Y-26974894D02*
X25928571Y-27005847D01*
X25928571Y-27005847D02*
X25897618Y-26974894D01*
X25897618Y-26974894D02*
X25928571Y-26943942D01*
X25928571Y-26943942D02*
X25928571Y-27005847D01*
X25619047Y-27160609D02*
X25619047Y-27593942D01*
X25619047Y-27222513D02*
X25588094Y-27191561D01*
X25588094Y-27191561D02*
X25526189Y-27160609D01*
X25526189Y-27160609D02*
X25433332Y-27160609D01*
X25433332Y-27160609D02*
X25371428Y-27191561D01*
X25371428Y-27191561D02*
X25340475Y-27253466D01*
X25340475Y-27253466D02*
X25340475Y-27593942D01*
X25030952Y-27593942D02*
X25030952Y-27160609D01*
X25030952Y-26943942D02*
X25061904Y-26974894D01*
X25061904Y-26974894D02*
X25030952Y-27005847D01*
X25030952Y-27005847D02*
X24999999Y-26974894D01*
X24999999Y-26974894D02*
X25030952Y-26943942D01*
X25030952Y-26943942D02*
X25030952Y-27005847D01*
X41992857Y-29193942D02*
X42302381Y-29193942D01*
X42302381Y-29193942D02*
X42302381Y-28543942D01*
X41466667Y-29193942D02*
X41776191Y-29193942D01*
X41776191Y-29193942D02*
X41776191Y-28543942D01*
X40878572Y-29132037D02*
X40909524Y-29162990D01*
X40909524Y-29162990D02*
X41002382Y-29193942D01*
X41002382Y-29193942D02*
X41064286Y-29193942D01*
X41064286Y-29193942D02*
X41157143Y-29162990D01*
X41157143Y-29162990D02*
X41219048Y-29101085D01*
X41219048Y-29101085D02*
X41250001Y-29039180D01*
X41250001Y-29039180D02*
X41280953Y-28915370D01*
X41280953Y-28915370D02*
X41280953Y-28822513D01*
X41280953Y-28822513D02*
X41250001Y-28698704D01*
X41250001Y-28698704D02*
X41219048Y-28636799D01*
X41219048Y-28636799D02*
X41157143Y-28574894D01*
X41157143Y-28574894D02*
X41064286Y-28543942D01*
X41064286Y-28543942D02*
X41002382Y-28543942D01*
X41002382Y-28543942D02*
X40909524Y-28574894D01*
X40909524Y-28574894D02*
X40878572Y-28605847D01*
X40600001Y-29132037D02*
X40569048Y-29162990D01*
X40569048Y-29162990D02*
X40600001Y-29193942D01*
X40600001Y-29193942D02*
X40630953Y-29162990D01*
X40630953Y-29162990D02*
X40600001Y-29132037D01*
X40600001Y-29132037D02*
X40600001Y-29193942D01*
X40600001Y-28791561D02*
X40569048Y-28822513D01*
X40569048Y-28822513D02*
X40600001Y-28853466D01*
X40600001Y-28853466D02*
X40630953Y-28822513D01*
X40630953Y-28822513D02*
X40600001Y-28791561D01*
X40600001Y-28791561D02*
X40600001Y-28853466D01*
X39578572Y-28853466D02*
X39485715Y-28884418D01*
X39485715Y-28884418D02*
X39454762Y-28915370D01*
X39454762Y-28915370D02*
X39423810Y-28977275D01*
X39423810Y-28977275D02*
X39423810Y-29070132D01*
X39423810Y-29070132D02*
X39454762Y-29132037D01*
X39454762Y-29132037D02*
X39485715Y-29162990D01*
X39485715Y-29162990D02*
X39547620Y-29193942D01*
X39547620Y-29193942D02*
X39795239Y-29193942D01*
X39795239Y-29193942D02*
X39795239Y-28543942D01*
X39795239Y-28543942D02*
X39578572Y-28543942D01*
X39578572Y-28543942D02*
X39516667Y-28574894D01*
X39516667Y-28574894D02*
X39485715Y-28605847D01*
X39485715Y-28605847D02*
X39454762Y-28667751D01*
X39454762Y-28667751D02*
X39454762Y-28729656D01*
X39454762Y-28729656D02*
X39485715Y-28791561D01*
X39485715Y-28791561D02*
X39516667Y-28822513D01*
X39516667Y-28822513D02*
X39578572Y-28853466D01*
X39578572Y-28853466D02*
X39795239Y-28853466D01*
X39176191Y-29162990D02*
X39083334Y-29193942D01*
X39083334Y-29193942D02*
X38928572Y-29193942D01*
X38928572Y-29193942D02*
X38866667Y-29162990D01*
X38866667Y-29162990D02*
X38835715Y-29132037D01*
X38835715Y-29132037D02*
X38804762Y-29070132D01*
X38804762Y-29070132D02*
X38804762Y-29008228D01*
X38804762Y-29008228D02*
X38835715Y-28946323D01*
X38835715Y-28946323D02*
X38866667Y-28915370D01*
X38866667Y-28915370D02*
X38928572Y-28884418D01*
X38928572Y-28884418D02*
X39052381Y-28853466D01*
X39052381Y-28853466D02*
X39114286Y-28822513D01*
X39114286Y-28822513D02*
X39145239Y-28791561D01*
X39145239Y-28791561D02*
X39176191Y-28729656D01*
X39176191Y-28729656D02*
X39176191Y-28667751D01*
X39176191Y-28667751D02*
X39145239Y-28605847D01*
X39145239Y-28605847D02*
X39114286Y-28574894D01*
X39114286Y-28574894D02*
X39052381Y-28543942D01*
X39052381Y-28543942D02*
X38897620Y-28543942D01*
X38897620Y-28543942D02*
X38804762Y-28574894D01*
X38557143Y-29162990D02*
X38464286Y-29193942D01*
X38464286Y-29193942D02*
X38309524Y-29193942D01*
X38309524Y-29193942D02*
X38247619Y-29162990D01*
X38247619Y-29162990D02*
X38216667Y-29132037D01*
X38216667Y-29132037D02*
X38185714Y-29070132D01*
X38185714Y-29070132D02*
X38185714Y-29008228D01*
X38185714Y-29008228D02*
X38216667Y-28946323D01*
X38216667Y-28946323D02*
X38247619Y-28915370D01*
X38247619Y-28915370D02*
X38309524Y-28884418D01*
X38309524Y-28884418D02*
X38433333Y-28853466D01*
X38433333Y-28853466D02*
X38495238Y-28822513D01*
X38495238Y-28822513D02*
X38526191Y-28791561D01*
X38526191Y-28791561D02*
X38557143Y-28729656D01*
X38557143Y-28729656D02*
X38557143Y-28667751D01*
X38557143Y-28667751D02*
X38526191Y-28605847D01*
X38526191Y-28605847D02*
X38495238Y-28574894D01*
X38495238Y-28574894D02*
X38433333Y-28543942D01*
X38433333Y-28543942D02*
X38278572Y-28543942D01*
X38278572Y-28543942D02*
X38185714Y-28574894D01*
X37566666Y-29193942D02*
X37938095Y-29193942D01*
X37752381Y-29193942D02*
X37752381Y-28543942D01*
X37752381Y-28543942D02*
X37814285Y-28636799D01*
X37814285Y-28636799D02*
X37876190Y-28698704D01*
X37876190Y-28698704D02*
X37938095Y-28729656D01*
X37349999Y-28543942D02*
X36947618Y-28543942D01*
X36947618Y-28543942D02*
X37164285Y-28791561D01*
X37164285Y-28791561D02*
X37071428Y-28791561D01*
X37071428Y-28791561D02*
X37009523Y-28822513D01*
X37009523Y-28822513D02*
X36978571Y-28853466D01*
X36978571Y-28853466D02*
X36947618Y-28915370D01*
X36947618Y-28915370D02*
X36947618Y-29070132D01*
X36947618Y-29070132D02*
X36978571Y-29132037D01*
X36978571Y-29132037D02*
X37009523Y-29162990D01*
X37009523Y-29162990D02*
X37071428Y-29193942D01*
X37071428Y-29193942D02*
X37257142Y-29193942D01*
X37257142Y-29193942D02*
X37319047Y-29162990D01*
X37319047Y-29162990D02*
X37349999Y-29132037D01*
X36576189Y-28822513D02*
X36638094Y-28791561D01*
X36638094Y-28791561D02*
X36669047Y-28760609D01*
X36669047Y-28760609D02*
X36699999Y-28698704D01*
X36699999Y-28698704D02*
X36699999Y-28667751D01*
X36699999Y-28667751D02*
X36669047Y-28605847D01*
X36669047Y-28605847D02*
X36638094Y-28574894D01*
X36638094Y-28574894D02*
X36576189Y-28543942D01*
X36576189Y-28543942D02*
X36452380Y-28543942D01*
X36452380Y-28543942D02*
X36390475Y-28574894D01*
X36390475Y-28574894D02*
X36359523Y-28605847D01*
X36359523Y-28605847D02*
X36328570Y-28667751D01*
X36328570Y-28667751D02*
X36328570Y-28698704D01*
X36328570Y-28698704D02*
X36359523Y-28760609D01*
X36359523Y-28760609D02*
X36390475Y-28791561D01*
X36390475Y-28791561D02*
X36452380Y-28822513D01*
X36452380Y-28822513D02*
X36576189Y-28822513D01*
X36576189Y-28822513D02*
X36638094Y-28853466D01*
X36638094Y-28853466D02*
X36669047Y-28884418D01*
X36669047Y-28884418D02*
X36699999Y-28946323D01*
X36699999Y-28946323D02*
X36699999Y-29070132D01*
X36699999Y-29070132D02*
X36669047Y-29132037D01*
X36669047Y-29132037D02*
X36638094Y-29162990D01*
X36638094Y-29162990D02*
X36576189Y-29193942D01*
X36576189Y-29193942D02*
X36452380Y-29193942D01*
X36452380Y-29193942D02*
X36390475Y-29162990D01*
X36390475Y-29162990D02*
X36359523Y-29132037D01*
X36359523Y-29132037D02*
X36328570Y-29070132D01*
X36328570Y-29070132D02*
X36328570Y-28946323D01*
X36328570Y-28946323D02*
X36359523Y-28884418D01*
X36359523Y-28884418D02*
X36390475Y-28853466D01*
X36390475Y-28853466D02*
X36452380Y-28822513D01*
X35585713Y-28605847D02*
X35554761Y-28574894D01*
X35554761Y-28574894D02*
X35492856Y-28543942D01*
X35492856Y-28543942D02*
X35338094Y-28543942D01*
X35338094Y-28543942D02*
X35276189Y-28574894D01*
X35276189Y-28574894D02*
X35245237Y-28605847D01*
X35245237Y-28605847D02*
X35214284Y-28667751D01*
X35214284Y-28667751D02*
X35214284Y-28729656D01*
X35214284Y-28729656D02*
X35245237Y-28822513D01*
X35245237Y-28822513D02*
X35616665Y-29193942D01*
X35616665Y-29193942D02*
X35214284Y-29193942D01*
X34935713Y-28946323D02*
X34440475Y-28946323D01*
X33852379Y-29162990D02*
X33914284Y-29193942D01*
X33914284Y-29193942D02*
X34038093Y-29193942D01*
X34038093Y-29193942D02*
X34099998Y-29162990D01*
X34099998Y-29162990D02*
X34130951Y-29132037D01*
X34130951Y-29132037D02*
X34161903Y-29070132D01*
X34161903Y-29070132D02*
X34161903Y-28884418D01*
X34161903Y-28884418D02*
X34130951Y-28822513D01*
X34130951Y-28822513D02*
X34099998Y-28791561D01*
X34099998Y-28791561D02*
X34038093Y-28760609D01*
X34038093Y-28760609D02*
X33914284Y-28760609D01*
X33914284Y-28760609D02*
X33852379Y-28791561D01*
X33573808Y-29193942D02*
X33573808Y-28543942D01*
X33295236Y-29193942D02*
X33295236Y-28853466D01*
X33295236Y-28853466D02*
X33326189Y-28791561D01*
X33326189Y-28791561D02*
X33388093Y-28760609D01*
X33388093Y-28760609D02*
X33480950Y-28760609D01*
X33480950Y-28760609D02*
X33542855Y-28791561D01*
X33542855Y-28791561D02*
X33573808Y-28822513D01*
X32490475Y-29193942D02*
X32490475Y-28760609D01*
X32490475Y-28822513D02*
X32459522Y-28791561D01*
X32459522Y-28791561D02*
X32397617Y-28760609D01*
X32397617Y-28760609D02*
X32304760Y-28760609D01*
X32304760Y-28760609D02*
X32242856Y-28791561D01*
X32242856Y-28791561D02*
X32211903Y-28853466D01*
X32211903Y-28853466D02*
X32211903Y-29193942D01*
X32211903Y-28853466D02*
X32180951Y-28791561D01*
X32180951Y-28791561D02*
X32119046Y-28760609D01*
X32119046Y-28760609D02*
X32026189Y-28760609D01*
X32026189Y-28760609D02*
X31964284Y-28791561D01*
X31964284Y-28791561D02*
X31933332Y-28853466D01*
X31933332Y-28853466D02*
X31933332Y-29193942D01*
X31530950Y-29193942D02*
X31592855Y-29162990D01*
X31592855Y-29162990D02*
X31623808Y-29132037D01*
X31623808Y-29132037D02*
X31654760Y-29070132D01*
X31654760Y-29070132D02*
X31654760Y-28884418D01*
X31654760Y-28884418D02*
X31623808Y-28822513D01*
X31623808Y-28822513D02*
X31592855Y-28791561D01*
X31592855Y-28791561D02*
X31530950Y-28760609D01*
X31530950Y-28760609D02*
X31438093Y-28760609D01*
X31438093Y-28760609D02*
X31376189Y-28791561D01*
X31376189Y-28791561D02*
X31345236Y-28822513D01*
X31345236Y-28822513D02*
X31314284Y-28884418D01*
X31314284Y-28884418D02*
X31314284Y-29070132D01*
X31314284Y-29070132D02*
X31345236Y-29132037D01*
X31345236Y-29132037D02*
X31376189Y-29162990D01*
X31376189Y-29162990D02*
X31438093Y-29193942D01*
X31438093Y-29193942D02*
X31530950Y-29193942D01*
X30757141Y-29193942D02*
X30757141Y-28543942D01*
X30757141Y-29162990D02*
X30819046Y-29193942D01*
X30819046Y-29193942D02*
X30942855Y-29193942D01*
X30942855Y-29193942D02*
X31004760Y-29162990D01*
X31004760Y-29162990D02*
X31035713Y-29132037D01*
X31035713Y-29132037D02*
X31066665Y-29070132D01*
X31066665Y-29070132D02*
X31066665Y-28884418D01*
X31066665Y-28884418D02*
X31035713Y-28822513D01*
X31035713Y-28822513D02*
X31004760Y-28791561D01*
X31004760Y-28791561D02*
X30942855Y-28760609D01*
X30942855Y-28760609D02*
X30819046Y-28760609D01*
X30819046Y-28760609D02*
X30757141Y-28791561D01*
X30169046Y-28760609D02*
X30169046Y-29193942D01*
X30447618Y-28760609D02*
X30447618Y-29101085D01*
X30447618Y-29101085D02*
X30416665Y-29162990D01*
X30416665Y-29162990D02*
X30354760Y-29193942D01*
X30354760Y-29193942D02*
X30261903Y-29193942D01*
X30261903Y-29193942D02*
X30199999Y-29162990D01*
X30199999Y-29162990D02*
X30169046Y-29132037D01*
X29766665Y-29193942D02*
X29828570Y-29162990D01*
X29828570Y-29162990D02*
X29859523Y-29101085D01*
X29859523Y-29101085D02*
X29859523Y-28543942D01*
X29271428Y-29162990D02*
X29333332Y-29193942D01*
X29333332Y-29193942D02*
X29457142Y-29193942D01*
X29457142Y-29193942D02*
X29519047Y-29162990D01*
X29519047Y-29162990D02*
X29549999Y-29101085D01*
X29549999Y-29101085D02*
X29549999Y-28853466D01*
X29549999Y-28853466D02*
X29519047Y-28791561D01*
X29519047Y-28791561D02*
X29457142Y-28760609D01*
X29457142Y-28760609D02*
X29333332Y-28760609D01*
X29333332Y-28760609D02*
X29271428Y-28791561D01*
X29271428Y-28791561D02*
X29240475Y-28853466D01*
X29240475Y-28853466D02*
X29240475Y-28915370D01*
X29240475Y-28915370D02*
X29549999Y-28977275D01*
X28280951Y-29441561D02*
X28311904Y-29410609D01*
X28311904Y-29410609D02*
X28373808Y-29317751D01*
X28373808Y-29317751D02*
X28404761Y-29255847D01*
X28404761Y-29255847D02*
X28435713Y-29162990D01*
X28435713Y-29162990D02*
X28466666Y-29008228D01*
X28466666Y-29008228D02*
X28466666Y-28884418D01*
X28466666Y-28884418D02*
X28435713Y-28729656D01*
X28435713Y-28729656D02*
X28404761Y-28636799D01*
X28404761Y-28636799D02*
X28373808Y-28574894D01*
X28373808Y-28574894D02*
X28311904Y-28482037D01*
X28311904Y-28482037D02*
X28280951Y-28451085D01*
X27692856Y-29193942D02*
X28064285Y-29193942D01*
X27878571Y-29193942D02*
X27878571Y-28543942D01*
X27878571Y-28543942D02*
X27940475Y-28636799D01*
X27940475Y-28636799D02*
X28002380Y-28698704D01*
X28002380Y-28698704D02*
X28064285Y-28729656D01*
X27290475Y-28543942D02*
X27228570Y-28543942D01*
X27228570Y-28543942D02*
X27166666Y-28574894D01*
X27166666Y-28574894D02*
X27135713Y-28605847D01*
X27135713Y-28605847D02*
X27104761Y-28667751D01*
X27104761Y-28667751D02*
X27073808Y-28791561D01*
X27073808Y-28791561D02*
X27073808Y-28946323D01*
X27073808Y-28946323D02*
X27104761Y-29070132D01*
X27104761Y-29070132D02*
X27135713Y-29132037D01*
X27135713Y-29132037D02*
X27166666Y-29162990D01*
X27166666Y-29162990D02*
X27228570Y-29193942D01*
X27228570Y-29193942D02*
X27290475Y-29193942D01*
X27290475Y-29193942D02*
X27352380Y-29162990D01*
X27352380Y-29162990D02*
X27383332Y-29132037D01*
X27383332Y-29132037D02*
X27414285Y-29070132D01*
X27414285Y-29070132D02*
X27445237Y-28946323D01*
X27445237Y-28946323D02*
X27445237Y-28791561D01*
X27445237Y-28791561D02*
X27414285Y-28667751D01*
X27414285Y-28667751D02*
X27383332Y-28605847D01*
X27383332Y-28605847D02*
X27352380Y-28574894D01*
X27352380Y-28574894D02*
X27290475Y-28543942D01*
X26795237Y-29132037D02*
X26764284Y-29162990D01*
X26764284Y-29162990D02*
X26795237Y-29193942D01*
X26795237Y-29193942D02*
X26826189Y-29162990D01*
X26826189Y-29162990D02*
X26795237Y-29132037D01*
X26795237Y-29132037D02*
X26795237Y-29193942D01*
X26145236Y-29193942D02*
X26516665Y-29193942D01*
X26330951Y-29193942D02*
X26330951Y-28543942D01*
X26330951Y-28543942D02*
X26392855Y-28636799D01*
X26392855Y-28636799D02*
X26454760Y-28698704D01*
X26454760Y-28698704D02*
X26516665Y-28729656D01*
X25588093Y-28543942D02*
X25711903Y-28543942D01*
X25711903Y-28543942D02*
X25773807Y-28574894D01*
X25773807Y-28574894D02*
X25804760Y-28605847D01*
X25804760Y-28605847D02*
X25866665Y-28698704D01*
X25866665Y-28698704D02*
X25897617Y-28822513D01*
X25897617Y-28822513D02*
X25897617Y-29070132D01*
X25897617Y-29070132D02*
X25866665Y-29132037D01*
X25866665Y-29132037D02*
X25835712Y-29162990D01*
X25835712Y-29162990D02*
X25773807Y-29193942D01*
X25773807Y-29193942D02*
X25649998Y-29193942D01*
X25649998Y-29193942D02*
X25588093Y-29162990D01*
X25588093Y-29162990D02*
X25557141Y-29132037D01*
X25557141Y-29132037D02*
X25526188Y-29070132D01*
X25526188Y-29070132D02*
X25526188Y-28915370D01*
X25526188Y-28915370D02*
X25557141Y-28853466D01*
X25557141Y-28853466D02*
X25588093Y-28822513D01*
X25588093Y-28822513D02*
X25649998Y-28791561D01*
X25649998Y-28791561D02*
X25773807Y-28791561D01*
X25773807Y-28791561D02*
X25835712Y-28822513D01*
X25835712Y-28822513D02*
X25866665Y-28853466D01*
X25866665Y-28853466D02*
X25897617Y-28915370D01*
X25247617Y-29193942D02*
X25247617Y-28760609D01*
X25247617Y-28822513D02*
X25216664Y-28791561D01*
X25216664Y-28791561D02*
X25154759Y-28760609D01*
X25154759Y-28760609D02*
X25061902Y-28760609D01*
X25061902Y-28760609D02*
X24999998Y-28791561D01*
X24999998Y-28791561D02*
X24969045Y-28853466D01*
X24969045Y-28853466D02*
X24969045Y-29193942D01*
X24969045Y-28853466D02*
X24938093Y-28791561D01*
X24938093Y-28791561D02*
X24876188Y-28760609D01*
X24876188Y-28760609D02*
X24783331Y-28760609D01*
X24783331Y-28760609D02*
X24721426Y-28791561D01*
X24721426Y-28791561D02*
X24690474Y-28853466D01*
X24690474Y-28853466D02*
X24690474Y-29193942D01*
X24380950Y-29193942D02*
X24380950Y-28760609D01*
X24380950Y-28822513D02*
X24349997Y-28791561D01*
X24349997Y-28791561D02*
X24288092Y-28760609D01*
X24288092Y-28760609D02*
X24195235Y-28760609D01*
X24195235Y-28760609D02*
X24133331Y-28791561D01*
X24133331Y-28791561D02*
X24102378Y-28853466D01*
X24102378Y-28853466D02*
X24102378Y-29193942D01*
X24102378Y-28853466D02*
X24071426Y-28791561D01*
X24071426Y-28791561D02*
X24009521Y-28760609D01*
X24009521Y-28760609D02*
X23916664Y-28760609D01*
X23916664Y-28760609D02*
X23854759Y-28791561D01*
X23854759Y-28791561D02*
X23823807Y-28853466D01*
X23823807Y-28853466D02*
X23823807Y-29193942D01*
X23019045Y-29193942D02*
X23019045Y-28760609D01*
X23019045Y-28884418D02*
X22988092Y-28822513D01*
X22988092Y-28822513D02*
X22957140Y-28791561D01*
X22957140Y-28791561D02*
X22895235Y-28760609D01*
X22895235Y-28760609D02*
X22833330Y-28760609D01*
X22523806Y-29193942D02*
X22585711Y-29162990D01*
X22585711Y-29162990D02*
X22616664Y-29132037D01*
X22616664Y-29132037D02*
X22647616Y-29070132D01*
X22647616Y-29070132D02*
X22647616Y-28884418D01*
X22647616Y-28884418D02*
X22616664Y-28822513D01*
X22616664Y-28822513D02*
X22585711Y-28791561D01*
X22585711Y-28791561D02*
X22523806Y-28760609D01*
X22523806Y-28760609D02*
X22430949Y-28760609D01*
X22430949Y-28760609D02*
X22369045Y-28791561D01*
X22369045Y-28791561D02*
X22338092Y-28822513D01*
X22338092Y-28822513D02*
X22307140Y-28884418D01*
X22307140Y-28884418D02*
X22307140Y-29070132D01*
X22307140Y-29070132D02*
X22338092Y-29132037D01*
X22338092Y-29132037D02*
X22369045Y-29162990D01*
X22369045Y-29162990D02*
X22430949Y-29193942D01*
X22430949Y-29193942D02*
X22523806Y-29193942D01*
X22090473Y-28760609D02*
X21966664Y-29193942D01*
X21966664Y-29193942D02*
X21842854Y-28884418D01*
X21842854Y-28884418D02*
X21719045Y-29193942D01*
X21719045Y-29193942D02*
X21595235Y-28760609D01*
X21378569Y-29162990D02*
X21316664Y-29193942D01*
X21316664Y-29193942D02*
X21192855Y-29193942D01*
X21192855Y-29193942D02*
X21130950Y-29162990D01*
X21130950Y-29162990D02*
X21099998Y-29101085D01*
X21099998Y-29101085D02*
X21099998Y-29070132D01*
X21099998Y-29070132D02*
X21130950Y-29008228D01*
X21130950Y-29008228D02*
X21192855Y-28977275D01*
X21192855Y-28977275D02*
X21285712Y-28977275D01*
X21285712Y-28977275D02*
X21347617Y-28946323D01*
X21347617Y-28946323D02*
X21378569Y-28884418D01*
X21378569Y-28884418D02*
X21378569Y-28853466D01*
X21378569Y-28853466D02*
X21347617Y-28791561D01*
X21347617Y-28791561D02*
X21285712Y-28760609D01*
X21285712Y-28760609D02*
X21192855Y-28760609D01*
X21192855Y-28760609D02*
X21130950Y-28791561D01*
X20883331Y-29441561D02*
X20852379Y-29410609D01*
X20852379Y-29410609D02*
X20790474Y-29317751D01*
X20790474Y-29317751D02*
X20759522Y-29255847D01*
X20759522Y-29255847D02*
X20728569Y-29162990D01*
X20728569Y-29162990D02*
X20697617Y-29008228D01*
X20697617Y-29008228D02*
X20697617Y-28884418D01*
X20697617Y-28884418D02*
X20728569Y-28729656D01*
X20728569Y-28729656D02*
X20759522Y-28636799D01*
X20759522Y-28636799D02*
X20790474Y-28574894D01*
X20790474Y-28574894D02*
X20852379Y-28482037D01*
X20852379Y-28482037D02*
X20883331Y-28451085D01*
X40445239Y-30793942D02*
X40445239Y-30143942D01*
X40445239Y-30143942D02*
X40290477Y-30143942D01*
X40290477Y-30143942D02*
X40197620Y-30174894D01*
X40197620Y-30174894D02*
X40135715Y-30236799D01*
X40135715Y-30236799D02*
X40104762Y-30298704D01*
X40104762Y-30298704D02*
X40073810Y-30422513D01*
X40073810Y-30422513D02*
X40073810Y-30515370D01*
X40073810Y-30515370D02*
X40104762Y-30639180D01*
X40104762Y-30639180D02*
X40135715Y-30701085D01*
X40135715Y-30701085D02*
X40197620Y-30762990D01*
X40197620Y-30762990D02*
X40290477Y-30793942D01*
X40290477Y-30793942D02*
X40445239Y-30793942D01*
X39454762Y-30793942D02*
X39826191Y-30793942D01*
X39640477Y-30793942D02*
X39640477Y-30143942D01*
X39640477Y-30143942D02*
X39702381Y-30236799D01*
X39702381Y-30236799D02*
X39764286Y-30298704D01*
X39764286Y-30298704D02*
X39826191Y-30329656D01*
X39176191Y-30732037D02*
X39145238Y-30762990D01*
X39145238Y-30762990D02*
X39176191Y-30793942D01*
X39176191Y-30793942D02*
X39207143Y-30762990D01*
X39207143Y-30762990D02*
X39176191Y-30732037D01*
X39176191Y-30732037D02*
X39176191Y-30793942D01*
X39176191Y-30391561D02*
X39145238Y-30422513D01*
X39145238Y-30422513D02*
X39176191Y-30453466D01*
X39176191Y-30453466D02*
X39207143Y-30422513D01*
X39207143Y-30422513D02*
X39176191Y-30391561D01*
X39176191Y-30391561D02*
X39176191Y-30453466D01*
X38030952Y-30793942D02*
X38402381Y-30793942D01*
X38216667Y-30793942D02*
X38216667Y-30143942D01*
X38216667Y-30143942D02*
X38278571Y-30236799D01*
X38278571Y-30236799D02*
X38340476Y-30298704D01*
X38340476Y-30298704D02*
X38402381Y-30329656D01*
X37752381Y-30793942D02*
X37752381Y-30143942D01*
X37752381Y-30143942D02*
X37380952Y-30793942D01*
X37380952Y-30793942D02*
X37380952Y-30143942D01*
X36761905Y-30143942D02*
X37071429Y-30143942D01*
X37071429Y-30143942D02*
X37102381Y-30453466D01*
X37102381Y-30453466D02*
X37071429Y-30422513D01*
X37071429Y-30422513D02*
X37009524Y-30391561D01*
X37009524Y-30391561D02*
X36854762Y-30391561D01*
X36854762Y-30391561D02*
X36792857Y-30422513D01*
X36792857Y-30422513D02*
X36761905Y-30453466D01*
X36761905Y-30453466D02*
X36730952Y-30515370D01*
X36730952Y-30515370D02*
X36730952Y-30670132D01*
X36730952Y-30670132D02*
X36761905Y-30732037D01*
X36761905Y-30732037D02*
X36792857Y-30762990D01*
X36792857Y-30762990D02*
X36854762Y-30793942D01*
X36854762Y-30793942D02*
X37009524Y-30793942D01*
X37009524Y-30793942D02*
X37071429Y-30762990D01*
X37071429Y-30762990D02*
X37102381Y-30732037D01*
X36359523Y-30422513D02*
X36421428Y-30391561D01*
X36421428Y-30391561D02*
X36452381Y-30360609D01*
X36452381Y-30360609D02*
X36483333Y-30298704D01*
X36483333Y-30298704D02*
X36483333Y-30267751D01*
X36483333Y-30267751D02*
X36452381Y-30205847D01*
X36452381Y-30205847D02*
X36421428Y-30174894D01*
X36421428Y-30174894D02*
X36359523Y-30143942D01*
X36359523Y-30143942D02*
X36235714Y-30143942D01*
X36235714Y-30143942D02*
X36173809Y-30174894D01*
X36173809Y-30174894D02*
X36142857Y-30205847D01*
X36142857Y-30205847D02*
X36111904Y-30267751D01*
X36111904Y-30267751D02*
X36111904Y-30298704D01*
X36111904Y-30298704D02*
X36142857Y-30360609D01*
X36142857Y-30360609D02*
X36173809Y-30391561D01*
X36173809Y-30391561D02*
X36235714Y-30422513D01*
X36235714Y-30422513D02*
X36359523Y-30422513D01*
X36359523Y-30422513D02*
X36421428Y-30453466D01*
X36421428Y-30453466D02*
X36452381Y-30484418D01*
X36452381Y-30484418D02*
X36483333Y-30546323D01*
X36483333Y-30546323D02*
X36483333Y-30670132D01*
X36483333Y-30670132D02*
X36452381Y-30732037D01*
X36452381Y-30732037D02*
X36421428Y-30762990D01*
X36421428Y-30762990D02*
X36359523Y-30793942D01*
X36359523Y-30793942D02*
X36235714Y-30793942D01*
X36235714Y-30793942D02*
X36173809Y-30762990D01*
X36173809Y-30762990D02*
X36142857Y-30732037D01*
X36142857Y-30732037D02*
X36111904Y-30670132D01*
X36111904Y-30670132D02*
X36111904Y-30546323D01*
X36111904Y-30546323D02*
X36142857Y-30484418D01*
X36142857Y-30484418D02*
X36173809Y-30453466D01*
X36173809Y-30453466D02*
X36235714Y-30422513D01*
X35492856Y-30793942D02*
X35864285Y-30793942D01*
X35678571Y-30793942D02*
X35678571Y-30143942D01*
X35678571Y-30143942D02*
X35740475Y-30236799D01*
X35740475Y-30236799D02*
X35802380Y-30298704D01*
X35802380Y-30298704D02*
X35864285Y-30329656D01*
X35183332Y-30793942D02*
X35059523Y-30793942D01*
X35059523Y-30793942D02*
X34997618Y-30762990D01*
X34997618Y-30762990D02*
X34966666Y-30732037D01*
X34966666Y-30732037D02*
X34904761Y-30639180D01*
X34904761Y-30639180D02*
X34873808Y-30515370D01*
X34873808Y-30515370D02*
X34873808Y-30267751D01*
X34873808Y-30267751D02*
X34904761Y-30205847D01*
X34904761Y-30205847D02*
X34935713Y-30174894D01*
X34935713Y-30174894D02*
X34997618Y-30143942D01*
X34997618Y-30143942D02*
X35121427Y-30143942D01*
X35121427Y-30143942D02*
X35183332Y-30174894D01*
X35183332Y-30174894D02*
X35214285Y-30205847D01*
X35214285Y-30205847D02*
X35245237Y-30267751D01*
X35245237Y-30267751D02*
X35245237Y-30422513D01*
X35245237Y-30422513D02*
X35214285Y-30484418D01*
X35214285Y-30484418D02*
X35183332Y-30515370D01*
X35183332Y-30515370D02*
X35121427Y-30546323D01*
X35121427Y-30546323D02*
X34997618Y-30546323D01*
X34997618Y-30546323D02*
X34935713Y-30515370D01*
X34935713Y-30515370D02*
X34904761Y-30484418D01*
X34904761Y-30484418D02*
X34873808Y-30422513D01*
X32738094Y-30732037D02*
X32769046Y-30762990D01*
X32769046Y-30762990D02*
X32861904Y-30793942D01*
X32861904Y-30793942D02*
X32923808Y-30793942D01*
X32923808Y-30793942D02*
X33016665Y-30762990D01*
X33016665Y-30762990D02*
X33078570Y-30701085D01*
X33078570Y-30701085D02*
X33109523Y-30639180D01*
X33109523Y-30639180D02*
X33140475Y-30515370D01*
X33140475Y-30515370D02*
X33140475Y-30422513D01*
X33140475Y-30422513D02*
X33109523Y-30298704D01*
X33109523Y-30298704D02*
X33078570Y-30236799D01*
X33078570Y-30236799D02*
X33016665Y-30174894D01*
X33016665Y-30174894D02*
X32923808Y-30143942D01*
X32923808Y-30143942D02*
X32861904Y-30143942D01*
X32861904Y-30143942D02*
X32769046Y-30174894D01*
X32769046Y-30174894D02*
X32738094Y-30205847D01*
X32119046Y-30793942D02*
X32490475Y-30793942D01*
X32304761Y-30793942D02*
X32304761Y-30143942D01*
X32304761Y-30143942D02*
X32366665Y-30236799D01*
X32366665Y-30236799D02*
X32428570Y-30298704D01*
X32428570Y-30298704D02*
X32490475Y-30329656D01*
X31840475Y-30732037D02*
X31809522Y-30762990D01*
X31809522Y-30762990D02*
X31840475Y-30793942D01*
X31840475Y-30793942D02*
X31871427Y-30762990D01*
X31871427Y-30762990D02*
X31840475Y-30732037D01*
X31840475Y-30732037D02*
X31840475Y-30793942D01*
X31840475Y-30391561D02*
X31809522Y-30422513D01*
X31809522Y-30422513D02*
X31840475Y-30453466D01*
X31840475Y-30453466D02*
X31871427Y-30422513D01*
X31871427Y-30422513D02*
X31840475Y-30391561D01*
X31840475Y-30391561D02*
X31840475Y-30453466D01*
X30695236Y-30793942D02*
X31066665Y-30793942D01*
X30880951Y-30793942D02*
X30880951Y-30143942D01*
X30880951Y-30143942D02*
X30942855Y-30236799D01*
X30942855Y-30236799D02*
X31004760Y-30298704D01*
X31004760Y-30298704D02*
X31066665Y-30329656D01*
X30292855Y-30143942D02*
X30230950Y-30143942D01*
X30230950Y-30143942D02*
X30169046Y-30174894D01*
X30169046Y-30174894D02*
X30138093Y-30205847D01*
X30138093Y-30205847D02*
X30107141Y-30267751D01*
X30107141Y-30267751D02*
X30076188Y-30391561D01*
X30076188Y-30391561D02*
X30076188Y-30546323D01*
X30076188Y-30546323D02*
X30107141Y-30670132D01*
X30107141Y-30670132D02*
X30138093Y-30732037D01*
X30138093Y-30732037D02*
X30169046Y-30762990D01*
X30169046Y-30762990D02*
X30230950Y-30793942D01*
X30230950Y-30793942D02*
X30292855Y-30793942D01*
X30292855Y-30793942D02*
X30354760Y-30762990D01*
X30354760Y-30762990D02*
X30385712Y-30732037D01*
X30385712Y-30732037D02*
X30416665Y-30670132D01*
X30416665Y-30670132D02*
X30447617Y-30546323D01*
X30447617Y-30546323D02*
X30447617Y-30391561D01*
X30447617Y-30391561D02*
X30416665Y-30267751D01*
X30416665Y-30267751D02*
X30385712Y-30205847D01*
X30385712Y-30205847D02*
X30354760Y-30174894D01*
X30354760Y-30174894D02*
X30292855Y-30143942D01*
X29673807Y-30143942D02*
X29611902Y-30143942D01*
X29611902Y-30143942D02*
X29549998Y-30174894D01*
X29549998Y-30174894D02*
X29519045Y-30205847D01*
X29519045Y-30205847D02*
X29488093Y-30267751D01*
X29488093Y-30267751D02*
X29457140Y-30391561D01*
X29457140Y-30391561D02*
X29457140Y-30546323D01*
X29457140Y-30546323D02*
X29488093Y-30670132D01*
X29488093Y-30670132D02*
X29519045Y-30732037D01*
X29519045Y-30732037D02*
X29549998Y-30762990D01*
X29549998Y-30762990D02*
X29611902Y-30793942D01*
X29611902Y-30793942D02*
X29673807Y-30793942D01*
X29673807Y-30793942D02*
X29735712Y-30762990D01*
X29735712Y-30762990D02*
X29766664Y-30732037D01*
X29766664Y-30732037D02*
X29797617Y-30670132D01*
X29797617Y-30670132D02*
X29828569Y-30546323D01*
X29828569Y-30546323D02*
X29828569Y-30391561D01*
X29828569Y-30391561D02*
X29797617Y-30267751D01*
X29797617Y-30267751D02*
X29766664Y-30205847D01*
X29766664Y-30205847D02*
X29735712Y-30174894D01*
X29735712Y-30174894D02*
X29673807Y-30143942D01*
X28899997Y-30360609D02*
X28899997Y-30793942D01*
X29178569Y-30360609D02*
X29178569Y-30701085D01*
X29178569Y-30701085D02*
X29147616Y-30762990D01*
X29147616Y-30762990D02*
X29085711Y-30793942D01*
X29085711Y-30793942D02*
X28992854Y-30793942D01*
X28992854Y-30793942D02*
X28930950Y-30762990D01*
X28930950Y-30762990D02*
X28899997Y-30732037D01*
X28373807Y-30453466D02*
X28590474Y-30453466D01*
X28590474Y-30793942D02*
X28590474Y-30143942D01*
X28590474Y-30143942D02*
X28280950Y-30143942D01*
X27569045Y-30112990D02*
X28126188Y-30948704D01*
X27011902Y-30793942D02*
X27383331Y-30793942D01*
X27197617Y-30793942D02*
X27197617Y-30143942D01*
X27197617Y-30143942D02*
X27259521Y-30236799D01*
X27259521Y-30236799D02*
X27321426Y-30298704D01*
X27321426Y-30298704D02*
X27383331Y-30329656D01*
X26454759Y-30143942D02*
X26578569Y-30143942D01*
X26578569Y-30143942D02*
X26640473Y-30174894D01*
X26640473Y-30174894D02*
X26671426Y-30205847D01*
X26671426Y-30205847D02*
X26733331Y-30298704D01*
X26733331Y-30298704D02*
X26764283Y-30422513D01*
X26764283Y-30422513D02*
X26764283Y-30670132D01*
X26764283Y-30670132D02*
X26733331Y-30732037D01*
X26733331Y-30732037D02*
X26702378Y-30762990D01*
X26702378Y-30762990D02*
X26640473Y-30793942D01*
X26640473Y-30793942D02*
X26516664Y-30793942D01*
X26516664Y-30793942D02*
X26454759Y-30762990D01*
X26454759Y-30762990D02*
X26423807Y-30732037D01*
X26423807Y-30732037D02*
X26392854Y-30670132D01*
X26392854Y-30670132D02*
X26392854Y-30515370D01*
X26392854Y-30515370D02*
X26423807Y-30453466D01*
X26423807Y-30453466D02*
X26454759Y-30422513D01*
X26454759Y-30422513D02*
X26516664Y-30391561D01*
X26516664Y-30391561D02*
X26640473Y-30391561D01*
X26640473Y-30391561D02*
X26702378Y-30422513D01*
X26702378Y-30422513D02*
X26733331Y-30453466D01*
X26733331Y-30453466D02*
X26764283Y-30515370D01*
X26207140Y-30143942D02*
X25990473Y-30793942D01*
X25990473Y-30793942D02*
X25773806Y-30143942D01*
X25061902Y-30793942D02*
X25061902Y-30360609D01*
X25061902Y-30484418D02*
X25030949Y-30422513D01*
X25030949Y-30422513D02*
X24999997Y-30391561D01*
X24999997Y-30391561D02*
X24938092Y-30360609D01*
X24938092Y-30360609D02*
X24876187Y-30360609D01*
X24380949Y-30793942D02*
X24380949Y-30453466D01*
X24380949Y-30453466D02*
X24411902Y-30391561D01*
X24411902Y-30391561D02*
X24473806Y-30360609D01*
X24473806Y-30360609D02*
X24597616Y-30360609D01*
X24597616Y-30360609D02*
X24659521Y-30391561D01*
X24380949Y-30762990D02*
X24442854Y-30793942D01*
X24442854Y-30793942D02*
X24597616Y-30793942D01*
X24597616Y-30793942D02*
X24659521Y-30762990D01*
X24659521Y-30762990D02*
X24690473Y-30701085D01*
X24690473Y-30701085D02*
X24690473Y-30639180D01*
X24690473Y-30639180D02*
X24659521Y-30577275D01*
X24659521Y-30577275D02*
X24597616Y-30546323D01*
X24597616Y-30546323D02*
X24442854Y-30546323D01*
X24442854Y-30546323D02*
X24380949Y-30515370D01*
X23792854Y-30793942D02*
X23792854Y-30143942D01*
X23792854Y-30762990D02*
X23854759Y-30793942D01*
X23854759Y-30793942D02*
X23978568Y-30793942D01*
X23978568Y-30793942D02*
X24040473Y-30762990D01*
X24040473Y-30762990D02*
X24071426Y-30732037D01*
X24071426Y-30732037D02*
X24102378Y-30670132D01*
X24102378Y-30670132D02*
X24102378Y-30484418D01*
X24102378Y-30484418D02*
X24071426Y-30422513D01*
X24071426Y-30422513D02*
X24040473Y-30391561D01*
X24040473Y-30391561D02*
X23978568Y-30360609D01*
X23978568Y-30360609D02*
X23854759Y-30360609D01*
X23854759Y-30360609D02*
X23792854Y-30391561D01*
X23483331Y-30793942D02*
X23483331Y-30360609D01*
X23483331Y-30143942D02*
X23514283Y-30174894D01*
X23514283Y-30174894D02*
X23483331Y-30205847D01*
X23483331Y-30205847D02*
X23452378Y-30174894D01*
X23452378Y-30174894D02*
X23483331Y-30143942D01*
X23483331Y-30143942D02*
X23483331Y-30205847D01*
X22895235Y-30793942D02*
X22895235Y-30453466D01*
X22895235Y-30453466D02*
X22926188Y-30391561D01*
X22926188Y-30391561D02*
X22988092Y-30360609D01*
X22988092Y-30360609D02*
X23111902Y-30360609D01*
X23111902Y-30360609D02*
X23173807Y-30391561D01*
X22895235Y-30762990D02*
X22957140Y-30793942D01*
X22957140Y-30793942D02*
X23111902Y-30793942D01*
X23111902Y-30793942D02*
X23173807Y-30762990D01*
X23173807Y-30762990D02*
X23204759Y-30701085D01*
X23204759Y-30701085D02*
X23204759Y-30639180D01*
X23204759Y-30639180D02*
X23173807Y-30577275D01*
X23173807Y-30577275D02*
X23111902Y-30546323D01*
X23111902Y-30546323D02*
X22957140Y-30546323D01*
X22957140Y-30546323D02*
X22895235Y-30515370D01*
X22492854Y-30793942D02*
X22554759Y-30762990D01*
X22554759Y-30762990D02*
X22585712Y-30701085D01*
X22585712Y-30701085D02*
X22585712Y-30143942D01*
X40275000Y-31743942D02*
X40275000Y-32208228D01*
X40275000Y-32208228D02*
X40305953Y-32301085D01*
X40305953Y-32301085D02*
X40367857Y-32362990D01*
X40367857Y-32362990D02*
X40460715Y-32393942D01*
X40460715Y-32393942D02*
X40522619Y-32393942D01*
X39625000Y-32393942D02*
X39996429Y-32393942D01*
X39810715Y-32393942D02*
X39810715Y-31743942D01*
X39810715Y-31743942D02*
X39872619Y-31836799D01*
X39872619Y-31836799D02*
X39934524Y-31898704D01*
X39934524Y-31898704D02*
X39996429Y-31929656D01*
X39005952Y-32393942D02*
X39377381Y-32393942D01*
X39191667Y-32393942D02*
X39191667Y-31743942D01*
X39191667Y-31743942D02*
X39253571Y-31836799D01*
X39253571Y-31836799D02*
X39315476Y-31898704D01*
X39315476Y-31898704D02*
X39377381Y-31929656D01*
X38727381Y-32332037D02*
X38696428Y-32362990D01*
X38696428Y-32362990D02*
X38727381Y-32393942D01*
X38727381Y-32393942D02*
X38758333Y-32362990D01*
X38758333Y-32362990D02*
X38727381Y-32332037D01*
X38727381Y-32332037D02*
X38727381Y-32393942D01*
X38727381Y-31991561D02*
X38696428Y-32022513D01*
X38696428Y-32022513D02*
X38727381Y-32053466D01*
X38727381Y-32053466D02*
X38758333Y-32022513D01*
X38758333Y-32022513D02*
X38727381Y-31991561D01*
X38727381Y-31991561D02*
X38727381Y-32053466D01*
X37551190Y-32332037D02*
X37582142Y-32362990D01*
X37582142Y-32362990D02*
X37675000Y-32393942D01*
X37675000Y-32393942D02*
X37736904Y-32393942D01*
X37736904Y-32393942D02*
X37829761Y-32362990D01*
X37829761Y-32362990D02*
X37891666Y-32301085D01*
X37891666Y-32301085D02*
X37922619Y-32239180D01*
X37922619Y-32239180D02*
X37953571Y-32115370D01*
X37953571Y-32115370D02*
X37953571Y-32022513D01*
X37953571Y-32022513D02*
X37922619Y-31898704D01*
X37922619Y-31898704D02*
X37891666Y-31836799D01*
X37891666Y-31836799D02*
X37829761Y-31774894D01*
X37829761Y-31774894D02*
X37736904Y-31743942D01*
X37736904Y-31743942D02*
X37675000Y-31743942D01*
X37675000Y-31743942D02*
X37582142Y-31774894D01*
X37582142Y-31774894D02*
X37551190Y-31805847D01*
X37272619Y-32393942D02*
X37272619Y-31743942D01*
X37272619Y-31743942D02*
X36901190Y-32393942D01*
X36901190Y-32393942D02*
X36901190Y-31743942D01*
X36591667Y-32146323D02*
X36096429Y-32146323D01*
X35848809Y-31743942D02*
X35694047Y-32393942D01*
X35694047Y-32393942D02*
X35570238Y-31929656D01*
X35570238Y-31929656D02*
X35446428Y-32393942D01*
X35446428Y-32393942D02*
X35291667Y-31743942D01*
X34734524Y-32393942D02*
X35044048Y-32393942D01*
X35044048Y-32393942D02*
X35044048Y-31743942D01*
X34548810Y-32208228D02*
X34239286Y-32208228D01*
X34610715Y-32393942D02*
X34394048Y-31743942D01*
X34394048Y-31743942D02*
X34177381Y-32393942D01*
X33960715Y-32393942D02*
X33960715Y-31743942D01*
X33960715Y-31743942D02*
X33589286Y-32393942D01*
X33589286Y-32393942D02*
X33589286Y-31743942D01*
X32598810Y-32641561D02*
X32629763Y-32610609D01*
X32629763Y-32610609D02*
X32691667Y-32517751D01*
X32691667Y-32517751D02*
X32722620Y-32455847D01*
X32722620Y-32455847D02*
X32753572Y-32362990D01*
X32753572Y-32362990D02*
X32784525Y-32208228D01*
X32784525Y-32208228D02*
X32784525Y-32084418D01*
X32784525Y-32084418D02*
X32753572Y-31929656D01*
X32753572Y-31929656D02*
X32722620Y-31836799D01*
X32722620Y-31836799D02*
X32691667Y-31774894D01*
X32691667Y-31774894D02*
X32629763Y-31682037D01*
X32629763Y-31682037D02*
X32598810Y-31651085D01*
X32351192Y-32393942D02*
X32351192Y-31743942D01*
X32351192Y-31743942D02*
X32196430Y-31743942D01*
X32196430Y-31743942D02*
X32103573Y-31774894D01*
X32103573Y-31774894D02*
X32041668Y-31836799D01*
X32041668Y-31836799D02*
X32010715Y-31898704D01*
X32010715Y-31898704D02*
X31979763Y-32022513D01*
X31979763Y-32022513D02*
X31979763Y-32115370D01*
X31979763Y-32115370D02*
X32010715Y-32239180D01*
X32010715Y-32239180D02*
X32041668Y-32301085D01*
X32041668Y-32301085D02*
X32103573Y-32362990D01*
X32103573Y-32362990D02*
X32196430Y-32393942D01*
X32196430Y-32393942D02*
X32351192Y-32393942D01*
X31701192Y-32393942D02*
X31701192Y-31743942D01*
X31701192Y-31743942D02*
X31329763Y-32393942D01*
X31329763Y-32393942D02*
X31329763Y-31743942D01*
X31051192Y-32362990D02*
X30958335Y-32393942D01*
X30958335Y-32393942D02*
X30803573Y-32393942D01*
X30803573Y-32393942D02*
X30741668Y-32362990D01*
X30741668Y-32362990D02*
X30710716Y-32332037D01*
X30710716Y-32332037D02*
X30679763Y-32270132D01*
X30679763Y-32270132D02*
X30679763Y-32208228D01*
X30679763Y-32208228D02*
X30710716Y-32146323D01*
X30710716Y-32146323D02*
X30741668Y-32115370D01*
X30741668Y-32115370D02*
X30803573Y-32084418D01*
X30803573Y-32084418D02*
X30927382Y-32053466D01*
X30927382Y-32053466D02*
X30989287Y-32022513D01*
X30989287Y-32022513D02*
X31020240Y-31991561D01*
X31020240Y-31991561D02*
X31051192Y-31929656D01*
X31051192Y-31929656D02*
X31051192Y-31867751D01*
X31051192Y-31867751D02*
X31020240Y-31805847D01*
X31020240Y-31805847D02*
X30989287Y-31774894D01*
X30989287Y-31774894D02*
X30927382Y-31743942D01*
X30927382Y-31743942D02*
X30772621Y-31743942D01*
X30772621Y-31743942D02*
X30679763Y-31774894D01*
X30401192Y-32393942D02*
X30401192Y-31743942D01*
X30029763Y-32393942D02*
X30308334Y-32022513D01*
X30029763Y-31743942D02*
X30401192Y-32115370D01*
X29751192Y-32146323D02*
X29255954Y-32146323D01*
X28946430Y-32393942D02*
X28946430Y-31743942D01*
X28946430Y-31743942D02*
X28698811Y-31743942D01*
X28698811Y-31743942D02*
X28636906Y-31774894D01*
X28636906Y-31774894D02*
X28605953Y-31805847D01*
X28605953Y-31805847D02*
X28575001Y-31867751D01*
X28575001Y-31867751D02*
X28575001Y-31960609D01*
X28575001Y-31960609D02*
X28605953Y-32022513D01*
X28605953Y-32022513D02*
X28636906Y-32053466D01*
X28636906Y-32053466D02*
X28698811Y-32084418D01*
X28698811Y-32084418D02*
X28946430Y-32084418D01*
X27955953Y-32393942D02*
X28327382Y-32393942D01*
X28141668Y-32393942D02*
X28141668Y-31743942D01*
X28141668Y-31743942D02*
X28203572Y-31836799D01*
X28203572Y-31836799D02*
X28265477Y-31898704D01*
X28265477Y-31898704D02*
X28327382Y-31929656D01*
X27336905Y-32393942D02*
X27708334Y-32393942D01*
X27522620Y-32393942D02*
X27522620Y-31743942D01*
X27522620Y-31743942D02*
X27584524Y-31836799D01*
X27584524Y-31836799D02*
X27646429Y-31898704D01*
X27646429Y-31898704D02*
X27708334Y-31929656D01*
X27120238Y-32641561D02*
X27089286Y-32610609D01*
X27089286Y-32610609D02*
X27027381Y-32517751D01*
X27027381Y-32517751D02*
X26996429Y-32455847D01*
X26996429Y-32455847D02*
X26965476Y-32362990D01*
X26965476Y-32362990D02*
X26934524Y-32208228D01*
X26934524Y-32208228D02*
X26934524Y-32084418D01*
X26934524Y-32084418D02*
X26965476Y-31929656D01*
X26965476Y-31929656D02*
X26996429Y-31836799D01*
X26996429Y-31836799D02*
X27027381Y-31774894D01*
X27027381Y-31774894D02*
X27089286Y-31682037D01*
X27089286Y-31682037D02*
X27120238Y-31651085D01*
X25789286Y-32393942D02*
X26160715Y-32393942D01*
X25975001Y-32393942D02*
X25975001Y-31743942D01*
X25975001Y-31743942D02*
X26036905Y-31836799D01*
X26036905Y-31836799D02*
X26098810Y-31898704D01*
X26098810Y-31898704D02*
X26160715Y-31929656D01*
X25510715Y-32332037D02*
X25479762Y-32362990D01*
X25479762Y-32362990D02*
X25510715Y-32393942D01*
X25510715Y-32393942D02*
X25541667Y-32362990D01*
X25541667Y-32362990D02*
X25510715Y-32332037D01*
X25510715Y-32332037D02*
X25510715Y-32393942D01*
X25232143Y-31805847D02*
X25201191Y-31774894D01*
X25201191Y-31774894D02*
X25139286Y-31743942D01*
X25139286Y-31743942D02*
X24984524Y-31743942D01*
X24984524Y-31743942D02*
X24922619Y-31774894D01*
X24922619Y-31774894D02*
X24891667Y-31805847D01*
X24891667Y-31805847D02*
X24860714Y-31867751D01*
X24860714Y-31867751D02*
X24860714Y-31929656D01*
X24860714Y-31929656D02*
X24891667Y-32022513D01*
X24891667Y-32022513D02*
X25263095Y-32393942D01*
X25263095Y-32393942D02*
X24860714Y-32393942D01*
X24644047Y-31743942D02*
X24210714Y-31743942D01*
X24210714Y-31743942D02*
X24489285Y-32393942D01*
X23963095Y-32393942D02*
X23963095Y-31960609D01*
X23963095Y-32022513D02*
X23932142Y-31991561D01*
X23932142Y-31991561D02*
X23870237Y-31960609D01*
X23870237Y-31960609D02*
X23777380Y-31960609D01*
X23777380Y-31960609D02*
X23715476Y-31991561D01*
X23715476Y-31991561D02*
X23684523Y-32053466D01*
X23684523Y-32053466D02*
X23684523Y-32393942D01*
X23684523Y-32053466D02*
X23653571Y-31991561D01*
X23653571Y-31991561D02*
X23591666Y-31960609D01*
X23591666Y-31960609D02*
X23498809Y-31960609D01*
X23498809Y-31960609D02*
X23436904Y-31991561D01*
X23436904Y-31991561D02*
X23405952Y-32053466D01*
X23405952Y-32053466D02*
X23405952Y-32393942D01*
X23096428Y-32393942D02*
X23096428Y-31960609D01*
X23096428Y-32022513D02*
X23065475Y-31991561D01*
X23065475Y-31991561D02*
X23003570Y-31960609D01*
X23003570Y-31960609D02*
X22910713Y-31960609D01*
X22910713Y-31960609D02*
X22848809Y-31991561D01*
X22848809Y-31991561D02*
X22817856Y-32053466D01*
X22817856Y-32053466D02*
X22817856Y-32393942D01*
X22817856Y-32053466D02*
X22786904Y-31991561D01*
X22786904Y-31991561D02*
X22724999Y-31960609D01*
X22724999Y-31960609D02*
X22632142Y-31960609D01*
X22632142Y-31960609D02*
X22570237Y-31991561D01*
X22570237Y-31991561D02*
X22539285Y-32053466D01*
X22539285Y-32053466D02*
X22539285Y-32393942D01*
X42286903Y-33932037D02*
X42317855Y-33962990D01*
X42317855Y-33962990D02*
X42410713Y-33993942D01*
X42410713Y-33993942D02*
X42472617Y-33993942D01*
X42472617Y-33993942D02*
X42565474Y-33962990D01*
X42565474Y-33962990D02*
X42627379Y-33901085D01*
X42627379Y-33901085D02*
X42658332Y-33839180D01*
X42658332Y-33839180D02*
X42689284Y-33715370D01*
X42689284Y-33715370D02*
X42689284Y-33622513D01*
X42689284Y-33622513D02*
X42658332Y-33498704D01*
X42658332Y-33498704D02*
X42627379Y-33436799D01*
X42627379Y-33436799D02*
X42565474Y-33374894D01*
X42565474Y-33374894D02*
X42472617Y-33343942D01*
X42472617Y-33343942D02*
X42410713Y-33343942D01*
X42410713Y-33343942D02*
X42317855Y-33374894D01*
X42317855Y-33374894D02*
X42286903Y-33405847D01*
X42008332Y-33993942D02*
X42008332Y-33343942D01*
X42008332Y-33343942D02*
X41636903Y-33993942D01*
X41636903Y-33993942D02*
X41636903Y-33343942D01*
X41420237Y-33343942D02*
X41048808Y-33343942D01*
X41234522Y-33993942D02*
X41234522Y-33343942D01*
X40832142Y-33932037D02*
X40801189Y-33962990D01*
X40801189Y-33962990D02*
X40832142Y-33993942D01*
X40832142Y-33993942D02*
X40863094Y-33962990D01*
X40863094Y-33962990D02*
X40832142Y-33932037D01*
X40832142Y-33932037D02*
X40832142Y-33993942D01*
X40832142Y-33591561D02*
X40801189Y-33622513D01*
X40801189Y-33622513D02*
X40832142Y-33653466D01*
X40832142Y-33653466D02*
X40863094Y-33622513D01*
X40863094Y-33622513D02*
X40832142Y-33591561D01*
X40832142Y-33591561D02*
X40832142Y-33653466D01*
X39655951Y-33932037D02*
X39686903Y-33962990D01*
X39686903Y-33962990D02*
X39779761Y-33993942D01*
X39779761Y-33993942D02*
X39841665Y-33993942D01*
X39841665Y-33993942D02*
X39934522Y-33962990D01*
X39934522Y-33962990D02*
X39996427Y-33901085D01*
X39996427Y-33901085D02*
X40027380Y-33839180D01*
X40027380Y-33839180D02*
X40058332Y-33715370D01*
X40058332Y-33715370D02*
X40058332Y-33622513D01*
X40058332Y-33622513D02*
X40027380Y-33498704D01*
X40027380Y-33498704D02*
X39996427Y-33436799D01*
X39996427Y-33436799D02*
X39934522Y-33374894D01*
X39934522Y-33374894D02*
X39841665Y-33343942D01*
X39841665Y-33343942D02*
X39779761Y-33343942D01*
X39779761Y-33343942D02*
X39686903Y-33374894D01*
X39686903Y-33374894D02*
X39655951Y-33405847D01*
X39377380Y-33993942D02*
X39377380Y-33343942D01*
X39377380Y-33343942D02*
X39005951Y-33993942D01*
X39005951Y-33993942D02*
X39005951Y-33343942D01*
X38696428Y-33746323D02*
X38201190Y-33746323D01*
X37520237Y-33932037D02*
X37551189Y-33962990D01*
X37551189Y-33962990D02*
X37644047Y-33993942D01*
X37644047Y-33993942D02*
X37705951Y-33993942D01*
X37705951Y-33993942D02*
X37798808Y-33962990D01*
X37798808Y-33962990D02*
X37860713Y-33901085D01*
X37860713Y-33901085D02*
X37891666Y-33839180D01*
X37891666Y-33839180D02*
X37922618Y-33715370D01*
X37922618Y-33715370D02*
X37922618Y-33622513D01*
X37922618Y-33622513D02*
X37891666Y-33498704D01*
X37891666Y-33498704D02*
X37860713Y-33436799D01*
X37860713Y-33436799D02*
X37798808Y-33374894D01*
X37798808Y-33374894D02*
X37705951Y-33343942D01*
X37705951Y-33343942D02*
X37644047Y-33343942D01*
X37644047Y-33343942D02*
X37551189Y-33374894D01*
X37551189Y-33374894D02*
X37520237Y-33405847D01*
X37241666Y-33993942D02*
X37241666Y-33343942D01*
X37241666Y-33343942D02*
X36870237Y-33993942D01*
X36870237Y-33993942D02*
X36870237Y-33343942D01*
X36653571Y-33343942D02*
X36282142Y-33343942D01*
X36467856Y-33993942D02*
X36467856Y-33343942D01*
X35260714Y-33343942D02*
X35570238Y-33343942D01*
X35570238Y-33343942D02*
X35601190Y-33653466D01*
X35601190Y-33653466D02*
X35570238Y-33622513D01*
X35570238Y-33622513D02*
X35508333Y-33591561D01*
X35508333Y-33591561D02*
X35353571Y-33591561D01*
X35353571Y-33591561D02*
X35291666Y-33622513D01*
X35291666Y-33622513D02*
X35260714Y-33653466D01*
X35260714Y-33653466D02*
X35229761Y-33715370D01*
X35229761Y-33715370D02*
X35229761Y-33870132D01*
X35229761Y-33870132D02*
X35260714Y-33932037D01*
X35260714Y-33932037D02*
X35291666Y-33962990D01*
X35291666Y-33962990D02*
X35353571Y-33993942D01*
X35353571Y-33993942D02*
X35508333Y-33993942D01*
X35508333Y-33993942D02*
X35570238Y-33962990D01*
X35570238Y-33962990D02*
X35601190Y-33932037D01*
X34951190Y-33746323D02*
X34455952Y-33746323D01*
X34146428Y-33560609D02*
X34146428Y-34210609D01*
X34146428Y-33591561D02*
X34084523Y-33560609D01*
X34084523Y-33560609D02*
X33960713Y-33560609D01*
X33960713Y-33560609D02*
X33898809Y-33591561D01*
X33898809Y-33591561D02*
X33867856Y-33622513D01*
X33867856Y-33622513D02*
X33836904Y-33684418D01*
X33836904Y-33684418D02*
X33836904Y-33870132D01*
X33836904Y-33870132D02*
X33867856Y-33932037D01*
X33867856Y-33932037D02*
X33898809Y-33962990D01*
X33898809Y-33962990D02*
X33960713Y-33993942D01*
X33960713Y-33993942D02*
X34084523Y-33993942D01*
X34084523Y-33993942D02*
X34146428Y-33962990D01*
X33558333Y-33993942D02*
X33558333Y-33560609D01*
X33558333Y-33343942D02*
X33589285Y-33374894D01*
X33589285Y-33374894D02*
X33558333Y-33405847D01*
X33558333Y-33405847D02*
X33527380Y-33374894D01*
X33527380Y-33374894D02*
X33558333Y-33343942D01*
X33558333Y-33343942D02*
X33558333Y-33405847D01*
X33248809Y-33560609D02*
X33248809Y-33993942D01*
X33248809Y-33622513D02*
X33217856Y-33591561D01*
X33217856Y-33591561D02*
X33155951Y-33560609D01*
X33155951Y-33560609D02*
X33063094Y-33560609D01*
X33063094Y-33560609D02*
X33001190Y-33591561D01*
X33001190Y-33591561D02*
X32970237Y-33653466D01*
X32970237Y-33653466D02*
X32970237Y-33993942D01*
X31670238Y-33993942D02*
X31670238Y-33343942D01*
X31670238Y-33343942D02*
X31422619Y-33343942D01*
X31422619Y-33343942D02*
X31360714Y-33374894D01*
X31360714Y-33374894D02*
X31329761Y-33405847D01*
X31329761Y-33405847D02*
X31298809Y-33467751D01*
X31298809Y-33467751D02*
X31298809Y-33560609D01*
X31298809Y-33560609D02*
X31329761Y-33622513D01*
X31329761Y-33622513D02*
X31360714Y-33653466D01*
X31360714Y-33653466D02*
X31422619Y-33684418D01*
X31422619Y-33684418D02*
X31670238Y-33684418D01*
X31020238Y-33993942D02*
X31020238Y-33343942D01*
X30710714Y-33993942D02*
X30710714Y-33343942D01*
X30710714Y-33343942D02*
X30339285Y-33993942D01*
X30339285Y-33993942D02*
X30339285Y-33343942D01*
X29751190Y-33560609D02*
X29751190Y-33993942D01*
X29905952Y-33312990D02*
X30060714Y-33777275D01*
X30060714Y-33777275D02*
X29658333Y-33777275D01*
X29410714Y-33653466D02*
X28915476Y-33653466D01*
X28915476Y-33839180D02*
X29410714Y-33839180D01*
X28265475Y-33993942D02*
X28636904Y-33993942D01*
X28451190Y-33993942D02*
X28451190Y-33343942D01*
X28451190Y-33343942D02*
X28513094Y-33436799D01*
X28513094Y-33436799D02*
X28574999Y-33498704D01*
X28574999Y-33498704D02*
X28636904Y-33529656D01*
X28017856Y-33405847D02*
X27986904Y-33374894D01*
X27986904Y-33374894D02*
X27924999Y-33343942D01*
X27924999Y-33343942D02*
X27770237Y-33343942D01*
X27770237Y-33343942D02*
X27708332Y-33374894D01*
X27708332Y-33374894D02*
X27677380Y-33405847D01*
X27677380Y-33405847D02*
X27646427Y-33467751D01*
X27646427Y-33467751D02*
X27646427Y-33529656D01*
X27646427Y-33529656D02*
X27677380Y-33622513D01*
X27677380Y-33622513D02*
X28048808Y-33993942D01*
X28048808Y-33993942D02*
X27646427Y-33993942D01*
X27460713Y-33343942D02*
X27244046Y-33993942D01*
X27244046Y-33993942D02*
X27027379Y-33343942D01*
X26315475Y-33993942D02*
X26315475Y-33343942D01*
X26315475Y-33343942D02*
X25944046Y-33993942D01*
X25944046Y-33993942D02*
X25944046Y-33343942D01*
X25510713Y-33343942D02*
X25386904Y-33343942D01*
X25386904Y-33343942D02*
X25324999Y-33374894D01*
X25324999Y-33374894D02*
X25263094Y-33436799D01*
X25263094Y-33436799D02*
X25232142Y-33560609D01*
X25232142Y-33560609D02*
X25232142Y-33777275D01*
X25232142Y-33777275D02*
X25263094Y-33901085D01*
X25263094Y-33901085D02*
X25324999Y-33962990D01*
X25324999Y-33962990D02*
X25386904Y-33993942D01*
X25386904Y-33993942D02*
X25510713Y-33993942D01*
X25510713Y-33993942D02*
X25572618Y-33962990D01*
X25572618Y-33962990D02*
X25634523Y-33901085D01*
X25634523Y-33901085D02*
X25665475Y-33777275D01*
X25665475Y-33777275D02*
X25665475Y-33560609D01*
X25665475Y-33560609D02*
X25634523Y-33436799D01*
X25634523Y-33436799D02*
X25572618Y-33374894D01*
X25572618Y-33374894D02*
X25510713Y-33343942D01*
X24086904Y-33932037D02*
X24117856Y-33962990D01*
X24117856Y-33962990D02*
X24210714Y-33993942D01*
X24210714Y-33993942D02*
X24272618Y-33993942D01*
X24272618Y-33993942D02*
X24365475Y-33962990D01*
X24365475Y-33962990D02*
X24427380Y-33901085D01*
X24427380Y-33901085D02*
X24458333Y-33839180D01*
X24458333Y-33839180D02*
X24489285Y-33715370D01*
X24489285Y-33715370D02*
X24489285Y-33622513D01*
X24489285Y-33622513D02*
X24458333Y-33498704D01*
X24458333Y-33498704D02*
X24427380Y-33436799D01*
X24427380Y-33436799D02*
X24365475Y-33374894D01*
X24365475Y-33374894D02*
X24272618Y-33343942D01*
X24272618Y-33343942D02*
X24210714Y-33343942D01*
X24210714Y-33343942D02*
X24117856Y-33374894D01*
X24117856Y-33374894D02*
X24086904Y-33405847D01*
X23684523Y-33343942D02*
X23560714Y-33343942D01*
X23560714Y-33343942D02*
X23498809Y-33374894D01*
X23498809Y-33374894D02*
X23436904Y-33436799D01*
X23436904Y-33436799D02*
X23405952Y-33560609D01*
X23405952Y-33560609D02*
X23405952Y-33777275D01*
X23405952Y-33777275D02*
X23436904Y-33901085D01*
X23436904Y-33901085D02*
X23498809Y-33962990D01*
X23498809Y-33962990D02*
X23560714Y-33993942D01*
X23560714Y-33993942D02*
X23684523Y-33993942D01*
X23684523Y-33993942D02*
X23746428Y-33962990D01*
X23746428Y-33962990D02*
X23808333Y-33901085D01*
X23808333Y-33901085D02*
X23839285Y-33777275D01*
X23839285Y-33777275D02*
X23839285Y-33560609D01*
X23839285Y-33560609D02*
X23808333Y-33436799D01*
X23808333Y-33436799D02*
X23746428Y-33374894D01*
X23746428Y-33374894D02*
X23684523Y-33343942D01*
X23127381Y-33993942D02*
X23127381Y-33343942D01*
X23127381Y-33343942D02*
X22755952Y-33993942D01*
X22755952Y-33993942D02*
X22755952Y-33343942D01*
X22446429Y-33993942D02*
X22446429Y-33343942D01*
X22446429Y-33343942D02*
X22075000Y-33993942D01*
X22075000Y-33993942D02*
X22075000Y-33343942D01*
X21765477Y-33653466D02*
X21548810Y-33653466D01*
X21455953Y-33993942D02*
X21765477Y-33993942D01*
X21765477Y-33993942D02*
X21765477Y-33343942D01*
X21765477Y-33343942D02*
X21455953Y-33343942D01*
X20805953Y-33932037D02*
X20836905Y-33962990D01*
X20836905Y-33962990D02*
X20929763Y-33993942D01*
X20929763Y-33993942D02*
X20991667Y-33993942D01*
X20991667Y-33993942D02*
X21084524Y-33962990D01*
X21084524Y-33962990D02*
X21146429Y-33901085D01*
X21146429Y-33901085D02*
X21177382Y-33839180D01*
X21177382Y-33839180D02*
X21208334Y-33715370D01*
X21208334Y-33715370D02*
X21208334Y-33622513D01*
X21208334Y-33622513D02*
X21177382Y-33498704D01*
X21177382Y-33498704D02*
X21146429Y-33436799D01*
X21146429Y-33436799D02*
X21084524Y-33374894D01*
X21084524Y-33374894D02*
X20991667Y-33343942D01*
X20991667Y-33343942D02*
X20929763Y-33343942D01*
X20929763Y-33343942D02*
X20836905Y-33374894D01*
X20836905Y-33374894D02*
X20805953Y-33405847D01*
X20620239Y-33343942D02*
X20248810Y-33343942D01*
X20434524Y-33993942D02*
X20434524Y-33343942D01*
X38433333Y-34943942D02*
X38433333Y-35408228D01*
X38433333Y-35408228D02*
X38464286Y-35501085D01*
X38464286Y-35501085D02*
X38526190Y-35562990D01*
X38526190Y-35562990D02*
X38619048Y-35593942D01*
X38619048Y-35593942D02*
X38680952Y-35593942D01*
X37783333Y-35593942D02*
X38154762Y-35593942D01*
X37969048Y-35593942D02*
X37969048Y-34943942D01*
X37969048Y-34943942D02*
X38030952Y-35036799D01*
X38030952Y-35036799D02*
X38092857Y-35098704D01*
X38092857Y-35098704D02*
X38154762Y-35129656D01*
X37504762Y-35532037D02*
X37473809Y-35562990D01*
X37473809Y-35562990D02*
X37504762Y-35593942D01*
X37504762Y-35593942D02*
X37535714Y-35562990D01*
X37535714Y-35562990D02*
X37504762Y-35532037D01*
X37504762Y-35532037D02*
X37504762Y-35593942D01*
X37504762Y-35191561D02*
X37473809Y-35222513D01*
X37473809Y-35222513D02*
X37504762Y-35253466D01*
X37504762Y-35253466D02*
X37535714Y-35222513D01*
X37535714Y-35222513D02*
X37504762Y-35191561D01*
X37504762Y-35191561D02*
X37504762Y-35253466D01*
X36700000Y-35593942D02*
X36700000Y-34943942D01*
X36266666Y-34943942D02*
X36142857Y-34943942D01*
X36142857Y-34943942D02*
X36080952Y-34974894D01*
X36080952Y-34974894D02*
X36019047Y-35036799D01*
X36019047Y-35036799D02*
X35988095Y-35160609D01*
X35988095Y-35160609D02*
X35988095Y-35377275D01*
X35988095Y-35377275D02*
X36019047Y-35501085D01*
X36019047Y-35501085D02*
X36080952Y-35562990D01*
X36080952Y-35562990D02*
X36142857Y-35593942D01*
X36142857Y-35593942D02*
X36266666Y-35593942D01*
X36266666Y-35593942D02*
X36328571Y-35562990D01*
X36328571Y-35562990D02*
X36390476Y-35501085D01*
X36390476Y-35501085D02*
X36421428Y-35377275D01*
X36421428Y-35377275D02*
X36421428Y-35160609D01*
X36421428Y-35160609D02*
X36390476Y-35036799D01*
X36390476Y-35036799D02*
X36328571Y-34974894D01*
X36328571Y-34974894D02*
X36266666Y-34943942D01*
X35369047Y-35593942D02*
X35740476Y-35593942D01*
X35554762Y-35593942D02*
X35554762Y-34943942D01*
X35554762Y-34943942D02*
X35616666Y-35036799D01*
X35616666Y-35036799D02*
X35678571Y-35098704D01*
X35678571Y-35098704D02*
X35740476Y-35129656D01*
X34595238Y-35593942D02*
X34595238Y-34943942D01*
X34161904Y-34943942D02*
X34038095Y-34943942D01*
X34038095Y-34943942D02*
X33976190Y-34974894D01*
X33976190Y-34974894D02*
X33914285Y-35036799D01*
X33914285Y-35036799D02*
X33883333Y-35160609D01*
X33883333Y-35160609D02*
X33883333Y-35377275D01*
X33883333Y-35377275D02*
X33914285Y-35501085D01*
X33914285Y-35501085D02*
X33976190Y-35562990D01*
X33976190Y-35562990D02*
X34038095Y-35593942D01*
X34038095Y-35593942D02*
X34161904Y-35593942D01*
X34161904Y-35593942D02*
X34223809Y-35562990D01*
X34223809Y-35562990D02*
X34285714Y-35501085D01*
X34285714Y-35501085D02*
X34316666Y-35377275D01*
X34316666Y-35377275D02*
X34316666Y-35160609D01*
X34316666Y-35160609D02*
X34285714Y-35036799D01*
X34285714Y-35036799D02*
X34223809Y-34974894D01*
X34223809Y-34974894D02*
X34161904Y-34943942D01*
X33480952Y-34943942D02*
X33419047Y-34943942D01*
X33419047Y-34943942D02*
X33357143Y-34974894D01*
X33357143Y-34974894D02*
X33326190Y-35005847D01*
X33326190Y-35005847D02*
X33295238Y-35067751D01*
X33295238Y-35067751D02*
X33264285Y-35191561D01*
X33264285Y-35191561D02*
X33264285Y-35346323D01*
X33264285Y-35346323D02*
X33295238Y-35470132D01*
X33295238Y-35470132D02*
X33326190Y-35532037D01*
X33326190Y-35532037D02*
X33357143Y-35562990D01*
X33357143Y-35562990D02*
X33419047Y-35593942D01*
X33419047Y-35593942D02*
X33480952Y-35593942D01*
X33480952Y-35593942D02*
X33542857Y-35562990D01*
X33542857Y-35562990D02*
X33573809Y-35532037D01*
X33573809Y-35532037D02*
X33604762Y-35470132D01*
X33604762Y-35470132D02*
X33635714Y-35346323D01*
X33635714Y-35346323D02*
X33635714Y-35191561D01*
X33635714Y-35191561D02*
X33604762Y-35067751D01*
X33604762Y-35067751D02*
X33573809Y-35005847D01*
X33573809Y-35005847D02*
X33542857Y-34974894D01*
X33542857Y-34974894D02*
X33480952Y-34943942D01*
X32149999Y-34974894D02*
X32211904Y-34943942D01*
X32211904Y-34943942D02*
X32304761Y-34943942D01*
X32304761Y-34943942D02*
X32397618Y-34974894D01*
X32397618Y-34974894D02*
X32459523Y-35036799D01*
X32459523Y-35036799D02*
X32490476Y-35098704D01*
X32490476Y-35098704D02*
X32521428Y-35222513D01*
X32521428Y-35222513D02*
X32521428Y-35315370D01*
X32521428Y-35315370D02*
X32490476Y-35439180D01*
X32490476Y-35439180D02*
X32459523Y-35501085D01*
X32459523Y-35501085D02*
X32397618Y-35562990D01*
X32397618Y-35562990D02*
X32304761Y-35593942D01*
X32304761Y-35593942D02*
X32242857Y-35593942D01*
X32242857Y-35593942D02*
X32149999Y-35562990D01*
X32149999Y-35562990D02*
X32119047Y-35532037D01*
X32119047Y-35532037D02*
X32119047Y-35315370D01*
X32119047Y-35315370D02*
X32242857Y-35315370D01*
X31840476Y-35593942D02*
X31840476Y-34943942D01*
X31840476Y-34943942D02*
X31469047Y-35593942D01*
X31469047Y-35593942D02*
X31469047Y-34943942D01*
X31159524Y-35593942D02*
X31159524Y-34943942D01*
X31159524Y-34943942D02*
X31004762Y-34943942D01*
X31004762Y-34943942D02*
X30911905Y-34974894D01*
X30911905Y-34974894D02*
X30850000Y-35036799D01*
X30850000Y-35036799D02*
X30819047Y-35098704D01*
X30819047Y-35098704D02*
X30788095Y-35222513D01*
X30788095Y-35222513D02*
X30788095Y-35315370D01*
X30788095Y-35315370D02*
X30819047Y-35439180D01*
X30819047Y-35439180D02*
X30850000Y-35501085D01*
X30850000Y-35501085D02*
X30911905Y-35562990D01*
X30911905Y-35562990D02*
X31004762Y-35593942D01*
X31004762Y-35593942D02*
X31159524Y-35593942D01*
X30076190Y-34943942D02*
X29673809Y-34943942D01*
X29673809Y-34943942D02*
X29890476Y-35191561D01*
X29890476Y-35191561D02*
X29797619Y-35191561D01*
X29797619Y-35191561D02*
X29735714Y-35222513D01*
X29735714Y-35222513D02*
X29704762Y-35253466D01*
X29704762Y-35253466D02*
X29673809Y-35315370D01*
X29673809Y-35315370D02*
X29673809Y-35470132D01*
X29673809Y-35470132D02*
X29704762Y-35532037D01*
X29704762Y-35532037D02*
X29735714Y-35562990D01*
X29735714Y-35562990D02*
X29797619Y-35593942D01*
X29797619Y-35593942D02*
X29983333Y-35593942D01*
X29983333Y-35593942D02*
X30045238Y-35562990D01*
X30045238Y-35562990D02*
X30076190Y-35532037D01*
X29488095Y-34943942D02*
X29271428Y-35593942D01*
X29271428Y-35593942D02*
X29054761Y-34943942D01*
X28899999Y-34943942D02*
X28497618Y-34943942D01*
X28497618Y-34943942D02*
X28714285Y-35191561D01*
X28714285Y-35191561D02*
X28621428Y-35191561D01*
X28621428Y-35191561D02*
X28559523Y-35222513D01*
X28559523Y-35222513D02*
X28528571Y-35253466D01*
X28528571Y-35253466D02*
X28497618Y-35315370D01*
X28497618Y-35315370D02*
X28497618Y-35470132D01*
X28497618Y-35470132D02*
X28528571Y-35532037D01*
X28528571Y-35532037D02*
X28559523Y-35562990D01*
X28559523Y-35562990D02*
X28621428Y-35593942D01*
X28621428Y-35593942D02*
X28807142Y-35593942D01*
X28807142Y-35593942D02*
X28869047Y-35562990D01*
X28869047Y-35562990D02*
X28899999Y-35532037D01*
X27538094Y-35841561D02*
X27569047Y-35810609D01*
X27569047Y-35810609D02*
X27630951Y-35717751D01*
X27630951Y-35717751D02*
X27661904Y-35655847D01*
X27661904Y-35655847D02*
X27692856Y-35562990D01*
X27692856Y-35562990D02*
X27723809Y-35408228D01*
X27723809Y-35408228D02*
X27723809Y-35284418D01*
X27723809Y-35284418D02*
X27692856Y-35129656D01*
X27692856Y-35129656D02*
X27661904Y-35036799D01*
X27661904Y-35036799D02*
X27630951Y-34974894D01*
X27630951Y-34974894D02*
X27569047Y-34882037D01*
X27569047Y-34882037D02*
X27538094Y-34851085D01*
X27011904Y-35593942D02*
X27011904Y-34943942D01*
X27011904Y-35562990D02*
X27073809Y-35593942D01*
X27073809Y-35593942D02*
X27197618Y-35593942D01*
X27197618Y-35593942D02*
X27259523Y-35562990D01*
X27259523Y-35562990D02*
X27290476Y-35532037D01*
X27290476Y-35532037D02*
X27321428Y-35470132D01*
X27321428Y-35470132D02*
X27321428Y-35284418D01*
X27321428Y-35284418D02*
X27290476Y-35222513D01*
X27290476Y-35222513D02*
X27259523Y-35191561D01*
X27259523Y-35191561D02*
X27197618Y-35160609D01*
X27197618Y-35160609D02*
X27073809Y-35160609D01*
X27073809Y-35160609D02*
X27011904Y-35191561D01*
X26702381Y-35593942D02*
X26702381Y-35160609D01*
X26702381Y-34943942D02*
X26733333Y-34974894D01*
X26733333Y-34974894D02*
X26702381Y-35005847D01*
X26702381Y-35005847D02*
X26671428Y-34974894D01*
X26671428Y-34974894D02*
X26702381Y-34943942D01*
X26702381Y-34943942D02*
X26702381Y-35005847D01*
X26392857Y-35593942D02*
X26392857Y-35160609D01*
X26392857Y-35284418D02*
X26361904Y-35222513D01*
X26361904Y-35222513D02*
X26330952Y-35191561D01*
X26330952Y-35191561D02*
X26269047Y-35160609D01*
X26269047Y-35160609D02*
X26207142Y-35160609D01*
X25742857Y-35562990D02*
X25804761Y-35593942D01*
X25804761Y-35593942D02*
X25928571Y-35593942D01*
X25928571Y-35593942D02*
X25990476Y-35562990D01*
X25990476Y-35562990D02*
X26021428Y-35501085D01*
X26021428Y-35501085D02*
X26021428Y-35253466D01*
X26021428Y-35253466D02*
X25990476Y-35191561D01*
X25990476Y-35191561D02*
X25928571Y-35160609D01*
X25928571Y-35160609D02*
X25804761Y-35160609D01*
X25804761Y-35160609D02*
X25742857Y-35191561D01*
X25742857Y-35191561D02*
X25711904Y-35253466D01*
X25711904Y-35253466D02*
X25711904Y-35315370D01*
X25711904Y-35315370D02*
X26021428Y-35377275D01*
X25154761Y-35562990D02*
X25216666Y-35593942D01*
X25216666Y-35593942D02*
X25340475Y-35593942D01*
X25340475Y-35593942D02*
X25402380Y-35562990D01*
X25402380Y-35562990D02*
X25433333Y-35532037D01*
X25433333Y-35532037D02*
X25464285Y-35470132D01*
X25464285Y-35470132D02*
X25464285Y-35284418D01*
X25464285Y-35284418D02*
X25433333Y-35222513D01*
X25433333Y-35222513D02*
X25402380Y-35191561D01*
X25402380Y-35191561D02*
X25340475Y-35160609D01*
X25340475Y-35160609D02*
X25216666Y-35160609D01*
X25216666Y-35160609D02*
X25154761Y-35191561D01*
X24969047Y-35160609D02*
X24721428Y-35160609D01*
X24876190Y-34943942D02*
X24876190Y-35501085D01*
X24876190Y-35501085D02*
X24845237Y-35562990D01*
X24845237Y-35562990D02*
X24783332Y-35593942D01*
X24783332Y-35593942D02*
X24721428Y-35593942D01*
X24566665Y-35841561D02*
X24535713Y-35810609D01*
X24535713Y-35810609D02*
X24473808Y-35717751D01*
X24473808Y-35717751D02*
X24442856Y-35655847D01*
X24442856Y-35655847D02*
X24411903Y-35562990D01*
X24411903Y-35562990D02*
X24380951Y-35408228D01*
X24380951Y-35408228D02*
X24380951Y-35284418D01*
X24380951Y-35284418D02*
X24411903Y-35129656D01*
X24411903Y-35129656D02*
X24442856Y-35036799D01*
X24442856Y-35036799D02*
X24473808Y-34974894D01*
X24473808Y-34974894D02*
X24535713Y-34882037D01*
X24535713Y-34882037D02*
X24566665Y-34851085D01*
X39516665Y-36543942D02*
X39516665Y-37008228D01*
X39516665Y-37008228D02*
X39547618Y-37101085D01*
X39547618Y-37101085D02*
X39609522Y-37162990D01*
X39609522Y-37162990D02*
X39702380Y-37193942D01*
X39702380Y-37193942D02*
X39764284Y-37193942D01*
X39238094Y-36605847D02*
X39207142Y-36574894D01*
X39207142Y-36574894D02*
X39145237Y-36543942D01*
X39145237Y-36543942D02*
X38990475Y-36543942D01*
X38990475Y-36543942D02*
X38928570Y-36574894D01*
X38928570Y-36574894D02*
X38897618Y-36605847D01*
X38897618Y-36605847D02*
X38866665Y-36667751D01*
X38866665Y-36667751D02*
X38866665Y-36729656D01*
X38866665Y-36729656D02*
X38897618Y-36822513D01*
X38897618Y-36822513D02*
X39269046Y-37193942D01*
X39269046Y-37193942D02*
X38866665Y-37193942D01*
X38588094Y-37132037D02*
X38557141Y-37162990D01*
X38557141Y-37162990D02*
X38588094Y-37193942D01*
X38588094Y-37193942D02*
X38619046Y-37162990D01*
X38619046Y-37162990D02*
X38588094Y-37132037D01*
X38588094Y-37132037D02*
X38588094Y-37193942D01*
X38588094Y-36791561D02*
X38557141Y-36822513D01*
X38557141Y-36822513D02*
X38588094Y-36853466D01*
X38588094Y-36853466D02*
X38619046Y-36822513D01*
X38619046Y-36822513D02*
X38588094Y-36791561D01*
X38588094Y-36791561D02*
X38588094Y-36853466D01*
X37783332Y-37193942D02*
X37783332Y-36543942D01*
X37349998Y-36543942D02*
X37226189Y-36543942D01*
X37226189Y-36543942D02*
X37164284Y-36574894D01*
X37164284Y-36574894D02*
X37102379Y-36636799D01*
X37102379Y-36636799D02*
X37071427Y-36760609D01*
X37071427Y-36760609D02*
X37071427Y-36977275D01*
X37071427Y-36977275D02*
X37102379Y-37101085D01*
X37102379Y-37101085D02*
X37164284Y-37162990D01*
X37164284Y-37162990D02*
X37226189Y-37193942D01*
X37226189Y-37193942D02*
X37349998Y-37193942D01*
X37349998Y-37193942D02*
X37411903Y-37162990D01*
X37411903Y-37162990D02*
X37473808Y-37101085D01*
X37473808Y-37101085D02*
X37504760Y-36977275D01*
X37504760Y-36977275D02*
X37504760Y-36760609D01*
X37504760Y-36760609D02*
X37473808Y-36636799D01*
X37473808Y-36636799D02*
X37411903Y-36574894D01*
X37411903Y-36574894D02*
X37349998Y-36543942D01*
X36452379Y-37193942D02*
X36823808Y-37193942D01*
X36638094Y-37193942D02*
X36638094Y-36543942D01*
X36638094Y-36543942D02*
X36699998Y-36636799D01*
X36699998Y-36636799D02*
X36761903Y-36698704D01*
X36761903Y-36698704D02*
X36823808Y-36729656D01*
X36049998Y-36543942D02*
X35988093Y-36543942D01*
X35988093Y-36543942D02*
X35926189Y-36574894D01*
X35926189Y-36574894D02*
X35895236Y-36605847D01*
X35895236Y-36605847D02*
X35864284Y-36667751D01*
X35864284Y-36667751D02*
X35833331Y-36791561D01*
X35833331Y-36791561D02*
X35833331Y-36946323D01*
X35833331Y-36946323D02*
X35864284Y-37070132D01*
X35864284Y-37070132D02*
X35895236Y-37132037D01*
X35895236Y-37132037D02*
X35926189Y-37162990D01*
X35926189Y-37162990D02*
X35988093Y-37193942D01*
X35988093Y-37193942D02*
X36049998Y-37193942D01*
X36049998Y-37193942D02*
X36111903Y-37162990D01*
X36111903Y-37162990D02*
X36142855Y-37132037D01*
X36142855Y-37132037D02*
X36173808Y-37070132D01*
X36173808Y-37070132D02*
X36204760Y-36946323D01*
X36204760Y-36946323D02*
X36204760Y-36791561D01*
X36204760Y-36791561D02*
X36173808Y-36667751D01*
X36173808Y-36667751D02*
X36142855Y-36605847D01*
X36142855Y-36605847D02*
X36111903Y-36574894D01*
X36111903Y-36574894D02*
X36049998Y-36543942D01*
X35059522Y-37193942D02*
X35059522Y-36543942D01*
X34626188Y-36543942D02*
X34502379Y-36543942D01*
X34502379Y-36543942D02*
X34440474Y-36574894D01*
X34440474Y-36574894D02*
X34378569Y-36636799D01*
X34378569Y-36636799D02*
X34347617Y-36760609D01*
X34347617Y-36760609D02*
X34347617Y-36977275D01*
X34347617Y-36977275D02*
X34378569Y-37101085D01*
X34378569Y-37101085D02*
X34440474Y-37162990D01*
X34440474Y-37162990D02*
X34502379Y-37193942D01*
X34502379Y-37193942D02*
X34626188Y-37193942D01*
X34626188Y-37193942D02*
X34688093Y-37162990D01*
X34688093Y-37162990D02*
X34749998Y-37101085D01*
X34749998Y-37101085D02*
X34780950Y-36977275D01*
X34780950Y-36977275D02*
X34780950Y-36760609D01*
X34780950Y-36760609D02*
X34749998Y-36636799D01*
X34749998Y-36636799D02*
X34688093Y-36574894D01*
X34688093Y-36574894D02*
X34626188Y-36543942D01*
X34130950Y-36543942D02*
X33697617Y-36543942D01*
X33697617Y-36543942D02*
X33976188Y-37193942D01*
X32614283Y-36574894D02*
X32676188Y-36543942D01*
X32676188Y-36543942D02*
X32769045Y-36543942D01*
X32769045Y-36543942D02*
X32861902Y-36574894D01*
X32861902Y-36574894D02*
X32923807Y-36636799D01*
X32923807Y-36636799D02*
X32954760Y-36698704D01*
X32954760Y-36698704D02*
X32985712Y-36822513D01*
X32985712Y-36822513D02*
X32985712Y-36915370D01*
X32985712Y-36915370D02*
X32954760Y-37039180D01*
X32954760Y-37039180D02*
X32923807Y-37101085D01*
X32923807Y-37101085D02*
X32861902Y-37162990D01*
X32861902Y-37162990D02*
X32769045Y-37193942D01*
X32769045Y-37193942D02*
X32707141Y-37193942D01*
X32707141Y-37193942D02*
X32614283Y-37162990D01*
X32614283Y-37162990D02*
X32583331Y-37132037D01*
X32583331Y-37132037D02*
X32583331Y-36915370D01*
X32583331Y-36915370D02*
X32707141Y-36915370D01*
X32304760Y-37193942D02*
X32304760Y-36543942D01*
X32304760Y-36543942D02*
X31933331Y-37193942D01*
X31933331Y-37193942D02*
X31933331Y-36543942D01*
X31623808Y-37193942D02*
X31623808Y-36543942D01*
X31623808Y-36543942D02*
X31469046Y-36543942D01*
X31469046Y-36543942D02*
X31376189Y-36574894D01*
X31376189Y-36574894D02*
X31314284Y-36636799D01*
X31314284Y-36636799D02*
X31283331Y-36698704D01*
X31283331Y-36698704D02*
X31252379Y-36822513D01*
X31252379Y-36822513D02*
X31252379Y-36915370D01*
X31252379Y-36915370D02*
X31283331Y-37039180D01*
X31283331Y-37039180D02*
X31314284Y-37101085D01*
X31314284Y-37101085D02*
X31376189Y-37162990D01*
X31376189Y-37162990D02*
X31469046Y-37193942D01*
X31469046Y-37193942D02*
X31623808Y-37193942D01*
X30169046Y-36543942D02*
X30478570Y-36543942D01*
X30478570Y-36543942D02*
X30509522Y-36853466D01*
X30509522Y-36853466D02*
X30478570Y-36822513D01*
X30478570Y-36822513D02*
X30416665Y-36791561D01*
X30416665Y-36791561D02*
X30261903Y-36791561D01*
X30261903Y-36791561D02*
X30199998Y-36822513D01*
X30199998Y-36822513D02*
X30169046Y-36853466D01*
X30169046Y-36853466D02*
X30138093Y-36915370D01*
X30138093Y-36915370D02*
X30138093Y-37070132D01*
X30138093Y-37070132D02*
X30169046Y-37132037D01*
X30169046Y-37132037D02*
X30199998Y-37162990D01*
X30199998Y-37162990D02*
X30261903Y-37193942D01*
X30261903Y-37193942D02*
X30416665Y-37193942D01*
X30416665Y-37193942D02*
X30478570Y-37162990D01*
X30478570Y-37162990D02*
X30509522Y-37132037D01*
X29952379Y-36543942D02*
X29735712Y-37193942D01*
X29735712Y-37193942D02*
X29519045Y-36543942D01*
X28621426Y-37441561D02*
X28652379Y-37410609D01*
X28652379Y-37410609D02*
X28714283Y-37317751D01*
X28714283Y-37317751D02*
X28745236Y-37255847D01*
X28745236Y-37255847D02*
X28776188Y-37162990D01*
X28776188Y-37162990D02*
X28807141Y-37008228D01*
X28807141Y-37008228D02*
X28807141Y-36884418D01*
X28807141Y-36884418D02*
X28776188Y-36729656D01*
X28776188Y-36729656D02*
X28745236Y-36636799D01*
X28745236Y-36636799D02*
X28714283Y-36574894D01*
X28714283Y-36574894D02*
X28652379Y-36482037D01*
X28652379Y-36482037D02*
X28621426Y-36451085D01*
X28373808Y-37193942D02*
X28373808Y-36760609D01*
X28373808Y-36543942D02*
X28404760Y-36574894D01*
X28404760Y-36574894D02*
X28373808Y-36605847D01*
X28373808Y-36605847D02*
X28342855Y-36574894D01*
X28342855Y-36574894D02*
X28373808Y-36543942D01*
X28373808Y-36543942D02*
X28373808Y-36605847D01*
X28064284Y-36760609D02*
X28064284Y-37193942D01*
X28064284Y-36822513D02*
X28033331Y-36791561D01*
X28033331Y-36791561D02*
X27971426Y-36760609D01*
X27971426Y-36760609D02*
X27878569Y-36760609D01*
X27878569Y-36760609D02*
X27816665Y-36791561D01*
X27816665Y-36791561D02*
X27785712Y-36853466D01*
X27785712Y-36853466D02*
X27785712Y-37193942D01*
X27476189Y-36760609D02*
X27476189Y-37410609D01*
X27476189Y-36791561D02*
X27414284Y-36760609D01*
X27414284Y-36760609D02*
X27290474Y-36760609D01*
X27290474Y-36760609D02*
X27228570Y-36791561D01*
X27228570Y-36791561D02*
X27197617Y-36822513D01*
X27197617Y-36822513D02*
X27166665Y-36884418D01*
X27166665Y-36884418D02*
X27166665Y-37070132D01*
X27166665Y-37070132D02*
X27197617Y-37132037D01*
X27197617Y-37132037D02*
X27228570Y-37162990D01*
X27228570Y-37162990D02*
X27290474Y-37193942D01*
X27290474Y-37193942D02*
X27414284Y-37193942D01*
X27414284Y-37193942D02*
X27476189Y-37162990D01*
X26609522Y-36760609D02*
X26609522Y-37193942D01*
X26888094Y-36760609D02*
X26888094Y-37101085D01*
X26888094Y-37101085D02*
X26857141Y-37162990D01*
X26857141Y-37162990D02*
X26795236Y-37193942D01*
X26795236Y-37193942D02*
X26702379Y-37193942D01*
X26702379Y-37193942D02*
X26640475Y-37162990D01*
X26640475Y-37162990D02*
X26609522Y-37132037D01*
X26392856Y-36760609D02*
X26145237Y-36760609D01*
X26299999Y-36543942D02*
X26299999Y-37101085D01*
X26299999Y-37101085D02*
X26269046Y-37162990D01*
X26269046Y-37162990D02*
X26207141Y-37193942D01*
X26207141Y-37193942D02*
X26145237Y-37193942D01*
X25340474Y-37193942D02*
X25402379Y-37162990D01*
X25402379Y-37162990D02*
X25433332Y-37132037D01*
X25433332Y-37132037D02*
X25464284Y-37070132D01*
X25464284Y-37070132D02*
X25464284Y-36884418D01*
X25464284Y-36884418D02*
X25433332Y-36822513D01*
X25433332Y-36822513D02*
X25402379Y-36791561D01*
X25402379Y-36791561D02*
X25340474Y-36760609D01*
X25340474Y-36760609D02*
X25247617Y-36760609D01*
X25247617Y-36760609D02*
X25185713Y-36791561D01*
X25185713Y-36791561D02*
X25154760Y-36822513D01*
X25154760Y-36822513D02*
X25123808Y-36884418D01*
X25123808Y-36884418D02*
X25123808Y-37070132D01*
X25123808Y-37070132D02*
X25154760Y-37132037D01*
X25154760Y-37132037D02*
X25185713Y-37162990D01*
X25185713Y-37162990D02*
X25247617Y-37193942D01*
X25247617Y-37193942D02*
X25340474Y-37193942D01*
X24845237Y-36760609D02*
X24845237Y-37193942D01*
X24845237Y-36822513D02*
X24814284Y-36791561D01*
X24814284Y-36791561D02*
X24752379Y-36760609D01*
X24752379Y-36760609D02*
X24659522Y-36760609D01*
X24659522Y-36760609D02*
X24597618Y-36791561D01*
X24597618Y-36791561D02*
X24566665Y-36853466D01*
X24566665Y-36853466D02*
X24566665Y-37193942D01*
X24164284Y-37193942D02*
X24226189Y-37162990D01*
X24226189Y-37162990D02*
X24257142Y-37101085D01*
X24257142Y-37101085D02*
X24257142Y-36543942D01*
X23978570Y-36760609D02*
X23823808Y-37193942D01*
X23669047Y-36760609D02*
X23823808Y-37193942D01*
X23823808Y-37193942D02*
X23885713Y-37348704D01*
X23885713Y-37348704D02*
X23916666Y-37379656D01*
X23916666Y-37379656D02*
X23978570Y-37410609D01*
X23483332Y-37441561D02*
X23452380Y-37410609D01*
X23452380Y-37410609D02*
X23390475Y-37317751D01*
X23390475Y-37317751D02*
X23359523Y-37255847D01*
X23359523Y-37255847D02*
X23328570Y-37162990D01*
X23328570Y-37162990D02*
X23297618Y-37008228D01*
X23297618Y-37008228D02*
X23297618Y-36884418D01*
X23297618Y-36884418D02*
X23328570Y-36729656D01*
X23328570Y-36729656D02*
X23359523Y-36636799D01*
X23359523Y-36636799D02*
X23390475Y-36574894D01*
X23390475Y-36574894D02*
X23452380Y-36482037D01*
X23452380Y-36482037D02*
X23483332Y-36451085D01*
X39532144Y-38143942D02*
X39532144Y-38670132D01*
X39532144Y-38670132D02*
X39501191Y-38732037D01*
X39501191Y-38732037D02*
X39470239Y-38762990D01*
X39470239Y-38762990D02*
X39408334Y-38793942D01*
X39408334Y-38793942D02*
X39284525Y-38793942D01*
X39284525Y-38793942D02*
X39222620Y-38762990D01*
X39222620Y-38762990D02*
X39191667Y-38732037D01*
X39191667Y-38732037D02*
X39160715Y-38670132D01*
X39160715Y-38670132D02*
X39160715Y-38143942D01*
X38882144Y-38608228D02*
X38572620Y-38608228D01*
X38944049Y-38793942D02*
X38727382Y-38143942D01*
X38727382Y-38143942D02*
X38510715Y-38793942D01*
X37922620Y-38793942D02*
X38139287Y-38484418D01*
X38294049Y-38793942D02*
X38294049Y-38143942D01*
X38294049Y-38143942D02*
X38046430Y-38143942D01*
X38046430Y-38143942D02*
X37984525Y-38174894D01*
X37984525Y-38174894D02*
X37953572Y-38205847D01*
X37953572Y-38205847D02*
X37922620Y-38267751D01*
X37922620Y-38267751D02*
X37922620Y-38360609D01*
X37922620Y-38360609D02*
X37953572Y-38422513D01*
X37953572Y-38422513D02*
X37984525Y-38453466D01*
X37984525Y-38453466D02*
X38046430Y-38484418D01*
X38046430Y-38484418D02*
X38294049Y-38484418D01*
X37736906Y-38143942D02*
X37365477Y-38143942D01*
X37551191Y-38793942D02*
X37551191Y-38143942D01*
X36622620Y-38793942D02*
X36498811Y-38793942D01*
X36498811Y-38793942D02*
X36436906Y-38762990D01*
X36436906Y-38762990D02*
X36405954Y-38732037D01*
X36405954Y-38732037D02*
X36344049Y-38639180D01*
X36344049Y-38639180D02*
X36313096Y-38515370D01*
X36313096Y-38515370D02*
X36313096Y-38267751D01*
X36313096Y-38267751D02*
X36344049Y-38205847D01*
X36344049Y-38205847D02*
X36375001Y-38174894D01*
X36375001Y-38174894D02*
X36436906Y-38143942D01*
X36436906Y-38143942D02*
X36560715Y-38143942D01*
X36560715Y-38143942D02*
X36622620Y-38174894D01*
X36622620Y-38174894D02*
X36653573Y-38205847D01*
X36653573Y-38205847D02*
X36684525Y-38267751D01*
X36684525Y-38267751D02*
X36684525Y-38422513D01*
X36684525Y-38422513D02*
X36653573Y-38484418D01*
X36653573Y-38484418D02*
X36622620Y-38515370D01*
X36622620Y-38515370D02*
X36560715Y-38546323D01*
X36560715Y-38546323D02*
X36436906Y-38546323D01*
X36436906Y-38546323D02*
X36375001Y-38515370D01*
X36375001Y-38515370D02*
X36344049Y-38484418D01*
X36344049Y-38484418D02*
X36313096Y-38422513D01*
X35755953Y-38143942D02*
X35879763Y-38143942D01*
X35879763Y-38143942D02*
X35941667Y-38174894D01*
X35941667Y-38174894D02*
X35972620Y-38205847D01*
X35972620Y-38205847D02*
X36034525Y-38298704D01*
X36034525Y-38298704D02*
X36065477Y-38422513D01*
X36065477Y-38422513D02*
X36065477Y-38670132D01*
X36065477Y-38670132D02*
X36034525Y-38732037D01*
X36034525Y-38732037D02*
X36003572Y-38762990D01*
X36003572Y-38762990D02*
X35941667Y-38793942D01*
X35941667Y-38793942D02*
X35817858Y-38793942D01*
X35817858Y-38793942D02*
X35755953Y-38762990D01*
X35755953Y-38762990D02*
X35725001Y-38732037D01*
X35725001Y-38732037D02*
X35694048Y-38670132D01*
X35694048Y-38670132D02*
X35694048Y-38515370D01*
X35694048Y-38515370D02*
X35725001Y-38453466D01*
X35725001Y-38453466D02*
X35755953Y-38422513D01*
X35755953Y-38422513D02*
X35817858Y-38391561D01*
X35817858Y-38391561D02*
X35941667Y-38391561D01*
X35941667Y-38391561D02*
X36003572Y-38422513D01*
X36003572Y-38422513D02*
X36034525Y-38453466D01*
X36034525Y-38453466D02*
X36065477Y-38515370D01*
X35291667Y-38143942D02*
X35229762Y-38143942D01*
X35229762Y-38143942D02*
X35167858Y-38174894D01*
X35167858Y-38174894D02*
X35136905Y-38205847D01*
X35136905Y-38205847D02*
X35105953Y-38267751D01*
X35105953Y-38267751D02*
X35075000Y-38391561D01*
X35075000Y-38391561D02*
X35075000Y-38546323D01*
X35075000Y-38546323D02*
X35105953Y-38670132D01*
X35105953Y-38670132D02*
X35136905Y-38732037D01*
X35136905Y-38732037D02*
X35167858Y-38762990D01*
X35167858Y-38762990D02*
X35229762Y-38793942D01*
X35229762Y-38793942D02*
X35291667Y-38793942D01*
X35291667Y-38793942D02*
X35353572Y-38762990D01*
X35353572Y-38762990D02*
X35384524Y-38732037D01*
X35384524Y-38732037D02*
X35415477Y-38670132D01*
X35415477Y-38670132D02*
X35446429Y-38546323D01*
X35446429Y-38546323D02*
X35446429Y-38391561D01*
X35446429Y-38391561D02*
X35415477Y-38267751D01*
X35415477Y-38267751D02*
X35384524Y-38205847D01*
X35384524Y-38205847D02*
X35353572Y-38174894D01*
X35353572Y-38174894D02*
X35291667Y-38143942D01*
X34672619Y-38143942D02*
X34610714Y-38143942D01*
X34610714Y-38143942D02*
X34548810Y-38174894D01*
X34548810Y-38174894D02*
X34517857Y-38205847D01*
X34517857Y-38205847D02*
X34486905Y-38267751D01*
X34486905Y-38267751D02*
X34455952Y-38391561D01*
X34455952Y-38391561D02*
X34455952Y-38546323D01*
X34455952Y-38546323D02*
X34486905Y-38670132D01*
X34486905Y-38670132D02*
X34517857Y-38732037D01*
X34517857Y-38732037D02*
X34548810Y-38762990D01*
X34548810Y-38762990D02*
X34610714Y-38793942D01*
X34610714Y-38793942D02*
X34672619Y-38793942D01*
X34672619Y-38793942D02*
X34734524Y-38762990D01*
X34734524Y-38762990D02*
X34765476Y-38732037D01*
X34765476Y-38732037D02*
X34796429Y-38670132D01*
X34796429Y-38670132D02*
X34827381Y-38546323D01*
X34827381Y-38546323D02*
X34827381Y-38391561D01*
X34827381Y-38391561D02*
X34796429Y-38267751D01*
X34796429Y-38267751D02*
X34765476Y-38205847D01*
X34765476Y-38205847D02*
X34734524Y-38174894D01*
X34734524Y-38174894D02*
X34672619Y-38143942D01*
X33589285Y-38422513D02*
X33651190Y-38391561D01*
X33651190Y-38391561D02*
X33682143Y-38360609D01*
X33682143Y-38360609D02*
X33713095Y-38298704D01*
X33713095Y-38298704D02*
X33713095Y-38267751D01*
X33713095Y-38267751D02*
X33682143Y-38205847D01*
X33682143Y-38205847D02*
X33651190Y-38174894D01*
X33651190Y-38174894D02*
X33589285Y-38143942D01*
X33589285Y-38143942D02*
X33465476Y-38143942D01*
X33465476Y-38143942D02*
X33403571Y-38174894D01*
X33403571Y-38174894D02*
X33372619Y-38205847D01*
X33372619Y-38205847D02*
X33341666Y-38267751D01*
X33341666Y-38267751D02*
X33341666Y-38298704D01*
X33341666Y-38298704D02*
X33372619Y-38360609D01*
X33372619Y-38360609D02*
X33403571Y-38391561D01*
X33403571Y-38391561D02*
X33465476Y-38422513D01*
X33465476Y-38422513D02*
X33589285Y-38422513D01*
X33589285Y-38422513D02*
X33651190Y-38453466D01*
X33651190Y-38453466D02*
X33682143Y-38484418D01*
X33682143Y-38484418D02*
X33713095Y-38546323D01*
X33713095Y-38546323D02*
X33713095Y-38670132D01*
X33713095Y-38670132D02*
X33682143Y-38732037D01*
X33682143Y-38732037D02*
X33651190Y-38762990D01*
X33651190Y-38762990D02*
X33589285Y-38793942D01*
X33589285Y-38793942D02*
X33465476Y-38793942D01*
X33465476Y-38793942D02*
X33403571Y-38762990D01*
X33403571Y-38762990D02*
X33372619Y-38732037D01*
X33372619Y-38732037D02*
X33341666Y-38670132D01*
X33341666Y-38670132D02*
X33341666Y-38546323D01*
X33341666Y-38546323D02*
X33372619Y-38484418D01*
X33372619Y-38484418D02*
X33403571Y-38453466D01*
X33403571Y-38453466D02*
X33465476Y-38422513D01*
X33063095Y-38453466D02*
X32846428Y-38453466D01*
X32753571Y-38793942D02*
X33063095Y-38793942D01*
X33063095Y-38793942D02*
X33063095Y-38143942D01*
X33063095Y-38143942D02*
X32753571Y-38143942D01*
X32134523Y-38793942D02*
X32505952Y-38793942D01*
X32320238Y-38793942D02*
X32320238Y-38143942D01*
X32320238Y-38143942D02*
X32382142Y-38236799D01*
X32382142Y-38236799D02*
X32444047Y-38298704D01*
X32444047Y-38298704D02*
X32505952Y-38329656D01*
X30958333Y-38143942D02*
X30586904Y-38143942D01*
X30772618Y-38793942D02*
X30772618Y-38143942D01*
X30432142Y-38143942D02*
X29998809Y-38793942D01*
X29998809Y-38143942D02*
X30432142Y-38793942D01*
X29751190Y-38453466D02*
X29255952Y-38453466D01*
X29255952Y-38639180D02*
X29751190Y-38639180D01*
X28946428Y-38793942D02*
X28946428Y-38143942D01*
X28513094Y-38143942D02*
X28389285Y-38143942D01*
X28389285Y-38143942D02*
X28327380Y-38174894D01*
X28327380Y-38174894D02*
X28265475Y-38236799D01*
X28265475Y-38236799D02*
X28234523Y-38360609D01*
X28234523Y-38360609D02*
X28234523Y-38577275D01*
X28234523Y-38577275D02*
X28265475Y-38701085D01*
X28265475Y-38701085D02*
X28327380Y-38762990D01*
X28327380Y-38762990D02*
X28389285Y-38793942D01*
X28389285Y-38793942D02*
X28513094Y-38793942D01*
X28513094Y-38793942D02*
X28574999Y-38762990D01*
X28574999Y-38762990D02*
X28636904Y-38701085D01*
X28636904Y-38701085D02*
X28667856Y-38577275D01*
X28667856Y-38577275D02*
X28667856Y-38360609D01*
X28667856Y-38360609D02*
X28636904Y-38236799D01*
X28636904Y-38236799D02*
X28574999Y-38174894D01*
X28574999Y-38174894D02*
X28513094Y-38143942D01*
X28017856Y-38143942D02*
X27615475Y-38143942D01*
X27615475Y-38143942D02*
X27832142Y-38391561D01*
X27832142Y-38391561D02*
X27739285Y-38391561D01*
X27739285Y-38391561D02*
X27677380Y-38422513D01*
X27677380Y-38422513D02*
X27646428Y-38453466D01*
X27646428Y-38453466D02*
X27615475Y-38515370D01*
X27615475Y-38515370D02*
X27615475Y-38670132D01*
X27615475Y-38670132D02*
X27646428Y-38732037D01*
X27646428Y-38732037D02*
X27677380Y-38762990D01*
X27677380Y-38762990D02*
X27739285Y-38793942D01*
X27739285Y-38793942D02*
X27924999Y-38793942D01*
X27924999Y-38793942D02*
X27986904Y-38762990D01*
X27986904Y-38762990D02*
X28017856Y-38732037D01*
X26470237Y-38793942D02*
X26686904Y-38484418D01*
X26841666Y-38793942D02*
X26841666Y-38143942D01*
X26841666Y-38143942D02*
X26594047Y-38143942D01*
X26594047Y-38143942D02*
X26532142Y-38174894D01*
X26532142Y-38174894D02*
X26501189Y-38205847D01*
X26501189Y-38205847D02*
X26470237Y-38267751D01*
X26470237Y-38267751D02*
X26470237Y-38360609D01*
X26470237Y-38360609D02*
X26501189Y-38422513D01*
X26501189Y-38422513D02*
X26532142Y-38453466D01*
X26532142Y-38453466D02*
X26594047Y-38484418D01*
X26594047Y-38484418D02*
X26841666Y-38484418D01*
X26253570Y-38143942D02*
X25820237Y-38793942D01*
X25820237Y-38143942D02*
X26253570Y-38793942D01*
X25572618Y-38453466D02*
X25077380Y-38453466D01*
X25077380Y-38639180D02*
X25572618Y-38639180D01*
X24767856Y-38793942D02*
X24767856Y-38143942D01*
X24334522Y-38143942D02*
X24210713Y-38143942D01*
X24210713Y-38143942D02*
X24148808Y-38174894D01*
X24148808Y-38174894D02*
X24086903Y-38236799D01*
X24086903Y-38236799D02*
X24055951Y-38360609D01*
X24055951Y-38360609D02*
X24055951Y-38577275D01*
X24055951Y-38577275D02*
X24086903Y-38701085D01*
X24086903Y-38701085D02*
X24148808Y-38762990D01*
X24148808Y-38762990D02*
X24210713Y-38793942D01*
X24210713Y-38793942D02*
X24334522Y-38793942D01*
X24334522Y-38793942D02*
X24396427Y-38762990D01*
X24396427Y-38762990D02*
X24458332Y-38701085D01*
X24458332Y-38701085D02*
X24489284Y-38577275D01*
X24489284Y-38577275D02*
X24489284Y-38360609D01*
X24489284Y-38360609D02*
X24458332Y-38236799D01*
X24458332Y-38236799D02*
X24396427Y-38174894D01*
X24396427Y-38174894D02*
X24334522Y-38143942D01*
X23498808Y-38360609D02*
X23498808Y-38793942D01*
X23653570Y-38112990D02*
X23808332Y-38577275D01*
X23808332Y-38577275D02*
X23405951Y-38577275D01*
X41309522Y-25763335D02*
X41309522Y-24963335D01*
X41309522Y-24963335D02*
X41004760Y-24963335D01*
X41004760Y-24963335D02*
X40928570Y-25001430D01*
X40928570Y-25001430D02*
X40890475Y-25039525D01*
X40890475Y-25039525D02*
X40852379Y-25115716D01*
X40852379Y-25115716D02*
X40852379Y-25230001D01*
X40852379Y-25230001D02*
X40890475Y-25306192D01*
X40890475Y-25306192D02*
X40928570Y-25344287D01*
X40928570Y-25344287D02*
X41004760Y-25382382D01*
X41004760Y-25382382D02*
X41309522Y-25382382D01*
X40547618Y-25534763D02*
X40166665Y-25534763D01*
X40623808Y-25763335D02*
X40357141Y-24963335D01*
X40357141Y-24963335D02*
X40090475Y-25763335D01*
X39823808Y-25763335D02*
X39823808Y-24963335D01*
X39823808Y-24963335D02*
X39366665Y-25763335D01*
X39366665Y-25763335D02*
X39366665Y-24963335D01*
X39023809Y-25534763D02*
X38642856Y-25534763D01*
X39099999Y-25763335D02*
X38833332Y-24963335D01*
X38833332Y-24963335D02*
X38566666Y-25763335D01*
X38338095Y-25725240D02*
X38223809Y-25763335D01*
X38223809Y-25763335D02*
X38033333Y-25763335D01*
X38033333Y-25763335D02*
X37957142Y-25725240D01*
X37957142Y-25725240D02*
X37919047Y-25687144D01*
X37919047Y-25687144D02*
X37880952Y-25610954D01*
X37880952Y-25610954D02*
X37880952Y-25534763D01*
X37880952Y-25534763D02*
X37919047Y-25458573D01*
X37919047Y-25458573D02*
X37957142Y-25420478D01*
X37957142Y-25420478D02*
X38033333Y-25382382D01*
X38033333Y-25382382D02*
X38185714Y-25344287D01*
X38185714Y-25344287D02*
X38261904Y-25306192D01*
X38261904Y-25306192D02*
X38299999Y-25268097D01*
X38299999Y-25268097D02*
X38338095Y-25191906D01*
X38338095Y-25191906D02*
X38338095Y-25115716D01*
X38338095Y-25115716D02*
X38299999Y-25039525D01*
X38299999Y-25039525D02*
X38261904Y-25001430D01*
X38261904Y-25001430D02*
X38185714Y-24963335D01*
X38185714Y-24963335D02*
X37995237Y-24963335D01*
X37995237Y-24963335D02*
X37880952Y-25001430D01*
X37385713Y-24963335D02*
X37233332Y-24963335D01*
X37233332Y-24963335D02*
X37157142Y-25001430D01*
X37157142Y-25001430D02*
X37080951Y-25077620D01*
X37080951Y-25077620D02*
X37042856Y-25230001D01*
X37042856Y-25230001D02*
X37042856Y-25496668D01*
X37042856Y-25496668D02*
X37080951Y-25649049D01*
X37080951Y-25649049D02*
X37157142Y-25725240D01*
X37157142Y-25725240D02*
X37233332Y-25763335D01*
X37233332Y-25763335D02*
X37385713Y-25763335D01*
X37385713Y-25763335D02*
X37461904Y-25725240D01*
X37461904Y-25725240D02*
X37538094Y-25649049D01*
X37538094Y-25649049D02*
X37576190Y-25496668D01*
X37576190Y-25496668D02*
X37576190Y-25230001D01*
X37576190Y-25230001D02*
X37538094Y-25077620D01*
X37538094Y-25077620D02*
X37461904Y-25001430D01*
X37461904Y-25001430D02*
X37385713Y-24963335D01*
X36699999Y-25763335D02*
X36699999Y-24963335D01*
X36699999Y-24963335D02*
X36242856Y-25763335D01*
X36242856Y-25763335D02*
X36242856Y-24963335D01*
X35861904Y-25763335D02*
X35861904Y-24963335D01*
X35023809Y-25687144D02*
X35061905Y-25725240D01*
X35061905Y-25725240D02*
X35176190Y-25763335D01*
X35176190Y-25763335D02*
X35252381Y-25763335D01*
X35252381Y-25763335D02*
X35366667Y-25725240D01*
X35366667Y-25725240D02*
X35442857Y-25649049D01*
X35442857Y-25649049D02*
X35480952Y-25572859D01*
X35480952Y-25572859D02*
X35519048Y-25420478D01*
X35519048Y-25420478D02*
X35519048Y-25306192D01*
X35519048Y-25306192D02*
X35480952Y-25153811D01*
X35480952Y-25153811D02*
X35442857Y-25077620D01*
X35442857Y-25077620D02*
X35366667Y-25001430D01*
X35366667Y-25001430D02*
X35252381Y-24963335D01*
X35252381Y-24963335D02*
X35176190Y-24963335D01*
X35176190Y-24963335D02*
X35061905Y-25001430D01*
X35061905Y-25001430D02*
X35023809Y-25039525D01*
X34109524Y-25534763D02*
X33728571Y-25534763D01*
X34185714Y-25763335D02*
X33919047Y-24963335D01*
X33919047Y-24963335D02*
X33652381Y-25763335D01*
X32928571Y-25687144D02*
X32966667Y-25725240D01*
X32966667Y-25725240D02*
X33080952Y-25763335D01*
X33080952Y-25763335D02*
X33157143Y-25763335D01*
X33157143Y-25763335D02*
X33271429Y-25725240D01*
X33271429Y-25725240D02*
X33347619Y-25649049D01*
X33347619Y-25649049D02*
X33385714Y-25572859D01*
X33385714Y-25572859D02*
X33423810Y-25420478D01*
X33423810Y-25420478D02*
X33423810Y-25306192D01*
X33423810Y-25306192D02*
X33385714Y-25153811D01*
X33385714Y-25153811D02*
X33347619Y-25077620D01*
X33347619Y-25077620D02*
X33271429Y-25001430D01*
X33271429Y-25001430D02*
X33157143Y-24963335D01*
X33157143Y-24963335D02*
X33080952Y-24963335D01*
X33080952Y-24963335D02*
X32966667Y-25001430D01*
X32966667Y-25001430D02*
X32928571Y-25039525D01*
X31976190Y-25763335D02*
X31976190Y-24963335D01*
X31595238Y-25763335D02*
X31595238Y-24963335D01*
X31595238Y-24963335D02*
X31138095Y-25763335D01*
X31138095Y-25763335D02*
X31138095Y-24963335D01*
X30871429Y-24963335D02*
X30414286Y-24963335D01*
X30642858Y-25763335D02*
X30642858Y-24963335D01*
X30147619Y-25344287D02*
X29880953Y-25344287D01*
X29766667Y-25763335D02*
X30147619Y-25763335D01*
X30147619Y-25763335D02*
X30147619Y-24963335D01*
X30147619Y-24963335D02*
X29766667Y-24963335D01*
X28966666Y-25763335D02*
X29233333Y-25382382D01*
X29423809Y-25763335D02*
X29423809Y-24963335D01*
X29423809Y-24963335D02*
X29119047Y-24963335D01*
X29119047Y-24963335D02*
X29042857Y-25001430D01*
X29042857Y-25001430D02*
X29004762Y-25039525D01*
X29004762Y-25039525D02*
X28966666Y-25115716D01*
X28966666Y-25115716D02*
X28966666Y-25230001D01*
X28966666Y-25230001D02*
X29004762Y-25306192D01*
X29004762Y-25306192D02*
X29042857Y-25344287D01*
X29042857Y-25344287D02*
X29119047Y-25382382D01*
X29119047Y-25382382D02*
X29423809Y-25382382D01*
X28357143Y-25344287D02*
X28623809Y-25344287D01*
X28623809Y-25763335D02*
X28623809Y-24963335D01*
X28623809Y-24963335D02*
X28242857Y-24963335D01*
X27976191Y-25534763D02*
X27595238Y-25534763D01*
X28052381Y-25763335D02*
X27785714Y-24963335D01*
X27785714Y-24963335D02*
X27519048Y-25763335D01*
X26795238Y-25687144D02*
X26833334Y-25725240D01*
X26833334Y-25725240D02*
X26947619Y-25763335D01*
X26947619Y-25763335D02*
X27023810Y-25763335D01*
X27023810Y-25763335D02*
X27138096Y-25725240D01*
X27138096Y-25725240D02*
X27214286Y-25649049D01*
X27214286Y-25649049D02*
X27252381Y-25572859D01*
X27252381Y-25572859D02*
X27290477Y-25420478D01*
X27290477Y-25420478D02*
X27290477Y-25306192D01*
X27290477Y-25306192D02*
X27252381Y-25153811D01*
X27252381Y-25153811D02*
X27214286Y-25077620D01*
X27214286Y-25077620D02*
X27138096Y-25001430D01*
X27138096Y-25001430D02*
X27023810Y-24963335D01*
X27023810Y-24963335D02*
X26947619Y-24963335D01*
X26947619Y-24963335D02*
X26833334Y-25001430D01*
X26833334Y-25001430D02*
X26795238Y-25039525D01*
X26452381Y-25344287D02*
X26185715Y-25344287D01*
X26071429Y-25763335D02*
X26452381Y-25763335D01*
X26452381Y-25763335D02*
X26452381Y-24963335D01*
X26452381Y-24963335D02*
X26071429Y-24963335D01*
X24509523Y-25763335D02*
X24509523Y-25230001D01*
X24509523Y-25382382D02*
X24471428Y-25306192D01*
X24471428Y-25306192D02*
X24433333Y-25268097D01*
X24433333Y-25268097D02*
X24357142Y-25230001D01*
X24357142Y-25230001D02*
X24280952Y-25230001D01*
X23709523Y-25725240D02*
X23785714Y-25763335D01*
X23785714Y-25763335D02*
X23938095Y-25763335D01*
X23938095Y-25763335D02*
X24014285Y-25725240D01*
X24014285Y-25725240D02*
X24052381Y-25649049D01*
X24052381Y-25649049D02*
X24052381Y-25344287D01*
X24052381Y-25344287D02*
X24014285Y-25268097D01*
X24014285Y-25268097D02*
X23938095Y-25230001D01*
X23938095Y-25230001D02*
X23785714Y-25230001D01*
X23785714Y-25230001D02*
X23709523Y-25268097D01*
X23709523Y-25268097D02*
X23671428Y-25344287D01*
X23671428Y-25344287D02*
X23671428Y-25420478D01*
X23671428Y-25420478D02*
X24052381Y-25496668D01*
X23404762Y-25230001D02*
X23214286Y-25763335D01*
X23214286Y-25763335D02*
X23023809Y-25230001D01*
X21690476Y-25001430D02*
X21766666Y-24963335D01*
X21766666Y-24963335D02*
X21880952Y-24963335D01*
X21880952Y-24963335D02*
X21995238Y-25001430D01*
X21995238Y-25001430D02*
X22071428Y-25077620D01*
X22071428Y-25077620D02*
X22109523Y-25153811D01*
X22109523Y-25153811D02*
X22147619Y-25306192D01*
X22147619Y-25306192D02*
X22147619Y-25420478D01*
X22147619Y-25420478D02*
X22109523Y-25572859D01*
X22109523Y-25572859D02*
X22071428Y-25649049D01*
X22071428Y-25649049D02*
X21995238Y-25725240D01*
X21995238Y-25725240D02*
X21880952Y-25763335D01*
X21880952Y-25763335D02*
X21804761Y-25763335D01*
X21804761Y-25763335D02*
X21690476Y-25725240D01*
X21690476Y-25725240D02*
X21652380Y-25687144D01*
X21652380Y-25687144D02*
X21652380Y-25420478D01*
X21652380Y-25420478D02*
X21804761Y-25420478D01*
M02*
