%TF.GenerationSoftware,KiCad,Pcbnew,9.0.8+dfsg-1*%
%TF.CreationDate,2026-08-26T14:21:10+00:00*%
%TF.ProjectId,panasonic-p11-revG,70616e61-736f-46e6-9963-2d7031312d72,rev?*%
%TF.SameCoordinates,Original*%
%TF.FileFunction,Copper,L1,Top*%
%TF.FilePolarity,Positive*%
%FSLAX46Y46*%
G04 Gerber Fmt 4.6, Leading zero omitted, Abs format (unit mm)*
G04 Created by KiCad (PCBNEW 9.0.8+dfsg-1) date 2026-08-26 14:21:10*
%MOMM*%
%LPD*%
G01*
G04 APERTURE LIST*
%TA.AperFunction,ComponentPad*%
%ADD10R,1.700000X1.700000*%
%TD*%
%TA.AperFunction,ComponentPad*%
%ADD11C,1.700000*%
%TD*%
%TA.AperFunction,ComponentPad*%
%ADD12R,1.200000X1.000000*%
%TD*%
%TA.AperFunction,ComponentPad*%
%ADD13O,1.200000X1.000000*%
%TD*%
%TA.AperFunction,ComponentPad*%
%ADD14R,1.600000X1.600000*%
%TD*%
%TA.AperFunction,ComponentPad*%
%ADD15C,1.600000*%
%TD*%
%TA.AperFunction,ViaPad*%
%ADD16C,0.600000*%
%TD*%
%TA.AperFunction,Conductor*%
%ADD17C,0.200000*%
%TD*%
G04 APERTURE END LIST*
D10*
%TO.P,ESP32-C3,1*%
%TO.N,+5V*%
X22360000Y-24380000D03*
D11*
%TO.P,ESP32-C3,2*%
%TO.N,GND*%
X24900000Y-24380000D03*
%TO.P,ESP32-C3,3*%
%TO.N,+3V3*%
X27440000Y-24380000D03*
%TO.P,ESP32-C3,4*%
%TO.N,ESP_RX*%
X29980000Y-24380000D03*
%TO.P,ESP32-C3,5*%
%TO.N,ESP_TX*%
X32520000Y-24380000D03*
%TO.P,ESP32-C3,6*%
%TO.N,N/C*%
X35060000Y-24380000D03*
%TO.P,ESP32-C3,7*%
%TO.N,IO1*%
X37600000Y-24380000D03*
%TO.P,ESP32-C3,8*%
%TO.N,IO0*%
X40140000Y-24380000D03*
%TO.P,ESP32-C3,9*%
%TO.N,N/C*%
X22360000Y-39620000D03*
%TO.P,ESP32-C3,10*%
X24900000Y-39620000D03*
%TO.P,ESP32-C3,11*%
%TO.N,IO7*%
X27440000Y-39620000D03*
%TO.P,ESP32-C3,12*%
%TO.N,N/C*%
X29980000Y-39620000D03*
%TO.P,ESP32-C3,13*%
X32520000Y-39620000D03*
%TO.P,ESP32-C3,14*%
%TO.N,IO10*%
X35060000Y-39620000D03*
%TO.P,ESP32-C3,15*%
%TO.N,N/C*%
X37600000Y-39620000D03*
%TO.P,ESP32-C3,16*%
X40140000Y-39620000D03*
%TD*%
%TO.P,BSS138,H1*%
%TO.N,AC_RX_5V*%
X53080000Y-24380000D03*
%TO.P,BSS138,H2*%
%TO.N,IO10_5V*%
X53080000Y-26920000D03*
%TO.P,BSS138,H3*%
%TO.N,+5V*%
X53080000Y-29460000D03*
%TO.P,BSS138,H4*%
%TO.N,GND*%
X53080000Y-32000000D03*
%TO.P,BSS138,H5*%
%TO.N,IO7_5V*%
X53080000Y-34540000D03*
%TO.P,BSS138,H6*%
%TO.N,AC_TX_5V*%
X53080000Y-37080000D03*
D10*
%TO.P,BSS138,L1*%
%TO.N,ESP_TX*%
X42920000Y-24380000D03*
D11*
%TO.P,BSS138,L2*%
%TO.N,IO10*%
X42920000Y-26920000D03*
%TO.P,BSS138,L3*%
%TO.N,+3V3*%
X42920000Y-29460000D03*
%TO.P,BSS138,L4*%
%TO.N,GND*%
X42920000Y-32000000D03*
%TO.P,BSS138,L5*%
%TO.N,IO7*%
X42920000Y-34540000D03*
%TO.P,BSS138,L6*%
%TO.N,ESP_RX*%
X42920000Y-37080000D03*
%TD*%
D12*
%TO.P,J11,1*%
%TO.N,AC_5V*%
X64500000Y-36445000D03*
D13*
%TO.P,J11,2*%
%TO.N,AC_TX_5V*%
X64500000Y-35175000D03*
%TO.P,J11,3*%
%TO.N,AC_RX_5V*%
X64500000Y-33905000D03*
%TO.P,J11,4*%
%TO.N,N/C*%
X64500000Y-32635000D03*
%TO.P,J11,5*%
X64500000Y-31365000D03*
%TO.P,J11,6*%
X64500000Y-30095000D03*
%TO.P,J11,7*%
X64500000Y-28825000D03*
%TO.P,J11,8*%
%TO.N,GND*%
X64500000Y-27555000D03*
%TD*%
D14*
%TO.P,D1,1*%
%TO.N,+5V*%
X47960000Y-39600000D03*
D15*
%TO.P,D1,2*%
%TO.N,AC_5V*%
X53040000Y-39600000D03*
%TD*%
D14*
%TO.P,C1,1*%
%TO.N,+5V*%
X55900000Y-27600000D03*
D15*
%TO.P,C1,2*%
%TO.N,GND*%
X57900000Y-27600000D03*
%TD*%
D10*
%TO.P,J1,1*%
%TO.N,IO1*%
X56190000Y-24300000D03*
D11*
%TO.P,J1,2*%
%TO.N,IO0*%
X58730000Y-24300000D03*
%TO.P,J1,3*%
%TO.N,GND*%
X61270000Y-24300000D03*
%TO.P,J1,4*%
%TO.N,+3V3*%
X63810000Y-24300000D03*
%TD*%
D10*
%TO.P,J2,1*%
%TO.N,IO10_5V*%
X56190000Y-39700000D03*
D11*
%TO.P,J2,2*%
%TO.N,IO7_5V*%
X58730000Y-39700000D03*
%TO.P,J2,3*%
%TO.N,GND*%
X61270000Y-39700000D03*
%TO.P,J2,4*%
%TO.N,+5V*%
X63810000Y-39700000D03*
%TD*%
D10*
%TO.P,CNT,1*%
%TO.N,AC_5V*%
X61200000Y-26920000D03*
D11*
%TO.P,CNT,2*%
%TO.N,AC_TX_5V*%
X61200000Y-29460000D03*
%TO.P,CNT,3*%
%TO.N,AC_RX_5V*%
X61200000Y-32000000D03*
%TO.P,CNT,4*%
%TO.N,N/C*%
X61200000Y-34540000D03*
%TO.P,CNT,5*%
%TO.N,GND*%
X61200000Y-37080000D03*
%TD*%
D16*
%TO.N,+3V3*%
X54895000Y-29522600D03*
%TO.N,AC_RX_5V*%
X49453400Y-32700000D03*
%TO.N,IO1*%
X40295800Y-28852100D03*
X48825900Y-30647700D03*
X38017600Y-26573900D03*
%TD*%
D17*
%TO.N,GND*%
X61270000Y-25095000D02*
X62841700Y-25095000D01*
X57900000Y-27600000D02*
X60405000Y-25095000D01*
X42920000Y-32000000D02*
X53080000Y-32000000D01*
X53080000Y-32000000D02*
X53596900Y-32000000D01*
X62841700Y-25095000D02*
X64500000Y-26753300D01*
X64500000Y-27555000D02*
X64500000Y-26753300D01*
X53596900Y-32000000D02*
X57900000Y-27696900D01*
X61270000Y-25095000D02*
X61270000Y-24300000D01*
X60405000Y-25095000D02*
X61270000Y-25095000D01*
X57900000Y-27696900D02*
X57900000Y-27600000D01*
%TO.N,+5V*%
X22360000Y-24380000D02*
X23511700Y-24380000D01*
X53080000Y-28190000D02*
X53080000Y-29460000D01*
X54208300Y-28190000D02*
X53080000Y-28190000D01*
X53080000Y-28190000D02*
X27033800Y-28190000D01*
X27033800Y-28190000D02*
X23511700Y-24667900D01*
X55900000Y-27600000D02*
X54798300Y-27600000D01*
X23511700Y-24667900D02*
X23511700Y-24380000D01*
X54798300Y-27600000D02*
X54208300Y-28190000D01*
%TO.N,AC_5V*%
X64500000Y-37246700D02*
X63337000Y-38409700D01*
X54230300Y-38409700D02*
X53040000Y-39600000D01*
X64500000Y-36445000D02*
X64500000Y-37246700D01*
X63337000Y-38409700D02*
X54230300Y-38409700D01*
%TO.N,+3V3*%
X52334400Y-30616100D02*
X51178300Y-29460000D01*
X51178300Y-29460000D02*
X42920000Y-29460000D01*
X53801500Y-30616100D02*
X52334400Y-30616100D01*
X54895000Y-29522600D02*
X53801500Y-30616100D01*
%TO.N,AC_TX_5V*%
X56800200Y-37080000D02*
X60615400Y-33264800D01*
X62416100Y-33264800D02*
X62416100Y-30676100D01*
X53080000Y-37080000D02*
X56800200Y-37080000D01*
X62416100Y-30676100D02*
X61200000Y-29460000D01*
X62416100Y-33264800D02*
X62589800Y-33264800D01*
X62589800Y-33264800D02*
X64500000Y-35175000D01*
X60615400Y-33264800D02*
X62416100Y-33264800D01*
%TO.N,AC_RX_5V*%
X60331700Y-32868300D02*
X60329600Y-32868300D01*
X60046200Y-33151700D02*
X49905100Y-33151700D01*
X60329600Y-32868300D02*
X60046200Y-33151700D01*
X61200000Y-32000000D02*
X60331700Y-32868300D01*
X49905100Y-33151700D02*
X49453400Y-32700000D01*
%TO.N,IO1*%
X37600000Y-26156300D02*
X38017600Y-26573900D01*
X37600000Y-24380000D02*
X37600000Y-26156300D01*
X40295800Y-28852100D02*
X42091400Y-30647700D01*
X42091400Y-30647700D02*
X48825900Y-30647700D01*
%TO.N,IO0*%
X58730000Y-24300000D02*
X57491500Y-25538500D01*
X41298500Y-25538500D02*
X40140000Y-24380000D01*
X57491500Y-25538500D02*
X41298500Y-25538500D01*
%TO.N,IO7*%
X42920000Y-34540000D02*
X32520000Y-34540000D01*
X32520000Y-34540000D02*
X27440000Y-39620000D01*
%TD*%
%TA.AperFunction,Conductor*%
%TO.N,GND*%
G36*
X62846470Y-23354047D02*
G01*
X62859015Y-23352970D01*
X62879360Y-23363704D01*
X62901429Y-23370185D01*
X62909672Y-23379698D01*
X62920810Y-23385575D01*
X62932122Y-23405607D01*
X62947184Y-23422989D01*
X62948975Y-23435450D01*
X62955167Y-23446414D01*
X62953854Y-23469377D01*
X62957128Y-23492147D01*
X62951802Y-23505269D01*
X62951179Y-23516169D01*
X62934709Y-23547385D01*
X62826003Y-23697006D01*
X62743788Y-23858360D01*
X62743787Y-23858363D01*
X62687829Y-24030589D01*
X62659500Y-24209448D01*
X62659500Y-24390551D01*
X62687829Y-24569410D01*
X62743787Y-24741636D01*
X62743788Y-24741639D01*
X62826006Y-24902997D01*
X62932441Y-25049494D01*
X62932445Y-25049499D01*
X63060500Y-25177554D01*
X63060505Y-25177558D01*
X63170617Y-25257558D01*
X63207006Y-25283996D01*
X63312484Y-25337740D01*
X63368360Y-25366211D01*
X63368363Y-25366212D01*
X63454476Y-25394191D01*
X63540591Y-25422171D01*
X63606905Y-25432674D01*
X63719449Y-25450500D01*
X63719454Y-25450500D01*
X63900551Y-25450500D01*
X63987259Y-25436765D01*
X64079409Y-25422171D01*
X64251639Y-25366211D01*
X64412994Y-25283996D01*
X64559501Y-25177553D01*
X64638737Y-25098316D01*
X64700056Y-25064834D01*
X64769748Y-25069818D01*
X64825682Y-25111689D01*
X64850099Y-25177153D01*
X64844347Y-25224316D01*
X64836447Y-25248630D01*
X64799500Y-25481902D01*
X64799500Y-25718097D01*
X64836446Y-25951368D01*
X64909433Y-26175996D01*
X64978165Y-26310888D01*
X65016657Y-26386433D01*
X65155483Y-26577510D01*
X65322490Y-26744517D01*
X65513567Y-26883343D01*
X65612991Y-26934002D01*
X65724003Y-26990566D01*
X65724005Y-26990566D01*
X65724008Y-26990568D01*
X65844412Y-27029689D01*
X65948631Y-27063553D01*
X66181903Y-27100500D01*
X66181908Y-27100500D01*
X66418097Y-27100500D01*
X66651368Y-27063553D01*
X66679476Y-27054420D01*
X66875992Y-26990568D01*
X67086433Y-26883343D01*
X67277510Y-26744517D01*
X67444517Y-26577510D01*
X67583343Y-26386433D01*
X67690568Y-26175992D01*
X67763553Y-25951368D01*
X67772127Y-25897234D01*
X67800500Y-25718097D01*
X67800500Y-25481902D01*
X67763553Y-25248631D01*
X67712372Y-25091114D01*
X67690568Y-25024008D01*
X67690566Y-25024005D01*
X67690566Y-25024003D01*
X67596444Y-24839280D01*
X67583343Y-24813567D01*
X67444517Y-24622490D01*
X67277510Y-24455483D01*
X67086433Y-24316657D01*
X66875996Y-24209433D01*
X66651368Y-24136446D01*
X66418097Y-24099500D01*
X66418092Y-24099500D01*
X66181908Y-24099500D01*
X66181903Y-24099500D01*
X65948631Y-24136446D01*
X65724003Y-24209433D01*
X65513566Y-24316657D01*
X65447425Y-24364712D01*
X65322490Y-24455483D01*
X65322488Y-24455485D01*
X65322487Y-24455485D01*
X65152038Y-24625935D01*
X65150986Y-24624883D01*
X65097999Y-24659444D01*
X65028131Y-24659915D01*
X64969099Y-24622539D01*
X64939646Y-24559180D01*
X64939788Y-24521310D01*
X64950981Y-24450645D01*
X64960500Y-24390550D01*
X64960500Y-24209448D01*
X64936753Y-24059521D01*
X64932171Y-24030591D01*
X64902204Y-23938360D01*
X64876212Y-23858363D01*
X64876211Y-23858360D01*
X64793996Y-23697006D01*
X64685291Y-23547385D01*
X64661812Y-23481578D01*
X64677638Y-23413525D01*
X64727744Y-23364830D01*
X64785610Y-23350500D01*
X66803456Y-23350500D01*
X66870495Y-23370185D01*
X66891137Y-23386819D01*
X68113181Y-24608862D01*
X68146666Y-24670185D01*
X68149500Y-24696543D01*
X68149500Y-28525500D01*
X68129815Y-28592539D01*
X68077011Y-28638294D01*
X68025500Y-28649500D01*
X65476614Y-28649500D01*
X65409575Y-28629815D01*
X65363820Y-28577011D01*
X65362053Y-28572952D01*
X65309397Y-28445827D01*
X65309390Y-28445814D01*
X65221789Y-28314711D01*
X65221786Y-28314707D01*
X65110292Y-28203213D01*
X65110288Y-28203210D01*
X64979185Y-28115609D01*
X64979172Y-28115602D01*
X64833501Y-28055264D01*
X64833489Y-28055261D01*
X64678845Y-28024500D01*
X64678842Y-28024500D01*
X64321158Y-28024500D01*
X64321155Y-28024500D01*
X64166510Y-28055261D01*
X64166498Y-28055264D01*
X64020827Y-28115602D01*
X64020814Y-28115609D01*
X63889711Y-28203210D01*
X63889707Y-28203213D01*
X63778213Y-28314707D01*
X63778210Y-28314711D01*
X63690609Y-28445814D01*
X63690602Y-28445827D01*
X63630264Y-28591498D01*
X63630261Y-28591510D01*
X63599500Y-28746153D01*
X63599500Y-28903846D01*
X63630261Y-29058489D01*
X63630264Y-29058501D01*
X63690602Y-29204172D01*
X63690609Y-29204185D01*
X63778210Y-29335288D01*
X63778213Y-29335292D01*
X63815240Y-29372319D01*
X63848725Y-29433642D01*
X63843741Y-29503334D01*
X63815240Y-29547681D01*
X63778213Y-29584707D01*
X63778210Y-29584711D01*
X63690609Y-29715814D01*
X63690602Y-29715827D01*
X63630264Y-29861498D01*
X63630261Y-29861510D01*
X63599500Y-30016153D01*
X63599500Y-30173846D01*
X63630261Y-30328489D01*
X63630264Y-30328501D01*
X63690602Y-30474172D01*
X63690609Y-30474185D01*
X63778210Y-30605288D01*
X63778213Y-30605292D01*
X63815240Y-30642319D01*
X63848725Y-30703642D01*
X63843741Y-30773334D01*
X63815240Y-30817681D01*
X63778213Y-30854707D01*
X63778210Y-30854711D01*
X63690609Y-30985814D01*
X63690602Y-30985827D01*
X63630264Y-31131498D01*
X63630261Y-31131510D01*
X63599500Y-31286153D01*
X63599500Y-31443846D01*
X63630261Y-31598489D01*
X63630264Y-31598501D01*
X63690602Y-31744172D01*
X63690609Y-31744185D01*
X63778210Y-31875288D01*
X63778213Y-31875292D01*
X63815240Y-31912319D01*
X63848725Y-31973642D01*
X63843741Y-32043334D01*
X63815240Y-32087681D01*
X63778213Y-32124707D01*
X63778210Y-32124711D01*
X63690609Y-32255814D01*
X63690602Y-32255827D01*
X63630264Y-32401498D01*
X63630261Y-32401510D01*
X63599500Y-32556153D01*
X63599500Y-32713846D01*
X63630261Y-32868489D01*
X63630264Y-32868501D01*
X63690602Y-33014172D01*
X63690609Y-33014185D01*
X63778210Y-33145288D01*
X63778213Y-33145292D01*
X63815240Y-33182319D01*
X63848725Y-33243642D01*
X63843741Y-33313334D01*
X63815240Y-33357681D01*
X63778213Y-33394707D01*
X63778210Y-33394711D01*
X63690609Y-33525814D01*
X63690604Y-33525823D01*
X63681547Y-33547689D01*
X63637704Y-33602091D01*
X63571409Y-33624154D01*
X63503710Y-33606873D01*
X63479306Y-33587914D01*
X63213814Y-33322422D01*
X62852919Y-32961526D01*
X62819434Y-32900203D01*
X62816600Y-32873845D01*
X62816600Y-30623374D01*
X62816600Y-30623373D01*
X62813151Y-30610500D01*
X62789307Y-30521512D01*
X62736580Y-30430187D01*
X62305674Y-29999281D01*
X62272189Y-29937958D01*
X62275423Y-29873284D01*
X62322171Y-29729409D01*
X62332761Y-29662545D01*
X62350500Y-29550551D01*
X62350500Y-29369448D01*
X62326957Y-29220809D01*
X62322171Y-29190591D01*
X62266211Y-29018361D01*
X62266211Y-29018360D01*
X62221778Y-28931157D01*
X62183996Y-28857006D01*
X62122994Y-28773043D01*
X62077558Y-28710505D01*
X62077554Y-28710500D01*
X61949499Y-28582445D01*
X61949494Y-28582441D01*
X61802997Y-28476006D01*
X61802996Y-28476005D01*
X61802994Y-28476004D01*
X61741879Y-28444864D01*
X61641639Y-28393788D01*
X61641636Y-28393787D01*
X61469410Y-28337829D01*
X61337728Y-28316972D01*
X61274594Y-28287042D01*
X61237663Y-28227731D01*
X61238661Y-28157868D01*
X61277271Y-28099636D01*
X61341235Y-28071522D01*
X61357120Y-28070499D01*
X62094864Y-28070499D01*
X62094879Y-28070497D01*
X62094882Y-28070497D01*
X62119987Y-28067586D01*
X62119988Y-28067585D01*
X62119991Y-28067585D01*
X62222765Y-28022206D01*
X62302206Y-27942765D01*
X62347585Y-27839991D01*
X62350500Y-27814865D01*
X62350499Y-26025136D01*
X62349865Y-26019666D01*
X62347586Y-26000012D01*
X62347585Y-26000010D01*
X62347585Y-26000009D01*
X62302206Y-25897235D01*
X62222765Y-25817794D01*
X62222763Y-25817793D01*
X62119992Y-25772415D01*
X62094865Y-25769500D01*
X60305143Y-25769500D01*
X60305117Y-25769502D01*
X60280012Y-25772413D01*
X60280008Y-25772415D01*
X60177235Y-25817793D01*
X60097794Y-25897234D01*
X60052415Y-26000006D01*
X60052415Y-26000008D01*
X60049500Y-26025131D01*
X60049500Y-27814856D01*
X60049502Y-27814882D01*
X60052413Y-27839987D01*
X60052415Y-27839991D01*
X60097793Y-27942764D01*
X60097794Y-27942765D01*
X60177235Y-28022206D01*
X60280009Y-28067585D01*
X60305135Y-28070500D01*
X61042873Y-28070499D01*
X61109910Y-28090183D01*
X61155665Y-28142987D01*
X61165609Y-28212146D01*
X61136584Y-28275702D01*
X61077806Y-28313476D01*
X61062270Y-28316972D01*
X60930589Y-28337829D01*
X60758363Y-28393787D01*
X60758360Y-28393788D01*
X60597002Y-28476006D01*
X60450505Y-28582441D01*
X60450500Y-28582445D01*
X60322445Y-28710500D01*
X60322441Y-28710505D01*
X60216006Y-28857002D01*
X60133788Y-29018360D01*
X60133787Y-29018363D01*
X60077829Y-29190589D01*
X60049500Y-29369448D01*
X60049500Y-29550551D01*
X60077829Y-29729410D01*
X60133787Y-29901636D01*
X60133788Y-29901639D01*
X60216006Y-30062997D01*
X60322441Y-30209494D01*
X60322445Y-30209499D01*
X60450500Y-30337554D01*
X60450505Y-30337558D01*
X60558347Y-30415909D01*
X60597006Y-30443996D01*
X60702484Y-30497740D01*
X60758360Y-30526211D01*
X60758363Y-30526212D01*
X60844476Y-30554191D01*
X60930591Y-30582171D01*
X61003639Y-30593740D01*
X61090678Y-30607527D01*
X61153813Y-30637456D01*
X61190744Y-30696768D01*
X61189746Y-30766631D01*
X61151136Y-30824863D01*
X61090678Y-30852473D01*
X60930589Y-30877829D01*
X60758363Y-30933787D01*
X60758360Y-30933788D01*
X60597002Y-31016006D01*
X60450505Y-31122441D01*
X60450500Y-31122445D01*
X60322445Y-31250500D01*
X60322441Y-31250505D01*
X60216006Y-31397002D01*
X60133788Y-31558360D01*
X60133787Y-31558363D01*
X60077829Y-31730589D01*
X60049500Y-31909448D01*
X60049500Y-32090551D01*
X60077829Y-32269412D01*
X60124324Y-32412513D01*
X60126319Y-32482354D01*
X60090238Y-32542187D01*
X60084496Y-32547009D01*
X59916626Y-32714881D01*
X59855303Y-32748366D01*
X59828945Y-32751200D01*
X50177900Y-32751200D01*
X50110861Y-32731515D01*
X50065106Y-32678711D01*
X50053900Y-32627200D01*
X50053900Y-32620945D01*
X50053900Y-32620943D01*
X50012977Y-32468216D01*
X49974458Y-32401498D01*
X49933924Y-32331290D01*
X49933918Y-32331282D01*
X49822117Y-32219481D01*
X49822109Y-32219475D01*
X49685190Y-32140426D01*
X49685186Y-32140424D01*
X49685184Y-32140423D01*
X49532457Y-32099500D01*
X49374343Y-32099500D01*
X49221616Y-32140423D01*
X49221609Y-32140426D01*
X49084690Y-32219475D01*
X49084682Y-32219481D01*
X48972881Y-32331282D01*
X48972875Y-32331290D01*
X48893826Y-32468209D01*
X48893823Y-32468216D01*
X48852900Y-32620943D01*
X48852900Y-32779057D01*
X48878299Y-32873845D01*
X48893823Y-32931783D01*
X48893826Y-32931790D01*
X48972875Y-33068709D01*
X48972879Y-33068714D01*
X48972880Y-33068716D01*
X49084684Y-33180520D01*
X49084686Y-33180521D01*
X49084690Y-33180524D01*
X49216787Y-33256789D01*
X49221616Y-33259577D01*
X49374343Y-33300500D01*
X49436145Y-33300500D01*
X49503184Y-33320185D01*
X49523826Y-33336819D01*
X49659187Y-33472180D01*
X49750512Y-33524907D01*
X49852373Y-33552200D01*
X49957827Y-33552200D01*
X52141384Y-33552200D01*
X52208423Y-33571885D01*
X52254178Y-33624689D01*
X52264122Y-33693847D01*
X52235097Y-33757403D01*
X52229065Y-33763881D01*
X52202445Y-33790500D01*
X52202441Y-33790505D01*
X52096006Y-33937002D01*
X52013788Y-34098360D01*
X52013787Y-34098363D01*
X51957829Y-34270589D01*
X51929500Y-34449448D01*
X51929500Y-34630551D01*
X51957829Y-34809410D01*
X52013787Y-34981636D01*
X52013788Y-34981639D01*
X52096006Y-35142997D01*
X52202441Y-35289494D01*
X52202445Y-35289499D01*
X52330500Y-35417554D01*
X52330505Y-35417558D01*
X52408880Y-35474500D01*
X52477006Y-35523996D01*
X52576353Y-35574616D01*
X52638360Y-35606211D01*
X52638363Y-35606212D01*
X52724476Y-35634191D01*
X52810591Y-35662171D01*
X52883401Y-35673703D01*
X52970678Y-35687527D01*
X53033813Y-35717456D01*
X53070744Y-35776768D01*
X53069746Y-35846631D01*
X53031136Y-35904863D01*
X52970678Y-35932473D01*
X52810589Y-35957829D01*
X52638363Y-36013787D01*
X52638360Y-36013788D01*
X52477002Y-36096006D01*
X52330505Y-36202441D01*
X52330500Y-36202445D01*
X52202445Y-36330500D01*
X52202441Y-36330505D01*
X52096006Y-36477002D01*
X52013788Y-36638360D01*
X52013787Y-36638363D01*
X51957829Y-36810589D01*
X51929500Y-36989448D01*
X51929500Y-37170551D01*
X51957829Y-37349410D01*
X52013787Y-37521636D01*
X52013788Y-37521639D01*
X52096006Y-37682997D01*
X52202441Y-37829494D01*
X52202445Y-37829499D01*
X52330500Y-37957554D01*
X52330505Y-37957558D01*
X52401585Y-38009200D01*
X52477006Y-38063996D01*
X52582484Y-38117740D01*
X52638360Y-38146211D01*
X52638363Y-38146212D01*
X52724476Y-38174191D01*
X52810591Y-38202171D01*
X52893429Y-38215291D01*
X52989449Y-38230500D01*
X52989454Y-38230500D01*
X53170551Y-38230500D01*
X53257259Y-38216765D01*
X53349409Y-38202171D01*
X53521639Y-38146211D01*
X53521639Y-38146210D01*
X53521644Y-38146209D01*
X53651339Y-38080125D01*
X53720009Y-38067228D01*
X53784749Y-38093504D01*
X53825007Y-38150610D01*
X53827999Y-38220416D01*
X53795316Y-38278290D01*
X53539599Y-38534006D01*
X53478276Y-38567491D01*
X53413600Y-38564256D01*
X53297698Y-38526597D01*
X53166271Y-38505781D01*
X53126611Y-38499500D01*
X52953389Y-38499500D01*
X52913728Y-38505781D01*
X52782302Y-38526597D01*
X52744395Y-38538914D01*
X52624628Y-38577829D01*
X52617552Y-38580128D01*
X52463211Y-38658768D01*
X52384434Y-38716004D01*
X52323072Y-38760586D01*
X52323070Y-38760588D01*
X52323069Y-38760588D01*
X52200588Y-38883069D01*
X52200588Y-38883070D01*
X52200586Y-38883072D01*
X52158297Y-38941278D01*
X52098768Y-39023211D01*
X52020128Y-39177552D01*
X52020127Y-39177554D01*
X52020127Y-39177555D01*
X51993872Y-39258360D01*
X51966597Y-39342302D01*
X51939500Y-39513389D01*
X51939500Y-39686610D01*
X51963434Y-39837729D01*
X51966598Y-39857701D01*
X52020127Y-40022445D01*
X52098768Y-40176788D01*
X52200586Y-40316928D01*
X52200588Y-40316930D01*
X52321477Y-40437819D01*
X52354962Y-40499142D01*
X52349978Y-40568834D01*
X52308106Y-40624767D01*
X52242642Y-40649184D01*
X52233796Y-40649500D01*
X49168625Y-40649500D01*
X49101586Y-40629815D01*
X49055831Y-40577011D01*
X49045887Y-40507853D01*
X49055191Y-40475412D01*
X49057585Y-40469991D01*
X49060500Y-40444865D01*
X49060499Y-38755136D01*
X49060497Y-38755117D01*
X49057586Y-38730012D01*
X49057585Y-38730010D01*
X49057585Y-38730009D01*
X49012206Y-38627235D01*
X48932765Y-38547794D01*
X48924881Y-38544313D01*
X48829992Y-38502415D01*
X48804865Y-38499500D01*
X47115143Y-38499500D01*
X47115117Y-38499502D01*
X47090012Y-38502413D01*
X47090008Y-38502415D01*
X46987235Y-38547793D01*
X46907794Y-38627234D01*
X46862415Y-38730006D01*
X46862415Y-38730008D01*
X46859500Y-38755131D01*
X46859500Y-40444856D01*
X46859502Y-40444882D01*
X46862413Y-40469987D01*
X46862414Y-40469989D01*
X46864810Y-40475415D01*
X46873881Y-40544693D01*
X46844057Y-40607878D01*
X46784807Y-40644908D01*
X46751375Y-40649500D01*
X42024000Y-40649500D01*
X41956961Y-40629815D01*
X41911206Y-40577011D01*
X41900000Y-40525500D01*
X41900000Y-37986416D01*
X41919685Y-37919377D01*
X41972489Y-37873622D01*
X42041647Y-37863678D01*
X42105203Y-37892703D01*
X42111681Y-37898735D01*
X42170500Y-37957554D01*
X42170505Y-37957558D01*
X42241585Y-38009200D01*
X42317006Y-38063996D01*
X42422484Y-38117740D01*
X42478360Y-38146211D01*
X42478363Y-38146212D01*
X42564476Y-38174191D01*
X42650591Y-38202171D01*
X42733429Y-38215291D01*
X42829449Y-38230500D01*
X42829454Y-38230500D01*
X43010551Y-38230500D01*
X43097259Y-38216765D01*
X43189409Y-38202171D01*
X43361639Y-38146211D01*
X43522994Y-38063996D01*
X43669501Y-37957553D01*
X43797553Y-37829501D01*
X43903996Y-37682994D01*
X43986211Y-37521639D01*
X44042171Y-37349409D01*
X44059090Y-37242585D01*
X44070500Y-37170551D01*
X44070500Y-36989448D01*
X44054019Y-36885397D01*
X44042171Y-36810591D01*
X43986211Y-36638361D01*
X43986211Y-36638360D01*
X43957740Y-36582484D01*
X43903996Y-36477006D01*
X43890396Y-36458287D01*
X43797558Y-36330505D01*
X43797554Y-36330500D01*
X43669499Y-36202445D01*
X43669494Y-36202441D01*
X43522997Y-36096006D01*
X43522996Y-36096005D01*
X43522994Y-36096004D01*
X43471300Y-36069664D01*
X43361639Y-36013788D01*
X43361636Y-36013787D01*
X43189410Y-35957829D01*
X43029321Y-35932473D01*
X42966186Y-35902544D01*
X42929255Y-35843232D01*
X42930253Y-35773370D01*
X42968863Y-35715137D01*
X43029321Y-35687527D01*
X43099425Y-35676422D01*
X43189409Y-35662171D01*
X43361639Y-35606211D01*
X43522994Y-35523996D01*
X43669501Y-35417553D01*
X43797553Y-35289501D01*
X43903996Y-35142994D01*
X43986211Y-34981639D01*
X44042171Y-34809409D01*
X44064350Y-34669377D01*
X44070500Y-34630551D01*
X44070500Y-34449448D01*
X44054019Y-34345397D01*
X44042171Y-34270591D01*
X43986211Y-34098361D01*
X43986211Y-34098360D01*
X43943991Y-34015500D01*
X43903996Y-33937006D01*
X43849636Y-33862185D01*
X43797558Y-33790505D01*
X43797554Y-33790500D01*
X43669499Y-33662445D01*
X43669494Y-33662441D01*
X43522997Y-33556006D01*
X43522996Y-33556005D01*
X43522994Y-33556004D01*
X43461961Y-33524906D01*
X43361639Y-33473788D01*
X43361636Y-33473787D01*
X43189410Y-33417829D01*
X43010551Y-33389500D01*
X43010546Y-33389500D01*
X42829454Y-33389500D01*
X42829449Y-33389500D01*
X42650589Y-33417829D01*
X42478363Y-33473787D01*
X42478360Y-33473788D01*
X42317002Y-33556006D01*
X42170505Y-33662441D01*
X42170500Y-33662445D01*
X42111681Y-33721265D01*
X42050358Y-33754750D01*
X41980666Y-33749766D01*
X41924733Y-33707894D01*
X41900316Y-33642430D01*
X41900000Y-33633584D01*
X41900000Y-31171338D01*
X41919685Y-31104299D01*
X41972489Y-31058544D01*
X42030546Y-31049844D01*
X42030546Y-31048200D01*
X42038673Y-31048200D01*
X48325802Y-31048200D01*
X48392841Y-31067885D01*
X48413483Y-31084519D01*
X48457184Y-31128220D01*
X48457186Y-31128221D01*
X48457190Y-31128224D01*
X48594109Y-31207273D01*
X48594116Y-31207277D01*
X48746843Y-31248200D01*
X48746845Y-31248200D01*
X48904955Y-31248200D01*
X48904957Y-31248200D01*
X49057684Y-31207277D01*
X49194616Y-31128220D01*
X49306420Y-31016416D01*
X49385477Y-30879484D01*
X49426400Y-30726757D01*
X49426400Y-30568643D01*
X49385477Y-30415916D01*
X49385473Y-30415909D01*
X49306424Y-30278990D01*
X49306418Y-30278982D01*
X49194617Y-30167181D01*
X49194612Y-30167177D01*
X49064204Y-30091887D01*
X49015989Y-30041321D01*
X49002765Y-29972714D01*
X49028733Y-29907849D01*
X49085647Y-29867320D01*
X49126204Y-29860500D01*
X50961045Y-29860500D01*
X51028084Y-29880185D01*
X51048726Y-29896819D01*
X52088487Y-30936580D01*
X52167574Y-30982241D01*
X52173784Y-30985827D01*
X52179812Y-30989307D01*
X52281673Y-31016600D01*
X52281675Y-31016600D01*
X53854225Y-31016600D01*
X53854227Y-31016600D01*
X53956088Y-30989307D01*
X54047413Y-30936580D01*
X54824573Y-30159418D01*
X54885896Y-30125934D01*
X54912254Y-30123100D01*
X54974055Y-30123100D01*
X54974057Y-30123100D01*
X55126784Y-30082177D01*
X55263716Y-30003120D01*
X55375520Y-29891316D01*
X55454577Y-29754384D01*
X55495500Y-29601657D01*
X55495500Y-29443543D01*
X55454577Y-29290816D01*
X55415221Y-29222649D01*
X55375524Y-29153890D01*
X55375518Y-29153882D01*
X55263717Y-29042081D01*
X55263709Y-29042075D01*
X55126790Y-28963026D01*
X55126786Y-28963024D01*
X55126785Y-28963023D01*
X55126784Y-28963023D01*
X55086825Y-28952316D01*
X55061183Y-28945445D01*
X55061179Y-28945444D01*
X54974057Y-28922100D01*
X54815943Y-28922100D01*
X54663216Y-28963023D01*
X54663209Y-28963026D01*
X54526290Y-29042075D01*
X54526282Y-29042081D01*
X54414481Y-29153882D01*
X54414477Y-29153887D01*
X54410244Y-29161219D01*
X54359673Y-29209431D01*
X54291065Y-29222649D01*
X54226202Y-29196676D01*
X54185678Y-29139759D01*
X54184930Y-29137528D01*
X54146213Y-29018366D01*
X54146211Y-29018360D01*
X54063996Y-28857006D01*
X54013414Y-28787385D01*
X53989935Y-28721578D01*
X54005761Y-28653524D01*
X54055867Y-28604830D01*
X54113733Y-28590500D01*
X54261025Y-28590500D01*
X54261027Y-28590500D01*
X54362888Y-28563207D01*
X54454213Y-28510480D01*
X54589123Y-28375569D01*
X54602413Y-28368312D01*
X54612639Y-28357143D01*
X54632454Y-28351908D01*
X54650443Y-28342086D01*
X54665547Y-28343166D01*
X54680191Y-28339298D01*
X54699692Y-28345608D01*
X54720135Y-28347070D01*
X54732258Y-28356145D01*
X54746668Y-28360808D01*
X54759660Y-28376658D01*
X54776069Y-28388941D01*
X54782060Y-28403983D01*
X54790962Y-28414843D01*
X54799976Y-28448966D01*
X54802414Y-28469988D01*
X54802415Y-28469991D01*
X54847793Y-28572764D01*
X54847794Y-28572765D01*
X54927235Y-28652206D01*
X55030009Y-28697585D01*
X55055135Y-28700500D01*
X56744864Y-28700499D01*
X56744879Y-28700497D01*
X56744882Y-28700497D01*
X56769987Y-28697586D01*
X56769988Y-28697585D01*
X56769991Y-28697585D01*
X56872765Y-28652206D01*
X56952206Y-28572765D01*
X56997585Y-28469991D01*
X57000500Y-28444865D01*
X57000499Y-26755136D01*
X56999268Y-26744517D01*
X56997586Y-26730012D01*
X56997585Y-26730010D01*
X56997585Y-26730009D01*
X56952206Y-26627235D01*
X56872765Y-26547794D01*
X56854642Y-26539792D01*
X56769992Y-26502415D01*
X56744865Y-26499500D01*
X55055143Y-26499500D01*
X55055117Y-26499502D01*
X55030012Y-26502413D01*
X55030008Y-26502415D01*
X54927235Y-26547793D01*
X54847794Y-26627234D01*
X54802415Y-26730006D01*
X54802415Y-26730008D01*
X54799500Y-26755131D01*
X54799500Y-27089901D01*
X54779815Y-27156940D01*
X54727011Y-27202695D01*
X54707594Y-27209676D01*
X54643710Y-27226793D01*
X54552387Y-27279520D01*
X54552384Y-27279522D01*
X54355459Y-27476447D01*
X54294136Y-27509932D01*
X54224444Y-27504948D01*
X54168511Y-27463076D01*
X54144094Y-27397612D01*
X54149847Y-27350448D01*
X54172892Y-27279522D01*
X54202171Y-27189409D01*
X54216765Y-27097259D01*
X54230500Y-27010551D01*
X54230500Y-26829448D01*
X54214019Y-26725397D01*
X54202171Y-26650591D01*
X54168771Y-26547794D01*
X54146212Y-26478363D01*
X54146211Y-26478360D01*
X54107411Y-26402213D01*
X54063996Y-26317006D01*
X54050396Y-26298287D01*
X53957558Y-26170505D01*
X53957554Y-26170500D01*
X53937735Y-26150681D01*
X53904250Y-26089358D01*
X53909234Y-26019666D01*
X53951106Y-25963733D01*
X54016570Y-25939316D01*
X54025416Y-25939000D01*
X57544225Y-25939000D01*
X57544227Y-25939000D01*
X57646088Y-25911707D01*
X57737413Y-25858980D01*
X58190719Y-25405672D01*
X58252040Y-25372189D01*
X58316716Y-25375424D01*
X58460591Y-25422171D01*
X58526905Y-25432674D01*
X58639449Y-25450500D01*
X58639454Y-25450500D01*
X58820551Y-25450500D01*
X58907259Y-25436765D01*
X58999409Y-25422171D01*
X59171639Y-25366211D01*
X59332994Y-25283996D01*
X59479501Y-25177553D01*
X59607553Y-25049501D01*
X59713996Y-24902994D01*
X59796211Y-24741639D01*
X59852171Y-24569409D01*
X59870473Y-24453856D01*
X59880500Y-24390551D01*
X59880500Y-24209448D01*
X59856753Y-24059521D01*
X59852171Y-24030591D01*
X59822204Y-23938360D01*
X59796212Y-23858363D01*
X59796211Y-23858360D01*
X59713996Y-23697006D01*
X59605291Y-23547385D01*
X59581812Y-23481578D01*
X59597638Y-23413525D01*
X59647744Y-23364830D01*
X59705610Y-23350500D01*
X62834390Y-23350500D01*
X62846470Y-23354047D01*
G37*
%TD.AperFunction*%
%TA.AperFunction,Conductor*%
G36*
X62858055Y-38829885D02*
G01*
X62903810Y-38882689D01*
X62913754Y-38951847D01*
X62891334Y-39007085D01*
X62826006Y-39097002D01*
X62743788Y-39258360D01*
X62743787Y-39258363D01*
X62687829Y-39430589D01*
X62659500Y-39609448D01*
X62659500Y-39790551D01*
X62687829Y-39969410D01*
X62743787Y-40141636D01*
X62743788Y-40141639D01*
X62826003Y-40302993D01*
X62934709Y-40452615D01*
X62958188Y-40518422D01*
X62942362Y-40586475D01*
X62892256Y-40635170D01*
X62834390Y-40649500D01*
X59705610Y-40649500D01*
X59638571Y-40629815D01*
X59592816Y-40577011D01*
X59582872Y-40507853D01*
X59605291Y-40452615D01*
X59665676Y-40369501D01*
X59713996Y-40302994D01*
X59796211Y-40141639D01*
X59852171Y-39969409D01*
X59869864Y-39857701D01*
X59880500Y-39790551D01*
X59880500Y-39609448D01*
X59864019Y-39505397D01*
X59852171Y-39430591D01*
X59796211Y-39258361D01*
X59796211Y-39258360D01*
X59767740Y-39202484D01*
X59713996Y-39097006D01*
X59708784Y-39089832D01*
X59648666Y-39007085D01*
X59625186Y-38941278D01*
X59641012Y-38873225D01*
X59691118Y-38824530D01*
X59748984Y-38810200D01*
X62791016Y-38810200D01*
X62858055Y-38829885D01*
G37*
%TD.AperFunction*%
%TA.AperFunction,Conductor*%
G36*
X62439584Y-33684985D02*
G01*
X62460226Y-33701619D01*
X63594984Y-34836377D01*
X63628469Y-34897700D01*
X63628920Y-34948249D01*
X63599500Y-35096153D01*
X63599500Y-35253846D01*
X63630261Y-35408489D01*
X63630264Y-35408501D01*
X63690603Y-35554174D01*
X63704262Y-35574616D01*
X63725139Y-35641293D01*
X63706654Y-35708673D01*
X63688842Y-35731185D01*
X63647795Y-35772233D01*
X63647794Y-35772234D01*
X63602415Y-35875006D01*
X63602415Y-35875008D01*
X63599500Y-35900131D01*
X63599500Y-36989856D01*
X63599502Y-36989882D01*
X63602413Y-37014987D01*
X63602415Y-37014991D01*
X63647793Y-37117764D01*
X63647794Y-37117765D01*
X63727235Y-37197206D01*
X63739134Y-37202459D01*
X63792510Y-37247544D01*
X63813039Y-37314330D01*
X63794202Y-37381612D01*
X63776730Y-37403575D01*
X63207426Y-37972881D01*
X63146103Y-38006366D01*
X63119745Y-38009200D01*
X54177571Y-38009200D01*
X54078550Y-38035732D01*
X54008700Y-38034069D01*
X53950838Y-37994906D01*
X53923335Y-37930677D01*
X53934922Y-37861775D01*
X53954944Y-37833665D01*
X53954396Y-37833197D01*
X53957546Y-37829507D01*
X53957553Y-37829501D01*
X54063996Y-37682994D01*
X54132675Y-37548205D01*
X54180650Y-37497409D01*
X54243160Y-37480500D01*
X56852925Y-37480500D01*
X56852927Y-37480500D01*
X56954788Y-37453207D01*
X57046113Y-37400480D01*
X59845497Y-34601093D01*
X59906818Y-34567610D01*
X59976509Y-34572594D01*
X60032443Y-34614466D01*
X60055649Y-34669377D01*
X60077829Y-34809410D01*
X60133787Y-34981636D01*
X60133788Y-34981639D01*
X60216006Y-35142997D01*
X60322441Y-35289494D01*
X60322445Y-35289499D01*
X60450500Y-35417554D01*
X60450505Y-35417558D01*
X60528880Y-35474500D01*
X60597006Y-35523996D01*
X60696353Y-35574616D01*
X60758360Y-35606211D01*
X60758363Y-35606212D01*
X60844476Y-35634191D01*
X60930591Y-35662171D01*
X61013429Y-35675291D01*
X61109449Y-35690500D01*
X61109454Y-35690500D01*
X61290551Y-35690500D01*
X61377259Y-35676765D01*
X61469409Y-35662171D01*
X61641639Y-35606211D01*
X61802994Y-35523996D01*
X61949501Y-35417553D01*
X62077553Y-35289501D01*
X62183996Y-35142994D01*
X62266211Y-34981639D01*
X62322171Y-34809409D01*
X62344350Y-34669377D01*
X62350500Y-34630551D01*
X62350500Y-34449448D01*
X62334019Y-34345397D01*
X62322171Y-34270591D01*
X62266211Y-34098361D01*
X62266211Y-34098360D01*
X62183996Y-33937006D01*
X62129636Y-33862185D01*
X62125404Y-33850324D01*
X62117161Y-33840811D01*
X62113887Y-33818045D01*
X62106157Y-33796378D01*
X62109008Y-33784114D01*
X62107217Y-33771653D01*
X62116772Y-33750728D01*
X62121983Y-33728324D01*
X62131011Y-33719549D01*
X62136242Y-33708097D01*
X62155593Y-33695660D01*
X62172089Y-33679630D01*
X62185834Y-33676226D01*
X62195020Y-33670323D01*
X62229955Y-33665300D01*
X62363373Y-33665300D01*
X62372545Y-33665300D01*
X62439584Y-33684985D01*
G37*
%TD.AperFunction*%
%TA.AperFunction,Conductor*%
G36*
X26610123Y-23370185D02*
G01*
X26655878Y-23422989D01*
X26665822Y-23492147D01*
X26636797Y-23555703D01*
X26630765Y-23562181D01*
X26562445Y-23630500D01*
X26562441Y-23630505D01*
X26456006Y-23777002D01*
X26373788Y-23938360D01*
X26373787Y-23938363D01*
X26317829Y-24110589D01*
X26289500Y-24289448D01*
X26289500Y-24470551D01*
X26317829Y-24649410D01*
X26373787Y-24821636D01*
X26373788Y-24821639D01*
X26456006Y-24982997D01*
X26562441Y-25129494D01*
X26562445Y-25129499D01*
X26690500Y-25257554D01*
X26690505Y-25257558D01*
X26748910Y-25299991D01*
X26837006Y-25363996D01*
X26942484Y-25417740D01*
X26998360Y-25446211D01*
X26998363Y-25446212D01*
X27042317Y-25460493D01*
X27170591Y-25502171D01*
X27253429Y-25515291D01*
X27349449Y-25530500D01*
X27349454Y-25530500D01*
X27530551Y-25530500D01*
X27617259Y-25516765D01*
X27709409Y-25502171D01*
X27881639Y-25446211D01*
X28042994Y-25363996D01*
X28189501Y-25257553D01*
X28317553Y-25129501D01*
X28423996Y-24982994D01*
X28506211Y-24821639D01*
X28562171Y-24649409D01*
X28579765Y-24538326D01*
X28587527Y-24489321D01*
X28617456Y-24426186D01*
X28676768Y-24389255D01*
X28746630Y-24390253D01*
X28804863Y-24428863D01*
X28832473Y-24489321D01*
X28857829Y-24649410D01*
X28913787Y-24821636D01*
X28913788Y-24821639D01*
X28996006Y-24982997D01*
X29102441Y-25129494D01*
X29102445Y-25129499D01*
X29230500Y-25257554D01*
X29230505Y-25257558D01*
X29288910Y-25299991D01*
X29377006Y-25363996D01*
X29482484Y-25417740D01*
X29538360Y-25446211D01*
X29538363Y-25446212D01*
X29582317Y-25460493D01*
X29710591Y-25502171D01*
X29793429Y-25515291D01*
X29889449Y-25530500D01*
X29889454Y-25530500D01*
X30070551Y-25530500D01*
X30157259Y-25516765D01*
X30249409Y-25502171D01*
X30421639Y-25446211D01*
X30582994Y-25363996D01*
X30729501Y-25257553D01*
X30857553Y-25129501D01*
X30963996Y-24982994D01*
X31046211Y-24821639D01*
X31102171Y-24649409D01*
X31119765Y-24538326D01*
X31127527Y-24489321D01*
X31157456Y-24426186D01*
X31216768Y-24389255D01*
X31286630Y-24390253D01*
X31344863Y-24428863D01*
X31372473Y-24489321D01*
X31397829Y-24649410D01*
X31453787Y-24821636D01*
X31453788Y-24821639D01*
X31536006Y-24982997D01*
X31642441Y-25129494D01*
X31642445Y-25129499D01*
X31770500Y-25257554D01*
X31770505Y-25257558D01*
X31828910Y-25299991D01*
X31917006Y-25363996D01*
X32022484Y-25417740D01*
X32078360Y-25446211D01*
X32078363Y-25446212D01*
X32122317Y-25460493D01*
X32250591Y-25502171D01*
X32333429Y-25515291D01*
X32429449Y-25530500D01*
X32429454Y-25530500D01*
X32610551Y-25530500D01*
X32697259Y-25516765D01*
X32789409Y-25502171D01*
X32961639Y-25446211D01*
X33122994Y-25363996D01*
X33269501Y-25257553D01*
X33397553Y-25129501D01*
X33503996Y-24982994D01*
X33586211Y-24821639D01*
X33642171Y-24649409D01*
X33659765Y-24538326D01*
X33667527Y-24489321D01*
X33697456Y-24426186D01*
X33756768Y-24389255D01*
X33826630Y-24390253D01*
X33884863Y-24428863D01*
X33912473Y-24489321D01*
X33937829Y-24649410D01*
X33993787Y-24821636D01*
X33993788Y-24821639D01*
X34076006Y-24982997D01*
X34182441Y-25129494D01*
X34182445Y-25129499D01*
X34310500Y-25257554D01*
X34310505Y-25257558D01*
X34368910Y-25299991D01*
X34457006Y-25363996D01*
X34562484Y-25417740D01*
X34618360Y-25446211D01*
X34618363Y-25446212D01*
X34662317Y-25460493D01*
X34790591Y-25502171D01*
X34873429Y-25515291D01*
X34969449Y-25530500D01*
X34969454Y-25530500D01*
X35150551Y-25530500D01*
X35237259Y-25516765D01*
X35329409Y-25502171D01*
X35501639Y-25446211D01*
X35662994Y-25363996D01*
X35809501Y-25257553D01*
X35937553Y-25129501D01*
X36043996Y-24982994D01*
X36126211Y-24821639D01*
X36182171Y-24649409D01*
X36199765Y-24538326D01*
X36207527Y-24489321D01*
X36237456Y-24426186D01*
X36296768Y-24389255D01*
X36366630Y-24390253D01*
X36424863Y-24428863D01*
X36452473Y-24489321D01*
X36477829Y-24649410D01*
X36533787Y-24821636D01*
X36533788Y-24821639D01*
X36616006Y-24982997D01*
X36722441Y-25129494D01*
X36722445Y-25129499D01*
X36850500Y-25257554D01*
X36850505Y-25257558D01*
X36997001Y-25363993D01*
X36997003Y-25363994D01*
X36997006Y-25363996D01*
X37131796Y-25432675D01*
X37182591Y-25480648D01*
X37199500Y-25543159D01*
X37199500Y-26209026D01*
X37226793Y-26310889D01*
X37257235Y-26363616D01*
X37270409Y-26386433D01*
X37279521Y-26402214D01*
X37380781Y-26503473D01*
X37414266Y-26564796D01*
X37417100Y-26591155D01*
X37417100Y-26652957D01*
X37444479Y-26755135D01*
X37458023Y-26805683D01*
X37458026Y-26805690D01*
X37537075Y-26942609D01*
X37537079Y-26942614D01*
X37537080Y-26942616D01*
X37648884Y-27054420D01*
X37648886Y-27054421D01*
X37648890Y-27054424D01*
X37785809Y-27133473D01*
X37785816Y-27133477D01*
X37938543Y-27174400D01*
X37938545Y-27174400D01*
X38096655Y-27174400D01*
X38096657Y-27174400D01*
X38249384Y-27133477D01*
X38386316Y-27054420D01*
X38498120Y-26942616D01*
X38577177Y-26805684D01*
X38618100Y-26652957D01*
X38618100Y-26494843D01*
X38577177Y-26342116D01*
X38500339Y-26209027D01*
X38498124Y-26205190D01*
X38498118Y-26205182D01*
X38386317Y-26093381D01*
X38386309Y-26093375D01*
X38249390Y-26014326D01*
X38249385Y-26014323D01*
X38092406Y-25972261D01*
X38032746Y-25935896D01*
X38002217Y-25873049D01*
X38000500Y-25852486D01*
X38000500Y-25543159D01*
X38020185Y-25476120D01*
X38068202Y-25432675D01*
X38202994Y-25363996D01*
X38349501Y-25257553D01*
X38477553Y-25129501D01*
X38583996Y-24982994D01*
X38666211Y-24821639D01*
X38722171Y-24649409D01*
X38739765Y-24538326D01*
X38747527Y-24489321D01*
X38777456Y-24426186D01*
X38836768Y-24389255D01*
X38906630Y-24390253D01*
X38964863Y-24428863D01*
X38992473Y-24489321D01*
X39017829Y-24649410D01*
X39073787Y-24821636D01*
X39073788Y-24821639D01*
X39156006Y-24982997D01*
X39262441Y-25129494D01*
X39262445Y-25129499D01*
X39390500Y-25257554D01*
X39390505Y-25257558D01*
X39448910Y-25299991D01*
X39537006Y-25363996D01*
X39642484Y-25417740D01*
X39698360Y-25446211D01*
X39698363Y-25446212D01*
X39742317Y-25460493D01*
X39870591Y-25502171D01*
X39953429Y-25515291D01*
X40049449Y-25530500D01*
X40049454Y-25530500D01*
X40230551Y-25530500D01*
X40409409Y-25502171D01*
X40471773Y-25481908D01*
X40537682Y-25460492D01*
X40607523Y-25458498D01*
X40667356Y-25494578D01*
X40698184Y-25557279D01*
X40700000Y-25578424D01*
X40700000Y-27665500D01*
X40680315Y-27732539D01*
X40627511Y-27778294D01*
X40576000Y-27789500D01*
X27251054Y-27789500D01*
X27184015Y-27769815D01*
X27163373Y-27753181D01*
X23948519Y-24538326D01*
X23915034Y-24477003D01*
X23912200Y-24450645D01*
X23912200Y-24327275D01*
X23912200Y-24327273D01*
X23884907Y-24225413D01*
X23832180Y-24134087D01*
X23757613Y-24059520D01*
X23666289Y-24006794D01*
X23666288Y-24006793D01*
X23602405Y-23989676D01*
X23542745Y-23953310D01*
X23512216Y-23890463D01*
X23510499Y-23869901D01*
X23510499Y-23485134D01*
X23510298Y-23481658D01*
X23526080Y-23413594D01*
X23576154Y-23364867D01*
X23634091Y-23350500D01*
X26543084Y-23350500D01*
X26610123Y-23370185D01*
G37*
%TD.AperFunction*%
%TD*%
%TA.AperFunction,NonConductor*%
G36*
X57766470Y-23354047D02*
G01*
X57779015Y-23352970D01*
X57799360Y-23363704D01*
X57821429Y-23370185D01*
X57829672Y-23379698D01*
X57840810Y-23385575D01*
X57852122Y-23405607D01*
X57867184Y-23422989D01*
X57868975Y-23435450D01*
X57875167Y-23446414D01*
X57873854Y-23469377D01*
X57877128Y-23492147D01*
X57871802Y-23505269D01*
X57871179Y-23516169D01*
X57854709Y-23547385D01*
X57746003Y-23697006D01*
X57663788Y-23858360D01*
X57663787Y-23858363D01*
X57607829Y-24030589D01*
X57586972Y-24162273D01*
X57557043Y-24225408D01*
X57497731Y-24262339D01*
X57427868Y-24261341D01*
X57369636Y-24222731D01*
X57341522Y-24158767D01*
X57340499Y-24142875D01*
X57340499Y-23474500D01*
X57360184Y-23407461D01*
X57412988Y-23361706D01*
X57464499Y-23350500D01*
X57754390Y-23350500D01*
X57766470Y-23354047D01*
G37*
%TD.AperFunction*%
%TA.AperFunction,NonConductor*%
G36*
X39310123Y-23370185D02*
G01*
X39355878Y-23422989D01*
X39365822Y-23492147D01*
X39336797Y-23555703D01*
X39330765Y-23562181D01*
X39262445Y-23630500D01*
X39262441Y-23630505D01*
X39156006Y-23777002D01*
X39073788Y-23938360D01*
X39073787Y-23938363D01*
X39017829Y-24110589D01*
X38992473Y-24270678D01*
X38962544Y-24333813D01*
X38903232Y-24370744D01*
X38833369Y-24369746D01*
X38775137Y-24331136D01*
X38747527Y-24270678D01*
X38733740Y-24183639D01*
X38722171Y-24110591D01*
X38688446Y-24006793D01*
X38666212Y-23938363D01*
X38666211Y-23938360D01*
X38625450Y-23858363D01*
X38583996Y-23777006D01*
X38525873Y-23697006D01*
X38477558Y-23630505D01*
X38477554Y-23630500D01*
X38409235Y-23562181D01*
X38375750Y-23500858D01*
X38380734Y-23431166D01*
X38422606Y-23375233D01*
X38488070Y-23350816D01*
X38496916Y-23350500D01*
X39243084Y-23350500D01*
X39310123Y-23370185D01*
G37*
%TD.AperFunction*%
%TA.AperFunction,NonConductor*%
G36*
X36724329Y-23356738D02*
G01*
X36746418Y-23358318D01*
X36757201Y-23366390D01*
X36770123Y-23370185D01*
X36784622Y-23386918D01*
X36802351Y-23400190D01*
X36807058Y-23412810D01*
X36815878Y-23422989D01*
X36819029Y-23444906D01*
X36826768Y-23465654D01*
X36823905Y-23478814D01*
X36825822Y-23492147D01*
X36816622Y-23512290D01*
X36811916Y-23533927D01*
X36798647Y-23551652D01*
X36796797Y-23555703D01*
X36790765Y-23562181D01*
X36722445Y-23630500D01*
X36722441Y-23630505D01*
X36616006Y-23777002D01*
X36533788Y-23938360D01*
X36533787Y-23938363D01*
X36477829Y-24110589D01*
X36452473Y-24270678D01*
X36422544Y-24333813D01*
X36363232Y-24370744D01*
X36293369Y-24369746D01*
X36235137Y-24331136D01*
X36207527Y-24270678D01*
X36193740Y-24183639D01*
X36182171Y-24110591D01*
X36148446Y-24006793D01*
X36126212Y-23938363D01*
X36126211Y-23938360D01*
X36085450Y-23858363D01*
X36043996Y-23777006D01*
X35985873Y-23697006D01*
X35937558Y-23630505D01*
X35937554Y-23630500D01*
X35869235Y-23562181D01*
X35835750Y-23500858D01*
X35840734Y-23431166D01*
X35882606Y-23375233D01*
X35948070Y-23350816D01*
X35956916Y-23350500D01*
X36703084Y-23350500D01*
X36724329Y-23356738D01*
G37*
%TD.AperFunction*%
%TA.AperFunction,NonConductor*%
G36*
X34230123Y-23370185D02*
G01*
X34275878Y-23422989D01*
X34285822Y-23492147D01*
X34256797Y-23555703D01*
X34250765Y-23562181D01*
X34182445Y-23630500D01*
X34182441Y-23630505D01*
X34076006Y-23777002D01*
X33993788Y-23938360D01*
X33993787Y-23938363D01*
X33937829Y-24110589D01*
X33912473Y-24270678D01*
X33882544Y-24333813D01*
X33823232Y-24370744D01*
X33753369Y-24369746D01*
X33695137Y-24331136D01*
X33667527Y-24270678D01*
X33653740Y-24183639D01*
X33642171Y-24110591D01*
X33608446Y-24006793D01*
X33586212Y-23938363D01*
X33586211Y-23938360D01*
X33545450Y-23858363D01*
X33503996Y-23777006D01*
X33445873Y-23697006D01*
X33397558Y-23630505D01*
X33397554Y-23630500D01*
X33329235Y-23562181D01*
X33295750Y-23500858D01*
X33300734Y-23431166D01*
X33342606Y-23375233D01*
X33408070Y-23350816D01*
X33416916Y-23350500D01*
X34163084Y-23350500D01*
X34230123Y-23370185D01*
G37*
%TD.AperFunction*%
%TA.AperFunction,NonConductor*%
G36*
X31644329Y-23356738D02*
G01*
X31666418Y-23358318D01*
X31677201Y-23366390D01*
X31690123Y-23370185D01*
X31704622Y-23386918D01*
X31722351Y-23400190D01*
X31727058Y-23412810D01*
X31735878Y-23422989D01*
X31739029Y-23444906D01*
X31746768Y-23465654D01*
X31743905Y-23478814D01*
X31745822Y-23492147D01*
X31736622Y-23512290D01*
X31731916Y-23533927D01*
X31718647Y-23551652D01*
X31716797Y-23555703D01*
X31710765Y-23562181D01*
X31642445Y-23630500D01*
X31642441Y-23630505D01*
X31536006Y-23777002D01*
X31453788Y-23938360D01*
X31453787Y-23938363D01*
X31397829Y-24110589D01*
X31372473Y-24270678D01*
X31342544Y-24333813D01*
X31283232Y-24370744D01*
X31213369Y-24369746D01*
X31155137Y-24331136D01*
X31127527Y-24270678D01*
X31113740Y-24183639D01*
X31102171Y-24110591D01*
X31068446Y-24006793D01*
X31046212Y-23938363D01*
X31046211Y-23938360D01*
X31005450Y-23858363D01*
X30963996Y-23777006D01*
X30905873Y-23697006D01*
X30857558Y-23630505D01*
X30857554Y-23630500D01*
X30789235Y-23562181D01*
X30755750Y-23500858D01*
X30760734Y-23431166D01*
X30802606Y-23375233D01*
X30868070Y-23350816D01*
X30876916Y-23350500D01*
X31623084Y-23350500D01*
X31644329Y-23356738D01*
G37*
%TD.AperFunction*%
%TA.AperFunction,NonConductor*%
G36*
X29150123Y-23370185D02*
G01*
X29195878Y-23422989D01*
X29205822Y-23492147D01*
X29176797Y-23555703D01*
X29170765Y-23562181D01*
X29102445Y-23630500D01*
X29102441Y-23630505D01*
X28996006Y-23777002D01*
X28913788Y-23938360D01*
X28913787Y-23938363D01*
X28857829Y-24110589D01*
X28832473Y-24270678D01*
X28802544Y-24333813D01*
X28743232Y-24370744D01*
X28673369Y-24369746D01*
X28615137Y-24331136D01*
X28587527Y-24270678D01*
X28573740Y-24183639D01*
X28562171Y-24110591D01*
X28528446Y-24006793D01*
X28506212Y-23938363D01*
X28506211Y-23938360D01*
X28465450Y-23858363D01*
X28423996Y-23777006D01*
X28365873Y-23697006D01*
X28317558Y-23630505D01*
X28317554Y-23630500D01*
X28249235Y-23562181D01*
X28215750Y-23500858D01*
X28220734Y-23431166D01*
X28262606Y-23375233D01*
X28328070Y-23350816D01*
X28336916Y-23350500D01*
X29083084Y-23350500D01*
X29150123Y-23370185D01*
G37*
%TD.AperFunction*%
%TA.AperFunction,NonConductor*%
G36*
X57472304Y-24335801D02*
G01*
X57482146Y-24334386D01*
X57505408Y-24345009D01*
X57530042Y-24351862D01*
X57536658Y-24359280D01*
X57545702Y-24363411D01*
X57559527Y-24384924D01*
X57576546Y-24404007D01*
X57580954Y-24418266D01*
X57583476Y-24422189D01*
X57586972Y-24437726D01*
X57607829Y-24569410D01*
X57654575Y-24713281D01*
X57656570Y-24783122D01*
X57624326Y-24839280D01*
X57552178Y-24911427D01*
X57490858Y-24944911D01*
X57421166Y-24939927D01*
X57365232Y-24898056D01*
X57340815Y-24832592D01*
X57340499Y-24823745D01*
X57340499Y-24457124D01*
X57347702Y-24432591D01*
X57350980Y-24407229D01*
X57357383Y-24399622D01*
X57360184Y-24390085D01*
X57379507Y-24373340D01*
X57395977Y-24353777D01*
X57405474Y-24350840D01*
X57412988Y-24344330D01*
X57438299Y-24340690D01*
X57462728Y-24333137D01*
X57472304Y-24335801D01*
G37*
%TD.AperFunction*%
%TA.AperFunction,NonConductor*%
G36*
X54982539Y-23370185D02*
G01*
X55028294Y-23422989D01*
X55039500Y-23474500D01*
X55039500Y-24270678D01*
X55039501Y-25014000D01*
X55019816Y-25081039D01*
X54967013Y-25126794D01*
X54915501Y-25138000D01*
X54187366Y-25138000D01*
X54120327Y-25118315D01*
X54074572Y-25065511D01*
X54064628Y-24996353D01*
X54076882Y-24957705D01*
X54146206Y-24821649D01*
X54146212Y-24821636D01*
X54158726Y-24783122D01*
X54202171Y-24649409D01*
X54219765Y-24538326D01*
X54230500Y-24470551D01*
X54230500Y-24289448D01*
X54214019Y-24185397D01*
X54202171Y-24110591D01*
X54168446Y-24006793D01*
X54146212Y-23938363D01*
X54146211Y-23938360D01*
X54105450Y-23858363D01*
X54063996Y-23777006D01*
X54005873Y-23697006D01*
X53957558Y-23630505D01*
X53957554Y-23630500D01*
X53889235Y-23562181D01*
X53855750Y-23500858D01*
X53860734Y-23431166D01*
X53902606Y-23375233D01*
X53968070Y-23350816D01*
X53976916Y-23350500D01*
X54915500Y-23350500D01*
X54982539Y-23370185D01*
G37*
%TD.AperFunction*%
%TA.AperFunction,NonConductor*%
G36*
X52250123Y-23370185D02*
G01*
X52295878Y-23422989D01*
X52305822Y-23492147D01*
X52276797Y-23555703D01*
X52270765Y-23562181D01*
X52202445Y-23630500D01*
X52202441Y-23630505D01*
X52096006Y-23777002D01*
X52013788Y-23938360D01*
X52013787Y-23938363D01*
X51957829Y-24110589D01*
X51929500Y-24289448D01*
X51929500Y-24470551D01*
X51957829Y-24649410D01*
X52013787Y-24821636D01*
X52013793Y-24821649D01*
X52083118Y-24957705D01*
X52096015Y-25026374D01*
X52069739Y-25091114D01*
X52012633Y-25131372D01*
X51972634Y-25138000D01*
X44194500Y-25138000D01*
X44127461Y-25118315D01*
X44081706Y-25065511D01*
X44070500Y-25014000D01*
X44070499Y-23485134D01*
X44070298Y-23481658D01*
X44086080Y-23413594D01*
X44136154Y-23364867D01*
X44194091Y-23350500D01*
X52183084Y-23350500D01*
X52250123Y-23370185D01*
G37*
%TD.AperFunction*%
%TA.AperFunction,NonConductor*%
G36*
X52155829Y-25945238D02*
G01*
X52177918Y-25946818D01*
X52188701Y-25954890D01*
X52201623Y-25958685D01*
X52216122Y-25975418D01*
X52233851Y-25988690D01*
X52238558Y-26001310D01*
X52247378Y-26011489D01*
X52250529Y-26033406D01*
X52258268Y-26054154D01*
X52255405Y-26067314D01*
X52257322Y-26080647D01*
X52248122Y-26100790D01*
X52243416Y-26122427D01*
X52230147Y-26140152D01*
X52228297Y-26144203D01*
X52222265Y-26150681D01*
X52202445Y-26170500D01*
X52202441Y-26170505D01*
X52096006Y-26317002D01*
X52013788Y-26478360D01*
X52013787Y-26478363D01*
X51957829Y-26650589D01*
X51929500Y-26829448D01*
X51929500Y-27010551D01*
X51957829Y-27189410D01*
X52013787Y-27361636D01*
X52013788Y-27361639D01*
X52096003Y-27522993D01*
X52146586Y-27592615D01*
X52170065Y-27658422D01*
X52154239Y-27726476D01*
X52104133Y-27775170D01*
X52046267Y-27789500D01*
X43953733Y-27789500D01*
X43886694Y-27769815D01*
X43840939Y-27717011D01*
X43830995Y-27647853D01*
X43853414Y-27592615D01*
X43869805Y-27570053D01*
X43903996Y-27522994D01*
X43986211Y-27361639D01*
X44042171Y-27189409D01*
X44056765Y-27097259D01*
X44070500Y-27010551D01*
X44070500Y-26829448D01*
X44054019Y-26725397D01*
X44042171Y-26650591D01*
X44008771Y-26547794D01*
X43986212Y-26478363D01*
X43986211Y-26478360D01*
X43947411Y-26402213D01*
X43903996Y-26317006D01*
X43890396Y-26298287D01*
X43797558Y-26170505D01*
X43797554Y-26170500D01*
X43777735Y-26150681D01*
X43744250Y-26089358D01*
X43749234Y-26019666D01*
X43791106Y-25963733D01*
X43856570Y-25939316D01*
X43865416Y-25939000D01*
X52134584Y-25939000D01*
X52155829Y-25945238D01*
G37*
%TD.AperFunction*%
%TA.AperFunction,NonConductor*%
G36*
X52113306Y-28610185D02*
G01*
X52159061Y-28662989D01*
X52169005Y-28732147D01*
X52146586Y-28787385D01*
X52096003Y-28857006D01*
X52013788Y-29018360D01*
X52013787Y-29018363D01*
X51957829Y-29190589D01*
X51929920Y-29366791D01*
X51899990Y-29429925D01*
X51840678Y-29466856D01*
X51770816Y-29465858D01*
X51719766Y-29435073D01*
X51424215Y-29139522D01*
X51424213Y-29139520D01*
X51378550Y-29113156D01*
X51332889Y-29086793D01*
X51281957Y-29073146D01*
X51231027Y-29059500D01*
X51231026Y-29059500D01*
X44083160Y-29059500D01*
X44016121Y-29039815D01*
X43972675Y-28991795D01*
X43903996Y-28857006D01*
X43853414Y-28787385D01*
X43829935Y-28721578D01*
X43845761Y-28653524D01*
X43895867Y-28604830D01*
X43953733Y-28590500D01*
X52046267Y-28590500D01*
X52113306Y-28610185D01*
G37*
%TD.AperFunction*%
%TA.AperFunction,NonConductor*%
G36*
X48557075Y-29869743D02*
G01*
X48588876Y-29877862D01*
X48590437Y-29879539D01*
X48592635Y-29880185D01*
X48614112Y-29904971D01*
X48636484Y-29929003D01*
X48636890Y-29931258D01*
X48638390Y-29932989D01*
X48643058Y-29965454D01*
X48648885Y-29997763D01*
X48648008Y-29999879D01*
X48648334Y-30002147D01*
X48634700Y-30031999D01*
X48622142Y-30062313D01*
X48619906Y-30064393D01*
X48619309Y-30065703D01*
X48612156Y-30071608D01*
X48596309Y-30086361D01*
X48592065Y-30089306D01*
X48457184Y-30167180D01*
X48405632Y-30218731D01*
X48396515Y-30225061D01*
X48330220Y-30247121D01*
X48325802Y-30247200D01*
X44012488Y-30247200D01*
X43945449Y-30227515D01*
X43899694Y-30174711D01*
X43889750Y-30105553D01*
X43902003Y-30066905D01*
X43934504Y-30003120D01*
X43966573Y-29940180D01*
X43972675Y-29928205D01*
X44020650Y-29877409D01*
X44083160Y-29860500D01*
X48525596Y-29860500D01*
X48557075Y-29869743D01*
G37*
%TD.AperFunction*%
%TA.AperFunction,NonConductor*%
G36*
X61739281Y-30565674D02*
G01*
X61979281Y-30805674D01*
X61993984Y-30832601D01*
X62010577Y-30858420D01*
X62011468Y-30864620D01*
X62012766Y-30866997D01*
X62015600Y-30893355D01*
X62015600Y-30927107D01*
X61995915Y-30994146D01*
X61943111Y-31039901D01*
X61873953Y-31049845D01*
X61818716Y-31027426D01*
X61802996Y-31016005D01*
X61641639Y-30933788D01*
X61641636Y-30933787D01*
X61469410Y-30877829D01*
X61309321Y-30852473D01*
X61246186Y-30822544D01*
X61209255Y-30763232D01*
X61210253Y-30693370D01*
X61248863Y-30635137D01*
X61309321Y-30607527D01*
X61469409Y-30582171D01*
X61511038Y-30568645D01*
X61613284Y-30535423D01*
X61683123Y-30533429D01*
X61739281Y-30565674D01*
G37*
%TD.AperFunction*%
%TA.AperFunction,NonConductor*%
G36*
X42105203Y-35352703D02*
G01*
X42111681Y-35358735D01*
X42170500Y-35417554D01*
X42170505Y-35417558D01*
X42248880Y-35474500D01*
X42317006Y-35523996D01*
X42416353Y-35574616D01*
X42478360Y-35606211D01*
X42478363Y-35606212D01*
X42564476Y-35634191D01*
X42650591Y-35662171D01*
X42723401Y-35673703D01*
X42810678Y-35687527D01*
X42873813Y-35717456D01*
X42910744Y-35776768D01*
X42909746Y-35846631D01*
X42871136Y-35904863D01*
X42810678Y-35932473D01*
X42650589Y-35957829D01*
X42478363Y-36013787D01*
X42478360Y-36013788D01*
X42317002Y-36096006D01*
X42170505Y-36202441D01*
X42170500Y-36202445D01*
X42111681Y-36261265D01*
X42050358Y-36294750D01*
X41980666Y-36289766D01*
X41924733Y-36247894D01*
X41900316Y-36182430D01*
X41900000Y-36173584D01*
X41900000Y-35446416D01*
X41919685Y-35379377D01*
X41972489Y-35333622D01*
X42041647Y-35323678D01*
X42105203Y-35352703D01*
G37*
%TD.AperFunction*%
%TA.AperFunction,NonConductor*%
G36*
X59529285Y-33571885D02*
G01*
X59575040Y-33624689D01*
X59584984Y-33693847D01*
X59555959Y-33757403D01*
X59549927Y-33763880D01*
X58059965Y-35253842D01*
X56670626Y-36643181D01*
X56609303Y-36676666D01*
X56582945Y-36679500D01*
X54243160Y-36679500D01*
X54176121Y-36659815D01*
X54132675Y-36611795D01*
X54124009Y-36594787D01*
X54063996Y-36477006D01*
X54050396Y-36458287D01*
X53957558Y-36330505D01*
X53957554Y-36330500D01*
X53829499Y-36202445D01*
X53829494Y-36202441D01*
X53682997Y-36096006D01*
X53682996Y-36096005D01*
X53682994Y-36096004D01*
X53631300Y-36069664D01*
X53521639Y-36013788D01*
X53521636Y-36013787D01*
X53349410Y-35957829D01*
X53189321Y-35932473D01*
X53126186Y-35902544D01*
X53089255Y-35843232D01*
X53090253Y-35773370D01*
X53128863Y-35715137D01*
X53189321Y-35687527D01*
X53259425Y-35676422D01*
X53349409Y-35662171D01*
X53521639Y-35606211D01*
X53682994Y-35523996D01*
X53829501Y-35417553D01*
X53957553Y-35289501D01*
X54063996Y-35142994D01*
X54146211Y-34981639D01*
X54202171Y-34809409D01*
X54224350Y-34669377D01*
X54230500Y-34630551D01*
X54230500Y-34449448D01*
X54214019Y-34345397D01*
X54202171Y-34270591D01*
X54146211Y-34098361D01*
X54146211Y-34098360D01*
X54103991Y-34015500D01*
X54063996Y-33937006D01*
X54009636Y-33862185D01*
X53957558Y-33790505D01*
X53957554Y-33790500D01*
X53930935Y-33763881D01*
X53897450Y-33702558D01*
X53902434Y-33632866D01*
X53944306Y-33576933D01*
X54009770Y-33552516D01*
X54018616Y-33552200D01*
X59462246Y-33552200D01*
X59529285Y-33571885D01*
G37*
%TD.AperFunction*%
%TA.AperFunction,NonConductor*%
G36*
X64904011Y-37490687D02*
G01*
X64923523Y-37492083D01*
X64936404Y-37501726D01*
X64951634Y-37506916D01*
X64963798Y-37522233D01*
X64979456Y-37533955D01*
X64985078Y-37549029D01*
X64995086Y-37561631D01*
X64997038Y-37581094D01*
X65003873Y-37599419D01*
X65000530Y-37615914D01*
X65002059Y-37631152D01*
X64990674Y-37664559D01*
X64909434Y-37824000D01*
X64836446Y-38048631D01*
X64799500Y-38281902D01*
X64799500Y-38518097D01*
X64836447Y-38751369D01*
X64836447Y-38751372D01*
X64844346Y-38775681D01*
X64846341Y-38845523D01*
X64810260Y-38905355D01*
X64747559Y-38936183D01*
X64678145Y-38928218D01*
X64638734Y-38901680D01*
X64559499Y-38822445D01*
X64559494Y-38822441D01*
X64412997Y-38716006D01*
X64412996Y-38716005D01*
X64412994Y-38716004D01*
X64361300Y-38689664D01*
X64251639Y-38633788D01*
X64251636Y-38633787D01*
X64079410Y-38577829D01*
X64022684Y-38568844D01*
X63959549Y-38538914D01*
X63922619Y-38479602D01*
X63923617Y-38409740D01*
X63954400Y-38358692D01*
X64792510Y-37520582D01*
X64806628Y-37512873D01*
X64817678Y-37501174D01*
X64836665Y-37496471D01*
X64853831Y-37487099D01*
X64869880Y-37488246D01*
X64885499Y-37484379D01*
X64904011Y-37490687D01*
G37*
%TD.AperFunction*%
%TA.AperFunction,NonConductor*%
G36*
X40643039Y-34960185D02*
G01*
X40688794Y-35012989D01*
X40700000Y-35064500D01*
X40700000Y-38421575D01*
X40680315Y-38488614D01*
X40627511Y-38534369D01*
X40558353Y-38544313D01*
X40537683Y-38539506D01*
X40409411Y-38497829D01*
X40409412Y-38497829D01*
X40230551Y-38469500D01*
X40230546Y-38469500D01*
X40049454Y-38469500D01*
X40049449Y-38469500D01*
X39870589Y-38497829D01*
X39698363Y-38553787D01*
X39698360Y-38553788D01*
X39537002Y-38636006D01*
X39390505Y-38742441D01*
X39390500Y-38742445D01*
X39262445Y-38870500D01*
X39262441Y-38870505D01*
X39156006Y-39017002D01*
X39073788Y-39178360D01*
X39073787Y-39178363D01*
X39017829Y-39350589D01*
X38992473Y-39510678D01*
X38962544Y-39573813D01*
X38903232Y-39610744D01*
X38833369Y-39609746D01*
X38775137Y-39571136D01*
X38747527Y-39510678D01*
X38728593Y-39391137D01*
X38722171Y-39350591D01*
X38666211Y-39178361D01*
X38666211Y-39178360D01*
X38637740Y-39122484D01*
X38583996Y-39017006D01*
X38554109Y-38975870D01*
X38477558Y-38870505D01*
X38477554Y-38870500D01*
X38349499Y-38742445D01*
X38349494Y-38742441D01*
X38202997Y-38636006D01*
X38202996Y-38636005D01*
X38202994Y-38636004D01*
X38151300Y-38609664D01*
X38041639Y-38553788D01*
X38041636Y-38553787D01*
X37869410Y-38497829D01*
X37690551Y-38469500D01*
X37690546Y-38469500D01*
X37509454Y-38469500D01*
X37509449Y-38469500D01*
X37330589Y-38497829D01*
X37158363Y-38553787D01*
X37158360Y-38553788D01*
X36997002Y-38636006D01*
X36850505Y-38742441D01*
X36850500Y-38742445D01*
X36722445Y-38870500D01*
X36722441Y-38870505D01*
X36616006Y-39017002D01*
X36533788Y-39178360D01*
X36533787Y-39178363D01*
X36477829Y-39350589D01*
X36452473Y-39510678D01*
X36422544Y-39573813D01*
X36363232Y-39610744D01*
X36293369Y-39609746D01*
X36235137Y-39571136D01*
X36207527Y-39510678D01*
X36188593Y-39391137D01*
X36182171Y-39350591D01*
X36126211Y-39178361D01*
X36126211Y-39178360D01*
X36097740Y-39122484D01*
X36043996Y-39017006D01*
X36014109Y-38975870D01*
X35937558Y-38870505D01*
X35937554Y-38870500D01*
X35809499Y-38742445D01*
X35809494Y-38742441D01*
X35662997Y-38636006D01*
X35662996Y-38636005D01*
X35662994Y-38636004D01*
X35611300Y-38609664D01*
X35501639Y-38553788D01*
X35501636Y-38553787D01*
X35329410Y-38497829D01*
X35150551Y-38469500D01*
X35150546Y-38469500D01*
X34969454Y-38469500D01*
X34969449Y-38469500D01*
X34790589Y-38497829D01*
X34618363Y-38553787D01*
X34618360Y-38553788D01*
X34457002Y-38636006D01*
X34310505Y-38742441D01*
X34310500Y-38742445D01*
X34182445Y-38870500D01*
X34182441Y-38870505D01*
X34076006Y-39017002D01*
X33993788Y-39178360D01*
X33993787Y-39178363D01*
X33937829Y-39350589D01*
X33912473Y-39510678D01*
X33882544Y-39573813D01*
X33823232Y-39610744D01*
X33753369Y-39609746D01*
X33695137Y-39571136D01*
X33667527Y-39510678D01*
X33648593Y-39391137D01*
X33642171Y-39350591D01*
X33586211Y-39178361D01*
X33586211Y-39178360D01*
X33557740Y-39122484D01*
X33503996Y-39017006D01*
X33474109Y-38975870D01*
X33397558Y-38870505D01*
X33397554Y-38870500D01*
X33269499Y-38742445D01*
X33269494Y-38742441D01*
X33122997Y-38636006D01*
X33122996Y-38636005D01*
X33122994Y-38636004D01*
X33071300Y-38609664D01*
X32961639Y-38553788D01*
X32961636Y-38553787D01*
X32789410Y-38497829D01*
X32610551Y-38469500D01*
X32610546Y-38469500D01*
X32429454Y-38469500D01*
X32429449Y-38469500D01*
X32250589Y-38497829D01*
X32078363Y-38553787D01*
X32078360Y-38553788D01*
X31917002Y-38636006D01*
X31770505Y-38742441D01*
X31770500Y-38742445D01*
X31642445Y-38870500D01*
X31642441Y-38870505D01*
X31536006Y-39017002D01*
X31453788Y-39178360D01*
X31453787Y-39178363D01*
X31397829Y-39350589D01*
X31372473Y-39510678D01*
X31342544Y-39573813D01*
X31283232Y-39610744D01*
X31213369Y-39609746D01*
X31155137Y-39571136D01*
X31127527Y-39510678D01*
X31108593Y-39391137D01*
X31102171Y-39350591D01*
X31046211Y-39178361D01*
X31046211Y-39178360D01*
X31017740Y-39122484D01*
X30963996Y-39017006D01*
X30934109Y-38975870D01*
X30857558Y-38870505D01*
X30857554Y-38870500D01*
X30729499Y-38742445D01*
X30729494Y-38742441D01*
X30582997Y-38636006D01*
X30582996Y-38636005D01*
X30582994Y-38636004D01*
X30531300Y-38609664D01*
X30421639Y-38553788D01*
X30421636Y-38553787D01*
X30249410Y-38497829D01*
X30070551Y-38469500D01*
X30070546Y-38469500D01*
X29889454Y-38469500D01*
X29889449Y-38469500D01*
X29710589Y-38497829D01*
X29538363Y-38553787D01*
X29538360Y-38553788D01*
X29377002Y-38636006D01*
X29245755Y-38731361D01*
X29245747Y-38731368D01*
X29230499Y-38742447D01*
X29102447Y-38870499D01*
X29091368Y-38885747D01*
X29091365Y-38885751D01*
X28996003Y-39017006D01*
X28913788Y-39178360D01*
X28913787Y-39178363D01*
X28857829Y-39350589D01*
X28832473Y-39510678D01*
X28802544Y-39573813D01*
X28743232Y-39610744D01*
X28673369Y-39609746D01*
X28615137Y-39571136D01*
X28587527Y-39510678D01*
X28568593Y-39391137D01*
X28562171Y-39350591D01*
X28515424Y-39206716D01*
X28513429Y-39136875D01*
X28545672Y-39080719D01*
X32649574Y-34976819D01*
X32710897Y-34943334D01*
X32737255Y-34940500D01*
X40576000Y-34940500D01*
X40643039Y-34960185D01*
G37*
%TD.AperFunction*%
%TA.AperFunction,NonConductor*%
G36*
X57723096Y-38813747D02*
G01*
X57735641Y-38812670D01*
X57755986Y-38823404D01*
X57778055Y-38829885D01*
X57786298Y-38839398D01*
X57797436Y-38845275D01*
X57808748Y-38865307D01*
X57823810Y-38882689D01*
X57825601Y-38895150D01*
X57831793Y-38906114D01*
X57830480Y-38929078D01*
X57833754Y-38951847D01*
X57828428Y-38964968D01*
X57827805Y-38975870D01*
X57811334Y-39007085D01*
X57746006Y-39097002D01*
X57663788Y-39258360D01*
X57663787Y-39258363D01*
X57607829Y-39430589D01*
X57586972Y-39562271D01*
X57557042Y-39625405D01*
X57497731Y-39662336D01*
X57427868Y-39661338D01*
X57369636Y-39622728D01*
X57341522Y-39558764D01*
X57340499Y-39542872D01*
X57340499Y-38934200D01*
X57360184Y-38867161D01*
X57412988Y-38821406D01*
X57464499Y-38810200D01*
X57711016Y-38810200D01*
X57723096Y-38813747D01*
G37*
%TD.AperFunction*%
%TA.AperFunction,NonConductor*%
G36*
X21128833Y-23969360D02*
G01*
X21184767Y-24011231D01*
X21209184Y-24076696D01*
X21209500Y-24085542D01*
X21209500Y-25274856D01*
X21209502Y-25274882D01*
X21212413Y-25299987D01*
X21212415Y-25299991D01*
X21257793Y-25402764D01*
X21257794Y-25402765D01*
X21337235Y-25482206D01*
X21440009Y-25527585D01*
X21465135Y-25530500D01*
X23254864Y-25530499D01*
X23254879Y-25530497D01*
X23254882Y-25530497D01*
X23279987Y-25527586D01*
X23279988Y-25527585D01*
X23279991Y-25527585D01*
X23382765Y-25482206D01*
X23462206Y-25402765D01*
X23462210Y-25402755D01*
X23466421Y-25396609D01*
X23520545Y-25352423D01*
X23589965Y-25344513D01*
X23652642Y-25375390D01*
X23656406Y-25378999D01*
X25220017Y-26942609D01*
X26713318Y-28435910D01*
X26713320Y-28435913D01*
X26787887Y-28510480D01*
X26824503Y-28531620D01*
X26879213Y-28563207D01*
X26981073Y-28590501D01*
X26981075Y-28590501D01*
X27094123Y-28590501D01*
X27094139Y-28590500D01*
X39582613Y-28590500D01*
X39649652Y-28610185D01*
X39695407Y-28662989D01*
X39705351Y-28732147D01*
X39702392Y-28746574D01*
X39695300Y-28773043D01*
X39695300Y-28931157D01*
X39729690Y-29059500D01*
X39736223Y-29083883D01*
X39736226Y-29083890D01*
X39815275Y-29220809D01*
X39815279Y-29220814D01*
X39815280Y-29220816D01*
X39927084Y-29332620D01*
X39927086Y-29332621D01*
X39927090Y-29332624D01*
X39995845Y-29372319D01*
X40064016Y-29411677D01*
X40216743Y-29452600D01*
X40278545Y-29452600D01*
X40345584Y-29472285D01*
X40366226Y-29488919D01*
X40663681Y-29786374D01*
X40697166Y-29847697D01*
X40700000Y-29874055D01*
X40700000Y-34015500D01*
X40680315Y-34082539D01*
X40627511Y-34128294D01*
X40576000Y-34139500D01*
X32467273Y-34139500D01*
X32365410Y-34166793D01*
X32274087Y-34219520D01*
X32274084Y-34219522D01*
X27979280Y-38514325D01*
X27917957Y-38547810D01*
X27853281Y-38544575D01*
X27709410Y-38497829D01*
X27530551Y-38469500D01*
X27530546Y-38469500D01*
X27349454Y-38469500D01*
X27349449Y-38469500D01*
X27170589Y-38497829D01*
X26998363Y-38553787D01*
X26998360Y-38553788D01*
X26837002Y-38636006D01*
X26690505Y-38742441D01*
X26690500Y-38742445D01*
X26562445Y-38870500D01*
X26562441Y-38870505D01*
X26456006Y-39017002D01*
X26373788Y-39178360D01*
X26373787Y-39178363D01*
X26317829Y-39350589D01*
X26292473Y-39510678D01*
X26262544Y-39573813D01*
X26203232Y-39610744D01*
X26133369Y-39609746D01*
X26075137Y-39571136D01*
X26047527Y-39510678D01*
X26028593Y-39391137D01*
X26022171Y-39350591D01*
X25966211Y-39178361D01*
X25966211Y-39178360D01*
X25937740Y-39122484D01*
X25883996Y-39017006D01*
X25854109Y-38975870D01*
X25777558Y-38870505D01*
X25777554Y-38870500D01*
X25649499Y-38742445D01*
X25649494Y-38742441D01*
X25502997Y-38636006D01*
X25502996Y-38636005D01*
X25502994Y-38636004D01*
X25451300Y-38609664D01*
X25341639Y-38553788D01*
X25341636Y-38553787D01*
X25169410Y-38497829D01*
X24990551Y-38469500D01*
X24990546Y-38469500D01*
X24809454Y-38469500D01*
X24809449Y-38469500D01*
X24630589Y-38497829D01*
X24458363Y-38553787D01*
X24458360Y-38553788D01*
X24297002Y-38636006D01*
X24150505Y-38742441D01*
X24150500Y-38742445D01*
X24022445Y-38870500D01*
X24022441Y-38870505D01*
X23916006Y-39017002D01*
X23833788Y-39178360D01*
X23833787Y-39178363D01*
X23777829Y-39350589D01*
X23752473Y-39510678D01*
X23722544Y-39573813D01*
X23663232Y-39610744D01*
X23593369Y-39609746D01*
X23535137Y-39571136D01*
X23507527Y-39510678D01*
X23488593Y-39391137D01*
X23482171Y-39350591D01*
X23426211Y-39178361D01*
X23426211Y-39178360D01*
X23397740Y-39122484D01*
X23343996Y-39017006D01*
X23314109Y-38975870D01*
X23237558Y-38870505D01*
X23237554Y-38870500D01*
X23109499Y-38742445D01*
X23109494Y-38742441D01*
X22962997Y-38636006D01*
X22962996Y-38636005D01*
X22962994Y-38636004D01*
X22911300Y-38609664D01*
X22801639Y-38553788D01*
X22801636Y-38553787D01*
X22629410Y-38497829D01*
X22450551Y-38469500D01*
X22450546Y-38469500D01*
X22269454Y-38469500D01*
X22269449Y-38469500D01*
X22090589Y-38497829D01*
X21918363Y-38553787D01*
X21918360Y-38553788D01*
X21757002Y-38636006D01*
X21610505Y-38742441D01*
X21610500Y-38742445D01*
X21482445Y-38870500D01*
X21482441Y-38870505D01*
X21376006Y-39017002D01*
X21293788Y-39178360D01*
X21293787Y-39178363D01*
X21237829Y-39350589D01*
X21209500Y-39529448D01*
X21209500Y-39710551D01*
X21237828Y-39889409D01*
X21247997Y-39920704D01*
X21249992Y-39990545D01*
X21213912Y-40050378D01*
X21151211Y-40081206D01*
X21081796Y-40073241D01*
X21042385Y-40046703D01*
X20386819Y-39391137D01*
X20353334Y-39329814D01*
X20350500Y-39303456D01*
X20350500Y-24696543D01*
X20370185Y-24629504D01*
X20386819Y-24608862D01*
X20679024Y-24316657D01*
X20997821Y-23997859D01*
X21059142Y-23964376D01*
X21128833Y-23969360D01*
G37*
%TD.AperFunction*%
%TA.AperFunction,NonConductor*%
G36*
X68092539Y-35370185D02*
G01*
X68138294Y-35422989D01*
X68149500Y-35474500D01*
X68149500Y-39303456D01*
X68129815Y-39370495D01*
X68113181Y-39391137D01*
X66891137Y-40613181D01*
X66829814Y-40646666D01*
X66803456Y-40649500D01*
X64785610Y-40649500D01*
X64718571Y-40629815D01*
X64672816Y-40577011D01*
X64662872Y-40507853D01*
X64685291Y-40452615D01*
X64745676Y-40369501D01*
X64793996Y-40302994D01*
X64876211Y-40141639D01*
X64932171Y-39969409D01*
X64949864Y-39857701D01*
X64960500Y-39790551D01*
X64960500Y-39609449D01*
X64944855Y-39510678D01*
X64939789Y-39478690D01*
X64948743Y-39409399D01*
X64993739Y-39355947D01*
X65060490Y-39335307D01*
X65127804Y-39354031D01*
X65151602Y-39374500D01*
X65152038Y-39374065D01*
X65155483Y-39377510D01*
X65322490Y-39544517D01*
X65513567Y-39683343D01*
X65603804Y-39729321D01*
X65724003Y-39790566D01*
X65724005Y-39790566D01*
X65724008Y-39790568D01*
X65844412Y-39829689D01*
X65948631Y-39863553D01*
X66181903Y-39900500D01*
X66181908Y-39900500D01*
X66418097Y-39900500D01*
X66651368Y-39863553D01*
X66875992Y-39790568D01*
X67086433Y-39683343D01*
X67277510Y-39544517D01*
X67444517Y-39377510D01*
X67583343Y-39186433D01*
X67690568Y-38975992D01*
X67763553Y-38751368D01*
X67766722Y-38731361D01*
X67800500Y-38518097D01*
X67800500Y-38281902D01*
X67763553Y-38048631D01*
X67712888Y-37892703D01*
X67690568Y-37824008D01*
X67690566Y-37824005D01*
X67690566Y-37824003D01*
X67618718Y-37682994D01*
X67583343Y-37613567D01*
X67444517Y-37422490D01*
X67277510Y-37255483D01*
X67086433Y-37116657D01*
X67019204Y-37082402D01*
X66875996Y-37009433D01*
X66651368Y-36936446D01*
X66418097Y-36899500D01*
X66418092Y-36899500D01*
X66181908Y-36899500D01*
X66181903Y-36899500D01*
X65948631Y-36936446D01*
X65724000Y-37009434D01*
X65580793Y-37082402D01*
X65512124Y-37095298D01*
X65447384Y-37069021D01*
X65407127Y-37011915D01*
X65400499Y-36971922D01*
X65400499Y-35900136D01*
X65400497Y-35900117D01*
X65397586Y-35875012D01*
X65397585Y-35875010D01*
X65397585Y-35875009D01*
X65352206Y-35772235D01*
X65352205Y-35772233D01*
X65311158Y-35731186D01*
X65277674Y-35669863D01*
X65282659Y-35600171D01*
X65286195Y-35591669D01*
X65290291Y-35582767D01*
X65309394Y-35554179D01*
X65362970Y-35424831D01*
X65363969Y-35422663D01*
X65385407Y-35398065D01*
X65405893Y-35372644D01*
X65408247Y-35371860D01*
X65409877Y-35369991D01*
X65441206Y-35360890D01*
X65472187Y-35350579D01*
X65476614Y-35350500D01*
X68025500Y-35350500D01*
X68092539Y-35370185D01*
G37*
%TD.AperFunction*%
%TA.AperFunction,NonConductor*%
G36*
X57472305Y-39735804D02*
G01*
X57482146Y-39734390D01*
X57505405Y-39745012D01*
X57530041Y-39751865D01*
X57536658Y-39759284D01*
X57545702Y-39763415D01*
X57559526Y-39784926D01*
X57576546Y-39804010D01*
X57580955Y-39818271D01*
X57583476Y-39822193D01*
X57586972Y-39837729D01*
X57607829Y-39969410D01*
X57663787Y-40141636D01*
X57663788Y-40141639D01*
X57746003Y-40302993D01*
X57854709Y-40452615D01*
X57878188Y-40518422D01*
X57862362Y-40586475D01*
X57812256Y-40635170D01*
X57754390Y-40649500D01*
X57464500Y-40649500D01*
X57397461Y-40629815D01*
X57351706Y-40577011D01*
X57340500Y-40525500D01*
X57340500Y-40222994D01*
X57340499Y-39857126D01*
X57347703Y-39832592D01*
X57350980Y-39807233D01*
X57357382Y-39799627D01*
X57360183Y-39790089D01*
X57379508Y-39773343D01*
X57395976Y-39753781D01*
X57405473Y-39750844D01*
X57412987Y-39744334D01*
X57438299Y-39740694D01*
X57462728Y-39733141D01*
X57472305Y-39735804D01*
G37*
%TD.AperFunction*%
%TA.AperFunction,NonConductor*%
G36*
X54982539Y-38829885D02*
G01*
X55028294Y-38882689D01*
X55039500Y-38934200D01*
X55039501Y-40525500D01*
X55019816Y-40592539D01*
X54967013Y-40638294D01*
X54915501Y-40649500D01*
X53846204Y-40649500D01*
X53779165Y-40629815D01*
X53733410Y-40577011D01*
X53723466Y-40507853D01*
X53752491Y-40444297D01*
X53758523Y-40437819D01*
X53879414Y-40316928D01*
X53981232Y-40176788D01*
X54059873Y-40022445D01*
X54113402Y-39857701D01*
X54140500Y-39686611D01*
X54140500Y-39513389D01*
X54113402Y-39342299D01*
X54075741Y-39226393D01*
X54073747Y-39156558D01*
X54105989Y-39100403D01*
X54359875Y-38846516D01*
X54421197Y-38813034D01*
X54447555Y-38810200D01*
X54915500Y-38810200D01*
X54982539Y-38829885D01*
G37*
%TD.AperFunction*%
%TA.AperFunction,NonConductor*%
G36*
X38906630Y-39630253D02*
G01*
X38964863Y-39668863D01*
X38992473Y-39729321D01*
X39017829Y-39889410D01*
X39073787Y-40061636D01*
X39073788Y-40061639D01*
X39156006Y-40222997D01*
X39262441Y-40369494D01*
X39262445Y-40369499D01*
X39330765Y-40437819D01*
X39364250Y-40499142D01*
X39359266Y-40568834D01*
X39317394Y-40624767D01*
X39251930Y-40649184D01*
X39243084Y-40649500D01*
X38496916Y-40649500D01*
X38429877Y-40629815D01*
X38384122Y-40577011D01*
X38374178Y-40507853D01*
X38403203Y-40444297D01*
X38409235Y-40437819D01*
X38477553Y-40369501D01*
X38583996Y-40222994D01*
X38666211Y-40061639D01*
X38722171Y-39889409D01*
X38737902Y-39790089D01*
X38747527Y-39729321D01*
X38777456Y-39666186D01*
X38836768Y-39629255D01*
X38906630Y-39630253D01*
G37*
%TD.AperFunction*%
%TA.AperFunction,NonConductor*%
G36*
X36366630Y-39630253D02*
G01*
X36424863Y-39668863D01*
X36452473Y-39729321D01*
X36477829Y-39889410D01*
X36533787Y-40061636D01*
X36533788Y-40061639D01*
X36616006Y-40222997D01*
X36722441Y-40369494D01*
X36722445Y-40369499D01*
X36790765Y-40437819D01*
X36824250Y-40499142D01*
X36819266Y-40568834D01*
X36777394Y-40624767D01*
X36711930Y-40649184D01*
X36703084Y-40649500D01*
X35956916Y-40649500D01*
X35889877Y-40629815D01*
X35844122Y-40577011D01*
X35834178Y-40507853D01*
X35863203Y-40444297D01*
X35869235Y-40437819D01*
X35937553Y-40369501D01*
X36043996Y-40222994D01*
X36126211Y-40061639D01*
X36182171Y-39889409D01*
X36197902Y-39790089D01*
X36207527Y-39729321D01*
X36237456Y-39666186D01*
X36296768Y-39629255D01*
X36366630Y-39630253D01*
G37*
%TD.AperFunction*%
%TA.AperFunction,NonConductor*%
G36*
X33826630Y-39630253D02*
G01*
X33884863Y-39668863D01*
X33912473Y-39729321D01*
X33937829Y-39889410D01*
X33993787Y-40061636D01*
X33993788Y-40061639D01*
X34076006Y-40222997D01*
X34182441Y-40369494D01*
X34182445Y-40369499D01*
X34250765Y-40437819D01*
X34284250Y-40499142D01*
X34279266Y-40568834D01*
X34237394Y-40624767D01*
X34171930Y-40649184D01*
X34163084Y-40649500D01*
X33416916Y-40649500D01*
X33349877Y-40629815D01*
X33304122Y-40577011D01*
X33294178Y-40507853D01*
X33323203Y-40444297D01*
X33329235Y-40437819D01*
X33397553Y-40369501D01*
X33503996Y-40222994D01*
X33586211Y-40061639D01*
X33642171Y-39889409D01*
X33657902Y-39790089D01*
X33667527Y-39729321D01*
X33697456Y-39666186D01*
X33756768Y-39629255D01*
X33826630Y-39630253D01*
G37*
%TD.AperFunction*%
%TA.AperFunction,NonConductor*%
G36*
X31286630Y-39630253D02*
G01*
X31344863Y-39668863D01*
X31372473Y-39729321D01*
X31397829Y-39889410D01*
X31453787Y-40061636D01*
X31453788Y-40061639D01*
X31536006Y-40222997D01*
X31642441Y-40369494D01*
X31642445Y-40369499D01*
X31710765Y-40437819D01*
X31744250Y-40499142D01*
X31739266Y-40568834D01*
X31697394Y-40624767D01*
X31631930Y-40649184D01*
X31623084Y-40649500D01*
X30876916Y-40649500D01*
X30809877Y-40629815D01*
X30764122Y-40577011D01*
X30754178Y-40507853D01*
X30783203Y-40444297D01*
X30789235Y-40437819D01*
X30857553Y-40369501D01*
X30963996Y-40222994D01*
X31046211Y-40061639D01*
X31102171Y-39889409D01*
X31117902Y-39790089D01*
X31127527Y-39729321D01*
X31157456Y-39666186D01*
X31216768Y-39629255D01*
X31286630Y-39630253D01*
G37*
%TD.AperFunction*%
%TA.AperFunction,NonConductor*%
G36*
X28746630Y-39630253D02*
G01*
X28804863Y-39668863D01*
X28832473Y-39729321D01*
X28857829Y-39889410D01*
X28913787Y-40061636D01*
X28913788Y-40061639D01*
X28996006Y-40222997D01*
X29102441Y-40369494D01*
X29102445Y-40369499D01*
X29170765Y-40437819D01*
X29204250Y-40499142D01*
X29199266Y-40568834D01*
X29157394Y-40624767D01*
X29091930Y-40649184D01*
X29083084Y-40649500D01*
X28336916Y-40649500D01*
X28269877Y-40629815D01*
X28224122Y-40577011D01*
X28214178Y-40507853D01*
X28243203Y-40444297D01*
X28249235Y-40437819D01*
X28317553Y-40369501D01*
X28423996Y-40222994D01*
X28506211Y-40061639D01*
X28562171Y-39889409D01*
X28577902Y-39790089D01*
X28587527Y-39729321D01*
X28617456Y-39666186D01*
X28676768Y-39629255D01*
X28746630Y-39630253D01*
G37*
%TD.AperFunction*%
%TA.AperFunction,NonConductor*%
G36*
X26206630Y-39630253D02*
G01*
X26264863Y-39668863D01*
X26292473Y-39729321D01*
X26317829Y-39889410D01*
X26373787Y-40061636D01*
X26373788Y-40061639D01*
X26456006Y-40222997D01*
X26562441Y-40369494D01*
X26562445Y-40369499D01*
X26630765Y-40437819D01*
X26664250Y-40499142D01*
X26659266Y-40568834D01*
X26617394Y-40624767D01*
X26551930Y-40649184D01*
X26543084Y-40649500D01*
X25796916Y-40649500D01*
X25729877Y-40629815D01*
X25684122Y-40577011D01*
X25674178Y-40507853D01*
X25703203Y-40444297D01*
X25709235Y-40437819D01*
X25777553Y-40369501D01*
X25883996Y-40222994D01*
X25966211Y-40061639D01*
X26022171Y-39889409D01*
X26037902Y-39790089D01*
X26047527Y-39729321D01*
X26077456Y-39666186D01*
X26136768Y-39629255D01*
X26206630Y-39630253D01*
G37*
%TD.AperFunction*%
%TA.AperFunction,NonConductor*%
G36*
X23666630Y-39630253D02*
G01*
X23724863Y-39668863D01*
X23752473Y-39729321D01*
X23777829Y-39889410D01*
X23833787Y-40061636D01*
X23833788Y-40061639D01*
X23916006Y-40222997D01*
X24022441Y-40369494D01*
X24022445Y-40369499D01*
X24090765Y-40437819D01*
X24124250Y-40499142D01*
X24119266Y-40568834D01*
X24077394Y-40624767D01*
X24011930Y-40649184D01*
X24003084Y-40649500D01*
X23256916Y-40649500D01*
X23189877Y-40629815D01*
X23144122Y-40577011D01*
X23134178Y-40507853D01*
X23163203Y-40444297D01*
X23169235Y-40437819D01*
X23237553Y-40369501D01*
X23343996Y-40222994D01*
X23426211Y-40061639D01*
X23482171Y-39889409D01*
X23497902Y-39790089D01*
X23507527Y-39729321D01*
X23537456Y-39666186D01*
X23596768Y-39629255D01*
X23666630Y-39630253D01*
G37*
%TD.AperFunction*%
M02*
