%TF.GenerationSoftware,KiCad,Pcbnew,9.0.8+dfsg-1*%
%TF.CreationDate,2026-09-01T14:24:46+00:00*%
%TF.ProjectId,panasonic-p11-revH,70616e61-736f-46e6-9963-2d7031312d72,rev?*%
%TF.SameCoordinates,Original*%
%TF.FileFunction,Soldermask,Bot*%
%TF.FilePolarity,Negative*%
%FSLAX46Y46*%
G04 Gerber Fmt 4.6, Leading zero omitted, Abs format (unit mm)*
G04 Created by KiCad (PCBNEW 9.0.8+dfsg-1) date 2026-09-01 14:24:46*
%MOMM*%
%LPD*%
G01*
G04 APERTURE LIST*
G04 Aperture macros list*
%AMRoundRect*
0 Rectangle with rounded corners*
0 $1 Rounding radius*
0 $2 $3 $4 $5 $6 $7 $8 $9 X,Y pos of 4 corners*
0 Add a 4 corners polygon primitive as box body*
4,1,4,$2,$3,$4,$5,$6,$7,$8,$9,$2,$3,0*
0 Add four circle primitives for the rounded corners*
1,1,$1+$1,$2,$3*
1,1,$1+$1,$4,$5*
1,1,$1+$1,$6,$7*
1,1,$1+$1,$8,$9*
0 Add four rect primitives between the rounded corners*
20,1,$1+$1,$2,$3,$4,$5,0*
20,1,$1+$1,$4,$5,$6,$7,0*
20,1,$1+$1,$6,$7,$8,$9,0*
20,1,$1+$1,$8,$9,$2,$3,0*%
G04 Aperture macros list end*
%ADD10RoundRect,0.050000X-0.850000X-0.850000X0.850000X-0.850000X0.850000X0.850000X-0.850000X0.850000X0*%
%ADD11C,1.800000*%
%ADD12RoundRect,0.050000X-0.600000X-0.500000X0.600000X-0.500000X0.600000X0.500000X-0.600000X0.500000X0*%
%ADD13O,1.300000X1.100000*%
%ADD14RoundRect,0.050000X-0.800000X-0.800000X0.800000X-0.800000X0.800000X0.800000X-0.800000X0.800000X0*%
%ADD15C,1.700000*%
%ADD16C,2.600000*%
G04 APERTURE END LIST*
D10*
%TO.C,ESP32-C3*%
X22360000Y-24380000D03*
D11*
X24900000Y-24380000D03*
X27440000Y-24380000D03*
X29980000Y-24380000D03*
X32520000Y-24380000D03*
X35060000Y-24380000D03*
X37600000Y-24380000D03*
X40140000Y-24380000D03*
X22360000Y-39620000D03*
X24900000Y-39620000D03*
X27440000Y-39620000D03*
X29980000Y-39620000D03*
X32520000Y-39620000D03*
X35060000Y-39620000D03*
X37600000Y-39620000D03*
X40140000Y-39620000D03*
%TD*%
%TO.C,BSS138*%
X56080000Y-24380000D03*
X56080000Y-26920000D03*
X56080000Y-29460000D03*
X56080000Y-32000000D03*
X56080000Y-34540000D03*
X56080000Y-37080000D03*
D10*
X45920000Y-24380000D03*
D11*
X45920000Y-26920000D03*
X45920000Y-29460000D03*
X45920000Y-32000000D03*
X45920000Y-34540000D03*
X45920000Y-37080000D03*
%TD*%
D12*
%TO.C,J11*%
X66500000Y-36445000D03*
D13*
X66500000Y-35175000D03*
X66500000Y-33905000D03*
X66500000Y-32635000D03*
X66500000Y-31365000D03*
X66500000Y-30095000D03*
X66500000Y-28825000D03*
X66500000Y-27555000D03*
%TD*%
D14*
%TO.C,D1*%
X47255000Y-39600000D03*
D15*
X56145000Y-39600000D03*
%TD*%
D14*
%TO.C,C1*%
X58100000Y-27600000D03*
D15*
X60100000Y-27600000D03*
%TD*%
D10*
%TO.C,J1*%
X58190000Y-24300000D03*
D11*
X60730000Y-24300000D03*
X63270000Y-24300000D03*
X65810000Y-24300000D03*
%TD*%
D10*
%TO.C,J2*%
X58190000Y-39700000D03*
D11*
X60730000Y-39700000D03*
X63270000Y-39700000D03*
X65810000Y-39700000D03*
%TD*%
D16*
%TO.C,H1*%
X68300000Y-25600000D03*
%TD*%
%TO.C,H2*%
X68300000Y-38400000D03*
%TD*%
D10*
%TO.C,CNT*%
X63200000Y-26920000D03*
D11*
X63200000Y-29460000D03*
X63200000Y-32000000D03*
X63200000Y-34540000D03*
X63200000Y-37080000D03*
%TD*%
M02*
