%TF.GenerationSoftware,KiCad,Pcbnew,9.0.8+dfsg-1*%
%TF.CreationDate,2026-09-01T13:42:38+00:00*%
%TF.ProjectId,panasonic-p11-revH,70616e61-736f-46e6-9963-2d7031312d72,rev?*%
%TF.SameCoordinates,Original*%
%TF.FileFunction,Legend,Bot*%
%TF.FilePolarity,Positive*%
%FSLAX46Y46*%
G04 Gerber Fmt 4.6, Leading zero omitted, Abs format (unit mm)*
G04 Created by KiCad (PCBNEW 9.0.8+dfsg-1) date 2026-09-01 13:42:38*
%MOMM*%
%LPD*%
G01*
G04 APERTURE LIST*
%ADD10C,0.110000*%
G04 APERTURE END LIST*
D10*
X40628571Y-38032053D02*
X40628571Y-38477291D01*
X40628571Y-38477291D02*
X40654761Y-38529672D01*
X40654761Y-38529672D02*
X40680952Y-38555863D01*
X40680952Y-38555863D02*
X40733333Y-38582053D01*
X40733333Y-38582053D02*
X40811904Y-38582053D01*
X40811904Y-38582053D02*
X40864285Y-38555863D01*
X40628571Y-38372530D02*
X40680952Y-38398720D01*
X40680952Y-38398720D02*
X40785714Y-38398720D01*
X40785714Y-38398720D02*
X40838095Y-38372530D01*
X40838095Y-38372530D02*
X40864285Y-38346339D01*
X40864285Y-38346339D02*
X40890476Y-38293958D01*
X40890476Y-38293958D02*
X40890476Y-38136815D01*
X40890476Y-38136815D02*
X40864285Y-38084434D01*
X40864285Y-38084434D02*
X40838095Y-38058244D01*
X40838095Y-38058244D02*
X40785714Y-38032053D01*
X40785714Y-38032053D02*
X40680952Y-38032053D01*
X40680952Y-38032053D02*
X40628571Y-38058244D01*
X40366666Y-38398720D02*
X40366666Y-38032053D01*
X40366666Y-37848720D02*
X40392857Y-37874910D01*
X40392857Y-37874910D02*
X40366666Y-37901101D01*
X40366666Y-37901101D02*
X40340476Y-37874910D01*
X40340476Y-37874910D02*
X40366666Y-37848720D01*
X40366666Y-37848720D02*
X40366666Y-37901101D01*
X40183333Y-38032053D02*
X39973809Y-38032053D01*
X40104761Y-37848720D02*
X40104761Y-38320149D01*
X40104761Y-38320149D02*
X40078571Y-38372530D01*
X40078571Y-38372530D02*
X40026190Y-38398720D01*
X40026190Y-38398720D02*
X39973809Y-38398720D01*
X39790475Y-38398720D02*
X39790475Y-37848720D01*
X39554761Y-38398720D02*
X39554761Y-38110625D01*
X39554761Y-38110625D02*
X39580951Y-38058244D01*
X39580951Y-38058244D02*
X39633332Y-38032053D01*
X39633332Y-38032053D02*
X39711904Y-38032053D01*
X39711904Y-38032053D02*
X39764285Y-38058244D01*
X39764285Y-38058244D02*
X39790475Y-38084434D01*
X39057142Y-38032053D02*
X39057142Y-38398720D01*
X39292856Y-38032053D02*
X39292856Y-38320149D01*
X39292856Y-38320149D02*
X39266666Y-38372530D01*
X39266666Y-38372530D02*
X39214285Y-38398720D01*
X39214285Y-38398720D02*
X39135713Y-38398720D01*
X39135713Y-38398720D02*
X39083332Y-38372530D01*
X39083332Y-38372530D02*
X39057142Y-38346339D01*
X38795237Y-38398720D02*
X38795237Y-37848720D01*
X38795237Y-38058244D02*
X38742856Y-38032053D01*
X38742856Y-38032053D02*
X38638094Y-38032053D01*
X38638094Y-38032053D02*
X38585713Y-38058244D01*
X38585713Y-38058244D02*
X38559523Y-38084434D01*
X38559523Y-38084434D02*
X38533332Y-38136815D01*
X38533332Y-38136815D02*
X38533332Y-38293958D01*
X38533332Y-38293958D02*
X38559523Y-38346339D01*
X38559523Y-38346339D02*
X38585713Y-38372530D01*
X38585713Y-38372530D02*
X38638094Y-38398720D01*
X38638094Y-38398720D02*
X38742856Y-38398720D01*
X38742856Y-38398720D02*
X38795237Y-38372530D01*
X38297618Y-38346339D02*
X38271428Y-38372530D01*
X38271428Y-38372530D02*
X38297618Y-38398720D01*
X38297618Y-38398720D02*
X38323809Y-38372530D01*
X38323809Y-38372530D02*
X38297618Y-38346339D01*
X38297618Y-38346339D02*
X38297618Y-38398720D01*
X37799999Y-38372530D02*
X37852380Y-38398720D01*
X37852380Y-38398720D02*
X37957142Y-38398720D01*
X37957142Y-38398720D02*
X38009523Y-38372530D01*
X38009523Y-38372530D02*
X38035713Y-38346339D01*
X38035713Y-38346339D02*
X38061904Y-38293958D01*
X38061904Y-38293958D02*
X38061904Y-38136815D01*
X38061904Y-38136815D02*
X38035713Y-38084434D01*
X38035713Y-38084434D02*
X38009523Y-38058244D01*
X38009523Y-38058244D02*
X37957142Y-38032053D01*
X37957142Y-38032053D02*
X37852380Y-38032053D01*
X37852380Y-38032053D02*
X37799999Y-38058244D01*
X37485713Y-38398720D02*
X37538094Y-38372530D01*
X37538094Y-38372530D02*
X37564284Y-38346339D01*
X37564284Y-38346339D02*
X37590475Y-38293958D01*
X37590475Y-38293958D02*
X37590475Y-38136815D01*
X37590475Y-38136815D02*
X37564284Y-38084434D01*
X37564284Y-38084434D02*
X37538094Y-38058244D01*
X37538094Y-38058244D02*
X37485713Y-38032053D01*
X37485713Y-38032053D02*
X37407141Y-38032053D01*
X37407141Y-38032053D02*
X37354760Y-38058244D01*
X37354760Y-38058244D02*
X37328570Y-38084434D01*
X37328570Y-38084434D02*
X37302379Y-38136815D01*
X37302379Y-38136815D02*
X37302379Y-38293958D01*
X37302379Y-38293958D02*
X37328570Y-38346339D01*
X37328570Y-38346339D02*
X37354760Y-38372530D01*
X37354760Y-38372530D02*
X37407141Y-38398720D01*
X37407141Y-38398720D02*
X37485713Y-38398720D01*
X37066665Y-38398720D02*
X37066665Y-38032053D01*
X37066665Y-38084434D02*
X37040475Y-38058244D01*
X37040475Y-38058244D02*
X36988094Y-38032053D01*
X36988094Y-38032053D02*
X36909522Y-38032053D01*
X36909522Y-38032053D02*
X36857141Y-38058244D01*
X36857141Y-38058244D02*
X36830951Y-38110625D01*
X36830951Y-38110625D02*
X36830951Y-38398720D01*
X36830951Y-38110625D02*
X36804760Y-38058244D01*
X36804760Y-38058244D02*
X36752379Y-38032053D01*
X36752379Y-38032053D02*
X36673808Y-38032053D01*
X36673808Y-38032053D02*
X36621427Y-38058244D01*
X36621427Y-38058244D02*
X36595237Y-38110625D01*
X36595237Y-38110625D02*
X36595237Y-38398720D01*
X35940475Y-37822530D02*
X36411904Y-38529672D01*
X35757142Y-38398720D02*
X35757142Y-37848720D01*
X35757142Y-38058244D02*
X35704761Y-38032053D01*
X35704761Y-38032053D02*
X35599999Y-38032053D01*
X35599999Y-38032053D02*
X35547618Y-38058244D01*
X35547618Y-38058244D02*
X35521428Y-38084434D01*
X35521428Y-38084434D02*
X35495237Y-38136815D01*
X35495237Y-38136815D02*
X35495237Y-38293958D01*
X35495237Y-38293958D02*
X35521428Y-38346339D01*
X35521428Y-38346339D02*
X35547618Y-38372530D01*
X35547618Y-38372530D02*
X35599999Y-38398720D01*
X35599999Y-38398720D02*
X35704761Y-38398720D01*
X35704761Y-38398720D02*
X35757142Y-38372530D01*
X35180952Y-38398720D02*
X35233333Y-38372530D01*
X35233333Y-38372530D02*
X35259523Y-38320149D01*
X35259523Y-38320149D02*
X35259523Y-37848720D01*
X34866666Y-37848720D02*
X34814285Y-37848720D01*
X34814285Y-37848720D02*
X34761904Y-37874910D01*
X34761904Y-37874910D02*
X34735714Y-37901101D01*
X34735714Y-37901101D02*
X34709523Y-37953482D01*
X34709523Y-37953482D02*
X34683333Y-38058244D01*
X34683333Y-38058244D02*
X34683333Y-38189196D01*
X34683333Y-38189196D02*
X34709523Y-38293958D01*
X34709523Y-38293958D02*
X34735714Y-38346339D01*
X34735714Y-38346339D02*
X34761904Y-38372530D01*
X34761904Y-38372530D02*
X34814285Y-38398720D01*
X34814285Y-38398720D02*
X34866666Y-38398720D01*
X34866666Y-38398720D02*
X34919047Y-38372530D01*
X34919047Y-38372530D02*
X34945238Y-38346339D01*
X34945238Y-38346339D02*
X34971428Y-38293958D01*
X34971428Y-38293958D02*
X34997619Y-38189196D01*
X34997619Y-38189196D02*
X34997619Y-38058244D01*
X34997619Y-38058244D02*
X34971428Y-37953482D01*
X34971428Y-37953482D02*
X34945238Y-37901101D01*
X34945238Y-37901101D02*
X34919047Y-37874910D01*
X34919047Y-37874910D02*
X34866666Y-37848720D01*
X34211904Y-38372530D02*
X34264285Y-38398720D01*
X34264285Y-38398720D02*
X34369047Y-38398720D01*
X34369047Y-38398720D02*
X34421428Y-38372530D01*
X34421428Y-38372530D02*
X34447618Y-38346339D01*
X34447618Y-38346339D02*
X34473809Y-38293958D01*
X34473809Y-38293958D02*
X34473809Y-38136815D01*
X34473809Y-38136815D02*
X34447618Y-38084434D01*
X34447618Y-38084434D02*
X34421428Y-38058244D01*
X34421428Y-38058244D02*
X34369047Y-38032053D01*
X34369047Y-38032053D02*
X34264285Y-38032053D01*
X34264285Y-38032053D02*
X34211904Y-38058244D01*
X33976189Y-38398720D02*
X33976189Y-37848720D01*
X33923808Y-38189196D02*
X33766665Y-38398720D01*
X33766665Y-38032053D02*
X33976189Y-38241577D01*
X33557142Y-38372530D02*
X33504761Y-38398720D01*
X33504761Y-38398720D02*
X33399999Y-38398720D01*
X33399999Y-38398720D02*
X33347618Y-38372530D01*
X33347618Y-38372530D02*
X33321427Y-38320149D01*
X33321427Y-38320149D02*
X33321427Y-38293958D01*
X33321427Y-38293958D02*
X33347618Y-38241577D01*
X33347618Y-38241577D02*
X33399999Y-38215387D01*
X33399999Y-38215387D02*
X33478570Y-38215387D01*
X33478570Y-38215387D02*
X33530951Y-38189196D01*
X33530951Y-38189196D02*
X33557142Y-38136815D01*
X33557142Y-38136815D02*
X33557142Y-38110625D01*
X33557142Y-38110625D02*
X33530951Y-38058244D01*
X33530951Y-38058244D02*
X33478570Y-38032053D01*
X33478570Y-38032053D02*
X33399999Y-38032053D01*
X33399999Y-38032053D02*
X33347618Y-38058244D01*
X33164285Y-38032053D02*
X32954761Y-38032053D01*
X33085713Y-37848720D02*
X33085713Y-38320149D01*
X33085713Y-38320149D02*
X33059523Y-38372530D01*
X33059523Y-38372530D02*
X33007142Y-38398720D01*
X33007142Y-38398720D02*
X32954761Y-38398720D01*
X32535713Y-38398720D02*
X32535713Y-38110625D01*
X32535713Y-38110625D02*
X32561903Y-38058244D01*
X32561903Y-38058244D02*
X32614284Y-38032053D01*
X32614284Y-38032053D02*
X32719046Y-38032053D01*
X32719046Y-38032053D02*
X32771427Y-38058244D01*
X32535713Y-38372530D02*
X32588094Y-38398720D01*
X32588094Y-38398720D02*
X32719046Y-38398720D01*
X32719046Y-38398720D02*
X32771427Y-38372530D01*
X32771427Y-38372530D02*
X32797618Y-38320149D01*
X32797618Y-38320149D02*
X32797618Y-38267768D01*
X32797618Y-38267768D02*
X32771427Y-38215387D01*
X32771427Y-38215387D02*
X32719046Y-38189196D01*
X32719046Y-38189196D02*
X32588094Y-38189196D01*
X32588094Y-38189196D02*
X32535713Y-38163006D01*
X32352380Y-38032053D02*
X32142856Y-38032053D01*
X32273808Y-37848720D02*
X32273808Y-38320149D01*
X32273808Y-38320149D02*
X32247618Y-38372530D01*
X32247618Y-38372530D02*
X32195237Y-38398720D01*
X32195237Y-38398720D02*
X32142856Y-38398720D01*
X31566665Y-37822530D02*
X32038094Y-38529672D01*
X31173808Y-38372530D02*
X31226189Y-38398720D01*
X31226189Y-38398720D02*
X31330951Y-38398720D01*
X31330951Y-38398720D02*
X31383332Y-38372530D01*
X31383332Y-38372530D02*
X31409523Y-38320149D01*
X31409523Y-38320149D02*
X31409523Y-38110625D01*
X31409523Y-38110625D02*
X31383332Y-38058244D01*
X31383332Y-38058244D02*
X31330951Y-38032053D01*
X31330951Y-38032053D02*
X31226189Y-38032053D01*
X31226189Y-38032053D02*
X31173808Y-38058244D01*
X31173808Y-38058244D02*
X31147618Y-38110625D01*
X31147618Y-38110625D02*
X31147618Y-38163006D01*
X31147618Y-38163006D02*
X31409523Y-38215387D01*
X30938094Y-38372530D02*
X30885713Y-38398720D01*
X30885713Y-38398720D02*
X30780951Y-38398720D01*
X30780951Y-38398720D02*
X30728570Y-38372530D01*
X30728570Y-38372530D02*
X30702379Y-38320149D01*
X30702379Y-38320149D02*
X30702379Y-38293958D01*
X30702379Y-38293958D02*
X30728570Y-38241577D01*
X30728570Y-38241577D02*
X30780951Y-38215387D01*
X30780951Y-38215387D02*
X30859522Y-38215387D01*
X30859522Y-38215387D02*
X30911903Y-38189196D01*
X30911903Y-38189196D02*
X30938094Y-38136815D01*
X30938094Y-38136815D02*
X30938094Y-38110625D01*
X30938094Y-38110625D02*
X30911903Y-38058244D01*
X30911903Y-38058244D02*
X30859522Y-38032053D01*
X30859522Y-38032053D02*
X30780951Y-38032053D01*
X30780951Y-38032053D02*
X30728570Y-38058244D01*
X30466665Y-38032053D02*
X30466665Y-38582053D01*
X30466665Y-38058244D02*
X30414284Y-38032053D01*
X30414284Y-38032053D02*
X30309522Y-38032053D01*
X30309522Y-38032053D02*
X30257141Y-38058244D01*
X30257141Y-38058244D02*
X30230951Y-38084434D01*
X30230951Y-38084434D02*
X30204760Y-38136815D01*
X30204760Y-38136815D02*
X30204760Y-38293958D01*
X30204760Y-38293958D02*
X30230951Y-38346339D01*
X30230951Y-38346339D02*
X30257141Y-38372530D01*
X30257141Y-38372530D02*
X30309522Y-38398720D01*
X30309522Y-38398720D02*
X30414284Y-38398720D01*
X30414284Y-38398720D02*
X30466665Y-38372530D01*
X29969046Y-38398720D02*
X29969046Y-37848720D01*
X29733332Y-38398720D02*
X29733332Y-38110625D01*
X29733332Y-38110625D02*
X29759522Y-38058244D01*
X29759522Y-38058244D02*
X29811903Y-38032053D01*
X29811903Y-38032053D02*
X29890475Y-38032053D01*
X29890475Y-38032053D02*
X29942856Y-38058244D01*
X29942856Y-38058244D02*
X29969046Y-38084434D01*
X29392856Y-38398720D02*
X29445237Y-38372530D01*
X29445237Y-38372530D02*
X29471427Y-38346339D01*
X29471427Y-38346339D02*
X29497618Y-38293958D01*
X29497618Y-38293958D02*
X29497618Y-38136815D01*
X29497618Y-38136815D02*
X29471427Y-38084434D01*
X29471427Y-38084434D02*
X29445237Y-38058244D01*
X29445237Y-38058244D02*
X29392856Y-38032053D01*
X29392856Y-38032053D02*
X29314284Y-38032053D01*
X29314284Y-38032053D02*
X29261903Y-38058244D01*
X29261903Y-38058244D02*
X29235713Y-38084434D01*
X29235713Y-38084434D02*
X29209522Y-38136815D01*
X29209522Y-38136815D02*
X29209522Y-38293958D01*
X29209522Y-38293958D02*
X29235713Y-38346339D01*
X29235713Y-38346339D02*
X29261903Y-38372530D01*
X29261903Y-38372530D02*
X29314284Y-38398720D01*
X29314284Y-38398720D02*
X29392856Y-38398720D01*
X28973808Y-38398720D02*
X28973808Y-38032053D01*
X28973808Y-38084434D02*
X28947618Y-38058244D01*
X28947618Y-38058244D02*
X28895237Y-38032053D01*
X28895237Y-38032053D02*
X28816665Y-38032053D01*
X28816665Y-38032053D02*
X28764284Y-38058244D01*
X28764284Y-38058244D02*
X28738094Y-38110625D01*
X28738094Y-38110625D02*
X28738094Y-38398720D01*
X28738094Y-38110625D02*
X28711903Y-38058244D01*
X28711903Y-38058244D02*
X28659522Y-38032053D01*
X28659522Y-38032053D02*
X28580951Y-38032053D01*
X28580951Y-38032053D02*
X28528570Y-38058244D01*
X28528570Y-38058244D02*
X28502380Y-38110625D01*
X28502380Y-38110625D02*
X28502380Y-38398720D01*
X28030951Y-38372530D02*
X28083332Y-38398720D01*
X28083332Y-38398720D02*
X28188094Y-38398720D01*
X28188094Y-38398720D02*
X28240475Y-38372530D01*
X28240475Y-38372530D02*
X28266666Y-38320149D01*
X28266666Y-38320149D02*
X28266666Y-38110625D01*
X28266666Y-38110625D02*
X28240475Y-38058244D01*
X28240475Y-38058244D02*
X28188094Y-38032053D01*
X28188094Y-38032053D02*
X28083332Y-38032053D01*
X28083332Y-38032053D02*
X28030951Y-38058244D01*
X28030951Y-38058244D02*
X28004761Y-38110625D01*
X28004761Y-38110625D02*
X28004761Y-38163006D01*
X28004761Y-38163006D02*
X28266666Y-38215387D01*
X27769046Y-38189196D02*
X27349999Y-38189196D01*
X27088094Y-38032053D02*
X27088094Y-38582053D01*
X27088094Y-38058244D02*
X27035713Y-38032053D01*
X27035713Y-38032053D02*
X26930951Y-38032053D01*
X26930951Y-38032053D02*
X26878570Y-38058244D01*
X26878570Y-38058244D02*
X26852380Y-38084434D01*
X26852380Y-38084434D02*
X26826189Y-38136815D01*
X26826189Y-38136815D02*
X26826189Y-38293958D01*
X26826189Y-38293958D02*
X26852380Y-38346339D01*
X26852380Y-38346339D02*
X26878570Y-38372530D01*
X26878570Y-38372530D02*
X26930951Y-38398720D01*
X26930951Y-38398720D02*
X27035713Y-38398720D01*
X27035713Y-38398720D02*
X27088094Y-38372530D01*
X26354761Y-38398720D02*
X26354761Y-38110625D01*
X26354761Y-38110625D02*
X26380951Y-38058244D01*
X26380951Y-38058244D02*
X26433332Y-38032053D01*
X26433332Y-38032053D02*
X26538094Y-38032053D01*
X26538094Y-38032053D02*
X26590475Y-38058244D01*
X26354761Y-38372530D02*
X26407142Y-38398720D01*
X26407142Y-38398720D02*
X26538094Y-38398720D01*
X26538094Y-38398720D02*
X26590475Y-38372530D01*
X26590475Y-38372530D02*
X26616666Y-38320149D01*
X26616666Y-38320149D02*
X26616666Y-38267768D01*
X26616666Y-38267768D02*
X26590475Y-38215387D01*
X26590475Y-38215387D02*
X26538094Y-38189196D01*
X26538094Y-38189196D02*
X26407142Y-38189196D01*
X26407142Y-38189196D02*
X26354761Y-38163006D01*
X26092856Y-38032053D02*
X26092856Y-38398720D01*
X26092856Y-38084434D02*
X26066666Y-38058244D01*
X26066666Y-38058244D02*
X26014285Y-38032053D01*
X26014285Y-38032053D02*
X25935713Y-38032053D01*
X25935713Y-38032053D02*
X25883332Y-38058244D01*
X25883332Y-38058244D02*
X25857142Y-38110625D01*
X25857142Y-38110625D02*
X25857142Y-38398720D01*
X25359523Y-38398720D02*
X25359523Y-38110625D01*
X25359523Y-38110625D02*
X25385713Y-38058244D01*
X25385713Y-38058244D02*
X25438094Y-38032053D01*
X25438094Y-38032053D02*
X25542856Y-38032053D01*
X25542856Y-38032053D02*
X25595237Y-38058244D01*
X25359523Y-38372530D02*
X25411904Y-38398720D01*
X25411904Y-38398720D02*
X25542856Y-38398720D01*
X25542856Y-38398720D02*
X25595237Y-38372530D01*
X25595237Y-38372530D02*
X25621428Y-38320149D01*
X25621428Y-38320149D02*
X25621428Y-38267768D01*
X25621428Y-38267768D02*
X25595237Y-38215387D01*
X25595237Y-38215387D02*
X25542856Y-38189196D01*
X25542856Y-38189196D02*
X25411904Y-38189196D01*
X25411904Y-38189196D02*
X25359523Y-38163006D01*
X25123809Y-38372530D02*
X25071428Y-38398720D01*
X25071428Y-38398720D02*
X24966666Y-38398720D01*
X24966666Y-38398720D02*
X24914285Y-38372530D01*
X24914285Y-38372530D02*
X24888094Y-38320149D01*
X24888094Y-38320149D02*
X24888094Y-38293958D01*
X24888094Y-38293958D02*
X24914285Y-38241577D01*
X24914285Y-38241577D02*
X24966666Y-38215387D01*
X24966666Y-38215387D02*
X25045237Y-38215387D01*
X25045237Y-38215387D02*
X25097618Y-38189196D01*
X25097618Y-38189196D02*
X25123809Y-38136815D01*
X25123809Y-38136815D02*
X25123809Y-38110625D01*
X25123809Y-38110625D02*
X25097618Y-38058244D01*
X25097618Y-38058244D02*
X25045237Y-38032053D01*
X25045237Y-38032053D02*
X24966666Y-38032053D01*
X24966666Y-38032053D02*
X24914285Y-38058244D01*
X24573809Y-38398720D02*
X24626190Y-38372530D01*
X24626190Y-38372530D02*
X24652380Y-38346339D01*
X24652380Y-38346339D02*
X24678571Y-38293958D01*
X24678571Y-38293958D02*
X24678571Y-38136815D01*
X24678571Y-38136815D02*
X24652380Y-38084434D01*
X24652380Y-38084434D02*
X24626190Y-38058244D01*
X24626190Y-38058244D02*
X24573809Y-38032053D01*
X24573809Y-38032053D02*
X24495237Y-38032053D01*
X24495237Y-38032053D02*
X24442856Y-38058244D01*
X24442856Y-38058244D02*
X24416666Y-38084434D01*
X24416666Y-38084434D02*
X24390475Y-38136815D01*
X24390475Y-38136815D02*
X24390475Y-38293958D01*
X24390475Y-38293958D02*
X24416666Y-38346339D01*
X24416666Y-38346339D02*
X24442856Y-38372530D01*
X24442856Y-38372530D02*
X24495237Y-38398720D01*
X24495237Y-38398720D02*
X24573809Y-38398720D01*
X24154761Y-38032053D02*
X24154761Y-38398720D01*
X24154761Y-38084434D02*
X24128571Y-38058244D01*
X24128571Y-38058244D02*
X24076190Y-38032053D01*
X24076190Y-38032053D02*
X23997618Y-38032053D01*
X23997618Y-38032053D02*
X23945237Y-38058244D01*
X23945237Y-38058244D02*
X23919047Y-38110625D01*
X23919047Y-38110625D02*
X23919047Y-38398720D01*
X23657142Y-38398720D02*
X23657142Y-38032053D01*
X23657142Y-37848720D02*
X23683333Y-37874910D01*
X23683333Y-37874910D02*
X23657142Y-37901101D01*
X23657142Y-37901101D02*
X23630952Y-37874910D01*
X23630952Y-37874910D02*
X23657142Y-37848720D01*
X23657142Y-37848720D02*
X23657142Y-37901101D01*
X23159523Y-38372530D02*
X23211904Y-38398720D01*
X23211904Y-38398720D02*
X23316666Y-38398720D01*
X23316666Y-38398720D02*
X23369047Y-38372530D01*
X23369047Y-38372530D02*
X23395237Y-38346339D01*
X23395237Y-38346339D02*
X23421428Y-38293958D01*
X23421428Y-38293958D02*
X23421428Y-38136815D01*
X23421428Y-38136815D02*
X23395237Y-38084434D01*
X23395237Y-38084434D02*
X23369047Y-38058244D01*
X23369047Y-38058244D02*
X23316666Y-38032053D01*
X23316666Y-38032053D02*
X23211904Y-38032053D01*
X23211904Y-38032053D02*
X23159523Y-38058244D01*
X22923808Y-38189196D02*
X22504761Y-38189196D01*
X22007142Y-38398720D02*
X22007142Y-38110625D01*
X22007142Y-38110625D02*
X22033332Y-38058244D01*
X22033332Y-38058244D02*
X22085713Y-38032053D01*
X22085713Y-38032053D02*
X22190475Y-38032053D01*
X22190475Y-38032053D02*
X22242856Y-38058244D01*
X22007142Y-38372530D02*
X22059523Y-38398720D01*
X22059523Y-38398720D02*
X22190475Y-38398720D01*
X22190475Y-38398720D02*
X22242856Y-38372530D01*
X22242856Y-38372530D02*
X22269047Y-38320149D01*
X22269047Y-38320149D02*
X22269047Y-38267768D01*
X22269047Y-38267768D02*
X22242856Y-38215387D01*
X22242856Y-38215387D02*
X22190475Y-38189196D01*
X22190475Y-38189196D02*
X22059523Y-38189196D01*
X22059523Y-38189196D02*
X22007142Y-38163006D01*
X21509523Y-38372530D02*
X21561904Y-38398720D01*
X21561904Y-38398720D02*
X21666666Y-38398720D01*
X21666666Y-38398720D02*
X21719047Y-38372530D01*
X21719047Y-38372530D02*
X21745237Y-38346339D01*
X21745237Y-38346339D02*
X21771428Y-38293958D01*
X21771428Y-38293958D02*
X21771428Y-38136815D01*
X21771428Y-38136815D02*
X21745237Y-38084434D01*
X21745237Y-38084434D02*
X21719047Y-38058244D01*
X21719047Y-38058244D02*
X21666666Y-38032053D01*
X21666666Y-38032053D02*
X21561904Y-38032053D01*
X21561904Y-38032053D02*
X21509523Y-38058244D01*
X37171428Y-27621851D02*
X37171428Y-27021851D01*
X37171428Y-27021851D02*
X36971428Y-27450422D01*
X36971428Y-27450422D02*
X36771428Y-27021851D01*
X36771428Y-27021851D02*
X36771428Y-27621851D01*
X36142857Y-27564708D02*
X36171429Y-27593280D01*
X36171429Y-27593280D02*
X36257143Y-27621851D01*
X36257143Y-27621851D02*
X36314286Y-27621851D01*
X36314286Y-27621851D02*
X36400000Y-27593280D01*
X36400000Y-27593280D02*
X36457143Y-27536137D01*
X36457143Y-27536137D02*
X36485714Y-27478994D01*
X36485714Y-27478994D02*
X36514286Y-27364708D01*
X36514286Y-27364708D02*
X36514286Y-27278994D01*
X36514286Y-27278994D02*
X36485714Y-27164708D01*
X36485714Y-27164708D02*
X36457143Y-27107565D01*
X36457143Y-27107565D02*
X36400000Y-27050422D01*
X36400000Y-27050422D02*
X36314286Y-27021851D01*
X36314286Y-27021851D02*
X36257143Y-27021851D01*
X36257143Y-27021851D02*
X36171429Y-27050422D01*
X36171429Y-27050422D02*
X36142857Y-27078994D01*
X35885714Y-27021851D02*
X35885714Y-27507565D01*
X35885714Y-27507565D02*
X35857143Y-27564708D01*
X35857143Y-27564708D02*
X35828572Y-27593280D01*
X35828572Y-27593280D02*
X35771429Y-27621851D01*
X35771429Y-27621851D02*
X35657143Y-27621851D01*
X35657143Y-27621851D02*
X35600000Y-27593280D01*
X35600000Y-27593280D02*
X35571429Y-27564708D01*
X35571429Y-27564708D02*
X35542857Y-27507565D01*
X35542857Y-27507565D02*
X35542857Y-27021851D01*
X35257143Y-27564708D02*
X35228572Y-27593280D01*
X35228572Y-27593280D02*
X35257143Y-27621851D01*
X35257143Y-27621851D02*
X35285715Y-27593280D01*
X35285715Y-27593280D02*
X35257143Y-27564708D01*
X35257143Y-27564708D02*
X35257143Y-27621851D01*
X35257143Y-27250422D02*
X35228572Y-27278994D01*
X35228572Y-27278994D02*
X35257143Y-27307565D01*
X35257143Y-27307565D02*
X35285715Y-27278994D01*
X35285715Y-27278994D02*
X35257143Y-27250422D01*
X35257143Y-27250422D02*
X35257143Y-27307565D01*
X34514286Y-27307565D02*
X34314286Y-27307565D01*
X34228572Y-27621851D02*
X34514286Y-27621851D01*
X34514286Y-27621851D02*
X34514286Y-27021851D01*
X34514286Y-27021851D02*
X34228572Y-27021851D01*
X34000001Y-27593280D02*
X33914287Y-27621851D01*
X33914287Y-27621851D02*
X33771429Y-27621851D01*
X33771429Y-27621851D02*
X33714287Y-27593280D01*
X33714287Y-27593280D02*
X33685715Y-27564708D01*
X33685715Y-27564708D02*
X33657144Y-27507565D01*
X33657144Y-27507565D02*
X33657144Y-27450422D01*
X33657144Y-27450422D02*
X33685715Y-27393280D01*
X33685715Y-27393280D02*
X33714287Y-27364708D01*
X33714287Y-27364708D02*
X33771429Y-27336137D01*
X33771429Y-27336137D02*
X33885715Y-27307565D01*
X33885715Y-27307565D02*
X33942858Y-27278994D01*
X33942858Y-27278994D02*
X33971429Y-27250422D01*
X33971429Y-27250422D02*
X34000001Y-27193280D01*
X34000001Y-27193280D02*
X34000001Y-27136137D01*
X34000001Y-27136137D02*
X33971429Y-27078994D01*
X33971429Y-27078994D02*
X33942858Y-27050422D01*
X33942858Y-27050422D02*
X33885715Y-27021851D01*
X33885715Y-27021851D02*
X33742858Y-27021851D01*
X33742858Y-27021851D02*
X33657144Y-27050422D01*
X33400000Y-27621851D02*
X33400000Y-27021851D01*
X33400000Y-27021851D02*
X33171429Y-27021851D01*
X33171429Y-27021851D02*
X33114286Y-27050422D01*
X33114286Y-27050422D02*
X33085715Y-27078994D01*
X33085715Y-27078994D02*
X33057143Y-27136137D01*
X33057143Y-27136137D02*
X33057143Y-27221851D01*
X33057143Y-27221851D02*
X33085715Y-27278994D01*
X33085715Y-27278994D02*
X33114286Y-27307565D01*
X33114286Y-27307565D02*
X33171429Y-27336137D01*
X33171429Y-27336137D02*
X33400000Y-27336137D01*
X32857143Y-27021851D02*
X32485715Y-27021851D01*
X32485715Y-27021851D02*
X32685715Y-27250422D01*
X32685715Y-27250422D02*
X32600000Y-27250422D01*
X32600000Y-27250422D02*
X32542858Y-27278994D01*
X32542858Y-27278994D02*
X32514286Y-27307565D01*
X32514286Y-27307565D02*
X32485715Y-27364708D01*
X32485715Y-27364708D02*
X32485715Y-27507565D01*
X32485715Y-27507565D02*
X32514286Y-27564708D01*
X32514286Y-27564708D02*
X32542858Y-27593280D01*
X32542858Y-27593280D02*
X32600000Y-27621851D01*
X32600000Y-27621851D02*
X32771429Y-27621851D01*
X32771429Y-27621851D02*
X32828572Y-27593280D01*
X32828572Y-27593280D02*
X32857143Y-27564708D01*
X32257143Y-27078994D02*
X32228571Y-27050422D01*
X32228571Y-27050422D02*
X32171429Y-27021851D01*
X32171429Y-27021851D02*
X32028571Y-27021851D01*
X32028571Y-27021851D02*
X31971429Y-27050422D01*
X31971429Y-27050422D02*
X31942857Y-27078994D01*
X31942857Y-27078994D02*
X31914286Y-27136137D01*
X31914286Y-27136137D02*
X31914286Y-27193280D01*
X31914286Y-27193280D02*
X31942857Y-27278994D01*
X31942857Y-27278994D02*
X32285714Y-27621851D01*
X32285714Y-27621851D02*
X31914286Y-27621851D01*
X31657142Y-27393280D02*
X31200000Y-27393280D01*
X30571428Y-27564708D02*
X30600000Y-27593280D01*
X30600000Y-27593280D02*
X30685714Y-27621851D01*
X30685714Y-27621851D02*
X30742857Y-27621851D01*
X30742857Y-27621851D02*
X30828571Y-27593280D01*
X30828571Y-27593280D02*
X30885714Y-27536137D01*
X30885714Y-27536137D02*
X30914285Y-27478994D01*
X30914285Y-27478994D02*
X30942857Y-27364708D01*
X30942857Y-27364708D02*
X30942857Y-27278994D01*
X30942857Y-27278994D02*
X30914285Y-27164708D01*
X30914285Y-27164708D02*
X30885714Y-27107565D01*
X30885714Y-27107565D02*
X30828571Y-27050422D01*
X30828571Y-27050422D02*
X30742857Y-27021851D01*
X30742857Y-27021851D02*
X30685714Y-27021851D01*
X30685714Y-27021851D02*
X30600000Y-27050422D01*
X30600000Y-27050422D02*
X30571428Y-27078994D01*
X30371428Y-27021851D02*
X30000000Y-27021851D01*
X30000000Y-27021851D02*
X30200000Y-27250422D01*
X30200000Y-27250422D02*
X30114285Y-27250422D01*
X30114285Y-27250422D02*
X30057143Y-27278994D01*
X30057143Y-27278994D02*
X30028571Y-27307565D01*
X30028571Y-27307565D02*
X30000000Y-27364708D01*
X30000000Y-27364708D02*
X30000000Y-27507565D01*
X30000000Y-27507565D02*
X30028571Y-27564708D01*
X30028571Y-27564708D02*
X30057143Y-27593280D01*
X30057143Y-27593280D02*
X30114285Y-27621851D01*
X30114285Y-27621851D02*
X30285714Y-27621851D01*
X30285714Y-27621851D02*
X30342857Y-27593280D01*
X30342857Y-27593280D02*
X30371428Y-27564708D01*
X29314285Y-27593280D02*
X29228571Y-27621851D01*
X29228571Y-27621851D02*
X29085713Y-27621851D01*
X29085713Y-27621851D02*
X29028571Y-27593280D01*
X29028571Y-27593280D02*
X28999999Y-27564708D01*
X28999999Y-27564708D02*
X28971428Y-27507565D01*
X28971428Y-27507565D02*
X28971428Y-27450422D01*
X28971428Y-27450422D02*
X28999999Y-27393280D01*
X28999999Y-27393280D02*
X29028571Y-27364708D01*
X29028571Y-27364708D02*
X29085713Y-27336137D01*
X29085713Y-27336137D02*
X29199999Y-27307565D01*
X29199999Y-27307565D02*
X29257142Y-27278994D01*
X29257142Y-27278994D02*
X29285713Y-27250422D01*
X29285713Y-27250422D02*
X29314285Y-27193280D01*
X29314285Y-27193280D02*
X29314285Y-27136137D01*
X29314285Y-27136137D02*
X29285713Y-27078994D01*
X29285713Y-27078994D02*
X29257142Y-27050422D01*
X29257142Y-27050422D02*
X29199999Y-27021851D01*
X29199999Y-27021851D02*
X29057142Y-27021851D01*
X29057142Y-27021851D02*
X28971428Y-27050422D01*
X28457142Y-27221851D02*
X28457142Y-27621851D01*
X28714284Y-27221851D02*
X28714284Y-27536137D01*
X28714284Y-27536137D02*
X28685713Y-27593280D01*
X28685713Y-27593280D02*
X28628570Y-27621851D01*
X28628570Y-27621851D02*
X28542856Y-27621851D01*
X28542856Y-27621851D02*
X28485713Y-27593280D01*
X28485713Y-27593280D02*
X28457142Y-27564708D01*
X28171427Y-27221851D02*
X28171427Y-27821851D01*
X28171427Y-27250422D02*
X28114285Y-27221851D01*
X28114285Y-27221851D02*
X27999999Y-27221851D01*
X27999999Y-27221851D02*
X27942856Y-27250422D01*
X27942856Y-27250422D02*
X27914285Y-27278994D01*
X27914285Y-27278994D02*
X27885713Y-27336137D01*
X27885713Y-27336137D02*
X27885713Y-27507565D01*
X27885713Y-27507565D02*
X27914285Y-27564708D01*
X27914285Y-27564708D02*
X27942856Y-27593280D01*
X27942856Y-27593280D02*
X27999999Y-27621851D01*
X27999999Y-27621851D02*
X28114285Y-27621851D01*
X28114285Y-27621851D02*
X28171427Y-27593280D01*
X27399999Y-27593280D02*
X27457142Y-27621851D01*
X27457142Y-27621851D02*
X27571428Y-27621851D01*
X27571428Y-27621851D02*
X27628570Y-27593280D01*
X27628570Y-27593280D02*
X27657142Y-27536137D01*
X27657142Y-27536137D02*
X27657142Y-27307565D01*
X27657142Y-27307565D02*
X27628570Y-27250422D01*
X27628570Y-27250422D02*
X27571428Y-27221851D01*
X27571428Y-27221851D02*
X27457142Y-27221851D01*
X27457142Y-27221851D02*
X27399999Y-27250422D01*
X27399999Y-27250422D02*
X27371428Y-27307565D01*
X27371428Y-27307565D02*
X27371428Y-27364708D01*
X27371428Y-27364708D02*
X27657142Y-27421851D01*
X27114284Y-27621851D02*
X27114284Y-27221851D01*
X27114284Y-27336137D02*
X27085713Y-27278994D01*
X27085713Y-27278994D02*
X27057142Y-27250422D01*
X27057142Y-27250422D02*
X26999999Y-27221851D01*
X26999999Y-27221851D02*
X26942856Y-27221851D01*
X26742855Y-27621851D02*
X26742855Y-27021851D01*
X26742855Y-27021851D02*
X26542855Y-27450422D01*
X26542855Y-27450422D02*
X26342855Y-27021851D01*
X26342855Y-27021851D02*
X26342855Y-27621851D01*
X26057141Y-27621851D02*
X26057141Y-27221851D01*
X26057141Y-27021851D02*
X26085713Y-27050422D01*
X26085713Y-27050422D02*
X26057141Y-27078994D01*
X26057141Y-27078994D02*
X26028570Y-27050422D01*
X26028570Y-27050422D02*
X26057141Y-27021851D01*
X26057141Y-27021851D02*
X26057141Y-27078994D01*
X25771427Y-27221851D02*
X25771427Y-27621851D01*
X25771427Y-27278994D02*
X25742856Y-27250422D01*
X25742856Y-27250422D02*
X25685713Y-27221851D01*
X25685713Y-27221851D02*
X25599999Y-27221851D01*
X25599999Y-27221851D02*
X25542856Y-27250422D01*
X25542856Y-27250422D02*
X25514285Y-27307565D01*
X25514285Y-27307565D02*
X25514285Y-27621851D01*
X25228570Y-27621851D02*
X25228570Y-27221851D01*
X25228570Y-27021851D02*
X25257142Y-27050422D01*
X25257142Y-27050422D02*
X25228570Y-27078994D01*
X25228570Y-27078994D02*
X25199999Y-27050422D01*
X25199999Y-27050422D02*
X25228570Y-27021851D01*
X25228570Y-27021851D02*
X25228570Y-27078994D01*
X39242858Y-28971851D02*
X39528572Y-28971851D01*
X39528572Y-28971851D02*
X39528572Y-28371851D01*
X38757144Y-28971851D02*
X39042858Y-28971851D01*
X39042858Y-28971851D02*
X39042858Y-28371851D01*
X38214287Y-28914708D02*
X38242859Y-28943280D01*
X38242859Y-28943280D02*
X38328573Y-28971851D01*
X38328573Y-28971851D02*
X38385716Y-28971851D01*
X38385716Y-28971851D02*
X38471430Y-28943280D01*
X38471430Y-28943280D02*
X38528573Y-28886137D01*
X38528573Y-28886137D02*
X38557144Y-28828994D01*
X38557144Y-28828994D02*
X38585716Y-28714708D01*
X38585716Y-28714708D02*
X38585716Y-28628994D01*
X38585716Y-28628994D02*
X38557144Y-28514708D01*
X38557144Y-28514708D02*
X38528573Y-28457565D01*
X38528573Y-28457565D02*
X38471430Y-28400422D01*
X38471430Y-28400422D02*
X38385716Y-28371851D01*
X38385716Y-28371851D02*
X38328573Y-28371851D01*
X38328573Y-28371851D02*
X38242859Y-28400422D01*
X38242859Y-28400422D02*
X38214287Y-28428994D01*
X37957144Y-28914708D02*
X37928573Y-28943280D01*
X37928573Y-28943280D02*
X37957144Y-28971851D01*
X37957144Y-28971851D02*
X37985716Y-28943280D01*
X37985716Y-28943280D02*
X37957144Y-28914708D01*
X37957144Y-28914708D02*
X37957144Y-28971851D01*
X37957144Y-28600422D02*
X37928573Y-28628994D01*
X37928573Y-28628994D02*
X37957144Y-28657565D01*
X37957144Y-28657565D02*
X37985716Y-28628994D01*
X37985716Y-28628994D02*
X37957144Y-28600422D01*
X37957144Y-28600422D02*
X37957144Y-28657565D01*
X37014287Y-28657565D02*
X36928573Y-28686137D01*
X36928573Y-28686137D02*
X36900002Y-28714708D01*
X36900002Y-28714708D02*
X36871430Y-28771851D01*
X36871430Y-28771851D02*
X36871430Y-28857565D01*
X36871430Y-28857565D02*
X36900002Y-28914708D01*
X36900002Y-28914708D02*
X36928573Y-28943280D01*
X36928573Y-28943280D02*
X36985716Y-28971851D01*
X36985716Y-28971851D02*
X37214287Y-28971851D01*
X37214287Y-28971851D02*
X37214287Y-28371851D01*
X37214287Y-28371851D02*
X37014287Y-28371851D01*
X37014287Y-28371851D02*
X36957145Y-28400422D01*
X36957145Y-28400422D02*
X36928573Y-28428994D01*
X36928573Y-28428994D02*
X36900002Y-28486137D01*
X36900002Y-28486137D02*
X36900002Y-28543280D01*
X36900002Y-28543280D02*
X36928573Y-28600422D01*
X36928573Y-28600422D02*
X36957145Y-28628994D01*
X36957145Y-28628994D02*
X37014287Y-28657565D01*
X37014287Y-28657565D02*
X37214287Y-28657565D01*
X36642859Y-28943280D02*
X36557145Y-28971851D01*
X36557145Y-28971851D02*
X36414287Y-28971851D01*
X36414287Y-28971851D02*
X36357145Y-28943280D01*
X36357145Y-28943280D02*
X36328573Y-28914708D01*
X36328573Y-28914708D02*
X36300002Y-28857565D01*
X36300002Y-28857565D02*
X36300002Y-28800422D01*
X36300002Y-28800422D02*
X36328573Y-28743280D01*
X36328573Y-28743280D02*
X36357145Y-28714708D01*
X36357145Y-28714708D02*
X36414287Y-28686137D01*
X36414287Y-28686137D02*
X36528573Y-28657565D01*
X36528573Y-28657565D02*
X36585716Y-28628994D01*
X36585716Y-28628994D02*
X36614287Y-28600422D01*
X36614287Y-28600422D02*
X36642859Y-28543280D01*
X36642859Y-28543280D02*
X36642859Y-28486137D01*
X36642859Y-28486137D02*
X36614287Y-28428994D01*
X36614287Y-28428994D02*
X36585716Y-28400422D01*
X36585716Y-28400422D02*
X36528573Y-28371851D01*
X36528573Y-28371851D02*
X36385716Y-28371851D01*
X36385716Y-28371851D02*
X36300002Y-28400422D01*
X36071430Y-28943280D02*
X35985716Y-28971851D01*
X35985716Y-28971851D02*
X35842858Y-28971851D01*
X35842858Y-28971851D02*
X35785716Y-28943280D01*
X35785716Y-28943280D02*
X35757144Y-28914708D01*
X35757144Y-28914708D02*
X35728573Y-28857565D01*
X35728573Y-28857565D02*
X35728573Y-28800422D01*
X35728573Y-28800422D02*
X35757144Y-28743280D01*
X35757144Y-28743280D02*
X35785716Y-28714708D01*
X35785716Y-28714708D02*
X35842858Y-28686137D01*
X35842858Y-28686137D02*
X35957144Y-28657565D01*
X35957144Y-28657565D02*
X36014287Y-28628994D01*
X36014287Y-28628994D02*
X36042858Y-28600422D01*
X36042858Y-28600422D02*
X36071430Y-28543280D01*
X36071430Y-28543280D02*
X36071430Y-28486137D01*
X36071430Y-28486137D02*
X36042858Y-28428994D01*
X36042858Y-28428994D02*
X36014287Y-28400422D01*
X36014287Y-28400422D02*
X35957144Y-28371851D01*
X35957144Y-28371851D02*
X35814287Y-28371851D01*
X35814287Y-28371851D02*
X35728573Y-28400422D01*
X35157144Y-28971851D02*
X35500001Y-28971851D01*
X35328572Y-28971851D02*
X35328572Y-28371851D01*
X35328572Y-28371851D02*
X35385715Y-28457565D01*
X35385715Y-28457565D02*
X35442858Y-28514708D01*
X35442858Y-28514708D02*
X35500001Y-28543280D01*
X34957143Y-28371851D02*
X34585715Y-28371851D01*
X34585715Y-28371851D02*
X34785715Y-28600422D01*
X34785715Y-28600422D02*
X34700000Y-28600422D01*
X34700000Y-28600422D02*
X34642858Y-28628994D01*
X34642858Y-28628994D02*
X34614286Y-28657565D01*
X34614286Y-28657565D02*
X34585715Y-28714708D01*
X34585715Y-28714708D02*
X34585715Y-28857565D01*
X34585715Y-28857565D02*
X34614286Y-28914708D01*
X34614286Y-28914708D02*
X34642858Y-28943280D01*
X34642858Y-28943280D02*
X34700000Y-28971851D01*
X34700000Y-28971851D02*
X34871429Y-28971851D01*
X34871429Y-28971851D02*
X34928572Y-28943280D01*
X34928572Y-28943280D02*
X34957143Y-28914708D01*
X34242857Y-28628994D02*
X34300000Y-28600422D01*
X34300000Y-28600422D02*
X34328571Y-28571851D01*
X34328571Y-28571851D02*
X34357143Y-28514708D01*
X34357143Y-28514708D02*
X34357143Y-28486137D01*
X34357143Y-28486137D02*
X34328571Y-28428994D01*
X34328571Y-28428994D02*
X34300000Y-28400422D01*
X34300000Y-28400422D02*
X34242857Y-28371851D01*
X34242857Y-28371851D02*
X34128571Y-28371851D01*
X34128571Y-28371851D02*
X34071429Y-28400422D01*
X34071429Y-28400422D02*
X34042857Y-28428994D01*
X34042857Y-28428994D02*
X34014286Y-28486137D01*
X34014286Y-28486137D02*
X34014286Y-28514708D01*
X34014286Y-28514708D02*
X34042857Y-28571851D01*
X34042857Y-28571851D02*
X34071429Y-28600422D01*
X34071429Y-28600422D02*
X34128571Y-28628994D01*
X34128571Y-28628994D02*
X34242857Y-28628994D01*
X34242857Y-28628994D02*
X34300000Y-28657565D01*
X34300000Y-28657565D02*
X34328571Y-28686137D01*
X34328571Y-28686137D02*
X34357143Y-28743280D01*
X34357143Y-28743280D02*
X34357143Y-28857565D01*
X34357143Y-28857565D02*
X34328571Y-28914708D01*
X34328571Y-28914708D02*
X34300000Y-28943280D01*
X34300000Y-28943280D02*
X34242857Y-28971851D01*
X34242857Y-28971851D02*
X34128571Y-28971851D01*
X34128571Y-28971851D02*
X34071429Y-28943280D01*
X34071429Y-28943280D02*
X34042857Y-28914708D01*
X34042857Y-28914708D02*
X34014286Y-28857565D01*
X34014286Y-28857565D02*
X34014286Y-28743280D01*
X34014286Y-28743280D02*
X34042857Y-28686137D01*
X34042857Y-28686137D02*
X34071429Y-28657565D01*
X34071429Y-28657565D02*
X34128571Y-28628994D01*
X33328571Y-28428994D02*
X33299999Y-28400422D01*
X33299999Y-28400422D02*
X33242857Y-28371851D01*
X33242857Y-28371851D02*
X33099999Y-28371851D01*
X33099999Y-28371851D02*
X33042857Y-28400422D01*
X33042857Y-28400422D02*
X33014285Y-28428994D01*
X33014285Y-28428994D02*
X32985714Y-28486137D01*
X32985714Y-28486137D02*
X32985714Y-28543280D01*
X32985714Y-28543280D02*
X33014285Y-28628994D01*
X33014285Y-28628994D02*
X33357142Y-28971851D01*
X33357142Y-28971851D02*
X32985714Y-28971851D01*
X32728570Y-28743280D02*
X32271428Y-28743280D01*
X31728571Y-28943280D02*
X31785713Y-28971851D01*
X31785713Y-28971851D02*
X31899999Y-28971851D01*
X31899999Y-28971851D02*
X31957142Y-28943280D01*
X31957142Y-28943280D02*
X31985713Y-28914708D01*
X31985713Y-28914708D02*
X32014285Y-28857565D01*
X32014285Y-28857565D02*
X32014285Y-28686137D01*
X32014285Y-28686137D02*
X31985713Y-28628994D01*
X31985713Y-28628994D02*
X31957142Y-28600422D01*
X31957142Y-28600422D02*
X31899999Y-28571851D01*
X31899999Y-28571851D02*
X31785713Y-28571851D01*
X31785713Y-28571851D02*
X31728571Y-28600422D01*
X31471427Y-28971851D02*
X31471427Y-28371851D01*
X31214285Y-28971851D02*
X31214285Y-28657565D01*
X31214285Y-28657565D02*
X31242856Y-28600422D01*
X31242856Y-28600422D02*
X31299999Y-28571851D01*
X31299999Y-28571851D02*
X31385713Y-28571851D01*
X31385713Y-28571851D02*
X31442856Y-28600422D01*
X31442856Y-28600422D02*
X31471427Y-28628994D01*
X30471427Y-28971851D02*
X30471427Y-28571851D01*
X30471427Y-28628994D02*
X30442856Y-28600422D01*
X30442856Y-28600422D02*
X30385713Y-28571851D01*
X30385713Y-28571851D02*
X30299999Y-28571851D01*
X30299999Y-28571851D02*
X30242856Y-28600422D01*
X30242856Y-28600422D02*
X30214285Y-28657565D01*
X30214285Y-28657565D02*
X30214285Y-28971851D01*
X30214285Y-28657565D02*
X30185713Y-28600422D01*
X30185713Y-28600422D02*
X30128570Y-28571851D01*
X30128570Y-28571851D02*
X30042856Y-28571851D01*
X30042856Y-28571851D02*
X29985713Y-28600422D01*
X29985713Y-28600422D02*
X29957142Y-28657565D01*
X29957142Y-28657565D02*
X29957142Y-28971851D01*
X29585713Y-28971851D02*
X29642856Y-28943280D01*
X29642856Y-28943280D02*
X29671427Y-28914708D01*
X29671427Y-28914708D02*
X29699999Y-28857565D01*
X29699999Y-28857565D02*
X29699999Y-28686137D01*
X29699999Y-28686137D02*
X29671427Y-28628994D01*
X29671427Y-28628994D02*
X29642856Y-28600422D01*
X29642856Y-28600422D02*
X29585713Y-28571851D01*
X29585713Y-28571851D02*
X29499999Y-28571851D01*
X29499999Y-28571851D02*
X29442856Y-28600422D01*
X29442856Y-28600422D02*
X29414285Y-28628994D01*
X29414285Y-28628994D02*
X29385713Y-28686137D01*
X29385713Y-28686137D02*
X29385713Y-28857565D01*
X29385713Y-28857565D02*
X29414285Y-28914708D01*
X29414285Y-28914708D02*
X29442856Y-28943280D01*
X29442856Y-28943280D02*
X29499999Y-28971851D01*
X29499999Y-28971851D02*
X29585713Y-28971851D01*
X28871428Y-28971851D02*
X28871428Y-28371851D01*
X28871428Y-28943280D02*
X28928570Y-28971851D01*
X28928570Y-28971851D02*
X29042856Y-28971851D01*
X29042856Y-28971851D02*
X29099999Y-28943280D01*
X29099999Y-28943280D02*
X29128570Y-28914708D01*
X29128570Y-28914708D02*
X29157142Y-28857565D01*
X29157142Y-28857565D02*
X29157142Y-28686137D01*
X29157142Y-28686137D02*
X29128570Y-28628994D01*
X29128570Y-28628994D02*
X29099999Y-28600422D01*
X29099999Y-28600422D02*
X29042856Y-28571851D01*
X29042856Y-28571851D02*
X28928570Y-28571851D01*
X28928570Y-28571851D02*
X28871428Y-28600422D01*
X28328571Y-28571851D02*
X28328571Y-28971851D01*
X28585713Y-28571851D02*
X28585713Y-28886137D01*
X28585713Y-28886137D02*
X28557142Y-28943280D01*
X28557142Y-28943280D02*
X28499999Y-28971851D01*
X28499999Y-28971851D02*
X28414285Y-28971851D01*
X28414285Y-28971851D02*
X28357142Y-28943280D01*
X28357142Y-28943280D02*
X28328571Y-28914708D01*
X27957142Y-28971851D02*
X28014285Y-28943280D01*
X28014285Y-28943280D02*
X28042856Y-28886137D01*
X28042856Y-28886137D02*
X28042856Y-28371851D01*
X27499999Y-28943280D02*
X27557142Y-28971851D01*
X27557142Y-28971851D02*
X27671428Y-28971851D01*
X27671428Y-28971851D02*
X27728570Y-28943280D01*
X27728570Y-28943280D02*
X27757142Y-28886137D01*
X27757142Y-28886137D02*
X27757142Y-28657565D01*
X27757142Y-28657565D02*
X27728570Y-28600422D01*
X27728570Y-28600422D02*
X27671428Y-28571851D01*
X27671428Y-28571851D02*
X27557142Y-28571851D01*
X27557142Y-28571851D02*
X27499999Y-28600422D01*
X27499999Y-28600422D02*
X27471428Y-28657565D01*
X27471428Y-28657565D02*
X27471428Y-28714708D01*
X27471428Y-28714708D02*
X27757142Y-28771851D01*
X26442856Y-28971851D02*
X26785713Y-28971851D01*
X26614284Y-28971851D02*
X26614284Y-28371851D01*
X26614284Y-28371851D02*
X26671427Y-28457565D01*
X26671427Y-28457565D02*
X26728570Y-28514708D01*
X26728570Y-28514708D02*
X26785713Y-28543280D01*
X26071427Y-28371851D02*
X26014284Y-28371851D01*
X26014284Y-28371851D02*
X25957141Y-28400422D01*
X25957141Y-28400422D02*
X25928570Y-28428994D01*
X25928570Y-28428994D02*
X25899998Y-28486137D01*
X25899998Y-28486137D02*
X25871427Y-28600422D01*
X25871427Y-28600422D02*
X25871427Y-28743280D01*
X25871427Y-28743280D02*
X25899998Y-28857565D01*
X25899998Y-28857565D02*
X25928570Y-28914708D01*
X25928570Y-28914708D02*
X25957141Y-28943280D01*
X25957141Y-28943280D02*
X26014284Y-28971851D01*
X26014284Y-28971851D02*
X26071427Y-28971851D01*
X26071427Y-28971851D02*
X26128570Y-28943280D01*
X26128570Y-28943280D02*
X26157141Y-28914708D01*
X26157141Y-28914708D02*
X26185712Y-28857565D01*
X26185712Y-28857565D02*
X26214284Y-28743280D01*
X26214284Y-28743280D02*
X26214284Y-28600422D01*
X26214284Y-28600422D02*
X26185712Y-28486137D01*
X26185712Y-28486137D02*
X26157141Y-28428994D01*
X26157141Y-28428994D02*
X26128570Y-28400422D01*
X26128570Y-28400422D02*
X26071427Y-28371851D01*
X25614283Y-28914708D02*
X25585712Y-28943280D01*
X25585712Y-28943280D02*
X25614283Y-28971851D01*
X25614283Y-28971851D02*
X25642855Y-28943280D01*
X25642855Y-28943280D02*
X25614283Y-28914708D01*
X25614283Y-28914708D02*
X25614283Y-28971851D01*
X25014284Y-28971851D02*
X25357141Y-28971851D01*
X25185712Y-28971851D02*
X25185712Y-28371851D01*
X25185712Y-28371851D02*
X25242855Y-28457565D01*
X25242855Y-28457565D02*
X25299998Y-28514708D01*
X25299998Y-28514708D02*
X25357141Y-28543280D01*
X24499998Y-28371851D02*
X24614283Y-28371851D01*
X24614283Y-28371851D02*
X24671426Y-28400422D01*
X24671426Y-28400422D02*
X24699998Y-28428994D01*
X24699998Y-28428994D02*
X24757140Y-28514708D01*
X24757140Y-28514708D02*
X24785712Y-28628994D01*
X24785712Y-28628994D02*
X24785712Y-28857565D01*
X24785712Y-28857565D02*
X24757140Y-28914708D01*
X24757140Y-28914708D02*
X24728569Y-28943280D01*
X24728569Y-28943280D02*
X24671426Y-28971851D01*
X24671426Y-28971851D02*
X24557140Y-28971851D01*
X24557140Y-28971851D02*
X24499998Y-28943280D01*
X24499998Y-28943280D02*
X24471426Y-28914708D01*
X24471426Y-28914708D02*
X24442855Y-28857565D01*
X24442855Y-28857565D02*
X24442855Y-28714708D01*
X24442855Y-28714708D02*
X24471426Y-28657565D01*
X24471426Y-28657565D02*
X24499998Y-28628994D01*
X24499998Y-28628994D02*
X24557140Y-28600422D01*
X24557140Y-28600422D02*
X24671426Y-28600422D01*
X24671426Y-28600422D02*
X24728569Y-28628994D01*
X24728569Y-28628994D02*
X24757140Y-28657565D01*
X24757140Y-28657565D02*
X24785712Y-28714708D01*
X24185711Y-28971851D02*
X24185711Y-28571851D01*
X24185711Y-28628994D02*
X24157140Y-28600422D01*
X24157140Y-28600422D02*
X24099997Y-28571851D01*
X24099997Y-28571851D02*
X24014283Y-28571851D01*
X24014283Y-28571851D02*
X23957140Y-28600422D01*
X23957140Y-28600422D02*
X23928569Y-28657565D01*
X23928569Y-28657565D02*
X23928569Y-28971851D01*
X23928569Y-28657565D02*
X23899997Y-28600422D01*
X23899997Y-28600422D02*
X23842854Y-28571851D01*
X23842854Y-28571851D02*
X23757140Y-28571851D01*
X23757140Y-28571851D02*
X23699997Y-28600422D01*
X23699997Y-28600422D02*
X23671426Y-28657565D01*
X23671426Y-28657565D02*
X23671426Y-28971851D01*
X23385711Y-28971851D02*
X23385711Y-28571851D01*
X23385711Y-28628994D02*
X23357140Y-28600422D01*
X23357140Y-28600422D02*
X23299997Y-28571851D01*
X23299997Y-28571851D02*
X23214283Y-28571851D01*
X23214283Y-28571851D02*
X23157140Y-28600422D01*
X23157140Y-28600422D02*
X23128569Y-28657565D01*
X23128569Y-28657565D02*
X23128569Y-28971851D01*
X23128569Y-28657565D02*
X23099997Y-28600422D01*
X23099997Y-28600422D02*
X23042854Y-28571851D01*
X23042854Y-28571851D02*
X22957140Y-28571851D01*
X22957140Y-28571851D02*
X22899997Y-28600422D01*
X22899997Y-28600422D02*
X22871426Y-28657565D01*
X22871426Y-28657565D02*
X22871426Y-28971851D01*
X37700001Y-30321851D02*
X37700001Y-29721851D01*
X37700001Y-29721851D02*
X37557144Y-29721851D01*
X37557144Y-29721851D02*
X37471430Y-29750422D01*
X37471430Y-29750422D02*
X37414287Y-29807565D01*
X37414287Y-29807565D02*
X37385716Y-29864708D01*
X37385716Y-29864708D02*
X37357144Y-29978994D01*
X37357144Y-29978994D02*
X37357144Y-30064708D01*
X37357144Y-30064708D02*
X37385716Y-30178994D01*
X37385716Y-30178994D02*
X37414287Y-30236137D01*
X37414287Y-30236137D02*
X37471430Y-30293280D01*
X37471430Y-30293280D02*
X37557144Y-30321851D01*
X37557144Y-30321851D02*
X37700001Y-30321851D01*
X36785716Y-30321851D02*
X37128573Y-30321851D01*
X36957144Y-30321851D02*
X36957144Y-29721851D01*
X36957144Y-29721851D02*
X37014287Y-29807565D01*
X37014287Y-29807565D02*
X37071430Y-29864708D01*
X37071430Y-29864708D02*
X37128573Y-29893280D01*
X36528572Y-30264708D02*
X36500001Y-30293280D01*
X36500001Y-30293280D02*
X36528572Y-30321851D01*
X36528572Y-30321851D02*
X36557144Y-30293280D01*
X36557144Y-30293280D02*
X36528572Y-30264708D01*
X36528572Y-30264708D02*
X36528572Y-30321851D01*
X36528572Y-29950422D02*
X36500001Y-29978994D01*
X36500001Y-29978994D02*
X36528572Y-30007565D01*
X36528572Y-30007565D02*
X36557144Y-29978994D01*
X36557144Y-29978994D02*
X36528572Y-29950422D01*
X36528572Y-29950422D02*
X36528572Y-30007565D01*
X35471430Y-30321851D02*
X35814287Y-30321851D01*
X35642858Y-30321851D02*
X35642858Y-29721851D01*
X35642858Y-29721851D02*
X35700001Y-29807565D01*
X35700001Y-29807565D02*
X35757144Y-29864708D01*
X35757144Y-29864708D02*
X35814287Y-29893280D01*
X35214286Y-30321851D02*
X35214286Y-29721851D01*
X35214286Y-29721851D02*
X34871429Y-30321851D01*
X34871429Y-30321851D02*
X34871429Y-29721851D01*
X34300001Y-29721851D02*
X34585715Y-29721851D01*
X34585715Y-29721851D02*
X34614287Y-30007565D01*
X34614287Y-30007565D02*
X34585715Y-29978994D01*
X34585715Y-29978994D02*
X34528573Y-29950422D01*
X34528573Y-29950422D02*
X34385715Y-29950422D01*
X34385715Y-29950422D02*
X34328573Y-29978994D01*
X34328573Y-29978994D02*
X34300001Y-30007565D01*
X34300001Y-30007565D02*
X34271430Y-30064708D01*
X34271430Y-30064708D02*
X34271430Y-30207565D01*
X34271430Y-30207565D02*
X34300001Y-30264708D01*
X34300001Y-30264708D02*
X34328573Y-30293280D01*
X34328573Y-30293280D02*
X34385715Y-30321851D01*
X34385715Y-30321851D02*
X34528573Y-30321851D01*
X34528573Y-30321851D02*
X34585715Y-30293280D01*
X34585715Y-30293280D02*
X34614287Y-30264708D01*
X33928572Y-29978994D02*
X33985715Y-29950422D01*
X33985715Y-29950422D02*
X34014286Y-29921851D01*
X34014286Y-29921851D02*
X34042858Y-29864708D01*
X34042858Y-29864708D02*
X34042858Y-29836137D01*
X34042858Y-29836137D02*
X34014286Y-29778994D01*
X34014286Y-29778994D02*
X33985715Y-29750422D01*
X33985715Y-29750422D02*
X33928572Y-29721851D01*
X33928572Y-29721851D02*
X33814286Y-29721851D01*
X33814286Y-29721851D02*
X33757144Y-29750422D01*
X33757144Y-29750422D02*
X33728572Y-29778994D01*
X33728572Y-29778994D02*
X33700001Y-29836137D01*
X33700001Y-29836137D02*
X33700001Y-29864708D01*
X33700001Y-29864708D02*
X33728572Y-29921851D01*
X33728572Y-29921851D02*
X33757144Y-29950422D01*
X33757144Y-29950422D02*
X33814286Y-29978994D01*
X33814286Y-29978994D02*
X33928572Y-29978994D01*
X33928572Y-29978994D02*
X33985715Y-30007565D01*
X33985715Y-30007565D02*
X34014286Y-30036137D01*
X34014286Y-30036137D02*
X34042858Y-30093280D01*
X34042858Y-30093280D02*
X34042858Y-30207565D01*
X34042858Y-30207565D02*
X34014286Y-30264708D01*
X34014286Y-30264708D02*
X33985715Y-30293280D01*
X33985715Y-30293280D02*
X33928572Y-30321851D01*
X33928572Y-30321851D02*
X33814286Y-30321851D01*
X33814286Y-30321851D02*
X33757144Y-30293280D01*
X33757144Y-30293280D02*
X33728572Y-30264708D01*
X33728572Y-30264708D02*
X33700001Y-30207565D01*
X33700001Y-30207565D02*
X33700001Y-30093280D01*
X33700001Y-30093280D02*
X33728572Y-30036137D01*
X33728572Y-30036137D02*
X33757144Y-30007565D01*
X33757144Y-30007565D02*
X33814286Y-29978994D01*
X33128572Y-30321851D02*
X33471429Y-30321851D01*
X33300000Y-30321851D02*
X33300000Y-29721851D01*
X33300000Y-29721851D02*
X33357143Y-29807565D01*
X33357143Y-29807565D02*
X33414286Y-29864708D01*
X33414286Y-29864708D02*
X33471429Y-29893280D01*
X32842857Y-30321851D02*
X32728571Y-30321851D01*
X32728571Y-30321851D02*
X32671428Y-30293280D01*
X32671428Y-30293280D02*
X32642857Y-30264708D01*
X32642857Y-30264708D02*
X32585714Y-30178994D01*
X32585714Y-30178994D02*
X32557143Y-30064708D01*
X32557143Y-30064708D02*
X32557143Y-29836137D01*
X32557143Y-29836137D02*
X32585714Y-29778994D01*
X32585714Y-29778994D02*
X32614286Y-29750422D01*
X32614286Y-29750422D02*
X32671428Y-29721851D01*
X32671428Y-29721851D02*
X32785714Y-29721851D01*
X32785714Y-29721851D02*
X32842857Y-29750422D01*
X32842857Y-29750422D02*
X32871428Y-29778994D01*
X32871428Y-29778994D02*
X32900000Y-29836137D01*
X32900000Y-29836137D02*
X32900000Y-29978994D01*
X32900000Y-29978994D02*
X32871428Y-30036137D01*
X32871428Y-30036137D02*
X32842857Y-30064708D01*
X32842857Y-30064708D02*
X32785714Y-30093280D01*
X32785714Y-30093280D02*
X32671428Y-30093280D01*
X32671428Y-30093280D02*
X32614286Y-30064708D01*
X32614286Y-30064708D02*
X32585714Y-30036137D01*
X32585714Y-30036137D02*
X32557143Y-29978994D01*
X31042856Y-30264708D02*
X31071428Y-30293280D01*
X31071428Y-30293280D02*
X31157142Y-30321851D01*
X31157142Y-30321851D02*
X31214285Y-30321851D01*
X31214285Y-30321851D02*
X31299999Y-30293280D01*
X31299999Y-30293280D02*
X31357142Y-30236137D01*
X31357142Y-30236137D02*
X31385713Y-30178994D01*
X31385713Y-30178994D02*
X31414285Y-30064708D01*
X31414285Y-30064708D02*
X31414285Y-29978994D01*
X31414285Y-29978994D02*
X31385713Y-29864708D01*
X31385713Y-29864708D02*
X31357142Y-29807565D01*
X31357142Y-29807565D02*
X31299999Y-29750422D01*
X31299999Y-29750422D02*
X31214285Y-29721851D01*
X31214285Y-29721851D02*
X31157142Y-29721851D01*
X31157142Y-29721851D02*
X31071428Y-29750422D01*
X31071428Y-29750422D02*
X31042856Y-29778994D01*
X30471428Y-30321851D02*
X30814285Y-30321851D01*
X30642856Y-30321851D02*
X30642856Y-29721851D01*
X30642856Y-29721851D02*
X30699999Y-29807565D01*
X30699999Y-29807565D02*
X30757142Y-29864708D01*
X30757142Y-29864708D02*
X30814285Y-29893280D01*
X30214284Y-30264708D02*
X30185713Y-30293280D01*
X30185713Y-30293280D02*
X30214284Y-30321851D01*
X30214284Y-30321851D02*
X30242856Y-30293280D01*
X30242856Y-30293280D02*
X30214284Y-30264708D01*
X30214284Y-30264708D02*
X30214284Y-30321851D01*
X30214284Y-29950422D02*
X30185713Y-29978994D01*
X30185713Y-29978994D02*
X30214284Y-30007565D01*
X30214284Y-30007565D02*
X30242856Y-29978994D01*
X30242856Y-29978994D02*
X30214284Y-29950422D01*
X30214284Y-29950422D02*
X30214284Y-30007565D01*
X29157142Y-30321851D02*
X29499999Y-30321851D01*
X29328570Y-30321851D02*
X29328570Y-29721851D01*
X29328570Y-29721851D02*
X29385713Y-29807565D01*
X29385713Y-29807565D02*
X29442856Y-29864708D01*
X29442856Y-29864708D02*
X29499999Y-29893280D01*
X28785713Y-29721851D02*
X28728570Y-29721851D01*
X28728570Y-29721851D02*
X28671427Y-29750422D01*
X28671427Y-29750422D02*
X28642856Y-29778994D01*
X28642856Y-29778994D02*
X28614284Y-29836137D01*
X28614284Y-29836137D02*
X28585713Y-29950422D01*
X28585713Y-29950422D02*
X28585713Y-30093280D01*
X28585713Y-30093280D02*
X28614284Y-30207565D01*
X28614284Y-30207565D02*
X28642856Y-30264708D01*
X28642856Y-30264708D02*
X28671427Y-30293280D01*
X28671427Y-30293280D02*
X28728570Y-30321851D01*
X28728570Y-30321851D02*
X28785713Y-30321851D01*
X28785713Y-30321851D02*
X28842856Y-30293280D01*
X28842856Y-30293280D02*
X28871427Y-30264708D01*
X28871427Y-30264708D02*
X28899998Y-30207565D01*
X28899998Y-30207565D02*
X28928570Y-30093280D01*
X28928570Y-30093280D02*
X28928570Y-29950422D01*
X28928570Y-29950422D02*
X28899998Y-29836137D01*
X28899998Y-29836137D02*
X28871427Y-29778994D01*
X28871427Y-29778994D02*
X28842856Y-29750422D01*
X28842856Y-29750422D02*
X28785713Y-29721851D01*
X28214284Y-29721851D02*
X28157141Y-29721851D01*
X28157141Y-29721851D02*
X28099998Y-29750422D01*
X28099998Y-29750422D02*
X28071427Y-29778994D01*
X28071427Y-29778994D02*
X28042855Y-29836137D01*
X28042855Y-29836137D02*
X28014284Y-29950422D01*
X28014284Y-29950422D02*
X28014284Y-30093280D01*
X28014284Y-30093280D02*
X28042855Y-30207565D01*
X28042855Y-30207565D02*
X28071427Y-30264708D01*
X28071427Y-30264708D02*
X28099998Y-30293280D01*
X28099998Y-30293280D02*
X28157141Y-30321851D01*
X28157141Y-30321851D02*
X28214284Y-30321851D01*
X28214284Y-30321851D02*
X28271427Y-30293280D01*
X28271427Y-30293280D02*
X28299998Y-30264708D01*
X28299998Y-30264708D02*
X28328569Y-30207565D01*
X28328569Y-30207565D02*
X28357141Y-30093280D01*
X28357141Y-30093280D02*
X28357141Y-29950422D01*
X28357141Y-29950422D02*
X28328569Y-29836137D01*
X28328569Y-29836137D02*
X28299998Y-29778994D01*
X28299998Y-29778994D02*
X28271427Y-29750422D01*
X28271427Y-29750422D02*
X28214284Y-29721851D01*
X27499998Y-29921851D02*
X27499998Y-30321851D01*
X27757140Y-29921851D02*
X27757140Y-30236137D01*
X27757140Y-30236137D02*
X27728569Y-30293280D01*
X27728569Y-30293280D02*
X27671426Y-30321851D01*
X27671426Y-30321851D02*
X27585712Y-30321851D01*
X27585712Y-30321851D02*
X27528569Y-30293280D01*
X27528569Y-30293280D02*
X27499998Y-30264708D01*
X27014283Y-30007565D02*
X27214283Y-30007565D01*
X27214283Y-30321851D02*
X27214283Y-29721851D01*
X27214283Y-29721851D02*
X26928569Y-29721851D01*
X26271426Y-29693280D02*
X26785712Y-30464708D01*
X25757141Y-30321851D02*
X26099998Y-30321851D01*
X25928569Y-30321851D02*
X25928569Y-29721851D01*
X25928569Y-29721851D02*
X25985712Y-29807565D01*
X25985712Y-29807565D02*
X26042855Y-29864708D01*
X26042855Y-29864708D02*
X26099998Y-29893280D01*
X25242855Y-29721851D02*
X25357140Y-29721851D01*
X25357140Y-29721851D02*
X25414283Y-29750422D01*
X25414283Y-29750422D02*
X25442855Y-29778994D01*
X25442855Y-29778994D02*
X25499997Y-29864708D01*
X25499997Y-29864708D02*
X25528569Y-29978994D01*
X25528569Y-29978994D02*
X25528569Y-30207565D01*
X25528569Y-30207565D02*
X25499997Y-30264708D01*
X25499997Y-30264708D02*
X25471426Y-30293280D01*
X25471426Y-30293280D02*
X25414283Y-30321851D01*
X25414283Y-30321851D02*
X25299997Y-30321851D01*
X25299997Y-30321851D02*
X25242855Y-30293280D01*
X25242855Y-30293280D02*
X25214283Y-30264708D01*
X25214283Y-30264708D02*
X25185712Y-30207565D01*
X25185712Y-30207565D02*
X25185712Y-30064708D01*
X25185712Y-30064708D02*
X25214283Y-30007565D01*
X25214283Y-30007565D02*
X25242855Y-29978994D01*
X25242855Y-29978994D02*
X25299997Y-29950422D01*
X25299997Y-29950422D02*
X25414283Y-29950422D01*
X25414283Y-29950422D02*
X25471426Y-29978994D01*
X25471426Y-29978994D02*
X25499997Y-30007565D01*
X25499997Y-30007565D02*
X25528569Y-30064708D01*
X25014283Y-29721851D02*
X24814283Y-30321851D01*
X24814283Y-30321851D02*
X24614283Y-29721851D01*
X39300000Y-31071851D02*
X39300000Y-31500422D01*
X39300000Y-31500422D02*
X39328571Y-31586137D01*
X39328571Y-31586137D02*
X39385714Y-31643280D01*
X39385714Y-31643280D02*
X39471428Y-31671851D01*
X39471428Y-31671851D02*
X39528571Y-31671851D01*
X38700000Y-31671851D02*
X39042857Y-31671851D01*
X38871428Y-31671851D02*
X38871428Y-31071851D01*
X38871428Y-31071851D02*
X38928571Y-31157565D01*
X38928571Y-31157565D02*
X38985714Y-31214708D01*
X38985714Y-31214708D02*
X39042857Y-31243280D01*
X38128571Y-31671851D02*
X38471428Y-31671851D01*
X38299999Y-31671851D02*
X38299999Y-31071851D01*
X38299999Y-31071851D02*
X38357142Y-31157565D01*
X38357142Y-31157565D02*
X38414285Y-31214708D01*
X38414285Y-31214708D02*
X38471428Y-31243280D01*
X37871427Y-31614708D02*
X37842856Y-31643280D01*
X37842856Y-31643280D02*
X37871427Y-31671851D01*
X37871427Y-31671851D02*
X37899999Y-31643280D01*
X37899999Y-31643280D02*
X37871427Y-31614708D01*
X37871427Y-31614708D02*
X37871427Y-31671851D01*
X37871427Y-31300422D02*
X37842856Y-31328994D01*
X37842856Y-31328994D02*
X37871427Y-31357565D01*
X37871427Y-31357565D02*
X37899999Y-31328994D01*
X37899999Y-31328994D02*
X37871427Y-31300422D01*
X37871427Y-31300422D02*
X37871427Y-31357565D01*
X36785713Y-31614708D02*
X36814285Y-31643280D01*
X36814285Y-31643280D02*
X36899999Y-31671851D01*
X36899999Y-31671851D02*
X36957142Y-31671851D01*
X36957142Y-31671851D02*
X37042856Y-31643280D01*
X37042856Y-31643280D02*
X37099999Y-31586137D01*
X37099999Y-31586137D02*
X37128570Y-31528994D01*
X37128570Y-31528994D02*
X37157142Y-31414708D01*
X37157142Y-31414708D02*
X37157142Y-31328994D01*
X37157142Y-31328994D02*
X37128570Y-31214708D01*
X37128570Y-31214708D02*
X37099999Y-31157565D01*
X37099999Y-31157565D02*
X37042856Y-31100422D01*
X37042856Y-31100422D02*
X36957142Y-31071851D01*
X36957142Y-31071851D02*
X36899999Y-31071851D01*
X36899999Y-31071851D02*
X36814285Y-31100422D01*
X36814285Y-31100422D02*
X36785713Y-31128994D01*
X36528570Y-31671851D02*
X36528570Y-31071851D01*
X36528570Y-31071851D02*
X36185713Y-31671851D01*
X36185713Y-31671851D02*
X36185713Y-31071851D01*
X35899999Y-31443280D02*
X35442857Y-31443280D01*
X35214285Y-31071851D02*
X35071428Y-31671851D01*
X35071428Y-31671851D02*
X34957142Y-31243280D01*
X34957142Y-31243280D02*
X34842857Y-31671851D01*
X34842857Y-31671851D02*
X34700000Y-31071851D01*
X34185714Y-31671851D02*
X34471428Y-31671851D01*
X34471428Y-31671851D02*
X34471428Y-31071851D01*
X34014286Y-31500422D02*
X33728572Y-31500422D01*
X34071429Y-31671851D02*
X33871429Y-31071851D01*
X33871429Y-31071851D02*
X33671429Y-31671851D01*
X33471428Y-31671851D02*
X33471428Y-31071851D01*
X33471428Y-31071851D02*
X33128571Y-31671851D01*
X33128571Y-31671851D02*
X33128571Y-31071851D01*
X32214286Y-31900422D02*
X32242857Y-31871851D01*
X32242857Y-31871851D02*
X32300000Y-31786137D01*
X32300000Y-31786137D02*
X32328572Y-31728994D01*
X32328572Y-31728994D02*
X32357143Y-31643280D01*
X32357143Y-31643280D02*
X32385714Y-31500422D01*
X32385714Y-31500422D02*
X32385714Y-31386137D01*
X32385714Y-31386137D02*
X32357143Y-31243280D01*
X32357143Y-31243280D02*
X32328572Y-31157565D01*
X32328572Y-31157565D02*
X32300000Y-31100422D01*
X32300000Y-31100422D02*
X32242857Y-31014708D01*
X32242857Y-31014708D02*
X32214286Y-30986137D01*
X31985714Y-31671851D02*
X31985714Y-31071851D01*
X31985714Y-31071851D02*
X31842857Y-31071851D01*
X31842857Y-31071851D02*
X31757143Y-31100422D01*
X31757143Y-31100422D02*
X31700000Y-31157565D01*
X31700000Y-31157565D02*
X31671429Y-31214708D01*
X31671429Y-31214708D02*
X31642857Y-31328994D01*
X31642857Y-31328994D02*
X31642857Y-31414708D01*
X31642857Y-31414708D02*
X31671429Y-31528994D01*
X31671429Y-31528994D02*
X31700000Y-31586137D01*
X31700000Y-31586137D02*
X31757143Y-31643280D01*
X31757143Y-31643280D02*
X31842857Y-31671851D01*
X31842857Y-31671851D02*
X31985714Y-31671851D01*
X31385714Y-31671851D02*
X31385714Y-31071851D01*
X31385714Y-31071851D02*
X31042857Y-31671851D01*
X31042857Y-31671851D02*
X31042857Y-31071851D01*
X30785715Y-31643280D02*
X30700001Y-31671851D01*
X30700001Y-31671851D02*
X30557143Y-31671851D01*
X30557143Y-31671851D02*
X30500001Y-31643280D01*
X30500001Y-31643280D02*
X30471429Y-31614708D01*
X30471429Y-31614708D02*
X30442858Y-31557565D01*
X30442858Y-31557565D02*
X30442858Y-31500422D01*
X30442858Y-31500422D02*
X30471429Y-31443280D01*
X30471429Y-31443280D02*
X30500001Y-31414708D01*
X30500001Y-31414708D02*
X30557143Y-31386137D01*
X30557143Y-31386137D02*
X30671429Y-31357565D01*
X30671429Y-31357565D02*
X30728572Y-31328994D01*
X30728572Y-31328994D02*
X30757143Y-31300422D01*
X30757143Y-31300422D02*
X30785715Y-31243280D01*
X30785715Y-31243280D02*
X30785715Y-31186137D01*
X30785715Y-31186137D02*
X30757143Y-31128994D01*
X30757143Y-31128994D02*
X30728572Y-31100422D01*
X30728572Y-31100422D02*
X30671429Y-31071851D01*
X30671429Y-31071851D02*
X30528572Y-31071851D01*
X30528572Y-31071851D02*
X30442858Y-31100422D01*
X30185714Y-31671851D02*
X30185714Y-31071851D01*
X29842857Y-31671851D02*
X30100000Y-31328994D01*
X29842857Y-31071851D02*
X30185714Y-31414708D01*
X29585714Y-31443280D02*
X29128572Y-31443280D01*
X28842857Y-31671851D02*
X28842857Y-31071851D01*
X28842857Y-31071851D02*
X28614286Y-31071851D01*
X28614286Y-31071851D02*
X28557143Y-31100422D01*
X28557143Y-31100422D02*
X28528572Y-31128994D01*
X28528572Y-31128994D02*
X28500000Y-31186137D01*
X28500000Y-31186137D02*
X28500000Y-31271851D01*
X28500000Y-31271851D02*
X28528572Y-31328994D01*
X28528572Y-31328994D02*
X28557143Y-31357565D01*
X28557143Y-31357565D02*
X28614286Y-31386137D01*
X28614286Y-31386137D02*
X28842857Y-31386137D01*
X27928572Y-31671851D02*
X28271429Y-31671851D01*
X28100000Y-31671851D02*
X28100000Y-31071851D01*
X28100000Y-31071851D02*
X28157143Y-31157565D01*
X28157143Y-31157565D02*
X28214286Y-31214708D01*
X28214286Y-31214708D02*
X28271429Y-31243280D01*
X27357143Y-31671851D02*
X27700000Y-31671851D01*
X27528571Y-31671851D02*
X27528571Y-31071851D01*
X27528571Y-31071851D02*
X27585714Y-31157565D01*
X27585714Y-31157565D02*
X27642857Y-31214708D01*
X27642857Y-31214708D02*
X27700000Y-31243280D01*
X27157142Y-31900422D02*
X27128571Y-31871851D01*
X27128571Y-31871851D02*
X27071428Y-31786137D01*
X27071428Y-31786137D02*
X27042857Y-31728994D01*
X27042857Y-31728994D02*
X27014285Y-31643280D01*
X27014285Y-31643280D02*
X26985714Y-31500422D01*
X26985714Y-31500422D02*
X26985714Y-31386137D01*
X26985714Y-31386137D02*
X27014285Y-31243280D01*
X27014285Y-31243280D02*
X27042857Y-31157565D01*
X27042857Y-31157565D02*
X27071428Y-31100422D01*
X27071428Y-31100422D02*
X27128571Y-31014708D01*
X27128571Y-31014708D02*
X27157142Y-30986137D01*
X25928571Y-31671851D02*
X26271428Y-31671851D01*
X26099999Y-31671851D02*
X26099999Y-31071851D01*
X26099999Y-31071851D02*
X26157142Y-31157565D01*
X26157142Y-31157565D02*
X26214285Y-31214708D01*
X26214285Y-31214708D02*
X26271428Y-31243280D01*
X25671427Y-31614708D02*
X25642856Y-31643280D01*
X25642856Y-31643280D02*
X25671427Y-31671851D01*
X25671427Y-31671851D02*
X25699999Y-31643280D01*
X25699999Y-31643280D02*
X25671427Y-31614708D01*
X25671427Y-31614708D02*
X25671427Y-31671851D01*
X25414285Y-31128994D02*
X25385713Y-31100422D01*
X25385713Y-31100422D02*
X25328571Y-31071851D01*
X25328571Y-31071851D02*
X25185713Y-31071851D01*
X25185713Y-31071851D02*
X25128571Y-31100422D01*
X25128571Y-31100422D02*
X25099999Y-31128994D01*
X25099999Y-31128994D02*
X25071428Y-31186137D01*
X25071428Y-31186137D02*
X25071428Y-31243280D01*
X25071428Y-31243280D02*
X25099999Y-31328994D01*
X25099999Y-31328994D02*
X25442856Y-31671851D01*
X25442856Y-31671851D02*
X25071428Y-31671851D01*
X24871427Y-31071851D02*
X24471427Y-31071851D01*
X24471427Y-31071851D02*
X24728570Y-31671851D01*
X24242855Y-31671851D02*
X24242855Y-31271851D01*
X24242855Y-31328994D02*
X24214284Y-31300422D01*
X24214284Y-31300422D02*
X24157141Y-31271851D01*
X24157141Y-31271851D02*
X24071427Y-31271851D01*
X24071427Y-31271851D02*
X24014284Y-31300422D01*
X24014284Y-31300422D02*
X23985713Y-31357565D01*
X23985713Y-31357565D02*
X23985713Y-31671851D01*
X23985713Y-31357565D02*
X23957141Y-31300422D01*
X23957141Y-31300422D02*
X23899998Y-31271851D01*
X23899998Y-31271851D02*
X23814284Y-31271851D01*
X23814284Y-31271851D02*
X23757141Y-31300422D01*
X23757141Y-31300422D02*
X23728570Y-31357565D01*
X23728570Y-31357565D02*
X23728570Y-31671851D01*
X23442855Y-31671851D02*
X23442855Y-31271851D01*
X23442855Y-31328994D02*
X23414284Y-31300422D01*
X23414284Y-31300422D02*
X23357141Y-31271851D01*
X23357141Y-31271851D02*
X23271427Y-31271851D01*
X23271427Y-31271851D02*
X23214284Y-31300422D01*
X23214284Y-31300422D02*
X23185713Y-31357565D01*
X23185713Y-31357565D02*
X23185713Y-31671851D01*
X23185713Y-31357565D02*
X23157141Y-31300422D01*
X23157141Y-31300422D02*
X23099998Y-31271851D01*
X23099998Y-31271851D02*
X23014284Y-31271851D01*
X23014284Y-31271851D02*
X22957141Y-31300422D01*
X22957141Y-31300422D02*
X22928570Y-31357565D01*
X22928570Y-31357565D02*
X22928570Y-31671851D01*
X39342855Y-32964708D02*
X39371427Y-32993280D01*
X39371427Y-32993280D02*
X39457141Y-33021851D01*
X39457141Y-33021851D02*
X39514284Y-33021851D01*
X39514284Y-33021851D02*
X39599998Y-32993280D01*
X39599998Y-32993280D02*
X39657141Y-32936137D01*
X39657141Y-32936137D02*
X39685712Y-32878994D01*
X39685712Y-32878994D02*
X39714284Y-32764708D01*
X39714284Y-32764708D02*
X39714284Y-32678994D01*
X39714284Y-32678994D02*
X39685712Y-32564708D01*
X39685712Y-32564708D02*
X39657141Y-32507565D01*
X39657141Y-32507565D02*
X39599998Y-32450422D01*
X39599998Y-32450422D02*
X39514284Y-32421851D01*
X39514284Y-32421851D02*
X39457141Y-32421851D01*
X39457141Y-32421851D02*
X39371427Y-32450422D01*
X39371427Y-32450422D02*
X39342855Y-32478994D01*
X39085712Y-33021851D02*
X39085712Y-32421851D01*
X39085712Y-32421851D02*
X38742855Y-33021851D01*
X38742855Y-33021851D02*
X38742855Y-32421851D01*
X38542856Y-32421851D02*
X38199999Y-32421851D01*
X38371427Y-33021851D02*
X38371427Y-32421851D01*
X37999998Y-32964708D02*
X37971427Y-32993280D01*
X37971427Y-32993280D02*
X37999998Y-33021851D01*
X37999998Y-33021851D02*
X38028570Y-32993280D01*
X38028570Y-32993280D02*
X37999998Y-32964708D01*
X37999998Y-32964708D02*
X37999998Y-33021851D01*
X37999998Y-32650422D02*
X37971427Y-32678994D01*
X37971427Y-32678994D02*
X37999998Y-32707565D01*
X37999998Y-32707565D02*
X38028570Y-32678994D01*
X38028570Y-32678994D02*
X37999998Y-32650422D01*
X37999998Y-32650422D02*
X37999998Y-32707565D01*
X36914284Y-32964708D02*
X36942856Y-32993280D01*
X36942856Y-32993280D02*
X37028570Y-33021851D01*
X37028570Y-33021851D02*
X37085713Y-33021851D01*
X37085713Y-33021851D02*
X37171427Y-32993280D01*
X37171427Y-32993280D02*
X37228570Y-32936137D01*
X37228570Y-32936137D02*
X37257141Y-32878994D01*
X37257141Y-32878994D02*
X37285713Y-32764708D01*
X37285713Y-32764708D02*
X37285713Y-32678994D01*
X37285713Y-32678994D02*
X37257141Y-32564708D01*
X37257141Y-32564708D02*
X37228570Y-32507565D01*
X37228570Y-32507565D02*
X37171427Y-32450422D01*
X37171427Y-32450422D02*
X37085713Y-32421851D01*
X37085713Y-32421851D02*
X37028570Y-32421851D01*
X37028570Y-32421851D02*
X36942856Y-32450422D01*
X36942856Y-32450422D02*
X36914284Y-32478994D01*
X36657141Y-33021851D02*
X36657141Y-32421851D01*
X36657141Y-32421851D02*
X36314284Y-33021851D01*
X36314284Y-33021851D02*
X36314284Y-32421851D01*
X36028570Y-32793280D02*
X35571428Y-32793280D01*
X34942856Y-32964708D02*
X34971428Y-32993280D01*
X34971428Y-32993280D02*
X35057142Y-33021851D01*
X35057142Y-33021851D02*
X35114285Y-33021851D01*
X35114285Y-33021851D02*
X35199999Y-32993280D01*
X35199999Y-32993280D02*
X35257142Y-32936137D01*
X35257142Y-32936137D02*
X35285713Y-32878994D01*
X35285713Y-32878994D02*
X35314285Y-32764708D01*
X35314285Y-32764708D02*
X35314285Y-32678994D01*
X35314285Y-32678994D02*
X35285713Y-32564708D01*
X35285713Y-32564708D02*
X35257142Y-32507565D01*
X35257142Y-32507565D02*
X35199999Y-32450422D01*
X35199999Y-32450422D02*
X35114285Y-32421851D01*
X35114285Y-32421851D02*
X35057142Y-32421851D01*
X35057142Y-32421851D02*
X34971428Y-32450422D01*
X34971428Y-32450422D02*
X34942856Y-32478994D01*
X34685713Y-33021851D02*
X34685713Y-32421851D01*
X34685713Y-32421851D02*
X34342856Y-33021851D01*
X34342856Y-33021851D02*
X34342856Y-32421851D01*
X34142857Y-32421851D02*
X33800000Y-32421851D01*
X33971428Y-33021851D02*
X33971428Y-32421851D01*
X32857142Y-32421851D02*
X33142856Y-32421851D01*
X33142856Y-32421851D02*
X33171428Y-32707565D01*
X33171428Y-32707565D02*
X33142856Y-32678994D01*
X33142856Y-32678994D02*
X33085714Y-32650422D01*
X33085714Y-32650422D02*
X32942856Y-32650422D01*
X32942856Y-32650422D02*
X32885714Y-32678994D01*
X32885714Y-32678994D02*
X32857142Y-32707565D01*
X32857142Y-32707565D02*
X32828571Y-32764708D01*
X32828571Y-32764708D02*
X32828571Y-32907565D01*
X32828571Y-32907565D02*
X32857142Y-32964708D01*
X32857142Y-32964708D02*
X32885714Y-32993280D01*
X32885714Y-32993280D02*
X32942856Y-33021851D01*
X32942856Y-33021851D02*
X33085714Y-33021851D01*
X33085714Y-33021851D02*
X33142856Y-32993280D01*
X33142856Y-32993280D02*
X33171428Y-32964708D01*
X32571427Y-32621851D02*
X32571427Y-33221851D01*
X32571427Y-32650422D02*
X32514285Y-32621851D01*
X32514285Y-32621851D02*
X32399999Y-32621851D01*
X32399999Y-32621851D02*
X32342856Y-32650422D01*
X32342856Y-32650422D02*
X32314285Y-32678994D01*
X32314285Y-32678994D02*
X32285713Y-32736137D01*
X32285713Y-32736137D02*
X32285713Y-32907565D01*
X32285713Y-32907565D02*
X32314285Y-32964708D01*
X32314285Y-32964708D02*
X32342856Y-32993280D01*
X32342856Y-32993280D02*
X32399999Y-33021851D01*
X32399999Y-33021851D02*
X32514285Y-33021851D01*
X32514285Y-33021851D02*
X32571427Y-32993280D01*
X31571427Y-33021851D02*
X31571427Y-32421851D01*
X31571427Y-32421851D02*
X31342856Y-32421851D01*
X31342856Y-32421851D02*
X31285713Y-32450422D01*
X31285713Y-32450422D02*
X31257142Y-32478994D01*
X31257142Y-32478994D02*
X31228570Y-32536137D01*
X31228570Y-32536137D02*
X31228570Y-32621851D01*
X31228570Y-32621851D02*
X31257142Y-32678994D01*
X31257142Y-32678994D02*
X31285713Y-32707565D01*
X31285713Y-32707565D02*
X31342856Y-32736137D01*
X31342856Y-32736137D02*
X31571427Y-32736137D01*
X30971427Y-33021851D02*
X30971427Y-32421851D01*
X30685713Y-33021851D02*
X30685713Y-32421851D01*
X30685713Y-32421851D02*
X30342856Y-33021851D01*
X30342856Y-33021851D02*
X30342856Y-32421851D01*
X29800000Y-32621851D02*
X29800000Y-33021851D01*
X29942857Y-32393280D02*
X30085714Y-32821851D01*
X30085714Y-32821851D02*
X29714285Y-32821851D01*
X29485713Y-32707565D02*
X29028571Y-32707565D01*
X29028571Y-32878994D02*
X29485713Y-32878994D01*
X28428571Y-33021851D02*
X28771428Y-33021851D01*
X28599999Y-33021851D02*
X28599999Y-32421851D01*
X28599999Y-32421851D02*
X28657142Y-32507565D01*
X28657142Y-32507565D02*
X28714285Y-32564708D01*
X28714285Y-32564708D02*
X28771428Y-32593280D01*
X28199999Y-32478994D02*
X28171427Y-32450422D01*
X28171427Y-32450422D02*
X28114285Y-32421851D01*
X28114285Y-32421851D02*
X27971427Y-32421851D01*
X27971427Y-32421851D02*
X27914285Y-32450422D01*
X27914285Y-32450422D02*
X27885713Y-32478994D01*
X27885713Y-32478994D02*
X27857142Y-32536137D01*
X27857142Y-32536137D02*
X27857142Y-32593280D01*
X27857142Y-32593280D02*
X27885713Y-32678994D01*
X27885713Y-32678994D02*
X28228570Y-33021851D01*
X28228570Y-33021851D02*
X27857142Y-33021851D01*
X27685713Y-32421851D02*
X27485713Y-33021851D01*
X27485713Y-33021851D02*
X27285713Y-32421851D01*
X26628569Y-33021851D02*
X26628569Y-32421851D01*
X26628569Y-32421851D02*
X26285712Y-33021851D01*
X26285712Y-33021851D02*
X26285712Y-32421851D01*
X25885713Y-32421851D02*
X25771427Y-32421851D01*
X25771427Y-32421851D02*
X25714284Y-32450422D01*
X25714284Y-32450422D02*
X25657141Y-32507565D01*
X25657141Y-32507565D02*
X25628570Y-32621851D01*
X25628570Y-32621851D02*
X25628570Y-32821851D01*
X25628570Y-32821851D02*
X25657141Y-32936137D01*
X25657141Y-32936137D02*
X25714284Y-32993280D01*
X25714284Y-32993280D02*
X25771427Y-33021851D01*
X25771427Y-33021851D02*
X25885713Y-33021851D01*
X25885713Y-33021851D02*
X25942856Y-32993280D01*
X25942856Y-32993280D02*
X25999998Y-32936137D01*
X25999998Y-32936137D02*
X26028570Y-32821851D01*
X26028570Y-32821851D02*
X26028570Y-32621851D01*
X26028570Y-32621851D02*
X25999998Y-32507565D01*
X25999998Y-32507565D02*
X25942856Y-32450422D01*
X25942856Y-32450422D02*
X25885713Y-32421851D01*
X24571427Y-32964708D02*
X24599999Y-32993280D01*
X24599999Y-32993280D02*
X24685713Y-33021851D01*
X24685713Y-33021851D02*
X24742856Y-33021851D01*
X24742856Y-33021851D02*
X24828570Y-32993280D01*
X24828570Y-32993280D02*
X24885713Y-32936137D01*
X24885713Y-32936137D02*
X24914284Y-32878994D01*
X24914284Y-32878994D02*
X24942856Y-32764708D01*
X24942856Y-32764708D02*
X24942856Y-32678994D01*
X24942856Y-32678994D02*
X24914284Y-32564708D01*
X24914284Y-32564708D02*
X24885713Y-32507565D01*
X24885713Y-32507565D02*
X24828570Y-32450422D01*
X24828570Y-32450422D02*
X24742856Y-32421851D01*
X24742856Y-32421851D02*
X24685713Y-32421851D01*
X24685713Y-32421851D02*
X24599999Y-32450422D01*
X24599999Y-32450422D02*
X24571427Y-32478994D01*
X24199999Y-32421851D02*
X24085713Y-32421851D01*
X24085713Y-32421851D02*
X24028570Y-32450422D01*
X24028570Y-32450422D02*
X23971427Y-32507565D01*
X23971427Y-32507565D02*
X23942856Y-32621851D01*
X23942856Y-32621851D02*
X23942856Y-32821851D01*
X23942856Y-32821851D02*
X23971427Y-32936137D01*
X23971427Y-32936137D02*
X24028570Y-32993280D01*
X24028570Y-32993280D02*
X24085713Y-33021851D01*
X24085713Y-33021851D02*
X24199999Y-33021851D01*
X24199999Y-33021851D02*
X24257142Y-32993280D01*
X24257142Y-32993280D02*
X24314284Y-32936137D01*
X24314284Y-32936137D02*
X24342856Y-32821851D01*
X24342856Y-32821851D02*
X24342856Y-32621851D01*
X24342856Y-32621851D02*
X24314284Y-32507565D01*
X24314284Y-32507565D02*
X24257142Y-32450422D01*
X24257142Y-32450422D02*
X24199999Y-32421851D01*
X23685713Y-33021851D02*
X23685713Y-32421851D01*
X23685713Y-32421851D02*
X23342856Y-33021851D01*
X23342856Y-33021851D02*
X23342856Y-32421851D01*
X23057142Y-33021851D02*
X23057142Y-32421851D01*
X23057142Y-32421851D02*
X22714285Y-33021851D01*
X22714285Y-33021851D02*
X22714285Y-32421851D01*
X37600000Y-33771851D02*
X37600000Y-34200422D01*
X37600000Y-34200422D02*
X37628571Y-34286137D01*
X37628571Y-34286137D02*
X37685714Y-34343280D01*
X37685714Y-34343280D02*
X37771428Y-34371851D01*
X37771428Y-34371851D02*
X37828571Y-34371851D01*
X37000000Y-34371851D02*
X37342857Y-34371851D01*
X37171428Y-34371851D02*
X37171428Y-33771851D01*
X37171428Y-33771851D02*
X37228571Y-33857565D01*
X37228571Y-33857565D02*
X37285714Y-33914708D01*
X37285714Y-33914708D02*
X37342857Y-33943280D01*
X36742856Y-34314708D02*
X36714285Y-34343280D01*
X36714285Y-34343280D02*
X36742856Y-34371851D01*
X36742856Y-34371851D02*
X36771428Y-34343280D01*
X36771428Y-34343280D02*
X36742856Y-34314708D01*
X36742856Y-34314708D02*
X36742856Y-34371851D01*
X36742856Y-34000422D02*
X36714285Y-34028994D01*
X36714285Y-34028994D02*
X36742856Y-34057565D01*
X36742856Y-34057565D02*
X36771428Y-34028994D01*
X36771428Y-34028994D02*
X36742856Y-34000422D01*
X36742856Y-34000422D02*
X36742856Y-34057565D01*
X35999999Y-34371851D02*
X35999999Y-33771851D01*
X35600000Y-33771851D02*
X35485714Y-33771851D01*
X35485714Y-33771851D02*
X35428571Y-33800422D01*
X35428571Y-33800422D02*
X35371428Y-33857565D01*
X35371428Y-33857565D02*
X35342857Y-33971851D01*
X35342857Y-33971851D02*
X35342857Y-34171851D01*
X35342857Y-34171851D02*
X35371428Y-34286137D01*
X35371428Y-34286137D02*
X35428571Y-34343280D01*
X35428571Y-34343280D02*
X35485714Y-34371851D01*
X35485714Y-34371851D02*
X35600000Y-34371851D01*
X35600000Y-34371851D02*
X35657143Y-34343280D01*
X35657143Y-34343280D02*
X35714285Y-34286137D01*
X35714285Y-34286137D02*
X35742857Y-34171851D01*
X35742857Y-34171851D02*
X35742857Y-33971851D01*
X35742857Y-33971851D02*
X35714285Y-33857565D01*
X35714285Y-33857565D02*
X35657143Y-33800422D01*
X35657143Y-33800422D02*
X35600000Y-33771851D01*
X34771429Y-34371851D02*
X35114286Y-34371851D01*
X34942857Y-34371851D02*
X34942857Y-33771851D01*
X34942857Y-33771851D02*
X35000000Y-33857565D01*
X35000000Y-33857565D02*
X35057143Y-33914708D01*
X35057143Y-33914708D02*
X35114286Y-33943280D01*
X34057142Y-34371851D02*
X34057142Y-33771851D01*
X33657143Y-33771851D02*
X33542857Y-33771851D01*
X33542857Y-33771851D02*
X33485714Y-33800422D01*
X33485714Y-33800422D02*
X33428571Y-33857565D01*
X33428571Y-33857565D02*
X33400000Y-33971851D01*
X33400000Y-33971851D02*
X33400000Y-34171851D01*
X33400000Y-34171851D02*
X33428571Y-34286137D01*
X33428571Y-34286137D02*
X33485714Y-34343280D01*
X33485714Y-34343280D02*
X33542857Y-34371851D01*
X33542857Y-34371851D02*
X33657143Y-34371851D01*
X33657143Y-34371851D02*
X33714286Y-34343280D01*
X33714286Y-34343280D02*
X33771428Y-34286137D01*
X33771428Y-34286137D02*
X33800000Y-34171851D01*
X33800000Y-34171851D02*
X33800000Y-33971851D01*
X33800000Y-33971851D02*
X33771428Y-33857565D01*
X33771428Y-33857565D02*
X33714286Y-33800422D01*
X33714286Y-33800422D02*
X33657143Y-33771851D01*
X33028572Y-33771851D02*
X32971429Y-33771851D01*
X32971429Y-33771851D02*
X32914286Y-33800422D01*
X32914286Y-33800422D02*
X32885715Y-33828994D01*
X32885715Y-33828994D02*
X32857143Y-33886137D01*
X32857143Y-33886137D02*
X32828572Y-34000422D01*
X32828572Y-34000422D02*
X32828572Y-34143280D01*
X32828572Y-34143280D02*
X32857143Y-34257565D01*
X32857143Y-34257565D02*
X32885715Y-34314708D01*
X32885715Y-34314708D02*
X32914286Y-34343280D01*
X32914286Y-34343280D02*
X32971429Y-34371851D01*
X32971429Y-34371851D02*
X33028572Y-34371851D01*
X33028572Y-34371851D02*
X33085715Y-34343280D01*
X33085715Y-34343280D02*
X33114286Y-34314708D01*
X33114286Y-34314708D02*
X33142857Y-34257565D01*
X33142857Y-34257565D02*
X33171429Y-34143280D01*
X33171429Y-34143280D02*
X33171429Y-34000422D01*
X33171429Y-34000422D02*
X33142857Y-33886137D01*
X33142857Y-33886137D02*
X33114286Y-33828994D01*
X33114286Y-33828994D02*
X33085715Y-33800422D01*
X33085715Y-33800422D02*
X33028572Y-33771851D01*
X31800000Y-33800422D02*
X31857143Y-33771851D01*
X31857143Y-33771851D02*
X31942857Y-33771851D01*
X31942857Y-33771851D02*
X32028571Y-33800422D01*
X32028571Y-33800422D02*
X32085714Y-33857565D01*
X32085714Y-33857565D02*
X32114285Y-33914708D01*
X32114285Y-33914708D02*
X32142857Y-34028994D01*
X32142857Y-34028994D02*
X32142857Y-34114708D01*
X32142857Y-34114708D02*
X32114285Y-34228994D01*
X32114285Y-34228994D02*
X32085714Y-34286137D01*
X32085714Y-34286137D02*
X32028571Y-34343280D01*
X32028571Y-34343280D02*
X31942857Y-34371851D01*
X31942857Y-34371851D02*
X31885714Y-34371851D01*
X31885714Y-34371851D02*
X31800000Y-34343280D01*
X31800000Y-34343280D02*
X31771428Y-34314708D01*
X31771428Y-34314708D02*
X31771428Y-34114708D01*
X31771428Y-34114708D02*
X31885714Y-34114708D01*
X31514285Y-34371851D02*
X31514285Y-33771851D01*
X31514285Y-33771851D02*
X31171428Y-34371851D01*
X31171428Y-34371851D02*
X31171428Y-33771851D01*
X30885714Y-34371851D02*
X30885714Y-33771851D01*
X30885714Y-33771851D02*
X30742857Y-33771851D01*
X30742857Y-33771851D02*
X30657143Y-33800422D01*
X30657143Y-33800422D02*
X30600000Y-33857565D01*
X30600000Y-33857565D02*
X30571429Y-33914708D01*
X30571429Y-33914708D02*
X30542857Y-34028994D01*
X30542857Y-34028994D02*
X30542857Y-34114708D01*
X30542857Y-34114708D02*
X30571429Y-34228994D01*
X30571429Y-34228994D02*
X30600000Y-34286137D01*
X30600000Y-34286137D02*
X30657143Y-34343280D01*
X30657143Y-34343280D02*
X30742857Y-34371851D01*
X30742857Y-34371851D02*
X30885714Y-34371851D01*
X29885714Y-33771851D02*
X29514286Y-33771851D01*
X29514286Y-33771851D02*
X29714286Y-34000422D01*
X29714286Y-34000422D02*
X29628571Y-34000422D01*
X29628571Y-34000422D02*
X29571429Y-34028994D01*
X29571429Y-34028994D02*
X29542857Y-34057565D01*
X29542857Y-34057565D02*
X29514286Y-34114708D01*
X29514286Y-34114708D02*
X29514286Y-34257565D01*
X29514286Y-34257565D02*
X29542857Y-34314708D01*
X29542857Y-34314708D02*
X29571429Y-34343280D01*
X29571429Y-34343280D02*
X29628571Y-34371851D01*
X29628571Y-34371851D02*
X29800000Y-34371851D01*
X29800000Y-34371851D02*
X29857143Y-34343280D01*
X29857143Y-34343280D02*
X29885714Y-34314708D01*
X29342857Y-33771851D02*
X29142857Y-34371851D01*
X29142857Y-34371851D02*
X28942857Y-33771851D01*
X28799999Y-33771851D02*
X28428571Y-33771851D01*
X28428571Y-33771851D02*
X28628571Y-34000422D01*
X28628571Y-34000422D02*
X28542856Y-34000422D01*
X28542856Y-34000422D02*
X28485714Y-34028994D01*
X28485714Y-34028994D02*
X28457142Y-34057565D01*
X28457142Y-34057565D02*
X28428571Y-34114708D01*
X28428571Y-34114708D02*
X28428571Y-34257565D01*
X28428571Y-34257565D02*
X28457142Y-34314708D01*
X28457142Y-34314708D02*
X28485714Y-34343280D01*
X28485714Y-34343280D02*
X28542856Y-34371851D01*
X28542856Y-34371851D02*
X28714285Y-34371851D01*
X28714285Y-34371851D02*
X28771428Y-34343280D01*
X28771428Y-34343280D02*
X28799999Y-34314708D01*
X27542856Y-34600422D02*
X27571427Y-34571851D01*
X27571427Y-34571851D02*
X27628570Y-34486137D01*
X27628570Y-34486137D02*
X27657142Y-34428994D01*
X27657142Y-34428994D02*
X27685713Y-34343280D01*
X27685713Y-34343280D02*
X27714284Y-34200422D01*
X27714284Y-34200422D02*
X27714284Y-34086137D01*
X27714284Y-34086137D02*
X27685713Y-33943280D01*
X27685713Y-33943280D02*
X27657142Y-33857565D01*
X27657142Y-33857565D02*
X27628570Y-33800422D01*
X27628570Y-33800422D02*
X27571427Y-33714708D01*
X27571427Y-33714708D02*
X27542856Y-33686137D01*
X27057142Y-34371851D02*
X27057142Y-33771851D01*
X27057142Y-34343280D02*
X27114284Y-34371851D01*
X27114284Y-34371851D02*
X27228570Y-34371851D01*
X27228570Y-34371851D02*
X27285713Y-34343280D01*
X27285713Y-34343280D02*
X27314284Y-34314708D01*
X27314284Y-34314708D02*
X27342856Y-34257565D01*
X27342856Y-34257565D02*
X27342856Y-34086137D01*
X27342856Y-34086137D02*
X27314284Y-34028994D01*
X27314284Y-34028994D02*
X27285713Y-34000422D01*
X27285713Y-34000422D02*
X27228570Y-33971851D01*
X27228570Y-33971851D02*
X27114284Y-33971851D01*
X27114284Y-33971851D02*
X27057142Y-34000422D01*
X26771427Y-34371851D02*
X26771427Y-33971851D01*
X26771427Y-33771851D02*
X26799999Y-33800422D01*
X26799999Y-33800422D02*
X26771427Y-33828994D01*
X26771427Y-33828994D02*
X26742856Y-33800422D01*
X26742856Y-33800422D02*
X26771427Y-33771851D01*
X26771427Y-33771851D02*
X26771427Y-33828994D01*
X26485713Y-34371851D02*
X26485713Y-33971851D01*
X26485713Y-34086137D02*
X26457142Y-34028994D01*
X26457142Y-34028994D02*
X26428571Y-34000422D01*
X26428571Y-34000422D02*
X26371428Y-33971851D01*
X26371428Y-33971851D02*
X26314285Y-33971851D01*
X25885713Y-34343280D02*
X25942856Y-34371851D01*
X25942856Y-34371851D02*
X26057142Y-34371851D01*
X26057142Y-34371851D02*
X26114284Y-34343280D01*
X26114284Y-34343280D02*
X26142856Y-34286137D01*
X26142856Y-34286137D02*
X26142856Y-34057565D01*
X26142856Y-34057565D02*
X26114284Y-34000422D01*
X26114284Y-34000422D02*
X26057142Y-33971851D01*
X26057142Y-33971851D02*
X25942856Y-33971851D01*
X25942856Y-33971851D02*
X25885713Y-34000422D01*
X25885713Y-34000422D02*
X25857142Y-34057565D01*
X25857142Y-34057565D02*
X25857142Y-34114708D01*
X25857142Y-34114708D02*
X26142856Y-34171851D01*
X25342856Y-34343280D02*
X25399998Y-34371851D01*
X25399998Y-34371851D02*
X25514284Y-34371851D01*
X25514284Y-34371851D02*
X25571427Y-34343280D01*
X25571427Y-34343280D02*
X25599998Y-34314708D01*
X25599998Y-34314708D02*
X25628570Y-34257565D01*
X25628570Y-34257565D02*
X25628570Y-34086137D01*
X25628570Y-34086137D02*
X25599998Y-34028994D01*
X25599998Y-34028994D02*
X25571427Y-34000422D01*
X25571427Y-34000422D02*
X25514284Y-33971851D01*
X25514284Y-33971851D02*
X25399998Y-33971851D01*
X25399998Y-33971851D02*
X25342856Y-34000422D01*
X25171427Y-33971851D02*
X24942855Y-33971851D01*
X25085712Y-33771851D02*
X25085712Y-34286137D01*
X25085712Y-34286137D02*
X25057141Y-34343280D01*
X25057141Y-34343280D02*
X24999998Y-34371851D01*
X24999998Y-34371851D02*
X24942855Y-34371851D01*
X24799998Y-34600422D02*
X24771427Y-34571851D01*
X24771427Y-34571851D02*
X24714284Y-34486137D01*
X24714284Y-34486137D02*
X24685713Y-34428994D01*
X24685713Y-34428994D02*
X24657141Y-34343280D01*
X24657141Y-34343280D02*
X24628570Y-34200422D01*
X24628570Y-34200422D02*
X24628570Y-34086137D01*
X24628570Y-34086137D02*
X24657141Y-33943280D01*
X24657141Y-33943280D02*
X24685713Y-33857565D01*
X24685713Y-33857565D02*
X24714284Y-33800422D01*
X24714284Y-33800422D02*
X24771427Y-33714708D01*
X24771427Y-33714708D02*
X24799998Y-33686137D01*
X37885714Y-35121851D02*
X37885714Y-35550422D01*
X37885714Y-35550422D02*
X37914285Y-35636137D01*
X37914285Y-35636137D02*
X37971428Y-35693280D01*
X37971428Y-35693280D02*
X38057142Y-35721851D01*
X38057142Y-35721851D02*
X38114285Y-35721851D01*
X37628571Y-35178994D02*
X37599999Y-35150422D01*
X37599999Y-35150422D02*
X37542857Y-35121851D01*
X37542857Y-35121851D02*
X37399999Y-35121851D01*
X37399999Y-35121851D02*
X37342857Y-35150422D01*
X37342857Y-35150422D02*
X37314285Y-35178994D01*
X37314285Y-35178994D02*
X37285714Y-35236137D01*
X37285714Y-35236137D02*
X37285714Y-35293280D01*
X37285714Y-35293280D02*
X37314285Y-35378994D01*
X37314285Y-35378994D02*
X37657142Y-35721851D01*
X37657142Y-35721851D02*
X37285714Y-35721851D01*
X37028570Y-35664708D02*
X36999999Y-35693280D01*
X36999999Y-35693280D02*
X37028570Y-35721851D01*
X37028570Y-35721851D02*
X37057142Y-35693280D01*
X37057142Y-35693280D02*
X37028570Y-35664708D01*
X37028570Y-35664708D02*
X37028570Y-35721851D01*
X37028570Y-35350422D02*
X36999999Y-35378994D01*
X36999999Y-35378994D02*
X37028570Y-35407565D01*
X37028570Y-35407565D02*
X37057142Y-35378994D01*
X37057142Y-35378994D02*
X37028570Y-35350422D01*
X37028570Y-35350422D02*
X37028570Y-35407565D01*
X36285713Y-35721851D02*
X36285713Y-35121851D01*
X35885714Y-35121851D02*
X35771428Y-35121851D01*
X35771428Y-35121851D02*
X35714285Y-35150422D01*
X35714285Y-35150422D02*
X35657142Y-35207565D01*
X35657142Y-35207565D02*
X35628571Y-35321851D01*
X35628571Y-35321851D02*
X35628571Y-35521851D01*
X35628571Y-35521851D02*
X35657142Y-35636137D01*
X35657142Y-35636137D02*
X35714285Y-35693280D01*
X35714285Y-35693280D02*
X35771428Y-35721851D01*
X35771428Y-35721851D02*
X35885714Y-35721851D01*
X35885714Y-35721851D02*
X35942857Y-35693280D01*
X35942857Y-35693280D02*
X35999999Y-35636137D01*
X35999999Y-35636137D02*
X36028571Y-35521851D01*
X36028571Y-35521851D02*
X36028571Y-35321851D01*
X36028571Y-35321851D02*
X35999999Y-35207565D01*
X35999999Y-35207565D02*
X35942857Y-35150422D01*
X35942857Y-35150422D02*
X35885714Y-35121851D01*
X35057143Y-35721851D02*
X35400000Y-35721851D01*
X35228571Y-35721851D02*
X35228571Y-35121851D01*
X35228571Y-35121851D02*
X35285714Y-35207565D01*
X35285714Y-35207565D02*
X35342857Y-35264708D01*
X35342857Y-35264708D02*
X35400000Y-35293280D01*
X34685714Y-35121851D02*
X34628571Y-35121851D01*
X34628571Y-35121851D02*
X34571428Y-35150422D01*
X34571428Y-35150422D02*
X34542857Y-35178994D01*
X34542857Y-35178994D02*
X34514285Y-35236137D01*
X34514285Y-35236137D02*
X34485714Y-35350422D01*
X34485714Y-35350422D02*
X34485714Y-35493280D01*
X34485714Y-35493280D02*
X34514285Y-35607565D01*
X34514285Y-35607565D02*
X34542857Y-35664708D01*
X34542857Y-35664708D02*
X34571428Y-35693280D01*
X34571428Y-35693280D02*
X34628571Y-35721851D01*
X34628571Y-35721851D02*
X34685714Y-35721851D01*
X34685714Y-35721851D02*
X34742857Y-35693280D01*
X34742857Y-35693280D02*
X34771428Y-35664708D01*
X34771428Y-35664708D02*
X34799999Y-35607565D01*
X34799999Y-35607565D02*
X34828571Y-35493280D01*
X34828571Y-35493280D02*
X34828571Y-35350422D01*
X34828571Y-35350422D02*
X34799999Y-35236137D01*
X34799999Y-35236137D02*
X34771428Y-35178994D01*
X34771428Y-35178994D02*
X34742857Y-35150422D01*
X34742857Y-35150422D02*
X34685714Y-35121851D01*
X33771427Y-35721851D02*
X33771427Y-35121851D01*
X33371428Y-35121851D02*
X33257142Y-35121851D01*
X33257142Y-35121851D02*
X33199999Y-35150422D01*
X33199999Y-35150422D02*
X33142856Y-35207565D01*
X33142856Y-35207565D02*
X33114285Y-35321851D01*
X33114285Y-35321851D02*
X33114285Y-35521851D01*
X33114285Y-35521851D02*
X33142856Y-35636137D01*
X33142856Y-35636137D02*
X33199999Y-35693280D01*
X33199999Y-35693280D02*
X33257142Y-35721851D01*
X33257142Y-35721851D02*
X33371428Y-35721851D01*
X33371428Y-35721851D02*
X33428571Y-35693280D01*
X33428571Y-35693280D02*
X33485713Y-35636137D01*
X33485713Y-35636137D02*
X33514285Y-35521851D01*
X33514285Y-35521851D02*
X33514285Y-35321851D01*
X33514285Y-35321851D02*
X33485713Y-35207565D01*
X33485713Y-35207565D02*
X33428571Y-35150422D01*
X33428571Y-35150422D02*
X33371428Y-35121851D01*
X32914285Y-35121851D02*
X32514285Y-35121851D01*
X32514285Y-35121851D02*
X32771428Y-35721851D01*
X31514285Y-35150422D02*
X31571428Y-35121851D01*
X31571428Y-35121851D02*
X31657142Y-35121851D01*
X31657142Y-35121851D02*
X31742856Y-35150422D01*
X31742856Y-35150422D02*
X31799999Y-35207565D01*
X31799999Y-35207565D02*
X31828570Y-35264708D01*
X31828570Y-35264708D02*
X31857142Y-35378994D01*
X31857142Y-35378994D02*
X31857142Y-35464708D01*
X31857142Y-35464708D02*
X31828570Y-35578994D01*
X31828570Y-35578994D02*
X31799999Y-35636137D01*
X31799999Y-35636137D02*
X31742856Y-35693280D01*
X31742856Y-35693280D02*
X31657142Y-35721851D01*
X31657142Y-35721851D02*
X31599999Y-35721851D01*
X31599999Y-35721851D02*
X31514285Y-35693280D01*
X31514285Y-35693280D02*
X31485713Y-35664708D01*
X31485713Y-35664708D02*
X31485713Y-35464708D01*
X31485713Y-35464708D02*
X31599999Y-35464708D01*
X31228570Y-35721851D02*
X31228570Y-35121851D01*
X31228570Y-35121851D02*
X30885713Y-35721851D01*
X30885713Y-35721851D02*
X30885713Y-35121851D01*
X30599999Y-35721851D02*
X30599999Y-35121851D01*
X30599999Y-35121851D02*
X30457142Y-35121851D01*
X30457142Y-35121851D02*
X30371428Y-35150422D01*
X30371428Y-35150422D02*
X30314285Y-35207565D01*
X30314285Y-35207565D02*
X30285714Y-35264708D01*
X30285714Y-35264708D02*
X30257142Y-35378994D01*
X30257142Y-35378994D02*
X30257142Y-35464708D01*
X30257142Y-35464708D02*
X30285714Y-35578994D01*
X30285714Y-35578994D02*
X30314285Y-35636137D01*
X30314285Y-35636137D02*
X30371428Y-35693280D01*
X30371428Y-35693280D02*
X30457142Y-35721851D01*
X30457142Y-35721851D02*
X30599999Y-35721851D01*
X29257142Y-35121851D02*
X29542856Y-35121851D01*
X29542856Y-35121851D02*
X29571428Y-35407565D01*
X29571428Y-35407565D02*
X29542856Y-35378994D01*
X29542856Y-35378994D02*
X29485714Y-35350422D01*
X29485714Y-35350422D02*
X29342856Y-35350422D01*
X29342856Y-35350422D02*
X29285714Y-35378994D01*
X29285714Y-35378994D02*
X29257142Y-35407565D01*
X29257142Y-35407565D02*
X29228571Y-35464708D01*
X29228571Y-35464708D02*
X29228571Y-35607565D01*
X29228571Y-35607565D02*
X29257142Y-35664708D01*
X29257142Y-35664708D02*
X29285714Y-35693280D01*
X29285714Y-35693280D02*
X29342856Y-35721851D01*
X29342856Y-35721851D02*
X29485714Y-35721851D01*
X29485714Y-35721851D02*
X29542856Y-35693280D01*
X29542856Y-35693280D02*
X29571428Y-35664708D01*
X29057142Y-35121851D02*
X28857142Y-35721851D01*
X28857142Y-35721851D02*
X28657142Y-35121851D01*
X27828570Y-35950422D02*
X27857141Y-35921851D01*
X27857141Y-35921851D02*
X27914284Y-35836137D01*
X27914284Y-35836137D02*
X27942856Y-35778994D01*
X27942856Y-35778994D02*
X27971427Y-35693280D01*
X27971427Y-35693280D02*
X27999998Y-35550422D01*
X27999998Y-35550422D02*
X27999998Y-35436137D01*
X27999998Y-35436137D02*
X27971427Y-35293280D01*
X27971427Y-35293280D02*
X27942856Y-35207565D01*
X27942856Y-35207565D02*
X27914284Y-35150422D01*
X27914284Y-35150422D02*
X27857141Y-35064708D01*
X27857141Y-35064708D02*
X27828570Y-35036137D01*
X27599998Y-35721851D02*
X27599998Y-35321851D01*
X27599998Y-35121851D02*
X27628570Y-35150422D01*
X27628570Y-35150422D02*
X27599998Y-35178994D01*
X27599998Y-35178994D02*
X27571427Y-35150422D01*
X27571427Y-35150422D02*
X27599998Y-35121851D01*
X27599998Y-35121851D02*
X27599998Y-35178994D01*
X27314284Y-35321851D02*
X27314284Y-35721851D01*
X27314284Y-35378994D02*
X27285713Y-35350422D01*
X27285713Y-35350422D02*
X27228570Y-35321851D01*
X27228570Y-35321851D02*
X27142856Y-35321851D01*
X27142856Y-35321851D02*
X27085713Y-35350422D01*
X27085713Y-35350422D02*
X27057142Y-35407565D01*
X27057142Y-35407565D02*
X27057142Y-35721851D01*
X26228570Y-35721851D02*
X26285713Y-35693280D01*
X26285713Y-35693280D02*
X26314284Y-35664708D01*
X26314284Y-35664708D02*
X26342856Y-35607565D01*
X26342856Y-35607565D02*
X26342856Y-35436137D01*
X26342856Y-35436137D02*
X26314284Y-35378994D01*
X26314284Y-35378994D02*
X26285713Y-35350422D01*
X26285713Y-35350422D02*
X26228570Y-35321851D01*
X26228570Y-35321851D02*
X26142856Y-35321851D01*
X26142856Y-35321851D02*
X26085713Y-35350422D01*
X26085713Y-35350422D02*
X26057142Y-35378994D01*
X26057142Y-35378994D02*
X26028570Y-35436137D01*
X26028570Y-35436137D02*
X26028570Y-35607565D01*
X26028570Y-35607565D02*
X26057142Y-35664708D01*
X26057142Y-35664708D02*
X26085713Y-35693280D01*
X26085713Y-35693280D02*
X26142856Y-35721851D01*
X26142856Y-35721851D02*
X26228570Y-35721851D01*
X25771427Y-35321851D02*
X25771427Y-35721851D01*
X25771427Y-35378994D02*
X25742856Y-35350422D01*
X25742856Y-35350422D02*
X25685713Y-35321851D01*
X25685713Y-35321851D02*
X25599999Y-35321851D01*
X25599999Y-35321851D02*
X25542856Y-35350422D01*
X25542856Y-35350422D02*
X25514285Y-35407565D01*
X25514285Y-35407565D02*
X25514285Y-35721851D01*
X25142856Y-35721851D02*
X25199999Y-35693280D01*
X25199999Y-35693280D02*
X25228570Y-35636137D01*
X25228570Y-35636137D02*
X25228570Y-35121851D01*
X24971427Y-35321851D02*
X24828570Y-35721851D01*
X24685713Y-35321851D02*
X24828570Y-35721851D01*
X24828570Y-35721851D02*
X24885713Y-35864708D01*
X24885713Y-35864708D02*
X24914284Y-35893280D01*
X24914284Y-35893280D02*
X24971427Y-35921851D01*
X24514284Y-35950422D02*
X24485713Y-35921851D01*
X24485713Y-35921851D02*
X24428570Y-35836137D01*
X24428570Y-35836137D02*
X24399999Y-35778994D01*
X24399999Y-35778994D02*
X24371427Y-35693280D01*
X24371427Y-35693280D02*
X24342856Y-35550422D01*
X24342856Y-35550422D02*
X24342856Y-35436137D01*
X24342856Y-35436137D02*
X24371427Y-35293280D01*
X24371427Y-35293280D02*
X24399999Y-35207565D01*
X24399999Y-35207565D02*
X24428570Y-35150422D01*
X24428570Y-35150422D02*
X24485713Y-35064708D01*
X24485713Y-35064708D02*
X24514284Y-35036137D01*
X38385715Y-36471851D02*
X38385715Y-36957565D01*
X38385715Y-36957565D02*
X38357144Y-37014708D01*
X38357144Y-37014708D02*
X38328573Y-37043280D01*
X38328573Y-37043280D02*
X38271430Y-37071851D01*
X38271430Y-37071851D02*
X38157144Y-37071851D01*
X38157144Y-37071851D02*
X38100001Y-37043280D01*
X38100001Y-37043280D02*
X38071430Y-37014708D01*
X38071430Y-37014708D02*
X38042858Y-36957565D01*
X38042858Y-36957565D02*
X38042858Y-36471851D01*
X37785716Y-36900422D02*
X37500002Y-36900422D01*
X37842859Y-37071851D02*
X37642859Y-36471851D01*
X37642859Y-36471851D02*
X37442859Y-37071851D01*
X36900001Y-37071851D02*
X37100001Y-36786137D01*
X37242858Y-37071851D02*
X37242858Y-36471851D01*
X37242858Y-36471851D02*
X37014287Y-36471851D01*
X37014287Y-36471851D02*
X36957144Y-36500422D01*
X36957144Y-36500422D02*
X36928573Y-36528994D01*
X36928573Y-36528994D02*
X36900001Y-36586137D01*
X36900001Y-36586137D02*
X36900001Y-36671851D01*
X36900001Y-36671851D02*
X36928573Y-36728994D01*
X36928573Y-36728994D02*
X36957144Y-36757565D01*
X36957144Y-36757565D02*
X37014287Y-36786137D01*
X37014287Y-36786137D02*
X37242858Y-36786137D01*
X36728573Y-36471851D02*
X36385716Y-36471851D01*
X36557144Y-37071851D02*
X36557144Y-36471851D01*
X35700001Y-37071851D02*
X35585715Y-37071851D01*
X35585715Y-37071851D02*
X35528572Y-37043280D01*
X35528572Y-37043280D02*
X35500001Y-37014708D01*
X35500001Y-37014708D02*
X35442858Y-36928994D01*
X35442858Y-36928994D02*
X35414287Y-36814708D01*
X35414287Y-36814708D02*
X35414287Y-36586137D01*
X35414287Y-36586137D02*
X35442858Y-36528994D01*
X35442858Y-36528994D02*
X35471430Y-36500422D01*
X35471430Y-36500422D02*
X35528572Y-36471851D01*
X35528572Y-36471851D02*
X35642858Y-36471851D01*
X35642858Y-36471851D02*
X35700001Y-36500422D01*
X35700001Y-36500422D02*
X35728572Y-36528994D01*
X35728572Y-36528994D02*
X35757144Y-36586137D01*
X35757144Y-36586137D02*
X35757144Y-36728994D01*
X35757144Y-36728994D02*
X35728572Y-36786137D01*
X35728572Y-36786137D02*
X35700001Y-36814708D01*
X35700001Y-36814708D02*
X35642858Y-36843280D01*
X35642858Y-36843280D02*
X35528572Y-36843280D01*
X35528572Y-36843280D02*
X35471430Y-36814708D01*
X35471430Y-36814708D02*
X35442858Y-36786137D01*
X35442858Y-36786137D02*
X35414287Y-36728994D01*
X34900001Y-36471851D02*
X35014286Y-36471851D01*
X35014286Y-36471851D02*
X35071429Y-36500422D01*
X35071429Y-36500422D02*
X35100001Y-36528994D01*
X35100001Y-36528994D02*
X35157143Y-36614708D01*
X35157143Y-36614708D02*
X35185715Y-36728994D01*
X35185715Y-36728994D02*
X35185715Y-36957565D01*
X35185715Y-36957565D02*
X35157143Y-37014708D01*
X35157143Y-37014708D02*
X35128572Y-37043280D01*
X35128572Y-37043280D02*
X35071429Y-37071851D01*
X35071429Y-37071851D02*
X34957143Y-37071851D01*
X34957143Y-37071851D02*
X34900001Y-37043280D01*
X34900001Y-37043280D02*
X34871429Y-37014708D01*
X34871429Y-37014708D02*
X34842858Y-36957565D01*
X34842858Y-36957565D02*
X34842858Y-36814708D01*
X34842858Y-36814708D02*
X34871429Y-36757565D01*
X34871429Y-36757565D02*
X34900001Y-36728994D01*
X34900001Y-36728994D02*
X34957143Y-36700422D01*
X34957143Y-36700422D02*
X35071429Y-36700422D01*
X35071429Y-36700422D02*
X35128572Y-36728994D01*
X35128572Y-36728994D02*
X35157143Y-36757565D01*
X35157143Y-36757565D02*
X35185715Y-36814708D01*
X34471429Y-36471851D02*
X34414286Y-36471851D01*
X34414286Y-36471851D02*
X34357143Y-36500422D01*
X34357143Y-36500422D02*
X34328572Y-36528994D01*
X34328572Y-36528994D02*
X34300000Y-36586137D01*
X34300000Y-36586137D02*
X34271429Y-36700422D01*
X34271429Y-36700422D02*
X34271429Y-36843280D01*
X34271429Y-36843280D02*
X34300000Y-36957565D01*
X34300000Y-36957565D02*
X34328572Y-37014708D01*
X34328572Y-37014708D02*
X34357143Y-37043280D01*
X34357143Y-37043280D02*
X34414286Y-37071851D01*
X34414286Y-37071851D02*
X34471429Y-37071851D01*
X34471429Y-37071851D02*
X34528572Y-37043280D01*
X34528572Y-37043280D02*
X34557143Y-37014708D01*
X34557143Y-37014708D02*
X34585714Y-36957565D01*
X34585714Y-36957565D02*
X34614286Y-36843280D01*
X34614286Y-36843280D02*
X34614286Y-36700422D01*
X34614286Y-36700422D02*
X34585714Y-36586137D01*
X34585714Y-36586137D02*
X34557143Y-36528994D01*
X34557143Y-36528994D02*
X34528572Y-36500422D01*
X34528572Y-36500422D02*
X34471429Y-36471851D01*
X33900000Y-36471851D02*
X33842857Y-36471851D01*
X33842857Y-36471851D02*
X33785714Y-36500422D01*
X33785714Y-36500422D02*
X33757143Y-36528994D01*
X33757143Y-36528994D02*
X33728571Y-36586137D01*
X33728571Y-36586137D02*
X33700000Y-36700422D01*
X33700000Y-36700422D02*
X33700000Y-36843280D01*
X33700000Y-36843280D02*
X33728571Y-36957565D01*
X33728571Y-36957565D02*
X33757143Y-37014708D01*
X33757143Y-37014708D02*
X33785714Y-37043280D01*
X33785714Y-37043280D02*
X33842857Y-37071851D01*
X33842857Y-37071851D02*
X33900000Y-37071851D01*
X33900000Y-37071851D02*
X33957143Y-37043280D01*
X33957143Y-37043280D02*
X33985714Y-37014708D01*
X33985714Y-37014708D02*
X34014285Y-36957565D01*
X34014285Y-36957565D02*
X34042857Y-36843280D01*
X34042857Y-36843280D02*
X34042857Y-36700422D01*
X34042857Y-36700422D02*
X34014285Y-36586137D01*
X34014285Y-36586137D02*
X33985714Y-36528994D01*
X33985714Y-36528994D02*
X33957143Y-36500422D01*
X33957143Y-36500422D02*
X33900000Y-36471851D01*
X32899999Y-36728994D02*
X32957142Y-36700422D01*
X32957142Y-36700422D02*
X32985713Y-36671851D01*
X32985713Y-36671851D02*
X33014285Y-36614708D01*
X33014285Y-36614708D02*
X33014285Y-36586137D01*
X33014285Y-36586137D02*
X32985713Y-36528994D01*
X32985713Y-36528994D02*
X32957142Y-36500422D01*
X32957142Y-36500422D02*
X32899999Y-36471851D01*
X32899999Y-36471851D02*
X32785713Y-36471851D01*
X32785713Y-36471851D02*
X32728571Y-36500422D01*
X32728571Y-36500422D02*
X32699999Y-36528994D01*
X32699999Y-36528994D02*
X32671428Y-36586137D01*
X32671428Y-36586137D02*
X32671428Y-36614708D01*
X32671428Y-36614708D02*
X32699999Y-36671851D01*
X32699999Y-36671851D02*
X32728571Y-36700422D01*
X32728571Y-36700422D02*
X32785713Y-36728994D01*
X32785713Y-36728994D02*
X32899999Y-36728994D01*
X32899999Y-36728994D02*
X32957142Y-36757565D01*
X32957142Y-36757565D02*
X32985713Y-36786137D01*
X32985713Y-36786137D02*
X33014285Y-36843280D01*
X33014285Y-36843280D02*
X33014285Y-36957565D01*
X33014285Y-36957565D02*
X32985713Y-37014708D01*
X32985713Y-37014708D02*
X32957142Y-37043280D01*
X32957142Y-37043280D02*
X32899999Y-37071851D01*
X32899999Y-37071851D02*
X32785713Y-37071851D01*
X32785713Y-37071851D02*
X32728571Y-37043280D01*
X32728571Y-37043280D02*
X32699999Y-37014708D01*
X32699999Y-37014708D02*
X32671428Y-36957565D01*
X32671428Y-36957565D02*
X32671428Y-36843280D01*
X32671428Y-36843280D02*
X32699999Y-36786137D01*
X32699999Y-36786137D02*
X32728571Y-36757565D01*
X32728571Y-36757565D02*
X32785713Y-36728994D01*
X32414284Y-36757565D02*
X32214284Y-36757565D01*
X32128570Y-37071851D02*
X32414284Y-37071851D01*
X32414284Y-37071851D02*
X32414284Y-36471851D01*
X32414284Y-36471851D02*
X32128570Y-36471851D01*
X31557142Y-37071851D02*
X31899999Y-37071851D01*
X31728570Y-37071851D02*
X31728570Y-36471851D01*
X31728570Y-36471851D02*
X31785713Y-36557565D01*
X31785713Y-36557565D02*
X31842856Y-36614708D01*
X31842856Y-36614708D02*
X31899999Y-36643280D01*
X30928570Y-36471851D02*
X30585713Y-36471851D01*
X30757141Y-37071851D02*
X30757141Y-36471851D01*
X30442855Y-36471851D02*
X30042855Y-37071851D01*
X30042855Y-36471851D02*
X30442855Y-37071851D01*
X29814283Y-36757565D02*
X29357141Y-36757565D01*
X29357141Y-36928994D02*
X29814283Y-36928994D01*
X29071426Y-37071851D02*
X29071426Y-36471851D01*
X28671427Y-36471851D02*
X28557141Y-36471851D01*
X28557141Y-36471851D02*
X28499998Y-36500422D01*
X28499998Y-36500422D02*
X28442855Y-36557565D01*
X28442855Y-36557565D02*
X28414284Y-36671851D01*
X28414284Y-36671851D02*
X28414284Y-36871851D01*
X28414284Y-36871851D02*
X28442855Y-36986137D01*
X28442855Y-36986137D02*
X28499998Y-37043280D01*
X28499998Y-37043280D02*
X28557141Y-37071851D01*
X28557141Y-37071851D02*
X28671427Y-37071851D01*
X28671427Y-37071851D02*
X28728570Y-37043280D01*
X28728570Y-37043280D02*
X28785712Y-36986137D01*
X28785712Y-36986137D02*
X28814284Y-36871851D01*
X28814284Y-36871851D02*
X28814284Y-36671851D01*
X28814284Y-36671851D02*
X28785712Y-36557565D01*
X28785712Y-36557565D02*
X28728570Y-36500422D01*
X28728570Y-36500422D02*
X28671427Y-36471851D01*
X28214284Y-36471851D02*
X27842856Y-36471851D01*
X27842856Y-36471851D02*
X28042856Y-36700422D01*
X28042856Y-36700422D02*
X27957141Y-36700422D01*
X27957141Y-36700422D02*
X27899999Y-36728994D01*
X27899999Y-36728994D02*
X27871427Y-36757565D01*
X27871427Y-36757565D02*
X27842856Y-36814708D01*
X27842856Y-36814708D02*
X27842856Y-36957565D01*
X27842856Y-36957565D02*
X27871427Y-37014708D01*
X27871427Y-37014708D02*
X27899999Y-37043280D01*
X27899999Y-37043280D02*
X27957141Y-37071851D01*
X27957141Y-37071851D02*
X28128570Y-37071851D01*
X28128570Y-37071851D02*
X28185713Y-37043280D01*
X28185713Y-37043280D02*
X28214284Y-37014708D01*
X26785712Y-37071851D02*
X26985712Y-36786137D01*
X27128569Y-37071851D02*
X27128569Y-36471851D01*
X27128569Y-36471851D02*
X26899998Y-36471851D01*
X26899998Y-36471851D02*
X26842855Y-36500422D01*
X26842855Y-36500422D02*
X26814284Y-36528994D01*
X26814284Y-36528994D02*
X26785712Y-36586137D01*
X26785712Y-36586137D02*
X26785712Y-36671851D01*
X26785712Y-36671851D02*
X26814284Y-36728994D01*
X26814284Y-36728994D02*
X26842855Y-36757565D01*
X26842855Y-36757565D02*
X26899998Y-36786137D01*
X26899998Y-36786137D02*
X27128569Y-36786137D01*
X26585712Y-36471851D02*
X26185712Y-37071851D01*
X26185712Y-36471851D02*
X26585712Y-37071851D01*
X25957140Y-36757565D02*
X25499998Y-36757565D01*
X25499998Y-36928994D02*
X25957140Y-36928994D01*
X25214283Y-37071851D02*
X25214283Y-36471851D01*
X24814284Y-36471851D02*
X24699998Y-36471851D01*
X24699998Y-36471851D02*
X24642855Y-36500422D01*
X24642855Y-36500422D02*
X24585712Y-36557565D01*
X24585712Y-36557565D02*
X24557141Y-36671851D01*
X24557141Y-36671851D02*
X24557141Y-36871851D01*
X24557141Y-36871851D02*
X24585712Y-36986137D01*
X24585712Y-36986137D02*
X24642855Y-37043280D01*
X24642855Y-37043280D02*
X24699998Y-37071851D01*
X24699998Y-37071851D02*
X24814284Y-37071851D01*
X24814284Y-37071851D02*
X24871427Y-37043280D01*
X24871427Y-37043280D02*
X24928569Y-36986137D01*
X24928569Y-36986137D02*
X24957141Y-36871851D01*
X24957141Y-36871851D02*
X24957141Y-36671851D01*
X24957141Y-36671851D02*
X24928569Y-36557565D01*
X24928569Y-36557565D02*
X24871427Y-36500422D01*
X24871427Y-36500422D02*
X24814284Y-36471851D01*
X24042856Y-36671851D02*
X24042856Y-37071851D01*
X24185713Y-36443280D02*
X24328570Y-36871851D01*
X24328570Y-36871851D02*
X23957141Y-36871851D01*
X39185713Y-26294982D02*
X39185713Y-25644982D01*
X39185713Y-25644982D02*
X38938094Y-25644982D01*
X38938094Y-25644982D02*
X38876189Y-25675934D01*
X38876189Y-25675934D02*
X38845236Y-25706887D01*
X38845236Y-25706887D02*
X38814284Y-25768791D01*
X38814284Y-25768791D02*
X38814284Y-25861649D01*
X38814284Y-25861649D02*
X38845236Y-25923553D01*
X38845236Y-25923553D02*
X38876189Y-25954506D01*
X38876189Y-25954506D02*
X38938094Y-25985458D01*
X38938094Y-25985458D02*
X39185713Y-25985458D01*
X38566665Y-26109268D02*
X38257141Y-26109268D01*
X38628570Y-26294982D02*
X38411903Y-25644982D01*
X38411903Y-25644982D02*
X38195236Y-26294982D01*
X37978570Y-26294982D02*
X37978570Y-25644982D01*
X37978570Y-25644982D02*
X37607141Y-26294982D01*
X37607141Y-26294982D02*
X37607141Y-25644982D01*
X37328570Y-26109268D02*
X37019046Y-26109268D01*
X37390475Y-26294982D02*
X37173808Y-25644982D01*
X37173808Y-25644982D02*
X36957141Y-26294982D01*
X36771427Y-26264030D02*
X36678570Y-26294982D01*
X36678570Y-26294982D02*
X36523808Y-26294982D01*
X36523808Y-26294982D02*
X36461903Y-26264030D01*
X36461903Y-26264030D02*
X36430951Y-26233077D01*
X36430951Y-26233077D02*
X36399998Y-26171172D01*
X36399998Y-26171172D02*
X36399998Y-26109268D01*
X36399998Y-26109268D02*
X36430951Y-26047363D01*
X36430951Y-26047363D02*
X36461903Y-26016410D01*
X36461903Y-26016410D02*
X36523808Y-25985458D01*
X36523808Y-25985458D02*
X36647617Y-25954506D01*
X36647617Y-25954506D02*
X36709522Y-25923553D01*
X36709522Y-25923553D02*
X36740475Y-25892601D01*
X36740475Y-25892601D02*
X36771427Y-25830696D01*
X36771427Y-25830696D02*
X36771427Y-25768791D01*
X36771427Y-25768791D02*
X36740475Y-25706887D01*
X36740475Y-25706887D02*
X36709522Y-25675934D01*
X36709522Y-25675934D02*
X36647617Y-25644982D01*
X36647617Y-25644982D02*
X36492856Y-25644982D01*
X36492856Y-25644982D02*
X36399998Y-25675934D01*
X35997617Y-25644982D02*
X35873808Y-25644982D01*
X35873808Y-25644982D02*
X35811903Y-25675934D01*
X35811903Y-25675934D02*
X35749998Y-25737839D01*
X35749998Y-25737839D02*
X35719046Y-25861649D01*
X35719046Y-25861649D02*
X35719046Y-26078315D01*
X35719046Y-26078315D02*
X35749998Y-26202125D01*
X35749998Y-26202125D02*
X35811903Y-26264030D01*
X35811903Y-26264030D02*
X35873808Y-26294982D01*
X35873808Y-26294982D02*
X35997617Y-26294982D01*
X35997617Y-26294982D02*
X36059522Y-26264030D01*
X36059522Y-26264030D02*
X36121427Y-26202125D01*
X36121427Y-26202125D02*
X36152379Y-26078315D01*
X36152379Y-26078315D02*
X36152379Y-25861649D01*
X36152379Y-25861649D02*
X36121427Y-25737839D01*
X36121427Y-25737839D02*
X36059522Y-25675934D01*
X36059522Y-25675934D02*
X35997617Y-25644982D01*
X35440475Y-26294982D02*
X35440475Y-25644982D01*
X35440475Y-25644982D02*
X35069046Y-26294982D01*
X35069046Y-26294982D02*
X35069046Y-25644982D01*
X34759523Y-26294982D02*
X34759523Y-25644982D01*
X34078570Y-26233077D02*
X34109522Y-26264030D01*
X34109522Y-26264030D02*
X34202380Y-26294982D01*
X34202380Y-26294982D02*
X34264284Y-26294982D01*
X34264284Y-26294982D02*
X34357141Y-26264030D01*
X34357141Y-26264030D02*
X34419046Y-26202125D01*
X34419046Y-26202125D02*
X34449999Y-26140220D01*
X34449999Y-26140220D02*
X34480951Y-26016410D01*
X34480951Y-26016410D02*
X34480951Y-25923553D01*
X34480951Y-25923553D02*
X34449999Y-25799744D01*
X34449999Y-25799744D02*
X34419046Y-25737839D01*
X34419046Y-25737839D02*
X34357141Y-25675934D01*
X34357141Y-25675934D02*
X34264284Y-25644982D01*
X34264284Y-25644982D02*
X34202380Y-25644982D01*
X34202380Y-25644982D02*
X34109522Y-25675934D01*
X34109522Y-25675934D02*
X34078570Y-25706887D01*
X33335713Y-26109268D02*
X33026189Y-26109268D01*
X33397618Y-26294982D02*
X33180951Y-25644982D01*
X33180951Y-25644982D02*
X32964284Y-26294982D01*
X32376189Y-26233077D02*
X32407141Y-26264030D01*
X32407141Y-26264030D02*
X32499999Y-26294982D01*
X32499999Y-26294982D02*
X32561903Y-26294982D01*
X32561903Y-26294982D02*
X32654760Y-26264030D01*
X32654760Y-26264030D02*
X32716665Y-26202125D01*
X32716665Y-26202125D02*
X32747618Y-26140220D01*
X32747618Y-26140220D02*
X32778570Y-26016410D01*
X32778570Y-26016410D02*
X32778570Y-25923553D01*
X32778570Y-25923553D02*
X32747618Y-25799744D01*
X32747618Y-25799744D02*
X32716665Y-25737839D01*
X32716665Y-25737839D02*
X32654760Y-25675934D01*
X32654760Y-25675934D02*
X32561903Y-25644982D01*
X32561903Y-25644982D02*
X32499999Y-25644982D01*
X32499999Y-25644982D02*
X32407141Y-25675934D01*
X32407141Y-25675934D02*
X32376189Y-25706887D01*
X31602380Y-26294982D02*
X31602380Y-25644982D01*
X31292856Y-26294982D02*
X31292856Y-25644982D01*
X31292856Y-25644982D02*
X30921427Y-26294982D01*
X30921427Y-26294982D02*
X30921427Y-25644982D01*
X30704761Y-25644982D02*
X30333332Y-25644982D01*
X30519046Y-26294982D02*
X30519046Y-25644982D01*
X30116666Y-25954506D02*
X29899999Y-25954506D01*
X29807142Y-26294982D02*
X30116666Y-26294982D01*
X30116666Y-26294982D02*
X30116666Y-25644982D01*
X30116666Y-25644982D02*
X29807142Y-25644982D01*
X29157142Y-26294982D02*
X29373809Y-25985458D01*
X29528571Y-26294982D02*
X29528571Y-25644982D01*
X29528571Y-25644982D02*
X29280952Y-25644982D01*
X29280952Y-25644982D02*
X29219047Y-25675934D01*
X29219047Y-25675934D02*
X29188094Y-25706887D01*
X29188094Y-25706887D02*
X29157142Y-25768791D01*
X29157142Y-25768791D02*
X29157142Y-25861649D01*
X29157142Y-25861649D02*
X29188094Y-25923553D01*
X29188094Y-25923553D02*
X29219047Y-25954506D01*
X29219047Y-25954506D02*
X29280952Y-25985458D01*
X29280952Y-25985458D02*
X29528571Y-25985458D01*
X28661904Y-25954506D02*
X28878571Y-25954506D01*
X28878571Y-26294982D02*
X28878571Y-25644982D01*
X28878571Y-25644982D02*
X28569047Y-25644982D01*
X28352380Y-26109268D02*
X28042856Y-26109268D01*
X28414285Y-26294982D02*
X28197618Y-25644982D01*
X28197618Y-25644982D02*
X27980951Y-26294982D01*
X27392856Y-26233077D02*
X27423808Y-26264030D01*
X27423808Y-26264030D02*
X27516666Y-26294982D01*
X27516666Y-26294982D02*
X27578570Y-26294982D01*
X27578570Y-26294982D02*
X27671427Y-26264030D01*
X27671427Y-26264030D02*
X27733332Y-26202125D01*
X27733332Y-26202125D02*
X27764285Y-26140220D01*
X27764285Y-26140220D02*
X27795237Y-26016410D01*
X27795237Y-26016410D02*
X27795237Y-25923553D01*
X27795237Y-25923553D02*
X27764285Y-25799744D01*
X27764285Y-25799744D02*
X27733332Y-25737839D01*
X27733332Y-25737839D02*
X27671427Y-25675934D01*
X27671427Y-25675934D02*
X27578570Y-25644982D01*
X27578570Y-25644982D02*
X27516666Y-25644982D01*
X27516666Y-25644982D02*
X27423808Y-25675934D01*
X27423808Y-25675934D02*
X27392856Y-25706887D01*
X27114285Y-25954506D02*
X26897618Y-25954506D01*
X26804761Y-26294982D02*
X27114285Y-26294982D01*
X27114285Y-26294982D02*
X27114285Y-25644982D01*
X27114285Y-25644982D02*
X26804761Y-25644982D01*
X25535714Y-26294982D02*
X25535714Y-25861649D01*
X25535714Y-25985458D02*
X25504761Y-25923553D01*
X25504761Y-25923553D02*
X25473809Y-25892601D01*
X25473809Y-25892601D02*
X25411904Y-25861649D01*
X25411904Y-25861649D02*
X25349999Y-25861649D01*
X24885714Y-26264030D02*
X24947618Y-26294982D01*
X24947618Y-26294982D02*
X25071428Y-26294982D01*
X25071428Y-26294982D02*
X25133333Y-26264030D01*
X25133333Y-26264030D02*
X25164285Y-26202125D01*
X25164285Y-26202125D02*
X25164285Y-25954506D01*
X25164285Y-25954506D02*
X25133333Y-25892601D01*
X25133333Y-25892601D02*
X25071428Y-25861649D01*
X25071428Y-25861649D02*
X24947618Y-25861649D01*
X24947618Y-25861649D02*
X24885714Y-25892601D01*
X24885714Y-25892601D02*
X24854761Y-25954506D01*
X24854761Y-25954506D02*
X24854761Y-26016410D01*
X24854761Y-26016410D02*
X25164285Y-26078315D01*
X24638094Y-25861649D02*
X24483332Y-26294982D01*
X24483332Y-26294982D02*
X24328571Y-25861649D01*
X23585714Y-26294982D02*
X23585714Y-25644982D01*
X23585714Y-25954506D02*
X23214285Y-25954506D01*
X23214285Y-26294982D02*
X23214285Y-25644982D01*
M02*
