%TF.GenerationSoftware,KiCad,Pcbnew,9.0.8+dfsg-1*%
%TF.CreationDate,2026-08-26T14:14:03+00:00*%
%TF.ProjectId,panasonic-p11-revG,70616e61-736f-46e6-9963-2d7031312d72,rev?*%
%TF.SameCoordinates,Original*%
%TF.FileFunction,Copper,L2,Bot*%
%TF.FilePolarity,Positive*%
%FSLAX46Y46*%
G04 Gerber Fmt 4.6, Leading zero omitted, Abs format (unit mm)*
G04 Created by KiCad (PCBNEW 9.0.8+dfsg-1) date 2026-08-26 14:14:03*
%MOMM*%
%LPD*%
G01*
G04 APERTURE LIST*
%TA.AperFunction,ComponentPad*%
%ADD10R,1.700000X1.700000*%
%TD*%
%TA.AperFunction,ComponentPad*%
%ADD11C,1.700000*%
%TD*%
%TA.AperFunction,ComponentPad*%
%ADD12R,1.200000X1.000000*%
%TD*%
%TA.AperFunction,ComponentPad*%
%ADD13O,1.200000X1.000000*%
%TD*%
%TA.AperFunction,ComponentPad*%
%ADD14R,1.600000X1.600000*%
%TD*%
%TA.AperFunction,ComponentPad*%
%ADD15C,1.600000*%
%TD*%
%TA.AperFunction,ComponentPad*%
%ADD16R,0.900000X0.900000*%
%TD*%
%TA.AperFunction,ComponentPad*%
%ADD17C,0.900000*%
%TD*%
%TA.AperFunction,ViaPad*%
%ADD18C,0.600000*%
%TD*%
%TA.AperFunction,Conductor*%
%ADD19C,0.200000*%
%TD*%
G04 APERTURE END LIST*
D10*
%TO.P,ESP32-C3,1*%
%TO.N,+5V*%
X22360000Y-24380000D03*
D11*
%TO.P,ESP32-C3,2*%
%TO.N,GND*%
X24900000Y-24380000D03*
%TO.P,ESP32-C3,3*%
%TO.N,+3V3*%
X27440000Y-24380000D03*
%TO.P,ESP32-C3,4*%
%TO.N,ESP_RX*%
X29980000Y-24380000D03*
%TO.P,ESP32-C3,5*%
%TO.N,ESP_TX*%
X32520000Y-24380000D03*
%TO.P,ESP32-C3,6*%
%TO.N,N/C*%
X35060000Y-24380000D03*
%TO.P,ESP32-C3,7*%
%TO.N,IO1*%
X37600000Y-24380000D03*
%TO.P,ESP32-C3,8*%
%TO.N,IO0*%
X40140000Y-24380000D03*
%TO.P,ESP32-C3,9*%
%TO.N,N/C*%
X22360000Y-39620000D03*
%TO.P,ESP32-C3,10*%
X24900000Y-39620000D03*
%TO.P,ESP32-C3,11*%
%TO.N,IO7*%
X27440000Y-39620000D03*
%TO.P,ESP32-C3,12*%
%TO.N,N/C*%
X29980000Y-39620000D03*
%TO.P,ESP32-C3,13*%
X32520000Y-39620000D03*
%TO.P,ESP32-C3,14*%
%TO.N,IO10*%
X35060000Y-39620000D03*
%TO.P,ESP32-C3,15*%
%TO.N,N/C*%
X37600000Y-39620000D03*
%TO.P,ESP32-C3,16*%
X40140000Y-39620000D03*
%TD*%
%TO.P,BSS138,H1*%
%TO.N,AC_RX_5V*%
X53080000Y-24380000D03*
%TO.P,BSS138,H2*%
%TO.N,IO10_5V*%
X53080000Y-26920000D03*
%TO.P,BSS138,H3*%
%TO.N,+5V*%
X53080000Y-29460000D03*
%TO.P,BSS138,H4*%
%TO.N,GND*%
X53080000Y-32000000D03*
%TO.P,BSS138,H5*%
%TO.N,IO7_5V*%
X53080000Y-34540000D03*
%TO.P,BSS138,H6*%
%TO.N,AC_TX_5V*%
X53080000Y-37080000D03*
D10*
%TO.P,BSS138,L1*%
%TO.N,ESP_TX*%
X42920000Y-24380000D03*
D11*
%TO.P,BSS138,L2*%
%TO.N,IO10*%
X42920000Y-26920000D03*
%TO.P,BSS138,L3*%
%TO.N,+3V3*%
X42920000Y-29460000D03*
%TO.P,BSS138,L4*%
%TO.N,GND*%
X42920000Y-32000000D03*
%TO.P,BSS138,L5*%
%TO.N,IO7*%
X42920000Y-34540000D03*
%TO.P,BSS138,L6*%
%TO.N,ESP_RX*%
X42920000Y-37080000D03*
%TD*%
D12*
%TO.P,J11,1*%
%TO.N,AC_5V*%
X64500000Y-36445000D03*
D13*
%TO.P,J11,2*%
%TO.N,AC_TX_5V*%
X64500000Y-35175000D03*
%TO.P,J11,3*%
%TO.N,AC_RX_5V*%
X64500000Y-33905000D03*
%TO.P,J11,4*%
%TO.N,N/C*%
X64500000Y-32635000D03*
%TO.P,J11,5*%
X64500000Y-31365000D03*
%TO.P,J11,6*%
X64500000Y-30095000D03*
%TO.P,J11,7*%
X64500000Y-28825000D03*
%TO.P,J11,8*%
%TO.N,GND*%
X64500000Y-27555000D03*
%TD*%
D14*
%TO.P,D1,1*%
%TO.N,+5V*%
X47960000Y-39600000D03*
D15*
%TO.P,D1,2*%
%TO.N,AC_5V*%
X53040000Y-39600000D03*
%TD*%
D14*
%TO.P,C1,1*%
%TO.N,+5V*%
X55900000Y-27600000D03*
D15*
%TO.P,C1,2*%
%TO.N,GND*%
X57900000Y-27600000D03*
%TD*%
D16*
%TO.P,J1,1*%
%TO.N,IO1*%
X59695000Y-24000000D03*
D17*
%TO.P,J1,2*%
%TO.N,IO0*%
X60965000Y-24000000D03*
%TO.P,J1,3*%
%TO.N,GND*%
X62235000Y-24000000D03*
%TO.P,J1,4*%
%TO.N,+3V3*%
X63505000Y-24000000D03*
%TD*%
D16*
%TO.P,J2,1*%
%TO.N,IO10_5V*%
X59695000Y-40000000D03*
D17*
%TO.P,J2,2*%
%TO.N,IO7_5V*%
X60965000Y-40000000D03*
%TO.P,J2,3*%
%TO.N,GND*%
X62235000Y-40000000D03*
%TO.P,J2,4*%
%TO.N,+5V*%
X63505000Y-40000000D03*
%TD*%
D10*
%TO.P,CNT,1*%
%TO.N,AC_5V*%
X61200000Y-26920000D03*
D11*
%TO.P,CNT,2*%
%TO.N,AC_TX_5V*%
X61200000Y-29460000D03*
%TO.P,CNT,3*%
%TO.N,AC_RX_5V*%
X61200000Y-32000000D03*
%TO.P,CNT,4*%
%TO.N,N/C*%
X61200000Y-34540000D03*
%TO.P,CNT,5*%
%TO.N,GND*%
X61200000Y-37080000D03*
%TD*%
D18*
%TO.N,IO1*%
X47115600Y-26868700D03*
X55450200Y-24958700D03*
%TD*%
D19*
%TO.N,GND*%
X54798300Y-26675000D02*
X54798300Y-31378300D01*
X62235000Y-24488300D02*
X64500000Y-26753300D01*
X54975000Y-26498300D02*
X54798300Y-26675000D01*
X61200000Y-38965000D02*
X61200000Y-37080000D01*
X64500000Y-27555000D02*
X64500000Y-26753300D01*
X54798300Y-31378300D02*
X53701700Y-31378300D01*
X42920000Y-32000000D02*
X32520000Y-32000000D01*
X57900000Y-27573300D02*
X56825000Y-26498300D01*
X56825000Y-26498300D02*
X54975000Y-26498300D01*
X62235000Y-24000000D02*
X62235000Y-24488300D01*
X61200000Y-37080000D02*
X55498300Y-31378300D01*
X32520000Y-32000000D02*
X24900000Y-24380000D01*
X55498300Y-31378300D02*
X54798300Y-31378300D01*
X57900000Y-27600000D02*
X57900000Y-27573300D01*
X62235000Y-40000000D02*
X61200000Y-38965000D01*
X53701700Y-31378300D02*
X53080000Y-32000000D01*
%TO.N,+5V*%
X60474600Y-33276300D02*
X55900000Y-28701700D01*
X61565100Y-33276300D02*
X60474600Y-33276300D01*
X62351700Y-34062900D02*
X61565100Y-33276300D01*
X53080000Y-29460000D02*
X47960000Y-34580000D01*
X62351700Y-38846700D02*
X62351700Y-34062900D01*
X55900000Y-27600000D02*
X55900000Y-28701700D01*
X63505000Y-40000000D02*
X62351700Y-38846700D01*
X47960000Y-34580000D02*
X47960000Y-39600000D01*
%TO.N,AC_5V*%
X61200000Y-28071700D02*
X61487900Y-28071700D01*
X63034300Y-34979300D02*
X64500000Y-36445000D01*
X63034300Y-29618100D02*
X63034300Y-34979300D01*
X61200000Y-26920000D02*
X61200000Y-28071700D01*
X61487900Y-28071700D02*
X63034300Y-29618100D01*
%TO.N,+3V3*%
X42920000Y-29460000D02*
X32520000Y-29460000D01*
X32520000Y-29460000D02*
X27440000Y-24380000D01*
%TO.N,ESP_TX*%
X41768300Y-24452000D02*
X40667900Y-25552400D01*
X42920000Y-24380000D02*
X41768300Y-24380000D01*
X41768300Y-24380000D02*
X41768300Y-24452000D01*
X33692400Y-25552400D02*
X32520000Y-24380000D01*
X40667900Y-25552400D02*
X33692400Y-25552400D01*
%TO.N,ESP_RX*%
X41724900Y-25975200D02*
X31575200Y-25975200D01*
X44482400Y-26814500D02*
X43436200Y-25768300D01*
X31575200Y-25975200D02*
X29980000Y-24380000D01*
X44482400Y-35517600D02*
X44482400Y-26814500D01*
X42920000Y-37080000D02*
X44482400Y-35517600D01*
X43436200Y-25768300D02*
X41931800Y-25768300D01*
X41931800Y-25768300D02*
X41724900Y-25975200D01*
%TO.N,AC_RX_5V*%
X59022900Y-27158900D02*
X56221000Y-24357000D01*
X56221000Y-24357000D02*
X53103000Y-24357000D01*
X61200000Y-32000000D02*
X59022900Y-29822900D01*
X59022900Y-29822900D02*
X59022900Y-27158900D01*
X53103000Y-24357000D02*
X53080000Y-24380000D01*
%TO.N,IO1*%
X55450200Y-24958700D02*
X54877200Y-25531700D01*
X48452600Y-25531700D02*
X47115600Y-26868700D01*
X54877200Y-25531700D02*
X48452600Y-25531700D01*
%TO.N,IO10*%
X35060000Y-39620000D02*
X35442600Y-39620000D01*
X44075500Y-32478200D02*
X44075500Y-28075500D01*
X35442600Y-39620000D02*
X41792600Y-33270000D01*
X44075500Y-28075500D02*
X42920000Y-26920000D01*
X41792600Y-33270000D02*
X43283700Y-33270000D01*
X43283700Y-33270000D02*
X44075500Y-32478200D01*
%TO.N,IO10_5V*%
X54757800Y-35814500D02*
X58943300Y-40000000D01*
X51893700Y-34986100D02*
X52722100Y-35814500D01*
X52722100Y-35814500D02*
X54757800Y-35814500D01*
X59695000Y-40000000D02*
X58943300Y-40000000D01*
X53080000Y-26920000D02*
X54269800Y-28109800D01*
X53323700Y-30848300D02*
X52556600Y-30848300D01*
X52556600Y-30848300D02*
X51893700Y-31511200D01*
X54269800Y-29902200D02*
X53323700Y-30848300D01*
X51893700Y-31511200D02*
X51893700Y-34986100D01*
X54269800Y-28109800D02*
X54269800Y-29902200D01*
%TO.N,IO7_5V*%
X60965000Y-39934900D02*
X55570100Y-34540000D01*
X55570100Y-34540000D02*
X53080000Y-34540000D01*
X60965000Y-40000000D02*
X60965000Y-39934900D01*
%TD*%
%TA.AperFunction,Conductor*%
%TO.N,GND*%
G36*
X54798614Y-28573811D02*
G01*
X54811947Y-28571895D01*
X54832090Y-28581094D01*
X54853727Y-28585801D01*
X54871452Y-28599069D01*
X54875503Y-28600920D01*
X54881981Y-28606952D01*
X54927235Y-28652206D01*
X55030009Y-28697585D01*
X55055135Y-28700500D01*
X55389901Y-28700499D01*
X55456940Y-28720183D01*
X55502695Y-28772987D01*
X55509675Y-28792404D01*
X55526793Y-28856288D01*
X55579520Y-28947613D01*
X60154119Y-33522212D01*
X60154120Y-33522213D01*
X60228687Y-33596780D01*
X60274627Y-33623303D01*
X60322843Y-33673870D01*
X60336065Y-33742477D01*
X60312946Y-33803575D01*
X60216003Y-33937006D01*
X60133788Y-34098360D01*
X60133787Y-34098363D01*
X60077829Y-34270589D01*
X60049500Y-34449448D01*
X60049500Y-34630551D01*
X60077829Y-34809410D01*
X60133787Y-34981636D01*
X60133788Y-34981639D01*
X60180000Y-35072332D01*
X60214821Y-35140673D01*
X60216006Y-35142997D01*
X60322441Y-35289494D01*
X60322445Y-35289499D01*
X60450500Y-35417554D01*
X60450505Y-35417558D01*
X60555747Y-35494020D01*
X60597006Y-35523996D01*
X60673467Y-35562955D01*
X60758360Y-35606211D01*
X60758363Y-35606212D01*
X60844476Y-35634191D01*
X60930591Y-35662171D01*
X61013429Y-35675291D01*
X61109449Y-35690500D01*
X61109454Y-35690500D01*
X61290551Y-35690500D01*
X61377259Y-35676765D01*
X61469409Y-35662171D01*
X61641639Y-35606211D01*
X61770905Y-35540345D01*
X61839574Y-35527450D01*
X61904314Y-35553726D01*
X61944572Y-35610832D01*
X61951200Y-35650831D01*
X61951200Y-38899426D01*
X61978493Y-39001289D01*
X61991150Y-39023211D01*
X62031220Y-39092613D01*
X62389281Y-39450674D01*
X62725914Y-39787306D01*
X62759399Y-39848629D01*
X62759851Y-39899175D01*
X62754500Y-39926079D01*
X62754500Y-39926082D01*
X62754500Y-40073918D01*
X62754500Y-40073920D01*
X62754499Y-40073920D01*
X62783340Y-40218907D01*
X62783343Y-40218917D01*
X62839912Y-40355488D01*
X62839919Y-40355501D01*
X62907478Y-40456609D01*
X62928356Y-40523286D01*
X62909872Y-40590667D01*
X62857893Y-40637357D01*
X62804376Y-40649500D01*
X61665624Y-40649500D01*
X61598585Y-40629815D01*
X61552830Y-40577011D01*
X61542886Y-40507853D01*
X61562522Y-40456609D01*
X61630080Y-40355501D01*
X61630080Y-40355500D01*
X61630084Y-40355495D01*
X61686658Y-40218913D01*
X61696096Y-40171462D01*
X61715500Y-40073920D01*
X61715500Y-39926079D01*
X61686659Y-39781092D01*
X61686658Y-39781091D01*
X61686658Y-39781087D01*
X61647525Y-39686611D01*
X61630087Y-39644511D01*
X61630080Y-39644498D01*
X61547951Y-39521584D01*
X61547948Y-39521580D01*
X61443419Y-39417051D01*
X61443415Y-39417048D01*
X61320501Y-39334919D01*
X61320488Y-39334912D01*
X61183917Y-39278343D01*
X61183907Y-39278340D01*
X61038920Y-39249500D01*
X61038918Y-39249500D01*
X60897354Y-39249500D01*
X60830315Y-39229815D01*
X60809673Y-39213181D01*
X55816015Y-34219522D01*
X55816014Y-34219521D01*
X55816013Y-34219520D01*
X55758291Y-34186194D01*
X55724689Y-34166793D01*
X55673757Y-34153146D01*
X55622827Y-34139500D01*
X55622826Y-34139500D01*
X54243160Y-34139500D01*
X54176121Y-34119815D01*
X54132675Y-34071795D01*
X54124009Y-34054787D01*
X54063996Y-33937006D01*
X54046577Y-33913030D01*
X53957558Y-33790505D01*
X53957554Y-33790500D01*
X53829499Y-33662445D01*
X53829494Y-33662441D01*
X53682997Y-33556006D01*
X53682996Y-33556005D01*
X53682994Y-33556004D01*
X53612335Y-33520001D01*
X53521639Y-33473788D01*
X53521636Y-33473787D01*
X53349410Y-33417829D01*
X53170551Y-33389500D01*
X53170546Y-33389500D01*
X52989454Y-33389500D01*
X52989449Y-33389500D01*
X52810589Y-33417829D01*
X52638363Y-33473787D01*
X52638360Y-33473788D01*
X52474495Y-33557283D01*
X52405826Y-33570179D01*
X52341085Y-33543903D01*
X52300828Y-33486796D01*
X52294200Y-33446798D01*
X52294200Y-31728455D01*
X52313885Y-31661416D01*
X52330519Y-31640774D01*
X52686174Y-31285119D01*
X52747497Y-31251634D01*
X52773855Y-31248800D01*
X53376425Y-31248800D01*
X53376427Y-31248800D01*
X53478288Y-31221507D01*
X53569613Y-31168780D01*
X54590280Y-30148113D01*
X54628572Y-30081789D01*
X54643007Y-30056787D01*
X54670300Y-29954927D01*
X54670300Y-28694633D01*
X54676538Y-28673387D01*
X54678118Y-28651299D01*
X54686190Y-28640515D01*
X54689985Y-28627594D01*
X54706718Y-28613094D01*
X54719990Y-28595366D01*
X54732610Y-28590658D01*
X54742789Y-28581839D01*
X54764706Y-28578687D01*
X54785454Y-28570949D01*
X54798614Y-28573811D01*
G37*
%TD.AperFunction*%
%TA.AperFunction,Conductor*%
G36*
X26610123Y-23370185D02*
G01*
X26655878Y-23422989D01*
X26665822Y-23492147D01*
X26636797Y-23555703D01*
X26630765Y-23562181D01*
X26562445Y-23630500D01*
X26562441Y-23630505D01*
X26456006Y-23777002D01*
X26373788Y-23938360D01*
X26373787Y-23938363D01*
X26317829Y-24110589D01*
X26289500Y-24289448D01*
X26289500Y-24470551D01*
X26317829Y-24649410D01*
X26373787Y-24821636D01*
X26373788Y-24821639D01*
X26423540Y-24919281D01*
X26451579Y-24974310D01*
X26456006Y-24982997D01*
X26562441Y-25129494D01*
X26562445Y-25129499D01*
X26690500Y-25257554D01*
X26690505Y-25257558D01*
X26786659Y-25327417D01*
X26837006Y-25363996D01*
X26913094Y-25402765D01*
X26998360Y-25446211D01*
X26998363Y-25446212D01*
X27084476Y-25474191D01*
X27170591Y-25502171D01*
X27253429Y-25515291D01*
X27349449Y-25530500D01*
X27349454Y-25530500D01*
X27530551Y-25530500D01*
X27709409Y-25502171D01*
X27760182Y-25485674D01*
X27853284Y-25455423D01*
X27923123Y-25453429D01*
X27979281Y-25485674D01*
X32274087Y-29780480D01*
X32365412Y-29833207D01*
X32467273Y-29860500D01*
X32572727Y-29860500D01*
X40576000Y-29860500D01*
X40643039Y-29880185D01*
X40688794Y-29932989D01*
X40700000Y-29984500D01*
X40700000Y-33744844D01*
X40680315Y-33811883D01*
X40663681Y-33832525D01*
X35852102Y-38644103D01*
X35790779Y-38677588D01*
X35721087Y-38672604D01*
X35691538Y-38656742D01*
X35674141Y-38644103D01*
X35662994Y-38636004D01*
X35645782Y-38627234D01*
X35501639Y-38553788D01*
X35501636Y-38553787D01*
X35329410Y-38497829D01*
X35150551Y-38469500D01*
X35150546Y-38469500D01*
X34969454Y-38469500D01*
X34969449Y-38469500D01*
X34790589Y-38497829D01*
X34618363Y-38553787D01*
X34618360Y-38553788D01*
X34457002Y-38636006D01*
X34310505Y-38742441D01*
X34310500Y-38742445D01*
X34182445Y-38870500D01*
X34182441Y-38870505D01*
X34076006Y-39017002D01*
X33993788Y-39178360D01*
X33993787Y-39178363D01*
X33937829Y-39350589D01*
X33912473Y-39510678D01*
X33882544Y-39573813D01*
X33823232Y-39610744D01*
X33753369Y-39609746D01*
X33695137Y-39571136D01*
X33667527Y-39510678D01*
X33648593Y-39391137D01*
X33642171Y-39350591D01*
X33586211Y-39178361D01*
X33586211Y-39178360D01*
X33557740Y-39122484D01*
X33503996Y-39017006D01*
X33474198Y-38975992D01*
X33397558Y-38870505D01*
X33397554Y-38870500D01*
X33269499Y-38742445D01*
X33269494Y-38742441D01*
X33122997Y-38636006D01*
X33122996Y-38636005D01*
X33122994Y-38636004D01*
X33071300Y-38609664D01*
X32961639Y-38553788D01*
X32961636Y-38553787D01*
X32789410Y-38497829D01*
X32610551Y-38469500D01*
X32610546Y-38469500D01*
X32429454Y-38469500D01*
X32429449Y-38469500D01*
X32250589Y-38497829D01*
X32078363Y-38553787D01*
X32078360Y-38553788D01*
X31917002Y-38636006D01*
X31770505Y-38742441D01*
X31770500Y-38742445D01*
X31642445Y-38870500D01*
X31642441Y-38870505D01*
X31536006Y-39017002D01*
X31453788Y-39178360D01*
X31453787Y-39178363D01*
X31397829Y-39350589D01*
X31372473Y-39510678D01*
X31342544Y-39573813D01*
X31283232Y-39610744D01*
X31213369Y-39609746D01*
X31155137Y-39571136D01*
X31127527Y-39510678D01*
X31108593Y-39391137D01*
X31102171Y-39350591D01*
X31046211Y-39178361D01*
X31046211Y-39178360D01*
X31017740Y-39122484D01*
X30963996Y-39017006D01*
X30934198Y-38975992D01*
X30857558Y-38870505D01*
X30857554Y-38870500D01*
X30729499Y-38742445D01*
X30729494Y-38742441D01*
X30582997Y-38636006D01*
X30582996Y-38636005D01*
X30582994Y-38636004D01*
X30531300Y-38609664D01*
X30421639Y-38553788D01*
X30421636Y-38553787D01*
X30249410Y-38497829D01*
X30070551Y-38469500D01*
X30070546Y-38469500D01*
X29889454Y-38469500D01*
X29889449Y-38469500D01*
X29710589Y-38497829D01*
X29538363Y-38553787D01*
X29538360Y-38553788D01*
X29377002Y-38636006D01*
X29230505Y-38742441D01*
X29230500Y-38742445D01*
X29102445Y-38870500D01*
X29102441Y-38870505D01*
X28996006Y-39017002D01*
X28913788Y-39178360D01*
X28913787Y-39178363D01*
X28857829Y-39350589D01*
X28832473Y-39510678D01*
X28802544Y-39573813D01*
X28743232Y-39610744D01*
X28673369Y-39609746D01*
X28615137Y-39571136D01*
X28587527Y-39510678D01*
X28568593Y-39391137D01*
X28562171Y-39350591D01*
X28506211Y-39178361D01*
X28506211Y-39178360D01*
X28477740Y-39122484D01*
X28423996Y-39017006D01*
X28394198Y-38975992D01*
X28317558Y-38870505D01*
X28317554Y-38870500D01*
X28189499Y-38742445D01*
X28189494Y-38742441D01*
X28042997Y-38636006D01*
X28042996Y-38636005D01*
X28042994Y-38636004D01*
X27991300Y-38609664D01*
X27881639Y-38553788D01*
X27881636Y-38553787D01*
X27709410Y-38497829D01*
X27530551Y-38469500D01*
X27530546Y-38469500D01*
X27349454Y-38469500D01*
X27349449Y-38469500D01*
X27170589Y-38497829D01*
X26998363Y-38553787D01*
X26998360Y-38553788D01*
X26837002Y-38636006D01*
X26690505Y-38742441D01*
X26690500Y-38742445D01*
X26562445Y-38870500D01*
X26562441Y-38870505D01*
X26456006Y-39017002D01*
X26373788Y-39178360D01*
X26373787Y-39178363D01*
X26317829Y-39350589D01*
X26292473Y-39510678D01*
X26262544Y-39573813D01*
X26203232Y-39610744D01*
X26133369Y-39609746D01*
X26075137Y-39571136D01*
X26047527Y-39510678D01*
X26028593Y-39391137D01*
X26022171Y-39350591D01*
X25966211Y-39178361D01*
X25966211Y-39178360D01*
X25937740Y-39122484D01*
X25883996Y-39017006D01*
X25854198Y-38975992D01*
X25777558Y-38870505D01*
X25777554Y-38870500D01*
X25649499Y-38742445D01*
X25649494Y-38742441D01*
X25502997Y-38636006D01*
X25502996Y-38636005D01*
X25502994Y-38636004D01*
X25451300Y-38609664D01*
X25341639Y-38553788D01*
X25341636Y-38553787D01*
X25169410Y-38497829D01*
X24990551Y-38469500D01*
X24990546Y-38469500D01*
X24809454Y-38469500D01*
X24809449Y-38469500D01*
X24630589Y-38497829D01*
X24458363Y-38553787D01*
X24458360Y-38553788D01*
X24297002Y-38636006D01*
X24150505Y-38742441D01*
X24150500Y-38742445D01*
X24022445Y-38870500D01*
X24022441Y-38870505D01*
X23916006Y-39017002D01*
X23833788Y-39178360D01*
X23833787Y-39178363D01*
X23777829Y-39350589D01*
X23752473Y-39510678D01*
X23722544Y-39573813D01*
X23663232Y-39610744D01*
X23593369Y-39609746D01*
X23535137Y-39571136D01*
X23507527Y-39510678D01*
X23488593Y-39391137D01*
X23482171Y-39350591D01*
X23426211Y-39178361D01*
X23426211Y-39178360D01*
X23397740Y-39122484D01*
X23343996Y-39017006D01*
X23314198Y-38975992D01*
X23237558Y-38870505D01*
X23237554Y-38870500D01*
X23109499Y-38742445D01*
X23109494Y-38742441D01*
X22962997Y-38636006D01*
X22962996Y-38636005D01*
X22962994Y-38636004D01*
X22911300Y-38609664D01*
X22801639Y-38553788D01*
X22801636Y-38553787D01*
X22629410Y-38497829D01*
X22450551Y-38469500D01*
X22450546Y-38469500D01*
X22269454Y-38469500D01*
X22269449Y-38469500D01*
X22090589Y-38497829D01*
X21918363Y-38553787D01*
X21918360Y-38553788D01*
X21757002Y-38636006D01*
X21610505Y-38742441D01*
X21610500Y-38742445D01*
X21482445Y-38870500D01*
X21482441Y-38870505D01*
X21376006Y-39017002D01*
X21293788Y-39178360D01*
X21293787Y-39178363D01*
X21237829Y-39350589D01*
X21209500Y-39529448D01*
X21209500Y-39710551D01*
X21237828Y-39889409D01*
X21247997Y-39920704D01*
X21249992Y-39990545D01*
X21213912Y-40050378D01*
X21151211Y-40081206D01*
X21081796Y-40073241D01*
X21042385Y-40046703D01*
X20386819Y-39391137D01*
X20353334Y-39329814D01*
X20350500Y-39303456D01*
X20350500Y-24696543D01*
X20370185Y-24629504D01*
X20386819Y-24608862D01*
X20679024Y-24316657D01*
X20997821Y-23997859D01*
X21059142Y-23964376D01*
X21128833Y-23969360D01*
X21184767Y-24011231D01*
X21209184Y-24076696D01*
X21209500Y-24085542D01*
X21209500Y-25274856D01*
X21209502Y-25274882D01*
X21212413Y-25299987D01*
X21212415Y-25299991D01*
X21257793Y-25402764D01*
X21257794Y-25402765D01*
X21337235Y-25482206D01*
X21440009Y-25527585D01*
X21465135Y-25530500D01*
X23254864Y-25530499D01*
X23254879Y-25530497D01*
X23254882Y-25530497D01*
X23279987Y-25527586D01*
X23279988Y-25527585D01*
X23279991Y-25527585D01*
X23382765Y-25482206D01*
X23462206Y-25402765D01*
X23507585Y-25299991D01*
X23510500Y-25274865D01*
X23510499Y-23485136D01*
X23510499Y-23485134D01*
X23510298Y-23481658D01*
X23526080Y-23413594D01*
X23576154Y-23364867D01*
X23634091Y-23350500D01*
X26543084Y-23350500D01*
X26610123Y-23370185D01*
G37*
%TD.AperFunction*%
%TA.AperFunction,Conductor*%
G36*
X42105203Y-30272703D02*
G01*
X42111681Y-30278735D01*
X42170500Y-30337554D01*
X42170505Y-30337558D01*
X42274287Y-30412959D01*
X42317006Y-30443996D01*
X42422484Y-30497740D01*
X42478360Y-30526211D01*
X42478363Y-30526212D01*
X42564476Y-30554191D01*
X42650591Y-30582171D01*
X42733429Y-30595291D01*
X42829449Y-30610500D01*
X42829454Y-30610500D01*
X43010551Y-30610500D01*
X43097259Y-30596765D01*
X43189409Y-30582171D01*
X43361639Y-30526211D01*
X43494705Y-30458409D01*
X43563373Y-30445513D01*
X43628114Y-30471789D01*
X43668371Y-30528895D01*
X43675000Y-30568894D01*
X43675000Y-32260945D01*
X43655315Y-32327984D01*
X43638681Y-32348626D01*
X43154126Y-32833181D01*
X43092803Y-32866666D01*
X43066445Y-32869500D01*
X42024000Y-32869500D01*
X41956961Y-32849815D01*
X41911206Y-32797011D01*
X41900000Y-32745500D01*
X41900000Y-30366416D01*
X41919685Y-30299377D01*
X41972489Y-30253622D01*
X42041647Y-30243678D01*
X42105203Y-30272703D01*
G37*
%TD.AperFunction*%
%TA.AperFunction,Conductor*%
G36*
X56261616Y-24964009D02*
G01*
X58586081Y-27288474D01*
X58619566Y-27349797D01*
X58622400Y-27376155D01*
X58622400Y-29770173D01*
X58622400Y-29875627D01*
X58629368Y-29901633D01*
X58649693Y-29977489D01*
X58672019Y-30016158D01*
X58702420Y-30068813D01*
X58702422Y-30068815D01*
X60094325Y-31460718D01*
X60127810Y-31522041D01*
X60124575Y-31586716D01*
X60077829Y-31730587D01*
X60049500Y-31909448D01*
X60049500Y-31985445D01*
X60029815Y-32052484D01*
X59977011Y-32098239D01*
X59907853Y-32108183D01*
X59844297Y-32079158D01*
X59837819Y-32073126D01*
X56675571Y-28910878D01*
X56642086Y-28849555D01*
X56647070Y-28779863D01*
X56688942Y-28723930D01*
X56748967Y-28700023D01*
X56769991Y-28697585D01*
X56872765Y-28652206D01*
X56952206Y-28572765D01*
X56997585Y-28469991D01*
X57000500Y-28444865D01*
X57000499Y-26755136D01*
X56999268Y-26744517D01*
X56997586Y-26730012D01*
X56997585Y-26730010D01*
X56997585Y-26730009D01*
X56952206Y-26627235D01*
X56872765Y-26547794D01*
X56872763Y-26547793D01*
X56769992Y-26502415D01*
X56744865Y-26499500D01*
X55055143Y-26499500D01*
X55055117Y-26499502D01*
X55030012Y-26502413D01*
X55030008Y-26502415D01*
X54927235Y-26547793D01*
X54847794Y-26627234D01*
X54802415Y-26730006D01*
X54802415Y-26730008D01*
X54799500Y-26755131D01*
X54799500Y-27773745D01*
X54779815Y-27840784D01*
X54727011Y-27886539D01*
X54657853Y-27896483D01*
X54594297Y-27867458D01*
X54587819Y-27861426D01*
X54185674Y-27459281D01*
X54152189Y-27397958D01*
X54155423Y-27333284D01*
X54202171Y-27189409D01*
X54215354Y-27106175D01*
X54230500Y-27010551D01*
X54230500Y-26829448D01*
X54203647Y-26659911D01*
X54202171Y-26650591D01*
X54168771Y-26547794D01*
X54146212Y-26478363D01*
X54146211Y-26478360D01*
X54103932Y-26395385D01*
X54063996Y-26317006D01*
X54026478Y-26265366D01*
X53957558Y-26170505D01*
X53957554Y-26170500D01*
X53930935Y-26143881D01*
X53897450Y-26082558D01*
X53902434Y-26012866D01*
X53944306Y-25956933D01*
X54009770Y-25932516D01*
X54018616Y-25932200D01*
X54929925Y-25932200D01*
X54929927Y-25932200D01*
X55031788Y-25904907D01*
X55123113Y-25852180D01*
X55379774Y-25595519D01*
X55441097Y-25562034D01*
X55467455Y-25559200D01*
X55529255Y-25559200D01*
X55529257Y-25559200D01*
X55681984Y-25518277D01*
X55818916Y-25439220D01*
X55930720Y-25327416D01*
X56009777Y-25190484D01*
X56050700Y-25037757D01*
X56050700Y-25037744D01*
X56050995Y-25035509D01*
X56051773Y-25033748D01*
X56052803Y-25029907D01*
X56053402Y-25030067D01*
X56079260Y-24971611D01*
X56137583Y-24933138D01*
X56207448Y-24932305D01*
X56261616Y-24964009D01*
G37*
%TD.AperFunction*%
%TA.AperFunction,Conductor*%
G36*
X58890261Y-23370185D02*
G01*
X58936016Y-23422989D01*
X58946396Y-23488790D01*
X58944500Y-23505128D01*
X58944500Y-24494856D01*
X58944502Y-24494882D01*
X58947413Y-24519987D01*
X58947415Y-24519991D01*
X58992793Y-24622764D01*
X58992794Y-24622765D01*
X59072235Y-24702206D01*
X59175009Y-24747585D01*
X59200135Y-24750500D01*
X60189864Y-24750499D01*
X60189879Y-24750497D01*
X60189882Y-24750497D01*
X60214987Y-24747586D01*
X60214988Y-24747585D01*
X60214991Y-24747585D01*
X60317765Y-24702206D01*
X60384917Y-24635053D01*
X60446236Y-24601571D01*
X60515928Y-24606555D01*
X60541481Y-24619631D01*
X60609505Y-24665084D01*
X60609507Y-24665085D01*
X60609511Y-24665087D01*
X60746082Y-24721656D01*
X60746087Y-24721658D01*
X60746091Y-24721658D01*
X60746092Y-24721659D01*
X60891079Y-24750500D01*
X60891082Y-24750500D01*
X61038920Y-24750500D01*
X61136462Y-24731096D01*
X61183913Y-24721658D01*
X61320495Y-24665084D01*
X61443416Y-24582951D01*
X61547951Y-24478416D01*
X61630084Y-24355495D01*
X61686658Y-24218913D01*
X61708206Y-24110589D01*
X61715500Y-24073920D01*
X61715500Y-23926079D01*
X61686659Y-23781092D01*
X61686658Y-23781091D01*
X61686658Y-23781087D01*
X61684966Y-23777001D01*
X61630087Y-23644511D01*
X61630080Y-23644498D01*
X61562522Y-23543391D01*
X61541644Y-23476714D01*
X61560128Y-23409333D01*
X61612107Y-23362643D01*
X61665624Y-23350500D01*
X62804376Y-23350500D01*
X62871415Y-23370185D01*
X62917170Y-23422989D01*
X62927114Y-23492147D01*
X62907478Y-23543391D01*
X62839919Y-23644498D01*
X62839912Y-23644511D01*
X62783343Y-23781082D01*
X62783340Y-23781092D01*
X62754500Y-23926079D01*
X62754500Y-23926082D01*
X62754500Y-24073918D01*
X62754500Y-24073920D01*
X62754499Y-24073920D01*
X62783340Y-24218907D01*
X62783343Y-24218917D01*
X62839912Y-24355488D01*
X62839919Y-24355501D01*
X62922048Y-24478415D01*
X62922051Y-24478419D01*
X63026580Y-24582948D01*
X63026584Y-24582951D01*
X63149498Y-24665080D01*
X63149511Y-24665087D01*
X63286082Y-24721656D01*
X63286087Y-24721658D01*
X63286091Y-24721658D01*
X63286092Y-24721659D01*
X63431079Y-24750500D01*
X63431082Y-24750500D01*
X63578920Y-24750500D01*
X63676462Y-24731096D01*
X63723913Y-24721658D01*
X63860495Y-24665084D01*
X63983416Y-24582951D01*
X64087951Y-24478416D01*
X64170084Y-24355495D01*
X64226658Y-24218913D01*
X64248206Y-24110589D01*
X64255500Y-24073920D01*
X64255500Y-23926079D01*
X64226659Y-23781092D01*
X64226658Y-23781091D01*
X64226658Y-23781087D01*
X64224966Y-23777001D01*
X64170087Y-23644511D01*
X64170080Y-23644498D01*
X64102522Y-23543391D01*
X64081644Y-23476714D01*
X64100128Y-23409333D01*
X64152107Y-23362643D01*
X64205624Y-23350500D01*
X66803456Y-23350500D01*
X66870495Y-23370185D01*
X66891137Y-23386819D01*
X68113181Y-24608862D01*
X68146666Y-24670185D01*
X68149500Y-24696543D01*
X68149500Y-28525500D01*
X68129815Y-28592539D01*
X68077011Y-28638294D01*
X68025500Y-28649500D01*
X65476614Y-28649500D01*
X65409575Y-28629815D01*
X65363820Y-28577011D01*
X65362053Y-28572952D01*
X65309397Y-28445827D01*
X65309390Y-28445814D01*
X65221789Y-28314711D01*
X65221786Y-28314707D01*
X65110292Y-28203213D01*
X65110288Y-28203210D01*
X64979185Y-28115609D01*
X64979172Y-28115602D01*
X64833501Y-28055264D01*
X64833489Y-28055261D01*
X64678845Y-28024500D01*
X64678842Y-28024500D01*
X64321158Y-28024500D01*
X64321155Y-28024500D01*
X64166510Y-28055261D01*
X64166498Y-28055264D01*
X64020827Y-28115602D01*
X64020814Y-28115609D01*
X63889711Y-28203210D01*
X63889707Y-28203213D01*
X63778213Y-28314707D01*
X63778210Y-28314711D01*
X63690609Y-28445814D01*
X63690602Y-28445827D01*
X63630264Y-28591498D01*
X63630261Y-28591510D01*
X63599500Y-28746153D01*
X63599500Y-28903846D01*
X63630261Y-29058489D01*
X63630264Y-29058501D01*
X63690602Y-29204172D01*
X63690609Y-29204185D01*
X63778210Y-29335288D01*
X63778213Y-29335292D01*
X63815240Y-29372319D01*
X63848725Y-29433642D01*
X63843741Y-29503334D01*
X63815240Y-29547681D01*
X63778213Y-29584707D01*
X63778210Y-29584711D01*
X63690609Y-29715814D01*
X63690602Y-29715827D01*
X63673361Y-29757453D01*
X63629520Y-29811857D01*
X63563226Y-29833922D01*
X63495527Y-29816643D01*
X63447916Y-29765506D01*
X63434800Y-29710001D01*
X63434800Y-29565375D01*
X63434800Y-29565373D01*
X63407507Y-29463513D01*
X63407507Y-29463512D01*
X63354780Y-29372187D01*
X62198999Y-28216406D01*
X62165514Y-28155083D01*
X62170498Y-28085391D01*
X62212370Y-28029458D01*
X62216609Y-28026421D01*
X62222755Y-28022210D01*
X62222765Y-28022206D01*
X62302206Y-27942765D01*
X62347585Y-27839991D01*
X62350500Y-27814865D01*
X62350499Y-26025136D01*
X62348128Y-26004689D01*
X62347586Y-26000012D01*
X62347585Y-26000010D01*
X62347585Y-26000009D01*
X62302206Y-25897235D01*
X62222765Y-25817794D01*
X62222763Y-25817793D01*
X62119992Y-25772415D01*
X62094865Y-25769500D01*
X60305143Y-25769500D01*
X60305117Y-25769502D01*
X60280012Y-25772413D01*
X60280008Y-25772415D01*
X60177235Y-25817793D01*
X60097794Y-25897234D01*
X60052415Y-26000006D01*
X60052415Y-26000008D01*
X60049500Y-26025131D01*
X60049500Y-27814856D01*
X60049502Y-27814882D01*
X60052413Y-27839987D01*
X60052415Y-27839991D01*
X60097793Y-27942764D01*
X60097794Y-27942765D01*
X60177235Y-28022206D01*
X60280009Y-28067585D01*
X60305135Y-28070500D01*
X60689901Y-28070499D01*
X60715530Y-28078024D01*
X60741945Y-28081950D01*
X60748535Y-28087715D01*
X60756940Y-28090183D01*
X60774433Y-28110371D01*
X60794532Y-28127954D01*
X60799539Y-28139345D01*
X60802695Y-28142987D01*
X60809042Y-28160127D01*
X60809374Y-28161279D01*
X60826793Y-28226287D01*
X60829463Y-28230911D01*
X60833119Y-28243584D01*
X60832985Y-28271863D01*
X60836007Y-28299978D01*
X60832822Y-28306338D01*
X60832789Y-28313453D01*
X60817386Y-28337171D01*
X60804729Y-28362456D01*
X60797880Y-28367210D01*
X60794737Y-28372052D01*
X60783809Y-28376980D01*
X60761431Y-28392517D01*
X60758363Y-28393787D01*
X60597002Y-28476006D01*
X60450505Y-28582441D01*
X60450500Y-28582445D01*
X60322445Y-28710500D01*
X60322441Y-28710505D01*
X60216006Y-28857002D01*
X60133788Y-29018360D01*
X60133787Y-29018363D01*
X60077829Y-29190589D01*
X60049500Y-29369448D01*
X60049500Y-29550551D01*
X60077829Y-29729410D01*
X60133787Y-29901636D01*
X60133788Y-29901639D01*
X60176009Y-29984500D01*
X60212842Y-30056789D01*
X60216006Y-30062997D01*
X60311361Y-30194244D01*
X60311365Y-30194248D01*
X60322447Y-30209501D01*
X60450499Y-30337553D01*
X60465751Y-30348634D01*
X60465755Y-30348638D01*
X60554287Y-30412959D01*
X60597006Y-30443996D01*
X60702484Y-30497740D01*
X60758360Y-30526211D01*
X60758363Y-30526212D01*
X60844476Y-30554191D01*
X60930591Y-30582171D01*
X61003639Y-30593740D01*
X61090678Y-30607527D01*
X61153813Y-30637456D01*
X61190744Y-30696768D01*
X61189746Y-30766631D01*
X61151136Y-30824863D01*
X61090678Y-30852473D01*
X60930587Y-30877829D01*
X60786716Y-30924575D01*
X60716875Y-30926570D01*
X60660718Y-30894325D01*
X59459719Y-29693326D01*
X59426234Y-29632003D01*
X59423400Y-29605645D01*
X59423400Y-27106175D01*
X59423400Y-27106173D01*
X59396107Y-27004313D01*
X59396107Y-27004312D01*
X59343380Y-26912987D01*
X57912295Y-25481902D01*
X64799500Y-25481902D01*
X64799500Y-25718097D01*
X64836446Y-25951368D01*
X64909433Y-26175996D01*
X64981280Y-26317002D01*
X65016657Y-26386433D01*
X65155483Y-26577510D01*
X65322490Y-26744517D01*
X65513567Y-26883343D01*
X65571741Y-26912984D01*
X65724003Y-26990566D01*
X65724005Y-26990566D01*
X65724008Y-26990568D01*
X65844412Y-27029689D01*
X65948631Y-27063553D01*
X66181903Y-27100500D01*
X66181908Y-27100500D01*
X66418097Y-27100500D01*
X66651368Y-27063553D01*
X66875992Y-26990568D01*
X67086433Y-26883343D01*
X67277510Y-26744517D01*
X67444517Y-26577510D01*
X67583343Y-26386433D01*
X67690568Y-26175992D01*
X67763553Y-25951368D01*
X67779263Y-25852179D01*
X67800500Y-25718097D01*
X67800500Y-25481902D01*
X67763553Y-25248631D01*
X67718217Y-25109103D01*
X67690568Y-25024008D01*
X67690566Y-25024005D01*
X67690566Y-25024003D01*
X67634002Y-24912991D01*
X67583343Y-24813567D01*
X67444517Y-24622490D01*
X67277510Y-24455483D01*
X67086433Y-24316657D01*
X66875996Y-24209433D01*
X66651368Y-24136446D01*
X66418097Y-24099500D01*
X66418092Y-24099500D01*
X66181908Y-24099500D01*
X66181903Y-24099500D01*
X65948631Y-24136446D01*
X65724003Y-24209433D01*
X65513566Y-24316657D01*
X65456388Y-24358200D01*
X65322490Y-24455483D01*
X65322488Y-24455485D01*
X65322487Y-24455485D01*
X65155485Y-24622487D01*
X65155485Y-24622488D01*
X65155483Y-24622490D01*
X65101680Y-24696543D01*
X65016657Y-24813566D01*
X64909433Y-25024003D01*
X64836446Y-25248631D01*
X64799500Y-25481902D01*
X57912295Y-25481902D01*
X56466913Y-24036520D01*
X56421250Y-24010156D01*
X56375589Y-23983793D01*
X56303121Y-23964376D01*
X56273727Y-23956500D01*
X56273726Y-23956500D01*
X54231440Y-23956500D01*
X54164401Y-23936815D01*
X54120956Y-23888796D01*
X54063996Y-23777006D01*
X54063994Y-23777003D01*
X54063993Y-23777001D01*
X53957558Y-23630505D01*
X53957554Y-23630500D01*
X53889235Y-23562181D01*
X53855750Y-23500858D01*
X53860734Y-23431166D01*
X53902606Y-23375233D01*
X53968070Y-23350816D01*
X53976916Y-23350500D01*
X58823222Y-23350500D01*
X58890261Y-23370185D01*
G37*
%TD.AperFunction*%
%TD*%
%TA.AperFunction,NonConductor*%
G36*
X39310123Y-23370185D02*
G01*
X39355878Y-23422989D01*
X39365822Y-23492147D01*
X39336797Y-23555703D01*
X39330765Y-23562181D01*
X39262445Y-23630500D01*
X39262441Y-23630505D01*
X39156006Y-23777002D01*
X39073788Y-23938360D01*
X39073787Y-23938363D01*
X39017829Y-24110589D01*
X38992473Y-24270678D01*
X38962544Y-24333813D01*
X38903232Y-24370744D01*
X38833369Y-24369746D01*
X38775137Y-24331136D01*
X38747527Y-24270678D01*
X38726266Y-24136446D01*
X38722171Y-24110591D01*
X38689888Y-24011231D01*
X38666212Y-23938363D01*
X38666211Y-23938360D01*
X38637740Y-23882484D01*
X38583996Y-23777006D01*
X38570396Y-23758287D01*
X38477558Y-23630505D01*
X38477554Y-23630500D01*
X38409235Y-23562181D01*
X38375750Y-23500858D01*
X38380734Y-23431166D01*
X38422606Y-23375233D01*
X38488070Y-23350816D01*
X38496916Y-23350500D01*
X39243084Y-23350500D01*
X39310123Y-23370185D01*
G37*
%TD.AperFunction*%
%TA.AperFunction,NonConductor*%
G36*
X36724329Y-23356738D02*
G01*
X36746418Y-23358318D01*
X36757201Y-23366390D01*
X36770123Y-23370185D01*
X36784622Y-23386918D01*
X36802351Y-23400190D01*
X36807058Y-23412810D01*
X36815878Y-23422989D01*
X36819029Y-23444906D01*
X36826768Y-23465654D01*
X36823905Y-23478814D01*
X36825822Y-23492147D01*
X36816622Y-23512290D01*
X36811916Y-23533927D01*
X36798647Y-23551652D01*
X36796797Y-23555703D01*
X36790765Y-23562181D01*
X36722445Y-23630500D01*
X36722441Y-23630505D01*
X36616006Y-23777002D01*
X36533788Y-23938360D01*
X36533787Y-23938363D01*
X36477829Y-24110589D01*
X36452473Y-24270678D01*
X36422544Y-24333813D01*
X36363232Y-24370744D01*
X36293369Y-24369746D01*
X36235137Y-24331136D01*
X36207527Y-24270678D01*
X36186266Y-24136446D01*
X36182171Y-24110591D01*
X36149888Y-24011231D01*
X36126212Y-23938363D01*
X36126211Y-23938360D01*
X36097740Y-23882484D01*
X36043996Y-23777006D01*
X36030396Y-23758287D01*
X35937558Y-23630505D01*
X35937554Y-23630500D01*
X35869235Y-23562181D01*
X35835750Y-23500858D01*
X35840734Y-23431166D01*
X35882606Y-23375233D01*
X35948070Y-23350816D01*
X35956916Y-23350500D01*
X36703084Y-23350500D01*
X36724329Y-23356738D01*
G37*
%TD.AperFunction*%
%TA.AperFunction,NonConductor*%
G36*
X34230123Y-23370185D02*
G01*
X34275878Y-23422989D01*
X34285822Y-23492147D01*
X34256797Y-23555703D01*
X34250765Y-23562181D01*
X34182445Y-23630500D01*
X34182441Y-23630505D01*
X34076006Y-23777002D01*
X33993788Y-23938360D01*
X33993787Y-23938363D01*
X33937829Y-24110589D01*
X33912473Y-24270678D01*
X33882544Y-24333813D01*
X33823232Y-24370744D01*
X33753369Y-24369746D01*
X33695137Y-24331136D01*
X33667527Y-24270678D01*
X33646266Y-24136446D01*
X33642171Y-24110591D01*
X33609888Y-24011231D01*
X33586212Y-23938363D01*
X33586211Y-23938360D01*
X33557740Y-23882484D01*
X33503996Y-23777006D01*
X33490396Y-23758287D01*
X33397558Y-23630505D01*
X33397554Y-23630500D01*
X33329235Y-23562181D01*
X33295750Y-23500858D01*
X33300734Y-23431166D01*
X33342606Y-23375233D01*
X33408070Y-23350816D01*
X33416916Y-23350500D01*
X34163084Y-23350500D01*
X34230123Y-23370185D01*
G37*
%TD.AperFunction*%
%TA.AperFunction,NonConductor*%
G36*
X31644329Y-23356738D02*
G01*
X31666418Y-23358318D01*
X31677201Y-23366390D01*
X31690123Y-23370185D01*
X31704622Y-23386918D01*
X31722351Y-23400190D01*
X31727058Y-23412810D01*
X31735878Y-23422989D01*
X31739029Y-23444906D01*
X31746768Y-23465654D01*
X31743905Y-23478814D01*
X31745822Y-23492147D01*
X31736622Y-23512290D01*
X31731916Y-23533927D01*
X31718647Y-23551652D01*
X31716797Y-23555703D01*
X31710765Y-23562181D01*
X31642445Y-23630500D01*
X31642441Y-23630505D01*
X31536006Y-23777002D01*
X31453788Y-23938360D01*
X31453787Y-23938363D01*
X31397829Y-24110589D01*
X31372473Y-24270678D01*
X31342544Y-24333813D01*
X31283232Y-24370744D01*
X31213369Y-24369746D01*
X31155137Y-24331136D01*
X31127527Y-24270678D01*
X31106266Y-24136446D01*
X31102171Y-24110591D01*
X31069888Y-24011231D01*
X31046212Y-23938363D01*
X31046211Y-23938360D01*
X31017740Y-23882484D01*
X30963996Y-23777006D01*
X30950396Y-23758287D01*
X30857558Y-23630505D01*
X30857554Y-23630500D01*
X30789235Y-23562181D01*
X30755750Y-23500858D01*
X30760734Y-23431166D01*
X30802606Y-23375233D01*
X30868070Y-23350816D01*
X30876916Y-23350500D01*
X31623084Y-23350500D01*
X31644329Y-23356738D01*
G37*
%TD.AperFunction*%
%TA.AperFunction,NonConductor*%
G36*
X29150123Y-23370185D02*
G01*
X29195878Y-23422989D01*
X29205822Y-23492147D01*
X29176797Y-23555703D01*
X29170765Y-23562181D01*
X29102445Y-23630500D01*
X29102441Y-23630505D01*
X28996006Y-23777002D01*
X28913788Y-23938360D01*
X28913787Y-23938363D01*
X28857829Y-24110589D01*
X28832473Y-24270678D01*
X28802544Y-24333813D01*
X28743232Y-24370744D01*
X28673369Y-24369746D01*
X28615137Y-24331136D01*
X28587527Y-24270678D01*
X28566266Y-24136446D01*
X28562171Y-24110591D01*
X28529888Y-24011231D01*
X28506212Y-23938363D01*
X28506211Y-23938360D01*
X28477740Y-23882484D01*
X28423996Y-23777006D01*
X28410396Y-23758287D01*
X28317558Y-23630505D01*
X28317554Y-23630500D01*
X28249235Y-23562181D01*
X28215750Y-23500858D01*
X28220734Y-23431166D01*
X28262606Y-23375233D01*
X28328070Y-23350816D01*
X28336916Y-23350500D01*
X29083084Y-23350500D01*
X29150123Y-23370185D01*
G37*
%TD.AperFunction*%
%TA.AperFunction,NonConductor*%
G36*
X54792739Y-24777185D02*
G01*
X54838494Y-24829989D01*
X54849700Y-24881500D01*
X54849700Y-24941445D01*
X54841055Y-24970885D01*
X54834532Y-25000872D01*
X54830777Y-25005887D01*
X54830015Y-25008484D01*
X54813381Y-25029126D01*
X54747626Y-25094881D01*
X54686303Y-25128366D01*
X54659945Y-25131200D01*
X54190831Y-25131200D01*
X54123792Y-25111515D01*
X54078037Y-25058711D01*
X54068093Y-24989553D01*
X54080346Y-24950905D01*
X54096460Y-24919281D01*
X54144394Y-24825204D01*
X54192369Y-24774409D01*
X54254879Y-24757500D01*
X54725700Y-24757500D01*
X54792739Y-24777185D01*
G37*
%TD.AperFunction*%
%TA.AperFunction,NonConductor*%
G36*
X38906630Y-24390253D02*
G01*
X38964863Y-24428863D01*
X38992473Y-24489321D01*
X39017829Y-24649410D01*
X39073787Y-24821636D01*
X39073788Y-24821639D01*
X39150201Y-24971605D01*
X39163097Y-25040274D01*
X39136821Y-25105014D01*
X39079715Y-25145272D01*
X39039716Y-25151900D01*
X38700284Y-25151900D01*
X38633245Y-25132215D01*
X38587490Y-25079411D01*
X38577546Y-25010253D01*
X38589799Y-24971605D01*
X38666211Y-24821639D01*
X38666212Y-24821636D01*
X38681557Y-24774409D01*
X38722171Y-24649409D01*
X38736422Y-24559425D01*
X38747527Y-24489321D01*
X38777456Y-24426186D01*
X38836768Y-24389255D01*
X38906630Y-24390253D01*
G37*
%TD.AperFunction*%
%TA.AperFunction,NonConductor*%
G36*
X36366630Y-24390253D02*
G01*
X36424863Y-24428863D01*
X36452473Y-24489321D01*
X36477829Y-24649410D01*
X36533787Y-24821636D01*
X36533788Y-24821639D01*
X36610201Y-24971605D01*
X36623097Y-25040274D01*
X36596821Y-25105014D01*
X36539715Y-25145272D01*
X36499716Y-25151900D01*
X36160284Y-25151900D01*
X36093245Y-25132215D01*
X36047490Y-25079411D01*
X36037546Y-25010253D01*
X36049799Y-24971605D01*
X36126211Y-24821639D01*
X36126212Y-24821636D01*
X36141557Y-24774409D01*
X36182171Y-24649409D01*
X36196422Y-24559425D01*
X36207527Y-24489321D01*
X36237456Y-24426186D01*
X36296768Y-24389255D01*
X36366630Y-24390253D01*
G37*
%TD.AperFunction*%
%TA.AperFunction,NonConductor*%
G36*
X33826630Y-24390253D02*
G01*
X33884863Y-24428863D01*
X33912473Y-24489321D01*
X33937829Y-24649410D01*
X33993787Y-24821636D01*
X33993788Y-24821639D01*
X34070201Y-24971605D01*
X34070709Y-24974310D01*
X34072510Y-24976389D01*
X34077118Y-25008438D01*
X34083097Y-25040274D01*
X34082062Y-25042823D01*
X34082454Y-25045547D01*
X34068998Y-25075010D01*
X34056821Y-25105014D01*
X34054572Y-25106599D01*
X34053429Y-25109103D01*
X34026184Y-25126612D01*
X33999715Y-25145272D01*
X33996256Y-25145845D01*
X33994651Y-25146877D01*
X33959716Y-25151900D01*
X33909655Y-25151900D01*
X33842616Y-25132215D01*
X33821974Y-25115581D01*
X33625674Y-24919281D01*
X33592189Y-24857958D01*
X33595423Y-24793284D01*
X33642171Y-24649409D01*
X33648593Y-24608862D01*
X33667527Y-24489321D01*
X33697456Y-24426186D01*
X33756768Y-24389255D01*
X33826630Y-24390253D01*
G37*
%TD.AperFunction*%
%TA.AperFunction,NonConductor*%
G36*
X31286630Y-24390253D02*
G01*
X31344863Y-24428863D01*
X31372473Y-24489321D01*
X31397829Y-24649410D01*
X31453787Y-24821636D01*
X31453788Y-24821639D01*
X31503540Y-24919281D01*
X31531579Y-24974310D01*
X31536006Y-24982997D01*
X31637097Y-25122139D01*
X31660577Y-25187946D01*
X31644751Y-25255999D01*
X31594645Y-25304694D01*
X31526167Y-25318569D01*
X31461058Y-25293220D01*
X31449098Y-25282705D01*
X31085674Y-24919281D01*
X31052189Y-24857958D01*
X31055423Y-24793284D01*
X31102171Y-24649409D01*
X31108593Y-24608862D01*
X31127527Y-24489321D01*
X31157456Y-24426186D01*
X31216768Y-24389255D01*
X31286630Y-24390253D01*
G37*
%TD.AperFunction*%
%TA.AperFunction,NonConductor*%
G36*
X43459282Y-28025674D02*
G01*
X43638681Y-28205073D01*
X43653384Y-28232000D01*
X43669977Y-28257819D01*
X43670868Y-28264019D01*
X43672166Y-28266396D01*
X43675000Y-28292754D01*
X43675000Y-28351105D01*
X43655315Y-28418144D01*
X43602511Y-28463899D01*
X43533353Y-28473843D01*
X43494705Y-28461590D01*
X43361639Y-28393788D01*
X43361636Y-28393787D01*
X43189410Y-28337829D01*
X43029321Y-28312473D01*
X42966186Y-28282544D01*
X42929255Y-28223232D01*
X42930253Y-28153370D01*
X42968863Y-28095137D01*
X43029321Y-28067527D01*
X43099425Y-28056422D01*
X43189409Y-28042171D01*
X43333283Y-27995423D01*
X43403124Y-27993429D01*
X43459282Y-28025674D01*
G37*
%TD.AperFunction*%
%TA.AperFunction,NonConductor*%
G36*
X53619281Y-28025674D02*
G01*
X53832981Y-28239374D01*
X53866466Y-28300697D01*
X53869300Y-28327055D01*
X53869300Y-28368754D01*
X53849615Y-28435793D01*
X53796811Y-28481548D01*
X53727653Y-28491492D01*
X53687880Y-28477144D01*
X53687335Y-28478216D01*
X53521639Y-28393788D01*
X53521636Y-28393787D01*
X53349410Y-28337829D01*
X53189321Y-28312473D01*
X53126186Y-28282544D01*
X53089255Y-28223232D01*
X53090253Y-28153370D01*
X53128863Y-28095137D01*
X53189321Y-28067527D01*
X53349409Y-28042171D01*
X53400182Y-28025674D01*
X53493284Y-27995423D01*
X53563123Y-27993429D01*
X53619281Y-28025674D01*
G37*
%TD.AperFunction*%
%TA.AperFunction,NonConductor*%
G36*
X42028314Y-27705594D02*
G01*
X42041647Y-27703678D01*
X42061790Y-27712877D01*
X42083427Y-27717584D01*
X42101152Y-27730852D01*
X42105203Y-27732703D01*
X42111681Y-27738735D01*
X42170500Y-27797554D01*
X42170505Y-27797558D01*
X42258413Y-27861426D01*
X42317006Y-27903996D01*
X42422484Y-27957740D01*
X42478360Y-27986211D01*
X42478363Y-27986212D01*
X42564476Y-28014191D01*
X42650591Y-28042171D01*
X42723639Y-28053740D01*
X42810678Y-28067527D01*
X42873813Y-28097456D01*
X42910744Y-28156768D01*
X42909746Y-28226631D01*
X42871136Y-28284863D01*
X42810678Y-28312473D01*
X42650589Y-28337829D01*
X42478363Y-28393787D01*
X42478360Y-28393788D01*
X42317002Y-28476006D01*
X42170505Y-28582441D01*
X42170500Y-28582445D01*
X42111681Y-28641265D01*
X42050358Y-28674750D01*
X41980666Y-28669766D01*
X41924733Y-28627894D01*
X41900316Y-28562430D01*
X41900000Y-28553584D01*
X41900000Y-27826416D01*
X41906238Y-27805170D01*
X41907818Y-27783082D01*
X41915890Y-27772298D01*
X41919685Y-27759377D01*
X41936418Y-27744877D01*
X41949690Y-27727149D01*
X41962310Y-27722441D01*
X41972489Y-27713622D01*
X41994406Y-27710470D01*
X42015154Y-27702732D01*
X42028314Y-27705594D01*
G37*
%TD.AperFunction*%
%TA.AperFunction,NonConductor*%
G36*
X28746630Y-24390253D02*
G01*
X28804863Y-24428863D01*
X28832473Y-24489321D01*
X28857829Y-24649410D01*
X28913787Y-24821636D01*
X28913788Y-24821639D01*
X28963540Y-24919281D01*
X28991579Y-24974310D01*
X28996006Y-24982997D01*
X29097097Y-25122139D01*
X29120577Y-25187946D01*
X29104751Y-25255999D01*
X29100242Y-25260380D01*
X29156129Y-25239536D01*
X29224402Y-25254388D01*
X29237860Y-25262902D01*
X29326659Y-25327417D01*
X29377006Y-25363996D01*
X29453094Y-25402765D01*
X29538360Y-25446211D01*
X29538363Y-25446212D01*
X29624476Y-25474191D01*
X29710591Y-25502171D01*
X29793429Y-25515291D01*
X29889449Y-25530500D01*
X29889454Y-25530500D01*
X30070551Y-25530500D01*
X30249409Y-25502171D01*
X30300182Y-25485674D01*
X30393284Y-25455423D01*
X30463123Y-25453429D01*
X30519281Y-25485674D01*
X31254719Y-26221112D01*
X31254720Y-26221113D01*
X31329287Y-26295680D01*
X31420613Y-26348407D01*
X31522473Y-26375700D01*
X31627926Y-26375700D01*
X40576000Y-26375700D01*
X40643039Y-26395385D01*
X40688794Y-26448189D01*
X40700000Y-26499700D01*
X40700000Y-28935500D01*
X40680315Y-29002539D01*
X40627511Y-29048294D01*
X40576000Y-29059500D01*
X32737255Y-29059500D01*
X32670216Y-29039815D01*
X32649574Y-29023181D01*
X29077294Y-25450901D01*
X29043809Y-25389578D01*
X29048793Y-25319886D01*
X29074907Y-25285002D01*
X29054645Y-25304694D01*
X28986167Y-25318569D01*
X28921058Y-25293220D01*
X28909098Y-25282705D01*
X28545674Y-24919281D01*
X28512189Y-24857958D01*
X28515423Y-24793284D01*
X28562171Y-24649409D01*
X28568593Y-24608862D01*
X28587527Y-24489321D01*
X28617456Y-24426186D01*
X28676768Y-24389255D01*
X28746630Y-24390253D01*
G37*
%TD.AperFunction*%
%TA.AperFunction,NonConductor*%
G36*
X63586698Y-30361941D02*
G01*
X63597960Y-30362344D01*
X63617908Y-30376194D01*
X63640003Y-30386285D01*
X63647586Y-30396800D01*
X63655352Y-30402193D01*
X63673359Y-30432541D01*
X63688538Y-30469186D01*
X63690607Y-30474181D01*
X63690609Y-30474185D01*
X63778210Y-30605288D01*
X63778213Y-30605292D01*
X63815240Y-30642319D01*
X63848725Y-30703642D01*
X63843741Y-30773334D01*
X63815240Y-30817681D01*
X63778213Y-30854707D01*
X63778210Y-30854711D01*
X63690609Y-30985814D01*
X63690602Y-30985827D01*
X63673361Y-31027453D01*
X63629520Y-31081857D01*
X63563226Y-31103922D01*
X63495527Y-31086643D01*
X63447916Y-31035506D01*
X63434800Y-30980001D01*
X63434800Y-30479998D01*
X63437974Y-30469186D01*
X63436770Y-30457980D01*
X63447643Y-30436258D01*
X63454485Y-30412959D01*
X63463000Y-30405580D01*
X63468046Y-30395501D01*
X63488937Y-30383105D01*
X63507289Y-30367204D01*
X63518441Y-30365600D01*
X63528135Y-30359849D01*
X63552408Y-30360716D01*
X63576447Y-30357260D01*
X63586698Y-30361941D01*
G37*
%TD.AperFunction*%
%TA.AperFunction,NonConductor*%
G36*
X63586698Y-31631941D02*
G01*
X63597960Y-31632344D01*
X63617908Y-31646194D01*
X63640003Y-31656285D01*
X63647586Y-31666800D01*
X63655352Y-31672193D01*
X63673359Y-31702541D01*
X63684093Y-31728455D01*
X63690607Y-31744181D01*
X63690609Y-31744185D01*
X63778210Y-31875288D01*
X63778213Y-31875292D01*
X63815240Y-31912319D01*
X63848725Y-31973642D01*
X63843741Y-32043334D01*
X63815240Y-32087681D01*
X63778213Y-32124707D01*
X63778210Y-32124711D01*
X63690609Y-32255814D01*
X63690602Y-32255827D01*
X63673361Y-32297453D01*
X63629520Y-32351857D01*
X63563226Y-32373922D01*
X63495527Y-32356643D01*
X63447916Y-32305506D01*
X63434800Y-32250001D01*
X63434800Y-31749998D01*
X63437974Y-31739186D01*
X63436770Y-31727980D01*
X63447643Y-31706258D01*
X63454485Y-31682959D01*
X63463000Y-31675580D01*
X63468046Y-31665501D01*
X63488937Y-31653105D01*
X63507289Y-31637204D01*
X63518441Y-31635600D01*
X63528135Y-31629849D01*
X63552408Y-31630716D01*
X63576447Y-31627260D01*
X63586698Y-31631941D01*
G37*
%TD.AperFunction*%
%TA.AperFunction,NonConductor*%
G36*
X62495319Y-29654886D02*
G01*
X62528290Y-29678483D01*
X62597481Y-29747674D01*
X62630966Y-29808997D01*
X62633800Y-29835355D01*
X62633800Y-33479245D01*
X62614115Y-33546284D01*
X62561311Y-33592039D01*
X62492153Y-33601983D01*
X62428597Y-33572958D01*
X62422119Y-33566926D01*
X61926619Y-33071426D01*
X61893134Y-33010103D01*
X61898118Y-32940411D01*
X61939990Y-32884478D01*
X61941304Y-32883508D01*
X61949501Y-32877553D01*
X62077553Y-32749501D01*
X62183996Y-32602994D01*
X62266211Y-32441639D01*
X62322171Y-32269409D01*
X62345089Y-32124711D01*
X62350500Y-32090551D01*
X62350500Y-31909448D01*
X62331800Y-31791389D01*
X62322171Y-31730591D01*
X62289720Y-31630716D01*
X62266212Y-31558363D01*
X62266211Y-31558360D01*
X62207860Y-31443842D01*
X62183996Y-31397006D01*
X62078378Y-31251634D01*
X62077558Y-31250505D01*
X62077554Y-31250500D01*
X61949499Y-31122445D01*
X61949494Y-31122441D01*
X61802997Y-31016006D01*
X61802996Y-31016005D01*
X61802994Y-31016004D01*
X61732335Y-30980001D01*
X61641639Y-30933788D01*
X61641636Y-30933787D01*
X61469410Y-30877829D01*
X61309321Y-30852473D01*
X61246186Y-30822544D01*
X61209255Y-30763232D01*
X61210253Y-30693370D01*
X61248863Y-30635137D01*
X61309321Y-30607527D01*
X61379425Y-30596422D01*
X61469409Y-30582171D01*
X61641639Y-30526211D01*
X61802994Y-30443996D01*
X61949501Y-30337553D01*
X62077553Y-30209501D01*
X62183996Y-30062994D01*
X62266211Y-29901639D01*
X62322171Y-29729409D01*
X62322171Y-29729405D01*
X62322678Y-29727847D01*
X62362114Y-29670171D01*
X62426473Y-29642972D01*
X62495319Y-29654886D01*
G37*
%TD.AperFunction*%
%TA.AperFunction,NonConductor*%
G36*
X63586698Y-32901941D02*
G01*
X63597960Y-32902344D01*
X63617908Y-32916194D01*
X63640003Y-32926285D01*
X63647586Y-32936800D01*
X63655352Y-32942193D01*
X63673359Y-32972541D01*
X63688538Y-33009186D01*
X63690607Y-33014181D01*
X63690609Y-33014185D01*
X63778210Y-33145288D01*
X63778213Y-33145292D01*
X63815240Y-33182319D01*
X63848725Y-33243642D01*
X63843741Y-33313334D01*
X63815240Y-33357681D01*
X63778213Y-33394707D01*
X63778210Y-33394711D01*
X63690609Y-33525814D01*
X63690602Y-33525827D01*
X63673361Y-33567453D01*
X63629520Y-33621857D01*
X63563226Y-33643922D01*
X63495527Y-33626643D01*
X63447916Y-33575506D01*
X63434800Y-33520001D01*
X63434800Y-33019998D01*
X63437974Y-33009186D01*
X63436770Y-32997980D01*
X63447643Y-32976258D01*
X63454485Y-32952959D01*
X63463000Y-32945580D01*
X63468046Y-32935501D01*
X63488937Y-32923105D01*
X63507289Y-32907204D01*
X63518441Y-32905600D01*
X63528135Y-32899849D01*
X63552408Y-32900716D01*
X63576447Y-32897260D01*
X63586698Y-32901941D01*
G37*
%TD.AperFunction*%
%TA.AperFunction,NonConductor*%
G36*
X44001234Y-33221372D02*
G01*
X44057167Y-33263244D01*
X44081584Y-33328708D01*
X44081900Y-33337554D01*
X44081900Y-33800236D01*
X44062215Y-33867275D01*
X44009411Y-33913030D01*
X43940253Y-33922974D01*
X43876697Y-33893949D01*
X43857582Y-33873121D01*
X43797558Y-33790505D01*
X43797554Y-33790500D01*
X43669497Y-33662443D01*
X43664247Y-33658629D01*
X43621584Y-33603297D01*
X43615609Y-33533683D01*
X43648219Y-33471890D01*
X43649375Y-33470717D01*
X43870220Y-33249872D01*
X43931542Y-33216388D01*
X44001234Y-33221372D01*
G37*
%TD.AperFunction*%
%TA.AperFunction,NonConductor*%
G36*
X63586698Y-34171941D02*
G01*
X63597960Y-34172344D01*
X63617908Y-34186194D01*
X63640003Y-34196285D01*
X63647586Y-34206800D01*
X63655352Y-34212193D01*
X63673359Y-34242541D01*
X63684977Y-34270589D01*
X63690607Y-34284181D01*
X63690609Y-34284185D01*
X63778210Y-34415288D01*
X63778213Y-34415292D01*
X63815240Y-34452319D01*
X63848725Y-34513642D01*
X63843741Y-34583334D01*
X63815240Y-34627681D01*
X63778213Y-34664707D01*
X63778210Y-34664711D01*
X63690609Y-34795814D01*
X63690604Y-34795824D01*
X63681549Y-34817686D01*
X63637708Y-34872089D01*
X63571414Y-34894154D01*
X63503714Y-34876875D01*
X63479307Y-34857914D01*
X63471119Y-34849726D01*
X63437634Y-34788403D01*
X63434800Y-34762045D01*
X63434800Y-34289998D01*
X63437974Y-34279186D01*
X63436770Y-34267980D01*
X63447643Y-34246258D01*
X63454485Y-34222959D01*
X63463000Y-34215580D01*
X63468046Y-34205501D01*
X63488937Y-34193105D01*
X63507289Y-34177204D01*
X63518441Y-34175600D01*
X63528135Y-34169849D01*
X63552408Y-34170716D01*
X63576447Y-34167260D01*
X63586698Y-34171941D01*
G37*
%TD.AperFunction*%
%TA.AperFunction,NonConductor*%
G36*
X43795998Y-35415249D02*
G01*
X43844693Y-35465354D01*
X43858568Y-35533832D01*
X43833219Y-35598941D01*
X43822704Y-35610902D01*
X43459281Y-35974325D01*
X43397958Y-36007810D01*
X43333283Y-36004575D01*
X43189411Y-35957829D01*
X43189412Y-35957829D01*
X43029321Y-35932473D01*
X42966186Y-35902544D01*
X42929255Y-35843232D01*
X42930253Y-35773370D01*
X42968863Y-35715137D01*
X43029321Y-35687527D01*
X43099425Y-35676422D01*
X43189409Y-35662171D01*
X43361639Y-35606211D01*
X43522994Y-35523996D01*
X43624620Y-35450161D01*
X43662138Y-35422903D01*
X43727944Y-35399423D01*
X43795998Y-35415249D01*
G37*
%TD.AperFunction*%
%TA.AperFunction,NonConductor*%
G36*
X42105203Y-35352703D02*
G01*
X42111681Y-35358735D01*
X42170500Y-35417554D01*
X42170505Y-35417558D01*
X42275747Y-35494020D01*
X42317006Y-35523996D01*
X42393467Y-35562955D01*
X42478360Y-35606211D01*
X42478363Y-35606212D01*
X42564476Y-35634191D01*
X42650591Y-35662171D01*
X42723401Y-35673703D01*
X42810678Y-35687527D01*
X42873813Y-35717456D01*
X42910744Y-35776768D01*
X42909746Y-35846631D01*
X42871136Y-35904863D01*
X42810678Y-35932473D01*
X42650589Y-35957829D01*
X42478363Y-36013787D01*
X42478360Y-36013788D01*
X42317002Y-36096006D01*
X42170505Y-36202441D01*
X42170500Y-36202445D01*
X42111681Y-36261265D01*
X42050358Y-36294750D01*
X41980666Y-36289766D01*
X41924733Y-36247894D01*
X41900316Y-36182430D01*
X41900000Y-36173584D01*
X41900000Y-35446416D01*
X41919685Y-35379377D01*
X41972489Y-35333622D01*
X42041647Y-35323678D01*
X42105203Y-35352703D01*
G37*
%TD.AperFunction*%
%TA.AperFunction,NonConductor*%
G36*
X55419884Y-34960185D02*
G01*
X55440526Y-34976819D01*
X57546109Y-37082402D01*
X59501527Y-39037819D01*
X59535012Y-39099142D01*
X59530028Y-39168834D01*
X59488156Y-39224767D01*
X59422692Y-39249184D01*
X59413847Y-39249500D01*
X59200143Y-39249500D01*
X59200117Y-39249502D01*
X59175012Y-39252413D01*
X59175008Y-39252415D01*
X59072236Y-39297793D01*
X59027540Y-39342488D01*
X58966216Y-39375972D01*
X58896524Y-39370986D01*
X58852179Y-39342486D01*
X55003715Y-35494022D01*
X55003713Y-35494020D01*
X54958050Y-35467656D01*
X54912389Y-35441293D01*
X54842858Y-35422663D01*
X54810527Y-35414000D01*
X54810526Y-35414000D01*
X54110463Y-35414000D01*
X54043424Y-35394315D01*
X53997669Y-35341511D01*
X53987725Y-35272353D01*
X54010145Y-35217115D01*
X54036255Y-35181175D01*
X54063996Y-35142994D01*
X54132675Y-35008205D01*
X54180650Y-34957409D01*
X54243160Y-34940500D01*
X55352845Y-34940500D01*
X55419884Y-34960185D01*
G37*
%TD.AperFunction*%
%TA.AperFunction,NonConductor*%
G36*
X40619334Y-35112172D02*
G01*
X40675267Y-35154044D01*
X40699684Y-35219508D01*
X40700000Y-35228354D01*
X40700000Y-38421575D01*
X40680315Y-38488614D01*
X40627511Y-38534369D01*
X40558353Y-38544313D01*
X40537683Y-38539506D01*
X40409411Y-38497829D01*
X40409412Y-38497829D01*
X40230551Y-38469500D01*
X40230546Y-38469500D01*
X40049454Y-38469500D01*
X40049449Y-38469500D01*
X39870589Y-38497829D01*
X39698363Y-38553787D01*
X39698360Y-38553788D01*
X39537002Y-38636006D01*
X39390505Y-38742441D01*
X39390500Y-38742445D01*
X39262445Y-38870500D01*
X39262441Y-38870505D01*
X39156006Y-39017002D01*
X39073788Y-39178360D01*
X39073787Y-39178363D01*
X39017829Y-39350589D01*
X38992473Y-39510678D01*
X38962544Y-39573813D01*
X38903232Y-39610744D01*
X38833369Y-39609746D01*
X38775137Y-39571136D01*
X38747527Y-39510678D01*
X38728593Y-39391137D01*
X38722171Y-39350591D01*
X38666211Y-39178361D01*
X38666211Y-39178360D01*
X38637740Y-39122484D01*
X38583996Y-39017006D01*
X38554198Y-38975992D01*
X38477558Y-38870505D01*
X38477554Y-38870500D01*
X38349499Y-38742445D01*
X38349494Y-38742441D01*
X38202997Y-38636006D01*
X38202996Y-38636005D01*
X38202994Y-38636004D01*
X38151300Y-38609664D01*
X38041639Y-38553788D01*
X38041636Y-38553787D01*
X37869410Y-38497829D01*
X37690551Y-38469500D01*
X37690546Y-38469500D01*
X37509454Y-38469500D01*
X37470565Y-38475659D01*
X37401271Y-38466703D01*
X37347820Y-38421706D01*
X37327181Y-38354955D01*
X37345906Y-38287641D01*
X37363482Y-38265509D01*
X40488321Y-35140671D01*
X40549642Y-35107188D01*
X40619334Y-35112172D01*
G37*
%TD.AperFunction*%
%TA.AperFunction,NonConductor*%
G36*
X68092539Y-35370185D02*
G01*
X68138294Y-35422989D01*
X68149500Y-35474500D01*
X68149500Y-39303456D01*
X68129815Y-39370495D01*
X68113181Y-39391137D01*
X66891137Y-40613181D01*
X66829814Y-40646666D01*
X66803456Y-40649500D01*
X64205624Y-40649500D01*
X64138585Y-40629815D01*
X64092830Y-40577011D01*
X64082886Y-40507853D01*
X64102522Y-40456609D01*
X64170080Y-40355501D01*
X64170080Y-40355500D01*
X64170084Y-40355495D01*
X64226658Y-40218913D01*
X64236096Y-40171462D01*
X64255500Y-40073920D01*
X64255500Y-39926079D01*
X64226659Y-39781092D01*
X64226658Y-39781091D01*
X64226658Y-39781087D01*
X64187525Y-39686611D01*
X64170087Y-39644511D01*
X64170080Y-39644498D01*
X64087951Y-39521584D01*
X64087948Y-39521580D01*
X63983419Y-39417051D01*
X63983415Y-39417048D01*
X63860501Y-39334919D01*
X63860488Y-39334912D01*
X63723917Y-39278343D01*
X63723907Y-39278340D01*
X63578920Y-39249500D01*
X63578918Y-39249500D01*
X63431082Y-39249500D01*
X63431081Y-39249500D01*
X63404177Y-39254851D01*
X63334585Y-39248622D01*
X63292307Y-39220914D01*
X62788519Y-38717126D01*
X62755034Y-38655803D01*
X62752200Y-38629445D01*
X62752200Y-35562955D01*
X62771885Y-35495916D01*
X62824689Y-35450161D01*
X62893847Y-35440217D01*
X62957403Y-35469242D01*
X62963881Y-35475274D01*
X63563181Y-36074574D01*
X63596666Y-36135897D01*
X63599500Y-36162255D01*
X63599500Y-36989856D01*
X63599502Y-36989882D01*
X63602413Y-37014987D01*
X63602415Y-37014991D01*
X63647793Y-37117764D01*
X63647794Y-37117765D01*
X63727235Y-37197206D01*
X63830009Y-37242585D01*
X63855135Y-37245500D01*
X65040710Y-37245499D01*
X65107749Y-37265184D01*
X65153504Y-37317987D01*
X65163448Y-37387146D01*
X65141028Y-37442384D01*
X65016659Y-37613563D01*
X64909433Y-37824003D01*
X64836446Y-38048631D01*
X64799500Y-38281902D01*
X64799500Y-38518097D01*
X64836446Y-38751368D01*
X64909433Y-38975996D01*
X64968853Y-39092613D01*
X65016657Y-39186433D01*
X65155483Y-39377510D01*
X65322490Y-39544517D01*
X65513567Y-39683343D01*
X65603804Y-39729321D01*
X65724003Y-39790566D01*
X65724005Y-39790566D01*
X65724008Y-39790568D01*
X65844412Y-39829689D01*
X65948631Y-39863553D01*
X66181903Y-39900500D01*
X66181908Y-39900500D01*
X66418097Y-39900500D01*
X66651368Y-39863553D01*
X66875992Y-39790568D01*
X67086433Y-39683343D01*
X67277510Y-39544517D01*
X67444517Y-39377510D01*
X67583343Y-39186433D01*
X67690568Y-38975992D01*
X67763553Y-38751368D01*
X67764967Y-38742441D01*
X67800500Y-38518097D01*
X67800500Y-38281902D01*
X67763553Y-38048631D01*
X67712888Y-37892703D01*
X67690568Y-37824008D01*
X67690566Y-37824005D01*
X67690566Y-37824003D01*
X67583342Y-37613566D01*
X67583340Y-37613563D01*
X67444517Y-37422490D01*
X67277510Y-37255483D01*
X67086433Y-37116657D01*
X67019204Y-37082402D01*
X66875996Y-37009433D01*
X66651368Y-36936446D01*
X66418097Y-36899500D01*
X66418092Y-36899500D01*
X66181908Y-36899500D01*
X66181903Y-36899500D01*
X65948631Y-36936446D01*
X65724000Y-37009434D01*
X65580793Y-37082402D01*
X65512124Y-37095298D01*
X65447384Y-37069021D01*
X65407127Y-37011915D01*
X65400499Y-36971922D01*
X65400499Y-35900136D01*
X65400497Y-35900117D01*
X65397586Y-35875012D01*
X65397585Y-35875010D01*
X65397585Y-35875009D01*
X65352206Y-35772235D01*
X65352205Y-35772233D01*
X65311158Y-35731186D01*
X65277674Y-35669863D01*
X65282659Y-35600171D01*
X65286195Y-35591669D01*
X65290291Y-35582767D01*
X65309394Y-35554179D01*
X65362970Y-35424831D01*
X65363969Y-35422663D01*
X65385407Y-35398065D01*
X65405893Y-35372644D01*
X65408247Y-35371860D01*
X65409877Y-35369991D01*
X65441206Y-35360890D01*
X65472187Y-35350579D01*
X65476614Y-35350500D01*
X68025500Y-35350500D01*
X68092539Y-35370185D01*
G37*
%TD.AperFunction*%
%TA.AperFunction,NonConductor*%
G36*
X51412534Y-31796373D02*
G01*
X51468467Y-31838245D01*
X51492884Y-31903709D01*
X51493200Y-31912555D01*
X51493200Y-34933373D01*
X51493200Y-35038827D01*
X51506846Y-35089757D01*
X51520493Y-35140689D01*
X51521824Y-35142994D01*
X51573220Y-35232013D01*
X51573221Y-35232014D01*
X51573222Y-35232015D01*
X52351295Y-36010087D01*
X52384780Y-36071410D01*
X52379796Y-36141101D01*
X52337924Y-36197035D01*
X52336511Y-36198078D01*
X52330502Y-36202444D01*
X52330496Y-36202449D01*
X52202445Y-36330500D01*
X52202441Y-36330505D01*
X52096006Y-36477002D01*
X52013788Y-36638360D01*
X52013787Y-36638363D01*
X51957829Y-36810589D01*
X51929500Y-36989448D01*
X51929500Y-37170551D01*
X51957829Y-37349410D01*
X52013787Y-37521636D01*
X52013788Y-37521639D01*
X52096006Y-37682997D01*
X52202441Y-37829494D01*
X52202445Y-37829499D01*
X52330500Y-37957554D01*
X52330505Y-37957558D01*
X52455858Y-38048631D01*
X52477006Y-38063996D01*
X52582484Y-38117740D01*
X52638360Y-38146211D01*
X52638363Y-38146212D01*
X52724476Y-38174191D01*
X52810591Y-38202171D01*
X52893429Y-38215291D01*
X52989449Y-38230500D01*
X52989454Y-38230500D01*
X53170551Y-38230500D01*
X53257259Y-38216765D01*
X53349409Y-38202171D01*
X53521639Y-38146211D01*
X53682994Y-38063996D01*
X53829501Y-37957553D01*
X53957553Y-37829501D01*
X54063996Y-37682994D01*
X54146211Y-37521639D01*
X54202171Y-37349409D01*
X54219090Y-37242584D01*
X54230500Y-37170551D01*
X54230500Y-36989448D01*
X54214019Y-36885397D01*
X54202171Y-36810591D01*
X54146211Y-36638361D01*
X54146211Y-36638360D01*
X54117740Y-36582484D01*
X54063996Y-36477006D01*
X54059632Y-36471000D01*
X54016684Y-36411885D01*
X53993204Y-36346078D01*
X54009030Y-36278025D01*
X54059136Y-36229330D01*
X54117002Y-36215000D01*
X54540545Y-36215000D01*
X54607584Y-36234685D01*
X54628226Y-36251319D01*
X58697387Y-40320480D01*
X58758045Y-40355501D01*
X58782289Y-40369499D01*
X58788712Y-40373207D01*
X58853559Y-40390582D01*
X58871423Y-40401470D01*
X58891327Y-40407910D01*
X58900655Y-40419288D01*
X58913220Y-40426947D01*
X58922360Y-40445764D01*
X58935624Y-40461942D01*
X58942068Y-40486333D01*
X58943749Y-40489793D01*
X58944640Y-40496066D01*
X58946007Y-40507853D01*
X58946397Y-40511209D01*
X58934570Y-40580070D01*
X58887391Y-40631606D01*
X58823223Y-40649500D01*
X53846204Y-40649500D01*
X53779165Y-40629815D01*
X53733410Y-40577011D01*
X53723466Y-40507853D01*
X53752491Y-40444297D01*
X53758523Y-40437819D01*
X53805760Y-40390582D01*
X53879414Y-40316928D01*
X53981232Y-40176788D01*
X54059873Y-40022445D01*
X54113402Y-39857701D01*
X54140500Y-39686611D01*
X54140500Y-39513389D01*
X54113402Y-39342299D01*
X54059873Y-39177555D01*
X53981232Y-39023212D01*
X53879414Y-38883072D01*
X53756928Y-38760586D01*
X53616788Y-38658768D01*
X53462445Y-38580127D01*
X53297701Y-38526598D01*
X53297699Y-38526597D01*
X53297698Y-38526597D01*
X53166271Y-38505781D01*
X53126611Y-38499500D01*
X52953389Y-38499500D01*
X52913728Y-38505781D01*
X52782302Y-38526597D01*
X52617552Y-38580128D01*
X52463211Y-38658768D01*
X52383256Y-38716859D01*
X52323072Y-38760586D01*
X52323070Y-38760588D01*
X52323069Y-38760588D01*
X52200588Y-38883069D01*
X52200588Y-38883070D01*
X52200586Y-38883072D01*
X52156859Y-38943256D01*
X52098768Y-39023211D01*
X52020128Y-39177552D01*
X51966597Y-39342302D01*
X51939500Y-39513389D01*
X51939500Y-39686610D01*
X51962871Y-39834174D01*
X51966598Y-39857701D01*
X52020127Y-40022445D01*
X52098768Y-40176788D01*
X52200586Y-40316928D01*
X52200588Y-40316930D01*
X52321477Y-40437819D01*
X52354962Y-40499142D01*
X52349978Y-40568834D01*
X52308106Y-40624767D01*
X52242642Y-40649184D01*
X52233796Y-40649500D01*
X49168625Y-40649500D01*
X49101586Y-40629815D01*
X49055831Y-40577011D01*
X49045887Y-40507853D01*
X49055191Y-40475412D01*
X49057585Y-40469991D01*
X49060500Y-40444865D01*
X49060499Y-38755136D01*
X49060062Y-38751368D01*
X49057586Y-38730012D01*
X49057585Y-38730010D01*
X49057585Y-38730009D01*
X49012206Y-38627235D01*
X48932765Y-38547794D01*
X48924881Y-38544313D01*
X48829992Y-38502415D01*
X48804868Y-38499500D01*
X48804865Y-38499500D01*
X48484500Y-38499500D01*
X48417461Y-38479815D01*
X48371706Y-38427011D01*
X48360500Y-38375500D01*
X48360500Y-34797255D01*
X48380185Y-34730216D01*
X48396819Y-34709574D01*
X51281519Y-31824874D01*
X51342842Y-31791389D01*
X51412534Y-31796373D01*
G37*
%TD.AperFunction*%
%TA.AperFunction,NonConductor*%
G36*
X52250123Y-23370185D02*
G01*
X52295878Y-23422989D01*
X52305822Y-23492147D01*
X52276797Y-23555703D01*
X52270765Y-23562181D01*
X52202445Y-23630500D01*
X52202441Y-23630505D01*
X52096006Y-23777002D01*
X52013788Y-23938360D01*
X52013787Y-23938363D01*
X51957829Y-24110589D01*
X51929500Y-24289448D01*
X51929500Y-24470551D01*
X51957829Y-24649410D01*
X52013787Y-24821636D01*
X52013788Y-24821639D01*
X52079654Y-24950905D01*
X52092550Y-25019574D01*
X52066274Y-25084314D01*
X52009168Y-25124572D01*
X51969169Y-25131200D01*
X48512939Y-25131200D01*
X48512923Y-25131199D01*
X48505327Y-25131199D01*
X48399873Y-25131199D01*
X48331966Y-25149395D01*
X48298012Y-25158493D01*
X48206684Y-25211222D01*
X47186026Y-26231881D01*
X47124703Y-26265366D01*
X47098345Y-26268200D01*
X47036543Y-26268200D01*
X46883816Y-26309123D01*
X46883809Y-26309126D01*
X46746890Y-26388175D01*
X46746882Y-26388181D01*
X46635081Y-26499982D01*
X46635075Y-26499990D01*
X46556026Y-26636909D01*
X46556023Y-26636916D01*
X46515100Y-26789643D01*
X46515100Y-26947757D01*
X46546128Y-27063553D01*
X46556023Y-27100483D01*
X46556026Y-27100490D01*
X46635075Y-27237409D01*
X46635079Y-27237414D01*
X46635080Y-27237416D01*
X46746884Y-27349220D01*
X46746886Y-27349221D01*
X46746890Y-27349224D01*
X46793537Y-27376155D01*
X46883816Y-27428277D01*
X47036543Y-27469200D01*
X47036545Y-27469200D01*
X47194655Y-27469200D01*
X47194657Y-27469200D01*
X47347384Y-27428277D01*
X47484316Y-27349220D01*
X47596120Y-27237416D01*
X47675177Y-27100484D01*
X47716100Y-26947757D01*
X47716100Y-26885954D01*
X47735785Y-26818915D01*
X47752419Y-26798273D01*
X48582173Y-25968519D01*
X48643496Y-25935034D01*
X48669854Y-25932200D01*
X52141384Y-25932200D01*
X52208423Y-25951885D01*
X52254178Y-26004689D01*
X52264122Y-26073847D01*
X52235097Y-26137403D01*
X52229065Y-26143881D01*
X52202445Y-26170500D01*
X52202441Y-26170505D01*
X52096006Y-26317002D01*
X52013788Y-26478360D01*
X52013787Y-26478363D01*
X51957829Y-26650589D01*
X51929500Y-26829448D01*
X51929500Y-27010551D01*
X51957829Y-27189410D01*
X52013787Y-27361636D01*
X52013788Y-27361639D01*
X52047741Y-27428273D01*
X52092189Y-27515507D01*
X52096006Y-27522997D01*
X52202441Y-27669494D01*
X52202445Y-27669499D01*
X52330500Y-27797554D01*
X52330505Y-27797558D01*
X52418413Y-27861426D01*
X52477006Y-27903996D01*
X52582484Y-27957740D01*
X52638360Y-27986211D01*
X52638363Y-27986212D01*
X52724476Y-28014191D01*
X52810591Y-28042171D01*
X52883639Y-28053740D01*
X52970678Y-28067527D01*
X53033813Y-28097456D01*
X53070744Y-28156768D01*
X53069746Y-28226631D01*
X53031136Y-28284863D01*
X52970678Y-28312473D01*
X52810589Y-28337829D01*
X52638363Y-28393787D01*
X52638360Y-28393788D01*
X52477002Y-28476006D01*
X52330505Y-28582441D01*
X52330500Y-28582445D01*
X52202445Y-28710500D01*
X52202441Y-28710505D01*
X52096006Y-28857002D01*
X52013788Y-29018360D01*
X52013787Y-29018363D01*
X51957829Y-29190589D01*
X51929500Y-29369448D01*
X51929500Y-29550551D01*
X51957829Y-29729410D01*
X52004575Y-29873281D01*
X52006570Y-29943122D01*
X51974325Y-29999280D01*
X47639522Y-34334084D01*
X47639520Y-34334087D01*
X47586793Y-34425410D01*
X47580351Y-34449454D01*
X47576023Y-34465606D01*
X47576023Y-34465607D01*
X47576022Y-34465606D01*
X47559500Y-34527269D01*
X47559500Y-38375500D01*
X47539815Y-38442539D01*
X47487011Y-38488294D01*
X47435500Y-38499500D01*
X47115143Y-38499500D01*
X47115117Y-38499502D01*
X47090012Y-38502413D01*
X47090008Y-38502415D01*
X46987235Y-38547793D01*
X46907794Y-38627234D01*
X46862415Y-38730006D01*
X46862415Y-38730008D01*
X46859500Y-38755131D01*
X46859500Y-40444856D01*
X46859502Y-40444882D01*
X46862413Y-40469987D01*
X46862414Y-40469989D01*
X46864810Y-40475415D01*
X46873881Y-40544693D01*
X46844057Y-40607878D01*
X46784807Y-40644908D01*
X46751375Y-40649500D01*
X42024000Y-40649500D01*
X41956961Y-40629815D01*
X41911206Y-40577011D01*
X41900000Y-40525500D01*
X41900000Y-37986416D01*
X41919685Y-37919377D01*
X41972489Y-37873622D01*
X42041647Y-37863678D01*
X42105203Y-37892703D01*
X42111681Y-37898735D01*
X42170500Y-37957554D01*
X42170505Y-37957558D01*
X42295858Y-38048631D01*
X42317006Y-38063996D01*
X42422484Y-38117740D01*
X42478360Y-38146211D01*
X42478363Y-38146212D01*
X42564476Y-38174191D01*
X42650591Y-38202171D01*
X42733429Y-38215291D01*
X42829449Y-38230500D01*
X42829454Y-38230500D01*
X43010551Y-38230500D01*
X43097259Y-38216765D01*
X43189409Y-38202171D01*
X43361639Y-38146211D01*
X43522994Y-38063996D01*
X43669501Y-37957553D01*
X43797553Y-37829501D01*
X43903996Y-37682994D01*
X43986211Y-37521639D01*
X44042171Y-37349409D01*
X44059090Y-37242584D01*
X44070500Y-37170551D01*
X44070500Y-36989448D01*
X44054019Y-36885397D01*
X44042171Y-36810591D01*
X43995424Y-36666716D01*
X43993429Y-36596875D01*
X44025672Y-36540719D01*
X44802880Y-35763513D01*
X44855607Y-35672188D01*
X44882900Y-35570327D01*
X44882900Y-35464873D01*
X44882900Y-26761773D01*
X44874389Y-26730009D01*
X44855607Y-26659912D01*
X44802880Y-26568587D01*
X43913802Y-25679509D01*
X43880317Y-25618186D01*
X43885301Y-25548494D01*
X43927173Y-25492561D01*
X43933426Y-25488904D01*
X43933286Y-25488699D01*
X43942760Y-25482207D01*
X43942765Y-25482206D01*
X44022206Y-25402765D01*
X44067585Y-25299991D01*
X44070500Y-25274865D01*
X44070499Y-23485136D01*
X44070499Y-23485134D01*
X44070298Y-23481658D01*
X44086080Y-23413594D01*
X44136154Y-23364867D01*
X44194091Y-23350500D01*
X52183084Y-23350500D01*
X52250123Y-23370185D01*
G37*
%TD.AperFunction*%
%TA.AperFunction,NonConductor*%
G36*
X38906630Y-39630253D02*
G01*
X38964863Y-39668863D01*
X38992473Y-39729321D01*
X39017829Y-39889410D01*
X39073787Y-40061636D01*
X39073788Y-40061639D01*
X39156006Y-40222997D01*
X39262441Y-40369494D01*
X39262445Y-40369499D01*
X39330765Y-40437819D01*
X39364250Y-40499142D01*
X39359266Y-40568834D01*
X39317394Y-40624767D01*
X39251930Y-40649184D01*
X39243084Y-40649500D01*
X38496916Y-40649500D01*
X38429877Y-40629815D01*
X38384122Y-40577011D01*
X38374178Y-40507853D01*
X38403203Y-40444297D01*
X38409235Y-40437819D01*
X38439144Y-40407910D01*
X38477553Y-40369501D01*
X38583996Y-40222994D01*
X38666211Y-40061639D01*
X38722171Y-39889409D01*
X38737826Y-39790566D01*
X38747527Y-39729321D01*
X38777456Y-39666186D01*
X38836768Y-39629255D01*
X38906630Y-39630253D01*
G37*
%TD.AperFunction*%
%TA.AperFunction,NonConductor*%
G36*
X36366630Y-39630253D02*
G01*
X36424863Y-39668863D01*
X36452473Y-39729321D01*
X36477829Y-39889410D01*
X36533787Y-40061636D01*
X36533788Y-40061639D01*
X36616006Y-40222997D01*
X36722441Y-40369494D01*
X36722445Y-40369499D01*
X36790765Y-40437819D01*
X36824250Y-40499142D01*
X36819266Y-40568834D01*
X36777394Y-40624767D01*
X36711930Y-40649184D01*
X36703084Y-40649500D01*
X35956916Y-40649500D01*
X35889877Y-40629815D01*
X35844122Y-40577011D01*
X35834178Y-40507853D01*
X35863203Y-40444297D01*
X35869235Y-40437819D01*
X35899144Y-40407910D01*
X35937553Y-40369501D01*
X36043996Y-40222994D01*
X36126211Y-40061639D01*
X36182171Y-39889409D01*
X36197826Y-39790566D01*
X36207527Y-39729321D01*
X36237456Y-39666186D01*
X36296768Y-39629255D01*
X36366630Y-39630253D01*
G37*
%TD.AperFunction*%
%TA.AperFunction,NonConductor*%
G36*
X33826630Y-39630253D02*
G01*
X33884863Y-39668863D01*
X33912473Y-39729321D01*
X33937829Y-39889410D01*
X33993787Y-40061636D01*
X33993788Y-40061639D01*
X34076006Y-40222997D01*
X34182441Y-40369494D01*
X34182445Y-40369499D01*
X34250765Y-40437819D01*
X34284250Y-40499142D01*
X34279266Y-40568834D01*
X34237394Y-40624767D01*
X34171930Y-40649184D01*
X34163084Y-40649500D01*
X33416916Y-40649500D01*
X33349877Y-40629815D01*
X33304122Y-40577011D01*
X33294178Y-40507853D01*
X33323203Y-40444297D01*
X33329235Y-40437819D01*
X33359144Y-40407910D01*
X33397553Y-40369501D01*
X33503996Y-40222994D01*
X33586211Y-40061639D01*
X33642171Y-39889409D01*
X33657826Y-39790566D01*
X33667527Y-39729321D01*
X33697456Y-39666186D01*
X33756768Y-39629255D01*
X33826630Y-39630253D01*
G37*
%TD.AperFunction*%
%TA.AperFunction,NonConductor*%
G36*
X31286630Y-39630253D02*
G01*
X31344863Y-39668863D01*
X31372473Y-39729321D01*
X31397829Y-39889410D01*
X31453787Y-40061636D01*
X31453788Y-40061639D01*
X31536006Y-40222997D01*
X31642441Y-40369494D01*
X31642445Y-40369499D01*
X31710765Y-40437819D01*
X31744250Y-40499142D01*
X31739266Y-40568834D01*
X31697394Y-40624767D01*
X31631930Y-40649184D01*
X31623084Y-40649500D01*
X30876916Y-40649500D01*
X30809877Y-40629815D01*
X30764122Y-40577011D01*
X30754178Y-40507853D01*
X30783203Y-40444297D01*
X30789235Y-40437819D01*
X30819144Y-40407910D01*
X30857553Y-40369501D01*
X30963996Y-40222994D01*
X31046211Y-40061639D01*
X31102171Y-39889409D01*
X31117826Y-39790566D01*
X31127527Y-39729321D01*
X31157456Y-39666186D01*
X31216768Y-39629255D01*
X31286630Y-39630253D01*
G37*
%TD.AperFunction*%
%TA.AperFunction,NonConductor*%
G36*
X28746630Y-39630253D02*
G01*
X28804863Y-39668863D01*
X28832473Y-39729321D01*
X28857829Y-39889410D01*
X28913787Y-40061636D01*
X28913788Y-40061639D01*
X28996006Y-40222997D01*
X29102441Y-40369494D01*
X29102445Y-40369499D01*
X29170765Y-40437819D01*
X29204250Y-40499142D01*
X29199266Y-40568834D01*
X29157394Y-40624767D01*
X29091930Y-40649184D01*
X29083084Y-40649500D01*
X28336916Y-40649500D01*
X28269877Y-40629815D01*
X28224122Y-40577011D01*
X28214178Y-40507853D01*
X28243203Y-40444297D01*
X28249235Y-40437819D01*
X28279144Y-40407910D01*
X28317553Y-40369501D01*
X28423996Y-40222994D01*
X28506211Y-40061639D01*
X28562171Y-39889409D01*
X28577826Y-39790566D01*
X28587527Y-39729321D01*
X28617456Y-39666186D01*
X28676768Y-39629255D01*
X28746630Y-39630253D01*
G37*
%TD.AperFunction*%
%TA.AperFunction,NonConductor*%
G36*
X26206630Y-39630253D02*
G01*
X26264863Y-39668863D01*
X26292473Y-39729321D01*
X26317829Y-39889410D01*
X26373787Y-40061636D01*
X26373788Y-40061639D01*
X26456006Y-40222997D01*
X26562441Y-40369494D01*
X26562445Y-40369499D01*
X26630765Y-40437819D01*
X26664250Y-40499142D01*
X26659266Y-40568834D01*
X26617394Y-40624767D01*
X26551930Y-40649184D01*
X26543084Y-40649500D01*
X25796916Y-40649500D01*
X25729877Y-40629815D01*
X25684122Y-40577011D01*
X25674178Y-40507853D01*
X25703203Y-40444297D01*
X25709235Y-40437819D01*
X25739144Y-40407910D01*
X25777553Y-40369501D01*
X25883996Y-40222994D01*
X25966211Y-40061639D01*
X26022171Y-39889409D01*
X26037826Y-39790566D01*
X26047527Y-39729321D01*
X26077456Y-39666186D01*
X26136768Y-39629255D01*
X26206630Y-39630253D01*
G37*
%TD.AperFunction*%
%TA.AperFunction,NonConductor*%
G36*
X23666630Y-39630253D02*
G01*
X23724863Y-39668863D01*
X23752473Y-39729321D01*
X23777829Y-39889410D01*
X23833787Y-40061636D01*
X23833788Y-40061639D01*
X23916006Y-40222997D01*
X24022441Y-40369494D01*
X24022445Y-40369499D01*
X24090765Y-40437819D01*
X24124250Y-40499142D01*
X24119266Y-40568834D01*
X24077394Y-40624767D01*
X24011930Y-40649184D01*
X24003084Y-40649500D01*
X23256916Y-40649500D01*
X23189877Y-40629815D01*
X23144122Y-40577011D01*
X23134178Y-40507853D01*
X23163203Y-40444297D01*
X23169235Y-40437819D01*
X23199144Y-40407910D01*
X23237553Y-40369501D01*
X23343996Y-40222994D01*
X23426211Y-40061639D01*
X23482171Y-39889409D01*
X23497826Y-39790566D01*
X23507527Y-39729321D01*
X23537456Y-39666186D01*
X23596768Y-39629255D01*
X23666630Y-39630253D01*
G37*
%TD.AperFunction*%
M02*
