%TF.GenerationSoftware,KiCad,Pcbnew,9.0.8+dfsg-1*%
%TF.CreationDate,2026-08-26T15:26:16+00:00*%
%TF.ProjectId,panasonic-p11-revG,70616e61-736f-46e6-9963-2d7031312d72,rev?*%
%TF.SameCoordinates,Original*%
%TF.FileFunction,Copper,L1,Top*%
%TF.FilePolarity,Positive*%
%FSLAX46Y46*%
G04 Gerber Fmt 4.6, Leading zero omitted, Abs format (unit mm)*
G04 Created by KiCad (PCBNEW 9.0.8+dfsg-1) date 2026-08-26 15:26:16*
%MOMM*%
%LPD*%
G01*
G04 APERTURE LIST*
%TA.AperFunction,ComponentPad*%
%ADD10R,1.700000X1.700000*%
%TD*%
%TA.AperFunction,ComponentPad*%
%ADD11C,1.700000*%
%TD*%
%TA.AperFunction,ComponentPad*%
%ADD12R,1.200000X1.000000*%
%TD*%
%TA.AperFunction,ComponentPad*%
%ADD13O,1.200000X1.000000*%
%TD*%
%TA.AperFunction,ComponentPad*%
%ADD14R,1.600000X1.600000*%
%TD*%
%TA.AperFunction,ComponentPad*%
%ADD15C,1.600000*%
%TD*%
%TA.AperFunction,ViaPad*%
%ADD16C,0.600000*%
%TD*%
%TA.AperFunction,Conductor*%
%ADD17C,0.200000*%
%TD*%
G04 APERTURE END LIST*
D10*
%TO.P,ESP32-C3,1*%
%TO.N,+5V*%
X22360000Y-24380000D03*
D11*
%TO.P,ESP32-C3,2*%
%TO.N,GND*%
X24900000Y-24380000D03*
%TO.P,ESP32-C3,3*%
%TO.N,+3V3*%
X27440000Y-24380000D03*
%TO.P,ESP32-C3,4*%
%TO.N,ESP_RX*%
X29980000Y-24380000D03*
%TO.P,ESP32-C3,5*%
%TO.N,ESP_TX*%
X32520000Y-24380000D03*
%TO.P,ESP32-C3,6*%
%TO.N,N/C*%
X35060000Y-24380000D03*
%TO.P,ESP32-C3,7*%
%TO.N,IO1*%
X37600000Y-24380000D03*
%TO.P,ESP32-C3,8*%
%TO.N,IO0*%
X40140000Y-24380000D03*
%TO.P,ESP32-C3,9*%
%TO.N,N/C*%
X22360000Y-39620000D03*
%TO.P,ESP32-C3,10*%
X24900000Y-39620000D03*
%TO.P,ESP32-C3,11*%
%TO.N,IO7*%
X27440000Y-39620000D03*
%TO.P,ESP32-C3,12*%
%TO.N,N/C*%
X29980000Y-39620000D03*
%TO.P,ESP32-C3,13*%
X32520000Y-39620000D03*
%TO.P,ESP32-C3,14*%
%TO.N,IO10*%
X35060000Y-39620000D03*
%TO.P,ESP32-C3,15*%
%TO.N,N/C*%
X37600000Y-39620000D03*
%TO.P,ESP32-C3,16*%
X40140000Y-39620000D03*
%TD*%
%TO.P,BSS138,H1*%
%TO.N,AC_RX_5V*%
X54080000Y-24380000D03*
%TO.P,BSS138,H2*%
%TO.N,IO10_5V*%
X54080000Y-26920000D03*
%TO.P,BSS138,H3*%
%TO.N,+5V*%
X54080000Y-29460000D03*
%TO.P,BSS138,H4*%
%TO.N,GND*%
X54080000Y-32000000D03*
%TO.P,BSS138,H5*%
%TO.N,IO7_5V*%
X54080000Y-34540000D03*
%TO.P,BSS138,H6*%
%TO.N,AC_TX_5V*%
X54080000Y-37080000D03*
D10*
%TO.P,BSS138,L1*%
%TO.N,ESP_TX*%
X43920000Y-24380000D03*
D11*
%TO.P,BSS138,L2*%
%TO.N,IO10*%
X43920000Y-26920000D03*
%TO.P,BSS138,L3*%
%TO.N,+3V3*%
X43920000Y-29460000D03*
%TO.P,BSS138,L4*%
%TO.N,GND*%
X43920000Y-32000000D03*
%TO.P,BSS138,L5*%
%TO.N,IO7*%
X43920000Y-34540000D03*
%TO.P,BSS138,L6*%
%TO.N,ESP_RX*%
X43920000Y-37080000D03*
%TD*%
D12*
%TO.P,J11,1*%
%TO.N,AC_5V*%
X64500000Y-36445000D03*
D13*
%TO.P,J11,2*%
%TO.N,AC_TX_5V*%
X64500000Y-35175000D03*
%TO.P,J11,3*%
%TO.N,AC_RX_5V*%
X64500000Y-33905000D03*
%TO.P,J11,4*%
%TO.N,N/C*%
X64500000Y-32635000D03*
%TO.P,J11,5*%
X64500000Y-31365000D03*
%TO.P,J11,6*%
X64500000Y-30095000D03*
%TO.P,J11,7*%
X64500000Y-28825000D03*
%TO.P,J11,8*%
%TO.N,GND*%
X64500000Y-27555000D03*
%TD*%
D14*
%TO.P,D1,1*%
%TO.N,+5V*%
X47960000Y-39600000D03*
D15*
%TO.P,D1,2*%
%TO.N,AC_5V*%
X53040000Y-39600000D03*
%TD*%
D14*
%TO.P,C1,1*%
%TO.N,+5V*%
X56100000Y-27600000D03*
D15*
%TO.P,C1,2*%
%TO.N,GND*%
X58100000Y-27600000D03*
%TD*%
D10*
%TO.P,J1,1*%
%TO.N,IO1*%
X56190000Y-24300000D03*
D11*
%TO.P,J1,2*%
%TO.N,IO0*%
X58730000Y-24300000D03*
%TO.P,J1,3*%
%TO.N,GND*%
X61270000Y-24300000D03*
%TO.P,J1,4*%
%TO.N,+3V3*%
X63810000Y-24300000D03*
%TD*%
D10*
%TO.P,J2,1*%
%TO.N,IO10_5V*%
X56190000Y-39700000D03*
D11*
%TO.P,J2,2*%
%TO.N,IO7_5V*%
X58730000Y-39700000D03*
%TO.P,J2,3*%
%TO.N,GND*%
X61270000Y-39700000D03*
%TO.P,J2,4*%
%TO.N,+5V*%
X63810000Y-39700000D03*
%TD*%
D10*
%TO.P,CNT,1*%
%TO.N,AC_5V*%
X61200000Y-26920000D03*
D11*
%TO.P,CNT,2*%
%TO.N,AC_TX_5V*%
X61200000Y-29460000D03*
%TO.P,CNT,3*%
%TO.N,AC_RX_5V*%
X61200000Y-32000000D03*
%TO.P,CNT,4*%
%TO.N,N/C*%
X61200000Y-34540000D03*
%TO.P,CNT,5*%
%TO.N,GND*%
X61200000Y-37080000D03*
%TD*%
D16*
%TO.N,+5V*%
X59090000Y-34217200D03*
%TO.N,AC_RX_5V*%
X52052100Y-26385200D03*
X52279500Y-29814100D03*
%TO.N,IO0*%
X39332000Y-26149400D03*
X39004100Y-30610500D03*
X58592100Y-26288500D03*
%TD*%
D17*
%TO.N,GND*%
X54080000Y-32000000D02*
X43920000Y-32000000D01*
X43920000Y-32000000D02*
X32520000Y-32000000D01*
X32520000Y-32000000D02*
X24900000Y-24380000D01*
%TO.N,+5V*%
X52833600Y-35828100D02*
X49061700Y-39600000D01*
X61632200Y-33270000D02*
X60037200Y-33270000D01*
X62397100Y-32505100D02*
X61632200Y-33270000D01*
X48024400Y-36997400D02*
X44297000Y-33270000D01*
X44297000Y-33270000D02*
X32113800Y-33270000D01*
X23511700Y-24667900D02*
X23511700Y-24380000D01*
X61662200Y-30748700D02*
X62397100Y-31483600D01*
X58801400Y-29460000D02*
X60090100Y-30748700D01*
X48024400Y-39600000D02*
X49061700Y-39600000D01*
X62397100Y-31483600D02*
X62397100Y-32505100D01*
X47960000Y-39600000D02*
X48024400Y-39600000D01*
X32113800Y-33270000D02*
X23511700Y-24667900D01*
X60037200Y-33270000D02*
X59090000Y-34217200D01*
X60090100Y-30748700D02*
X61662200Y-30748700D01*
X22360000Y-24380000D02*
X23511700Y-24380000D01*
X57479100Y-35828100D02*
X52833600Y-35828100D01*
X48024400Y-39600000D02*
X48024400Y-36997400D01*
X59090000Y-34217200D02*
X57479100Y-35828100D01*
X54080000Y-29460000D02*
X58801400Y-29460000D01*
%TO.N,AC_5V*%
X54141700Y-38498300D02*
X53040000Y-39600000D01*
X63248400Y-38498300D02*
X54141700Y-38498300D01*
X64500000Y-37246700D02*
X63248400Y-38498300D01*
X64500000Y-36445000D02*
X64500000Y-37246700D01*
%TO.N,+3V3*%
X49828200Y-29460000D02*
X53640800Y-25647400D01*
X62462600Y-25647400D02*
X63810000Y-24300000D01*
X53640800Y-25647400D02*
X62462600Y-25647400D01*
X43920000Y-29460000D02*
X32520000Y-29460000D01*
X32520000Y-29460000D02*
X27440000Y-24380000D01*
X43920000Y-29460000D02*
X49828200Y-29460000D01*
%TO.N,ESP_TX*%
X43920000Y-24380000D02*
X42768300Y-24380000D01*
X34907100Y-26767100D02*
X32520000Y-24380000D01*
X40381200Y-26767100D02*
X34907100Y-26767100D01*
X42768300Y-24380000D02*
X40381200Y-26767100D01*
%TO.N,AC_TX_5V*%
X60468100Y-35810000D02*
X59198100Y-37080000D01*
X61621700Y-35810000D02*
X60468100Y-35810000D01*
X63378400Y-34053300D02*
X61621700Y-35810000D01*
X62966300Y-31226300D02*
X62966300Y-33641300D01*
X59198100Y-37080000D02*
X54080000Y-37080000D01*
X63378400Y-34053300D02*
X64500000Y-35175000D01*
X62966300Y-33641300D02*
X63378400Y-34053300D01*
X61200000Y-29460000D02*
X62966300Y-31226300D01*
%TO.N,AC_RX_5V*%
X54057300Y-24380000D02*
X54080000Y-24380000D01*
X53255400Y-30790000D02*
X59422000Y-30790000D01*
X60632000Y-32000000D02*
X61200000Y-32000000D01*
X52279500Y-29814100D02*
X53255400Y-30790000D01*
X52052100Y-26385200D02*
X54057300Y-24380000D01*
X59422000Y-30790000D02*
X60632000Y-32000000D01*
%TO.N,IO0*%
X59201700Y-28080700D02*
X58559600Y-28722800D01*
X59201700Y-26898100D02*
X59201700Y-28080700D01*
X40140000Y-25341400D02*
X40140000Y-24380000D01*
X54738200Y-28308300D02*
X52931300Y-28308300D01*
X55152700Y-28722800D02*
X54738200Y-28308300D01*
X39005300Y-30611700D02*
X39004100Y-30610500D01*
X52931300Y-28308300D02*
X50627900Y-30611700D01*
X58559600Y-28722800D02*
X55152700Y-28722800D01*
X50627900Y-30611700D02*
X39005300Y-30611700D01*
X39332000Y-26149400D02*
X40140000Y-25341400D01*
X58592100Y-26288500D02*
X59201700Y-26898100D01*
%TO.N,IO7*%
X32520000Y-34540000D02*
X27440000Y-39620000D01*
X43920000Y-34540000D02*
X32520000Y-34540000D01*
%TD*%
%TA.AperFunction,Conductor*%
%TO.N,GND*%
G36*
X62738725Y-38902347D02*
G01*
X62751269Y-38901270D01*
X62771613Y-38912004D01*
X62793684Y-38918485D01*
X62801927Y-38927998D01*
X62813065Y-38933875D01*
X62824378Y-38953907D01*
X62839439Y-38971289D01*
X62841230Y-38983749D01*
X62847422Y-38994713D01*
X62846109Y-39017677D01*
X62849383Y-39040447D01*
X62844057Y-39053569D01*
X62843434Y-39064469D01*
X62828481Y-39092808D01*
X62828550Y-39092850D01*
X62827900Y-39093909D01*
X62826964Y-39095685D01*
X62826003Y-39097006D01*
X62743788Y-39258360D01*
X62743787Y-39258363D01*
X62687829Y-39430589D01*
X62659500Y-39609448D01*
X62659500Y-39790551D01*
X62687829Y-39969410D01*
X62743787Y-40141636D01*
X62743788Y-40141639D01*
X62826003Y-40302993D01*
X62934709Y-40452615D01*
X62958188Y-40518422D01*
X62942362Y-40586475D01*
X62892256Y-40635170D01*
X62834390Y-40649500D01*
X59705610Y-40649500D01*
X59638571Y-40629815D01*
X59592816Y-40577011D01*
X59582872Y-40507853D01*
X59605291Y-40452615D01*
X59665676Y-40369501D01*
X59713996Y-40302994D01*
X59796211Y-40141639D01*
X59852171Y-39969409D01*
X59869864Y-39857701D01*
X59880500Y-39790551D01*
X59880500Y-39609448D01*
X59864019Y-39505397D01*
X59852171Y-39430591D01*
X59796211Y-39258361D01*
X59796211Y-39258360D01*
X59713996Y-39097006D01*
X59713036Y-39095685D01*
X59712825Y-39095094D01*
X59711450Y-39092850D01*
X59711921Y-39092561D01*
X59689557Y-39029878D01*
X59705383Y-38961824D01*
X59755489Y-38913130D01*
X59813355Y-38898800D01*
X62726645Y-38898800D01*
X62738725Y-38902347D01*
G37*
%TD.AperFunction*%
%TA.AperFunction,Conductor*%
G36*
X51754410Y-30154093D02*
G01*
X51798758Y-30182594D01*
X51798980Y-30182816D01*
X51910784Y-30294620D01*
X51910786Y-30294621D01*
X51910790Y-30294624D01*
X52003588Y-30348200D01*
X52047716Y-30373677D01*
X52200443Y-30414600D01*
X52262245Y-30414600D01*
X52329284Y-30434285D01*
X52349926Y-30450919D01*
X53009487Y-31110480D01*
X53100812Y-31163207D01*
X53202673Y-31190500D01*
X53308127Y-31190500D01*
X59204745Y-31190500D01*
X59271784Y-31210185D01*
X59292426Y-31226819D01*
X60013181Y-31947574D01*
X60046666Y-32008897D01*
X60049500Y-32035255D01*
X60049500Y-32090551D01*
X60077829Y-32269410D01*
X60133787Y-32441636D01*
X60133788Y-32441639D01*
X60216003Y-32602993D01*
X60266586Y-32672615D01*
X60290065Y-32738422D01*
X60274239Y-32806476D01*
X60224133Y-32855170D01*
X60166267Y-32869500D01*
X59984473Y-32869500D01*
X59882610Y-32896793D01*
X59791287Y-32949520D01*
X59791284Y-32949522D01*
X59160426Y-33580381D01*
X59099103Y-33613866D01*
X59072745Y-33616700D01*
X59010943Y-33616700D01*
X58858216Y-33657623D01*
X58858209Y-33657626D01*
X58721290Y-33736675D01*
X58721282Y-33736681D01*
X58609481Y-33848482D01*
X58609475Y-33848490D01*
X58530426Y-33985409D01*
X58530423Y-33985416D01*
X58489500Y-34138143D01*
X58489500Y-34199945D01*
X58469815Y-34266984D01*
X58453181Y-34287626D01*
X57349526Y-35391281D01*
X57288203Y-35424766D01*
X57261845Y-35427600D01*
X55100582Y-35427600D01*
X55033543Y-35407915D01*
X54987788Y-35355111D01*
X54977844Y-35285953D01*
X55000264Y-35230715D01*
X55029562Y-35190387D01*
X55063996Y-35142994D01*
X55146211Y-34981639D01*
X55202171Y-34809409D01*
X55220165Y-34695799D01*
X55230500Y-34630551D01*
X55230500Y-34449448D01*
X55206236Y-34296257D01*
X55202171Y-34270591D01*
X55155937Y-34128294D01*
X55146212Y-34098363D01*
X55146211Y-34098360D01*
X55103991Y-34015500D01*
X55063996Y-33937006D01*
X55027832Y-33887230D01*
X54957558Y-33790505D01*
X54957554Y-33790500D01*
X54829499Y-33662445D01*
X54829494Y-33662441D01*
X54682997Y-33556006D01*
X54682996Y-33556005D01*
X54682994Y-33556004D01*
X54623743Y-33525814D01*
X54521639Y-33473788D01*
X54521636Y-33473787D01*
X54349410Y-33417829D01*
X54170551Y-33389500D01*
X54170546Y-33389500D01*
X53989454Y-33389500D01*
X53989449Y-33389500D01*
X53810589Y-33417829D01*
X53638363Y-33473787D01*
X53638360Y-33473788D01*
X53477002Y-33556006D01*
X53330505Y-33662441D01*
X53330500Y-33662445D01*
X53202445Y-33790500D01*
X53202441Y-33790505D01*
X53096006Y-33937002D01*
X53013788Y-34098360D01*
X53013787Y-34098363D01*
X52957829Y-34270589D01*
X52929500Y-34449448D01*
X52929500Y-34630551D01*
X52957829Y-34809410D01*
X53013787Y-34981636D01*
X53013788Y-34981639D01*
X53056009Y-35064500D01*
X53096003Y-35142993D01*
X53096006Y-35142997D01*
X53159736Y-35230715D01*
X53183216Y-35296521D01*
X53167390Y-35364575D01*
X53117284Y-35413270D01*
X53059418Y-35427600D01*
X52780873Y-35427600D01*
X52679010Y-35454893D01*
X52587687Y-35507620D01*
X52587684Y-35507622D01*
X49270878Y-38824427D01*
X49209555Y-38857912D01*
X49139863Y-38852928D01*
X49083930Y-38811056D01*
X49060022Y-38751031D01*
X49057585Y-38730009D01*
X49012206Y-38627235D01*
X48932765Y-38547794D01*
X48924881Y-38544313D01*
X48829992Y-38502415D01*
X48804868Y-38499500D01*
X48804865Y-38499500D01*
X48548900Y-38499500D01*
X48481861Y-38479815D01*
X48436106Y-38427011D01*
X48424900Y-38375500D01*
X48424900Y-37060129D01*
X48424901Y-37060116D01*
X48424901Y-36944674D01*
X48422696Y-36936446D01*
X48397607Y-36842813D01*
X48397606Y-36842812D01*
X48397606Y-36842810D01*
X48397605Y-36842809D01*
X48396912Y-36841608D01*
X48396909Y-36841604D01*
X48392569Y-36834087D01*
X48344880Y-36751487D01*
X48270313Y-36676920D01*
X48270310Y-36676918D01*
X44542913Y-32949520D01*
X44497250Y-32923156D01*
X44451589Y-32896793D01*
X44400657Y-32883146D01*
X44349727Y-32869500D01*
X44349726Y-32869500D01*
X42024000Y-32869500D01*
X41956961Y-32849815D01*
X41911206Y-32797011D01*
X41900000Y-32745500D01*
X41900000Y-31136200D01*
X41919685Y-31069161D01*
X41972489Y-31023406D01*
X42024000Y-31012200D01*
X50680625Y-31012200D01*
X50680627Y-31012200D01*
X50782488Y-30984907D01*
X50873813Y-30932180D01*
X51623398Y-30182592D01*
X51684719Y-30149109D01*
X51754410Y-30154093D01*
G37*
%TD.AperFunction*%
%TA.AperFunction,Conductor*%
G36*
X63395358Y-34677002D02*
G01*
X63421716Y-34678888D01*
X63430772Y-34684708D01*
X63437815Y-34686241D01*
X63466063Y-34707389D01*
X63594997Y-34836334D01*
X63628479Y-34897659D01*
X63628929Y-34948202D01*
X63599500Y-35096153D01*
X63599500Y-35253846D01*
X63630261Y-35408489D01*
X63630264Y-35408501D01*
X63690603Y-35554174D01*
X63704262Y-35574616D01*
X63725139Y-35641293D01*
X63706654Y-35708673D01*
X63688842Y-35731185D01*
X63647795Y-35772233D01*
X63647794Y-35772234D01*
X63602415Y-35875006D01*
X63602415Y-35875008D01*
X63599500Y-35900131D01*
X63599500Y-36989856D01*
X63599502Y-36989882D01*
X63602413Y-37014987D01*
X63602415Y-37014991D01*
X63647793Y-37117764D01*
X63647794Y-37117765D01*
X63727235Y-37197206D01*
X63739134Y-37202459D01*
X63792510Y-37247544D01*
X63813039Y-37314330D01*
X63794202Y-37381612D01*
X63776730Y-37403575D01*
X63118826Y-38061481D01*
X63057503Y-38094966D01*
X63031145Y-38097800D01*
X54988616Y-38097800D01*
X54921577Y-38078115D01*
X54875822Y-38025311D01*
X54865878Y-37956153D01*
X54894903Y-37892597D01*
X54900935Y-37886119D01*
X54957553Y-37829501D01*
X55063996Y-37682994D01*
X55132675Y-37548205D01*
X55180650Y-37497409D01*
X55243160Y-37480500D01*
X59250825Y-37480500D01*
X59250827Y-37480500D01*
X59352688Y-37453207D01*
X59444013Y-37400480D01*
X60597674Y-36246819D01*
X60658997Y-36213334D01*
X60685355Y-36210500D01*
X61674425Y-36210500D01*
X61674427Y-36210500D01*
X61776288Y-36183207D01*
X61867613Y-36130480D01*
X63290704Y-34707387D01*
X63298648Y-34703049D01*
X63304077Y-34695799D01*
X63328836Y-34686565D01*
X63352025Y-34673904D01*
X63361058Y-34674550D01*
X63369543Y-34671386D01*
X63395358Y-34677002D01*
G37*
%TD.AperFunction*%
%TA.AperFunction,Conductor*%
G36*
X26610123Y-23370185D02*
G01*
X26655878Y-23422989D01*
X26665822Y-23492147D01*
X26636797Y-23555703D01*
X26630765Y-23562181D01*
X26562445Y-23630500D01*
X26562441Y-23630505D01*
X26456006Y-23777002D01*
X26373788Y-23938360D01*
X26373787Y-23938363D01*
X26317829Y-24110589D01*
X26289500Y-24289448D01*
X26289500Y-24470551D01*
X26317829Y-24649410D01*
X26373787Y-24821636D01*
X26373788Y-24821639D01*
X26456006Y-24982997D01*
X26562441Y-25129494D01*
X26562445Y-25129499D01*
X26690500Y-25257554D01*
X26690505Y-25257558D01*
X26785325Y-25326448D01*
X26837006Y-25363996D01*
X26942484Y-25417740D01*
X26998360Y-25446211D01*
X26998363Y-25446212D01*
X27058709Y-25465819D01*
X27170591Y-25502171D01*
X27253429Y-25515291D01*
X27349449Y-25530500D01*
X27349454Y-25530500D01*
X27530551Y-25530500D01*
X27709409Y-25502171D01*
X27709412Y-25502170D01*
X27853284Y-25455423D01*
X27923123Y-25453429D01*
X27979281Y-25485674D01*
X32274087Y-29780480D01*
X32365412Y-29833207D01*
X32467273Y-29860500D01*
X32572727Y-29860500D01*
X38639363Y-29860500D01*
X38706402Y-29880185D01*
X38752157Y-29932989D01*
X38762101Y-30002147D01*
X38733076Y-30065703D01*
X38701363Y-30091887D01*
X38635387Y-30129977D01*
X38635382Y-30129981D01*
X38523581Y-30241782D01*
X38523575Y-30241790D01*
X38444526Y-30378709D01*
X38444523Y-30378716D01*
X38403600Y-30531443D01*
X38403600Y-30689556D01*
X38444523Y-30842283D01*
X38444526Y-30842290D01*
X38523575Y-30979209D01*
X38523579Y-30979214D01*
X38523580Y-30979216D01*
X38635384Y-31091020D01*
X38635386Y-31091021D01*
X38635390Y-31091024D01*
X38760415Y-31163206D01*
X38772316Y-31170077D01*
X38925043Y-31211000D01*
X38925045Y-31211000D01*
X39083155Y-31211000D01*
X39083157Y-31211000D01*
X39235884Y-31170077D01*
X39372816Y-31091020D01*
X39415317Y-31048519D01*
X39476640Y-31015034D01*
X39502998Y-31012200D01*
X40576000Y-31012200D01*
X40643039Y-31031885D01*
X40688794Y-31084689D01*
X40700000Y-31136200D01*
X40700000Y-32745500D01*
X40680315Y-32812539D01*
X40627511Y-32858294D01*
X40576000Y-32869500D01*
X32331055Y-32869500D01*
X32264016Y-32849815D01*
X32243374Y-32833181D01*
X23948519Y-24538326D01*
X23915034Y-24477003D01*
X23912200Y-24450645D01*
X23912200Y-24327275D01*
X23912200Y-24327273D01*
X23884907Y-24225413D01*
X23832180Y-24134087D01*
X23757613Y-24059520D01*
X23666289Y-24006794D01*
X23666288Y-24006793D01*
X23602405Y-23989676D01*
X23542745Y-23953310D01*
X23512216Y-23890463D01*
X23510499Y-23869901D01*
X23510499Y-23485134D01*
X23510298Y-23481658D01*
X23526080Y-23413594D01*
X23576154Y-23364867D01*
X23634091Y-23350500D01*
X26543084Y-23350500D01*
X26610123Y-23370185D01*
G37*
%TD.AperFunction*%
%TA.AperFunction,Conductor*%
G36*
X66870495Y-23370185D02*
G01*
X66891137Y-23386819D01*
X68113181Y-24608862D01*
X68146666Y-24670185D01*
X68149500Y-24696543D01*
X68149500Y-28525500D01*
X68129815Y-28592539D01*
X68077011Y-28638294D01*
X68025500Y-28649500D01*
X65476614Y-28649500D01*
X65409575Y-28629815D01*
X65363820Y-28577011D01*
X65362053Y-28572952D01*
X65309397Y-28445827D01*
X65309390Y-28445814D01*
X65221789Y-28314711D01*
X65221786Y-28314707D01*
X65110292Y-28203213D01*
X65110288Y-28203210D01*
X64979185Y-28115609D01*
X64979172Y-28115602D01*
X64833501Y-28055264D01*
X64833489Y-28055261D01*
X64678845Y-28024500D01*
X64678842Y-28024500D01*
X64321158Y-28024500D01*
X64321155Y-28024500D01*
X64166510Y-28055261D01*
X64166498Y-28055264D01*
X64020827Y-28115602D01*
X64020814Y-28115609D01*
X63889711Y-28203210D01*
X63889707Y-28203213D01*
X63778213Y-28314707D01*
X63778210Y-28314711D01*
X63690609Y-28445814D01*
X63690602Y-28445827D01*
X63630264Y-28591498D01*
X63630261Y-28591510D01*
X63599500Y-28746153D01*
X63599500Y-28903846D01*
X63630261Y-29058489D01*
X63630264Y-29058501D01*
X63690602Y-29204172D01*
X63690609Y-29204185D01*
X63778210Y-29335288D01*
X63778213Y-29335292D01*
X63815240Y-29372319D01*
X63848725Y-29433642D01*
X63843741Y-29503334D01*
X63815240Y-29547681D01*
X63778213Y-29584707D01*
X63778210Y-29584711D01*
X63690609Y-29715814D01*
X63690602Y-29715827D01*
X63630264Y-29861498D01*
X63630261Y-29861510D01*
X63599500Y-30016153D01*
X63599500Y-30173846D01*
X63630261Y-30328489D01*
X63630264Y-30328501D01*
X63690602Y-30474172D01*
X63690609Y-30474185D01*
X63778210Y-30605288D01*
X63778213Y-30605292D01*
X63815240Y-30642319D01*
X63848725Y-30703642D01*
X63843741Y-30773334D01*
X63815240Y-30817681D01*
X63778213Y-30854707D01*
X63778210Y-30854711D01*
X63690609Y-30985814D01*
X63690602Y-30985827D01*
X63630264Y-31131498D01*
X63630261Y-31131508D01*
X63612417Y-31221218D01*
X63580032Y-31283128D01*
X63519316Y-31317703D01*
X63449547Y-31313963D01*
X63392875Y-31273096D01*
X63367294Y-31208078D01*
X63366800Y-31197026D01*
X63366800Y-31173575D01*
X63366800Y-31173573D01*
X63339507Y-31071713D01*
X63286780Y-30980387D01*
X63212213Y-30905820D01*
X62305674Y-29999281D01*
X62272189Y-29937958D01*
X62275423Y-29873284D01*
X62322171Y-29729409D01*
X62345089Y-29584711D01*
X62350500Y-29550551D01*
X62350500Y-29369448D01*
X62334019Y-29265397D01*
X62322171Y-29190591D01*
X62275238Y-29046144D01*
X62266212Y-29018363D01*
X62266211Y-29018360D01*
X62223991Y-28935500D01*
X62183996Y-28857006D01*
X62103457Y-28746153D01*
X62077558Y-28710505D01*
X62077554Y-28710500D01*
X61949499Y-28582445D01*
X61949494Y-28582441D01*
X61802997Y-28476006D01*
X61802996Y-28476005D01*
X61802994Y-28476004D01*
X61743743Y-28445814D01*
X61641639Y-28393788D01*
X61641636Y-28393787D01*
X61469410Y-28337829D01*
X61337728Y-28316972D01*
X61274594Y-28287042D01*
X61237663Y-28227731D01*
X61238661Y-28157868D01*
X61277271Y-28099636D01*
X61341235Y-28071522D01*
X61357120Y-28070499D01*
X62094864Y-28070499D01*
X62094879Y-28070497D01*
X62094882Y-28070497D01*
X62119987Y-28067586D01*
X62119988Y-28067585D01*
X62119991Y-28067585D01*
X62222765Y-28022206D01*
X62302206Y-27942765D01*
X62347585Y-27839991D01*
X62350500Y-27814865D01*
X62350499Y-26171899D01*
X62370184Y-26104861D01*
X62422987Y-26059106D01*
X62474499Y-26047900D01*
X62515325Y-26047900D01*
X62515327Y-26047900D01*
X62617188Y-26020607D01*
X62708513Y-25967880D01*
X63270719Y-25405672D01*
X63332040Y-25372189D01*
X63396716Y-25375424D01*
X63540591Y-25422171D01*
X63623429Y-25435291D01*
X63719449Y-25450500D01*
X63719454Y-25450500D01*
X63900551Y-25450500D01*
X63987259Y-25436765D01*
X64079409Y-25422171D01*
X64251639Y-25366211D01*
X64412994Y-25283996D01*
X64535674Y-25194864D01*
X64559493Y-25177559D01*
X64559493Y-25177558D01*
X64559501Y-25177553D01*
X64638737Y-25098316D01*
X64700056Y-25064834D01*
X64769748Y-25069818D01*
X64825682Y-25111689D01*
X64850099Y-25177153D01*
X64844347Y-25224316D01*
X64836447Y-25248630D01*
X64799500Y-25481902D01*
X64799500Y-25718097D01*
X64836446Y-25951368D01*
X64909433Y-26175996D01*
X65007039Y-26367556D01*
X65016657Y-26386433D01*
X65155483Y-26577510D01*
X65322490Y-26744517D01*
X65513567Y-26883343D01*
X65612991Y-26934002D01*
X65724003Y-26990566D01*
X65724005Y-26990566D01*
X65724008Y-26990568D01*
X65798257Y-27014693D01*
X65948631Y-27063553D01*
X66181903Y-27100500D01*
X66181908Y-27100500D01*
X66418097Y-27100500D01*
X66651368Y-27063553D01*
X66875992Y-26990568D01*
X67086433Y-26883343D01*
X67277510Y-26744517D01*
X67444517Y-26577510D01*
X67583343Y-26386433D01*
X67690568Y-26175992D01*
X67763553Y-25951368D01*
X67768900Y-25917609D01*
X67800500Y-25718097D01*
X67800500Y-25481902D01*
X67763553Y-25248631D01*
X67720400Y-25115822D01*
X67690568Y-25024008D01*
X67690566Y-25024005D01*
X67690566Y-25024003D01*
X67596445Y-24839281D01*
X67583343Y-24813567D01*
X67444517Y-24622490D01*
X67277510Y-24455483D01*
X67086433Y-24316657D01*
X66875996Y-24209433D01*
X66651368Y-24136446D01*
X66418097Y-24099500D01*
X66418092Y-24099500D01*
X66181908Y-24099500D01*
X66181903Y-24099500D01*
X65948631Y-24136446D01*
X65724003Y-24209433D01*
X65513566Y-24316657D01*
X65422880Y-24382545D01*
X65322490Y-24455483D01*
X65322488Y-24455485D01*
X65322487Y-24455485D01*
X65152038Y-24625935D01*
X65150986Y-24624883D01*
X65097999Y-24659444D01*
X65028131Y-24659915D01*
X64969099Y-24622539D01*
X64939646Y-24559180D01*
X64939788Y-24521310D01*
X64956109Y-24418271D01*
X64960500Y-24390550D01*
X64960500Y-24209448D01*
X64936753Y-24059521D01*
X64932171Y-24030591D01*
X64901742Y-23936940D01*
X64876212Y-23858363D01*
X64876211Y-23858360D01*
X64793996Y-23697006D01*
X64685291Y-23547385D01*
X64661812Y-23481578D01*
X64677638Y-23413525D01*
X64727744Y-23364830D01*
X64785610Y-23350500D01*
X66803456Y-23350500D01*
X66870495Y-23370185D01*
G37*
%TD.AperFunction*%
%TA.AperFunction,Conductor*%
G36*
X57940325Y-26067585D02*
G01*
X57986080Y-26120389D01*
X57996024Y-26189547D01*
X57993061Y-26203988D01*
X57991600Y-26209443D01*
X57991600Y-26367557D01*
X58026955Y-26499502D01*
X58032523Y-26520283D01*
X58032526Y-26520290D01*
X58111575Y-26657209D01*
X58111579Y-26657214D01*
X58111580Y-26657216D01*
X58223384Y-26769020D01*
X58223386Y-26769021D01*
X58223390Y-26769024D01*
X58355632Y-26845373D01*
X58360316Y-26848077D01*
X58513043Y-26889000D01*
X58574846Y-26889000D01*
X58604286Y-26897644D01*
X58634273Y-26904168D01*
X58639288Y-26907922D01*
X58641885Y-26908685D01*
X58662527Y-26925319D01*
X58764881Y-27027673D01*
X58798366Y-27088996D01*
X58801200Y-27115354D01*
X58801200Y-27863445D01*
X58781515Y-27930484D01*
X58764881Y-27951126D01*
X58430026Y-28285981D01*
X58368703Y-28319466D01*
X58342345Y-28322300D01*
X57324500Y-28322300D01*
X57257461Y-28302615D01*
X57211706Y-28249811D01*
X57200500Y-28198300D01*
X57200499Y-26755143D01*
X57200499Y-26755136D01*
X57199268Y-26744517D01*
X57197586Y-26730012D01*
X57197585Y-26730010D01*
X57197585Y-26730009D01*
X57152206Y-26627235D01*
X57072765Y-26547794D01*
X57036440Y-26531755D01*
X56969992Y-26502415D01*
X56944865Y-26499500D01*
X55255143Y-26499500D01*
X55255122Y-26499502D01*
X55248085Y-26500318D01*
X55230055Y-26497219D01*
X55211871Y-26499187D01*
X55196339Y-26491425D01*
X55179224Y-26488484D01*
X55165731Y-26476129D01*
X55149371Y-26467954D01*
X55132747Y-26445928D01*
X55127693Y-26441300D01*
X55127207Y-26440488D01*
X55125148Y-26437024D01*
X55063996Y-26317006D01*
X55008171Y-26240169D01*
X55005245Y-26235245D01*
X54997943Y-26206719D01*
X54988046Y-26178978D01*
X54989377Y-26173251D01*
X54987920Y-26167557D01*
X54997200Y-26139610D01*
X55003872Y-26110924D01*
X55008088Y-26106826D01*
X55009941Y-26101248D01*
X55032855Y-26082756D01*
X55053978Y-26062230D01*
X55060204Y-26060688D01*
X55064315Y-26057371D01*
X55080801Y-26055587D01*
X55111844Y-26047900D01*
X57873286Y-26047900D01*
X57940325Y-26067585D01*
G37*
%TD.AperFunction*%
%TA.AperFunction,Conductor*%
G36*
X62901429Y-23370185D02*
G01*
X62947184Y-23422989D01*
X62957128Y-23492147D01*
X62934709Y-23547385D01*
X62826003Y-23697006D01*
X62743788Y-23858360D01*
X62743787Y-23858363D01*
X62687829Y-24030589D01*
X62659500Y-24209448D01*
X62659500Y-24390551D01*
X62687829Y-24569412D01*
X62734575Y-24713283D01*
X62736570Y-24783124D01*
X62704325Y-24839281D01*
X62333026Y-25210581D01*
X62271703Y-25244066D01*
X62245345Y-25246900D01*
X59707499Y-25246900D01*
X59640460Y-25227215D01*
X59594705Y-25174411D01*
X59584761Y-25105253D01*
X59607180Y-25050015D01*
X59655873Y-24982994D01*
X59713996Y-24902994D01*
X59796211Y-24741639D01*
X59852171Y-24569409D01*
X59867880Y-24470226D01*
X59880500Y-24390551D01*
X59880500Y-24209448D01*
X59856753Y-24059521D01*
X59852171Y-24030591D01*
X59821742Y-23936940D01*
X59796212Y-23858363D01*
X59796211Y-23858360D01*
X59713996Y-23697006D01*
X59605291Y-23547385D01*
X59581812Y-23481578D01*
X59597638Y-23413525D01*
X59647744Y-23364830D01*
X59705610Y-23350500D01*
X62834390Y-23350500D01*
X62901429Y-23370185D01*
G37*
%TD.AperFunction*%
%TD*%
%TA.AperFunction,NonConductor*%
G36*
X57766470Y-23354047D02*
G01*
X57779015Y-23352970D01*
X57799360Y-23363704D01*
X57821429Y-23370185D01*
X57829672Y-23379698D01*
X57840810Y-23385575D01*
X57852122Y-23405607D01*
X57867184Y-23422989D01*
X57868975Y-23435450D01*
X57875167Y-23446414D01*
X57873854Y-23469377D01*
X57877128Y-23492147D01*
X57871802Y-23505269D01*
X57871179Y-23516169D01*
X57854709Y-23547385D01*
X57746003Y-23697006D01*
X57663788Y-23858360D01*
X57663787Y-23858363D01*
X57607829Y-24030589D01*
X57586972Y-24162271D01*
X57557042Y-24225405D01*
X57497731Y-24262336D01*
X57427868Y-24261338D01*
X57369636Y-24222728D01*
X57341522Y-24158764D01*
X57340499Y-24142872D01*
X57340499Y-23474500D01*
X57360184Y-23407461D01*
X57412988Y-23361706D01*
X57464499Y-23350500D01*
X57754390Y-23350500D01*
X57766470Y-23354047D01*
G37*
%TD.AperFunction*%
%TA.AperFunction,NonConductor*%
G36*
X39310123Y-23370185D02*
G01*
X39355878Y-23422989D01*
X39365822Y-23492147D01*
X39336797Y-23555703D01*
X39330765Y-23562181D01*
X39262445Y-23630500D01*
X39262441Y-23630505D01*
X39156006Y-23777002D01*
X39073788Y-23938360D01*
X39073787Y-23938363D01*
X39017829Y-24110589D01*
X38992473Y-24270678D01*
X38962544Y-24333813D01*
X38903232Y-24370744D01*
X38833369Y-24369746D01*
X38775137Y-24331136D01*
X38747527Y-24270678D01*
X38729801Y-24158764D01*
X38722171Y-24110591D01*
X38688446Y-24006793D01*
X38666212Y-23938363D01*
X38666211Y-23938360D01*
X38625450Y-23858363D01*
X38583996Y-23777006D01*
X38525873Y-23697006D01*
X38477558Y-23630505D01*
X38477554Y-23630500D01*
X38409235Y-23562181D01*
X38375750Y-23500858D01*
X38380734Y-23431166D01*
X38422606Y-23375233D01*
X38488070Y-23350816D01*
X38496916Y-23350500D01*
X39243084Y-23350500D01*
X39310123Y-23370185D01*
G37*
%TD.AperFunction*%
%TA.AperFunction,NonConductor*%
G36*
X36724329Y-23356738D02*
G01*
X36746418Y-23358318D01*
X36757201Y-23366390D01*
X36770123Y-23370185D01*
X36784622Y-23386918D01*
X36802351Y-23400190D01*
X36807058Y-23412810D01*
X36815878Y-23422989D01*
X36819029Y-23444906D01*
X36826768Y-23465654D01*
X36823905Y-23478814D01*
X36825822Y-23492147D01*
X36816622Y-23512290D01*
X36811916Y-23533927D01*
X36798647Y-23551652D01*
X36796797Y-23555703D01*
X36790765Y-23562181D01*
X36722445Y-23630500D01*
X36722441Y-23630505D01*
X36616006Y-23777002D01*
X36533788Y-23938360D01*
X36533787Y-23938363D01*
X36477829Y-24110589D01*
X36452473Y-24270678D01*
X36422544Y-24333813D01*
X36363232Y-24370744D01*
X36293369Y-24369746D01*
X36235137Y-24331136D01*
X36207527Y-24270678D01*
X36189801Y-24158764D01*
X36182171Y-24110591D01*
X36148446Y-24006793D01*
X36126212Y-23938363D01*
X36126211Y-23938360D01*
X36085450Y-23858363D01*
X36043996Y-23777006D01*
X35985873Y-23697006D01*
X35937558Y-23630505D01*
X35937554Y-23630500D01*
X35869235Y-23562181D01*
X35835750Y-23500858D01*
X35840734Y-23431166D01*
X35882606Y-23375233D01*
X35948070Y-23350816D01*
X35956916Y-23350500D01*
X36703084Y-23350500D01*
X36724329Y-23356738D01*
G37*
%TD.AperFunction*%
%TA.AperFunction,NonConductor*%
G36*
X34230123Y-23370185D02*
G01*
X34275878Y-23422989D01*
X34285822Y-23492147D01*
X34256797Y-23555703D01*
X34250765Y-23562181D01*
X34182445Y-23630500D01*
X34182441Y-23630505D01*
X34076006Y-23777002D01*
X33993788Y-23938360D01*
X33993787Y-23938363D01*
X33937829Y-24110589D01*
X33912473Y-24270678D01*
X33882544Y-24333813D01*
X33823232Y-24370744D01*
X33753369Y-24369746D01*
X33695137Y-24331136D01*
X33667527Y-24270678D01*
X33649801Y-24158764D01*
X33642171Y-24110591D01*
X33608446Y-24006793D01*
X33586212Y-23938363D01*
X33586211Y-23938360D01*
X33545450Y-23858363D01*
X33503996Y-23777006D01*
X33445873Y-23697006D01*
X33397558Y-23630505D01*
X33397554Y-23630500D01*
X33329235Y-23562181D01*
X33295750Y-23500858D01*
X33300734Y-23431166D01*
X33342606Y-23375233D01*
X33408070Y-23350816D01*
X33416916Y-23350500D01*
X34163084Y-23350500D01*
X34230123Y-23370185D01*
G37*
%TD.AperFunction*%
%TA.AperFunction,NonConductor*%
G36*
X31644329Y-23356738D02*
G01*
X31666418Y-23358318D01*
X31677201Y-23366390D01*
X31690123Y-23370185D01*
X31704622Y-23386918D01*
X31722351Y-23400190D01*
X31727058Y-23412810D01*
X31735878Y-23422989D01*
X31739029Y-23444906D01*
X31746768Y-23465654D01*
X31743905Y-23478814D01*
X31745822Y-23492147D01*
X31736622Y-23512290D01*
X31731916Y-23533927D01*
X31718647Y-23551652D01*
X31716797Y-23555703D01*
X31710765Y-23562181D01*
X31642445Y-23630500D01*
X31642441Y-23630505D01*
X31536006Y-23777002D01*
X31453788Y-23938360D01*
X31453787Y-23938363D01*
X31397829Y-24110589D01*
X31372473Y-24270678D01*
X31342544Y-24333813D01*
X31283232Y-24370744D01*
X31213369Y-24369746D01*
X31155137Y-24331136D01*
X31127527Y-24270678D01*
X31109801Y-24158764D01*
X31102171Y-24110591D01*
X31068446Y-24006793D01*
X31046212Y-23938363D01*
X31046211Y-23938360D01*
X31005450Y-23858363D01*
X30963996Y-23777006D01*
X30905873Y-23697006D01*
X30857558Y-23630505D01*
X30857554Y-23630500D01*
X30789235Y-23562181D01*
X30755750Y-23500858D01*
X30760734Y-23431166D01*
X30802606Y-23375233D01*
X30868070Y-23350816D01*
X30876916Y-23350500D01*
X31623084Y-23350500D01*
X31644329Y-23356738D01*
G37*
%TD.AperFunction*%
%TA.AperFunction,NonConductor*%
G36*
X29150123Y-23370185D02*
G01*
X29195878Y-23422989D01*
X29205822Y-23492147D01*
X29176797Y-23555703D01*
X29170765Y-23562181D01*
X29102445Y-23630500D01*
X29102441Y-23630505D01*
X28996006Y-23777002D01*
X28913788Y-23938360D01*
X28913787Y-23938363D01*
X28857829Y-24110589D01*
X28832473Y-24270678D01*
X28802544Y-24333813D01*
X28743232Y-24370744D01*
X28673369Y-24369746D01*
X28615137Y-24331136D01*
X28587527Y-24270678D01*
X28569801Y-24158764D01*
X28562171Y-24110591D01*
X28528446Y-24006793D01*
X28506212Y-23938363D01*
X28506211Y-23938360D01*
X28465450Y-23858363D01*
X28423996Y-23777006D01*
X28365873Y-23697006D01*
X28317558Y-23630505D01*
X28317554Y-23630500D01*
X28249235Y-23562181D01*
X28215750Y-23500858D01*
X28220734Y-23431166D01*
X28262606Y-23375233D01*
X28328070Y-23350816D01*
X28336916Y-23350500D01*
X29083084Y-23350500D01*
X29150123Y-23370185D01*
G37*
%TD.AperFunction*%
%TA.AperFunction,NonConductor*%
G36*
X42712946Y-23370185D02*
G01*
X42758701Y-23422989D01*
X42769701Y-23481643D01*
X42769500Y-23485126D01*
X42769500Y-23869901D01*
X42749815Y-23936940D01*
X42697011Y-23982695D01*
X42677594Y-23989676D01*
X42613710Y-24006793D01*
X42522387Y-24059520D01*
X42522384Y-24059522D01*
X42111681Y-24470226D01*
X42050358Y-24503711D01*
X41980666Y-24498727D01*
X41924733Y-24456855D01*
X41900316Y-24391391D01*
X41900000Y-24382545D01*
X41900000Y-23474500D01*
X41919685Y-23407461D01*
X41972489Y-23361706D01*
X42024000Y-23350500D01*
X42645907Y-23350500D01*
X42712946Y-23370185D01*
G37*
%TD.AperFunction*%
%TA.AperFunction,NonConductor*%
G36*
X57472305Y-24335804D02*
G01*
X57482146Y-24334390D01*
X57505405Y-24345012D01*
X57530041Y-24351865D01*
X57536658Y-24359284D01*
X57545702Y-24363415D01*
X57559526Y-24384926D01*
X57576546Y-24404010D01*
X57580955Y-24418271D01*
X57583476Y-24422193D01*
X57586972Y-24437729D01*
X57607829Y-24569410D01*
X57663787Y-24741636D01*
X57663788Y-24741639D01*
X57746003Y-24902993D01*
X57852820Y-25050015D01*
X57876299Y-25115822D01*
X57860473Y-25183875D01*
X57810367Y-25232570D01*
X57752501Y-25246900D01*
X57464500Y-25246900D01*
X57397461Y-25227215D01*
X57351706Y-25174411D01*
X57340500Y-25122900D01*
X57340500Y-24793282D01*
X57340499Y-24457125D01*
X57347703Y-24432592D01*
X57350980Y-24407233D01*
X57357382Y-24399627D01*
X57360183Y-24390089D01*
X57379508Y-24373343D01*
X57395976Y-24353781D01*
X57405473Y-24350844D01*
X57412987Y-24344334D01*
X57438299Y-24340694D01*
X57462728Y-24333141D01*
X57472305Y-24335804D01*
G37*
%TD.AperFunction*%
%TA.AperFunction,NonConductor*%
G36*
X40600140Y-25516731D02*
G01*
X40613444Y-25517013D01*
X40631947Y-25529465D01*
X40652651Y-25537754D01*
X40660369Y-25548592D01*
X40671410Y-25556023D01*
X40680243Y-25576502D01*
X40693180Y-25594668D01*
X40696438Y-25614044D01*
X40699084Y-25620178D01*
X40698283Y-25625017D01*
X40700000Y-25635225D01*
X40700000Y-25830545D01*
X40680315Y-25897584D01*
X40663681Y-25918226D01*
X40251626Y-26330281D01*
X40224698Y-26344984D01*
X40198880Y-26361577D01*
X40192679Y-26362468D01*
X40190303Y-26363766D01*
X40163945Y-26366600D01*
X40055708Y-26366600D01*
X39988669Y-26346915D01*
X39942914Y-26294111D01*
X39934293Y-26236584D01*
X39932500Y-26236584D01*
X39932500Y-26166653D01*
X39952185Y-26099614D01*
X39968815Y-26078976D01*
X40385910Y-25661881D01*
X40385913Y-25661880D01*
X40460480Y-25587313D01*
X40475197Y-25561821D01*
X40484026Y-25552058D01*
X40503039Y-25540399D01*
X40519180Y-25525010D01*
X40532246Y-25522491D01*
X40543590Y-25515536D01*
X40565885Y-25516007D01*
X40587787Y-25511786D01*
X40600140Y-25516731D01*
G37*
%TD.AperFunction*%
%TA.AperFunction,NonConductor*%
G36*
X38906630Y-24390253D02*
G01*
X38964863Y-24428863D01*
X38992473Y-24489321D01*
X39017829Y-24649410D01*
X39073787Y-24821636D01*
X39073788Y-24821639D01*
X39156006Y-24982997D01*
X39262441Y-25129494D01*
X39262445Y-25129499D01*
X39262447Y-25129501D01*
X39390499Y-25257553D01*
X39426891Y-25283993D01*
X39427659Y-25284551D01*
X39439075Y-25299356D01*
X39454040Y-25310558D01*
X39459967Y-25326448D01*
X39470325Y-25339881D01*
X39471924Y-25358506D01*
X39478458Y-25376022D01*
X39474852Y-25392596D01*
X39476304Y-25409495D01*
X39467580Y-25426027D01*
X39463607Y-25444296D01*
X39444414Y-25469933D01*
X39443699Y-25471290D01*
X39442456Y-25472550D01*
X39402427Y-25512580D01*
X39341105Y-25546066D01*
X39314745Y-25548900D01*
X39252943Y-25548900D01*
X39100216Y-25589823D01*
X39100209Y-25589826D01*
X38963290Y-25668875D01*
X38963282Y-25668881D01*
X38851481Y-25780682D01*
X38851475Y-25780690D01*
X38772426Y-25917609D01*
X38772423Y-25917616D01*
X38731500Y-26070343D01*
X38731500Y-26236584D01*
X38729645Y-26236584D01*
X38720465Y-26295450D01*
X38674085Y-26347706D01*
X38608292Y-26366600D01*
X35124355Y-26366600D01*
X35057316Y-26346915D01*
X35036674Y-26330281D01*
X33625674Y-24919281D01*
X33592189Y-24857958D01*
X33595423Y-24793284D01*
X33642171Y-24649409D01*
X33648593Y-24608862D01*
X33667527Y-24489321D01*
X33697456Y-24426186D01*
X33756768Y-24389255D01*
X33826630Y-24390253D01*
X33884863Y-24428863D01*
X33912473Y-24489321D01*
X33937829Y-24649410D01*
X33993787Y-24821636D01*
X33993788Y-24821639D01*
X34076006Y-24982997D01*
X34171361Y-25114244D01*
X34171365Y-25114248D01*
X34182447Y-25129501D01*
X34310499Y-25257553D01*
X34325751Y-25268634D01*
X34325755Y-25268638D01*
X34405325Y-25326448D01*
X34457006Y-25363996D01*
X34562484Y-25417740D01*
X34618360Y-25446211D01*
X34618363Y-25446212D01*
X34678709Y-25465819D01*
X34790591Y-25502171D01*
X34873429Y-25515291D01*
X34969449Y-25530500D01*
X34969454Y-25530500D01*
X35150551Y-25530500D01*
X35237480Y-25516731D01*
X35329409Y-25502171D01*
X35501639Y-25446211D01*
X35662994Y-25363996D01*
X35809501Y-25257553D01*
X35937553Y-25129501D01*
X36043996Y-24982994D01*
X36126211Y-24821639D01*
X36182171Y-24649409D01*
X36199765Y-24538326D01*
X36207527Y-24489321D01*
X36237456Y-24426186D01*
X36296768Y-24389255D01*
X36366630Y-24390253D01*
X36424863Y-24428863D01*
X36452473Y-24489321D01*
X36477829Y-24649410D01*
X36533787Y-24821636D01*
X36533788Y-24821639D01*
X36616006Y-24982997D01*
X36722441Y-25129494D01*
X36722445Y-25129499D01*
X36850500Y-25257554D01*
X36850505Y-25257558D01*
X36945325Y-25326448D01*
X36997006Y-25363996D01*
X37102484Y-25417740D01*
X37158360Y-25446211D01*
X37158363Y-25446212D01*
X37218709Y-25465819D01*
X37330591Y-25502171D01*
X37413429Y-25515291D01*
X37509449Y-25530500D01*
X37509454Y-25530500D01*
X37690551Y-25530500D01*
X37777480Y-25516731D01*
X37869409Y-25502171D01*
X38041639Y-25446211D01*
X38202994Y-25363996D01*
X38349501Y-25257553D01*
X38477553Y-25129501D01*
X38583996Y-24982994D01*
X38666211Y-24821639D01*
X38722171Y-24649409D01*
X38739765Y-24538326D01*
X38747527Y-24489321D01*
X38777456Y-24426186D01*
X38836768Y-24389255D01*
X38906630Y-24390253D01*
G37*
%TD.AperFunction*%
%TA.AperFunction,NonConductor*%
G36*
X53204329Y-23356738D02*
G01*
X53226418Y-23358318D01*
X53237201Y-23366390D01*
X53250123Y-23370185D01*
X53264622Y-23386918D01*
X53282351Y-23400190D01*
X53287058Y-23412810D01*
X53295878Y-23422989D01*
X53299029Y-23444906D01*
X53306768Y-23465654D01*
X53303905Y-23478814D01*
X53305822Y-23492147D01*
X53296622Y-23512290D01*
X53291916Y-23533927D01*
X53278647Y-23551652D01*
X53276797Y-23555703D01*
X53270765Y-23562181D01*
X53202445Y-23630500D01*
X53202441Y-23630505D01*
X53096006Y-23777002D01*
X53013788Y-23938360D01*
X53013787Y-23938363D01*
X52957829Y-24110589D01*
X52929500Y-24289448D01*
X52929500Y-24470551D01*
X52957829Y-24649410D01*
X52999008Y-24776148D01*
X53001003Y-24845990D01*
X52968758Y-24902147D01*
X52122526Y-25748381D01*
X52061203Y-25781866D01*
X52034845Y-25784700D01*
X51973043Y-25784700D01*
X51820316Y-25825623D01*
X51820309Y-25825626D01*
X51683390Y-25904675D01*
X51683382Y-25904681D01*
X51571581Y-26016482D01*
X51571575Y-26016490D01*
X51492526Y-26153409D01*
X51492523Y-26153416D01*
X51451600Y-26306143D01*
X51451600Y-26464257D01*
X51481976Y-26577620D01*
X51492523Y-26616983D01*
X51492526Y-26616990D01*
X51571575Y-26753909D01*
X51571581Y-26753917D01*
X51682054Y-26864390D01*
X51715539Y-26925713D01*
X51710555Y-26995405D01*
X51682054Y-27039752D01*
X49698626Y-29023181D01*
X49637303Y-29056666D01*
X49610945Y-29059500D01*
X45083160Y-29059500D01*
X45016121Y-29039815D01*
X44972675Y-28991795D01*
X44943991Y-28935500D01*
X44903996Y-28857006D01*
X44823457Y-28746153D01*
X44797558Y-28710505D01*
X44797554Y-28710500D01*
X44669499Y-28582445D01*
X44669494Y-28582441D01*
X44522997Y-28476006D01*
X44522996Y-28476005D01*
X44522994Y-28476004D01*
X44463743Y-28445814D01*
X44361639Y-28393788D01*
X44361636Y-28393787D01*
X44189410Y-28337829D01*
X44029321Y-28312473D01*
X43966186Y-28282544D01*
X43929255Y-28223232D01*
X43930253Y-28153370D01*
X43968863Y-28095137D01*
X44029321Y-28067527D01*
X44099425Y-28056422D01*
X44189409Y-28042171D01*
X44361639Y-27986211D01*
X44522994Y-27903996D01*
X44669501Y-27797553D01*
X44797553Y-27669501D01*
X44903996Y-27522994D01*
X44986211Y-27361639D01*
X45042171Y-27189409D01*
X45062105Y-27063553D01*
X45070500Y-27010551D01*
X45070500Y-26829448D01*
X45043219Y-26657209D01*
X45042171Y-26650591D01*
X45008771Y-26547794D01*
X44986212Y-26478363D01*
X44986211Y-26478360D01*
X44929753Y-26367557D01*
X44903996Y-26317006D01*
X44870749Y-26271245D01*
X44797558Y-26170505D01*
X44797554Y-26170500D01*
X44669499Y-26042445D01*
X44669494Y-26042441D01*
X44522997Y-25936006D01*
X44522996Y-25936005D01*
X44522994Y-25936004D01*
X44447591Y-25897584D01*
X44361639Y-25853788D01*
X44361636Y-25853787D01*
X44189410Y-25797829D01*
X44057728Y-25776972D01*
X43994594Y-25747042D01*
X43957663Y-25687731D01*
X43958661Y-25617868D01*
X43997271Y-25559636D01*
X44061235Y-25531522D01*
X44077120Y-25530499D01*
X44814864Y-25530499D01*
X44814879Y-25530497D01*
X44814882Y-25530497D01*
X44839987Y-25527586D01*
X44839988Y-25527585D01*
X44839991Y-25527585D01*
X44942765Y-25482206D01*
X45022206Y-25402765D01*
X45067585Y-25299991D01*
X45070500Y-25274865D01*
X45070499Y-23485136D01*
X45070499Y-23485134D01*
X45070298Y-23481658D01*
X45086080Y-23413594D01*
X45136154Y-23364867D01*
X45194091Y-23350500D01*
X53183084Y-23350500D01*
X53204329Y-23356738D01*
G37*
%TD.AperFunction*%
%TA.AperFunction,NonConductor*%
G36*
X42688833Y-25128371D02*
G01*
X42744767Y-25170242D01*
X42769184Y-25235707D01*
X42769500Y-25244549D01*
X42769500Y-25274854D01*
X42769502Y-25274882D01*
X42772413Y-25299987D01*
X42772415Y-25299991D01*
X42817793Y-25402764D01*
X42817794Y-25402765D01*
X42897235Y-25482206D01*
X43000009Y-25527585D01*
X43025135Y-25530500D01*
X43762873Y-25530499D01*
X43829910Y-25550183D01*
X43875665Y-25602987D01*
X43885609Y-25672146D01*
X43856584Y-25735702D01*
X43797806Y-25773476D01*
X43782270Y-25776972D01*
X43650589Y-25797829D01*
X43478363Y-25853787D01*
X43478360Y-25853788D01*
X43317002Y-25936006D01*
X43170505Y-26042441D01*
X43170500Y-26042445D01*
X43042445Y-26170500D01*
X43042441Y-26170505D01*
X42936006Y-26317002D01*
X42853788Y-26478360D01*
X42853787Y-26478363D01*
X42797829Y-26650589D01*
X42769500Y-26829448D01*
X42769500Y-27010551D01*
X42797829Y-27189410D01*
X42853787Y-27361636D01*
X42853788Y-27361639D01*
X42936006Y-27522997D01*
X43042441Y-27669494D01*
X43042445Y-27669499D01*
X43170500Y-27797554D01*
X43170505Y-27797558D01*
X43298287Y-27890396D01*
X43317006Y-27903996D01*
X43393094Y-27942765D01*
X43478360Y-27986211D01*
X43478363Y-27986212D01*
X43530670Y-28003207D01*
X43650591Y-28042171D01*
X43723639Y-28053740D01*
X43810678Y-28067527D01*
X43873813Y-28097456D01*
X43910744Y-28156768D01*
X43909746Y-28226631D01*
X43871136Y-28284863D01*
X43810678Y-28312473D01*
X43650589Y-28337829D01*
X43478363Y-28393787D01*
X43478360Y-28393788D01*
X43317002Y-28476006D01*
X43170505Y-28582441D01*
X43170500Y-28582445D01*
X43042445Y-28710500D01*
X43042441Y-28710505D01*
X42936006Y-28857002D01*
X42867325Y-28991795D01*
X42819350Y-29042591D01*
X42756840Y-29059500D01*
X42024000Y-29059500D01*
X41956961Y-29039815D01*
X41911206Y-28987011D01*
X41900000Y-28935500D01*
X41900000Y-25866054D01*
X41919685Y-25799015D01*
X41936315Y-25778377D01*
X42557821Y-25156870D01*
X42619142Y-25123387D01*
X42688833Y-25128371D01*
G37*
%TD.AperFunction*%
%TA.AperFunction,NonConductor*%
G36*
X31286630Y-24390253D02*
G01*
X31344863Y-24428863D01*
X31372473Y-24489321D01*
X31397829Y-24649410D01*
X31453787Y-24821636D01*
X31453788Y-24821639D01*
X31536006Y-24982997D01*
X31642441Y-25129494D01*
X31642445Y-25129499D01*
X31770500Y-25257554D01*
X31770505Y-25257558D01*
X31865325Y-25326448D01*
X31917006Y-25363996D01*
X32022484Y-25417740D01*
X32078360Y-25446211D01*
X32078363Y-25446212D01*
X32138709Y-25465819D01*
X32250591Y-25502171D01*
X32333429Y-25515291D01*
X32429449Y-25530500D01*
X32429454Y-25530500D01*
X32610551Y-25530500D01*
X32789409Y-25502171D01*
X32789412Y-25502170D01*
X32933284Y-25455423D01*
X33003123Y-25453429D01*
X33059281Y-25485674D01*
X34661187Y-27087580D01*
X34709293Y-27115354D01*
X34744771Y-27135838D01*
X34752512Y-27140307D01*
X34854373Y-27167600D01*
X34854375Y-27167600D01*
X40433925Y-27167600D01*
X40433927Y-27167600D01*
X40535788Y-27140307D01*
X40535789Y-27140306D01*
X40543639Y-27138203D01*
X40544545Y-27141585D01*
X40598020Y-27135838D01*
X40660498Y-27167115D01*
X40696149Y-27227205D01*
X40700000Y-27257867D01*
X40700000Y-28935500D01*
X40680315Y-29002539D01*
X40627511Y-29048294D01*
X40576000Y-29059500D01*
X32737255Y-29059500D01*
X32670216Y-29039815D01*
X32649574Y-29023181D01*
X28545674Y-24919281D01*
X28512189Y-24857958D01*
X28515423Y-24793284D01*
X28562171Y-24649409D01*
X28568593Y-24608862D01*
X28587527Y-24489321D01*
X28617456Y-24426186D01*
X28676768Y-24389255D01*
X28746630Y-24390253D01*
X28804863Y-24428863D01*
X28832473Y-24489321D01*
X28857829Y-24649410D01*
X28913787Y-24821636D01*
X28913788Y-24821639D01*
X28996006Y-24982997D01*
X29091361Y-25114244D01*
X29091365Y-25114248D01*
X29102447Y-25129501D01*
X29230499Y-25257553D01*
X29245751Y-25268634D01*
X29245755Y-25268638D01*
X29325325Y-25326448D01*
X29377006Y-25363996D01*
X29482484Y-25417740D01*
X29538360Y-25446211D01*
X29538363Y-25446212D01*
X29598709Y-25465819D01*
X29710591Y-25502171D01*
X29793429Y-25515291D01*
X29889449Y-25530500D01*
X29889454Y-25530500D01*
X30070551Y-25530500D01*
X30157480Y-25516731D01*
X30249409Y-25502171D01*
X30421639Y-25446211D01*
X30582994Y-25363996D01*
X30729501Y-25257553D01*
X30857553Y-25129501D01*
X30963996Y-24982994D01*
X31046211Y-24821639D01*
X31102171Y-24649409D01*
X31119765Y-24538326D01*
X31127527Y-24489321D01*
X31157456Y-24426186D01*
X31216768Y-24389255D01*
X31286630Y-24390253D01*
G37*
%TD.AperFunction*%
%TA.AperFunction,NonConductor*%
G36*
X59992539Y-26067585D02*
G01*
X60038294Y-26120389D01*
X60049500Y-26171900D01*
X60049500Y-27814856D01*
X60049502Y-27814882D01*
X60052413Y-27839987D01*
X60052415Y-27839991D01*
X60097793Y-27942764D01*
X60097794Y-27942765D01*
X60177235Y-28022206D01*
X60280009Y-28067585D01*
X60305135Y-28070500D01*
X61042873Y-28070499D01*
X61109910Y-28090183D01*
X61155665Y-28142987D01*
X61165609Y-28212146D01*
X61136584Y-28275702D01*
X61077806Y-28313476D01*
X61062270Y-28316972D01*
X60930589Y-28337829D01*
X60758363Y-28393787D01*
X60758360Y-28393788D01*
X60597002Y-28476006D01*
X60450505Y-28582441D01*
X60450500Y-28582445D01*
X60322445Y-28710500D01*
X60322441Y-28710505D01*
X60216006Y-28857002D01*
X60133788Y-29018360D01*
X60133787Y-29018363D01*
X60077829Y-29190589D01*
X60049500Y-29369448D01*
X60049500Y-29550551D01*
X60077829Y-29729412D01*
X60130297Y-29890894D01*
X60132292Y-29960735D01*
X60096211Y-30020567D01*
X60033510Y-30051395D01*
X59964096Y-30043430D01*
X59924685Y-30016892D01*
X59047315Y-29139522D01*
X59047313Y-29139520D01*
X59047310Y-29139518D01*
X59047306Y-29139515D01*
X58972952Y-29096586D01*
X58924737Y-29046019D01*
X58911515Y-28977412D01*
X58937483Y-28912547D01*
X58947259Y-28901532D01*
X59437403Y-28411387D01*
X59437408Y-28411384D01*
X59447611Y-28401180D01*
X59447613Y-28401180D01*
X59522180Y-28326613D01*
X59574907Y-28235287D01*
X59584496Y-28199500D01*
X59602201Y-28133426D01*
X59602201Y-28027973D01*
X59602201Y-28020378D01*
X59602200Y-28020360D01*
X59602200Y-26960829D01*
X59602201Y-26960816D01*
X59602201Y-26845374D01*
X59577694Y-26753916D01*
X59574907Y-26743513D01*
X59574906Y-26743512D01*
X59574906Y-26743510D01*
X59574904Y-26743507D01*
X59562904Y-26722722D01*
X59562901Y-26722718D01*
X59558083Y-26714373D01*
X59522180Y-26652187D01*
X59447613Y-26577620D01*
X59447610Y-26577618D01*
X59438593Y-26568600D01*
X59438589Y-26568596D01*
X59228919Y-26358926D01*
X59195434Y-26297603D01*
X59192600Y-26271245D01*
X59192600Y-26209445D01*
X59192600Y-26209443D01*
X59191140Y-26203994D01*
X59192801Y-26134146D01*
X59231963Y-26076283D01*
X59296190Y-26048777D01*
X59310914Y-26047900D01*
X59925500Y-26047900D01*
X59992539Y-26067585D01*
G37*
%TD.AperFunction*%
%TA.AperFunction,NonConductor*%
G36*
X52853801Y-27078718D02*
G01*
X52876747Y-27080359D01*
X52886825Y-27087904D01*
X52898955Y-27091278D01*
X52914266Y-27108446D01*
X52932680Y-27122231D01*
X52938191Y-27135273D01*
X52945460Y-27143423D01*
X52955886Y-27177142D01*
X52957829Y-27189410D01*
X53013787Y-27361636D01*
X53013788Y-27361639D01*
X53096006Y-27522997D01*
X53202441Y-27669494D01*
X53202445Y-27669499D01*
X53229065Y-27696119D01*
X53239677Y-27715555D01*
X53254178Y-27732289D01*
X53256094Y-27745620D01*
X53262550Y-27757442D01*
X53260970Y-27779528D01*
X53264122Y-27801447D01*
X53258526Y-27813698D01*
X53257566Y-27827134D01*
X53244295Y-27844860D01*
X53235097Y-27865003D01*
X53223765Y-27872285D01*
X53215694Y-27883067D01*
X53194948Y-27890804D01*
X53176319Y-27902777D01*
X53154400Y-27905928D01*
X53150230Y-27907484D01*
X53141384Y-27907800D01*
X52991639Y-27907800D01*
X52991623Y-27907799D01*
X52984027Y-27907799D01*
X52878574Y-27907799D01*
X52776713Y-27935093D01*
X52688173Y-27986212D01*
X52685384Y-27987822D01*
X50498326Y-30174881D01*
X50437003Y-30208366D01*
X50410645Y-30211200D01*
X45030831Y-30211200D01*
X45028190Y-30210424D01*
X45025520Y-30211086D01*
X44994864Y-30200638D01*
X44963792Y-30191515D01*
X44961990Y-30189435D01*
X44959385Y-30188548D01*
X44939238Y-30163178D01*
X44918037Y-30138711D01*
X44917645Y-30135988D01*
X44915934Y-30133833D01*
X44912702Y-30101612D01*
X44908093Y-30069553D01*
X44909152Y-30066211D01*
X44908962Y-30064312D01*
X44920347Y-30030905D01*
X44972676Y-29928205D01*
X45020650Y-29877409D01*
X45083160Y-29860500D01*
X49880925Y-29860500D01*
X49880927Y-29860500D01*
X49982788Y-29833207D01*
X50074113Y-29780480D01*
X52745732Y-27108859D01*
X52756781Y-27102826D01*
X52764890Y-27093194D01*
X52786866Y-27086398D01*
X52807055Y-27075375D01*
X52819613Y-27076273D01*
X52831642Y-27072554D01*
X52853801Y-27078718D01*
G37*
%TD.AperFunction*%
%TA.AperFunction,NonConductor*%
G36*
X42823879Y-29880185D02*
G01*
X42867324Y-29928205D01*
X42919653Y-30030905D01*
X42932550Y-30099574D01*
X42906274Y-30164314D01*
X42849168Y-30204572D01*
X42809169Y-30211200D01*
X42024000Y-30211200D01*
X41956961Y-30191515D01*
X41911206Y-30138711D01*
X41900000Y-30087200D01*
X41900000Y-29984500D01*
X41919685Y-29917461D01*
X41972489Y-29871706D01*
X42024000Y-29860500D01*
X42756840Y-29860500D01*
X42823879Y-29880185D01*
G37*
%TD.AperFunction*%
%TA.AperFunction,NonConductor*%
G36*
X40584685Y-29863050D02*
G01*
X40593647Y-29861762D01*
X40617687Y-29872740D01*
X40643039Y-29880185D01*
X40648966Y-29887025D01*
X40657203Y-29890787D01*
X40671492Y-29913021D01*
X40688794Y-29932989D01*
X40691081Y-29943503D01*
X40694977Y-29949565D01*
X40700000Y-29984500D01*
X40700000Y-30087200D01*
X40680315Y-30154239D01*
X40627511Y-30199994D01*
X40576000Y-30211200D01*
X39505398Y-30211200D01*
X39438359Y-30191515D01*
X39417717Y-30174881D01*
X39372817Y-30129981D01*
X39372812Y-30129977D01*
X39306837Y-30091887D01*
X39258622Y-30041321D01*
X39245398Y-29972714D01*
X39271366Y-29907849D01*
X39328280Y-29867320D01*
X39368837Y-29860500D01*
X40576000Y-29860500D01*
X40584685Y-29863050D01*
G37*
%TD.AperFunction*%
%TA.AperFunction,NonConductor*%
G36*
X58651184Y-29880185D02*
G01*
X58671826Y-29896819D01*
X58952826Y-30177819D01*
X58986311Y-30239142D01*
X58981327Y-30308834D01*
X58939455Y-30364767D01*
X58873991Y-30389184D01*
X58865145Y-30389500D01*
X55070140Y-30389500D01*
X55003101Y-30369815D01*
X54957346Y-30317011D01*
X54947402Y-30247853D01*
X54969822Y-30192615D01*
X55015330Y-30129977D01*
X55063996Y-30062994D01*
X55132675Y-29928205D01*
X55180650Y-29877409D01*
X55243160Y-29860500D01*
X58584145Y-29860500D01*
X58651184Y-29880185D01*
G37*
%TD.AperFunction*%
%TA.AperFunction,NonConductor*%
G36*
X63496201Y-31411995D02*
G01*
X63508447Y-31410235D01*
X63529567Y-31419880D01*
X63552160Y-31425219D01*
X63560749Y-31434120D01*
X63572003Y-31439260D01*
X63584554Y-31458790D01*
X63600676Y-31475498D01*
X63607227Y-31494071D01*
X63609777Y-31498038D01*
X63612417Y-31508782D01*
X63630261Y-31598489D01*
X63630264Y-31598501D01*
X63690602Y-31744172D01*
X63690609Y-31744185D01*
X63778210Y-31875288D01*
X63778213Y-31875292D01*
X63815240Y-31912319D01*
X63848725Y-31973642D01*
X63843741Y-32043334D01*
X63815240Y-32087681D01*
X63778213Y-32124707D01*
X63778210Y-32124711D01*
X63690609Y-32255814D01*
X63690602Y-32255827D01*
X63630264Y-32401498D01*
X63630261Y-32401508D01*
X63612417Y-32491218D01*
X63580032Y-32553128D01*
X63519316Y-32587703D01*
X63449547Y-32583963D01*
X63392875Y-32543096D01*
X63367294Y-32478078D01*
X63366800Y-32467026D01*
X63366800Y-31532973D01*
X63373340Y-31510697D01*
X63375410Y-31487573D01*
X63383000Y-31477802D01*
X63386485Y-31465934D01*
X63404027Y-31450733D01*
X63418273Y-31432395D01*
X63429941Y-31428278D01*
X63439289Y-31420179D01*
X63462267Y-31416874D01*
X63484163Y-31409151D01*
X63496201Y-31411995D01*
G37*
%TD.AperFunction*%
%TA.AperFunction,NonConductor*%
G36*
X63572003Y-32709260D02*
G01*
X63609777Y-32768038D01*
X63612417Y-32778782D01*
X63630261Y-32868489D01*
X63630264Y-32868501D01*
X63690602Y-33014172D01*
X63690609Y-33014185D01*
X63778210Y-33145288D01*
X63778213Y-33145292D01*
X63815240Y-33182319D01*
X63848725Y-33243642D01*
X63843741Y-33313334D01*
X63815240Y-33357681D01*
X63778213Y-33394707D01*
X63778210Y-33394711D01*
X63690609Y-33525814D01*
X63690604Y-33525823D01*
X63681564Y-33547648D01*
X63660978Y-33573190D01*
X63641326Y-33599450D01*
X63639167Y-33600255D01*
X63637721Y-33602050D01*
X63606599Y-33612407D01*
X63575865Y-33623875D01*
X63573612Y-33623385D01*
X63571426Y-33624113D01*
X63539637Y-33615998D01*
X63507590Y-33609031D01*
X63505130Y-33607190D01*
X63503727Y-33606832D01*
X63479333Y-33587884D01*
X63403129Y-33511698D01*
X63369637Y-33450378D01*
X63366800Y-33424006D01*
X63366800Y-32802973D01*
X63386485Y-32735934D01*
X63439289Y-32690179D01*
X63508447Y-32680235D01*
X63572003Y-32709260D01*
G37*
%TD.AperFunction*%
%TA.AperFunction,NonConductor*%
G36*
X42953306Y-33690185D02*
G01*
X42999061Y-33742989D01*
X43009005Y-33812147D01*
X42986586Y-33867385D01*
X42936003Y-33937006D01*
X42867325Y-34071795D01*
X42819350Y-34122591D01*
X42756840Y-34139500D01*
X42024000Y-34139500D01*
X42015314Y-34136949D01*
X42006353Y-34138238D01*
X41982312Y-34127259D01*
X41956961Y-34119815D01*
X41951033Y-34112974D01*
X41942797Y-34109213D01*
X41928507Y-34086978D01*
X41911206Y-34067011D01*
X41908918Y-34056496D01*
X41905023Y-34050435D01*
X41900000Y-34015500D01*
X41900000Y-33794500D01*
X41919685Y-33727461D01*
X41972489Y-33681706D01*
X42024000Y-33670500D01*
X42886267Y-33670500D01*
X42953306Y-33690185D01*
G37*
%TD.AperFunction*%
%TA.AperFunction,NonConductor*%
G36*
X62485134Y-33085973D02*
G01*
X62541067Y-33127845D01*
X62565484Y-33193309D01*
X62565800Y-33202155D01*
X62565800Y-33588595D01*
X62565793Y-33588622D01*
X62565800Y-33643205D01*
X62565800Y-33694038D01*
X62565805Y-33694072D01*
X62579643Y-33745692D01*
X62579644Y-33745706D01*
X62579647Y-33745706D01*
X62579647Y-33745707D01*
X62591649Y-33790499D01*
X62593095Y-33795894D01*
X62593110Y-33795930D01*
X62619611Y-33841819D01*
X62623463Y-33848490D01*
X62645820Y-33887213D01*
X62645847Y-33887247D01*
X62645850Y-33887252D01*
X62664416Y-33905814D01*
X62682964Y-33924358D01*
X62682979Y-33924372D01*
X62724275Y-33965668D01*
X62757760Y-34026991D01*
X62752776Y-34096683D01*
X62724275Y-34141030D01*
X62531501Y-34333805D01*
X62470178Y-34367290D01*
X62400487Y-34362306D01*
X62344553Y-34320435D01*
X62323244Y-34275061D01*
X62322172Y-34270597D01*
X62322171Y-34270591D01*
X62275937Y-34128294D01*
X62266212Y-34098363D01*
X62266211Y-34098360D01*
X62223991Y-34015500D01*
X62183996Y-33937006D01*
X62147832Y-33887230D01*
X62077558Y-33790505D01*
X62077554Y-33790500D01*
X61965504Y-33678450D01*
X61932019Y-33617127D01*
X61937003Y-33547435D01*
X61965502Y-33503090D01*
X62354119Y-33114474D01*
X62415442Y-33080989D01*
X62485134Y-33085973D01*
G37*
%TD.AperFunction*%
%TA.AperFunction,NonConductor*%
G36*
X60083689Y-33892416D02*
G01*
X60139623Y-33934287D01*
X60164040Y-33999752D01*
X60150842Y-34064891D01*
X60133789Y-34098359D01*
X60133787Y-34098363D01*
X60077829Y-34270589D01*
X60049500Y-34449448D01*
X60049500Y-34630551D01*
X60077829Y-34809410D01*
X60133787Y-34981636D01*
X60133788Y-34981639D01*
X60216003Y-35142993D01*
X60314249Y-35278218D01*
X60337728Y-35344025D01*
X60321902Y-35412079D01*
X60275932Y-35458489D01*
X60222190Y-35489518D01*
X60222184Y-35489522D01*
X59068526Y-36643181D01*
X59007203Y-36676666D01*
X58980845Y-36679500D01*
X55243160Y-36679500D01*
X55231452Y-36676062D01*
X55219302Y-36677183D01*
X55198552Y-36666401D01*
X55176121Y-36659815D01*
X55166602Y-36649800D01*
X55157302Y-36644968D01*
X55140507Y-36622345D01*
X55135574Y-36617155D01*
X55134058Y-36614510D01*
X55063996Y-36477006D01*
X55022628Y-36420067D01*
X55019297Y-36414255D01*
X55012665Y-36386529D01*
X55003085Y-36359678D01*
X55004641Y-36352984D01*
X55003043Y-36346302D01*
X55012453Y-36319391D01*
X55018911Y-36291624D01*
X55023838Y-36286835D01*
X55026107Y-36280349D01*
X55048571Y-36262798D01*
X55069017Y-36242930D01*
X55076320Y-36241121D01*
X55081167Y-36237335D01*
X55097809Y-36235799D01*
X55126883Y-36228600D01*
X57531825Y-36228600D01*
X57531827Y-36228600D01*
X57633688Y-36201307D01*
X57725013Y-36148580D01*
X59019573Y-34854018D01*
X59080896Y-34820534D01*
X59107254Y-34817700D01*
X59169055Y-34817700D01*
X59169057Y-34817700D01*
X59321784Y-34776777D01*
X59458716Y-34697720D01*
X59570520Y-34585916D01*
X59649577Y-34448984D01*
X59690500Y-34296257D01*
X59690500Y-34234455D01*
X59710185Y-34167416D01*
X59726819Y-34146774D01*
X59823158Y-34050435D01*
X59952677Y-33920915D01*
X60013998Y-33887432D01*
X60083689Y-33892416D01*
G37*
%TD.AperFunction*%
%TA.AperFunction,NonConductor*%
G36*
X64923522Y-37492083D02*
G01*
X64979455Y-37533954D01*
X65003873Y-37599418D01*
X64990674Y-37664559D01*
X64909434Y-37824000D01*
X64836446Y-38048631D01*
X64799500Y-38281902D01*
X64799500Y-38518097D01*
X64836447Y-38751369D01*
X64836447Y-38751372D01*
X64844346Y-38775681D01*
X64846341Y-38845523D01*
X64810260Y-38905355D01*
X64747559Y-38936183D01*
X64678145Y-38928218D01*
X64638734Y-38901680D01*
X64559499Y-38822445D01*
X64559494Y-38822441D01*
X64412997Y-38716006D01*
X64412996Y-38716005D01*
X64412994Y-38716004D01*
X64361300Y-38689664D01*
X64251639Y-38633788D01*
X64251636Y-38633787D01*
X64079410Y-38577829D01*
X64022684Y-38568844D01*
X63959549Y-38538914D01*
X63922619Y-38479602D01*
X63923617Y-38409740D01*
X63954401Y-38358691D01*
X64735703Y-37577387D01*
X64735708Y-37577384D01*
X64745911Y-37567180D01*
X64745913Y-37567180D01*
X64792509Y-37520583D01*
X64853830Y-37487099D01*
X64923522Y-37492083D01*
G37*
%TD.AperFunction*%
%TA.AperFunction,NonConductor*%
G36*
X40643039Y-34960185D02*
G01*
X40688794Y-35012989D01*
X40700000Y-35064500D01*
X40700000Y-38421575D01*
X40680315Y-38488614D01*
X40627511Y-38534369D01*
X40558353Y-38544313D01*
X40537683Y-38539506D01*
X40409411Y-38497829D01*
X40409412Y-38497829D01*
X40230551Y-38469500D01*
X40230546Y-38469500D01*
X40049454Y-38469500D01*
X40049449Y-38469500D01*
X39870589Y-38497829D01*
X39698363Y-38553787D01*
X39698360Y-38553788D01*
X39537002Y-38636006D01*
X39390505Y-38742441D01*
X39390500Y-38742445D01*
X39262445Y-38870500D01*
X39262441Y-38870505D01*
X39156006Y-39017002D01*
X39073788Y-39178360D01*
X39073787Y-39178363D01*
X39017829Y-39350589D01*
X38992473Y-39510678D01*
X38962544Y-39573813D01*
X38903232Y-39610744D01*
X38833369Y-39609746D01*
X38775137Y-39571136D01*
X38747527Y-39510678D01*
X38728593Y-39391137D01*
X38722171Y-39350591D01*
X38666211Y-39178361D01*
X38666211Y-39178360D01*
X38637740Y-39122484D01*
X38583996Y-39017006D01*
X38525275Y-38936183D01*
X38477558Y-38870505D01*
X38477554Y-38870500D01*
X38349499Y-38742445D01*
X38349494Y-38742441D01*
X38202997Y-38636006D01*
X38202996Y-38636005D01*
X38202994Y-38636004D01*
X38151300Y-38609664D01*
X38041639Y-38553788D01*
X38041636Y-38553787D01*
X37869410Y-38497829D01*
X37690551Y-38469500D01*
X37690546Y-38469500D01*
X37509454Y-38469500D01*
X37509449Y-38469500D01*
X37330589Y-38497829D01*
X37158363Y-38553787D01*
X37158360Y-38553788D01*
X36997002Y-38636006D01*
X36850505Y-38742441D01*
X36850500Y-38742445D01*
X36722445Y-38870500D01*
X36722441Y-38870505D01*
X36616006Y-39017002D01*
X36533788Y-39178360D01*
X36533787Y-39178363D01*
X36477829Y-39350589D01*
X36452473Y-39510678D01*
X36422544Y-39573813D01*
X36363232Y-39610744D01*
X36293369Y-39609746D01*
X36235137Y-39571136D01*
X36207527Y-39510678D01*
X36188593Y-39391137D01*
X36182171Y-39350591D01*
X36126211Y-39178361D01*
X36126211Y-39178360D01*
X36097740Y-39122484D01*
X36043996Y-39017006D01*
X35985275Y-38936183D01*
X35937558Y-38870505D01*
X35937554Y-38870500D01*
X35809499Y-38742445D01*
X35809494Y-38742441D01*
X35662997Y-38636006D01*
X35662996Y-38636005D01*
X35662994Y-38636004D01*
X35611300Y-38609664D01*
X35501639Y-38553788D01*
X35501636Y-38553787D01*
X35329410Y-38497829D01*
X35150551Y-38469500D01*
X35150546Y-38469500D01*
X34969454Y-38469500D01*
X34969449Y-38469500D01*
X34790589Y-38497829D01*
X34618363Y-38553787D01*
X34618360Y-38553788D01*
X34457002Y-38636006D01*
X34310505Y-38742441D01*
X34310500Y-38742445D01*
X34182445Y-38870500D01*
X34182441Y-38870505D01*
X34076006Y-39017002D01*
X33993788Y-39178360D01*
X33993787Y-39178363D01*
X33937829Y-39350589D01*
X33912473Y-39510678D01*
X33882544Y-39573813D01*
X33823232Y-39610744D01*
X33753369Y-39609746D01*
X33695137Y-39571136D01*
X33667527Y-39510678D01*
X33648593Y-39391137D01*
X33642171Y-39350591D01*
X33586211Y-39178361D01*
X33586211Y-39178360D01*
X33557740Y-39122484D01*
X33503996Y-39017006D01*
X33445275Y-38936183D01*
X33397558Y-38870505D01*
X33397554Y-38870500D01*
X33269499Y-38742445D01*
X33269494Y-38742441D01*
X33122997Y-38636006D01*
X33122996Y-38636005D01*
X33122994Y-38636004D01*
X33071300Y-38609664D01*
X32961639Y-38553788D01*
X32961636Y-38553787D01*
X32789410Y-38497829D01*
X32610551Y-38469500D01*
X32610546Y-38469500D01*
X32429454Y-38469500D01*
X32429449Y-38469500D01*
X32250589Y-38497829D01*
X32078363Y-38553787D01*
X32078360Y-38553788D01*
X31917002Y-38636006D01*
X31770505Y-38742441D01*
X31770500Y-38742445D01*
X31642445Y-38870500D01*
X31642441Y-38870505D01*
X31536006Y-39017002D01*
X31453788Y-39178360D01*
X31453787Y-39178363D01*
X31397829Y-39350589D01*
X31372473Y-39510678D01*
X31342544Y-39573813D01*
X31283232Y-39610744D01*
X31213369Y-39609746D01*
X31155137Y-39571136D01*
X31127527Y-39510678D01*
X31108593Y-39391137D01*
X31102171Y-39350591D01*
X31046211Y-39178361D01*
X31046211Y-39178360D01*
X31017740Y-39122484D01*
X30963996Y-39017006D01*
X30905275Y-38936183D01*
X30857558Y-38870505D01*
X30857554Y-38870500D01*
X30729499Y-38742445D01*
X30729494Y-38742441D01*
X30582997Y-38636006D01*
X30582996Y-38636005D01*
X30582994Y-38636004D01*
X30531300Y-38609664D01*
X30421639Y-38553788D01*
X30421636Y-38553787D01*
X30249410Y-38497829D01*
X30070551Y-38469500D01*
X30070546Y-38469500D01*
X29889454Y-38469500D01*
X29889449Y-38469500D01*
X29710589Y-38497829D01*
X29538363Y-38553787D01*
X29538360Y-38553788D01*
X29377002Y-38636006D01*
X29245755Y-38731361D01*
X29245747Y-38731368D01*
X29230499Y-38742447D01*
X29102447Y-38870499D01*
X29091368Y-38885747D01*
X29091365Y-38885751D01*
X28996003Y-39017006D01*
X28913788Y-39178360D01*
X28913787Y-39178363D01*
X28857829Y-39350589D01*
X28832473Y-39510678D01*
X28802544Y-39573813D01*
X28743232Y-39610744D01*
X28673369Y-39609746D01*
X28615137Y-39571136D01*
X28587527Y-39510678D01*
X28568593Y-39391137D01*
X28562171Y-39350591D01*
X28515424Y-39206716D01*
X28513429Y-39136875D01*
X28545672Y-39080719D01*
X32649574Y-34976819D01*
X32710897Y-34943334D01*
X32737255Y-34940500D01*
X40576000Y-34940500D01*
X40643039Y-34960185D01*
G37*
%TD.AperFunction*%
%TA.AperFunction,NonConductor*%
G36*
X57658725Y-38902347D02*
G01*
X57671269Y-38901270D01*
X57691613Y-38912004D01*
X57713684Y-38918485D01*
X57721927Y-38927998D01*
X57733065Y-38933875D01*
X57744378Y-38953907D01*
X57759439Y-38971289D01*
X57761230Y-38983749D01*
X57767422Y-38994713D01*
X57766109Y-39017677D01*
X57769383Y-39040447D01*
X57764057Y-39053569D01*
X57763434Y-39064469D01*
X57748481Y-39092808D01*
X57748550Y-39092850D01*
X57747900Y-39093909D01*
X57746964Y-39095685D01*
X57746003Y-39097006D01*
X57663788Y-39258360D01*
X57663787Y-39258363D01*
X57607829Y-39430589D01*
X57586972Y-39562271D01*
X57557042Y-39625405D01*
X57497731Y-39662336D01*
X57427868Y-39661338D01*
X57369636Y-39622728D01*
X57341522Y-39558764D01*
X57340499Y-39542872D01*
X57340499Y-39022800D01*
X57360184Y-38955761D01*
X57412988Y-38910006D01*
X57464499Y-38898800D01*
X57646645Y-38898800D01*
X57658725Y-38902347D01*
G37*
%TD.AperFunction*%
%TA.AperFunction,NonConductor*%
G36*
X21128833Y-23969360D02*
G01*
X21184767Y-24011231D01*
X21209184Y-24076696D01*
X21209500Y-24085542D01*
X21209500Y-25274856D01*
X21209502Y-25274882D01*
X21212413Y-25299987D01*
X21212415Y-25299991D01*
X21257793Y-25402764D01*
X21257794Y-25402765D01*
X21337235Y-25482206D01*
X21440009Y-25527585D01*
X21465135Y-25530500D01*
X23254864Y-25530499D01*
X23254879Y-25530497D01*
X23254882Y-25530497D01*
X23279987Y-25527586D01*
X23279988Y-25527585D01*
X23279991Y-25527585D01*
X23382765Y-25482206D01*
X23462206Y-25402765D01*
X23462210Y-25402755D01*
X23466421Y-25396609D01*
X23520545Y-25352423D01*
X23589965Y-25344513D01*
X23652642Y-25375390D01*
X23656406Y-25378999D01*
X31793319Y-33515912D01*
X31793320Y-33515913D01*
X31867887Y-33590480D01*
X31959213Y-33643207D01*
X32061073Y-33670500D01*
X32166526Y-33670500D01*
X40576000Y-33670500D01*
X40584685Y-33673050D01*
X40593647Y-33671762D01*
X40617687Y-33682740D01*
X40643039Y-33690185D01*
X40648966Y-33697025D01*
X40657203Y-33700787D01*
X40671492Y-33723021D01*
X40688794Y-33742989D01*
X40691081Y-33753503D01*
X40694977Y-33759565D01*
X40700000Y-33794500D01*
X40700000Y-34015500D01*
X40680315Y-34082539D01*
X40627511Y-34128294D01*
X40576000Y-34139500D01*
X32467273Y-34139500D01*
X32365410Y-34166793D01*
X32274087Y-34219520D01*
X32274084Y-34219522D01*
X27979280Y-38514325D01*
X27917957Y-38547810D01*
X27853281Y-38544575D01*
X27709410Y-38497829D01*
X27530551Y-38469500D01*
X27530546Y-38469500D01*
X27349454Y-38469500D01*
X27349449Y-38469500D01*
X27170589Y-38497829D01*
X26998363Y-38553787D01*
X26998360Y-38553788D01*
X26837002Y-38636006D01*
X26690505Y-38742441D01*
X26690500Y-38742445D01*
X26562445Y-38870500D01*
X26562441Y-38870505D01*
X26456006Y-39017002D01*
X26373788Y-39178360D01*
X26373787Y-39178363D01*
X26317829Y-39350589D01*
X26292473Y-39510678D01*
X26262544Y-39573813D01*
X26203232Y-39610744D01*
X26133369Y-39609746D01*
X26075137Y-39571136D01*
X26047527Y-39510678D01*
X26028593Y-39391137D01*
X26022171Y-39350591D01*
X25966211Y-39178361D01*
X25966211Y-39178360D01*
X25937740Y-39122484D01*
X25883996Y-39017006D01*
X25825275Y-38936183D01*
X25777558Y-38870505D01*
X25777554Y-38870500D01*
X25649499Y-38742445D01*
X25649494Y-38742441D01*
X25502997Y-38636006D01*
X25502996Y-38636005D01*
X25502994Y-38636004D01*
X25451300Y-38609664D01*
X25341639Y-38553788D01*
X25341636Y-38553787D01*
X25169410Y-38497829D01*
X24990551Y-38469500D01*
X24990546Y-38469500D01*
X24809454Y-38469500D01*
X24809449Y-38469500D01*
X24630589Y-38497829D01*
X24458363Y-38553787D01*
X24458360Y-38553788D01*
X24297002Y-38636006D01*
X24150505Y-38742441D01*
X24150500Y-38742445D01*
X24022445Y-38870500D01*
X24022441Y-38870505D01*
X23916006Y-39017002D01*
X23833788Y-39178360D01*
X23833787Y-39178363D01*
X23777829Y-39350589D01*
X23752473Y-39510678D01*
X23722544Y-39573813D01*
X23663232Y-39610744D01*
X23593369Y-39609746D01*
X23535137Y-39571136D01*
X23507527Y-39510678D01*
X23488593Y-39391137D01*
X23482171Y-39350591D01*
X23426211Y-39178361D01*
X23426211Y-39178360D01*
X23397740Y-39122484D01*
X23343996Y-39017006D01*
X23285275Y-38936183D01*
X23237558Y-38870505D01*
X23237554Y-38870500D01*
X23109499Y-38742445D01*
X23109494Y-38742441D01*
X22962997Y-38636006D01*
X22962996Y-38636005D01*
X22962994Y-38636004D01*
X22911300Y-38609664D01*
X22801639Y-38553788D01*
X22801636Y-38553787D01*
X22629410Y-38497829D01*
X22450551Y-38469500D01*
X22450546Y-38469500D01*
X22269454Y-38469500D01*
X22269449Y-38469500D01*
X22090589Y-38497829D01*
X21918363Y-38553787D01*
X21918360Y-38553788D01*
X21757002Y-38636006D01*
X21610505Y-38742441D01*
X21610500Y-38742445D01*
X21482445Y-38870500D01*
X21482441Y-38870505D01*
X21376006Y-39017002D01*
X21293788Y-39178360D01*
X21293787Y-39178363D01*
X21237829Y-39350589D01*
X21209500Y-39529448D01*
X21209500Y-39710551D01*
X21237828Y-39889409D01*
X21247997Y-39920704D01*
X21249992Y-39990545D01*
X21213912Y-40050378D01*
X21151211Y-40081206D01*
X21081796Y-40073241D01*
X21042385Y-40046703D01*
X20386819Y-39391137D01*
X20353334Y-39329814D01*
X20350500Y-39303456D01*
X20350500Y-24696543D01*
X20370185Y-24629504D01*
X20386819Y-24608862D01*
X20679024Y-24316657D01*
X20997821Y-23997859D01*
X21059142Y-23964376D01*
X21128833Y-23969360D01*
G37*
%TD.AperFunction*%
%TA.AperFunction,NonConductor*%
G36*
X68092539Y-35370185D02*
G01*
X68138294Y-35422989D01*
X68149500Y-35474500D01*
X68149500Y-39303456D01*
X68129815Y-39370495D01*
X68113181Y-39391137D01*
X66891137Y-40613181D01*
X66829814Y-40646666D01*
X66803456Y-40649500D01*
X64785610Y-40649500D01*
X64718571Y-40629815D01*
X64672816Y-40577011D01*
X64662872Y-40507853D01*
X64685291Y-40452615D01*
X64745676Y-40369501D01*
X64793996Y-40302994D01*
X64876211Y-40141639D01*
X64932171Y-39969409D01*
X64949864Y-39857701D01*
X64960500Y-39790551D01*
X64960500Y-39609449D01*
X64944855Y-39510678D01*
X64939789Y-39478690D01*
X64948743Y-39409399D01*
X64993739Y-39355947D01*
X65060490Y-39335307D01*
X65127804Y-39354031D01*
X65151602Y-39374500D01*
X65152038Y-39374065D01*
X65155483Y-39377510D01*
X65322490Y-39544517D01*
X65513567Y-39683343D01*
X65603804Y-39729321D01*
X65724003Y-39790566D01*
X65724005Y-39790566D01*
X65724008Y-39790568D01*
X65844412Y-39829689D01*
X65948631Y-39863553D01*
X66181903Y-39900500D01*
X66181908Y-39900500D01*
X66418097Y-39900500D01*
X66651368Y-39863553D01*
X66875992Y-39790568D01*
X67086433Y-39683343D01*
X67277510Y-39544517D01*
X67444517Y-39377510D01*
X67583343Y-39186433D01*
X67690568Y-38975992D01*
X67763553Y-38751368D01*
X67769154Y-38716004D01*
X67800500Y-38518097D01*
X67800500Y-38281902D01*
X67763553Y-38048631D01*
X67710749Y-37886119D01*
X67690568Y-37824008D01*
X67690566Y-37824005D01*
X67690566Y-37824003D01*
X67618718Y-37682994D01*
X67583343Y-37613567D01*
X67444517Y-37422490D01*
X67277510Y-37255483D01*
X67086433Y-37116657D01*
X67019204Y-37082402D01*
X66875996Y-37009433D01*
X66651368Y-36936446D01*
X66418097Y-36899500D01*
X66418092Y-36899500D01*
X66181908Y-36899500D01*
X66181903Y-36899500D01*
X65948631Y-36936446D01*
X65724000Y-37009434D01*
X65580793Y-37082402D01*
X65512124Y-37095298D01*
X65447384Y-37069021D01*
X65407127Y-37011915D01*
X65400499Y-36971922D01*
X65400499Y-35900136D01*
X65400497Y-35900117D01*
X65397586Y-35875012D01*
X65397585Y-35875010D01*
X65397585Y-35875009D01*
X65352206Y-35772235D01*
X65352205Y-35772233D01*
X65311158Y-35731186D01*
X65277674Y-35669863D01*
X65282659Y-35600171D01*
X65286195Y-35591669D01*
X65290291Y-35582767D01*
X65309394Y-35554179D01*
X65362970Y-35424831D01*
X65363969Y-35422663D01*
X65385407Y-35398065D01*
X65405893Y-35372644D01*
X65408247Y-35371860D01*
X65409877Y-35369991D01*
X65441206Y-35360890D01*
X65472187Y-35350579D01*
X65476614Y-35350500D01*
X68025500Y-35350500D01*
X68092539Y-35370185D01*
G37*
%TD.AperFunction*%
%TA.AperFunction,NonConductor*%
G36*
X57545702Y-39763415D02*
G01*
X57583476Y-39822193D01*
X57586972Y-39837729D01*
X57607829Y-39969410D01*
X57663787Y-40141636D01*
X57663788Y-40141639D01*
X57746003Y-40302993D01*
X57854709Y-40452615D01*
X57878188Y-40518422D01*
X57862362Y-40586475D01*
X57812256Y-40635170D01*
X57754390Y-40649500D01*
X57464500Y-40649500D01*
X57397461Y-40629815D01*
X57351706Y-40577011D01*
X57340500Y-40525500D01*
X57340500Y-40222994D01*
X57340499Y-39857126D01*
X57360183Y-39790089D01*
X57412987Y-39744334D01*
X57482146Y-39734390D01*
X57545702Y-39763415D01*
G37*
%TD.AperFunction*%
%TA.AperFunction,NonConductor*%
G36*
X54982539Y-38918485D02*
G01*
X55028294Y-38971289D01*
X55039500Y-39022800D01*
X55039501Y-40525500D01*
X55019816Y-40592539D01*
X54967013Y-40638294D01*
X54915501Y-40649500D01*
X53846204Y-40649500D01*
X53779165Y-40629815D01*
X53733410Y-40577011D01*
X53723466Y-40507853D01*
X53752491Y-40444297D01*
X53758523Y-40437819D01*
X53879414Y-40316928D01*
X53981232Y-40176788D01*
X54059873Y-40022445D01*
X54113402Y-39857701D01*
X54140500Y-39686611D01*
X54140500Y-39513389D01*
X54113402Y-39342299D01*
X54075741Y-39226393D01*
X54075307Y-39211184D01*
X54069989Y-39196925D01*
X54074330Y-39176969D01*
X54073747Y-39156558D01*
X54081834Y-39142472D01*
X54084841Y-39128652D01*
X54105985Y-39100406D01*
X54271275Y-38935116D01*
X54332598Y-38901634D01*
X54358955Y-38898800D01*
X54915500Y-38898800D01*
X54982539Y-38918485D01*
G37*
%TD.AperFunction*%
%TA.AperFunction,NonConductor*%
G36*
X53017321Y-36297463D02*
G01*
X53032087Y-36298519D01*
X53048764Y-36311004D01*
X53067898Y-36319244D01*
X53076169Y-36331519D01*
X53088020Y-36340391D01*
X53095300Y-36359910D01*
X53106942Y-36377187D01*
X53107264Y-36391985D01*
X53112437Y-36405855D01*
X53108008Y-36426211D01*
X53108462Y-36447040D01*
X53098389Y-36470428D01*
X53097934Y-36472521D01*
X53098216Y-36472665D01*
X53097670Y-36473736D01*
X53097585Y-36474128D01*
X53096626Y-36475783D01*
X53013788Y-36638360D01*
X53013787Y-36638363D01*
X52957829Y-36810589D01*
X52929500Y-36989448D01*
X52929500Y-37170551D01*
X52957829Y-37349410D01*
X53013787Y-37521636D01*
X53013788Y-37521639D01*
X53096006Y-37682997D01*
X53202441Y-37829494D01*
X53202445Y-37829499D01*
X53330500Y-37957554D01*
X53330505Y-37957558D01*
X53423760Y-38025311D01*
X53477006Y-38063996D01*
X53638361Y-38146211D01*
X53664066Y-38154563D01*
X53666337Y-38156115D01*
X53669083Y-38156312D01*
X53695001Y-38175714D01*
X53721741Y-38193998D01*
X53722813Y-38196534D01*
X53725016Y-38198184D01*
X53736331Y-38228522D01*
X53748940Y-38258356D01*
X53748470Y-38261068D01*
X53749433Y-38263648D01*
X53742549Y-38295290D01*
X53737028Y-38327203D01*
X53734986Y-38330054D01*
X53734581Y-38331921D01*
X53713430Y-38360175D01*
X53539599Y-38534006D01*
X53478276Y-38567491D01*
X53413600Y-38564256D01*
X53297698Y-38526597D01*
X53166271Y-38505781D01*
X53126611Y-38499500D01*
X52953389Y-38499500D01*
X52913728Y-38505781D01*
X52782302Y-38526597D01*
X52744395Y-38538914D01*
X52624628Y-38577829D01*
X52617552Y-38580128D01*
X52463211Y-38658768D01*
X52384434Y-38716004D01*
X52323072Y-38760586D01*
X52323070Y-38760588D01*
X52323069Y-38760588D01*
X52200588Y-38883069D01*
X52200588Y-38883070D01*
X52200586Y-38883072D01*
X52156859Y-38943256D01*
X52098768Y-39023211D01*
X52020128Y-39177552D01*
X52020127Y-39177554D01*
X52020127Y-39177555D01*
X51993872Y-39258360D01*
X51966597Y-39342302D01*
X51939500Y-39513389D01*
X51939500Y-39686610D01*
X51963434Y-39837729D01*
X51966598Y-39857701D01*
X52020127Y-40022445D01*
X52098768Y-40176788D01*
X52200586Y-40316928D01*
X52200588Y-40316930D01*
X52321477Y-40437819D01*
X52354962Y-40499142D01*
X52349978Y-40568834D01*
X52308106Y-40624767D01*
X52242642Y-40649184D01*
X52233796Y-40649500D01*
X49168625Y-40649500D01*
X49101586Y-40629815D01*
X49055831Y-40577011D01*
X49045887Y-40507853D01*
X49055191Y-40475412D01*
X49057585Y-40469991D01*
X49060500Y-40444865D01*
X49060500Y-40110098D01*
X49080185Y-40043059D01*
X49132989Y-39997304D01*
X49152401Y-39990324D01*
X49216288Y-39973207D01*
X49307613Y-39920480D01*
X52901074Y-36327018D01*
X52919354Y-36317036D01*
X52934800Y-36303054D01*
X52949403Y-36300628D01*
X52962395Y-36293535D01*
X52983173Y-36295020D01*
X53003726Y-36291608D01*
X53017321Y-36297463D01*
G37*
%TD.AperFunction*%
%TA.AperFunction,NonConductor*%
G36*
X45208160Y-34756925D02*
G01*
X45241130Y-34780522D01*
X47587581Y-37126973D01*
X47621066Y-37188296D01*
X47623900Y-37214654D01*
X47623900Y-38375500D01*
X47604215Y-38442539D01*
X47551411Y-38488294D01*
X47499900Y-38499500D01*
X47115143Y-38499500D01*
X47115117Y-38499502D01*
X47090012Y-38502413D01*
X47090008Y-38502415D01*
X46987235Y-38547793D01*
X46907794Y-38627234D01*
X46862415Y-38730006D01*
X46862415Y-38730008D01*
X46859500Y-38755131D01*
X46859500Y-40444856D01*
X46859502Y-40444882D01*
X46862413Y-40469987D01*
X46862414Y-40469989D01*
X46864810Y-40475415D01*
X46873881Y-40544693D01*
X46844057Y-40607878D01*
X46784807Y-40644908D01*
X46751375Y-40649500D01*
X42024000Y-40649500D01*
X41956961Y-40629815D01*
X41911206Y-40577011D01*
X41900000Y-40525500D01*
X41900000Y-35064500D01*
X41919685Y-34997461D01*
X41972489Y-34951706D01*
X42024000Y-34940500D01*
X42756840Y-34940500D01*
X42823879Y-34960185D01*
X42867325Y-35008205D01*
X42936003Y-35142993D01*
X42936006Y-35142997D01*
X43042441Y-35289494D01*
X43042445Y-35289499D01*
X43170500Y-35417554D01*
X43170505Y-35417558D01*
X43269556Y-35489522D01*
X43317006Y-35523996D01*
X43416353Y-35574616D01*
X43478360Y-35606211D01*
X43478363Y-35606212D01*
X43564476Y-35634191D01*
X43650591Y-35662171D01*
X43723401Y-35673703D01*
X43810678Y-35687527D01*
X43873813Y-35717456D01*
X43910744Y-35776768D01*
X43909746Y-35846631D01*
X43871136Y-35904863D01*
X43810678Y-35932473D01*
X43650589Y-35957829D01*
X43478363Y-36013787D01*
X43478360Y-36013788D01*
X43317002Y-36096006D01*
X43170505Y-36202441D01*
X43170500Y-36202445D01*
X43042445Y-36330500D01*
X43042441Y-36330505D01*
X42936006Y-36477002D01*
X42853788Y-36638360D01*
X42853787Y-36638363D01*
X42797829Y-36810589D01*
X42769500Y-36989448D01*
X42769500Y-37170551D01*
X42797829Y-37349410D01*
X42853787Y-37521636D01*
X42853788Y-37521639D01*
X42936006Y-37682997D01*
X43042441Y-37829494D01*
X43042445Y-37829499D01*
X43170500Y-37957554D01*
X43170505Y-37957558D01*
X43263760Y-38025311D01*
X43317006Y-38063996D01*
X43377788Y-38094966D01*
X43478360Y-38146211D01*
X43478363Y-38146212D01*
X43509449Y-38156312D01*
X43650591Y-38202171D01*
X43733429Y-38215291D01*
X43829449Y-38230500D01*
X43829454Y-38230500D01*
X44010551Y-38230500D01*
X44097259Y-38216765D01*
X44189409Y-38202171D01*
X44361639Y-38146211D01*
X44522994Y-38063996D01*
X44669501Y-37957553D01*
X44797553Y-37829501D01*
X44903996Y-37682994D01*
X44986211Y-37521639D01*
X45042171Y-37349409D01*
X45063514Y-37214654D01*
X45070500Y-37170551D01*
X45070500Y-36989448D01*
X45047274Y-36842810D01*
X45042171Y-36810591D01*
X44998825Y-36677183D01*
X44986212Y-36638363D01*
X44986211Y-36638360D01*
X44957740Y-36582484D01*
X44903996Y-36477006D01*
X44882225Y-36447040D01*
X44797558Y-36330505D01*
X44797554Y-36330500D01*
X44669499Y-36202445D01*
X44669494Y-36202441D01*
X44522997Y-36096006D01*
X44522996Y-36096005D01*
X44522994Y-36096004D01*
X44471300Y-36069664D01*
X44361639Y-36013788D01*
X44361636Y-36013787D01*
X44189410Y-35957829D01*
X44029321Y-35932473D01*
X43966186Y-35902544D01*
X43929255Y-35843232D01*
X43930253Y-35773370D01*
X43968863Y-35715137D01*
X44029321Y-35687527D01*
X44099425Y-35676422D01*
X44189409Y-35662171D01*
X44361639Y-35606211D01*
X44522994Y-35523996D01*
X44669501Y-35417553D01*
X44797553Y-35289501D01*
X44903996Y-35142994D01*
X44986211Y-34981639D01*
X45035518Y-34829886D01*
X45074955Y-34772210D01*
X45139313Y-34745011D01*
X45208160Y-34756925D01*
G37*
%TD.AperFunction*%
%TA.AperFunction,NonConductor*%
G36*
X38906630Y-39630253D02*
G01*
X38964863Y-39668863D01*
X38992473Y-39729321D01*
X39017829Y-39889410D01*
X39073787Y-40061636D01*
X39073788Y-40061639D01*
X39156006Y-40222997D01*
X39262441Y-40369494D01*
X39262445Y-40369499D01*
X39330765Y-40437819D01*
X39364250Y-40499142D01*
X39359266Y-40568834D01*
X39317394Y-40624767D01*
X39251930Y-40649184D01*
X39243084Y-40649500D01*
X38496916Y-40649500D01*
X38429877Y-40629815D01*
X38384122Y-40577011D01*
X38374178Y-40507853D01*
X38403203Y-40444297D01*
X38409235Y-40437819D01*
X38477553Y-40369501D01*
X38583996Y-40222994D01*
X38666211Y-40061639D01*
X38722171Y-39889409D01*
X38737902Y-39790089D01*
X38747527Y-39729321D01*
X38777456Y-39666186D01*
X38836768Y-39629255D01*
X38906630Y-39630253D01*
G37*
%TD.AperFunction*%
%TA.AperFunction,NonConductor*%
G36*
X36366630Y-39630253D02*
G01*
X36424863Y-39668863D01*
X36452473Y-39729321D01*
X36477829Y-39889410D01*
X36533787Y-40061636D01*
X36533788Y-40061639D01*
X36616006Y-40222997D01*
X36722441Y-40369494D01*
X36722445Y-40369499D01*
X36790765Y-40437819D01*
X36824250Y-40499142D01*
X36819266Y-40568834D01*
X36777394Y-40624767D01*
X36711930Y-40649184D01*
X36703084Y-40649500D01*
X35956916Y-40649500D01*
X35889877Y-40629815D01*
X35844122Y-40577011D01*
X35834178Y-40507853D01*
X35863203Y-40444297D01*
X35869235Y-40437819D01*
X35937553Y-40369501D01*
X36043996Y-40222994D01*
X36126211Y-40061639D01*
X36182171Y-39889409D01*
X36197902Y-39790089D01*
X36207527Y-39729321D01*
X36237456Y-39666186D01*
X36296768Y-39629255D01*
X36366630Y-39630253D01*
G37*
%TD.AperFunction*%
%TA.AperFunction,NonConductor*%
G36*
X33826630Y-39630253D02*
G01*
X33884863Y-39668863D01*
X33912473Y-39729321D01*
X33937829Y-39889410D01*
X33993787Y-40061636D01*
X33993788Y-40061639D01*
X34076006Y-40222997D01*
X34182441Y-40369494D01*
X34182445Y-40369499D01*
X34250765Y-40437819D01*
X34284250Y-40499142D01*
X34279266Y-40568834D01*
X34237394Y-40624767D01*
X34171930Y-40649184D01*
X34163084Y-40649500D01*
X33416916Y-40649500D01*
X33349877Y-40629815D01*
X33304122Y-40577011D01*
X33294178Y-40507853D01*
X33323203Y-40444297D01*
X33329235Y-40437819D01*
X33397553Y-40369501D01*
X33503996Y-40222994D01*
X33586211Y-40061639D01*
X33642171Y-39889409D01*
X33657902Y-39790089D01*
X33667527Y-39729321D01*
X33697456Y-39666186D01*
X33756768Y-39629255D01*
X33826630Y-39630253D01*
G37*
%TD.AperFunction*%
%TA.AperFunction,NonConductor*%
G36*
X31286630Y-39630253D02*
G01*
X31344863Y-39668863D01*
X31372473Y-39729321D01*
X31397829Y-39889410D01*
X31453787Y-40061636D01*
X31453788Y-40061639D01*
X31536006Y-40222997D01*
X31642441Y-40369494D01*
X31642445Y-40369499D01*
X31710765Y-40437819D01*
X31744250Y-40499142D01*
X31739266Y-40568834D01*
X31697394Y-40624767D01*
X31631930Y-40649184D01*
X31623084Y-40649500D01*
X30876916Y-40649500D01*
X30809877Y-40629815D01*
X30764122Y-40577011D01*
X30754178Y-40507853D01*
X30783203Y-40444297D01*
X30789235Y-40437819D01*
X30857553Y-40369501D01*
X30963996Y-40222994D01*
X31046211Y-40061639D01*
X31102171Y-39889409D01*
X31117902Y-39790089D01*
X31127527Y-39729321D01*
X31157456Y-39666186D01*
X31216768Y-39629255D01*
X31286630Y-39630253D01*
G37*
%TD.AperFunction*%
%TA.AperFunction,NonConductor*%
G36*
X28746630Y-39630253D02*
G01*
X28804863Y-39668863D01*
X28832473Y-39729321D01*
X28857829Y-39889410D01*
X28913787Y-40061636D01*
X28913788Y-40061639D01*
X28996006Y-40222997D01*
X29102441Y-40369494D01*
X29102445Y-40369499D01*
X29170765Y-40437819D01*
X29204250Y-40499142D01*
X29199266Y-40568834D01*
X29157394Y-40624767D01*
X29091930Y-40649184D01*
X29083084Y-40649500D01*
X28336916Y-40649500D01*
X28269877Y-40629815D01*
X28224122Y-40577011D01*
X28214178Y-40507853D01*
X28243203Y-40444297D01*
X28249235Y-40437819D01*
X28317553Y-40369501D01*
X28423996Y-40222994D01*
X28506211Y-40061639D01*
X28562171Y-39889409D01*
X28577902Y-39790089D01*
X28587527Y-39729321D01*
X28617456Y-39666186D01*
X28676768Y-39629255D01*
X28746630Y-39630253D01*
G37*
%TD.AperFunction*%
%TA.AperFunction,NonConductor*%
G36*
X26206630Y-39630253D02*
G01*
X26264863Y-39668863D01*
X26292473Y-39729321D01*
X26317829Y-39889410D01*
X26373787Y-40061636D01*
X26373788Y-40061639D01*
X26456006Y-40222997D01*
X26562441Y-40369494D01*
X26562445Y-40369499D01*
X26630765Y-40437819D01*
X26664250Y-40499142D01*
X26659266Y-40568834D01*
X26617394Y-40624767D01*
X26551930Y-40649184D01*
X26543084Y-40649500D01*
X25796916Y-40649500D01*
X25729877Y-40629815D01*
X25684122Y-40577011D01*
X25674178Y-40507853D01*
X25703203Y-40444297D01*
X25709235Y-40437819D01*
X25777553Y-40369501D01*
X25883996Y-40222994D01*
X25966211Y-40061639D01*
X26022171Y-39889409D01*
X26037902Y-39790089D01*
X26047527Y-39729321D01*
X26077456Y-39666186D01*
X26136768Y-39629255D01*
X26206630Y-39630253D01*
G37*
%TD.AperFunction*%
%TA.AperFunction,NonConductor*%
G36*
X23666630Y-39630253D02*
G01*
X23724863Y-39668863D01*
X23752473Y-39729321D01*
X23777829Y-39889410D01*
X23833787Y-40061636D01*
X23833788Y-40061639D01*
X23916006Y-40222997D01*
X24022441Y-40369494D01*
X24022445Y-40369499D01*
X24090765Y-40437819D01*
X24124250Y-40499142D01*
X24119266Y-40568834D01*
X24077394Y-40624767D01*
X24011930Y-40649184D01*
X24003084Y-40649500D01*
X23256916Y-40649500D01*
X23189877Y-40629815D01*
X23144122Y-40577011D01*
X23134178Y-40507853D01*
X23163203Y-40444297D01*
X23169235Y-40437819D01*
X23237553Y-40369501D01*
X23343996Y-40222994D01*
X23426211Y-40061639D01*
X23482171Y-39889409D01*
X23497902Y-39790089D01*
X23507527Y-39729321D01*
X23537456Y-39666186D01*
X23596768Y-39629255D01*
X23666630Y-39630253D01*
G37*
%TD.AperFunction*%
M02*
