M48
; DRILL file {KiCad 9.0.8+dfsg-1} date 2026-08-26T14:46:23+0000
; FORMAT={-:-/ absolute / metric / decimal}
; #@! TF.CreationDate,2026-08-26T14:46:23+00:00
; #@! TF.GenerationSoftware,Kicad,Pcbnew,9.0.8+dfsg-1
; #@! TF.FileFunction,Plated,1,2,PTH
FMAT,2
METRIC
; #@! TA.AperFunction,Plated,PTH,ViaDrill
T1C0.300
; #@! TA.AperFunction,Plated,PTH,ComponentDrill
T2C0.650
; #@! TA.AperFunction,Plated,PTH,ComponentDrill
T3C0.900
; #@! TA.AperFunction,Plated,PTH,ComponentDrill
T4C1.000
%
G90
G05
T1
X38.018Y-26.574
X40.296Y-28.852
X48.826Y-30.648
X49.453Y-32.7
X54.895Y-29.523
T2
X64.5Y-27.555
X64.5Y-28.825
X64.5Y-30.095
X64.5Y-31.365
X64.5Y-32.635
X64.5Y-33.905
X64.5Y-35.175
X64.5Y-36.445
T3
X47.96Y-39.6
X53.04Y-39.6
X55.9Y-27.6
X57.9Y-27.6
T4
X22.36Y-24.38
X22.36Y-39.62
X24.9Y-24.38
X24.9Y-39.62
X27.44Y-24.38
X27.44Y-39.62
X29.98Y-24.38
X29.98Y-39.62
X32.52Y-24.38
X32.52Y-39.62
X35.06Y-24.38
X35.06Y-39.62
X37.6Y-24.38
X37.6Y-39.62
X40.14Y-24.38
X40.14Y-39.62
X42.92Y-24.38
X42.92Y-26.92
X42.92Y-29.46
X42.92Y-32.0
X42.92Y-34.54
X42.92Y-37.08
X53.08Y-24.38
X53.08Y-26.92
X53.08Y-29.46
X53.08Y-32.0
X53.08Y-34.54
X53.08Y-37.08
X56.19Y-24.3
X56.19Y-39.7
X58.73Y-24.3
X58.73Y-39.7
X61.2Y-26.92
X61.2Y-29.46
X61.2Y-32.0
X61.2Y-34.54
X61.2Y-37.08
X61.27Y-24.3
X61.27Y-39.7
X63.81Y-24.3
X63.81Y-39.7
M30
