M48
; DRILL file {KiCad 9.0.8+dfsg-1} date 2026-08-26T15:26:16+0000
; FORMAT={-:-/ absolute / metric / decimal}
; #@! TF.CreationDate,2026-08-26T15:26:16+00:00
; #@! TF.GenerationSoftware,Kicad,Pcbnew,9.0.8+dfsg-1
; #@! TF.FileFunction,Plated,1,2,PTH
FMAT,2
METRIC
; #@! TA.AperFunction,Plated,PTH,ViaDrill
T1C0.300
; #@! TA.AperFunction,Plated,PTH,ComponentDrill
T2C0.650
; #@! TA.AperFunction,Plated,PTH,ComponentDrill
T3C0.900
; #@! TA.AperFunction,Plated,PTH,ComponentDrill
T4C1.000
%
G90
G05
T1
X39.004Y-30.61
X39.332Y-26.149
X52.052Y-26.385
X52.279Y-29.814
X58.592Y-26.288
X59.09Y-34.217
T2
X64.5Y-27.555
X64.5Y-28.825
X64.5Y-30.095
X64.5Y-31.365
X64.5Y-32.635
X64.5Y-33.905
X64.5Y-35.175
X64.5Y-36.445
T3
X47.96Y-39.6
X53.04Y-39.6
X56.1Y-27.6
X58.1Y-27.6
T4
X22.36Y-24.38
X22.36Y-39.62
X24.9Y-24.38
X24.9Y-39.62
X27.44Y-24.38
X27.44Y-39.62
X29.98Y-24.38
X29.98Y-39.62
X32.52Y-24.38
X32.52Y-39.62
X35.06Y-24.38
X35.06Y-39.62
X37.6Y-24.38
X37.6Y-39.62
X40.14Y-24.38
X40.14Y-39.62
X43.92Y-24.38
X43.92Y-26.92
X43.92Y-29.46
X43.92Y-32.0
X43.92Y-34.54
X43.92Y-37.08
X54.08Y-24.38
X54.08Y-26.92
X54.08Y-29.46
X54.08Y-32.0
X54.08Y-34.54
X54.08Y-37.08
X56.19Y-24.3
X56.19Y-39.7
X58.73Y-24.3
X58.73Y-39.7
X61.2Y-26.92
X61.2Y-29.46
X61.2Y-32.0
X61.2Y-34.54
X61.2Y-37.08
X61.27Y-24.3
X61.27Y-39.7
X63.81Y-24.3
X63.81Y-39.7
M30
