M48
; DRILL file {KiCad 9.0.8+dfsg-1} date 2026-09-01T14:24:47+0000
; FORMAT={-:-/ absolute / metric / decimal}
; #@! TF.CreationDate,2026-09-01T14:24:47+00:00
; #@! TF.GenerationSoftware,Kicad,Pcbnew,9.0.8+dfsg-1
; #@! TF.FileFunction,Plated,1,2,PTH
FMAT,2
METRIC
; #@! TA.AperFunction,Plated,PTH,ViaDrill
T1C0.300
; #@! TA.AperFunction,Plated,PTH,ComponentDrill
T2C0.650
; #@! TA.AperFunction,Plated,PTH,ComponentDrill
T3C0.900
; #@! TA.AperFunction,Plated,PTH,ComponentDrill
T4C1.000
%
G90
G05
T1
X39.172Y-35.345
X44.39Y-25.067
X44.866Y-33.152
X49.545Y-28.294
X53.747Y-31.3
X59.058Y-28.966
X61.101Y-26.366
X64.929Y-31.942
T2
X66.5Y-27.555
X66.5Y-28.825
X66.5Y-30.095
X66.5Y-31.365
X66.5Y-32.635
X66.5Y-33.905
X66.5Y-35.175
X66.5Y-36.445
T3
X47.255Y-39.6
X56.145Y-39.6
X58.1Y-27.6
X60.1Y-27.6
T4
X22.36Y-24.38
X22.36Y-39.62
X24.9Y-24.38
X24.9Y-39.62
X27.44Y-24.38
X27.44Y-39.62
X29.98Y-24.38
X29.98Y-39.62
X32.52Y-24.38
X32.52Y-39.62
X35.06Y-24.38
X35.06Y-39.62
X37.6Y-24.38
X37.6Y-39.62
X40.14Y-24.38
X40.14Y-39.62
X45.92Y-24.38
X45.92Y-26.92
X45.92Y-29.46
X45.92Y-32.0
X45.92Y-34.54
X45.92Y-37.08
X56.08Y-24.38
X56.08Y-26.92
X56.08Y-29.46
X56.08Y-32.0
X56.08Y-34.54
X56.08Y-37.08
X58.19Y-24.3
X58.19Y-39.7
X60.73Y-24.3
X60.73Y-39.7
X63.2Y-26.92
X63.2Y-29.46
X63.2Y-32.0
X63.2Y-34.54
X63.2Y-37.08
X63.27Y-24.3
X63.27Y-39.7
X65.81Y-24.3
X65.81Y-39.7
M30
