%TF.GenerationSoftware,KiCad,Pcbnew,9.0.8+dfsg-1*%
%TF.CreationDate,2026-08-26T14:14:03+00:00*%
%TF.ProjectId,panasonic-p11-revG,70616e61-736f-46e6-9963-2d7031312d72,rev?*%
%TF.SameCoordinates,Original*%
%TF.FileFunction,Copper,L1,Top*%
%TF.FilePolarity,Positive*%
%FSLAX46Y46*%
G04 Gerber Fmt 4.6, Leading zero omitted, Abs format (unit mm)*
G04 Created by KiCad (PCBNEW 9.0.8+dfsg-1) date 2026-08-26 14:14:03*
%MOMM*%
%LPD*%
G01*
G04 APERTURE LIST*
%TA.AperFunction,ComponentPad*%
%ADD10R,1.700000X1.700000*%
%TD*%
%TA.AperFunction,ComponentPad*%
%ADD11C,1.700000*%
%TD*%
%TA.AperFunction,ComponentPad*%
%ADD12R,1.200000X1.000000*%
%TD*%
%TA.AperFunction,ComponentPad*%
%ADD13O,1.200000X1.000000*%
%TD*%
%TA.AperFunction,ComponentPad*%
%ADD14R,1.600000X1.600000*%
%TD*%
%TA.AperFunction,ComponentPad*%
%ADD15C,1.600000*%
%TD*%
%TA.AperFunction,ComponentPad*%
%ADD16R,0.900000X0.900000*%
%TD*%
%TA.AperFunction,ComponentPad*%
%ADD17C,0.900000*%
%TD*%
%TA.AperFunction,ViaPad*%
%ADD18C,0.600000*%
%TD*%
%TA.AperFunction,Conductor*%
%ADD19C,0.200000*%
%TD*%
G04 APERTURE END LIST*
D10*
%TO.P,ESP32-C3,1*%
%TO.N,+5V*%
X22360000Y-24380000D03*
D11*
%TO.P,ESP32-C3,2*%
%TO.N,GND*%
X24900000Y-24380000D03*
%TO.P,ESP32-C3,3*%
%TO.N,+3V3*%
X27440000Y-24380000D03*
%TO.P,ESP32-C3,4*%
%TO.N,ESP_RX*%
X29980000Y-24380000D03*
%TO.P,ESP32-C3,5*%
%TO.N,ESP_TX*%
X32520000Y-24380000D03*
%TO.P,ESP32-C3,6*%
%TO.N,N/C*%
X35060000Y-24380000D03*
%TO.P,ESP32-C3,7*%
%TO.N,IO1*%
X37600000Y-24380000D03*
%TO.P,ESP32-C3,8*%
%TO.N,IO0*%
X40140000Y-24380000D03*
%TO.P,ESP32-C3,9*%
%TO.N,N/C*%
X22360000Y-39620000D03*
%TO.P,ESP32-C3,10*%
X24900000Y-39620000D03*
%TO.P,ESP32-C3,11*%
%TO.N,IO7*%
X27440000Y-39620000D03*
%TO.P,ESP32-C3,12*%
%TO.N,N/C*%
X29980000Y-39620000D03*
%TO.P,ESP32-C3,13*%
X32520000Y-39620000D03*
%TO.P,ESP32-C3,14*%
%TO.N,IO10*%
X35060000Y-39620000D03*
%TO.P,ESP32-C3,15*%
%TO.N,N/C*%
X37600000Y-39620000D03*
%TO.P,ESP32-C3,16*%
X40140000Y-39620000D03*
%TD*%
%TO.P,BSS138,H1*%
%TO.N,AC_RX_5V*%
X53080000Y-24380000D03*
%TO.P,BSS138,H2*%
%TO.N,IO10_5V*%
X53080000Y-26920000D03*
%TO.P,BSS138,H3*%
%TO.N,+5V*%
X53080000Y-29460000D03*
%TO.P,BSS138,H4*%
%TO.N,GND*%
X53080000Y-32000000D03*
%TO.P,BSS138,H5*%
%TO.N,IO7_5V*%
X53080000Y-34540000D03*
%TO.P,BSS138,H6*%
%TO.N,AC_TX_5V*%
X53080000Y-37080000D03*
D10*
%TO.P,BSS138,L1*%
%TO.N,ESP_TX*%
X42920000Y-24380000D03*
D11*
%TO.P,BSS138,L2*%
%TO.N,IO10*%
X42920000Y-26920000D03*
%TO.P,BSS138,L3*%
%TO.N,+3V3*%
X42920000Y-29460000D03*
%TO.P,BSS138,L4*%
%TO.N,GND*%
X42920000Y-32000000D03*
%TO.P,BSS138,L5*%
%TO.N,IO7*%
X42920000Y-34540000D03*
%TO.P,BSS138,L6*%
%TO.N,ESP_RX*%
X42920000Y-37080000D03*
%TD*%
D12*
%TO.P,J11,1*%
%TO.N,AC_5V*%
X64500000Y-36445000D03*
D13*
%TO.P,J11,2*%
%TO.N,AC_TX_5V*%
X64500000Y-35175000D03*
%TO.P,J11,3*%
%TO.N,AC_RX_5V*%
X64500000Y-33905000D03*
%TO.P,J11,4*%
%TO.N,N/C*%
X64500000Y-32635000D03*
%TO.P,J11,5*%
X64500000Y-31365000D03*
%TO.P,J11,6*%
X64500000Y-30095000D03*
%TO.P,J11,7*%
X64500000Y-28825000D03*
%TO.P,J11,8*%
%TO.N,GND*%
X64500000Y-27555000D03*
%TD*%
D14*
%TO.P,D1,1*%
%TO.N,+5V*%
X47960000Y-39600000D03*
D15*
%TO.P,D1,2*%
%TO.N,AC_5V*%
X53040000Y-39600000D03*
%TD*%
D14*
%TO.P,C1,1*%
%TO.N,+5V*%
X55900000Y-27600000D03*
D15*
%TO.P,C1,2*%
%TO.N,GND*%
X57900000Y-27600000D03*
%TD*%
D16*
%TO.P,J1,1*%
%TO.N,IO1*%
X59695000Y-24000000D03*
D17*
%TO.P,J1,2*%
%TO.N,IO0*%
X60965000Y-24000000D03*
%TO.P,J1,3*%
%TO.N,GND*%
X62235000Y-24000000D03*
%TO.P,J1,4*%
%TO.N,+3V3*%
X63505000Y-24000000D03*
%TD*%
D16*
%TO.P,J2,1*%
%TO.N,IO10_5V*%
X59695000Y-40000000D03*
D17*
%TO.P,J2,2*%
%TO.N,IO7_5V*%
X60965000Y-40000000D03*
%TO.P,J2,3*%
%TO.N,GND*%
X62235000Y-40000000D03*
%TO.P,J2,4*%
%TO.N,+5V*%
X63505000Y-40000000D03*
%TD*%
D10*
%TO.P,CNT,1*%
%TO.N,AC_5V*%
X61200000Y-26920000D03*
D11*
%TO.P,CNT,2*%
%TO.N,AC_TX_5V*%
X61200000Y-29460000D03*
%TO.P,CNT,3*%
%TO.N,AC_RX_5V*%
X61200000Y-32000000D03*
%TO.P,CNT,4*%
%TO.N,N/C*%
X61200000Y-34540000D03*
%TO.P,CNT,5*%
%TO.N,GND*%
X61200000Y-37080000D03*
%TD*%
D18*
%TO.N,IO1*%
X47115600Y-26868700D03*
X55450200Y-24958700D03*
%TD*%
D19*
%TO.N,GND*%
X63061500Y-28091800D02*
X63598300Y-27555000D01*
X58391800Y-28091800D02*
X63061500Y-28091800D01*
X64500000Y-27555000D02*
X63598300Y-27555000D01*
X42920000Y-32000000D02*
X53080000Y-32000000D01*
X57900000Y-27600000D02*
X58391800Y-28091800D01*
%TO.N,+5V*%
X22360000Y-24380000D02*
X23511700Y-24380000D01*
X29486900Y-30643100D02*
X23511700Y-24667900D01*
X53080000Y-29460000D02*
X51896900Y-30643100D01*
X51896900Y-30643100D02*
X29486900Y-30643100D01*
X53080000Y-29460000D02*
X53080000Y-29318300D01*
X53080000Y-29318300D02*
X54798300Y-27600000D01*
X55900000Y-27600000D02*
X54798300Y-27600000D01*
X23511700Y-24667900D02*
X23511700Y-24380000D01*
%TO.N,AC_5V*%
X53040000Y-39600000D02*
X53391700Y-39248300D01*
X62498400Y-39248300D02*
X64500000Y-37246700D01*
X53391700Y-39248300D02*
X62498400Y-39248300D01*
X64500000Y-36445000D02*
X64500000Y-37246700D01*
%TO.N,+3V3*%
X59799900Y-26193400D02*
X55239200Y-26193400D01*
X53465300Y-28190000D02*
X44190000Y-28190000D01*
X55239200Y-26193400D02*
X54656600Y-26776000D01*
X61736700Y-25768300D02*
X60225000Y-25768300D01*
X63505000Y-24000000D02*
X61736700Y-25768300D01*
X44190000Y-28190000D02*
X42920000Y-29460000D01*
X54656600Y-26998700D02*
X53465300Y-28190000D01*
X54656600Y-26776000D02*
X54656600Y-26998700D01*
X60225000Y-25768300D02*
X59799900Y-26193400D01*
%TO.N,AC_TX_5V*%
X60031900Y-32466000D02*
X60835900Y-33270000D01*
X61200000Y-29460000D02*
X60031900Y-30628100D01*
X60031900Y-32466000D02*
X57694000Y-32466000D01*
X60835900Y-33270000D02*
X61562100Y-33270000D01*
X61562100Y-33270000D02*
X63467100Y-35175000D01*
X57694000Y-32466000D02*
X53080000Y-37080000D01*
X60031900Y-30628100D02*
X60031900Y-32466000D01*
X63467100Y-35175000D02*
X64500000Y-35175000D01*
%TO.N,AC_RX_5V*%
X61200000Y-32000000D02*
X63105000Y-33905000D01*
X63105000Y-33905000D02*
X64500000Y-33905000D01*
%TO.N,IO1*%
X56408900Y-24000000D02*
X55450200Y-24958700D01*
X41327400Y-28107400D02*
X37600000Y-24380000D01*
X47115600Y-26868700D02*
X44806100Y-26868700D01*
X44806100Y-26868700D02*
X43567400Y-28107400D01*
X59695000Y-24000000D02*
X56408900Y-24000000D01*
X43567400Y-28107400D02*
X41327400Y-28107400D01*
%TO.N,IO0*%
X40140000Y-24380000D02*
X41320400Y-25560400D01*
X59523200Y-25560400D02*
X60965000Y-24118600D01*
X60965000Y-24118600D02*
X60965000Y-24000000D01*
X41320400Y-25560400D02*
X59523200Y-25560400D01*
%TO.N,IO7*%
X32520000Y-34540000D02*
X27440000Y-39620000D01*
X42920000Y-34540000D02*
X32520000Y-34540000D01*
%TD*%
%TA.AperFunction,Conductor*%
%TO.N,GND*%
G36*
X59963255Y-26584634D02*
G01*
X60021118Y-26623796D01*
X60048623Y-26688024D01*
X60049500Y-26702747D01*
X60049500Y-27814856D01*
X60049502Y-27814882D01*
X60052413Y-27839987D01*
X60052415Y-27839991D01*
X60097793Y-27942764D01*
X60097794Y-27942765D01*
X60177235Y-28022206D01*
X60280009Y-28067585D01*
X60305135Y-28070500D01*
X61042873Y-28070499D01*
X61109910Y-28090183D01*
X61155665Y-28142987D01*
X61165609Y-28212146D01*
X61136584Y-28275702D01*
X61077806Y-28313476D01*
X61062270Y-28316972D01*
X60930589Y-28337829D01*
X60758363Y-28393787D01*
X60758360Y-28393788D01*
X60597002Y-28476006D01*
X60450505Y-28582441D01*
X60450500Y-28582445D01*
X60322445Y-28710500D01*
X60322441Y-28710505D01*
X60216006Y-28857002D01*
X60133788Y-29018360D01*
X60133787Y-29018363D01*
X60077829Y-29190589D01*
X60049500Y-29369448D01*
X60049500Y-29550551D01*
X60077829Y-29729412D01*
X60124575Y-29873283D01*
X60126570Y-29943124D01*
X60094325Y-29999281D01*
X59711422Y-30382184D01*
X59711418Y-30382190D01*
X59658693Y-30473511D01*
X59654675Y-30488509D01*
X59654674Y-30488512D01*
X59631400Y-30575373D01*
X59631400Y-31941500D01*
X59611715Y-32008539D01*
X59558911Y-32054294D01*
X59507400Y-32065500D01*
X57641273Y-32065500D01*
X57539413Y-32092793D01*
X57539410Y-32092794D01*
X57466765Y-32134736D01*
X57448090Y-32145517D01*
X57448085Y-32145521D01*
X54150903Y-35442702D01*
X53619280Y-35974325D01*
X53557957Y-36007810D01*
X53493281Y-36004575D01*
X53349410Y-35957829D01*
X53189321Y-35932473D01*
X53126186Y-35902544D01*
X53089255Y-35843232D01*
X53090253Y-35773370D01*
X53128863Y-35715137D01*
X53189321Y-35687527D01*
X53259425Y-35676422D01*
X53349409Y-35662171D01*
X53521639Y-35606211D01*
X53682994Y-35523996D01*
X53829501Y-35417553D01*
X53957553Y-35289501D01*
X54063996Y-35142994D01*
X54146211Y-34981639D01*
X54202171Y-34809409D01*
X54217799Y-34710736D01*
X54230500Y-34630551D01*
X54230500Y-34449448D01*
X54207700Y-34305500D01*
X54202171Y-34270591D01*
X54146211Y-34098361D01*
X54146211Y-34098360D01*
X54103991Y-34015500D01*
X54063996Y-33937006D01*
X54050396Y-33918287D01*
X53957558Y-33790505D01*
X53957554Y-33790500D01*
X53829499Y-33662445D01*
X53829494Y-33662441D01*
X53682997Y-33556006D01*
X53682996Y-33556005D01*
X53682994Y-33556004D01*
X53631300Y-33529664D01*
X53521639Y-33473788D01*
X53521636Y-33473787D01*
X53349410Y-33417829D01*
X53170551Y-33389500D01*
X53170546Y-33389500D01*
X52989454Y-33389500D01*
X52989449Y-33389500D01*
X52810589Y-33417829D01*
X52638363Y-33473787D01*
X52638360Y-33473788D01*
X52477002Y-33556006D01*
X52330505Y-33662441D01*
X52330500Y-33662445D01*
X52202445Y-33790500D01*
X52202441Y-33790505D01*
X52096006Y-33937002D01*
X52013788Y-34098360D01*
X52013787Y-34098363D01*
X51957829Y-34270589D01*
X51929500Y-34449448D01*
X51929500Y-34630551D01*
X51957829Y-34809410D01*
X52013787Y-34981636D01*
X52013788Y-34981639D01*
X52096006Y-35142997D01*
X52202441Y-35289494D01*
X52202445Y-35289499D01*
X52330500Y-35417554D01*
X52330505Y-35417558D01*
X52437757Y-35495480D01*
X52477006Y-35523996D01*
X52578086Y-35575499D01*
X52638360Y-35606211D01*
X52638363Y-35606212D01*
X52724476Y-35634191D01*
X52810591Y-35662171D01*
X52883401Y-35673703D01*
X52970678Y-35687527D01*
X53033813Y-35717456D01*
X53070744Y-35776768D01*
X53069746Y-35846631D01*
X53031136Y-35904863D01*
X52970678Y-35932473D01*
X52810589Y-35957829D01*
X52638363Y-36013787D01*
X52638360Y-36013788D01*
X52477002Y-36096006D01*
X52330505Y-36202441D01*
X52330500Y-36202445D01*
X52202445Y-36330500D01*
X52202441Y-36330505D01*
X52096006Y-36477002D01*
X52013788Y-36638360D01*
X52013787Y-36638363D01*
X51957829Y-36810589D01*
X51929500Y-36989448D01*
X51929500Y-37170551D01*
X51957829Y-37349410D01*
X52013787Y-37521636D01*
X52013788Y-37521639D01*
X52096006Y-37682997D01*
X52202441Y-37829494D01*
X52202445Y-37829499D01*
X52330500Y-37957554D01*
X52330505Y-37957558D01*
X52455858Y-38048631D01*
X52477006Y-38063996D01*
X52582484Y-38117740D01*
X52638360Y-38146211D01*
X52638363Y-38146212D01*
X52724476Y-38174191D01*
X52810591Y-38202171D01*
X52893429Y-38215291D01*
X52989449Y-38230500D01*
X52989454Y-38230500D01*
X53170551Y-38230500D01*
X53257259Y-38216765D01*
X53349409Y-38202171D01*
X53521639Y-38146211D01*
X53682994Y-38063996D01*
X53829501Y-37957553D01*
X53957553Y-37829501D01*
X54063996Y-37682994D01*
X54146211Y-37521639D01*
X54202171Y-37349409D01*
X54219090Y-37242585D01*
X54230500Y-37170551D01*
X54230500Y-36989448D01*
X54214019Y-36885397D01*
X54202171Y-36810591D01*
X54155424Y-36666716D01*
X54153429Y-36596875D01*
X54185672Y-36540719D01*
X57823574Y-32902819D01*
X57884897Y-32869334D01*
X57911255Y-32866500D01*
X59814645Y-32866500D01*
X59881684Y-32886185D01*
X59902326Y-32902819D01*
X60470311Y-33470803D01*
X60503796Y-33532126D01*
X60498812Y-33601817D01*
X60456941Y-33657751D01*
X60455520Y-33658799D01*
X60450499Y-33662446D01*
X60322445Y-33790500D01*
X60322441Y-33790505D01*
X60216006Y-33937002D01*
X60133788Y-34098360D01*
X60133787Y-34098363D01*
X60077829Y-34270589D01*
X60049500Y-34449448D01*
X60049500Y-34630551D01*
X60077829Y-34809410D01*
X60133787Y-34981636D01*
X60133788Y-34981639D01*
X60216006Y-35142997D01*
X60322441Y-35289494D01*
X60322445Y-35289499D01*
X60450500Y-35417554D01*
X60450505Y-35417558D01*
X60557757Y-35495480D01*
X60597006Y-35523996D01*
X60698086Y-35575499D01*
X60758360Y-35606211D01*
X60758363Y-35606212D01*
X60844476Y-35634191D01*
X60930591Y-35662171D01*
X61013429Y-35675291D01*
X61109449Y-35690500D01*
X61109454Y-35690500D01*
X61290551Y-35690500D01*
X61377259Y-35676765D01*
X61469409Y-35662171D01*
X61641639Y-35606211D01*
X61802994Y-35523996D01*
X61949501Y-35417553D01*
X62077553Y-35289501D01*
X62183996Y-35142994D01*
X62266211Y-34981639D01*
X62279578Y-34940500D01*
X62311864Y-34841133D01*
X62351301Y-34783457D01*
X62415659Y-34756258D01*
X62484506Y-34768172D01*
X62517476Y-34791769D01*
X63221187Y-35495480D01*
X63312512Y-35548207D01*
X63414373Y-35575500D01*
X63547316Y-35575500D01*
X63614355Y-35595185D01*
X63660110Y-35647989D01*
X63670054Y-35717147D01*
X63649615Y-35769579D01*
X63647796Y-35772232D01*
X63647794Y-35772235D01*
X63647792Y-35772238D01*
X63647792Y-35772239D01*
X63602415Y-35875006D01*
X63602415Y-35875008D01*
X63599500Y-35900131D01*
X63599500Y-36989856D01*
X63599502Y-36989882D01*
X63602413Y-37014987D01*
X63602415Y-37014991D01*
X63647793Y-37117764D01*
X63647794Y-37117765D01*
X63727235Y-37197206D01*
X63739134Y-37202459D01*
X63792510Y-37247544D01*
X63813039Y-37314330D01*
X63794202Y-37381612D01*
X63776730Y-37403575D01*
X62368826Y-38811481D01*
X62307503Y-38844966D01*
X62281145Y-38847800D01*
X53895504Y-38847800D01*
X53828465Y-38828115D01*
X53807823Y-38811481D01*
X53756930Y-38760588D01*
X53756928Y-38760586D01*
X53616788Y-38658768D01*
X53462445Y-38580127D01*
X53297701Y-38526598D01*
X53297699Y-38526597D01*
X53297698Y-38526597D01*
X53166271Y-38505781D01*
X53126611Y-38499500D01*
X52953389Y-38499500D01*
X52913728Y-38505781D01*
X52782302Y-38526597D01*
X52617552Y-38580128D01*
X52463211Y-38658768D01*
X52400800Y-38704113D01*
X52323072Y-38760586D01*
X52323070Y-38760588D01*
X52323069Y-38760588D01*
X52200588Y-38883069D01*
X52200588Y-38883070D01*
X52200586Y-38883072D01*
X52156859Y-38943256D01*
X52098768Y-39023211D01*
X52020128Y-39177552D01*
X51966597Y-39342302D01*
X51954758Y-39417051D01*
X51939500Y-39513389D01*
X51939500Y-39686611D01*
X51945960Y-39727400D01*
X51956982Y-39796992D01*
X51966598Y-39857701D01*
X52020127Y-40022445D01*
X52098768Y-40176788D01*
X52200586Y-40316928D01*
X52200588Y-40316930D01*
X52321477Y-40437819D01*
X52354962Y-40499142D01*
X52349978Y-40568834D01*
X52308106Y-40624767D01*
X52242642Y-40649184D01*
X52233796Y-40649500D01*
X49168625Y-40649500D01*
X49101586Y-40629815D01*
X49055831Y-40577011D01*
X49045887Y-40507853D01*
X49055191Y-40475412D01*
X49057585Y-40469991D01*
X49060500Y-40444865D01*
X49060499Y-38755136D01*
X49059295Y-38744754D01*
X49057586Y-38730012D01*
X49057585Y-38730010D01*
X49057585Y-38730009D01*
X49012206Y-38627235D01*
X48932765Y-38547794D01*
X48924881Y-38544313D01*
X48829992Y-38502415D01*
X48804865Y-38499500D01*
X47115143Y-38499500D01*
X47115117Y-38499502D01*
X47090012Y-38502413D01*
X47090008Y-38502415D01*
X46987235Y-38547793D01*
X46907794Y-38627234D01*
X46862415Y-38730006D01*
X46862415Y-38730008D01*
X46859500Y-38755131D01*
X46859500Y-40444856D01*
X46859502Y-40444882D01*
X46862413Y-40469987D01*
X46862414Y-40469989D01*
X46864810Y-40475415D01*
X46873881Y-40544693D01*
X46844057Y-40607878D01*
X46784807Y-40644908D01*
X46751375Y-40649500D01*
X42024000Y-40649500D01*
X41956961Y-40629815D01*
X41911206Y-40577011D01*
X41900000Y-40525500D01*
X41900000Y-37986416D01*
X41919685Y-37919377D01*
X41972489Y-37873622D01*
X42041647Y-37863678D01*
X42105203Y-37892703D01*
X42111681Y-37898735D01*
X42170500Y-37957554D01*
X42170505Y-37957558D01*
X42295858Y-38048631D01*
X42317006Y-38063996D01*
X42422484Y-38117740D01*
X42478360Y-38146211D01*
X42478363Y-38146212D01*
X42564476Y-38174191D01*
X42650591Y-38202171D01*
X42733429Y-38215291D01*
X42829449Y-38230500D01*
X42829454Y-38230500D01*
X43010551Y-38230500D01*
X43097259Y-38216765D01*
X43189409Y-38202171D01*
X43361639Y-38146211D01*
X43522994Y-38063996D01*
X43669501Y-37957553D01*
X43797553Y-37829501D01*
X43903996Y-37682994D01*
X43986211Y-37521639D01*
X44042171Y-37349409D01*
X44059090Y-37242585D01*
X44070500Y-37170551D01*
X44070500Y-36989448D01*
X44054019Y-36885397D01*
X44042171Y-36810591D01*
X43986211Y-36638361D01*
X43986211Y-36638360D01*
X43957740Y-36582484D01*
X43903996Y-36477006D01*
X43890396Y-36458287D01*
X43797558Y-36330505D01*
X43797554Y-36330500D01*
X43669499Y-36202445D01*
X43669494Y-36202441D01*
X43522997Y-36096006D01*
X43522996Y-36096005D01*
X43522994Y-36096004D01*
X43471300Y-36069664D01*
X43361639Y-36013788D01*
X43361636Y-36013787D01*
X43189410Y-35957829D01*
X43029321Y-35932473D01*
X42966186Y-35902544D01*
X42929255Y-35843232D01*
X42930253Y-35773370D01*
X42968863Y-35715137D01*
X43029321Y-35687527D01*
X43099425Y-35676422D01*
X43189409Y-35662171D01*
X43361639Y-35606211D01*
X43522994Y-35523996D01*
X43669501Y-35417553D01*
X43797553Y-35289501D01*
X43903996Y-35142994D01*
X43986211Y-34981639D01*
X44042171Y-34809409D01*
X44057799Y-34710736D01*
X44070500Y-34630551D01*
X44070500Y-34449448D01*
X44047700Y-34305500D01*
X44042171Y-34270591D01*
X43986211Y-34098361D01*
X43986211Y-34098360D01*
X43943991Y-34015500D01*
X43903996Y-33937006D01*
X43890396Y-33918287D01*
X43797558Y-33790505D01*
X43797554Y-33790500D01*
X43669499Y-33662445D01*
X43669494Y-33662441D01*
X43522997Y-33556006D01*
X43522996Y-33556005D01*
X43522994Y-33556004D01*
X43471300Y-33529664D01*
X43361639Y-33473788D01*
X43361636Y-33473787D01*
X43189410Y-33417829D01*
X43010551Y-33389500D01*
X43010546Y-33389500D01*
X42829454Y-33389500D01*
X42829449Y-33389500D01*
X42650589Y-33417829D01*
X42478363Y-33473787D01*
X42478360Y-33473788D01*
X42317002Y-33556006D01*
X42170505Y-33662441D01*
X42170500Y-33662445D01*
X42111681Y-33721265D01*
X42050358Y-33754750D01*
X41980666Y-33749766D01*
X41924733Y-33707894D01*
X41900316Y-33642430D01*
X41900000Y-33633584D01*
X41900000Y-31167600D01*
X41919685Y-31100561D01*
X41972489Y-31054806D01*
X42024000Y-31043600D01*
X51949625Y-31043600D01*
X51949627Y-31043600D01*
X52051488Y-31016307D01*
X52142813Y-30963580D01*
X52540719Y-30565672D01*
X52602040Y-30532189D01*
X52666716Y-30535424D01*
X52810591Y-30582171D01*
X52893429Y-30595291D01*
X52989449Y-30610500D01*
X52989454Y-30610500D01*
X53170551Y-30610500D01*
X53257259Y-30596765D01*
X53349409Y-30582171D01*
X53521639Y-30526211D01*
X53682994Y-30443996D01*
X53829501Y-30337553D01*
X53957553Y-30209501D01*
X54063996Y-30062994D01*
X54146211Y-29901639D01*
X54202171Y-29729409D01*
X54225089Y-29584711D01*
X54230500Y-29550551D01*
X54230500Y-29369448D01*
X54214019Y-29265397D01*
X54202171Y-29190591D01*
X54146211Y-29018361D01*
X54146209Y-29018356D01*
X54119644Y-28966221D01*
X54106747Y-28897552D01*
X54133022Y-28832812D01*
X54142438Y-28822253D01*
X54589123Y-28375568D01*
X54650444Y-28342085D01*
X54720136Y-28347069D01*
X54776069Y-28388941D01*
X54799976Y-28448966D01*
X54802414Y-28469988D01*
X54802415Y-28469991D01*
X54847793Y-28572764D01*
X54847794Y-28572765D01*
X54927235Y-28652206D01*
X55030009Y-28697585D01*
X55055135Y-28700500D01*
X56744864Y-28700499D01*
X56744879Y-28700497D01*
X56744882Y-28700497D01*
X56769987Y-28697586D01*
X56769988Y-28697585D01*
X56769991Y-28697585D01*
X56872765Y-28652206D01*
X56952206Y-28572765D01*
X56997585Y-28469991D01*
X57000500Y-28444865D01*
X57000499Y-26755136D01*
X56997837Y-26732183D01*
X57009668Y-26663323D01*
X57056850Y-26611790D01*
X57121012Y-26593900D01*
X59852625Y-26593900D01*
X59852627Y-26593900D01*
X59893407Y-26582973D01*
X59963255Y-26584634D01*
G37*
%TD.AperFunction*%
%TA.AperFunction,Conductor*%
G36*
X62701891Y-39628782D02*
G01*
X62759753Y-39667945D01*
X62787257Y-39732173D01*
X62783499Y-39774907D01*
X62784530Y-39775113D01*
X62754500Y-39926079D01*
X62754500Y-39926082D01*
X62754500Y-40073918D01*
X62754500Y-40073920D01*
X62754499Y-40073920D01*
X62783340Y-40218907D01*
X62783343Y-40218917D01*
X62839912Y-40355488D01*
X62839919Y-40355501D01*
X62907478Y-40456609D01*
X62928356Y-40523286D01*
X62909872Y-40590667D01*
X62857893Y-40637357D01*
X62804376Y-40649500D01*
X61665624Y-40649500D01*
X61598585Y-40629815D01*
X61552830Y-40577011D01*
X61542886Y-40507853D01*
X61562522Y-40456609D01*
X61630080Y-40355501D01*
X61630080Y-40355500D01*
X61630084Y-40355495D01*
X61686658Y-40218913D01*
X61696096Y-40171462D01*
X61715500Y-40073920D01*
X61715500Y-39926079D01*
X61689822Y-39796992D01*
X61696049Y-39727400D01*
X61738912Y-39672223D01*
X61804801Y-39648978D01*
X61811439Y-39648800D01*
X62551125Y-39648800D01*
X62551127Y-39648800D01*
X62632043Y-39627119D01*
X62701891Y-39628782D01*
G37*
%TD.AperFunction*%
%TA.AperFunction,Conductor*%
G36*
X66870495Y-23370185D02*
G01*
X66891137Y-23386819D01*
X68113181Y-24608862D01*
X68146666Y-24670185D01*
X68149500Y-24696543D01*
X68149500Y-28525500D01*
X68129815Y-28592539D01*
X68077011Y-28638294D01*
X68025500Y-28649500D01*
X65476614Y-28649500D01*
X65409575Y-28629815D01*
X65363820Y-28577011D01*
X65362053Y-28572952D01*
X65309397Y-28445827D01*
X65309390Y-28445814D01*
X65221789Y-28314711D01*
X65221786Y-28314707D01*
X65110292Y-28203213D01*
X65110288Y-28203210D01*
X64979185Y-28115609D01*
X64979172Y-28115602D01*
X64833501Y-28055264D01*
X64833489Y-28055261D01*
X64678845Y-28024500D01*
X64678842Y-28024500D01*
X64321158Y-28024500D01*
X64321155Y-28024500D01*
X64166510Y-28055261D01*
X64166498Y-28055264D01*
X64020827Y-28115602D01*
X64020814Y-28115609D01*
X63889711Y-28203210D01*
X63889707Y-28203213D01*
X63778213Y-28314707D01*
X63778210Y-28314711D01*
X63690609Y-28445814D01*
X63690602Y-28445827D01*
X63630264Y-28591498D01*
X63630261Y-28591510D01*
X63599500Y-28746153D01*
X63599500Y-28903846D01*
X63630261Y-29058489D01*
X63630264Y-29058501D01*
X63690602Y-29204172D01*
X63690609Y-29204185D01*
X63778210Y-29335288D01*
X63778213Y-29335292D01*
X63815240Y-29372319D01*
X63848725Y-29433642D01*
X63843741Y-29503334D01*
X63815240Y-29547681D01*
X63778213Y-29584707D01*
X63778210Y-29584711D01*
X63690609Y-29715814D01*
X63690602Y-29715827D01*
X63630264Y-29861498D01*
X63630261Y-29861510D01*
X63599500Y-30016153D01*
X63599500Y-30173846D01*
X63630261Y-30328489D01*
X63630264Y-30328501D01*
X63690602Y-30474172D01*
X63690609Y-30474185D01*
X63778210Y-30605288D01*
X63778213Y-30605292D01*
X63815240Y-30642319D01*
X63848725Y-30703642D01*
X63843741Y-30773334D01*
X63815240Y-30817681D01*
X63778213Y-30854707D01*
X63778210Y-30854711D01*
X63690609Y-30985814D01*
X63690602Y-30985827D01*
X63630264Y-31131498D01*
X63630261Y-31131510D01*
X63599500Y-31286153D01*
X63599500Y-31443846D01*
X63630261Y-31598489D01*
X63630264Y-31598501D01*
X63690602Y-31744172D01*
X63690609Y-31744185D01*
X63778210Y-31875288D01*
X63778213Y-31875292D01*
X63815240Y-31912319D01*
X63848725Y-31973642D01*
X63843741Y-32043334D01*
X63815240Y-32087681D01*
X63778213Y-32124707D01*
X63778210Y-32124711D01*
X63690609Y-32255814D01*
X63690602Y-32255827D01*
X63630264Y-32401498D01*
X63630261Y-32401510D01*
X63599500Y-32556153D01*
X63599500Y-32713846D01*
X63630261Y-32868489D01*
X63630264Y-32868501D01*
X63690602Y-33014172D01*
X63690609Y-33014185D01*
X63778210Y-33145288D01*
X63778213Y-33145292D01*
X63815240Y-33182319D01*
X63816329Y-33184313D01*
X63818286Y-33185474D01*
X63832992Y-33214830D01*
X63848725Y-33243642D01*
X63848562Y-33245910D01*
X63849581Y-33247943D01*
X63846083Y-33280581D01*
X63843741Y-33313334D01*
X63842302Y-33315860D01*
X63842136Y-33317415D01*
X63837276Y-33324690D01*
X63824136Y-33347774D01*
X63819950Y-33352971D01*
X63778211Y-33394711D01*
X63738611Y-33453975D01*
X63735150Y-33458274D01*
X63710808Y-33475186D01*
X63688063Y-33494196D01*
X63681474Y-33495567D01*
X63677771Y-33498141D01*
X63667302Y-33498518D01*
X63638573Y-33504500D01*
X63322255Y-33504500D01*
X63255216Y-33484815D01*
X63234574Y-33468181D01*
X62305674Y-32539281D01*
X62272189Y-32477958D01*
X62275423Y-32413284D01*
X62322171Y-32269409D01*
X62341793Y-32145521D01*
X62350500Y-32090551D01*
X62350500Y-31909448D01*
X62324323Y-31744179D01*
X62322171Y-31730591D01*
X62266211Y-31558361D01*
X62266211Y-31558360D01*
X62207860Y-31443842D01*
X62183996Y-31397006D01*
X62103457Y-31286153D01*
X62077558Y-31250505D01*
X62077554Y-31250500D01*
X61949499Y-31122445D01*
X61949494Y-31122441D01*
X61802997Y-31016006D01*
X61802996Y-31016005D01*
X61802994Y-31016004D01*
X61743743Y-30985814D01*
X61641639Y-30933788D01*
X61641636Y-30933787D01*
X61469410Y-30877829D01*
X61309321Y-30852473D01*
X61246186Y-30822544D01*
X61209255Y-30763232D01*
X61210253Y-30693370D01*
X61248863Y-30635137D01*
X61309321Y-30607527D01*
X61379425Y-30596422D01*
X61469409Y-30582171D01*
X61641639Y-30526211D01*
X61802994Y-30443996D01*
X61949501Y-30337553D01*
X62077553Y-30209501D01*
X62183996Y-30062994D01*
X62266211Y-29901639D01*
X62322171Y-29729409D01*
X62345089Y-29584711D01*
X62350500Y-29550551D01*
X62350500Y-29369448D01*
X62334019Y-29265397D01*
X62322171Y-29190591D01*
X62266211Y-29018361D01*
X62266211Y-29018360D01*
X62237740Y-28962484D01*
X62183996Y-28857006D01*
X62102815Y-28745269D01*
X62077558Y-28710505D01*
X62077554Y-28710500D01*
X61949499Y-28582445D01*
X61949494Y-28582441D01*
X61802997Y-28476006D01*
X61802996Y-28476005D01*
X61802994Y-28476004D01*
X61741879Y-28444864D01*
X61641639Y-28393788D01*
X61641636Y-28393787D01*
X61469410Y-28337829D01*
X61337728Y-28316972D01*
X61274594Y-28287042D01*
X61237663Y-28227731D01*
X61238661Y-28157868D01*
X61277271Y-28099636D01*
X61341235Y-28071522D01*
X61357120Y-28070499D01*
X62094864Y-28070499D01*
X62094879Y-28070497D01*
X62094882Y-28070497D01*
X62119987Y-28067586D01*
X62119988Y-28067585D01*
X62119991Y-28067585D01*
X62222765Y-28022206D01*
X62302206Y-27942765D01*
X62347585Y-27839991D01*
X62350500Y-27814865D01*
X62350499Y-26025136D01*
X62350497Y-26025117D01*
X62347586Y-26000012D01*
X62347585Y-26000010D01*
X62347585Y-26000009D01*
X62302206Y-25897235D01*
X62302205Y-25897234D01*
X62297565Y-25886724D01*
X62301440Y-25885012D01*
X62286694Y-25839767D01*
X62304395Y-25772177D01*
X62322955Y-25748437D01*
X62589490Y-25481902D01*
X64799500Y-25481902D01*
X64799500Y-25718097D01*
X64836446Y-25951368D01*
X64909433Y-26175996D01*
X64977267Y-26309126D01*
X65016657Y-26386433D01*
X65155483Y-26577510D01*
X65322490Y-26744517D01*
X65513567Y-26883343D01*
X65612991Y-26934002D01*
X65724003Y-26990566D01*
X65724005Y-26990566D01*
X65724008Y-26990568D01*
X65844412Y-27029689D01*
X65948631Y-27063553D01*
X66181903Y-27100500D01*
X66181908Y-27100500D01*
X66418097Y-27100500D01*
X66651368Y-27063553D01*
X66875992Y-26990568D01*
X67086433Y-26883343D01*
X67277510Y-26744517D01*
X67444517Y-26577510D01*
X67583343Y-26386433D01*
X67690568Y-26175992D01*
X67763553Y-25951368D01*
X67791934Y-25772177D01*
X67800500Y-25718097D01*
X67800500Y-25481902D01*
X67763553Y-25248631D01*
X67722921Y-25123581D01*
X67690568Y-25024008D01*
X67690566Y-25024005D01*
X67690566Y-25024003D01*
X67623381Y-24892146D01*
X67583343Y-24813567D01*
X67444517Y-24622490D01*
X67277510Y-24455483D01*
X67086433Y-24316657D01*
X66875996Y-24209433D01*
X66651368Y-24136446D01*
X66418097Y-24099500D01*
X66418092Y-24099500D01*
X66181908Y-24099500D01*
X66181903Y-24099500D01*
X65948631Y-24136446D01*
X65724003Y-24209433D01*
X65513566Y-24316657D01*
X65456388Y-24358200D01*
X65322490Y-24455483D01*
X65322488Y-24455485D01*
X65322487Y-24455485D01*
X65155485Y-24622487D01*
X65155485Y-24622488D01*
X65155483Y-24622490D01*
X65101680Y-24696543D01*
X65016657Y-24813566D01*
X64909433Y-25024003D01*
X64836446Y-25248631D01*
X64799500Y-25481902D01*
X62589490Y-25481902D01*
X63292308Y-24779083D01*
X63353629Y-24745600D01*
X63404179Y-24745149D01*
X63431079Y-24750500D01*
X63431082Y-24750500D01*
X63578920Y-24750500D01*
X63676462Y-24731096D01*
X63723913Y-24721658D01*
X63860495Y-24665084D01*
X63983416Y-24582951D01*
X64087951Y-24478416D01*
X64170084Y-24355495D01*
X64170138Y-24355366D01*
X64197439Y-24289454D01*
X64226658Y-24218913D01*
X64243062Y-24136446D01*
X64255500Y-24073920D01*
X64255500Y-23926079D01*
X64226659Y-23781092D01*
X64226658Y-23781091D01*
X64226658Y-23781087D01*
X64215474Y-23754087D01*
X64170087Y-23644511D01*
X64170080Y-23644498D01*
X64102522Y-23543391D01*
X64081644Y-23476714D01*
X64100128Y-23409333D01*
X64152107Y-23362643D01*
X64205624Y-23350500D01*
X66803456Y-23350500D01*
X66870495Y-23370185D01*
G37*
%TD.AperFunction*%
%TA.AperFunction,Conductor*%
G36*
X26610123Y-23370185D02*
G01*
X26655878Y-23422989D01*
X26665822Y-23492147D01*
X26636797Y-23555703D01*
X26630765Y-23562181D01*
X26562445Y-23630500D01*
X26562441Y-23630505D01*
X26456006Y-23777002D01*
X26373788Y-23938360D01*
X26373787Y-23938363D01*
X26317829Y-24110589D01*
X26289500Y-24289448D01*
X26289500Y-24470551D01*
X26317829Y-24649410D01*
X26373787Y-24821636D01*
X26373788Y-24821639D01*
X26429664Y-24931300D01*
X26454277Y-24979605D01*
X26456006Y-24982997D01*
X26562441Y-25129494D01*
X26562445Y-25129499D01*
X26690500Y-25257554D01*
X26690505Y-25257558D01*
X26748910Y-25299991D01*
X26837006Y-25363996D01*
X26913094Y-25402765D01*
X26998360Y-25446211D01*
X26998363Y-25446212D01*
X27036177Y-25458498D01*
X27170591Y-25502171D01*
X27253429Y-25515291D01*
X27349449Y-25530500D01*
X27349454Y-25530500D01*
X27530551Y-25530500D01*
X27617259Y-25516765D01*
X27709409Y-25502171D01*
X27881639Y-25446211D01*
X28042994Y-25363996D01*
X28189501Y-25257553D01*
X28317553Y-25129501D01*
X28423996Y-24982994D01*
X28506211Y-24821639D01*
X28562171Y-24649409D01*
X28584217Y-24510217D01*
X28587527Y-24489321D01*
X28617456Y-24426186D01*
X28676768Y-24389255D01*
X28746630Y-24390253D01*
X28804863Y-24428863D01*
X28832473Y-24489321D01*
X28857829Y-24649410D01*
X28913787Y-24821636D01*
X28913788Y-24821639D01*
X28969664Y-24931300D01*
X28994277Y-24979605D01*
X28996006Y-24982997D01*
X29102441Y-25129494D01*
X29102445Y-25129499D01*
X29230500Y-25257554D01*
X29230505Y-25257558D01*
X29288910Y-25299991D01*
X29377006Y-25363996D01*
X29453094Y-25402765D01*
X29538360Y-25446211D01*
X29538363Y-25446212D01*
X29576177Y-25458498D01*
X29710591Y-25502171D01*
X29793429Y-25515291D01*
X29889449Y-25530500D01*
X29889454Y-25530500D01*
X30070551Y-25530500D01*
X30157259Y-25516765D01*
X30249409Y-25502171D01*
X30421639Y-25446211D01*
X30582994Y-25363996D01*
X30729501Y-25257553D01*
X30857553Y-25129501D01*
X30963996Y-24982994D01*
X31046211Y-24821639D01*
X31102171Y-24649409D01*
X31124217Y-24510217D01*
X31127527Y-24489321D01*
X31157456Y-24426186D01*
X31216768Y-24389255D01*
X31286630Y-24390253D01*
X31344863Y-24428863D01*
X31372473Y-24489321D01*
X31397829Y-24649410D01*
X31453787Y-24821636D01*
X31453788Y-24821639D01*
X31509664Y-24931300D01*
X31534277Y-24979605D01*
X31536006Y-24982997D01*
X31642441Y-25129494D01*
X31642445Y-25129499D01*
X31770500Y-25257554D01*
X31770505Y-25257558D01*
X31828910Y-25299991D01*
X31917006Y-25363996D01*
X31993094Y-25402765D01*
X32078360Y-25446211D01*
X32078363Y-25446212D01*
X32116177Y-25458498D01*
X32250591Y-25502171D01*
X32333429Y-25515291D01*
X32429449Y-25530500D01*
X32429454Y-25530500D01*
X32610551Y-25530500D01*
X32697259Y-25516765D01*
X32789409Y-25502171D01*
X32961639Y-25446211D01*
X33122994Y-25363996D01*
X33269501Y-25257553D01*
X33397553Y-25129501D01*
X33503996Y-24982994D01*
X33586211Y-24821639D01*
X33642171Y-24649409D01*
X33664217Y-24510217D01*
X33667527Y-24489321D01*
X33697456Y-24426186D01*
X33756768Y-24389255D01*
X33826630Y-24390253D01*
X33884863Y-24428863D01*
X33912473Y-24489321D01*
X33937829Y-24649410D01*
X33993787Y-24821636D01*
X33993788Y-24821639D01*
X34049664Y-24931300D01*
X34074277Y-24979605D01*
X34076006Y-24982997D01*
X34182441Y-25129494D01*
X34182445Y-25129499D01*
X34310500Y-25257554D01*
X34310505Y-25257558D01*
X34368910Y-25299991D01*
X34457006Y-25363996D01*
X34533094Y-25402765D01*
X34618360Y-25446211D01*
X34618363Y-25446212D01*
X34656177Y-25458498D01*
X34790591Y-25502171D01*
X34873429Y-25515291D01*
X34969449Y-25530500D01*
X34969454Y-25530500D01*
X35150551Y-25530500D01*
X35237259Y-25516765D01*
X35329409Y-25502171D01*
X35501639Y-25446211D01*
X35662994Y-25363996D01*
X35809501Y-25257553D01*
X35937553Y-25129501D01*
X36043996Y-24982994D01*
X36126211Y-24821639D01*
X36182171Y-24649409D01*
X36204217Y-24510217D01*
X36207527Y-24489321D01*
X36237456Y-24426186D01*
X36296768Y-24389255D01*
X36366630Y-24390253D01*
X36424863Y-24428863D01*
X36452473Y-24489321D01*
X36477829Y-24649410D01*
X36533787Y-24821636D01*
X36533788Y-24821639D01*
X36589664Y-24931300D01*
X36614277Y-24979605D01*
X36616006Y-24982997D01*
X36722441Y-25129494D01*
X36722445Y-25129499D01*
X36850500Y-25257554D01*
X36850505Y-25257558D01*
X36908910Y-25299991D01*
X36997006Y-25363996D01*
X37073094Y-25402765D01*
X37158360Y-25446211D01*
X37158363Y-25446212D01*
X37196177Y-25458498D01*
X37330591Y-25502171D01*
X37413429Y-25515291D01*
X37509449Y-25530500D01*
X37509454Y-25530500D01*
X37690551Y-25530500D01*
X37869409Y-25502171D01*
X37920182Y-25485674D01*
X38013284Y-25455423D01*
X38083123Y-25453429D01*
X38139281Y-25485674D01*
X40663681Y-28010073D01*
X40697166Y-28071396D01*
X40700000Y-28097754D01*
X40700000Y-30118600D01*
X40680315Y-30185639D01*
X40627511Y-30231394D01*
X40576000Y-30242600D01*
X29704155Y-30242600D01*
X29637116Y-30222915D01*
X29616474Y-30206281D01*
X23948519Y-24538326D01*
X23915034Y-24477003D01*
X23912200Y-24450645D01*
X23912200Y-24327275D01*
X23912200Y-24327273D01*
X23884907Y-24225413D01*
X23832180Y-24134087D01*
X23757613Y-24059520D01*
X23666289Y-24006794D01*
X23666288Y-24006793D01*
X23602405Y-23989676D01*
X23542745Y-23953310D01*
X23512216Y-23890463D01*
X23510499Y-23869901D01*
X23510499Y-23485134D01*
X23510298Y-23481658D01*
X23526080Y-23413594D01*
X23576154Y-23364867D01*
X23634091Y-23350500D01*
X26543084Y-23350500D01*
X26610123Y-23370185D01*
G37*
%TD.AperFunction*%
%TA.AperFunction,Conductor*%
G36*
X62814127Y-23353363D02*
G01*
X62824211Y-23352097D01*
X62847085Y-23363040D01*
X62871415Y-23370185D01*
X62878069Y-23377865D01*
X62887239Y-23382252D01*
X62900566Y-23403828D01*
X62917170Y-23422989D01*
X62918616Y-23433047D01*
X62923958Y-23441695D01*
X62923505Y-23467050D01*
X62927114Y-23492147D01*
X62922859Y-23503250D01*
X62922711Y-23511553D01*
X62907478Y-23543391D01*
X62839919Y-23644498D01*
X62839912Y-23644511D01*
X62783343Y-23781082D01*
X62783340Y-23781092D01*
X62754500Y-23926079D01*
X62754500Y-23926082D01*
X62754500Y-24073918D01*
X62755053Y-24076696D01*
X62759851Y-24100820D01*
X62753622Y-24170412D01*
X62725914Y-24212691D01*
X61607126Y-25331481D01*
X61545803Y-25364966D01*
X61519445Y-25367800D01*
X60581555Y-25367800D01*
X60514516Y-25348115D01*
X60468761Y-25295311D01*
X60458817Y-25226153D01*
X60487842Y-25162597D01*
X60493874Y-25156119D01*
X60863174Y-24786819D01*
X60924497Y-24753334D01*
X60950855Y-24750500D01*
X61038920Y-24750500D01*
X61136462Y-24731096D01*
X61183913Y-24721658D01*
X61320495Y-24665084D01*
X61443416Y-24582951D01*
X61547951Y-24478416D01*
X61630084Y-24355495D01*
X61630138Y-24355366D01*
X61657439Y-24289454D01*
X61686658Y-24218913D01*
X61703062Y-24136446D01*
X61715500Y-24073920D01*
X61715500Y-23926079D01*
X61686659Y-23781092D01*
X61686658Y-23781091D01*
X61686658Y-23781087D01*
X61675474Y-23754087D01*
X61630087Y-23644511D01*
X61630080Y-23644498D01*
X61562522Y-23543391D01*
X61541644Y-23476714D01*
X61560128Y-23409333D01*
X61612107Y-23362643D01*
X61665624Y-23350500D01*
X62804376Y-23350500D01*
X62814127Y-23353363D01*
G37*
%TD.AperFunction*%
%TD*%
%TA.AperFunction,NonConductor*%
G36*
X39310123Y-23370185D02*
G01*
X39355878Y-23422989D01*
X39365822Y-23492147D01*
X39336797Y-23555703D01*
X39330765Y-23562181D01*
X39262445Y-23630500D01*
X39262441Y-23630505D01*
X39156006Y-23777002D01*
X39073788Y-23938360D01*
X39073787Y-23938363D01*
X39017829Y-24110589D01*
X38992473Y-24270678D01*
X38962544Y-24333813D01*
X38903232Y-24370744D01*
X38833369Y-24369746D01*
X38775137Y-24331136D01*
X38747527Y-24270678D01*
X38725892Y-24134085D01*
X38722171Y-24110591D01*
X38688446Y-24006793D01*
X38666212Y-23938363D01*
X38666211Y-23938360D01*
X38631329Y-23869901D01*
X38583996Y-23777006D01*
X38513169Y-23679520D01*
X38477558Y-23630505D01*
X38477554Y-23630500D01*
X38409235Y-23562181D01*
X38375750Y-23500858D01*
X38380734Y-23431166D01*
X38422606Y-23375233D01*
X38488070Y-23350816D01*
X38496916Y-23350500D01*
X39243084Y-23350500D01*
X39310123Y-23370185D01*
G37*
%TD.AperFunction*%
%TA.AperFunction,NonConductor*%
G36*
X36724329Y-23356738D02*
G01*
X36746418Y-23358318D01*
X36757201Y-23366390D01*
X36770123Y-23370185D01*
X36784622Y-23386918D01*
X36802351Y-23400190D01*
X36807058Y-23412810D01*
X36815878Y-23422989D01*
X36819029Y-23444906D01*
X36826768Y-23465654D01*
X36823905Y-23478814D01*
X36825822Y-23492147D01*
X36816622Y-23512290D01*
X36811916Y-23533927D01*
X36798647Y-23551652D01*
X36796797Y-23555703D01*
X36790765Y-23562181D01*
X36722445Y-23630500D01*
X36722441Y-23630505D01*
X36616006Y-23777002D01*
X36533788Y-23938360D01*
X36533787Y-23938363D01*
X36477829Y-24110589D01*
X36452473Y-24270678D01*
X36422544Y-24333813D01*
X36363232Y-24370744D01*
X36293369Y-24369746D01*
X36235137Y-24331136D01*
X36207527Y-24270678D01*
X36185892Y-24134085D01*
X36182171Y-24110591D01*
X36148446Y-24006793D01*
X36126212Y-23938363D01*
X36126211Y-23938360D01*
X36091329Y-23869901D01*
X36043996Y-23777006D01*
X35973169Y-23679520D01*
X35937558Y-23630505D01*
X35937554Y-23630500D01*
X35869235Y-23562181D01*
X35835750Y-23500858D01*
X35840734Y-23431166D01*
X35882606Y-23375233D01*
X35948070Y-23350816D01*
X35956916Y-23350500D01*
X36703084Y-23350500D01*
X36724329Y-23356738D01*
G37*
%TD.AperFunction*%
%TA.AperFunction,NonConductor*%
G36*
X34230123Y-23370185D02*
G01*
X34275878Y-23422989D01*
X34285822Y-23492147D01*
X34256797Y-23555703D01*
X34250765Y-23562181D01*
X34182445Y-23630500D01*
X34182441Y-23630505D01*
X34076006Y-23777002D01*
X33993788Y-23938360D01*
X33993787Y-23938363D01*
X33937829Y-24110589D01*
X33912473Y-24270678D01*
X33882544Y-24333813D01*
X33823232Y-24370744D01*
X33753369Y-24369746D01*
X33695137Y-24331136D01*
X33667527Y-24270678D01*
X33645892Y-24134085D01*
X33642171Y-24110591D01*
X33608446Y-24006793D01*
X33586212Y-23938363D01*
X33586211Y-23938360D01*
X33551329Y-23869901D01*
X33503996Y-23777006D01*
X33433169Y-23679520D01*
X33397558Y-23630505D01*
X33397554Y-23630500D01*
X33329235Y-23562181D01*
X33295750Y-23500858D01*
X33300734Y-23431166D01*
X33342606Y-23375233D01*
X33408070Y-23350816D01*
X33416916Y-23350500D01*
X34163084Y-23350500D01*
X34230123Y-23370185D01*
G37*
%TD.AperFunction*%
%TA.AperFunction,NonConductor*%
G36*
X31644329Y-23356738D02*
G01*
X31666418Y-23358318D01*
X31677201Y-23366390D01*
X31690123Y-23370185D01*
X31704622Y-23386918D01*
X31722351Y-23400190D01*
X31727058Y-23412810D01*
X31735878Y-23422989D01*
X31739029Y-23444906D01*
X31746768Y-23465654D01*
X31743905Y-23478814D01*
X31745822Y-23492147D01*
X31736622Y-23512290D01*
X31731916Y-23533927D01*
X31718647Y-23551652D01*
X31716797Y-23555703D01*
X31710765Y-23562181D01*
X31642445Y-23630500D01*
X31642441Y-23630505D01*
X31536006Y-23777002D01*
X31453788Y-23938360D01*
X31453787Y-23938363D01*
X31397829Y-24110589D01*
X31372473Y-24270678D01*
X31342544Y-24333813D01*
X31283232Y-24370744D01*
X31213369Y-24369746D01*
X31155137Y-24331136D01*
X31127527Y-24270678D01*
X31105892Y-24134085D01*
X31102171Y-24110591D01*
X31068446Y-24006793D01*
X31046212Y-23938363D01*
X31046211Y-23938360D01*
X31011329Y-23869901D01*
X30963996Y-23777006D01*
X30893169Y-23679520D01*
X30857558Y-23630505D01*
X30857554Y-23630500D01*
X30789235Y-23562181D01*
X30755750Y-23500858D01*
X30760734Y-23431166D01*
X30802606Y-23375233D01*
X30868070Y-23350816D01*
X30876916Y-23350500D01*
X31623084Y-23350500D01*
X31644329Y-23356738D01*
G37*
%TD.AperFunction*%
%TA.AperFunction,NonConductor*%
G36*
X29150123Y-23370185D02*
G01*
X29195878Y-23422989D01*
X29205822Y-23492147D01*
X29176797Y-23555703D01*
X29170765Y-23562181D01*
X29102445Y-23630500D01*
X29102441Y-23630505D01*
X28996006Y-23777002D01*
X28913788Y-23938360D01*
X28913787Y-23938363D01*
X28857829Y-24110589D01*
X28832473Y-24270678D01*
X28802544Y-24333813D01*
X28743232Y-24370744D01*
X28673369Y-24369746D01*
X28615137Y-24331136D01*
X28587527Y-24270678D01*
X28565892Y-24134085D01*
X28562171Y-24110591D01*
X28528446Y-24006793D01*
X28506212Y-23938363D01*
X28506211Y-23938360D01*
X28471329Y-23869901D01*
X28423996Y-23777006D01*
X28353169Y-23679520D01*
X28317558Y-23630505D01*
X28317554Y-23630500D01*
X28249235Y-23562181D01*
X28215750Y-23500858D01*
X28220734Y-23431166D01*
X28262606Y-23375233D01*
X28328070Y-23350816D01*
X28336916Y-23350500D01*
X29083084Y-23350500D01*
X29150123Y-23370185D01*
G37*
%TD.AperFunction*%
%TA.AperFunction,NonConductor*%
G36*
X58890146Y-24420185D02*
G01*
X58935901Y-24472989D01*
X58946282Y-24510217D01*
X58947415Y-24519992D01*
X58992793Y-24622764D01*
X58992794Y-24622765D01*
X59072235Y-24702206D01*
X59175009Y-24747585D01*
X59200135Y-24750500D01*
X59467345Y-24750499D01*
X59488590Y-24756737D01*
X59510677Y-24758317D01*
X59521459Y-24766388D01*
X59534383Y-24770183D01*
X59548883Y-24786917D01*
X59566611Y-24800188D01*
X59571318Y-24812808D01*
X59580138Y-24822987D01*
X59583289Y-24844903D01*
X59591028Y-24865652D01*
X59588165Y-24878813D01*
X59590082Y-24892146D01*
X59580883Y-24912287D01*
X59576177Y-24933925D01*
X59562904Y-24951654D01*
X59561057Y-24955701D01*
X59555026Y-24962180D01*
X59503056Y-25014150D01*
X59393624Y-25123582D01*
X59332304Y-25157066D01*
X59305945Y-25159900D01*
X56174700Y-25159900D01*
X56107661Y-25140215D01*
X56061906Y-25087411D01*
X56050700Y-25035900D01*
X56050700Y-24975954D01*
X56070385Y-24908915D01*
X56087019Y-24888273D01*
X56538473Y-24436819D01*
X56599796Y-24403334D01*
X56626154Y-24400500D01*
X58823107Y-24400500D01*
X58890146Y-24420185D01*
G37*
%TD.AperFunction*%
%TA.AperFunction,NonConductor*%
G36*
X58890261Y-23370185D02*
G01*
X58936016Y-23422989D01*
X58946396Y-23488788D01*
X58946280Y-23489788D01*
X58919002Y-23554113D01*
X58861277Y-23593479D01*
X58823106Y-23599500D01*
X56469239Y-23599500D01*
X56469223Y-23599499D01*
X56461627Y-23599499D01*
X56356173Y-23599499D01*
X56288266Y-23617695D01*
X56254312Y-23626793D01*
X56162984Y-23679522D01*
X55520626Y-24321881D01*
X55459303Y-24355366D01*
X55432945Y-24358200D01*
X55371143Y-24358200D01*
X55218416Y-24399123D01*
X55218409Y-24399126D01*
X55081490Y-24478175D01*
X55081482Y-24478181D01*
X54969681Y-24589982D01*
X54969675Y-24589990D01*
X54890626Y-24726909D01*
X54890623Y-24726916D01*
X54849700Y-24879643D01*
X54849700Y-25035900D01*
X54830015Y-25102939D01*
X54777211Y-25148694D01*
X54725700Y-25159900D01*
X54176208Y-25159900D01*
X54109169Y-25140215D01*
X54063414Y-25087411D01*
X54053470Y-25018253D01*
X54065723Y-24979605D01*
X54146211Y-24821639D01*
X54146212Y-24821636D01*
X54157493Y-24786917D01*
X54202171Y-24649409D01*
X54224217Y-24510217D01*
X54230500Y-24470551D01*
X54230500Y-24289448D01*
X54205892Y-24134085D01*
X54202171Y-24110591D01*
X54168446Y-24006793D01*
X54146212Y-23938363D01*
X54146211Y-23938360D01*
X54111329Y-23869901D01*
X54063996Y-23777006D01*
X53993169Y-23679520D01*
X53957558Y-23630505D01*
X53957554Y-23630500D01*
X53889235Y-23562181D01*
X53855750Y-23500858D01*
X53860734Y-23431166D01*
X53902606Y-23375233D01*
X53968070Y-23350816D01*
X53976916Y-23350500D01*
X58823222Y-23350500D01*
X58890261Y-23370185D01*
G37*
%TD.AperFunction*%
%TA.AperFunction,NonConductor*%
G36*
X52204329Y-23356738D02*
G01*
X52226418Y-23358318D01*
X52237201Y-23366390D01*
X52250123Y-23370185D01*
X52264622Y-23386918D01*
X52282351Y-23400190D01*
X52287058Y-23412810D01*
X52295878Y-23422989D01*
X52299029Y-23444906D01*
X52306768Y-23465654D01*
X52303905Y-23478814D01*
X52305822Y-23492147D01*
X52296622Y-23512290D01*
X52291916Y-23533927D01*
X52278647Y-23551652D01*
X52276797Y-23555703D01*
X52270765Y-23562181D01*
X52202445Y-23630500D01*
X52202441Y-23630505D01*
X52096006Y-23777002D01*
X52013788Y-23938360D01*
X52013787Y-23938363D01*
X51957829Y-24110589D01*
X51929500Y-24289448D01*
X51929500Y-24470551D01*
X51957829Y-24649410D01*
X52013787Y-24821636D01*
X52013788Y-24821639D01*
X52094277Y-24979605D01*
X52107173Y-25048274D01*
X52080897Y-25113015D01*
X52023790Y-25153272D01*
X51983792Y-25159900D01*
X44194500Y-25159900D01*
X44127461Y-25140215D01*
X44081706Y-25087411D01*
X44070500Y-25035900D01*
X44070499Y-23485134D01*
X44070298Y-23481658D01*
X44086080Y-23413594D01*
X44136154Y-23364867D01*
X44194091Y-23350500D01*
X52183084Y-23350500D01*
X52204329Y-23356738D01*
G37*
%TD.AperFunction*%
%TA.AperFunction,NonConductor*%
G36*
X54672984Y-25980585D02*
G01*
X54718739Y-26033389D01*
X54728683Y-26102547D01*
X54699658Y-26166103D01*
X54693626Y-26172581D01*
X54348208Y-26517998D01*
X54286885Y-26551483D01*
X54217193Y-26546499D01*
X54161260Y-26504627D01*
X54148697Y-26482562D01*
X54148423Y-26482702D01*
X54122528Y-26431881D01*
X54063996Y-26317006D01*
X53959066Y-26172581D01*
X53957558Y-26170505D01*
X53954396Y-26166803D01*
X53955817Y-26165589D01*
X53926150Y-26111258D01*
X53931134Y-26041566D01*
X53973006Y-25985633D01*
X54038470Y-25961216D01*
X54047316Y-25960900D01*
X54605945Y-25960900D01*
X54672984Y-25980585D01*
G37*
%TD.AperFunction*%
%TA.AperFunction,NonConductor*%
G36*
X38906630Y-24390253D02*
G01*
X38964863Y-24428863D01*
X38992473Y-24489321D01*
X39017829Y-24649410D01*
X39073787Y-24821636D01*
X39073788Y-24821639D01*
X39129664Y-24931300D01*
X39154277Y-24979605D01*
X39156006Y-24982997D01*
X39251361Y-25114244D01*
X39251365Y-25114248D01*
X39262447Y-25129501D01*
X39390499Y-25257553D01*
X39405751Y-25268634D01*
X39405755Y-25268638D01*
X39521077Y-25352423D01*
X39537006Y-25363996D01*
X39613094Y-25402765D01*
X39698360Y-25446211D01*
X39698363Y-25446212D01*
X39736177Y-25458498D01*
X39870591Y-25502171D01*
X39953429Y-25515291D01*
X40049449Y-25530500D01*
X40049454Y-25530500D01*
X40230551Y-25530500D01*
X40409409Y-25502171D01*
X40471773Y-25481908D01*
X40537682Y-25460492D01*
X40607523Y-25458498D01*
X40667356Y-25494578D01*
X40698184Y-25557279D01*
X40700000Y-25578424D01*
X40700000Y-26614245D01*
X40680315Y-26681284D01*
X40627511Y-26727039D01*
X40558353Y-26736983D01*
X40494797Y-26707958D01*
X40488319Y-26701926D01*
X38705674Y-24919281D01*
X38672189Y-24857958D01*
X38675423Y-24793284D01*
X38722171Y-24649409D01*
X38731583Y-24589984D01*
X38747527Y-24489321D01*
X38777456Y-24426186D01*
X38836768Y-24389255D01*
X38906630Y-24390253D01*
G37*
%TD.AperFunction*%
%TA.AperFunction,NonConductor*%
G36*
X52179723Y-25980585D02*
G01*
X52225478Y-26033389D01*
X52235422Y-26102547D01*
X52206397Y-26166103D01*
X52204035Y-26168638D01*
X52202441Y-26170505D01*
X52096006Y-26317002D01*
X52013788Y-26478360D01*
X52013787Y-26478363D01*
X51957829Y-26650589D01*
X51929500Y-26829448D01*
X51929500Y-27010551D01*
X51957829Y-27189410D01*
X52013787Y-27361636D01*
X52013788Y-27361639D01*
X52096003Y-27522993D01*
X52146586Y-27592615D01*
X52170065Y-27658422D01*
X52154239Y-27726476D01*
X52104133Y-27775170D01*
X52046267Y-27789500D01*
X44751055Y-27789500D01*
X44684016Y-27769815D01*
X44638261Y-27717011D01*
X44628317Y-27647853D01*
X44657342Y-27584297D01*
X44663374Y-27577819D01*
X44935674Y-27305519D01*
X44996997Y-27272034D01*
X45023355Y-27269200D01*
X46615502Y-27269200D01*
X46682541Y-27288885D01*
X46703183Y-27305519D01*
X46746884Y-27349220D01*
X46746886Y-27349221D01*
X46746890Y-27349224D01*
X46883809Y-27428273D01*
X46883816Y-27428277D01*
X47036543Y-27469200D01*
X47036545Y-27469200D01*
X47194655Y-27469200D01*
X47194657Y-27469200D01*
X47347384Y-27428277D01*
X47484316Y-27349220D01*
X47596120Y-27237416D01*
X47675177Y-27100484D01*
X47716100Y-26947757D01*
X47716100Y-26789643D01*
X47675177Y-26636916D01*
X47650342Y-26593900D01*
X47596124Y-26499990D01*
X47596118Y-26499982D01*
X47484317Y-26388181D01*
X47484309Y-26388175D01*
X47347390Y-26309126D01*
X47347386Y-26309124D01*
X47347384Y-26309123D01*
X47194657Y-26268200D01*
X47036543Y-26268200D01*
X46883816Y-26309123D01*
X46883809Y-26309126D01*
X46746890Y-26388175D01*
X46746882Y-26388181D01*
X46703183Y-26431881D01*
X46641860Y-26465366D01*
X46615502Y-26468200D01*
X44753373Y-26468200D01*
X44651513Y-26495493D01*
X44651510Y-26495494D01*
X44560934Y-26547789D01*
X44560921Y-26547796D01*
X44560191Y-26548217D01*
X44560188Y-26548219D01*
X44271085Y-26837321D01*
X44209762Y-26870805D01*
X44140070Y-26865821D01*
X44084137Y-26823949D01*
X44060931Y-26769037D01*
X44055094Y-26732184D01*
X44042171Y-26650591D01*
X43997752Y-26513880D01*
X43986212Y-26478363D01*
X43986211Y-26478360D01*
X43957740Y-26422484D01*
X43903996Y-26317006D01*
X43799066Y-26172581D01*
X43797558Y-26170505D01*
X43794396Y-26166803D01*
X43795817Y-26165589D01*
X43766150Y-26111258D01*
X43771134Y-26041566D01*
X43813006Y-25985633D01*
X43878470Y-25961216D01*
X43887316Y-25960900D01*
X52112684Y-25960900D01*
X52179723Y-25980585D01*
G37*
%TD.AperFunction*%
%TA.AperFunction,NonConductor*%
G36*
X52058347Y-28594047D02*
G01*
X52070891Y-28592970D01*
X52091235Y-28603704D01*
X52113306Y-28610185D01*
X52121549Y-28619698D01*
X52132687Y-28625575D01*
X52144000Y-28645607D01*
X52159061Y-28662989D01*
X52160852Y-28675449D01*
X52167044Y-28686413D01*
X52165731Y-28709377D01*
X52169005Y-28732147D01*
X52163679Y-28745269D01*
X52163056Y-28756169D01*
X52146586Y-28787385D01*
X52096003Y-28857006D01*
X52013788Y-29018360D01*
X52013787Y-29018363D01*
X51957829Y-29190589D01*
X51929500Y-29369448D01*
X51929500Y-29550551D01*
X51957829Y-29729412D01*
X52004575Y-29873283D01*
X52006570Y-29943124D01*
X51974325Y-29999281D01*
X51767326Y-30206281D01*
X51706003Y-30239766D01*
X51679645Y-30242600D01*
X44014832Y-30242600D01*
X43947793Y-30222915D01*
X43902038Y-30170111D01*
X43892094Y-30100953D01*
X43904347Y-30062305D01*
X43986211Y-29901639D01*
X43986212Y-29901636D01*
X43999253Y-29861498D01*
X44042171Y-29729409D01*
X44065089Y-29584711D01*
X44070500Y-29550551D01*
X44070500Y-29369448D01*
X44054019Y-29265397D01*
X44042171Y-29190591D01*
X43995424Y-29046716D01*
X43993429Y-28976875D01*
X44025671Y-28920721D01*
X44319575Y-28626816D01*
X44380897Y-28593334D01*
X44407255Y-28590500D01*
X52046267Y-28590500D01*
X52058347Y-28594047D01*
G37*
%TD.AperFunction*%
%TA.AperFunction,NonConductor*%
G36*
X60786716Y-30535424D02*
G01*
X60930591Y-30582171D01*
X61003639Y-30593740D01*
X61090678Y-30607527D01*
X61153813Y-30637456D01*
X61190744Y-30696768D01*
X61189746Y-30766631D01*
X61151136Y-30824863D01*
X61090678Y-30852473D01*
X60930589Y-30877829D01*
X60758363Y-30933787D01*
X60758360Y-30933788D01*
X60612695Y-31008010D01*
X60609989Y-31008518D01*
X60607911Y-31010319D01*
X60575861Y-31014927D01*
X60544026Y-31020906D01*
X60541476Y-31019871D01*
X60538753Y-31020263D01*
X60509289Y-31006807D01*
X60479286Y-30994630D01*
X60477700Y-30992381D01*
X60475197Y-30991238D01*
X60457687Y-30963993D01*
X60439028Y-30937524D01*
X60438454Y-30934065D01*
X60437423Y-30932460D01*
X60432400Y-30897525D01*
X60432400Y-30845354D01*
X60452085Y-30778315D01*
X60468715Y-30757677D01*
X60660719Y-30565672D01*
X60722040Y-30532189D01*
X60786716Y-30535424D01*
G37*
%TD.AperFunction*%
%TA.AperFunction,NonConductor*%
G36*
X63705612Y-34325185D02*
G01*
X63741675Y-34360610D01*
X63778207Y-34415284D01*
X63778213Y-34415292D01*
X63815240Y-34452319D01*
X63817150Y-34455818D01*
X63820526Y-34457944D01*
X63833759Y-34486234D01*
X63848725Y-34513642D01*
X63848440Y-34517620D01*
X63850130Y-34521232D01*
X63845969Y-34552174D01*
X63843741Y-34583334D01*
X63841197Y-34587666D01*
X63840819Y-34590478D01*
X63832099Y-34603159D01*
X63822010Y-34620343D01*
X63818769Y-34624152D01*
X63778211Y-34664711D01*
X63756023Y-34697916D01*
X63751361Y-34703398D01*
X63727914Y-34718770D01*
X63706398Y-34736752D01*
X63699090Y-34737669D01*
X63692931Y-34741708D01*
X63664895Y-34741964D01*
X63637073Y-34745458D01*
X63630428Y-34742278D01*
X63623064Y-34742346D01*
X63599338Y-34727403D01*
X63574046Y-34715302D01*
X63569229Y-34710736D01*
X63375674Y-34517181D01*
X63342189Y-34455858D01*
X63347173Y-34386166D01*
X63389045Y-34330233D01*
X63454509Y-34305816D01*
X63463355Y-34305500D01*
X63638573Y-34305500D01*
X63705612Y-34325185D01*
G37*
%TD.AperFunction*%
%TA.AperFunction,NonConductor*%
G36*
X42028314Y-35325594D02*
G01*
X42041647Y-35323678D01*
X42061790Y-35332877D01*
X42083427Y-35337584D01*
X42101152Y-35350852D01*
X42105203Y-35352703D01*
X42111681Y-35358735D01*
X42170500Y-35417554D01*
X42170505Y-35417558D01*
X42277757Y-35495480D01*
X42317006Y-35523996D01*
X42418086Y-35575499D01*
X42478360Y-35606211D01*
X42478363Y-35606212D01*
X42564476Y-35634191D01*
X42650591Y-35662171D01*
X42723401Y-35673703D01*
X42810678Y-35687527D01*
X42873813Y-35717456D01*
X42910744Y-35776768D01*
X42909746Y-35846631D01*
X42871136Y-35904863D01*
X42810678Y-35932473D01*
X42650589Y-35957829D01*
X42478363Y-36013787D01*
X42478360Y-36013788D01*
X42317002Y-36096006D01*
X42170505Y-36202441D01*
X42170500Y-36202445D01*
X42111681Y-36261265D01*
X42050358Y-36294750D01*
X41980666Y-36289766D01*
X41924733Y-36247894D01*
X41900316Y-36182430D01*
X41900000Y-36173584D01*
X41900000Y-35446416D01*
X41906238Y-35425170D01*
X41907818Y-35403082D01*
X41915890Y-35392298D01*
X41919685Y-35379377D01*
X41936418Y-35364877D01*
X41949690Y-35347149D01*
X41962310Y-35342441D01*
X41972489Y-35333622D01*
X41994406Y-35330470D01*
X42015154Y-35322732D01*
X42028314Y-35325594D01*
G37*
%TD.AperFunction*%
%TA.AperFunction,NonConductor*%
G36*
X40643039Y-34960185D02*
G01*
X40688794Y-35012989D01*
X40700000Y-35064500D01*
X40700000Y-38421575D01*
X40680315Y-38488614D01*
X40627511Y-38534369D01*
X40558353Y-38544313D01*
X40537683Y-38539506D01*
X40409411Y-38497829D01*
X40409412Y-38497829D01*
X40230551Y-38469500D01*
X40230546Y-38469500D01*
X40049454Y-38469500D01*
X40049449Y-38469500D01*
X39870589Y-38497829D01*
X39698363Y-38553787D01*
X39698360Y-38553788D01*
X39537002Y-38636006D01*
X39390505Y-38742441D01*
X39390500Y-38742445D01*
X39262445Y-38870500D01*
X39262441Y-38870505D01*
X39156006Y-39017002D01*
X39073788Y-39178360D01*
X39073787Y-39178363D01*
X39017829Y-39350589D01*
X38992473Y-39510678D01*
X38962544Y-39573813D01*
X38903232Y-39610744D01*
X38833369Y-39609746D01*
X38775137Y-39571136D01*
X38747527Y-39510678D01*
X38728593Y-39391137D01*
X38722171Y-39350591D01*
X38666211Y-39178361D01*
X38666211Y-39178360D01*
X38637740Y-39122484D01*
X38583996Y-39017006D01*
X38486688Y-38883072D01*
X38477558Y-38870505D01*
X38477554Y-38870500D01*
X38349499Y-38742445D01*
X38349494Y-38742441D01*
X38202997Y-38636006D01*
X38202996Y-38636005D01*
X38202994Y-38636004D01*
X38151300Y-38609664D01*
X38041639Y-38553788D01*
X38041636Y-38553787D01*
X37869410Y-38497829D01*
X37690551Y-38469500D01*
X37690546Y-38469500D01*
X37509454Y-38469500D01*
X37509449Y-38469500D01*
X37330589Y-38497829D01*
X37158363Y-38553787D01*
X37158360Y-38553788D01*
X36997002Y-38636006D01*
X36850505Y-38742441D01*
X36850500Y-38742445D01*
X36722445Y-38870500D01*
X36722441Y-38870505D01*
X36616006Y-39017002D01*
X36533788Y-39178360D01*
X36533787Y-39178363D01*
X36477829Y-39350589D01*
X36452473Y-39510678D01*
X36422544Y-39573813D01*
X36363232Y-39610744D01*
X36293369Y-39609746D01*
X36235137Y-39571136D01*
X36207527Y-39510678D01*
X36188593Y-39391137D01*
X36182171Y-39350591D01*
X36126211Y-39178361D01*
X36126211Y-39178360D01*
X36097740Y-39122484D01*
X36043996Y-39017006D01*
X35946688Y-38883072D01*
X35937558Y-38870505D01*
X35937554Y-38870500D01*
X35809499Y-38742445D01*
X35809494Y-38742441D01*
X35662997Y-38636006D01*
X35662996Y-38636005D01*
X35662994Y-38636004D01*
X35611300Y-38609664D01*
X35501639Y-38553788D01*
X35501636Y-38553787D01*
X35329410Y-38497829D01*
X35150551Y-38469500D01*
X35150546Y-38469500D01*
X34969454Y-38469500D01*
X34969449Y-38469500D01*
X34790589Y-38497829D01*
X34618363Y-38553787D01*
X34618360Y-38553788D01*
X34457002Y-38636006D01*
X34310505Y-38742441D01*
X34310500Y-38742445D01*
X34182445Y-38870500D01*
X34182441Y-38870505D01*
X34076006Y-39017002D01*
X33993788Y-39178360D01*
X33993787Y-39178363D01*
X33937829Y-39350589D01*
X33912473Y-39510678D01*
X33882544Y-39573813D01*
X33823232Y-39610744D01*
X33753369Y-39609746D01*
X33695137Y-39571136D01*
X33667527Y-39510678D01*
X33648593Y-39391137D01*
X33642171Y-39350591D01*
X33586211Y-39178361D01*
X33586211Y-39178360D01*
X33557740Y-39122484D01*
X33503996Y-39017006D01*
X33406688Y-38883072D01*
X33397558Y-38870505D01*
X33397554Y-38870500D01*
X33269499Y-38742445D01*
X33269494Y-38742441D01*
X33122997Y-38636006D01*
X33122996Y-38636005D01*
X33122994Y-38636004D01*
X33071300Y-38609664D01*
X32961639Y-38553788D01*
X32961636Y-38553787D01*
X32789410Y-38497829D01*
X32610551Y-38469500D01*
X32610546Y-38469500D01*
X32429454Y-38469500D01*
X32429449Y-38469500D01*
X32250589Y-38497829D01*
X32078363Y-38553787D01*
X32078360Y-38553788D01*
X31917002Y-38636006D01*
X31770505Y-38742441D01*
X31770500Y-38742445D01*
X31642445Y-38870500D01*
X31642441Y-38870505D01*
X31536006Y-39017002D01*
X31453788Y-39178360D01*
X31453787Y-39178363D01*
X31397829Y-39350589D01*
X31372473Y-39510678D01*
X31342544Y-39573813D01*
X31283232Y-39610744D01*
X31213369Y-39609746D01*
X31155137Y-39571136D01*
X31127527Y-39510678D01*
X31108593Y-39391137D01*
X31102171Y-39350591D01*
X31046211Y-39178361D01*
X31046211Y-39178360D01*
X31017740Y-39122484D01*
X30963996Y-39017006D01*
X30866688Y-38883072D01*
X30857558Y-38870505D01*
X30857554Y-38870500D01*
X30729499Y-38742445D01*
X30729494Y-38742441D01*
X30582997Y-38636006D01*
X30582996Y-38636005D01*
X30582994Y-38636004D01*
X30531300Y-38609664D01*
X30421639Y-38553788D01*
X30421636Y-38553787D01*
X30249410Y-38497829D01*
X30070551Y-38469500D01*
X30070546Y-38469500D01*
X29889454Y-38469500D01*
X29889449Y-38469500D01*
X29710589Y-38497829D01*
X29538363Y-38553787D01*
X29538360Y-38553788D01*
X29377002Y-38636006D01*
X29237857Y-38737100D01*
X29172050Y-38760580D01*
X29103997Y-38744754D01*
X29099629Y-38740259D01*
X29104984Y-38754617D01*
X29117559Y-38776884D01*
X29116991Y-38786809D01*
X29120466Y-38796125D01*
X29115030Y-38821111D01*
X29113571Y-38846640D01*
X29106604Y-38859843D01*
X29105614Y-38864398D01*
X29097101Y-38877856D01*
X28996003Y-39017006D01*
X28913788Y-39178360D01*
X28913787Y-39178363D01*
X28857829Y-39350589D01*
X28832473Y-39510678D01*
X28802544Y-39573813D01*
X28743232Y-39610744D01*
X28673369Y-39609746D01*
X28615137Y-39571136D01*
X28587527Y-39510678D01*
X28568593Y-39391137D01*
X28562171Y-39350591D01*
X28515424Y-39206716D01*
X28513429Y-39136875D01*
X28545672Y-39080719D01*
X28909103Y-38717288D01*
X28931540Y-38705037D01*
X28951793Y-38689420D01*
X28961699Y-38688569D01*
X28970424Y-38683805D01*
X28995930Y-38685629D01*
X29021406Y-38683441D01*
X29030197Y-38688079D01*
X29040116Y-38688789D01*
X29060587Y-38704113D01*
X29068620Y-38708352D01*
X29055302Y-38694648D01*
X29041427Y-38626170D01*
X29066776Y-38561061D01*
X29077291Y-38549101D01*
X30611402Y-37014991D01*
X32649574Y-34976819D01*
X32710897Y-34943334D01*
X32737255Y-34940500D01*
X40576000Y-34940500D01*
X40643039Y-34960185D01*
G37*
%TD.AperFunction*%
%TA.AperFunction,NonConductor*%
G36*
X21128833Y-23969360D02*
G01*
X21184767Y-24011231D01*
X21209184Y-24076696D01*
X21209500Y-24085542D01*
X21209500Y-25274856D01*
X21209502Y-25274882D01*
X21212413Y-25299987D01*
X21212415Y-25299991D01*
X21257793Y-25402764D01*
X21257794Y-25402765D01*
X21337235Y-25482206D01*
X21440009Y-25527585D01*
X21465135Y-25530500D01*
X23254864Y-25530499D01*
X23254879Y-25530497D01*
X23254882Y-25530497D01*
X23279987Y-25527586D01*
X23279988Y-25527585D01*
X23279991Y-25527585D01*
X23382765Y-25482206D01*
X23462206Y-25402765D01*
X23462210Y-25402755D01*
X23466421Y-25396609D01*
X23520545Y-25352423D01*
X23589965Y-25344513D01*
X23652642Y-25375390D01*
X23656406Y-25378999D01*
X29240987Y-30963580D01*
X29294767Y-30994630D01*
X29331790Y-31016006D01*
X29332312Y-31016307D01*
X29434173Y-31043600D01*
X40576000Y-31043600D01*
X40643039Y-31063285D01*
X40688794Y-31116089D01*
X40700000Y-31167600D01*
X40700000Y-34015500D01*
X40680315Y-34082539D01*
X40627511Y-34128294D01*
X40576000Y-34139500D01*
X32467273Y-34139500D01*
X32365410Y-34166793D01*
X32274087Y-34219520D01*
X32274084Y-34219522D01*
X27979280Y-38514325D01*
X27917957Y-38547810D01*
X27853281Y-38544575D01*
X27709410Y-38497829D01*
X27530551Y-38469500D01*
X27530546Y-38469500D01*
X27349454Y-38469500D01*
X27349449Y-38469500D01*
X27170589Y-38497829D01*
X26998363Y-38553787D01*
X26998360Y-38553788D01*
X26837002Y-38636006D01*
X26690505Y-38742441D01*
X26690500Y-38742445D01*
X26562445Y-38870500D01*
X26562441Y-38870505D01*
X26456006Y-39017002D01*
X26373788Y-39178360D01*
X26373787Y-39178363D01*
X26317829Y-39350589D01*
X26292473Y-39510678D01*
X26262544Y-39573813D01*
X26203232Y-39610744D01*
X26133369Y-39609746D01*
X26075137Y-39571136D01*
X26047527Y-39510678D01*
X26028593Y-39391137D01*
X26022171Y-39350591D01*
X25966211Y-39178361D01*
X25966211Y-39178360D01*
X25937740Y-39122484D01*
X25883996Y-39017006D01*
X25786688Y-38883072D01*
X25777558Y-38870505D01*
X25777554Y-38870500D01*
X25649499Y-38742445D01*
X25649494Y-38742441D01*
X25502997Y-38636006D01*
X25502996Y-38636005D01*
X25502994Y-38636004D01*
X25451300Y-38609664D01*
X25341639Y-38553788D01*
X25341636Y-38553787D01*
X25169410Y-38497829D01*
X24990551Y-38469500D01*
X24990546Y-38469500D01*
X24809454Y-38469500D01*
X24809449Y-38469500D01*
X24630589Y-38497829D01*
X24458363Y-38553787D01*
X24458360Y-38553788D01*
X24297002Y-38636006D01*
X24150505Y-38742441D01*
X24150500Y-38742445D01*
X24022445Y-38870500D01*
X24022441Y-38870505D01*
X23916006Y-39017002D01*
X23833788Y-39178360D01*
X23833787Y-39178363D01*
X23777829Y-39350589D01*
X23752473Y-39510678D01*
X23722544Y-39573813D01*
X23663232Y-39610744D01*
X23593369Y-39609746D01*
X23535137Y-39571136D01*
X23507527Y-39510678D01*
X23488593Y-39391137D01*
X23482171Y-39350591D01*
X23426211Y-39178361D01*
X23426211Y-39178360D01*
X23397740Y-39122484D01*
X23343996Y-39017006D01*
X23246688Y-38883072D01*
X23237558Y-38870505D01*
X23237554Y-38870500D01*
X23109499Y-38742445D01*
X23109494Y-38742441D01*
X22962997Y-38636006D01*
X22962996Y-38636005D01*
X22962994Y-38636004D01*
X22911300Y-38609664D01*
X22801639Y-38553788D01*
X22801636Y-38553787D01*
X22629410Y-38497829D01*
X22450551Y-38469500D01*
X22450546Y-38469500D01*
X22269454Y-38469500D01*
X22269449Y-38469500D01*
X22090589Y-38497829D01*
X21918363Y-38553787D01*
X21918360Y-38553788D01*
X21757002Y-38636006D01*
X21610505Y-38742441D01*
X21610500Y-38742445D01*
X21482445Y-38870500D01*
X21482441Y-38870505D01*
X21376006Y-39017002D01*
X21293788Y-39178360D01*
X21293787Y-39178363D01*
X21237829Y-39350589D01*
X21209500Y-39529448D01*
X21209500Y-39710551D01*
X21237828Y-39889409D01*
X21247997Y-39920704D01*
X21249992Y-39990545D01*
X21213912Y-40050378D01*
X21151211Y-40081206D01*
X21081796Y-40073241D01*
X21042385Y-40046703D01*
X20386819Y-39391137D01*
X20353334Y-39329814D01*
X20350500Y-39303456D01*
X20350500Y-24696543D01*
X20370185Y-24629504D01*
X20386819Y-24608862D01*
X20679024Y-24316657D01*
X20997821Y-23997859D01*
X21059142Y-23964376D01*
X21128833Y-23969360D01*
G37*
%TD.AperFunction*%
%TA.AperFunction,NonConductor*%
G36*
X68092539Y-35370185D02*
G01*
X68138294Y-35422989D01*
X68149500Y-35474500D01*
X68149500Y-39303456D01*
X68129815Y-39370495D01*
X68113181Y-39391137D01*
X66891137Y-40613181D01*
X66829814Y-40646666D01*
X66803456Y-40649500D01*
X64205624Y-40649500D01*
X64138585Y-40629815D01*
X64092830Y-40577011D01*
X64082886Y-40507853D01*
X64102522Y-40456609D01*
X64170080Y-40355501D01*
X64170080Y-40355500D01*
X64170084Y-40355495D01*
X64226658Y-40218913D01*
X64236096Y-40171462D01*
X64255500Y-40073920D01*
X64255500Y-39926079D01*
X64226659Y-39781092D01*
X64226658Y-39781091D01*
X64226658Y-39781087D01*
X64226656Y-39781082D01*
X64170087Y-39644511D01*
X64170080Y-39644498D01*
X64087951Y-39521584D01*
X64087948Y-39521580D01*
X63983419Y-39417051D01*
X63983415Y-39417048D01*
X63860501Y-39334919D01*
X63860488Y-39334912D01*
X63723917Y-39278343D01*
X63723907Y-39278340D01*
X63578920Y-39249500D01*
X63578918Y-39249500D01*
X63431082Y-39249500D01*
X63373261Y-39261001D01*
X63303670Y-39254773D01*
X63248493Y-39211909D01*
X63225249Y-39146019D01*
X63241317Y-39078022D01*
X63261386Y-39051706D01*
X64792510Y-37520582D01*
X64853831Y-37487099D01*
X64923523Y-37492083D01*
X64979456Y-37533955D01*
X65003873Y-37599419D01*
X64990674Y-37664559D01*
X64909434Y-37824000D01*
X64836446Y-38048631D01*
X64799500Y-38281902D01*
X64799500Y-38518097D01*
X64836446Y-38751368D01*
X64909433Y-38975996D01*
X64962792Y-39080717D01*
X65016657Y-39186433D01*
X65155483Y-39377510D01*
X65322490Y-39544517D01*
X65513567Y-39683343D01*
X65588040Y-39721289D01*
X65724003Y-39790566D01*
X65724005Y-39790566D01*
X65724008Y-39790568D01*
X65844412Y-39829689D01*
X65948631Y-39863553D01*
X66181903Y-39900500D01*
X66181908Y-39900500D01*
X66418097Y-39900500D01*
X66651368Y-39863553D01*
X66875992Y-39790568D01*
X67086433Y-39683343D01*
X67277510Y-39544517D01*
X67444517Y-39377510D01*
X67583343Y-39186433D01*
X67690568Y-38975992D01*
X67763553Y-38751368D01*
X67764967Y-38742441D01*
X67800500Y-38518097D01*
X67800500Y-38281902D01*
X67763553Y-38048631D01*
X67712888Y-37892703D01*
X67690568Y-37824008D01*
X67690566Y-37824005D01*
X67690566Y-37824003D01*
X67618718Y-37682994D01*
X67583343Y-37613567D01*
X67444517Y-37422490D01*
X67277510Y-37255483D01*
X67086433Y-37116657D01*
X67019204Y-37082402D01*
X66875996Y-37009433D01*
X66651368Y-36936446D01*
X66418097Y-36899500D01*
X66418092Y-36899500D01*
X66181908Y-36899500D01*
X66181903Y-36899500D01*
X65948631Y-36936446D01*
X65724000Y-37009434D01*
X65580793Y-37082402D01*
X65512124Y-37095298D01*
X65447384Y-37069021D01*
X65407127Y-37011915D01*
X65400499Y-36971922D01*
X65400499Y-35900136D01*
X65400497Y-35900117D01*
X65397586Y-35875012D01*
X65397585Y-35875010D01*
X65397585Y-35875009D01*
X65352206Y-35772235D01*
X65352205Y-35772233D01*
X65311158Y-35731186D01*
X65277674Y-35669863D01*
X65282659Y-35600171D01*
X65286195Y-35591669D01*
X65290291Y-35582767D01*
X65309394Y-35554179D01*
X65362970Y-35424831D01*
X65363969Y-35422663D01*
X65385407Y-35398065D01*
X65405893Y-35372644D01*
X65408247Y-35371860D01*
X65409877Y-35369991D01*
X65441206Y-35360890D01*
X65472187Y-35350579D01*
X65476614Y-35350500D01*
X68025500Y-35350500D01*
X68092539Y-35370185D01*
G37*
%TD.AperFunction*%
%TA.AperFunction,NonConductor*%
G36*
X58887539Y-39668485D02*
G01*
X58933294Y-39721289D01*
X58944500Y-39772800D01*
X58944500Y-40494856D01*
X58944502Y-40494877D01*
X58946397Y-40511214D01*
X58934567Y-40580075D01*
X58887387Y-40631609D01*
X58823223Y-40649500D01*
X53846204Y-40649500D01*
X53779165Y-40629815D01*
X53733410Y-40577011D01*
X53723466Y-40507853D01*
X53752491Y-40444297D01*
X53758523Y-40437819D01*
X53879414Y-40316928D01*
X53981232Y-40176788D01*
X54059873Y-40022445D01*
X54113402Y-39857701D01*
X54129921Y-39753402D01*
X54159850Y-39690268D01*
X54219161Y-39653336D01*
X54252394Y-39648800D01*
X58820500Y-39648800D01*
X58887539Y-39668485D01*
G37*
%TD.AperFunction*%
%TA.AperFunction,NonConductor*%
G36*
X38906630Y-39630253D02*
G01*
X38964863Y-39668863D01*
X38992473Y-39729321D01*
X39017829Y-39889410D01*
X39073787Y-40061636D01*
X39073788Y-40061639D01*
X39156006Y-40222997D01*
X39262441Y-40369494D01*
X39262445Y-40369499D01*
X39330765Y-40437819D01*
X39364250Y-40499142D01*
X39359266Y-40568834D01*
X39317394Y-40624767D01*
X39251930Y-40649184D01*
X39243084Y-40649500D01*
X38496916Y-40649500D01*
X38429877Y-40629815D01*
X38384122Y-40577011D01*
X38374178Y-40507853D01*
X38403203Y-40444297D01*
X38409235Y-40437819D01*
X38477553Y-40369501D01*
X38583996Y-40222994D01*
X38666211Y-40061639D01*
X38722171Y-39889409D01*
X38739327Y-39781092D01*
X38747527Y-39729321D01*
X38777456Y-39666186D01*
X38836768Y-39629255D01*
X38906630Y-39630253D01*
G37*
%TD.AperFunction*%
%TA.AperFunction,NonConductor*%
G36*
X36366630Y-39630253D02*
G01*
X36424863Y-39668863D01*
X36452473Y-39729321D01*
X36477829Y-39889410D01*
X36533787Y-40061636D01*
X36533788Y-40061639D01*
X36616006Y-40222997D01*
X36722441Y-40369494D01*
X36722445Y-40369499D01*
X36790765Y-40437819D01*
X36824250Y-40499142D01*
X36819266Y-40568834D01*
X36777394Y-40624767D01*
X36711930Y-40649184D01*
X36703084Y-40649500D01*
X35956916Y-40649500D01*
X35889877Y-40629815D01*
X35844122Y-40577011D01*
X35834178Y-40507853D01*
X35863203Y-40444297D01*
X35869235Y-40437819D01*
X35937553Y-40369501D01*
X36043996Y-40222994D01*
X36126211Y-40061639D01*
X36182171Y-39889409D01*
X36199327Y-39781092D01*
X36207527Y-39729321D01*
X36237456Y-39666186D01*
X36296768Y-39629255D01*
X36366630Y-39630253D01*
G37*
%TD.AperFunction*%
%TA.AperFunction,NonConductor*%
G36*
X33826630Y-39630253D02*
G01*
X33884863Y-39668863D01*
X33912473Y-39729321D01*
X33937829Y-39889410D01*
X33993787Y-40061636D01*
X33993788Y-40061639D01*
X34076006Y-40222997D01*
X34182441Y-40369494D01*
X34182445Y-40369499D01*
X34250765Y-40437819D01*
X34284250Y-40499142D01*
X34279266Y-40568834D01*
X34237394Y-40624767D01*
X34171930Y-40649184D01*
X34163084Y-40649500D01*
X33416916Y-40649500D01*
X33349877Y-40629815D01*
X33304122Y-40577011D01*
X33294178Y-40507853D01*
X33323203Y-40444297D01*
X33329235Y-40437819D01*
X33397553Y-40369501D01*
X33503996Y-40222994D01*
X33586211Y-40061639D01*
X33642171Y-39889409D01*
X33659327Y-39781092D01*
X33667527Y-39729321D01*
X33697456Y-39666186D01*
X33756768Y-39629255D01*
X33826630Y-39630253D01*
G37*
%TD.AperFunction*%
%TA.AperFunction,NonConductor*%
G36*
X31286630Y-39630253D02*
G01*
X31344863Y-39668863D01*
X31372473Y-39729321D01*
X31397829Y-39889410D01*
X31453787Y-40061636D01*
X31453788Y-40061639D01*
X31536006Y-40222997D01*
X31642441Y-40369494D01*
X31642445Y-40369499D01*
X31710765Y-40437819D01*
X31744250Y-40499142D01*
X31739266Y-40568834D01*
X31697394Y-40624767D01*
X31631930Y-40649184D01*
X31623084Y-40649500D01*
X30876916Y-40649500D01*
X30809877Y-40629815D01*
X30764122Y-40577011D01*
X30754178Y-40507853D01*
X30783203Y-40444297D01*
X30789235Y-40437819D01*
X30857553Y-40369501D01*
X30963996Y-40222994D01*
X31046211Y-40061639D01*
X31102171Y-39889409D01*
X31119327Y-39781092D01*
X31127527Y-39729321D01*
X31157456Y-39666186D01*
X31216768Y-39629255D01*
X31286630Y-39630253D01*
G37*
%TD.AperFunction*%
%TA.AperFunction,NonConductor*%
G36*
X28746630Y-39630253D02*
G01*
X28804863Y-39668863D01*
X28832473Y-39729321D01*
X28857829Y-39889410D01*
X28913787Y-40061636D01*
X28913788Y-40061639D01*
X28996006Y-40222997D01*
X29102441Y-40369494D01*
X29102445Y-40369499D01*
X29170765Y-40437819D01*
X29204250Y-40499142D01*
X29199266Y-40568834D01*
X29157394Y-40624767D01*
X29091930Y-40649184D01*
X29083084Y-40649500D01*
X28336916Y-40649500D01*
X28269877Y-40629815D01*
X28224122Y-40577011D01*
X28214178Y-40507853D01*
X28243203Y-40444297D01*
X28249235Y-40437819D01*
X28317553Y-40369501D01*
X28423996Y-40222994D01*
X28506211Y-40061639D01*
X28562171Y-39889409D01*
X28579327Y-39781092D01*
X28587527Y-39729321D01*
X28617456Y-39666186D01*
X28676768Y-39629255D01*
X28746630Y-39630253D01*
G37*
%TD.AperFunction*%
%TA.AperFunction,NonConductor*%
G36*
X26206630Y-39630253D02*
G01*
X26264863Y-39668863D01*
X26292473Y-39729321D01*
X26317829Y-39889410D01*
X26373787Y-40061636D01*
X26373788Y-40061639D01*
X26456006Y-40222997D01*
X26562441Y-40369494D01*
X26562445Y-40369499D01*
X26630765Y-40437819D01*
X26664250Y-40499142D01*
X26659266Y-40568834D01*
X26617394Y-40624767D01*
X26551930Y-40649184D01*
X26543084Y-40649500D01*
X25796916Y-40649500D01*
X25729877Y-40629815D01*
X25684122Y-40577011D01*
X25674178Y-40507853D01*
X25703203Y-40444297D01*
X25709235Y-40437819D01*
X25777553Y-40369501D01*
X25883996Y-40222994D01*
X25966211Y-40061639D01*
X26022171Y-39889409D01*
X26039327Y-39781092D01*
X26047527Y-39729321D01*
X26077456Y-39666186D01*
X26136768Y-39629255D01*
X26206630Y-39630253D01*
G37*
%TD.AperFunction*%
%TA.AperFunction,NonConductor*%
G36*
X23666630Y-39630253D02*
G01*
X23724863Y-39668863D01*
X23752473Y-39729321D01*
X23777829Y-39889410D01*
X23833787Y-40061636D01*
X23833788Y-40061639D01*
X23916006Y-40222997D01*
X24022441Y-40369494D01*
X24022445Y-40369499D01*
X24090765Y-40437819D01*
X24124250Y-40499142D01*
X24119266Y-40568834D01*
X24077394Y-40624767D01*
X24011930Y-40649184D01*
X24003084Y-40649500D01*
X23256916Y-40649500D01*
X23189877Y-40629815D01*
X23144122Y-40577011D01*
X23134178Y-40507853D01*
X23163203Y-40444297D01*
X23169235Y-40437819D01*
X23237553Y-40369501D01*
X23343996Y-40222994D01*
X23426211Y-40061639D01*
X23482171Y-39889409D01*
X23499327Y-39781092D01*
X23507527Y-39729321D01*
X23537456Y-39666186D01*
X23596768Y-39629255D01*
X23666630Y-39630253D01*
G37*
%TD.AperFunction*%
M02*
